<svg xmlns="http://www.w3.org/2000/svg" viewBox="0 0 32 32"><defs><style>.cls-1{fill:#832fbc}</style></defs><title>AppStudio_for_ArcGIS_Glyph_32</title><path class="cls-1" d="M24.452 29.751a5.12 5.12 0 0 1-1.67-2.26l-3.88-10.347a.375.375 0 0 0-.248-.23l-1.374-.39-1.328-4.192a.107.107 0 0 0-.203 0l-1.336 4.192-1.375.39a.375.375 0 0 0-.248.23l-3.278 8.722a6.316 6.316 0 0 1-3.202 3.491l-1.554.744a.047.047 0 0 1-.064-.059l7.705-20.95a4.625 4.625 0 1 1 6.9 0l3.898 10.6a11.457 11.457 0 0 1 1.305-.08 11.535 11.535 0 0 1 4.784 1.155.047.047 0 0 1-.01.089 21.838 21.838 0 0 0-4.958 1.607l-.087.042 1.452 3.947a5.124 5.124 0 0 1 .22 2.75l-.268 1.374a.047.047 0 0 1-.074.028zm-8.516-25.84a2.1 2.1 0 1 0 2.1 2.1 2.102 2.102 0 0 0-2.1-2.1zm-2.446 24.78a.047.047 0 0 1-.075-.045 11.38 11.38 0 0 1 4.328-6.578l1.094 2.926a55.298 55.298 0 0 0-5.347 3.698z" id="icons"/></svg>