<svg xmlns="http://www.w3.org/2000/svg" viewBox="0 0 32 32"><defs><style>.cls-1{fill:#22a422}</style></defs><title>Explorer_for_ArcGIS_Glyph_32</title><path class="cls-1" d="M16 1.166A14.835 14.835 0 1 0 30.834 16 14.834 14.834 0 0 0 16 1.166zm10.055 20.12a.047.047 0 0 1 .059.005.047.047 0 0 1 .008.058 11.881 11.881 0 0 1-10.205 5.892 11.724 11.724 0 0 1-11.712-11.71 10.877 10.877 0 0 1 .433-3.36c2.918 2.829 7.806 3.779 13.169.852l1.859 2.522a.19.19 0 0 0 .336-.063l1.907-7a.24.24 0 0 0-.198-.301l-7.77-1.086a.19.19 0 0 0-.186.292l1.572 2.395c-2.938 1.496-7.857.265-6.997-3.162a11.702 11.702 0 0 1 19.232 7.708c-3.244 4.914-8.783 6.986-16.09 6.84a.123.123 0 0 0-.059.231c4.079 2.142 11.49 2.035 14.642-.114z" id="icons"/></svg>