<svg xmlns="http://www.w3.org/2000/svg" viewBox="0 0 32 32"><title>arcgis-instant-apps-glyph-32</title><path d="M11.206 4.805v-1.38a2.231 2.231 0 0 1 2.23-2.231h13.168a2.231 2.231 0 0 1 2.231 2.23v11.15a2.231 2.231 0 0 1-2.23 2.231h-1.398V5.555a.75.75 0 0 0-.75-.75zM30.94 27.204l-5.447-4.41a.211.211 0 0 0-.344.164v2.225H8.197a1.344 1.344 0 0 1-1.344-1.344V11.665a.75.75 0 0 1 .75-.75h9.872a.75.75 0 0 1 .75.75l-.003 7.534a2.422 2.422 0 0 1-.798 1.796l-.945.855h4.3a1.075 1.075 0 0 0 1.074-1.075v-10.54a2.231 2.231 0 0 0-2.23-2.23H5.354a2.148 2.148 0 0 0-2.13 2.23v16.507a2.231 2.231 0 0 0 2.23 2.231l19.695-.003v2.725a.211.211 0 0 0 .344.164l5.447-4.41a.158.158 0 0 0 0-.245z" fill="#83a238" id="icons"/></svg>