<svg xmlns="http://www.w3.org/2000/svg" viewBox="0 0 32 32"><defs><style>.cls-1{fill:#4fbaa9}</style></defs><title>Tracker_for_ArcGIS_Glyph_32</title><path class="cls-1" d="M29.803 19.831a4.967 4.967 0 0 0-1.077-2.032 5.106 5.106 0 0 0-1.854-1.341 4.99 4.99 0 0 0-2.248-.38 4.935 4.935 0 0 0-2.18.646 4.347 4.347 0 0 0-.48.313l-.229.173-.315.287a2.345 2.345 0 0 0-.09.086l-8.11 8.123c-.041.042-.095.099-.11.109a1.66 1.66 0 0 1-.628.386 1.603 1.603 0 0 1-.741.063 1.557 1.557 0 0 1-.691-.267 1.643 1.643 0 0 1-.717-1.27 1.609 1.609 0 0 1 .127-.742 1.252 1.252 0 0 1 .084-.168q.024-.04.046-.083l.057-.076a1.041 1.041 0 0 1 .121-.148l.031-.037a.286.286 0 0 1 .026-.027L23.707 10.44a4.697 4.697 0 0 0 .963-4.16 4.766 4.766 0 0 0-.39-1.036c-.09-.16-.18-.323-.286-.475a4.563 4.563 0 0 0-.34-.436 4.742 4.742 0 0 0-1.784-1.272 4.798 4.798 0 0 0-2.168-.315 4.73 4.73 0 0 0-2.075.706c-.158.096-.301.212-.45.321-.07.06-.137.121-.205.183l-.152.14-9.233 9.27c-.102.105-.143.134-.2.187a1.428 1.428 0 0 1-.17.136 2.07 2.07 0 0 1-.794.341 2.12 2.12 0 0 1-.87-.018 2.071 2.071 0 0 1-.781-.365 2.122 2.122 0 0 1-.571-.655 2.08 2.08 0 0 1 .303-2.427c.03-.04.143-.15.226-.233l3.656-3.655 1.529 1.528a.276.276 0 0 0 .272.031.24.24 0 0 0 .157-.2l.616-5.763a.24.24 0 0 0-.266-.263l-5.756.678a.24.24 0 0 0-.198.16.234.234 0 0 0 .062.244l1.483 1.483s-3.716 3.712-3.85 3.86a5.047 5.047 0 0 0 6.59 7.58 4.246 4.246 0 0 0 .415-.327 7.33 7.33 0 0 0 .347-.323l9.296-9.246c.055-.033.102-.08.16-.11a1.703 1.703 0 0 1 .73-.246 1.771 1.771 0 0 1 .765.114 1.657 1.657 0 0 1 .974 1.133 1.634 1.634 0 0 1-.345 1.447q-.034.035-.066.071c-.014.015-.015.02-.038.043L8.426 21.322a4.027 4.027 0 0 0-.357.427c-.055.075-.11.149-.163.226l-.144.239a4.397 4.397 0 0 0-.252.498 4.896 4.896 0 0 0 .204 4.306 4.96 4.96 0 0 0 1.482 1.645 4.907 4.907 0 0 0 4.277.654 4.958 4.958 0 0 0 1.918-1.132c.08-.071.111-.105.158-.15l8.223-8.01a.374.374 0 0 1 .047-.042l.034-.029.067-.06q.037-.023.073-.048a1.023 1.023 0 0 1 .148-.09 1.445 1.445 0 0 1 .667-.174 1.462 1.462 0 0 1 .67.134 1.544 1.544 0 0 1 .533.415 1.368 1.368 0 0 1 .29.596 1.407 1.407 0 0 1-.004.66 1.472 1.472 0 0 1-.293.574c-.031.044-.078.077-.111.12l-2.249 2.116a1.6 1.6 0 0 0-.034 2.297l1.566 1.567 3.365-3.37c.13-.146.265-.287.38-.444a5.099 5.099 0 0 0 .882-4.416z" id="icons"/></svg>