<svg xmlns="http://www.w3.org/2000/svg" viewBox="0 0 32 32"><defs><style>.cls-1{fill:#d82e00}</style></defs><title>Workforce_for_ArcGIS_Glyph_32</title><path class="cls-1" d="M27.76 22.349a.128.128 0 0 1 .24.061v2.54A4.05 4.05 0 0 1 23.95 29H12.959a.958.958 0 0 1-.958-.958V18.15A3.15 3.15 0 0 1 15.15 15H26v-2.555a.188.188 0 0 1 .305-.146l4.84 3.918a.14.14 0 0 1 0 .219l-4.84 3.917a.188.188 0 0 1-.305-.146V18H15v6.587a.413.413 0 0 0 .413.413h8.088a5.636 5.636 0 0 0 4.259-2.651zm.24-13.2A3.15 3.15 0 0 0 24.85 6H16l-2.491-2.491A1.736 1.736 0 0 0 12.28 3H6.149A3.15 3.15 0 0 0 3 6.15V20.85a3.157 3.157 0 0 0 2.924 3.138l2.982.01A.094.094 0 0 0 9 23.907V20.1a.094.094 0 0 0-.094-.094H6.375A.375.375 0 0 1 6 19.631V6.238A.238.238 0 0 1 6.238 6H11l2.643 2.643a1.219 1.219 0 0 0 .862.357H26l2 1.7z" id="icons"/></svg>