<svg xmlns="http://www.w3.org/2000/svg" id="icons" viewBox="0 0 16 16"><path d="M6.428 0H.572A.572.572 0 0 0 0 .572v5.857A.571.571 0 0 0 .572 7h5.856A.571.571 0 0 0 7 6.43V.571A.572.572 0 0 0 6.428 0ZM6 6H1V1h5Zm6.5-6a3.5 3.5 0 1 0 3.491 3.5A3.5 3.5 0 0 0 12.5 0Zm0 6a2.5 2.5 0 1 1 2.491-2.5A2.503 2.503 0 0 1 12.5 6Zm-9 3A3.5 3.5 0 1 0 7 12.5 3.5 3.5 0 0 0 3.5 9Zm0 6A2.5 2.5 0 1 1 6 12.5 2.503 2.503 0 0 1 3.5 15Zm12.346-3.354-3.492-3.492a.5.5 0 0 0-.708 0l-3.492 3.492a.5.5 0 0 0 0 .708l3.492 3.492a.5.5 0 0 0 .708 0l3.492-3.492a.5.5 0 0 0 0-.708ZM12 14.786 9.214 12 12 9.214 14.786 12Z" fill-rule="evenodd"/><path d="M0 0h15.991v16H0z" fill="none"/></svg>