<svg xmlns="http://www.w3.org/2000/svg" id="icons" viewBox="0 0 16 16"><path d="M16 3V0H9v7h7V3Zm-1-2v1h-3V1h3Zm-4 0v2h2v1h-3V1h1Zm-1 5V5h4V3h1v3h-5ZM7 0H0v7h7V0ZM6 4h-.33A2.674 2.674 0 0 1 3 1.33V1h3v3ZM1 6V5h.561A.44.44 0 0 1 2 5.439V6H1Zm2 0v-.561A1.44 1.44 0 0 0 1.561 4H1V1h1v.33A3.675 3.675 0 0 0 5.67 5H6v1H3Zm13 3H9v7h7V9Zm-6 6v-3h3v1h-1v1h1v1h-3Zm5 0h-1v-3h1v3Zm0-4h-5v-1h5v1ZM7 9H0v7h7V9Zm-1 1v3.09a8.93 8.93 0 0 0-.314.057c-.018-.04-.036-.082-.051-.12-.125-.297-.297-.704-.653-1.06-.873-.872-1.18-1.093-1.977-1.093-.673 0-1.422.562-2.005 1.15V10h5Zm-5 5v-1.432l.11-.149c.682-.924 1.53-1.545 1.895-1.545.397 0 .47 0 1.27.8.218.218.335.496.438.742.112.265.328.78.807.78a.816.816 0 0 0 .245-.041c.013-.005.079-.021.235-.05V15H1Z" stroke-width="0"/><path d="M0 0h16v16H0z" stroke-width="0" fill="none"/></svg>