<svg xmlns="http://www.w3.org/2000/svg" id="icons" viewBox="0 0 16 16"><path d="M11.155 12H9.98l1.602 1.602-.707.707L8.065 11.5l2.809-2.81.707.708L9.979 11h1.176a2.98 2.98 0 0 0 2.122-.878 2.713 2.713 0 0 0 .275-3.346 1.232 1.232 0 0 0-.095-.13l.74-.651a2.168 2.168 0 0 1 .176.236 3.681 3.681 0 0 1-.407 4.598A3.932 3.932 0 0 1 11.156 12Zm-9.353-1.995.723-.651a1.23 1.23 0 0 1-.095-.13 2.712 2.712 0 0 1 .275-3.346A2.98 2.98 0 0 1 4.826 5h1.162L4.4 6.588l.707.707 2.81-2.81-2.81-2.808-.707.707L6.017 4h-1.19a3.89 3.89 0 0 0-2.793 1.171 3.68 3.68 0 0 0-.407 4.598 2.17 2.17 0 0 0 .175.236Zm12.445-8.981L1.007 14.24l.706.708 13.24-13.216Z"/><path d="M0 0h16v16H0z" fill="none"/></svg>