<svg xmlns="http://www.w3.org/2000/svg" id="icons" viewBox="0 0 16 16"><path d="M0 0h16v16H0z" fill="none" stroke-width="0"/><path d="M8 9H6V8h2v1Zm7.95 2.5a2.45 2.45 0 0 1-2.45 2.45c-.077 0-.15-.016-.226-.023L11.3 16H9v-1.5l2.165-2.296a2.422 2.422 0 0 1-.115-.704 2.45 2.45 0 0 1 4.9 0Zm-.95 0c0-.827-.673-1.5-1.5-1.5s-1.5.673-1.5 1.5c0 .351.126.67.33.927L10 14.897V15h.986l2.012-2.093c.158.057.325.093.502.093.827 0 1.5-.673 1.5-1.5Zm-2 .5h1v-1h-1v1ZM9 6H6v1h3V6Zm-1 8.32-.32.142a.45.45 0 0 1-.36 0L2 12.105V4.1a1 1 0 0 1 .595-.914L7.32 1.092a.45.45 0 0 1 .36-.001L13 3.449V8h1V2.799L8.081.176a1.446 1.446 0 0 0-1.164 0L2.19 2.272A1.999 1.999 0 0 0 1 4.1v8.655l5.919 2.623c.185.081.38.122.581.122.172 0 .339-.036.5-.096V14.32ZM4 7.5c0-.53.127-1.027.339-1.477l-.78-.654A4.45 4.45 0 0 0 3 7.5 4.5 4.5 0 0 0 7.5 12c.529 0 1.029-.108 1.5-.276V10.65A3.46 3.46 0 0 1 7.5 11C5.57 11 4 9.43 4 7.5ZM7.5 3c-.873 0-1.682.26-2.372.69l.821.689C6.42 4.144 6.94 4 7.5 4 9.43 4 11 5.57 11 7.5c0 .171-.027.335-.05.5h1c.018-.166.05-.329.05-.5A4.5 4.5 0 0 0 7.5 3Z" fill="#000" stroke-width="0"/></svg>