<svg xmlns="http://www.w3.org/2000/svg" id="icons" viewBox="0 0 16 16"><path d="M10 8h4v1h-4V8Zm0 3h4v-1h-4v1Zm1 2h2v-1h-2v1ZM10 0v3h6v12H0V3h6V0h4ZM7 1v4h2V1H7ZM1 4v1h5V4H1Zm7 10v-.5c0-.827-.673-1.5-1.5-1.5h-2c-.827 0-1.5.673-1.5 1.5v.5h5ZM7 9.5C7 8.673 6.327 8 5.5 8S4 8.673 4 9.5 4.673 11 5.5 11 7 10.327 7 9.5Zm8 4.5V6H1v8h1v-.5c0-1.077.688-1.989 1.645-2.34A2.48 2.48 0 0 1 3 9.5a2.494 2.494 0 1 1 4.99 0c0 .64-.238 1.218-.635 1.66A2.496 2.496 0 0 1 9 13.5v.5h6ZM10 4v1h5V4h-5Z" fill="#231f20"/><path d="M0 0h16v16H0z" fill="none"/></svg>