<svg xmlns="http://www.w3.org/2000/svg" id="icons" viewBox="0 0 16 16"><path d="M16 15.29a6.645 6.645 0 0 0-3.649-1.082l-.978-.978c.265-.018.54-.03.835-.03a8.305 8.305 0 0 1 2.488.376l-1.72-10.163A7.763 7.763 0 0 0 12 3.15c0-.234-.001-.387-.002-.405a3.923 3.923 0 0 0-.085-.628 8.127 8.127 0 0 1 1.953.571ZM2.935 3.74c.31.067.672.132 1.069.18V3c-.001-.03.006-.059.006-.089a10.11 10.11 0 0 1-1.877-.423l-.218 1.284.868.868ZM.354 13h1.014l.169-1H.523ZM2 15.654c.305.05.634.092 1 .117v-1.003a9.484 9.484 0 0 1-1-.13Zm5.68-1.601c-.549.185-1.087.363-1.68.5v1.025a25.416 25.416 0 0 0 2.678-.8l-.793-.794-.204.069ZM.693 11h1.014l.17-1H.86ZM4 15.793a11.12 11.12 0 0 0 1-.061v-1.004c-.307.036-.646.054-1 .06Zm-4-.704a6.02 6.02 0 0 0 1 .353V14H.184Zm2.169-6.821L1.3 7.4 1.031 9h1.014ZM8 10.018 5.002 7.018V3.021A2.898 2.898 0 0 1 7.792.024c.072-.003.143-.006.215-.003a2.887 2.887 0 0 1 2.99 2.783q.005.109.001.217V7.02Zm-2-3.43 2 1.997 2-1.998s.002-3.718 0-3.763a1.901 1.901 0 0 0-1.96-1.818h-.22A1.904 1.904 0 0 0 6 3.003ZM9.25 3a1.249 1.249 0 0 0-1.248-1.25H8A1.25 1.25 0 1 0 9.25 3ZM.024 4.71l11.26 11.259.707-.707L.73 4.002Z"/><path d="M0 0h16v16H0z" fill="none"/></svg>