<svg xmlns="http://www.w3.org/2000/svg" id="icons" viewBox="0 0 16 16"><path d="m15.768 15.06-2.398-2.397A2.88 2.88 0 0 0 13.9 11a2.9 2.9 0 1 0-2.9 2.9 2.88 2.88 0 0 0 1.663-.53l2.398 2.398a.5.5 0 1 0 .707-.707ZM9.1 11c0-1.048.852-1.9 1.9-1.9s1.9.852 1.9 1.9-.852 1.9-1.9 1.9-1.9-.852-1.9-1.9ZM2 13V7h12v.953c.435.422.776.933 1 1.506V3l-6.7.002L6.98 2H4L2.7 3H1v11h6.928a4.312 4.312 0 0 1-.712-1H2Zm0-9h1.04l1.3-1h2.304l1.319 1H14v2H2V4Z" stroke-width="0"/><path d="M0 0h16v16H0z" stroke-width="0" fill="none"/></svg>