<svg xmlns="http://www.w3.org/2000/svg" id="icons" viewBox="0 0 16 16"><path d="M3 3h1v1H3V3Zm2 1h1V3H5v1Zm2 0h1V3H7v1Zm8-3v6.96c-.3-.23-.64-.42-1-.57V6H2v3h6.02c-.24.31-.44.64-.6 1H1V1h14Zm-1 1H2v3h12V2ZM3 7v1h1V7H3Zm2 0v1h1V7H5Zm2 0v1h1V7H7Zm9 5c0 2.21-1.7 4-3.94 4S8 14.21 8 12c0-2.201 1.821-4 4.06-4C14.353 8 16 9.853 16 12Zm-1 0c0-1.673-1.378-3-3-3-1.621 0-3 1.326-3 3 0 1.65 1.35 3 3 3s3-1.35 3-3Zm-3 0h1v1h-2v-3h1v2Zm4 0c0 2.21-1.7 4-3.94 4S8 14.21 8 12c0-2.201 1.821-4 4.06-4C14.353 8 16 9.853 16 12Zm-1 0c0-1.673-1.378-3-3-3-1.621 0-3 1.326-3 3 0 1.65 1.35 3 3 3s3-1.35 3-3Zm-3 0h1v1h-2v-3h1v2Zm0 0v-2h-1v3h2v-1h-1Z"/><path fill="none" d="M0 0h16v16H0z"/></svg>