<svg xmlns="http://www.w3.org/2000/svg" id="icons" viewBox="0 0 16 16"><path d="M3 3h1v1H3V3Zm2 1h1V3H5v1Zm2 0h1V3H7v1Zm8-3v6.83l-1-.56V6H2v3h6.16a.97.97 0 0 0-.04 1H1V1h14Zm-1 1H2v3h12V2ZM4 7H3v1h1V7Zm2 0H5v1h1V7Zm2 0H7v1h1V7Zm4.5 1.63-1.49.87 1.49.87 1.49-.87-1.49-.87m0-1.157L15.975 9.5 12.5 11.527 9.025 9.5 12.5 7.473Zm0 5.054L9.883 11l-.858.5 3.475 2.027 3.475-2.027-.858-.5-2.617 1.527Zm0 2L9.883 13l-.858.5 3.475 2.027 3.475-2.027-.858-.5-2.617 1.527Z"/><path fill="none" d="M0 0h16v16H0z"/></svg>