<svg xmlns="http://www.w3.org/2000/svg" id="icons" viewBox="0 0 16 16"><path d="M0 0h16v16H0z" fill="none" stroke-width="0"/><path d="M2 6H1V4h1v2Zm4-5H4v1h2V1ZM2 2h1V1H1v2h1V2Zm0 5H1v2h1V7Zm10-6h-2v1h2V1ZM3.839 8.015 3 8.504 8.012 11 13 8.497 12.152 8l-4.14 2-4.173-1.985ZM9 1H7v1h2V1Zm4 5.5L8.012 9 3 6.5 8.012 4 13 6.5ZM8.012 8.1l3.29-1.6-3.29-1.624L4.674 6.5l3.338 1.6ZM2 13H1v2h2v-1H2v-1Zm0-3H1v2h1v-2Zm12 2h1v-2h-1v2Zm0-3h1V7h-1v2Zm0-3h1V4h-1v2Zm-1-5v1h1v1h1V1h-2Zm-3 14h2v-1h-2v1Zm-3 0h2v-1H7v1Zm7-1h-1v1h2v-2h-1v1ZM4 15h2v-1H4v1Zm9-4.503L12.152 10l-4.14 1.973L3.839 10 3 10.49l5.012 2.483L13 10.497Z" stroke-width="0"/></svg>