<svg xmlns="http://www.w3.org/2000/svg" id="icons" viewBox="0 0 16 16"><path d="M8 7H5V6h3v1Zm-3 3h1.2c.205-.313.488-.559.8-.765V9H5v1Zm3-7H5v1h3V3ZM6.2 13H1.833c-.46 0-.833-.407-.833-.91V1.91c0-.503.373-.91.833-.91h6.334c.46 0 .833.407.833.91v6.888c.141.026.28.06.415.108l.338-.282A2.725 2.725 0 0 1 10 7.369V1.795C10 .806 9.253 0 8.333 0H1.667C.747 0 0 .806 0 1.795v10.41C0 13.195.747 14 1.667 14h5.702A2.76 2.76 0 0 1 6.2 13Zm9.8-1.5c0 .827-.673 1.5-1.5 1.5-.651 0-1.201-.42-1.408-1.001h-3.066l1.572 1.31c.252-.191.562-.309.902-.309.827 0 1.5.673 1.5 1.5s-.673 1.5-1.5 1.5-1.5-.673-1.5-1.5c0-.215.047-.419.13-.604l-1.587-1.322c-.27.263-.637.426-1.043.426-.827 0-1.5-.673-1.5-1.5S7.673 10 8.5 10c.406 0 .773.163 1.043.426l1.586-1.322A1.488 1.488 0 0 1 11 8.5c0-.827.673-1.5 1.5-1.5s1.5.673 1.5 1.5-.673 1.5-1.5 1.5c-.34 0-.65-.118-.902-.31L10.026 11h3.066c.207-.58.757-1 1.408-1 .827 0 1.5.673 1.5 1.5ZM12 9h1V8h-1v1Zm-3 2H8v1h1v-1Zm3 4h1v-1h-1v1Zm3-4h-1v1h1v-1ZM4 3H2v2h2V3Zm-2 8h2V9H2v2Zm2-5H2v2h2V6Z" stroke-width="0"/><path d="M0 0h16v16H0z" stroke-width="0" fill="none"/></svg>