<svg xmlns="http://www.w3.org/2000/svg" id="icons" viewBox="0 0 16 16"><path d="M0 0h16v16H0z" fill="none" stroke-width="0"/><path d="M0 10v6h6v-6H0Zm5 1v2.063c-.238.041-.676.028-.964-.22l-.096-.086c-.262-.242-.752-.694-1.457-.694-.6 0-1.051.358-1.483.862V11h4Zm-4 4v-.433l.202-.274c.486-.66.907-1.23 1.281-1.23.314 0 .573.238.78.43l.122.11c.47.402 1.105.512 1.615.465V15H1Zm6-5v6h6v-6H7Zm1 5v-2h2v2H8Zm4 0h-1v-2h1v2Zm0-3H8v-1h4v1ZM0 3v6h6V3H0Zm5 3h-.33C3.12 6 3 4.721 3 4.33V4h2v2ZM1 8V7h.56a.44.44 0 0 1 .44.439V8H1Zm2 0v-.561A1.44 1.44 0 0 0 1.56 6H1V4h1v.33C2 5.658 2.826 7 4.67 7H5v1H3Zm9-2h1v3H7V3h3v1H8v4h4V6Zm4-6v4h-1V1.707l-4.175 4.175-.707-.707L14.293 1H12V0h4Z" stroke-width="0"/></svg>