<svg xmlns="http://www.w3.org/2000/svg" id="icons" viewBox="0 0 16 16"><path d="M0 0h16v16H0z" fill="none" stroke-width="0"/><path d="M14 1v15H1V1h2v1H2v13h11V2h-1V1h2Zm-2 4H3v1h9V5Zm0 3H3v1h9V8Zm-4 3H3v1h5v-1ZM5 2.5v-2c0-.275-.225-.5-.5-.5S4 .225 4 .5v2c0 .275.225.5.5.5s.5-.225.5-.5Zm2 0v-2c0-.275-.225-.5-.5-.5S6 .225 6 .5v2c0 .275.225.5.5.5s.5-.225.5-.5Zm2 0v-2c0-.275-.225-.5-.5-.5S8 .225 8 .5v2c0 .275.225.5.5.5s.5-.225.5-.5Zm2 0v-2c0-.275-.225-.5-.5-.5s-.5.225-.5.5v2c0 .275.225.5.5.5s.5-.225.5-.5Z" stroke-width="0"/></svg>