<svg xmlns="http://www.w3.org/2000/svg" id="icons" viewBox="0 0 16 16"><path d="M0 0h16v16H0z" fill="none" stroke-width="0"/><path d="M12 6H3V5h9v1ZM3 8v1h7V8H3Zm0 3v1h4v-1H3ZM14 1v6h-1V2h-1V1h2ZM2 15h8v1H1V1h2v1H2v13ZM5 2.5v-2c0-.275-.225-.5-.5-.5S4 .225 4 .5v2c0 .275.225.5.5.5s.5-.225.5-.5Zm2 0v-2c0-.275-.225-.5-.5-.5S6 .225 6 .5v2c0 .275.225.5.5.5s.5-.225.5-.5Zm2 0v-2c0-.275-.225-.5-.5-.5S8 .225 8 .5v2c0 .275.225.5.5.5s.5-.225.5-.5Zm2 0v-2c0-.275-.225-.5-.5-.5s-.5.225-.5.5v2c0 .275.225.5.5.5s.5-.225.5-.5Zm5 9.5h-3V9h-1v3H9v1h3v3h1v-3h3v-1Z" stroke-width="0"/></svg>