<svg xmlns="http://www.w3.org/2000/svg" viewBox="0 0 16 16"><path d="M1.5 11a1.5 1.5 0 0 0 1.47-1.8l2.58-1.548a1.487 1.487 0 0 0 .45.256v5.184a1.5 1.5 0 1 0 1 0V7.908A1.495 1.495 0 0 0 7.908 7h2.184a1.494 1.494 0 0 0 1.38.997l1.108 3.326a1.495 1.495 0 1 0 .948-.32L12.42 7.677a1.478 1.478 0 0 0 .233-2.126L14.2 2.97A1.5 1.5 0 1 0 13 1.5a1.486 1.486 0 0 0 .347.95L11.8 5.03a1.492 1.492 0 0 0-1.707.97H7.908a1.497 1.497 0 0 0-2.878.8L2.45 8.347A1.497 1.497 0 1 0 1.5 11ZM7 14.5v.5H6v-1h1Zm7-2.5v1h-1v-1h1Zm0-11h1v1h-1V1Zm-2.783 5H12v1h-1V6ZM6 6h1v1H6V6ZM1 9.5V9h1v1H1Zm2-8A1.5 1.5 0 1 0 1.5 3 1.5 1.5 0 0 0 3 1.5Zm-1 0V2H1V1h1ZM1 14h1v1H1Zm1-1H1v-1h1ZM1 6h1v1H1Zm1-1H1V4h1Z"/><path fill="none" d="M0 0h16v16H0z"/></svg>