<svg xmlns="http://www.w3.org/2000/svg" id="icons" viewBox="0 0 16 16"><path d="M3 3h1v1H3V3Zm2 1h1V3H5v1Zm2 0h1V3H7v1Zm8-3v5H2v3h5v1H1V1h14Zm-1 1H2v3h12V2ZM3 7v1h1V7H3Zm2 0v1h1V7H5Zm7 6 1.5 1.5L12 16l-1-1h-1c-.55 0-1-.45-1-1v-1H8v-2h1V9.908C8.42 9.7 8 9.15 8 8.5 8 7.673 8.673 7 9.5 7s1.5.673 1.5 1.5c0 .65-.42 1.2-1 1.408V11h1v2h-1v1h1l1-1Zm-2-4V8H9v1h1Zm5-1h-1.086l.293-.293L13.5 7 12 8.5l1.5 1.5.707-.707L13.914 9H15v5h-1v1h1a1 1 0 0 0 1-1V9a1 1 0 0 0-1-1Z"/><path fill="none" d="M0 0h16v16H0z"/></svg>