<svg xmlns="http://www.w3.org/2000/svg" viewBox="0 0 32 32"><defs><style>.cls-1{fill:#0b98e1}</style></defs><title>ArcGIS_Business_Analyst_Glyph_32</title><path class="cls-1" d="M18.65 21.9c0 .979-1.186 1.772-2.65 1.772-1.463 0-2.65-.793-2.65-1.773s1.187-1.771 2.65-1.771c1.464 0 2.65.792 2.65 1.771zm5.15-6.098a.215.215 0 0 0-.254.046l-1.277 1.369c2.264 1.092 3.818 2.77 3.818 4.656 0 3.295-4.627 6.065-10.087 6.065s-10.087-2.77-10.087-6.065c0-1.886 1.456-3.565 3.723-4.658l-1.178-1.361a.215.215 0 0 0-.26-.051C5.106 17.36 3.1 19.766 3.1 22.496c0 4.72 5.776 8.445 12.9 8.445s12.9-3.725 12.9-8.445c0-2.732-2.006-5.135-5.1-6.694zM21 4.902v8.368a.55.55 0 0 1-.161.39l-4.68 4.682a.223.223 0 0 1-.315 0l-4.683-4.683A.55.55 0 0 1 11 13.27V4.901C11 2.155 13.256 1.1 16.001 1.1S21 2.155 21 4.901zM18.354 6.83a2.35 2.35 0 1 0-2.35 2.35 2.37 2.37 0 0 0 2.35-2.35z" id="icons"/></svg>