<svg xmlns="http://www.w3.org/2000/svg" viewBox="0 0 32 32"><defs><style>.cls-1{fill:#dd4101}</style></defs><title>ArcGIS_Excalibur_Glyph_32</title><path class="cls-1" d="M13 13.095l3 3.564V2.216h3.273A1.727 1.727 0 0 1 21 3.943v9.545a.626.626 0 0 1-.114.36L16 20.813l-5.61-7.127V.826a.61.61 0 0 1 .61-.61h1.86a.14.14 0 0 1 .14.14zm3 18.489a.415.415 0 0 0 .266-.097L31.49 18.801a.72.72 0 0 0 0-1.107l-7.273-6.09a.04.04 0 0 0-.067.031v3.261a.11.11 0 0 0 .039.084l3.11 2.621a.335.335 0 0 1-.001.516l-11.033 9.1a.416.416 0 0 1-.53 0l-11.033-9.1A.335.335 0 0 1 4.7 17.6l2.717-2.29a1.217 1.217 0 0 0 .433-.93v-2.746a.04.04 0 0 0-.067-.03L.51 17.694a.72.72 0 0 0 0 1.106l15.224 12.686a.415.415 0 0 0 .266.097z" id="icons"/></svg>