<svg xmlns="http://www.w3.org/2000/svg" viewBox="0 0 32 32"><title>arcgis-field-maps-glyph-32</title><path d="M25.81 4H7.185A3.185 3.185 0 0 0 4 7.185v8.182a6.388 6.388 0 0 0 2.865.661c.043 0 .091-.007.135-.008V12l13.959 2.908a42.51 42.51 0 0 0-1.48 4.03 26.687 26.687 0 0 1-1.272 3.417A4.694 4.694 0 0 1 13.61 25H7.494A.494.494 0 0 1 7 24.506v-2.688c.123.005.238.027.363.027a11.783 11.783 0 0 0 4.58-1.085.123.123 0 0 1 .16.063l.714 1.614a.131.131 0 0 0 .235.01l2.807-5.014a.131.131 0 0 0-.086-.192l-5.455-1.223a.131.131 0 0 0-.149.18l.712 1.64a.123.123 0 0 1-.07.163 11.658 11.658 0 0 1-3.946.827 9.05 9.05 0 0 1-6.392-2.754.044.044 0 0 0-.07.045 10.662 10.662 0 0 0 2.586 4.12A7.024 7.024 0 0 0 4 20.938v4.873A3.19 3.19 0 0 0 7.19 29h18.62A3.19 3.19 0 0 0 29 25.81V7.19A3.19 3.19 0 0 0 25.81 4zm-.3 3a.49.49 0 0 1 .49.49v3.128a6.22 6.22 0 0 0-3.914 2.294l-6.99-1.441L15.91 7zM7.49 7h6.019l-.743 3.99L7 9.803V7.49A.49.49 0 0 1 7.49 7zm18.215 18h-6.661a7.118 7.118 0 0 0 1.134-1.666 28.197 28.197 0 0 0 1.393-3.715 33.584 33.584 0 0 1 1.742-4.575A3.99 3.99 0 0 1 26 12.861v11.844a.295.295 0 0 1-.295.295z" fill="#007AC2" id="icons"/></svg>