<svg xmlns="http://www.w3.org/2000/svg" viewBox="0 0 32 32"><defs><style>.cls-1{fill:#0b98e1}</style></defs><title>GeoPlanner_for_ArcGIS_Glyph_32</title><path class="cls-1" d="M3.603 29A.604.604 0 0 1 3 28.396V12.703A1.705 1.705 0 0 1 4.703 11H7.88l-1.828 3.035a.916.916 0 0 0-.141.465V24.58a.483.483 0 0 0 .133.35.492.492 0 0 0 .35.143h10.875a4.604 4.604 0 0 0 3.534-1.88.09.09 0 0 1 .165.05v2.455A3.31 3.31 0 0 1 17.657 29zm7.132-9a.093.093 0 0 1-.051-.171l2.188-1.46a3.067 3.067 0 0 0 .987-1.075L17.315 11H20v5.74a.26.26 0 0 0 .26.26h5.646a.094.094 0 0 0 .094-.094V6h-5.33a.12.12 0 0 1-.106-.178l1.308-2.356a.905.905 0 0 1 .79-.466h4.635A1.705 1.705 0 0 1 29 4.703v14.931a.366.366 0 0 1-.366.366zm-1.687-5.231l.003-.028 6.136-10.885a.12.12 0 0 1 .159-.047l2.694 1.38-6.217 11.03-.02.022-2.659 1.774a.06.06 0 0 1-.06.003.063.063 0 0 1-.036-.052zm7.148-12.645L17.142.37a.575.575 0 0 1 .78-.237l1.756.937a.575.575 0 0 1 .237.779l-.867 1.604a.12.12 0 0 1-.16.05z" id="icons"/></svg>