<svg xmlns="http://www.w3.org/2000/svg" viewBox="0 0 32 32"><defs><style>.cls-1{fill:#7842ed}</style></defs><title>ArcGIS_Hub_Glyph_32</title><path class="cls-1" d="M3 9.5A2.5 2.5 0 1 1 5.5 12 2.5 2.5 0 0 1 3 9.5zm23.947 14.858a.094.094 0 0 1 .033.141A13.887 13.887 0 0 1 2.1 16a13.592 13.592 0 0 1 .147-1.904.094.094 0 0 1 .146-.064 5.457 5.457 0 0 0 2.559.94c-.031.34-.052.681-.052 1.028a11.055 11.055 0 0 0 .804 4.133l4.514-2.823a.047.047 0 0 0 .021-.05A5.876 5.876 0 0 1 14.5 10.3V5.01a11.052 11.052 0 0 0-4.347 1.567 5.516 5.516 0 0 0-2.12-1.956A13.88 13.88 0 0 1 26.67 7.093a.094.094 0 0 1-.025.14L24.33 8.57a.094.094 0 0 1-.116-.018A11.085 11.085 0 0 0 17.5 5.027V10.3a5.883 5.883 0 0 1 0 11.386v5.29a11.092 11.092 0 0 0 6.628-3.424.729.729 0 0 1 .854-.158zM12.9 16a3.042 3.042 0 0 0 3.592 3.05l.048-.004a3.088 3.088 0 0 0-.108-6.102l-.015-.002A3.008 3.008 0 0 0 12.9 16zm1.6 10.972v-5.273a5.882 5.882 0 0 1-2.768-1.635.094.094 0 0 0-.118-.015l-4.382 2.74a11.067 11.067 0 0 0 7.268 4.183zm14.34-16.303a.094.094 0 0 0-.133-.045L26.41 11.95a.094.094 0 0 0-.041.114 11.002 11.002 0 0 1 .38 6.692.836.836 0 0 0 .442.96l1.8.883a.094.094 0 0 0 .13-.054 13.817 13.817 0 0 0-.282-9.876z" id="icons"/></svg>