<svg viewBox="1.37 1 40.26000595 43.16999817" xmlns="http://www.w3.org/2000/svg"><svg enable-background="new 0 0 43 46" version="1.1" xml:space="preserve" xmlns="http://www.w3.org/2000/svg" xmlns:xlink="http://www.w3.org/1999/xlink">   .st0{clip-path:url(#SVGID_2_);fill:#FFFFFF;}  <path d="m32.74 5.43c-.03-.06-1.96-1.01-1.96-1.01-2.45-.51-6.47-.29-9.28.75-2.81-1.03-6.83-1.26-9.28-.75 0 0-1.92.95-1.95 1.01l-2.99 6.57c-.1.18.06.34.23.31 4.53-.86 9.73-1.12 13.99-1.12 4.26 0 9.46.27 13.99 1.12.17.03.32-.12.23-.31zm-11.94 4.73c-3.23-.13-8.8-.13-11.59.87l1.98-4.97 1.35-.72-1.44 4.09c2.91-.55 6.13-.75 9.7.41zm1.36 0v-.31c3.57-1.17 6.79-.96 9.7-.41l-1.44-4.09 1.36.72 1.98 4.97c-2.66-1.01-8.23-1.01-11.6-.88"/><path d="m39.97 2.97-.02-.01-.13-.03c-6-1.28-12.16-1.93-18.32-1.93s-12.34.65-18.34 1.94l-.06.01-.06.02c-.96.23-1.67 1.14-1.67 2.18v3.27c0 23.54 14.57 33.1 19.04 35.46.36.19.73.29 1.1.29s.74-.1 1.09-.29c4.45-2.36 19.03-11.92 19.03-35.46v-3.27c-.01-1.02-.69-1.91-1.66-2.18m-19.29 39.55c-4.92-2.72-14.81-10.42-17.37-26.22l.12-.03c5.63-1.19 11.43-1.81 17.25-1.87zm15.58-15.14s-.01.01-.01.02c-1.05 2.17-2.23 4.09-3.48 5.77-1.13 1.53-2.31 2.88-3.48 4.04v-6.37l-3.48-2.32v11.71c-1.29.98-2.49 1.73-3.48 2.28v-16.3l3.48 2.32v-8.11l3.48 2.32v-7.99c1.16.1 2.33.22 3.48.37v9.94l3.49 2.32-.01-11.73c1.11.19 2.22.39 3.32.63l.12.03c-.69 4.25-1.92 7.92-3.43 11.07m-13.94-9.28v-3.7c1.16.01 2.32.04 3.48.1v5.92zm17.99-9.69c0 2.14-.13 4.17-.36 6.08-12.08-2.55-24.79-2.55-36.89.01-.23-1.92-.36-3.94-.36-6.09v-3.27c-.01-.44.3-.81.71-.91l.02-.01c5.83-1.24 11.87-1.9 18.07-1.9 6.19 0 12.23.66 18.04 1.9h.01c.43.09.75.47.75.92z"/><path d="m32.77 25.06-3.48-2.32v8.11l3.48 2.32z"/><path d="m13.23 30.17c3.51 0 6.37-2.86 6.37-6.37s-2.86-6.37-6.37-6.37-6.37 2.86-6.37 6.37 2.86 6.37 6.37 6.37m1.16-.93c.49-.53 1.08-1.31 1.52-2.31.61.13 1.14.3 1.57.46-.78.92-1.86 1.59-3.09 1.85m3.57-2.53c-.47-.19-1.06-.39-1.77-.55.19-.59.32-1.25.35-1.97h2.23c-.06.92-.35 1.78-.81 2.52m0-5.84c.46.74.75 1.6.82 2.52h-2.23c-.04-.72-.17-1.38-.35-1.97.71-.16 1.29-.36 1.76-.55m-.48-.67c-.43.16-.96.33-1.57.46-.44-1.01-1.03-1.78-1.52-2.31 1.23.26 2.31.93 3.09 1.85m-3.85-1.48c.43.45 1.01 1.15 1.45 2.09-.45.06-.93.11-1.45.12zm0 3.01c.63-.02 1.23-.07 1.76-.16.18.54.31 1.15.35 1.82h-2.11zm0 2.46h2.11c-.04.67-.17 1.27-.35 1.82-.53-.09-1.12-.14-1.76-.16zm0 2.47c.52.02 1 .06 1.45.12-.44.93-1.02 1.64-1.45 2.08zm-4.65.72c.43-.16.96-.33 1.57-.46.44 1.01 1.03 1.79 1.52 2.32-1.23-.26-2.3-.93-3.09-1.86m3.85 1.48c-.43-.45-1-1.15-1.44-2.08.45-.06.93-.11 1.44-.12zm0-3.01c-.63.02-1.22.07-1.75.16-.19-.55-.31-1.15-.35-1.82h2.1zm0-2.46h-2.1c.04-.67.17-1.27.35-1.82.53.09 1.12.14 1.75.16zm0-2.46c-.52-.02-1-.06-1.44-.12.44-.93 1.01-1.63 1.44-2.08zm-.75-2.58c-.49.53-1.08 1.31-1.52 2.32-.61-.13-1.14-.3-1.57-.46.78-.94 1.86-1.6 3.09-1.86m-3.58 2.52c.47.19 1.06.39 1.77.55-.19.59-.32 1.25-.35 1.97h-2.24c.07-.92.36-1.77.82-2.52m-.82 3.32h2.23c.04.72.16 1.38.35 1.97-.71.16-1.3.36-1.77.55-.45-.74-.74-1.6-.81-2.52"/></svg></svg>