<svg xmlns="http://www.w3.org/2000/svg" viewBox="0 0 32 32"><defs><style>.cls-1{fill:#22a422}</style></defs><title>ArcGIS_Living_Atlas_of_the_World_Glyph_32</title><path class="cls-1" d="M13.826 27.588a.277.277 0 0 1 .23.273v1.03a.205.205 0 0 1-.205.206h-1.73a1.054 1.054 0 0 0-1.04.751l-.602 1.456c.212.437 2.888.655 5.521.647 2.633.008 5.309-.21 5.521-.647l-.602-1.456a1.054 1.054 0 0 0-1.04-.75h-1.73a.205.205 0 0 1-.205-.206v-1.073a.276.276 0 0 1 .226-.271 12.889 12.889 0 0 0 10.68-12.534 12.972 12.972 0 0 0-.022-1.758c1.025-1.482 1.283-2.905.498-3.99a5.903 5.903 0 0 0-3.278-2.1 12.743 12.743 0 0 0-8.623-4.83.188.188 0 0 0-.208.199 12.083 12.083 0 0 1-.085 2.69 9.64 9.64 0 0 1 8.053 6.723c-3.228 4-14.207 7.645-23.273 7.22a.099.099 0 0 0-.046.19 19.554 19.554 0 0 0 2.507.933 12.774 12.774 0 0 0 9.453 7.297zm-5.451-6.472a27.34 27.34 0 0 0 17.441-4.95c-1.392 8.666-12.8 10.306-17.441 4.95zM3.249 15.94a.174.174 0 0 1-.178-.162c-.025-.355-.04-.787-.04-.963A12.878 12.878 0 0 1 10.915 3.31a.15.15 0 0 0 .08-.193 27.53 27.53 0 0 1-.24-.633c-.115-.494.579-1.103 1.564-1.366s1.89-.08 2.036.405c.555 2.794.931 6.288.195 7.377-.383-.187-1.206-.76-2.257-2.79a.15.15 0 0 0-.19-.07c-3.095 1.28-6.124 5.01-6.124 8.546 0 .003.002.161.006.252a1.093 1.093 0 0 1-.288.786 1.007 1.007 0 0 1-.759.252c-.353.015-1.072.046-1.688.063z" id="icons"/></svg>