<svg id="icons" xmlns="http://www.w3.org/2000/svg" viewBox="0 0 32 32"><title>map-viewer-glyph-32</title><path d="M21.647 13.706A1.647 1.647 0 1 1 20 15.353a1.647 1.647 0 0 1 1.647-1.647zM19 19.083A1.917 1.917 0 1 1 17.082 21 1.917 1.917 0 0 1 19 19.082zm7.684 3.393a2.433 2.433 0 0 1-.64 1.776l-.01.012c-1.045 1.134-3.215 1.8-5.738 1.8-3.815 0-5.054-1.485-8.586-1.828a6.765 6.765 0 0 1 .566-4.07c.98-1.674 2.445-1.568 3.41-2.724.967-1.157.033-3.384 1.397-4.748 1.539-1.538 3.44-.12 4.57-2.542.877-1.884 1.84-2.98 3.68-3.35a.39.39 0 0 1 .047.07c.132.695 1.097 11.68 1.304 15.604zM6.208 8.864A3.054 3.054 0 0 1 8.115 6.17s2.425-.88 3.09-1.029a2.637 2.637 0 0 1 .314-.01 4.967 4.967 0 0 1 1.157.157l.404.095a7.26 7.26 0 0 0-.238 3.294c.188 1.354.657 2.399-.066 4.361-1.003 2.721-2.901 2.585-3.857 4.562-1.285 2.657.21 6.226-2.182 6.835l.004.002.003.003c-.801.114-1.363.22-1.663.272zm21.549-5.09a.055.055 0 0 0-.022-.037.058.058 0 0 0-.037-.01l-7.37 1.025-8.771-2.742a.227.227 0 0 0-.162.01L3.594 5.566a.054.054 0 0 0-.032.045L1.58 29a41.592 41.592 0 0 1 9.115-1.285c2.765.094 6.646 2.287 10.29 2.177 3.51-.108 8.582-2.382 9.564-2.836a.054.054 0 0 0 .03-.056z" fill="#3DB8FF"/></svg>