<svg xmlns="http://www.w3.org/2000/svg" viewBox="0 0 32 32"><title>sceneviewer-glyph-32</title><path d="M6.925 21.882a20.561 20.561 0 0 0 8.335 1.964 22.467 22.467 0 0 0 9.253-2.248 16.44 16.44 0 0 0 6.568-5.304.104.104 0 0 0-.136-.15 31.63 31.63 0 0 1-15.327 3.932c-6.098 0-9.086-1.803-10.21-2.544a1.274 1.274 0 0 1-.56-.877 9.486 9.486 0 0 1 .28-3.794 19.568 19.568 0 0 0 10.924 2.942c4.356 0 8.932-1.587 10.916-3.017l.136-.098.032.164a11.528 11.528 0 0 1 .204 1.78.14.14 0 0 0 .192.125 20.074 20.074 0 0 0 2.424-1.147.78.78 0 0 0 .383-.837 14.623 14.623 0 0 0-1.198-3.498l-.014-.03A14.794 14.794 0 0 0 23.8 3.309a14.663 14.663 0 0 0-13.247-1.263 14.747 14.747 0 0 0-7.898 7.372 14.566 14.566 0 0 0-1.342 4.7 14.836 14.836 0 0 0-.089 1.614c0 8.111 6.599 15.11 14.71 15.11 4.563 0 10.744-3.346 13.336-8.915a.094.094 0 0 0-.15-.107 17.502 17.502 0 0 1-11.87 5.276 12.757 12.757 0 0 1-10.38-5.141.047.047 0 0 1 .056-.072zm4.541-17.356l.062-.026a11.15 11.15 0 0 1 4.405-.686 11.14 11.14 0 0 1 4.568.757l.063.028a.063.063 0 0 1 .016.105l-.053.046a7.13 7.13 0 0 1-4.475 1.35 6.852 6.852 0 0 1-4.556-1.424l-.049-.046a.063.063 0 0 1 .02-.104zM9.234 5.795l.087-.063.063.087a8.476 8.476 0 0 0 6.668 3.01 8.66 8.66 0 0 0 6.588-2.9l.027-.034a.063.063 0 0 1 .088-.012l.034.026a11.556 11.556 0 0 1 3.252 3.828.107.107 0 0 1-.01.115c-1.606 2.058-6.848 3.205-9.979 3.205-5.81 0-9.414-2.163-10.119-3.415a.107.107 0 0 1 0-.104 11.564 11.564 0 0 1 3.3-3.743z" fill="#3DB8FF" id="icons"/></svg>