<?xml version="1.0" encoding="UTF-8"?><svg id="icons" xmlns="http://www.w3.org/2000/svg" viewBox="0 0 16 16"><path d="M16,9.01758s0-2.73915-.82617-3.6123c-.25348-.2679-.5752-.40527-.92383-.40527h-1.25c0-.55176-.44824-1-1-1H3c-.55176,0-1,.44824-1,1H0v6.70703l1.29297,1.29297h.40826c.2204.79034.9389,1.375,1.79877,1.375s1.57837-.58466,1.79877-1.375h5.40247c.2204.79034.9389,1.375,1.79877,1.375s1.57837-.58466,1.79877-1.375h1.06451c.34863,0,.63184-.2832.63672-.62891v-3.35352ZM14.45312,6.09863c.43152.44714.57996,1.95404.54688,2.90137h-1v-3c.29512,0,.33821-.0203.45312.09863ZM3,6h2v2h-2v-2ZM6,6h2v2h-2v-2ZM9,6h2v2h-2v-2ZM3.5,13.375c-.48242,0-.875-.39258-.875-.875s.39258-.875.875-.875.875.39258.875.875-.39258.875-.875.875ZM12.5,13.375c-.48242,0-.875-.39258-.875-.875s.39258-.875.875-.875.875.39258.875.875-.39258.875-.875.875ZM15.00488,12h-.70612c-.2204-.79034-.9389-1.375-1.79877-1.375s-1.57837.58466-1.79877,1.375h-5.40247c-.2204-.79034-.9389-1.375-1.79877-1.375-.85828,0-1.57556.58252-1.79736,1.37061l-.70264-.70264v-5.29297h1v3h10v-3h1v4h2.00244c.00153.6731.00299,1.51819.00244,2Z"/><rect width="16" height="16" fill="none"/></svg>