<?xml version="1.0" encoding="UTF-8"?><svg id="icons" xmlns="http://www.w3.org/2000/svg" viewBox="0 0 16 16"><rect width="16" height="16" fill="none"/><path d="M6.90808,14.34888c-.87079.25427-1.83423.45111-3.11536.45111-2.37042,0-3.79272-.71094-3.79272-.71094L2.13281,1.48828s1.42273.51172,3.16119.51172c2.6875,0,2.72125-.98572,5.41205-.98572,1.7384,0,3.16113.67395,3.16113.67395l1.1264,6.65472c-.30627-.16309-.6908-.36768-1.11475-.59351l-.90326-5.33667c-.49542-.16968-1.33661-.3985-2.26953-.3985-1.17041,0-1.72516.20081-2.36749.43335-.71515.25891-1.52576.55237-3.04456.55237-.90814,0-1.73621-.12628-2.35883-.26007l-1.81061,10.69733c.57385.16846,1.49091.36273,2.66815.36273.90509,0,1.6311-.11102,2.29297-.27014.26941.26837.55176.5495.82239.81903ZM13.99731,13.42322c1.27081.31799,2.00269.86584,2.00269.86584l-.41364-2.44385-1.58905,1.578ZM12.39462,8.09155l-.76569-.4079-3.73865,2.38849.84619.6889,3.65814-2.66949ZM5.53897,11.57428l.88086.87732,1.48175-1.0813-.89844-.73138-1.46417.93536ZM10.61704,7.14459l-.67725-.36078-5.9397,3.258.8136.81024,5.80334-3.70746ZM15.18002,9.57544l-6.28656,5.33948,1.08954,1.08508,6.017-5.97615-.81998-.44841ZM12.32327,10.69019l-.96289-.60486-4.22247,3.0813,1.04468,1.04041,4.14069-3.51685ZM14.23099,9.06982l-.85492-.45544-1.14526.83575.8924.56061,1.10779-.94092Z"/></svg>