<svg xmlns="http://www.w3.org/2000/svg" viewBox="0 0 32 32"><path d="M23.5 20.5v9h-6v-5.87l3.13-3.13zm-6-12-4 4L20 19l4-4zm-15 0v6h9v-6z" opacity=".25"/><path d="M28.46 20.5c.574 0 1.04.466 1.04 1.04v6.92a1.04 1.04 0 0 1-1.04 1.04H23.5v-9zm-1.2-10.24-5.02-5.02c-.41-.41-1.07-.41-1.48 0L17.5 8.5 24 15l3.26-3.26c.41-.41.41-1.07 0-1.48M3.578 2.5c-.595 0-1.078.483-1.078 1.078V8.5h9V3.578c0-.595-.483-1.078-1.078-1.078z" opacity=".5"/><path d="M28.46 20h-7.33l-1 1H23v8h-5v-5.87l-1 1V29h-4.06c-.08.37-.23.71-.46 1h15.98c.85 0 1.54-.69 1.54-1.54v-6.92c0-.85-.69-1.54-1.54-1.54m.54 8.46c0 .3-.24.54-.54.54H24v-8h4.46c.3 0 .54.24.54.54zm-1.38-16.37c.6-.6.6-1.58 0-2.18l-5.03-5.03c-.6-.6-1.58-.6-2.18 0L13 12.29v1.42l.5-.5L19.29 19 16 22.29l-3-3v1.42L15.29 23 13 25.29v1.42zm-6.5-6.5c.1-.11.24-.16.38-.16s.28.05.38.16l5.03 5.03c.21.21.21.55 0 .76L24 14.29 18.21 8.5zm-6.91 6.91 3.29-3.29L23.29 15 20 18.29zM10.46 2H3.54C2.69 2 2 2.69 2 3.54v24.92c0 .85.69 1.54 1.54 1.54h6.92c.85 0 1.54-.69 1.54-1.54V3.54C12 2.69 11.31 2 10.46 2M11 28.46a.54.54 0 0 1-.54.54H3.54a.54.54 0 0 1-.54-.54V21h8zM11 20H3v-5h8zm0-6H3V9h8zm0-6H3V3.54A.54.54 0 0 1 3.54 3h6.92a.54.54 0 0 1 .54.54zM6 27H5v-1h1z"/><path fill="none" d="M0 0h32v32H0z"/></svg>