<?xml version="1.0" encoding="UTF-8"?><svg id="icons" xmlns="http://www.w3.org/2000/svg" viewBox="0 0 16 16"><rect width="16" height="16" fill="none"/><path d="M9.45508,14h-.45508v-.45508l-.27246-.27246c-.24609-.24512-.38086-.57227-.38086-.91895s.13477-.67383.38086-.91895l.43457-.43457h-.16211v-2h2v-1h-2v-2h5v1h1V1H0v14h10.45508l-1-1ZM1,2h13v3H1v-3ZM3,14H1v-2h2v2ZM3,11H1v-2h2v2ZM3,8H1v-2h2v2ZM8,14h-4v-2h4v2ZM8,11h-4v-2h4v2ZM8,8h-4v-2h4v2ZM15.35352,12.35352l-2.85352,2.85352-2.85352-2.85352.70703-.70703,1.64648,1.64648v-6.29297h1v6.29297l1.64648-1.64648.70703.70703Z"/></svg>