<?xml version="1.0" encoding="UTF-8"?><svg id="icons" xmlns="http://www.w3.org/2000/svg" viewBox="0 0 16 16"><rect width="16" height="16" fill="none"/><path d="M16,8.0625c0-2.03223-.52539-3.0625-1.56251-3.0625h-3.43749v3h-1V3H0v8h1.38629c-.45935.34204-.76129.88434-.76129,1.5,0,1.03418.84082,1.875,1.875,1.875s1.875-.84082,1.875-1.875c0-.17432-.03156-.33978-.07623-.5h7.40247c-.04468.16022-.07623.32568-.07623.5,0,1.03418.84082,1.875,1.875,1.875s1.875-.84082,1.875-1.875c0-.17432-.03156-.33978-.07623-.5h.70123v-3.9375ZM15,8.0625v.9375h-2v-3h1.43749c.34181,0,.56251.80957.56251,2.0625ZM11,9v2h-1v-2h1ZM2.5,13.375c-.48242,0-.875-.39258-.875-.875s.39258-.875.875-.875.875.39258.875.875-.39258.875-.875.875ZM13.5,13.375c-.48242,0-.875-.39258-.875-.875s.39258-.875.875-.875.875.39258.875.875-.39258.875-.875.875Z"/></svg>