<svg width="68" height="68" viewBox="0 0 68 68" fill="none" xmlns="http://www.w3.org/2000/svg">
<mask id="path-1-outside-1_269_17249" maskUnits="userSpaceOnUse" x="0" y="0" width="68" height="68" fill="black">
<rect fill="white" width="68" height="68"/>
<path d="M2 34C2 16.3269 16.3269 2 34 2C51.6731 2 66 16.3269 66 34C66 51.6731 51.6731 66 34 66C16.3269 66 2 51.6731 2 34Z"/>
<path d="M25.8314 40.26C26.0514 40.16 26.3914 40.05 26.8514 39.93C27.3314 39.79 27.8114 39.72 28.2914 39.72C29.1314 39.72 29.8314 39.85 30.3914 40.11C30.9514 40.35 31.2914 40.71 31.4114 41.19C31.6314 42.01 31.8314 42.78 32.0114 43.5C32.2114 44.2 32.4014 44.88 32.5814 45.54C32.7614 46.18 32.9314 46.82 33.0914 47.46C33.2714 48.1 33.4414 48.77 33.6014 49.47H33.7514C33.9314 48.25 34.0914 47.09 34.2314 45.99C34.3714 44.87 34.5014 43.78 34.6214 42.72C34.7414 41.64 34.8614 40.58 34.9814 39.54C35.1014 38.48 35.2214 37.41 35.3414 36.33C36.0814 35.91 36.8714 35.7 37.7114 35.7C38.4514 35.7 39.0914 35.86 39.6314 36.18C40.1714 36.5 40.4414 37.04 40.4414 37.8C40.4414 38.24 40.3914 38.87 40.2914 39.69C40.2114 40.49 40.0914 41.39 39.9314 42.39C39.7914 43.39 39.6214 44.44 39.4214 45.54C39.2214 46.64 39.0114 47.69 38.7914 48.69C38.5714 49.69 38.3414 50.6 38.1014 51.42C37.8814 52.22 37.6714 52.84 37.4714 53.28C37.1714 53.56 36.6814 53.79 36.0014 53.97C35.3214 54.15 34.6214 54.24 33.9014 54.24C32.9614 54.24 32.1614 54.12 31.5014 53.88C30.8614 53.62 30.4714 53.26 30.3314 52.8C30.0714 52 29.7914 51.05 29.4914 49.95C29.1914 48.85 28.8714 47.64 28.5314 46.32C28.2514 47.62 27.9614 48.89 27.6614 50.13C27.3614 51.37 27.0914 52.42 26.8514 53.28C26.5514 53.56 26.1014 53.79 25.5014 53.97C24.9014 54.15 24.2414 54.24 23.5214 54.24C22.6214 54.24 21.8014 54.12 21.0614 53.88C20.3414 53.62 19.8714 53.26 19.6514 52.8C19.4714 52.44 19.2714 51.91 19.0514 51.21C18.8514 50.49 18.6414 49.68 18.4214 48.78C18.2014 47.86 17.9714 46.87 17.7314 45.81C17.5114 44.75 17.3014 43.69 17.1014 42.63C16.9214 41.57 16.7514 40.54 16.5914 39.54C16.4314 38.52 16.3114 37.59 16.2314 36.75C16.5114 36.49 16.9014 36.25 17.4014 36.03C17.9014 35.81 18.4414 35.7 19.0214 35.7C19.7814 35.7 20.4014 35.87 20.8814 36.21C21.3814 36.53 21.6914 37.08 21.8114 37.86C22.1314 39.9 22.3914 41.6 22.5914 42.96C22.8114 44.32 22.9814 45.44 23.1014 46.32C23.2414 47.18 23.3414 47.85 23.4014 48.33C23.4614 48.81 23.5214 49.19 23.5814 49.47H23.7314C23.9114 48.67 24.0814 47.93 24.2414 47.25C24.4014 46.57 24.5614 45.89 24.7214 45.21C24.9014 44.51 25.0814 43.77 25.2614 42.99C25.4414 42.19 25.6314 41.28 25.8314 40.26Z"/>
<path d="M52.5999 39.48C51.0599 39.48 49.8799 39.95 49.0599 40.89C48.2399 41.83 47.8299 43.16 47.8299 44.88C47.8299 46.62 48.2799 47.96 49.1799 48.9C50.0999 49.84 51.3299 50.31 52.8699 50.31C53.6899 50.31 54.3799 50.2 54.9399 49.98C55.5199 49.76 56.0699 49.51 56.5899 49.23C56.9299 49.51 57.1899 49.85 57.3699 50.25C57.5699 50.63 57.6699 51.08 57.6699 51.6C57.6699 52.42 57.2099 53.12 56.2899 53.7C55.3899 54.26 54.0099 54.54 52.1499 54.54C50.8099 54.54 49.5499 54.35 48.3699 53.97C47.1899 53.59 46.1599 53.01 45.2799 52.23C44.3999 51.43 43.6999 50.43 43.1799 49.23C42.6799 48.01 42.4299 46.56 42.4299 44.88C42.4299 43.32 42.6699 41.95 43.1499 40.77C43.6499 39.57 44.3199 38.56 45.1599 37.74C46.0199 36.92 47.0199 36.3 48.1599 35.88C49.2999 35.46 50.5199 35.25 51.8199 35.25C53.6599 35.25 55.0799 35.55 56.0799 36.15C57.0999 36.75 57.6099 37.52 57.6099 38.46C57.6099 38.98 57.4799 39.43 57.2199 39.81C56.9599 40.19 56.6599 40.49 56.3199 40.71C55.7999 40.37 55.2399 40.08 54.6399 39.84C54.0599 39.6 53.3799 39.48 52.5999 39.48Z"/>
</mask>
<path d="M2 34C2 16.3269 16.3269 2 34 2C51.6731 2 66 16.3269 66 34C66 51.6731 51.6731 66 34 66C16.3269 66 2 51.6731 2 34Z" fill="#BF390F"/>
<path d="M25.8314 40.26C26.0514 40.16 26.3914 40.05 26.8514 39.93C27.3314 39.79 27.8114 39.72 28.2914 39.72C29.1314 39.72 29.8314 39.85 30.3914 40.11C30.9514 40.35 31.2914 40.71 31.4114 41.19C31.6314 42.01 31.8314 42.78 32.0114 43.5C32.2114 44.2 32.4014 44.88 32.5814 45.54C32.7614 46.18 32.9314 46.82 33.0914 47.46C33.2714 48.1 33.4414 48.77 33.6014 49.47H33.7514C33.9314 48.25 34.0914 47.09 34.2314 45.99C34.3714 44.87 34.5014 43.78 34.6214 42.72C34.7414 41.64 34.8614 40.58 34.9814 39.54C35.1014 38.48 35.2214 37.41 35.3414 36.33C36.0814 35.91 36.8714 35.7 37.7114 35.7C38.4514 35.7 39.0914 35.86 39.6314 36.18C40.1714 36.5 40.4414 37.04 40.4414 37.8C40.4414 38.24 40.3914 38.87 40.2914 39.69C40.2114 40.49 40.0914 41.39 39.9314 42.39C39.7914 43.39 39.6214 44.44 39.4214 45.54C39.2214 46.64 39.0114 47.69 38.7914 48.69C38.5714 49.69 38.3414 50.6 38.1014 51.42C37.8814 52.22 37.6714 52.84 37.4714 53.28C37.1714 53.56 36.6814 53.79 36.0014 53.97C35.3214 54.15 34.6214 54.24 33.9014 54.24C32.9614 54.24 32.1614 54.12 31.5014 53.88C30.8614 53.62 30.4714 53.26 30.3314 52.8C30.0714 52 29.7914 51.05 29.4914 49.95C29.1914 48.85 28.8714 47.64 28.5314 46.32C28.2514 47.62 27.9614 48.89 27.6614 50.13C27.3614 51.37 27.0914 52.42 26.8514 53.28C26.5514 53.56 26.1014 53.79 25.5014 53.97C24.9014 54.15 24.2414 54.24 23.5214 54.24C22.6214 54.24 21.8014 54.12 21.0614 53.88C20.3414 53.62 19.8714 53.26 19.6514 52.8C19.4714 52.44 19.2714 51.91 19.0514 51.21C18.8514 50.49 18.6414 49.68 18.4214 48.78C18.2014 47.86 17.9714 46.87 17.7314 45.81C17.5114 44.75 17.3014 43.69 17.1014 42.63C16.9214 41.57 16.7514 40.54 16.5914 39.54C16.4314 38.52 16.3114 37.59 16.2314 36.75C16.5114 36.49 16.9014 36.25 17.4014 36.03C17.9014 35.81 18.4414 35.7 19.0214 35.7C19.7814 35.7 20.4014 35.87 20.8814 36.21C21.3814 36.53 21.6914 37.08 21.8114 37.86C22.1314 39.9 22.3914 41.6 22.5914 42.96C22.8114 44.32 22.9814 45.44 23.1014 46.32C23.2414 47.18 23.3414 47.85 23.4014 48.33C23.4614 48.81 23.5214 49.19 23.5814 49.47H23.7314C23.9114 48.67 24.0814 47.93 24.2414 47.25C24.4014 46.57 24.5614 45.89 24.7214 45.21C24.9014 44.51 25.0814 43.77 25.2614 42.99C25.4414 42.19 25.6314 41.28 25.8314 40.26Z" fill="white"/>
<path d="M52.5999 39.48C51.0599 39.48 49.8799 39.95 49.0599 40.89C48.2399 41.83 47.8299 43.16 47.8299 44.88C47.8299 46.62 48.2799 47.96 49.1799 48.9C50.0999 49.84 51.3299 50.31 52.8699 50.31C53.6899 50.31 54.3799 50.2 54.9399 49.98C55.5199 49.76 56.0699 49.51 56.5899 49.23C56.9299 49.51 57.1899 49.85 57.3699 50.25C57.5699 50.63 57.6699 51.08 57.6699 51.6C57.6699 52.42 57.2099 53.12 56.2899 53.7C55.3899 54.26 54.0099 54.54 52.1499 54.54C50.8099 54.54 49.5499 54.35 48.3699 53.97C47.1899 53.59 46.1599 53.01 45.2799 52.23C44.3999 51.43 43.6999 50.43 43.1799 49.23C42.6799 48.01 42.4299 46.56 42.4299 44.88C42.4299 43.32 42.6699 41.95 43.1499 40.77C43.6499 39.57 44.3199 38.56 45.1599 37.74C46.0199 36.92 47.0199 36.3 48.1599 35.88C49.2999 35.46 50.5199 35.25 51.8199 35.25C53.6599 35.25 55.0799 35.55 56.0799 36.15C57.0999 36.75 57.6099 37.52 57.6099 38.46C57.6099 38.98 57.4799 39.43 57.2199 39.81C56.9599 40.19 56.6599 40.49 56.3199 40.71C55.7999 40.37 55.2399 40.08 54.6399 39.84C54.0599 39.6 53.3799 39.48 52.5999 39.48Z" fill="white"/>
<path d="M25.8314 40.26L25.0038 38.4393L24.0669 38.8652L23.8688 39.8752L25.8314 40.26ZM26.8514 39.93L27.3563 41.8652L27.384 41.858L27.4114 41.85L26.8514 39.93ZM30.3914 40.11L29.5492 41.924L29.5762 41.9366L29.6036 41.9483L30.3914 40.11ZM31.4114 41.19L29.4712 41.6751L29.4753 41.6917L29.4798 41.7083L31.4114 41.19ZM32.0114 43.5L30.0712 43.9851L30.0792 44.0174L30.0884 44.0494L32.0114 43.5ZM32.5814 45.54L30.6519 46.0662L30.654 46.0739L30.6561 46.0815L32.5814 45.54ZM33.0914 47.46L31.1512 47.9451L31.1582 47.9734L31.1661 48.0015L33.0914 47.46ZM33.6014 49.47L31.6517 49.9157L32.007 51.47H33.6014V49.47ZM33.7514 49.47V51.47H35.478L35.73 49.7619L33.7514 49.47ZM34.2314 45.99L36.2154 46.2425L36.216 46.2381L34.2314 45.99ZM34.6214 42.72L36.6088 42.945L36.6092 42.9409L34.6214 42.72ZM34.9814 39.54L36.9683 39.7692L36.9688 39.765L34.9814 39.54ZM35.3414 36.33L34.3542 34.5906L33.4664 35.0945L33.3537 36.1091L35.3414 36.33ZM39.6314 36.18L40.6511 34.4594L40.6511 34.4594L39.6314 36.18ZM40.2914 39.69L38.3062 39.4479L38.3035 39.4694L38.3014 39.491L40.2914 39.69ZM39.9314 42.39L37.9566 42.074L37.9535 42.0933L37.9508 42.1127L39.9314 42.39ZM39.4214 45.54L41.3892 45.8978L41.3892 45.8978L39.4214 45.54ZM38.7914 48.69L36.8382 48.2603L36.8382 48.2603L38.7914 48.69ZM38.1014 51.42L36.182 50.8582L36.1774 50.8739L36.173 50.8897L38.1014 51.42ZM37.4714 53.28L38.8361 54.7421L39.1273 54.4703L39.2922 54.1076L37.4714 53.28ZM36.0014 53.97L35.4897 52.0366L35.4897 52.0366L36.0014 53.97ZM31.5014 53.88L30.7487 55.7329L30.7831 55.7469L30.818 55.7596L31.5014 53.88ZM30.3314 52.8L32.2448 52.2177L32.2393 52.1997L32.2335 52.1818L30.3314 52.8ZM29.4914 49.95L27.5619 50.4762L27.5619 50.4762L29.4914 49.95ZM28.5314 46.32L30.4682 45.8211L26.5763 45.8989L28.5314 46.32ZM27.6614 50.13L25.7175 49.6597L25.7175 49.6597L27.6614 50.13ZM26.8514 53.28L28.2161 54.7421L28.6268 54.3588L28.7778 53.8176L26.8514 53.28ZM21.0614 53.88L20.3822 55.7611L20.4131 55.7723L20.4444 55.7824L21.0614 53.88ZM19.6514 52.8L21.4557 51.9371L21.4481 51.9213L21.4403 51.9056L19.6514 52.8ZM19.0514 51.21L17.1244 51.7453L17.1334 51.7776L17.1435 51.8097L19.0514 51.21ZM18.4214 48.78L16.4763 49.2452L16.4786 49.2549L18.4214 48.78ZM17.7314 45.81L15.7732 46.2164L15.7768 46.2341L15.7808 46.2517L17.7314 45.81ZM17.1014 42.63L15.1297 42.9648L15.1327 42.9829L15.1361 43.0008L17.1014 42.63ZM16.5914 39.54L14.6156 39.8499L14.6166 39.856L16.5914 39.54ZM16.2314 36.75L14.8705 35.2844L14.1468 35.9564L14.2405 36.9396L16.2314 36.75ZM17.4014 36.03L16.596 34.1994L16.596 34.1994L17.4014 36.03ZM20.8814 36.21L19.7254 37.842L19.7638 37.8692L19.8033 37.8945L20.8814 36.21ZM21.8114 37.86L19.8347 38.1641L19.8356 38.1699L21.8114 37.86ZM22.5914 42.96L20.6127 43.251L20.6148 43.2652L20.6171 43.2794L22.5914 42.96ZM23.1014 46.32L21.1198 46.5902L21.1233 46.6158L21.1274 46.6414L23.1014 46.32ZM23.4014 48.33L21.4169 48.5781L21.4169 48.5781L23.4014 48.33ZM23.5814 49.47L21.6258 49.8891L21.9646 51.47H23.5814V49.47ZM23.7314 49.47V51.47H25.3314L25.6827 49.909L23.7314 49.47ZM24.2414 47.25L26.1883 47.7081L26.1883 47.7081L24.2414 47.25ZM24.7214 45.21L22.7845 44.7119L22.7793 44.7319L22.7746 44.7519L24.7214 45.21ZM25.2614 42.99L27.2103 43.4397L27.2127 43.429L25.2614 42.99ZM49.0599 40.89L50.567 42.2047L50.567 42.2047L49.0599 40.89ZM49.1799 48.9L47.7353 50.2831L47.7429 50.2911L47.7505 50.2989L49.1799 48.9ZM54.9399 49.98L54.2306 48.11L54.2196 48.1142L54.2086 48.1185L54.9399 49.98ZM56.5899 49.23L57.8613 47.6861L56.8244 46.8322L55.6417 47.4691L56.5899 49.23ZM57.3699 50.25L55.546 51.0707L55.5713 51.1269L55.6 51.1815L57.3699 50.25ZM56.2899 53.7L57.3465 55.3981L57.3565 55.3919L56.2899 53.7ZM48.3699 53.97L47.7568 55.8737L47.7568 55.8737L48.3699 53.97ZM45.2799 52.23L43.9345 53.7099L43.9439 53.7183L43.9533 53.7267L45.2799 52.23ZM43.1799 49.23L41.3293 49.9884L41.3368 50.0069L41.3448 50.0252L43.1799 49.23ZM43.1499 40.77L41.3037 40.0008L41.3005 40.0086L41.2973 40.0164L43.1499 40.77ZM45.1599 37.74L43.7797 36.2925L43.7712 36.3006L43.7628 36.3088L45.1599 37.74ZM48.1599 35.88L47.4685 34.0033L47.4685 34.0033L48.1599 35.88ZM56.0799 36.15L55.0509 37.865L55.0583 37.8695L55.0658 37.8739L56.0799 36.15ZM57.2199 39.81L55.5693 38.6806L55.5693 38.6806L57.2199 39.81ZM56.3199 40.71L55.2254 42.3839L56.3142 43.0959L57.4064 42.3891L56.3199 40.71ZM54.6399 39.84L53.8752 41.688L53.8861 41.6926L53.8971 41.697L54.6399 39.84ZM34 64C17.4315 64 4 50.5685 4 34H0C0 52.7777 15.2223 68 34 68V64ZM64 34C64 50.5685 50.5685 64 34 64V68C52.7777 68 68 52.7777 68 34H64ZM34 4C50.5685 4 64 17.4315 64 34H68C68 15.2223 52.7777 0 34 0V4ZM34 0C15.2223 0 0 15.2223 0 34H4C4 17.4315 17.4315 4 34 4V0ZM26.6591 42.0807C26.7178 42.054 26.9226 41.9784 27.3563 41.8652L26.3466 37.9948C25.8603 38.1216 25.3851 38.266 25.0038 38.4393L26.6591 42.0807ZM27.4114 41.85C27.7171 41.7608 28.0087 41.72 28.2914 41.72V37.72C27.6142 37.72 26.9458 37.8192 26.2914 38.01L27.4114 41.85ZM28.2914 41.72C28.9396 41.72 29.3302 41.8223 29.5492 41.924L31.2337 38.296C30.3327 37.8777 29.3233 37.72 28.2914 37.72V41.72ZM29.6036 41.9483C29.6885 41.9847 29.6683 41.9924 29.6124 41.9332C29.5842 41.9033 29.5533 41.863 29.526 41.8131C29.4987 41.7633 29.4812 41.7154 29.4712 41.6751L33.3517 40.7049C33.045 39.4779 32.1659 38.6946 31.1793 38.2717L29.6036 41.9483ZM29.4798 41.7083C29.6972 42.5188 29.8943 43.2776 30.0712 43.9851L33.9517 43.0149C33.7686 42.2824 33.5657 41.5012 33.3431 40.6717L29.4798 41.7083ZM30.0884 44.0494C30.2863 44.7422 30.4742 45.4145 30.6519 46.0662L34.511 45.0138C34.3287 44.3455 34.1366 43.6578 33.9345 42.9506L30.0884 44.0494ZM30.6561 46.0815C30.8309 46.7029 30.9959 47.3241 31.1512 47.9451L35.0317 46.9749C34.867 46.3159 34.692 45.6571 34.5067 44.9985L30.6561 46.0815ZM31.1661 48.0015C31.3365 48.6074 31.4985 49.2453 31.6517 49.9157L35.5512 49.0244C35.3844 48.2947 35.2063 47.5926 35.0167 46.9185L31.1661 48.0015ZM33.6014 51.47H33.7514V47.47H33.6014V51.47ZM35.73 49.7619C35.9118 48.5302 36.0736 47.357 36.2154 46.2425L32.2474 45.7375C32.1093 46.823 31.9511 47.9698 31.7729 49.1781L35.73 49.7619ZM36.216 46.2381C36.3569 45.1108 36.4878 44.0131 36.6088 42.945L32.6341 42.495C32.5151 43.5469 32.386 44.6292 32.2469 45.7419L36.216 46.2381ZM36.6092 42.9409C36.7289 41.8636 36.8486 40.8064 36.9683 39.7692L32.9946 39.3108C32.8743 40.3537 32.754 41.4164 32.6337 42.4991L36.6092 42.9409ZM36.9688 39.765C37.0889 38.7036 37.2091 37.6322 37.3292 36.5509L33.3537 36.1091C33.2338 37.1878 33.114 38.2564 32.9941 39.315L36.9688 39.765ZM36.3287 38.0694C36.7718 37.8179 37.2222 37.7 37.7114 37.7V33.7C36.5207 33.7 35.3911 34.0021 34.3542 34.5906L36.3287 38.0694ZM37.7114 37.7C38.1574 37.7 38.4318 37.7939 38.6118 37.9006L40.6511 34.4594C39.7511 33.9261 38.7455 33.7 37.7114 33.7V37.7ZM38.6118 37.9006C38.5959 37.8911 38.5648 37.8696 38.5299 37.8325C38.4946 37.795 38.4678 37.7549 38.4501 37.7194C38.415 37.6492 38.4414 37.6522 38.4414 37.8H42.4414C42.4414 36.508 41.9352 35.2204 40.6511 34.4594L38.6118 37.9006ZM38.4414 37.8C38.4414 38.1171 38.4033 38.6516 38.3062 39.4479L42.2767 39.9321C42.3796 39.0884 42.4414 38.3629 42.4414 37.8H38.4414ZM38.3014 39.491C38.2261 40.2434 38.1119 41.1034 37.9566 42.074L41.9063 42.706C42.071 41.6766 42.1968 40.7366 42.2815 39.889L38.3014 39.491ZM37.9508 42.1127C37.8149 43.0831 37.6494 44.1062 37.4537 45.1822L41.3892 45.8978C41.5935 44.7738 41.768 43.6969 41.9121 42.6673L37.9508 42.1127ZM37.4537 45.1822C37.2577 46.2603 37.0525 47.2862 36.8382 48.2603L40.7447 49.1197C40.9704 48.0938 41.1852 47.0197 41.3892 45.8978L37.4537 45.1822ZM36.8382 48.2603C36.6261 49.2243 36.407 50.0894 36.182 50.8582L40.0209 51.9818C40.2759 51.1106 40.5168 50.1557 40.7447 49.1197L36.8382 48.2603ZM36.173 50.8897C35.9642 51.649 35.7869 52.1527 35.6507 52.4524L39.2922 54.1076C39.556 53.5273 39.7987 52.791 40.0299 51.9503L36.173 50.8897ZM36.1068 51.8179C36.149 51.7785 36.1419 51.7991 36.0291 51.852C35.9195 51.9035 35.7459 51.9688 35.4897 52.0366L36.5132 55.9034C37.3137 55.6915 38.1799 55.3546 38.8361 54.7421L36.1068 51.8179ZM35.4897 52.0366C34.9806 52.1713 34.4528 52.24 33.9014 52.24V56.24C34.7901 56.24 35.6623 56.1287 36.5132 55.9034L35.4897 52.0366ZM33.9014 52.24C33.1205 52.24 32.5657 52.1389 32.1849 52.0004L30.818 55.7596C31.7572 56.1011 32.8024 56.24 33.9014 56.24V52.24ZM32.2542 52.0271C32.0932 51.9617 32.0596 51.9215 32.0855 51.9454C32.1008 51.9595 32.1306 51.9904 32.163 52.0406C32.1961 52.0918 32.2248 52.1521 32.2448 52.2177L28.4181 53.3823C28.8003 54.6381 29.8038 55.3491 30.7487 55.7329L32.2542 52.0271ZM32.2335 52.1818C31.9862 51.4207 31.7153 50.5029 31.421 49.4238L27.5619 50.4762C27.8676 51.5971 28.1567 52.5793 28.4294 53.4182L32.2335 52.1818ZM31.421 49.4238C31.1239 48.3344 30.8063 47.1337 30.4682 45.8211L26.5947 46.8189C26.9366 48.1463 27.259 49.3656 27.5619 50.4762L31.421 49.4238ZM26.5763 45.8989C26.2997 47.1831 26.0134 48.4367 25.7175 49.6597L29.6054 50.6003C29.9095 49.3433 30.2032 48.0569 30.4866 46.7411L26.5763 45.8989ZM25.7175 49.6597C25.4209 50.8858 25.1568 51.9119 24.9251 52.7424L28.7778 53.8176C29.0261 52.9281 29.302 51.8542 29.6054 50.6003L25.7175 49.6597ZM25.4868 51.8179C25.4999 51.8057 25.4748 51.8325 25.3787 51.8816C25.2832 51.9305 25.1373 51.9912 24.9267 52.0543L26.0761 55.8857C26.8299 55.6595 27.6039 55.3135 28.2161 54.7421L25.4868 51.8179ZM24.9267 52.0543C24.5386 52.1708 24.0752 52.24 23.5214 52.24V56.24C24.4076 56.24 25.2643 56.1292 26.0761 55.8857L24.9267 52.0543ZM23.5214 52.24C22.7988 52.24 22.1907 52.1437 21.6785 51.9776L20.4444 55.7824C21.4122 56.0963 22.4441 56.24 23.5214 56.24V52.24ZM21.7407 51.9989C21.5203 51.9193 21.4176 51.8521 21.3851 51.8272C21.3602 51.8082 21.4092 51.8399 21.4557 51.9371L17.8472 53.6629C18.3855 54.7885 19.4122 55.4108 20.3822 55.7611L21.7407 51.9989ZM21.4403 51.9056C21.3315 51.688 21.169 51.277 20.9594 50.6103L17.1435 51.8097C17.3739 52.543 17.6114 53.192 17.8626 53.6944L21.4403 51.9056ZM20.9785 50.6747C20.7852 49.9788 20.5804 49.1894 20.3642 48.3051L16.4786 49.2549C16.7025 50.1706 16.9177 51.0012 17.1244 51.7453L20.9785 50.6747ZM20.3666 48.3149C20.1487 47.4037 19.9206 46.4216 19.6821 45.3683L15.7808 46.2517C16.0223 47.3184 16.2542 48.3163 16.4763 49.2451L20.3666 48.3149ZM19.6897 45.4036C19.4722 44.3554 19.2645 43.3072 19.0668 42.2592L15.1361 43.0008C15.3384 44.0728 15.5507 45.1446 15.7732 46.2164L19.6897 45.4036ZM19.0732 42.2952C18.8942 41.2411 18.7253 40.2174 18.5663 39.224L14.6166 39.856C14.7776 40.8626 14.9487 41.8989 15.1297 42.9648L19.0732 42.2952ZM18.5673 39.2301C18.4122 38.2416 18.2979 37.3524 18.2224 36.5604L14.2405 36.9396C14.325 37.8276 14.4507 38.7984 14.6156 39.8499L18.5673 39.2301ZM17.5923 38.2156C17.6551 38.1574 17.8309 38.0261 18.2069 37.8606L16.596 34.1994C15.972 34.4739 15.3678 34.8226 14.8705 35.2844L17.5923 38.2156ZM18.2069 37.8606C18.4376 37.7591 18.7014 37.7 19.0214 37.7V33.7C18.1815 33.7 17.3653 33.8609 16.596 34.1994L18.2069 37.8606ZM19.0214 37.7C19.4879 37.7 19.67 37.8028 19.7254 37.842L22.0375 34.5779C21.1329 33.9372 20.075 33.7 19.0214 33.7V37.7ZM19.8033 37.8945C19.7866 37.8838 19.7702 37.8701 19.757 37.856C19.7443 37.8423 19.7418 37.836 19.7466 37.8445C19.7578 37.8644 19.8025 37.9551 19.8347 38.1641L23.7882 37.5559C23.6112 36.4055 23.0895 35.2487 21.9596 34.5255L19.8033 37.8945ZM19.8356 38.1699C20.1551 40.2064 20.414 41.8996 20.6127 43.251L24.5702 42.669C24.3689 41.3004 24.1078 39.5936 23.7873 37.5501L19.8356 38.1699ZM20.6171 43.2794C20.8357 44.6309 21.0029 45.733 21.1198 46.5902L25.0831 46.0498C24.96 45.147 24.7872 44.0091 24.5658 42.6406L20.6171 43.2794ZM21.1274 46.6414C21.2661 47.4929 21.3615 48.1346 21.4169 48.5781L25.386 48.0819C25.3214 47.5654 25.2168 46.8671 25.0755 45.9986L21.1274 46.6414ZM21.4169 48.5781C21.4799 49.0822 21.5483 49.5272 21.6258 49.8891L25.5371 49.0509C25.4946 48.8528 25.443 48.5378 25.386 48.0819L21.4169 48.5781ZM23.5814 51.47H23.7314V47.47H23.5814V51.47ZM25.6827 49.909C25.8615 49.1143 26.03 48.3808 26.1883 47.7081L22.2946 46.7919C22.1329 47.4792 21.9614 48.2257 21.7802 49.031L25.6827 49.909ZM26.1883 47.7081C26.3483 47.0281 26.5083 46.3481 26.6683 45.6681L22.7746 44.7519C22.6146 45.4319 22.4546 46.1119 22.2946 46.7919L26.1883 47.7081ZM26.6584 45.7081C26.843 44.9904 27.0269 44.2342 27.2102 43.4397L23.3127 42.5403C23.136 43.3058 22.9599 44.0296 22.7845 44.7119L26.6584 45.7081ZM27.2127 43.429C27.3976 42.607 27.5914 41.6784 27.7941 40.6448L23.8688 39.8752C23.6715 40.8816 23.4853 41.773 23.3102 42.551L27.2127 43.429ZM52.5999 37.48C50.6291 37.48 48.8395 38.1001 47.5527 39.5753L50.567 42.2047C50.9202 41.7999 51.4907 41.48 52.5999 41.48V37.48ZM47.5527 39.5753C46.3123 40.9973 45.8299 42.8598 45.8299 44.88H49.8299C49.8299 43.4602 50.1675 42.6627 50.567 42.2047L47.5527 39.5753ZM45.8299 44.88C45.8299 46.9573 46.3722 48.8595 47.7353 50.2831L50.6245 47.5169C50.1875 47.0605 49.8299 46.2827 49.8299 44.88H45.8299ZM47.7505 50.2989C49.1111 51.689 50.8914 52.31 52.8699 52.31V48.31C51.7683 48.31 51.0887 47.991 50.6092 47.5011L47.7505 50.2989ZM52.8699 52.31C53.8552 52.31 54.8104 52.1797 55.6712 51.8415L54.2086 48.1185C53.9493 48.2203 53.5246 48.31 52.8699 48.31V52.31ZM55.6492 51.85C56.307 51.6005 56.9372 51.3145 57.5381 50.9909L55.6417 47.4691C55.2026 47.7055 54.7327 47.9195 54.2306 48.11L55.6492 51.85ZM55.3185 50.7739C55.4222 50.8593 55.4927 50.9522 55.546 51.0707L59.1937 49.4293C58.8871 48.7478 58.4375 48.1607 57.8613 47.6861L55.3185 50.7739ZM55.6 51.1815C55.6202 51.2197 55.6699 51.3367 55.6699 51.6H59.6699C59.6699 50.8233 59.5196 50.0403 59.1397 49.3185L55.6 51.1815ZM55.6699 51.6C55.6699 51.6152 55.6682 51.6171 55.6694 51.6132C55.6705 51.6096 55.6688 51.6183 55.6535 51.6416C55.6198 51.6929 55.5107 51.8269 55.2233 52.0081L57.3565 55.3919C58.6448 54.5797 59.6699 53.3253 59.6699 51.6H55.6699ZM55.2333 52.0019C54.809 52.2659 53.8824 52.54 52.1499 52.54V56.54C54.1373 56.54 55.9708 56.2541 57.3465 55.3981L55.2333 52.0019ZM52.1499 52.54C51.0012 52.54 49.9495 52.3775 48.9829 52.0663L47.7568 55.8737C49.1503 56.3225 50.6186 56.54 52.1499 56.54V52.54ZM48.9829 52.0663C48.0518 51.7664 47.2682 51.3198 46.6065 50.7333L43.9533 53.7267C45.0515 54.7002 46.3279 55.4136 47.7568 55.8737L48.9829 52.0663ZM46.6252 50.7501C45.9753 50.1593 45.4335 49.4006 45.015 48.4348L41.3448 50.0252C41.9663 51.4594 42.8244 52.7007 43.9345 53.7099L46.6252 50.7501ZM45.0305 48.4716C44.6521 47.5484 44.4299 46.3683 44.4299 44.88H40.4299C40.4299 46.7517 40.7076 48.4716 41.3293 49.9884L45.0305 48.4716ZM44.4299 44.88C44.4299 43.522 44.639 42.4171 45.0025 41.5236L41.2973 40.0164C40.7007 41.4829 40.4299 43.118 40.4299 44.88H44.4299ZM44.996 41.5392C45.4036 40.5611 45.9294 39.7837 46.557 39.1711L43.7628 36.3088C42.7103 37.3363 41.8962 38.5789 41.3037 40.0008L44.996 41.5392ZM46.54 39.1875C47.1977 38.5604 47.9619 38.0844 48.8513 37.7567L47.4685 34.0033C46.0779 34.5156 44.8421 35.2796 43.7797 36.2925L46.54 39.1875ZM48.8513 37.7567C49.7548 37.4238 50.7392 37.25 51.8199 37.25V33.25C50.3006 33.25 48.8449 33.4962 47.4685 34.0033L48.8513 37.7567ZM51.8199 37.25C53.4881 37.25 54.4923 37.5298 55.0509 37.865L57.1089 34.435C55.6675 33.5702 53.8317 33.25 51.8199 33.25V37.25ZM55.0658 37.8739C55.3851 38.0617 55.5132 38.2113 55.56 38.2819C55.594 38.3333 55.6099 38.3754 55.6099 38.46H59.6099C59.6099 36.6218 58.5417 35.2777 57.0939 34.4261L55.0658 37.8739ZM55.6099 38.46C55.6099 38.631 55.5729 38.6753 55.5693 38.6806L58.8705 40.9394C59.3868 40.1847 59.6099 39.329 59.6099 38.46H55.6099ZM55.5693 38.6806C55.4386 38.8716 55.3223 38.9733 55.2334 39.0309L57.4064 42.3891C57.9975 42.0067 58.4812 41.5084 58.8705 40.9394L55.5693 38.6806ZM57.4144 39.0361C56.7791 38.6207 56.1008 38.2703 55.3827 37.983L53.8971 41.697C54.379 41.8897 54.8206 42.1193 55.2254 42.3839L57.4144 39.0361ZM55.4046 37.992C54.531 37.6305 53.5807 37.48 52.5999 37.48V41.48C53.1791 41.48 53.5887 41.5695 53.8752 41.688L55.4046 37.992Z" fill="#BF390F" mask="url(#path-1-outside-1_269_17249)"/>
</svg>
