<svg xmlns="http://www.w3.org/2000/svg" viewBox="0 0 32 32"><defs><style>.cls-1{fill:#5763f8}</style></defs><title>ArcGIS_Online_Glyph_32</title><path class="cls-1" d="M25.479 23.504a.231.231 0 0 1 .204 0l3.933 1.939a.12.12 0 0 1 0 .216l-8.273 4.078a.822.822 0 0 1-.727 0l-8.274-4.078a.12.12 0 0 1 0-.216l3.933-1.94a.231.231 0 0 1 .205 0l4.206 2.075a.663.663 0 0 0 .587 0zM12.342 18.6a.12.12 0 0 0 0 .215l8.344 4.112a.663.663 0 0 0 .586 0l8.344-4.112a.12.12 0 0 0 0-.215l-8.534-4.208a.231.231 0 0 0-.205 0zm-2.438-6.434C7.397 6.051 15.42 2.655 18.687 7.96a.185.185 0 0 0 .236.07c3.545-1.654 6.604.885 5.75 4.528a.278.278 0 0 0 .146.312l6.048 2.982a.093.093 0 0 0 .132-.1 7.18 7.18 0 0 0-2.683-4.454.185.185 0 0 1-.068-.13A7.287 7.287 0 0 0 20.1 4.43a.185.185 0 0 1-.143-.047C14.775-.32 6.919 2.959 6.302 10.003a.185.185 0 0 1-.102.15c-9.865 4.91-4.46 18.472 5.924 12.182-9.26 1.228-8.848-9.392-2.22-10.169z" id="icons"/></svg>