<svg xmlns="http://www.w3.org/2000/svg" viewBox="0 0 32 32"><defs><style>.cls-1{fill:#4fbaa9}</style></defs><title>Esri_Story_Maps_Glyph_32</title><path class="cls-1" d="M25.5 0C23.015 0 21 .953 21 3.433v8.517a1.467 1.467 0 0 0 .43 1.038l3.837 3.827a.33.33 0 0 0 .466 0l3.836-3.827A1.467 1.467 0 0 0 30 11.95V3.433C30 .953 27.985 0 25.5 0zm0 8.1a2.6 2.6 0 1 1 2.6-2.599A2.599 2.599 0 0 1 25.5 8.1zm-7.856.453c.294-.153.312-.457.312-.788v-2.31a.104.104 0 0 0-.129-.1 6.128 6.128 0 0 0-2.248 1.19.14.14 0 0 1-.167.008c-3.437-2.283-8.543-1.52-12.131-.988-.432.064-1.762.34-2.164.424A.146.146 0 0 0 1 6.133V26.69a.147.147 0 0 0 .05.11.134.134 0 0 0 .116.035A36.394 36.394 0 0 1 9.5 25.781c3.283.054 4.403.96 4.967 1.513l.915.897a.164.164 0 0 0 .23 0l.916-.897a5.98 5.98 0 0 1 3.972-1.47 25.341 25.341 0 0 1 5.715.516c.718.109 1.46.22 2.186.312l1.251.16a.308.308 0 0 0 .348-.305v-7.375a.161.161 0 0 0-.303-.077l-.107.2a7.218 7.218 0 0 1-6.902 3.766 10.455 10.455 0 0 0-5.688.796V9.454a.89.89 0 0 1 .332-.693 2.058 2.058 0 0 1 .312-.208zM14 23.817c-3.071-1.38-5.998-.808-9.447-.293l-.253.036a.263.263 0 0 1-.3-.259V8.525a.098.098 0 0 1 .084-.097l.804-.115c2.518-.372 6.303-1.048 8.708.515a.89.89 0 0 1 .404.746z" id="icons"/></svg>