<svg xmlns="http://www.w3.org/2000/svg" viewBox="0 0 32 32"><defs><style>.cls-1{fill:#68a407}</style></defs><title>Survey123_for_ArcGIS_Glyph_32</title><path class="cls-1" d="M2.941 25A.906.906 0 0 1 2 24.136v-.272A.906.906 0 0 1 2.941 23h3.118a.906.906 0 0 1 .941.864v.272a.906.906 0 0 1-.941.864zm16.254-6.813a.368.368 0 0 0 .52 0L30.19 7.716a.358.358 0 0 0 0-.507l-1.927-1.928a.094.094 0 0 0-.133 0l-8.6 8.598a.105.105 0 0 1-.147 0l-3.567-3.568a.094.094 0 0 0-.133 0l-1.993 1.993a.266.266 0 0 0 0 .376zM6.06 17A.906.906 0 0 0 7 16.136v-.272A.906.906 0 0 0 6.059 15H2.941a.906.906 0 0 0-.941.864v.272a.906.906 0 0 0 .941.864zm0-8A.906.906 0 0 0 7 8.136v-.272A.906.906 0 0 0 6.059 7H2.941A.906.906 0 0 0 2 7.864v.272A.906.906 0 0 0 2.941 9zm22.883 5.14a.094.094 0 0 0-.102.02l-2.357 2.357A1.649 1.649 0 0 0 26 17.683v4.257A4.06 4.06 0 0 1 21.94 26H11.773a.773.773 0 0 1-.773-.773V6.172A.172.172 0 0 1 11.172 6H21.58a3.393 3.393 0 0 0 2.399-.994l1.71-1.71a.172.172 0 0 0 .037-.186.175.175 0 0 0-.159-.11H5.342A1.345 1.345 0 0 0 4 4.344V5h2.059A2.904 2.904 0 0 1 9 7.859v.277A2.907 2.907 0 0 1 6.059 11H4v2h2.059A2.907 2.907 0 0 1 9 15.864v.272A2.907 2.907 0 0 1 6.059 19H4v2h2.059A2.907 2.907 0 0 1 9 23.864v.272A2.907 2.907 0 0 1 6.059 27H4v1.405a.595.595 0 0 0 .595.595H27.65A1.35 1.35 0 0 0 29 27.65V14.226a.094.094 0 0 0-.058-.086z" id="icons"/></svg>