<svg xmlns="http://www.w3.org/2000/svg" viewBox="0 0 24 24"><path d="M13.247 17.757a2.4 2.4 0 0 1 1.259.897 2.65 2.65 0 0 1 .494 1.63 2.56 2.56 0 0 1-.246 1.128 2.7 2.7 0 0 1-.652.852 2.9 2.9 0 0 1-.953.545 3.43 3.43 0 0 1-2.272-.006 2.9 2.9 0 0 1-.95-.55 2.6 2.6 0 0 1-.647-.855 2.55 2.55 0 0 1-.24-1.13 2.9 2.9 0 0 1 .133-.887 2.6 2.6 0 0 1 .37-.733 2.4 2.4 0 0 1 .559-.552 2.5 2.5 0 0 1 .703-.346v-.026a1.8 1.8 0 0 1-.57-.315 2 2 0 0 1-.438-.496 2.5 2.5 0 0 1-.288-.628 2.4 2.4 0 0 1-.103-.701 2.5 2.5 0 0 1 .213-1.04 2.4 2.4 0 0 1 .574-.793 2.6 2.6 0 0 1 .834-.506 2.9 2.9 0 0 1 2.016.006 2.6 2.6 0 0 1 .839.51 2.4 2.4 0 0 1 .569.795 2.5 2.5 0 0 1 .207 1.042 2.4 2.4 0 0 1-.107.7 2.6 2.6 0 0 1-.29.627 2 2 0 0 1-.442.493 1.8 1.8 0 0 1-.572.312zm-3.262 2.408a2.2 2.2 0 0 0 .143.8 1.8 1.8 0 0 0 .411.643 2 2 0 0 0 .643.422 2.34 2.34 0 0 0 1.667.004 2 2 0 0 0 .644-.419 1.8 1.8 0 0 0 .416-.64 2.2 2.2 0 0 0 .146-.8 2.1 2.1 0 0 0-.142-.788 1.8 1.8 0 0 0-.412-.629 1.9 1.9 0 0 0-.642-.415 2.44 2.44 0 0 0-1.668-.004 1.9 1.9 0 0 0-.644.412 1.8 1.8 0 0 0-.415.626 2.1 2.1 0 0 0-.147.788m.34-4.525a1.7 1.7 0 0 0 .13.681 1.6 1.6 0 0 0 .366.535 1.747 1.747 0 0 0 2.416.006 1.6 1.6 0 0 0 .369-.533 1.7 1.7 0 0 0 .133-.68 1.9 1.9 0 0 0-.13-.701 1.692 1.692 0 0 0-3.15-.009 1.9 1.9 0 0 0-.134.7zM4 2.207 1.011 3.634l.43.903L3 3.793v8.167h1zm8 1.215-.916-.4-8.077 18.57.916.4zM22.689 9 20.5 11.696 18.311 9h-1.306l2.842 3.5-2.842 3.5h1.306l2.189-2.696L22.689 16h1.306l-2.842-3.5L23.995 9z"/><path fill="none" d="M0 0h24v24H0z"/></svg>