<svg xmlns="http://www.w3.org/2000/svg" viewBox="0 0 32 32"><path d="M15.796 22.606a2.9 2.9 0 0 1 1.611 1.117 3.5 3.5 0 0 1 .3 3.277 3 3 0 0 1-.756 1.02 3.5 3.5 0 0 1-1.116.65 4 4 0 0 1-2.689 0 3.5 3.5 0 0 1-1.116-.65 3 3 0 0 1-.755-1.02 3.46 3.46 0 0 1 .314-3.285 2.9 2.9 0 0 1 1.596-1.109v-.032a2.4 2.4 0 0 1-.73-.41 2.7 2.7 0 0 1-.551-.61 3 3 0 0 1-.354-.747 2.8 2.8 0 0 1-.126-.835 3 3 0 0 1 .244-1.221 2.8 2.8 0 0 1 .66-.932 2.9 2.9 0 0 1 .975-.594 3.48 3.48 0 0 1 2.374 0 2.9 2.9 0 0 1 .975.594 2.8 2.8 0 0 1 .661.932 3 3 0 0 1 .244 1.22 2.8 2.8 0 0 1-.126.836 3 3 0 0 1-.354.747 2.7 2.7 0 0 1-.558.61 2.6 2.6 0 0 1-.723.41zm-3.9 2.956a2.7 2.7 0 0 0 .189 1.028 2.5 2.5 0 0 0 .527.812 2.35 2.35 0 0 0 .817.537 3.02 3.02 0 0 0 2.123 0 2.4 2.4 0 0 0 .817-.537 2.5 2.5 0 0 0 .527-.812 2.7 2.7 0 0 0 .189-1.028 2.6 2.6 0 0 0-.197-1.02 2.5 2.5 0 0 0-.534-.811 2.4 2.4 0 0 0-.818-.53 2.93 2.93 0 0 0-2.091 0 2.4 2.4 0 0 0-.818.53 2.5 2.5 0 0 0-.534.81 2.6 2.6 0 0 0-.197 1.021m.409-5.542a2.3 2.3 0 0 0 .165.868 2 2 0 0 0 .464.69 2.3 2.3 0 0 0 .692.458 2.3 2.3 0 0 0 1.73 0 2.3 2.3 0 0 0 .691-.458 2 2 0 0 0 .464-.69 2.3 2.3 0 0 0 .165-.868 2.4 2.4 0 0 0-.165-.891 2.1 2.1 0 0 0-.464-.707 2.2 2.2 0 0 0-.691-.466 2.21 2.21 0 0 0-2.422.466 2.1 2.1 0 0 0-.464.707 2.4 2.4 0 0 0-.165.891M14 5.415 13.09 5 2.616 28.585l.909.415zM5 4 .981 5.608l.371.929L4 5.477V16h1zm24.623 9-3.108 3.678L23.407 13h-1.346l3.78 4.475L22.019 22h1.346l3.151-3.729L29.665 22H31v-.015l-3.812-4.51L30.97 13z"/><path fill="none" d="M0 0h32v32H0z"/></svg>