<svg xmlns="http://www.w3.org/2000/svg" viewBox="0 0 16 16"><path d="M2 8H1V2.414l-.58.243-.386-.923L2 .91zm6.872 4.415a1.3 1.3 0 0 0 .66-.538 1.65 1.65 0 0 0 .256-.922 1.8 1.8 0 0 0-.143-.725 1.65 1.65 0 0 0-.383-.547 1.7 1.7 0 0 0-.567-.347 2 2 0 0 0-1.382 0 1.7 1.7 0 0 0-.566.356 1.7 1.7 0 0 0-.387.556 1.8 1.8 0 0 0-.143.725 1.57 1.57 0 0 0 .257.913 1.4 1.4 0 0 0 .659.529v.018a1.7 1.7 0 0 0-.433.214 1.5 1.5 0 0 0-.36.352 1.6 1.6 0 0 0-.244.483 1.9 1.9 0 0 0-.089.593 2 2 0 0 0 .16.812 1.8 1.8 0 0 0 .433.602 1.9 1.9 0 0 0 .638.379 2.3 2.3 0 0 0 .769.132 2.2 2.2 0 0 0 .764-.132 1.9 1.9 0 0 0 .634-.379 1.8 1.8 0 0 0 .433-.602 2 2 0 0 0 .16-.812 1.9 1.9 0 0 0-.089-.584 1.7 1.7 0 0 0-.24-.483 1.6 1.6 0 0 0-.356-.36 1.4 1.4 0 0 0-.441-.215zM6.927 13.54a1.2 1.2 0 0 1 .244-.387 1.1 1.1 0 0 1 .37-.255 1.23 1.23 0 0 1 .932 0 1 1 0 0 1 .365.255 1.2 1.2 0 0 1 .24.387 1.3 1.3 0 0 1 .088.489 1.4 1.4 0 0 1-.088.501 1.2 1.2 0 0 1-.24.388 1.1 1.1 0 0 1-.365.251 1.2 1.2 0 0 1-.466.091 1.2 1.2 0 0 1-.475-.091 1.1 1.1 0 0 1-.37-.25 1.1 1.1 0 0 1-.24-.389 1.5 1.5 0 0 1-.083-.501 1.3 1.3 0 0 1 .088-.489m.178-2.958a1 1 0 0 1 .204-.336.9.9 0 0 1 .316-.218 1 1 0 0 1 .396-.077 1 1 0 0 1 .384.077.9.9 0 0 1 .31.218 1.1 1.1 0 0 1 .214.336 1.1 1.1 0 0 1 .08.422 1.1 1.1 0 0 1-.076.409 1 1 0 0 1-.213.332 1 1 0 0 1-.315.222.9.9 0 0 1-.384.082 1 1 0 0 1-.396-.082 1 1 0 0 1-.316-.222 1 1 0 0 1-.204-.332 1.1 1.1 0 0 1-.073-.409 1.2 1.2 0 0 1 .073-.422m.604-8.168L6.799 2 1.055 14.585l.91.415zM14.721 6l-1.219 1.639L12.282 6h-1.277l1.858 2.498L11.002 11h1.278l1.222-1.643L14.724 11H16l-1.86-2.502L16 6z"/><path fill="none" d="M0 0h16v16H0z"/></svg>