<?xml version="1.0" encoding="UTF-8"?><svg id="icons" xmlns="http://www.w3.org/2000/svg" viewBox="0 0 16 16"><defs><style>.cls-1{fill:none;}</style></defs><path d="M1.03125,13h5.96875v1H0v-.5c0-2.54297,1.76953-3.68848,3.33008-4.69922,1.43457-.92871,2.57383-1.73047,2.57383-3.44531,0-1.34277-.9127-2.35547-2.25645-2.35547-2.32324,0-2.6377,2.83301-2.65039,2.9541L.00195,5.85547c.12988-1.33301,1.05859-3.85547,3.64551-3.85547,1.88184,0,3.25645,1.47363,3.25645,3.35547,0,2.25879-1.56309,3.33496-3.02988,4.28516-1.34863.87305-2.62891,1.70117-2.84277,3.35938ZM15.95,8c0,3.81348-2.6834,6-7.45,6h-.5V2h.5c4.7666,0,7.45,2.18652,7.45,6ZM15,8c0-4.06348-3.55273-4.89844-6-4.99023v9.98047c2.44727-.0918,6-.92676,6-4.99023Z"/><rect class="cls-1" width="16" height="16"/></svg>