<?xml version="1.0" encoding="UTF-8"?><svg id="icons" xmlns="http://www.w3.org/2000/svg" viewBox="0 0 24 24"><defs><style>.cls-1{fill:none;}</style></defs><path d="M3.02344,19h8.97656v1H2v-.5c0-3.41211,2.60352-4.91113,4.90137-6.2334,2.19922-1.2666,4.09863-2.35938,4.09863-4.80176,0-1.82617-1.8623-3.42773-3.98438-3.42773-3.36914,0-3.81641,3.77441-3.83398,3.93457l-.99416-.10449c.17482-1.6709,1.40822-4.83008,4.82814-4.83008,2.65527,0,4.98438,2.06934,4.98438,4.42773,0,3.02051-2.33789,4.36621-4.59961,5.66797-2.125,1.22363-4.13965,2.38281-4.37695,4.86719ZM23,12c0,5.2334-3.28516,8-9.5,8h-.5V4h.5c6.21484,0,9.5,2.7666,9.5,8ZM22,12c0-4.57129-2.61816-6.8623-8-6.99414v13.98828c5.38184-.13184,8-2.42285,8-6.99414Z"/><rect class="cls-1" width="24" height="24"/></svg>