<?xml version="1.0" encoding="UTF-8"?><svg id="icons" xmlns="http://www.w3.org/2000/svg" viewBox="0 0 32 32"><defs><style>.cls-1{fill:none;}</style></defs><path d="M5.01758,24h9.98242v1H4v-.5c0-3.96191,2.85938-5.82031,5.38184-7.46094,2.3623-1.53516,4.59277-2.88437,4.59277-5.84141,0-2.36133-1.78027-4.1416-4.14062-4.1416-4.06836,0-4.48535,4.66855-4.50195,4.87168l-.99609-.07812c.1582-2.03809,1.51074-5.79355,5.49805-5.79355,2.93066,0,5.14062,2.20996,5.14062,5.1416,0,3.49902-2.56641,5.06699-5.04785,6.68027-2.40625,1.56445-4.68652,3.04688-4.90918,6.12207ZM29,15.5c0,6.12598-4.08398,9.5-11.5,9.5h-.5V6h.5c7.41602,0,11.5,3.37402,11.5,9.5ZM28,15.5c0-6.78223-5.32227-8.3916-10-8.49414v16.98828c4.67773-.10254,10-1.71191,10-8.49414Z"/><rect class="cls-1" width="32" height="32"/></svg>