<svg xmlns="http://www.w3.org/2000/svg" viewBox="0 0 24 24"><path d="M22.8 18.6c0 1.812-3.58 2.923-7.8 3.276V24h-.216l-2.842-2.5 1.705-1.5L15 18.81v2.062c4.227-.37 6.8-1.469 6.8-2.272 0-.978-3.818-2.4-9.8-2.4s-9.8 1.422-9.8 2.4c0 .864 2.982 2.073 7.8 2.343v1.003c-4.637-.254-8.8-1.392-8.8-3.346 0-2.232 5.433-3.4 10.8-3.4s10.8 1.168 10.8 3.4M12 3a41.6 41.6 0 0 0 11-1.685v13.37A41.6 41.6 0 0 0 12 13a41.6 41.6 0 0 0-11 1.685V1.315A41.6 41.6 0 0 0 12 3m0 9a41.7 41.7 0 0 1 8.382.986l-4.698-3.765-1.245.933a1.376 1.376 0 0 1-1.708-.043l-2.27-1.891-2.288 2.289a1.38 1.38 0 0 1-1.402.334L4.884 12.73A40.4 40.4 0 0 1 12 12m10-9.367A42.7 42.7 0 0 1 12 4 42.7 42.7 0 0 1 2 2.633v10.734q.542-.14 1.1-.267l3.3-3.3a.377.377 0 0 1 .533 0 .377.377 0 0 0 .534 0l2.69-2.69a.377.377 0 0 1 .508-.023l2.706 2.256a.38.38 0 0 0 .468.012l1.633-1.225a.38.38 0 0 1 .493.035L22 13.002zM14.479 6.5h.043a.98.98 0 0 0 .978-.979A1.02 1.02 0 0 0 14.479 4.5a.98.98 0 0 0-.979.979v.043a.98.98 0 0 0 .979.978"/><path fill="none" d="M0 0h24v24H0z"/></svg>