<?xml version="1.0" encoding="UTF-8"?><svg id="icons" xmlns="http://www.w3.org/2000/svg" viewBox="0 0 24 24"><defs><style>.cls-1{fill:none;}</style></defs><path d="M9.75293,12c1.38867.66602,2.24707,1.94824,2.24707,3.55859,0,2.53223-1.93457,4.44141-4.5,4.44141-2.72559,0-4.78027-1.81348-4.78027-4.21875h1c0,1.83496,1.625,3.21875,3.78027,3.21875,1.99512,0,3.5-1.47949,3.5-3.44141,0-2.11328-1.80762-3.05859-3.59961-3.05859v-1c1.79199,0,3.59961-.94531,3.59961-3.05859,0-1.96191-1.50488-3.44141-3.5-3.44141-2.15527,0-3.78027,1.38379-3.78027,3.21875h-1c0-2.40527,2.05469-4.21875,4.78027-4.21875,2.56543,0,4.5,1.90918,4.5,4.44141,0,1.61035-.8584,2.89258-2.24707,3.55859ZM23,12c0,5.2334-3.28516,8-9.5,8h-.5V4h.5c6.21484,0,9.5,2.7666,9.5,8ZM22,12c0-4.57129-2.61816-6.8623-8-6.99414v13.98828c5.38184-.13184,8-2.42285,8-6.99414Z"/><rect class="cls-1" width="24" height="24"/></svg>