<?xml version="1.0" encoding="UTF-8"?><svg id="icons" xmlns="http://www.w3.org/2000/svg" viewBox="0 0 32 32"><defs><style>.cls-1{fill:none;}</style></defs><path d="M17.5,25h-.5V6h.5c7.4043,0,11.48145,3.40723,11.48145,9.59375,0,6.06543-4.07715,9.40625-11.48145,9.40625ZM18,7.00586v16.98828c4.66992-.10156,9.98145-1.69336,9.98145-8.40039,0-6.85645-5.31152-8.4834-9.98145-8.58789ZM15,19.7793c0-1.96094-1.09766-3.50879-2.85645-4.26172,1.75879-.75293,2.80645-2.2998,2.80645-4.26074,0-2.94824-2.36602-5.25684-5.45-5.25684-3.12891,0-5.48926,2.14551-5.48926,4.99023h1c0-2.3125,1.8877-3.99023,4.48926-3.99023,2.52344,0,4.5,1.87012,4.5,4.25684,0,2.24902-1.79004,3.76074-4.45312,3.76074v1c2.66309,0,4.45312,1.51172,4.45312,3.76172,0,2.36719-1.97656,4.2207-4.5,4.2207-2.60156,0-4.48926-1.66309-4.48926-3.95508h-1c0,2.8252,2.36035,4.95508,5.48926,4.95508,3.08398,0,5.5-2.29297,5.5-5.2207Z"/><rect class="cls-1" width="32" height="32"/></svg>