<?xml version="1.0" encoding="UTF-8"?><svg id="icons" xmlns="http://www.w3.org/2000/svg" viewBox="0 0 24 24"><rect width="24" height="24" style="fill:none;"/><path d="M19,12.02637V3.474l-6.5-2.4375-6.5,2.4375v8.55237l-4,1.74902v5.92188l10.5,4.29004,10.5-4.29004v-5.92188l-4-1.74902ZM12.5,2.10486l4.44116,1.66541-4.43335,1.66272-.02734-.00879-.00586.00195-4.41571-1.65588,4.4411-1.66541ZM18,4.44061v8.03882l-5,2.24792V6.31598l5-1.87537ZM7,4.44055l5,1.87524v8.41156l-5-2.24792V4.44055ZM5.99054,13.12207l6.50946,2.92578,6.50946-2.92578,2.19403.95935-8.70349,3.8717-8.70349-3.8717,2.19403-.95935ZM3,14.82178l9.00031,4.00287.00385,3.87994-9.00415-3.6792v-4.20361ZM22,19.02539l-9,3.67584v-3.87689l9-4.00256v4.20361Z"/></svg>