<svg xmlns="http://www.w3.org/2000/svg" viewBox="0 0 32 32"><path fill="none" d="M0 0h32v32H0z"/><path d="M25 16.848V3.975l-8.5-2.974L8 3.975v12.873l-5 1.833v6.466l13.5 5.797L30 25.147v-6.466l-5-1.833zm-8.5 7.013L4.683 19.13l3.25-1.191 8.567 3.728 8.568-3.728 3.249 1.191L16.5 23.86zM16 7.517V20.36l-7-3.045V4.92l7 2.597zm1 12.842V7.517l7-2.597v12.394l-7 3.045zm5.848-16.078L16.5 6.636l-6.348-2.355L16.5 2.059l6.348 2.222zM4 19.933l12 4.805.003 4.904L4 24.49v-4.556zm13 9.707v-4.9l12-4.806v4.556l-12 5.15z"/></svg>