<svg xmlns="http://www.w3.org/2000/svg" viewBox="0 0 24 24"><path fill="none" d="M0 0h24v24H0z"/><path d="M3.007 19.028l.079-4.168 4.953 2.203c.024-.336.061-.687.11-1.046l-4.316-1.92L6 13.127l2.476 1.112c.08-.334.17-.66.269-.975L7 12.479V4.341l5 1.875v4.902c.18.093.335.234.432.421a.992.992 0 0 1 .105.461H13V6.216l5-1.875V12h1V3.374L12.5.937 6 3.374v8.655l-3.895 1.747-.012 5.918 6.552 2.718c-.112-.39-.21-.791-.292-1.2l-5.346-2.184zM16.94 3.67l-4.433 1.663-.028-.009-.005.002L8.059 3.67 12.5 2.005l4.441 1.665zM20.013 22H18.7l-2.2-3.08L14.3 22h-1.313l2.856-4-2.856-4H14.3l2.2 3.08L18.7 14h1.313l-2.856 4 2.856 4zm3.937-4c0 1.85-.45 4.569-1.303 6h-1.191C22.42 22.629 23 19.891 23 18s-.58-4.629-1.544-6h1.191c.854 1.431 1.303 4.15 1.303 6zm-12.406 6h-1.191C9.499 22.569 9 19.85 9 18s.5-4.569 1.353-6h1.191C10.58 13.371 10 16.109 10 18s.58 4.629 1.544 6z"/></svg>