<?xml version="1.0" encoding="UTF-8"?><svg id="icons" xmlns="http://www.w3.org/2000/svg" viewBox="0 0 32 32"><rect width="32" height="32" style="fill:none;"/><path d="M25,16.84824V3.97523l-8.5-2.97461-8.5,2.97461v12.87301l-5,1.83301v6.46582l13.5,5.79688,13.5-5.79688v-6.46582l-5-1.83301ZM16.5,23.86094l-11.81696-4.7309,3.24933-1.19116,8.56763,3.72772,8.56763-3.72772,3.24933,1.19116-11.81696,4.7309ZM16,7.51723v12.842l-7-3.04529V4.92l7,2.59723ZM17,20.35923V7.51723l7-2.59723v12.39394l-7,3.04529ZM22.8479,4.28096l-6.3479,2.35541-6.3479-2.35541,6.3479-2.22174,6.3479,2.22174ZM4,19.93296l12.00018,4.80505.00238,4.90448-12.00256-5.15363v-4.55591ZM17,29.6403v-4.90155l12-4.80573v4.55585l-12,5.15143Z"/></svg>