<?xml version="1.0" encoding="UTF-8"?><svg id="icons" xmlns="http://www.w3.org/2000/svg" viewBox="0 0 24 24"><rect width="24" height="24" style="fill:none;"/><path d="M3.00684,19.02832l.0788-4.16846,4.95319,2.20294c.0238-.3363.06158-.68683.10931-1.04559l-4.31543-1.91974,2.16693-.97131,2.47681,1.11328c.07971-.33441.16907-.65967.26819-.97565l-1.74463-.78436V4.34058l5,1.87524v4.90204c.18042.0932.33472.2345.43164.4212.07532.14502.10577.30328.10577.46094h.46259v-5.784l5-1.87537v7.65936h1V3.37402L12.5.93652l-6.5,2.4375v8.65527l-3.89453,1.74707-.0123,5.91797,6.55173,2.71783c-.11151-.39008-.20917-.79132-.29218-1.19952l-5.34589-2.18433ZM16.94116,3.67029l-4.43335,1.66272-.02734-.00879-.00586.00195-4.41571-1.65588,4.4411-1.66541,4.44116,1.66541ZM20.01294,22h-1.31311l-2.19983-3.08063-2.19983,3.08063h-1.31311l2.85638-4-2.85638-4h1.31311l2.19983,3.08057,2.19983-3.08057h1.31311l-2.85638,4,2.85638,4ZM23.95001,18c0,1.84906-.44946,4.56879-1.30286,6h-1.19147c.96393-1.37097,1.54431-4.10852,1.54431-6s-.58038-4.62903-1.54431-6h1.19147c.85339,1.43121,1.30286,4.15094,1.30286,6ZM11.54431,24h-1.19147c-.85339-1.43121-1.35284-4.15094-1.35284-6s.49945-4.56879,1.35284-6h1.19147c-.96393,1.37097-1.54431,4.10852-1.54431,6s.58038,4.62903,1.54431,6Z"/></svg>