<svg xmlns="http://www.w3.org/2000/svg" viewBox="0 0 32 32"><path fill="none" d="M0 0h32v32H0z"/><path d="M4 24.589v-4.556l7.015 2.809c.01-.354.028-.705.054-1.055L4.683 19.23l3.25-1.191 3.415 1.486c.06-.338.125-.672.199-1.003L9 17.414V4.81l7 2.597V15h1V7.407l7-2.597V15h1V3.865L16.5.891 8 3.865v13.083l-5 1.833v6.466l8.655 3.716a21.928 21.928 0 0 1-.268-1.202L4 24.589zM22.848 4.17L16.5 6.526l-6.348-2.355L16.5 1.949l6.348 2.222zM26.625 29h-1.25L21.5 23.833 17.625 29h-1.25l4.5-6-4.5-6h1.25l3.875 5.167L25.375 17h1.25l-4.5 6 4.5 6zm2.638-14c1.105 2.417 1.734 5.362 1.734 8.547 0 2.72-.455 5.261-1.281 7.453h-1.051c.856-2.152 1.35-4.707 1.35-7.453 0-3.228-.683-6.194-1.833-8.547h1.081zM13.306 31c-.827-2.192-1.3-4.734-1.3-7.453 0-3.185.648-6.13 1.752-8.547h1.082c-1.15 2.353-1.843 5.319-1.843 8.547 0 2.746.503 5.3 1.36 7.453h-1.051z"/></svg>