<?xml version="1.0" encoding="UTF-8"?><svg id="icons" xmlns="http://www.w3.org/2000/svg" viewBox="0 0 32 32"><rect width="32" height="32" style="fill:none;"/><path d="M4,24.58887v-4.55591l7.01465,2.80878c.01038-.3537.02875-.70514.05457-1.05499l-6.38617-2.5567,3.24933-1.19116,3.41608,1.48627c.05902-.33777.12445-.6723.1983-1.00323l-2.54675-1.10797V4.81l7,2.59723v7.59277h1v-7.59277l7-2.59723v10.19h1V3.86523L16.5.89062l-8.5,2.97461v13.08301l-5,1.83301v6.46582l8.65485,3.71637c-.09662-.39746-.19226-.79541-.2674-1.20258l-7.38745-3.172ZM22.8479,4.17096l-6.3479,2.35541-6.3479-2.35541,6.3479-2.22174,6.3479,2.22174ZM26.62451,29h-1.24951l-3.875-5.16675-3.875,5.16675h-1.24951l4.49982-6.00018-4.49982-5.99982h1.24951l3.875,5.16675,3.875-5.16675h1.24951l-4.49976,5.99982,4.49976,6.00018ZM29.26318,15c1.10474,2.41699,1.73425,5.36224,1.73425,8.54688,0,2.71924-.4552,5.26111-1.28149,7.45312h-1.05139c.85663-2.1521,1.35089-4.70703,1.35089-7.45312,0-3.22803-.68365-6.19403-1.8338-8.54688h1.08154ZM13.30554,31c-.82629-2.19202-1.2995-4.73389-1.2995-7.45312,0-3.18463.64752-6.12988,1.75226-8.54688h1.08154c-1.15015,2.35284-1.84277,5.31885-1.84277,8.54688,0,2.74609.50323,5.30103,1.35986,7.45312h-1.05139Z"/></svg>