<?xml version="1.0" encoding="UTF-8"?><svg id="icons" xmlns="http://www.w3.org/2000/svg" viewBox="0 0 16 16"><rect width="16" height="16" style="fill:none;"/><path d="M8.5.01172l-4.5,1.7998v5.23398l-3,1.16211v4.52246l7.5,3.21387,7.5-3.21387v-4.52246l-3-1.16211V1.81152L8.5.01172ZM8.5,11.00645l-5.67529-2.43274,1.17694-.45593,4.49835,1.87402,4.49835-1.87402,1.17694.45593-5.67529,2.43274ZM8,3.99701v4.70249l-3-1.24988V2.87164l3,1.12537ZM9,3.99701l3-1.12537v4.57798l-3,1.24988V3.99701ZM11.11627,2.13544l-2.61627.98077-2.61627-.98077,2.61627-1.04755,2.61627,1.04755ZM2,9.30912l6,2.57098v2.76166l-6-2.57184v-2.7608ZM9,14.64176v-2.76166l6-2.57098v2.7608l-6,2.57184Z"/></svg>