<?xml version="1.0" encoding="UTF-8"?><svg id="icons" xmlns="http://www.w3.org/2000/svg" viewBox="0 0 16 16"><rect width="16" height="16" style="fill:none;"/><path d="M7.5.01172L3,1.81152v5.33398l-3,1.16211v4.52246l5.36615,2.29944c-.10931-.39038-.19336-.78961-.25305-1.19659l-4.1131-1.763v-2.7608l4.09296,1.75385c.04614-.34149.10291-.68018.18396-1.00946l-3.45221-1.4798,1.17694-.45593,2.54932,1.06207c.11273-.31732.24579-.62244.39221-.92065l-1.94318-.80957V2.87164l3,1.12537v3.49908h1v-3.49908l3-1.12537v4.67798l-1.08105.45038h3.08801c.08008-.13977.19049-.25494.32147-.3399l-1.32843-.51459V1.81152L7.5.01172ZM10.11627,2.13544l-2.61627.98077-2.61627-.98077,2.61627-1.04755,2.61627,1.04755ZM15.27551,15.99121h-1.09991c.51727-.96967.82831-2.17792.82831-3.49121,0-1.55591-.43365-2.96747-1.13422-4.00439h1.1507c.61505,1.12213.97455,2.50458.97455,4.00439,0,1.2785-.26038,2.47083-.71942,3.49121ZM6.72449,15.99121c-.45905-1.02039-.71942-2.21271-.71942-3.49121,0-1.49982.3595-2.88226.97455-4.00439h1.1507c-.70056,1.03693-1.13422,2.44849-1.13422,4.00439,0,1.31329.31104,2.52155.82831,3.49121h-1.09991ZM12.32703,15l-1.34473-1.69574-1.3443,1.69574h-1.276l1.98224-2.50037-1.98218-2.49963h1.27606l1.34399,1.69501,1.34375-1.69501h1.276l-1.98169,2.49969,1.9826,2.50031h-1.27576Z"/></svg>