<svg xmlns="http://www.w3.org/2000/svg" viewBox="0 0 16 16"><path d="M6 7.63a2.3 2.3 0 0 0 .701-.38 2.5 2.5 0 0 0 .541-.597 3 3 0 0 0 .355-.758 2.8 2.8 0 0 0 .13-.847 3 3 0 0 0-.26-1.257 2.9 2.9 0 0 0-.7-.96 3.2 3.2 0 0 0-1.033-.613 3.63 3.63 0 0 0-2.476 0 3.2 3.2 0 0 0-1.024.613 2.8 2.8 0 0 0-.701.96 3 3 0 0 0-.26 1.257 2.8 2.8 0 0 0 .13.847 3 3 0 0 0 .355.758 2.5 2.5 0 0 0 .54.597A2.3 2.3 0 0 0 3 7.63v.031a2.1 2.1 0 0 0-.663.42 2.9 2.9 0 0 0-.685.669 3.1 3.1 0 0 0-.452.887 3.4 3.4 0 0 0-.162 1.073 3.04 3.04 0 0 0 .299 1.363 3.2 3.2 0 0 0 .798 1.032 3.6 3.6 0 0 0 1.17.661 3.17 3.17 0 0 0 2.39 0 3.6 3.6 0 0 0 1.17-.661 3.2 3.2 0 0 0 .797-1.032 3.04 3.04 0 0 0 .3-1.363 3.16 3.16 0 0 0-.614-1.968A2.5 2.5 0 0 0 6 7.662zm-3.823 2a2.2 2.2 0 0 1 .509-.76 2.3 2.3 0 0 1 .79-.499 2.8 2.8 0 0 1 1.023-.177 2.8 2.8 0 0 1 1.025.177 2.3 2.3 0 0 1 .79.5 2.2 2.2 0 0 1 .509.758 2.5 2.5 0 0 1 .177.952 2.6 2.6 0 0 1-.177.967 2.2 2.2 0 0 1-.509.775 2.4 2.4 0 0 1-.79.508 2.7 2.7 0 0 1-1.025.185 2.7 2.7 0 0 1-1.023-.185 2.4 2.4 0 0 1-.79-.508 2.2 2.2 0 0 1-.509-.775A2.6 2.6 0 0 1 2 10.581a2.5 2.5 0 0 1 .177-.952zm.387-5.364a2 2 0 0 1 .444-.677 2.1 2.1 0 0 1 .661-.444 2.12 2.12 0 0 1 2.323.444 2 2 0 0 1 .444.677 2.2 2.2 0 0 1 .16.847 2.05 2.05 0 0 1-.16.822 1.95 1.95 0 0 1-.453.646 2.1 2.1 0 0 1-.669.427 2.17 2.17 0 0 1-2.297-.427 1.9 1.9 0 0 1-.453-.646 2 2 0 0 1-.16-.822 2.2 2.2 0 0 1 .16-.847M15 6l-1.86 2.498L15 11h-1.276l-1.222-1.643L11.279 11h-1.277l1.861-2.502L10.005 6h1.277l1.22 1.639L13.722 6z"/><path fill="none" d="M0 0h16v16H0z"/></svg>