<svg xmlns="http://www.w3.org/2000/svg" viewBox="0 0 24 24"><path d="M12.583 16.323a4.5 4.5 0 0 1-.401 1.935 4.2 4.2 0 0 1-1.098 1.454 5.1 5.1 0 0 1-1.626.927 5.93 5.93 0 0 1-3.916 0 5.1 5.1 0 0 1-1.626-.927 4.2 4.2 0 0 1-1.098-1.454 4.5 4.5 0 0 1-.401-1.935 4.5 4.5 0 0 1 .858-2.747 4.2 4.2 0 0 1 2.325-1.58v-.046a3.5 3.5 0 0 1-1.065-.584 4 4 0 0 1-.801-.869 4.2 4.2 0 0 1-.516-1.065 3.9 3.9 0 0 1-.156-1.19 4.15 4.15 0 0 1 .328-1.74 4 4 0 0 1 .962-1.328 4.3 4.3 0 0 1 1.419-.848 5.16 5.16 0 0 1 3.458 0 4.3 4.3 0 0 1 1.419.848A4 4 0 0 1 11.61 6.5a4.15 4.15 0 0 1 .328 1.74 3.9 3.9 0 0 1-.156 1.19 4.2 4.2 0 0 1-.516 1.066 3.8 3.8 0 0 1-.812.87 3.7 3.7 0 0 1-1.053.583v.046a4.24 4.24 0 0 1 2.346 1.591 4.54 4.54 0 0 1 .836 2.736zm-6.43-5.127A3.6 3.6 0 0 0 7.5 11.4a3.4 3.4 0 0 0 1.317-.203 3.6 3.6 0 0 0 1.061-.663A3 3 0 0 0 10.6 9.52a3.1 3.1 0 0 0 .256-1.261 3.3 3.3 0 0 0-.254-1.291 3.05 3.05 0 0 0-.721-1.035 3.4 3.4 0 0 0-1.065-.677 3.72 3.72 0 0 0-2.662 0 3.4 3.4 0 0 0-1.065.677 3.05 3.05 0 0 0-.721 1.035 3.3 3.3 0 0 0-.254 1.29 3.15 3.15 0 0 0 .255 1.262 3 3 0 0 0 .723 1.014 3.5 3.5 0 0 0 1.062.662zm5.347 4.988a3.7 3.7 0 0 0-.298-1.5 3.7 3.7 0 0 0-.835-1.198 3.8 3.8 0 0 0-1.273-.784A4.4 4.4 0 0 0 7.5 12.5a4.6 4.6 0 0 0-1.624.202 3.8 3.8 0 0 0-1.272.784 3.6 3.6 0 0 0-.835 1.198 3.7 3.7 0 0 0-.269 1.5 3.8 3.8 0 0 0 .257 1.509 3.65 3.65 0 0 0 .82 1.198 3.7 3.7 0 0 0 1.277.797 4.6 4.6 0 0 0 1.631.283 4.5 4.5 0 0 0 1.63-.283 3.7 3.7 0 0 0 1.278-.796 3.7 3.7 0 0 0 .82-1.198 3.8 3.8 0 0 0 .287-1.51M20.689 9 18.5 11.696 16.311 9h-1.306l2.842 3.5-2.842 3.5h1.306l2.189-2.696L20.689 16h1.306l-2.842-3.5L21.995 9z"/><path fill="none" d="M0 0h24v24H0z"/></svg>