<svg xmlns="http://www.w3.org/2000/svg" viewBox="0 0 32 32"><path d="M15.764 17.848a5.26 5.26 0 0 0-2.908-1.972v-.057a4.6 4.6 0 0 0 1.305-.724 4.7 4.7 0 0 0 1.007-1.078 5.2 5.2 0 0 0 .639-1.32A4.8 4.8 0 0 0 16 11.222a5.1 5.1 0 0 0-.406-2.157 5 5 0 0 0-1.193-1.646 5.3 5.3 0 0 0-1.758-1.05 6.4 6.4 0 0 0-4.286 0 5.3 5.3 0 0 0-1.758 1.05 5 5 0 0 0-1.194 1.646A5.1 5.1 0 0 0 5 11.222a4.8 4.8 0 0 0 .193 1.475 5.2 5.2 0 0 0 .639 1.32 4.9 4.9 0 0 0 .993 1.078 4.3 4.3 0 0 0 1.32.724v.057a5.22 5.22 0 0 0-2.881 1.958 6 6 0 0 0-.567 5.803 5.2 5.2 0 0 0 1.361 1.802 6.4 6.4 0 0 0 2.016 1.15 7.35 7.35 0 0 0 4.852 0 6.4 6.4 0 0 0 2.016-1.15 5.3 5.3 0 0 0 1.36-1.802 5.6 5.6 0 0 0 .498-2.398 5.63 5.63 0 0 0-1.036-3.391M7.386 14.38a4 4 0 0 1-.941-1.368 4.4 4.4 0 0 1-.332-1.705 4.6 4.6 0 0 1 .33-1.743 4.1 4.1 0 0 1 .939-1.398 4.48 4.48 0 0 1 6.235 0 4.1 4.1 0 0 1 .938 1.398 4.6 4.6 0 0 1 .332 1.743 4.3 4.3 0 0 1-.334 1.704 4 4 0 0 1-.939 1.37 4.6 4.6 0 0 1-1.382.895 4.4 4.4 0 0 1-1.732.224 4.4 4.4 0 0 1-1.732-.225 4.6 4.6 0 0 1-1.382-.895m7.863 8.704a4.8 4.8 0 0 1-1.045 1.576 4.7 4.7 0 0 1-1.627 1.048 5.6 5.6 0 0 1-2.077.372 5.6 5.6 0 0 1-2.078-.372 4.7 4.7 0 0 1-1.626-1.05 4.8 4.8 0 0 1-1.046-1.576 5.1 5.1 0 0 1-.375-1.985 5 5 0 0 1 .39-1.974 4.7 4.7 0 0 1 2.685-2.609 5.84 5.84 0 0 1 4.1 0 4.68 4.68 0 0 1 2.685 2.609 5.1 5.1 0 0 1 .39 1.974 5.1 5.1 0 0 1-.376 1.987M28.97 13l-3.78 4.475 3.81 4.51V22h-1.334l-3.15-3.729L21.363 22h-1.346l3.824-4.525L20.06 13h1.346l3.108 3.678L27.623 13z"/><path fill="none" d="M0 0h32v32H0z"/></svg>