<svg xmlns="http://www.w3.org/2000/svg" viewBox="0 0 16 16"><path fill="none" d="M0 0h16v16H0z"/><path d="M12.4 1H0v10h1V2h10v4h4v8h1V4.6zM15 5h-3V2h.31L15 4.69zm-4.5 11C9.075 16 8 15.14 8 14h1c0 .56.66 1 1.5 1 .813 0 1.5-.498 1.5-1.088 0-.627-.777-.912-1.5-.912v-1c.813 0 1.5-.458 1.5-1s-.687-1-1.5-1-1.5.458-1.5 1H8c0-1.103 1.121-2 2.5-2s2.3.897 2.3 2c0 .577-.107 1.098-.597 1.463.501.34.797.846.797 1.45C13 15.062 11.879 16 10.5 16m-4.188 0h1l-3-7h-1l-3 7h1.001l.857-2h3.285zm-3.713-3 1.213-2.833L5.026 13z"/><path d="M11 4H1V2h10z" opacity=".25"/></svg>