<svg xmlns="http://www.w3.org/2000/svg" viewBox="0 0 24 24"><path stroke-width="0" fill="none" d="M0 0h24v24H0z"/><path d="M15 5H5V2h10v3z" opacity=".25" stroke-width="0"/><path d="M16.29 1H4v7h1V2h10v6h6v15H5v-2H4v3h18V6.709L16.29 1zM21 7h-5V2h.2L21 6.8V7zm-6.271 11.944c-1.593 0-2.89-1.15-2.89-2.561h.89c0 .922.897 1.673 2 1.673s2-.751 2-1.673c0-.887-.86-1.555-2-1.555v-.889c1.14 0 2-.619 2-1.439 0-.857-.898-1.556-2-1.556s-2 .699-2 1.556h-.89c0-1.348 1.297-2.444 2.89-2.444s2.888 1.096 2.888 2.444c0 .799-.449 1.48-1.167 1.895.718.435 1.167 1.15 1.167 1.988 0 1.412-1.296 2.561-2.888 2.561zM7.05 10h-1L2 19h.99l1.379-3H8.73l1.378 3h.991l-4.05-9zm-2.222 5l1.722-3.75L8.272 15H4.828z" stroke-width="0"/></svg>