<svg xmlns="http://www.w3.org/2000/svg" viewBox="0 0 32 32"><path stroke-width="0" fill="none" d="M0 0h32v32H0z"/><path d="M18 6H6V3h12v3z" opacity=".25" stroke-width="0"/><path d="M19.3 2H5v10h1V3h12v8h8v18H6v-1H5v2h22V9.699L19.3 2zm-.3 8V3l7 7h-7zm-1 16c-2.045 0-3.708-1.53-3.708-3.412h1C15.292 23.918 16.507 25 18 25s2.708-1.082 2.708-2.412c0-1.305-1.19-2.327-2.708-2.327v-1c1.346 0 2.708-.69 2.708-2.011 0-1.24-1.215-2.25-2.708-2.25s-2.708 1.01-2.708 2.25h-1c0-1.792 1.663-3.25 3.708-3.25s3.708 1.458 3.708 3.25c0 1.114-.636 2.033-1.654 2.552 1.004.589 1.654 1.606 1.654 2.786C21.708 24.47 20.045 26 18 26zM4.689 22h5.622l1.677 4h1.084l-5.03-12H6.958l-5.03 12h1.084l1.677-4zM7.5 15.293L9.892 21H5.108L7.5 15.293z" stroke-width="0"/></svg>