<svg xmlns="http://www.w3.org/2000/svg" viewBox="0 0 24 24"><path fill="none" d="M0 0h24v24H0z"/><path fill-rule="evenodd" d="M19.001 22.992a6.5 6.5 0 0 1-3.5-.88 6.5 6.5 0 0 1-3.5.88 6.5 6.5 0 0 1-3.5-.88 6.5 6.5 0 0 1-3.5.88 6 6 0 0 1-3.834-1.119.5.5 0 1 1 .665-.746 5.08 5.08 0 0 0 3.169.874 5.13 5.13 0 0 0 3.172-.877l.139-.08.17-.036a.7.7 0 0 1 .214.038l.121.07a5.1 5.1 0 0 0 3.184.885 5.13 5.13 0 0 0 3.172-.877l.139-.08.171-.036a.7.7 0 0 1 .213.038l.121.07a5.1 5.1 0 0 0 3.184.885 5.13 5.13 0 0 0 3.172-.877.5.5 0 0 1 .327-.12.5.5 0 0 1 .336.869A5.9 5.9 0 0 1 19 22.992zM12 16h1v2h-1zm1-3h-1v2h1zm0-3h-1v2h1zm-2.9-3.5a2.4 2.4 0 1 1 2.4 2.4 2.403 2.403 0 0 1-2.4-2.4m.9 0A1.5 1.5 0 1 0 12.5 5 1.5 1.5 0 0 0 11 6.5M4 20v-1H2v-2h2v-1H2v-2h2v-1H2v-2h2v-1H2V8h2V7H2V5h2V4H2V2H1v18z"/></svg>