<svg xmlns="http://www.w3.org/2000/svg" viewBox="0 0 24 24"><path d="M12 1.2C6.034 1.2 1.2 6.034 1.2 12c0 5.968 4.834 10.8 10.8 10.8S22.8 17.968 22.8 12c0-5.966-4.834-10.8-10.8-10.8zm0 20.6c-5.403 0-9.8-4.397-9.8-9.8S6.597 2.2 12 2.2s9.8 4.397 9.8 9.8-4.397 9.8-9.8 9.8zm1.402-13.3l3.99-.798a.5.5 0 1 1 .195.98l-3.71.734a.5.5 0 0 0-.403.457L13.3 12.49l2.211 6.317a.5.5 0 0 1-.265.62l-.027.013a.513.513 0 0 1-.68-.254L12 13.99l-2.54 5.196a.513.513 0 0 1-.679.254l-.027-.013a.5.5 0 0 1-.265-.62L10.7 12.49l-.174-2.617a.5.5 0 0 0-.402-.457l-3.712-.733a.5.5 0 1 1 .195-.98l3.99.797h2.805zm.298-2.501A1.7 1.7 0 1 1 10.299 6 1.7 1.7 0 0 1 13.7 6z"/><path fill="none" d="M0 0h24v24H0z"/></svg>