<svg xmlns="http://www.w3.org/2000/svg" viewBox="0 0 16 16"><path d="M8 .2a7.8 7.8 0 1 0 0 15.6A7.8 7.8 0 0 0 8 .2zm0 14.6c-3.749 0-6.8-3.051-6.8-6.8S4.251 1.2 8 1.2s6.8 3.051 6.8 6.8-3.051 6.8-6.8 6.8zm3.67-8.31l-2.7.67-.06 1-.01 1.09v.01l1.74 3.33c.13.25.03.55-.21.67a.42.42 0 0 1-.21.06h-.01a.492.492 0 0 1-.46-.27L8 9.69l-1.75 3.36c-.1.18-.27.28-.46.27h-.01a.42.42 0 0 1-.21-.06.493.493 0 0 1-.21-.67L7.1 9.26v-.01l-.01-1.09-.06-1-2.7-.67a.512.512 0 0 1-.37-.61c.01-.02.01-.04.02-.06a.51.51 0 0 1 .59-.31l2.4.6h2.06l2.4-.6c.25-.06.5.08.59.31.01.02.01.04.02.06.06.27-.1.54-.37.61zM8.3 5h-.6a.7.7 0 0 1-.7-.7v-.6a.7.7 0 0 1 .7-.7h.6a.7.7 0 0 1 .7.7v.6a.7.7 0 0 1-.7.7z"/><path fill="none" d="M0 0h16v16H0z"/></svg>