<svg xmlns="http://www.w3.org/2000/svg" viewBox="0 0 32 32"><path d="M14.419 12.212a6.042 6.042 0 0 0 1.177 2.135l-.604.525a6.829 6.829 0 0 1-1.333-2.41zm2.217 3.074l-.47.647a16.155 16.155 0 0 0 1.757 1.065l.536.297.393-.697-.544-.301a15.682 15.682 0 0 1-1.672-1.01zm3.522 2.15l-.484.636a5.214 5.214 0 0 1 1.558 1.841l.713-.361a5.966 5.966 0 0 0-1.787-2.116zm7.201 6.948l-.637-.052a41.033 41.033 0 0 0-3.26-.132 24.327 24.327 0 0 0-8.383 1.446A25.331 25.331 0 0 1 12 26.49v-1.018a25.48 25.48 0 0 0 2.769-.778c.997-.323 2.065-.662 3.314-.937-.232-1.45-1.788-3.042-3.7-3.69-.706-.239-1.116-.962-1.59-1.797-.896-1.584-2.02-3.531-5.574-3.311L6.382 20H5.37L7.42 7.644l.481.063a18.376 18.376 0 0 0 2.44.161 19.374 19.374 0 0 0 5.995-.924 14.818 14.818 0 0 1 4.74-.733 23.168 23.168 0 0 1 2.94.196l.369.048zM23.463 23.2c.204 0 .412.017.617.02-.384-5.412-2.643-6.531-4.834-7.602-2.18-1.065-4.422-2.176-4.155-7.302a19.29 19.29 0 0 1-1.204.256v.036a15.547 15.547 0 0 0 .197 2.211l-.79.133a16.254 16.254 0 0 1-.201-2.258 20.773 20.773 0 0 1-2.753.174 19.583 19.583 0 0 1-2.091-.111l-.862 5.192c4.01-.16 5.366 2.222 6.276 3.828.373.659.695 1.227 1.041 1.344a6.475 6.475 0 0 1 4.36 4.444 23.784 23.784 0 0 1 2.942-.33 10.971 10.971 0 0 0-.287-2.005l.773-.202a11.557 11.557 0 0 1 .313 2.188c.22-.005.427-.016.658-.016zm2.701.09L23.52 7.353a21.659 21.659 0 0 0-2.446-.143 13.94 13.94 0 0 0-4.452.691l-.514.147c-.344 4.74 1.39 5.602 3.578 6.67 2.348 1.149 4.996 2.46 5.398 8.535.36.014.72.012 1.08.035zM31 28a33.153 33.153 0 0 0-7.538-.8c-6.876 0-8.048 2.6-14.924 2.6A16.273 16.273 0 0 1 1 28L5 3.9a14.99 14.99 0 0 0 5.34.968c4.807 0 5.59-1.657 10.734-1.657A26.402 26.402 0 0 1 27 3.9zm-7.538-1.8a37.286 37.286 0 0 1 6.313.528l-3.651-22a26.164 26.164 0 0 0-5.05-.517 16.628 16.628 0 0 0-5.29.81 17.42 17.42 0 0 1-5.445.847 15.6 15.6 0 0 1-4.544-.65L2.107 27.433a15.989 15.989 0 0 0 6.43 1.366 20.422 20.422 0 0 0 7.156-1.252 22.381 22.381 0 0 1 7.77-1.348zM10 23h4v-.999h-4v-4H9v4H5V23h4v4.001h1z"/><path fill="none" d="M0 0h32v32H0z"/></svg>