<svg xmlns="http://www.w3.org/2000/svg" viewBox="0 0 32 32"><path d="M16 30h8v1H3v-1h12v-3.184c-1.714.529-3.589.984-6.462.984C4.093 27.8 1 26 1 26L5 1.9c.7.233 2.519.968 5.34.968 4.807 0 5.59-1.657 10.734-1.657 3.26 0 5.926.689 5.926.689L30.668 24h-1.013L26.124 2.729a26.165 26.165 0 0 0-5.05-.518c-2.474 0-3.842.393-5.29.81-1.445.417-2.94.847-5.445.847a15.6 15.6 0 0 1-4.544-.65L2.107 25.433a15.984 15.984 0 0 0 6.43 1.366c3.281 0 5.163-.608 7.156-1.252 1.209-.39 2.45-.785 3.994-1.046a1.99 1.99 0 0 0-.651 1.141c-1.113.24-2.077.547-3.036.857V30zm11-4v-5h-1v5h-5v.999h5V32h1v-5.001h5V26h-5z"/><path fill="none" d="M0 0h32v32H0z"/></svg>