<svg xmlns="http://www.w3.org/2000/svg" viewBox="0 0 24 24"><path d="M21.5 15c-1.208 0-2.217.86-2.45 2H17v-1h-2.293l-1.146-1.146a2.54 2.54 0 0 0 .389-1.354c0-1.379-1.071-2.5-2.45-2.5S9 12.121 9 13.5s1.121 2.5 2.5 2.5a2.41 2.41 0 0 0 1.371-.422L14 16.707v1.555l-1.149 1.149A2.412 2.412 0 0 0 11.5 19C10.121 19 9 20.121 9 21.5s1.121 2.5 2.5 2.5 2.45-1.121 2.45-2.5c0-.508-.147-.98-.4-1.374L14.676 19H17v-1h2.05c.233 1.14 1.242 2 2.45 2 1.379 0 2.45-1.121 2.45-2.5S22.879 15 21.5 15zm-10 0c-.827 0-1.5-.673-1.5-1.5s.673-1.5 1.5-1.5 1.5.673 1.5 1.5-.673 1.5-1.5 1.5zm0 8c-.827 0-1.5-.673-1.5-1.5s.673-1.5 1.5-1.5 1.5.673 1.5 1.5-.673 1.5-1.5 1.5zm4.5-5h-1v-1h1v1zm5.5 1c-.827 0-1.5-.673-1.5-1.5s.673-1.5 1.5-1.5 1.5.673 1.5 1.5-.673 1.5-1.5 1.5zm-12.299-.494l-2.847 2.848-.708-.708L7.293 19H5c-1.654 0-3-1.346-3-3v-2h1v2c0 1.103.897 2 2 2h2.281l-1.635-1.634.708-.707L9.2 18.506zM4.95 10.5c0-.517-.108-.998-.377-1.397L5.676 8H8V7h2.05c.233 1.14 1.242 2 2.45 2 1.379 0 2.45-1.121 2.45-2.5S13.879 4 12.5 4c-1.208 0-2.217.86-2.45 2H8V5H5.707L4.584 3.877c.262-.396.366-.868.366-1.377C4.95 1.121 3.879 0 2.5 0S0 1.121 0 2.5 1.121 5 2.5 5c.509 0 .981-.154 1.377-.416L5 5.707v1.555L3.856 8.405A2.481 2.481 0 0 0 2.5 8C1.121 8 0 9.121 0 10.5S1.121 13 2.5 13s2.45-1.121 2.45-2.5zM12.5 5c.827 0 1.5.673 1.5 1.5S13.327 8 12.5 8 11 7.327 11 6.5 11.673 5 12.5 5zM6 6h1v1H6V6zM2.5 4C1.673 4 1 3.327 1 2.5S1.673 1 2.5 1 4 1.673 4 2.5 3.327 4 2.5 4zM1 10.5C1 9.673 1.673 9 2.5 9S4 9.673 4 10.5 3.327 12 2.5 12 1 11.327 1 10.5z" stroke-width="0"/><path stroke-width="0" fill="none" d="M0 0h24v24H0z"/></svg>