<svg xmlns="http://www.w3.org/2000/svg" viewBox="0 0 24 24"><path d="M18.458 18.166a18 18 0 0 1 2.926.234L19.057 4.59a10.6 10.6 0 0 0-2.746-.39 6.9 6.9 0 0 0-3.11.65 10.8 10.8 0 0 1-4.63.95 16.7 16.7 0 0 1-2.914-.268l-1.074 6.234A1.5 1.5 0 0 1 5 11.7h.61l.129-.752c1.964.032 2.295.872 2.625 1.761a2.12 2.12 0 0 0 1.019 1.38 4.54 4.54 0 0 1 2.663 3.904l-.307.073a22 22 0 0 1-4.239.702v1.002a22.6 22.6 0 0 0 4.473-.731 25 25 0 0 1 6.485-.873M13.582 5.775A5.9 5.9 0 0 1 16.31 5.2a9 9 0 0 1 1.87.206l1.994 11.835c-.336-.03-.679-.032-1.02-.045-.456-4.414-2.584-5.468-4.312-6.311-1.608-.786-2.886-1.42-2.827-4.545a15 15 0 0 0 1.566-.565zm-3.799 7.399c-.204-.089-.316-.367-.481-.813a3.235 3.235 0 0 0-3.39-2.414l.564-3.28a17 17 0 0 0 2.095.133c.147 0 .279-.009.419-.012a10 10 0 0 0 .331 2.05l.77-.217a9.6 9.6 0 0 1-.287-1.878 12 12 0 0 0 1.21-.16c.015 3.546 1.728 4.388 3.39 5.2 1.639.801 3.328 1.633 3.747 5.389q-.674.007-1.279.045a7.3 7.3 0 0 0-.324-1.775l-.76.25a6.5 6.5 0 0 1 .286 1.586 25 25 0 0 0-3.044.487 5.48 5.48 0 0 0-3.247-4.591m14.098 8.009a13.1 13.1 0 0 0-5.423-1.017c-5.242 0-6.792 1.634-12.034 1.634A13.1 13.1 0 0 1 1 20.783l.431-2.502a1.5 1.5 0 0 0 .77.219h.207l-.284 1.65a13.7 13.7 0 0 0 4.3.65 22 22 0 0 0 5.783-.79 24 24 0 0 1 6.25-.844 16.3 16.3 0 0 1 4.158.52l-2.674-15.87a11.9 11.9 0 0 0-3.63-.615 7.8 7.8 0 0 0-3.49.725 9.8 9.8 0 0 1-4.25.875 16.2 16.2 0 0 1-3.724-.457L3.097 14.5H2.2c-.04 0-.08.009-.12.012L4.05 3.078a15 15 0 0 0 4.52.722c3.849 0 3.893-1.6 7.74-1.6a12.7 12.7 0 0 1 4.52.878zm-8.084-7.176-.631.49a5.85 5.85 0 0 0-1.94-1.474l.383-.703a6.6 6.6 0 0 1 2.188 1.687m-3.472-2.411-.428.675a5.6 5.6 0 0 1-1.966-1.965l.691-.403a4.84 4.84 0 0 0 1.703 1.693M2.2 17v-1H5v-2.8h1V16h2.8v1H6v2.8H5V17z"/><path fill="none" d="M0 0h24v24H0z"/></svg>