<svg xmlns="http://www.w3.org/2000/svg" viewBox="0 0 16 16"><path d="M16 14.29 13.867 1.687a8.2 8.2 0 0 0-3.161-.674c-2.69 0-2.725.986-5.412.986a10.4 10.4 0 0 1-3.161-.512L.68 10.064A1 1 0 0 1 1 10h.706l.53-3.133A3.44 3.44 0 0 1 5.359 9.05a4.6 4.6 0 0 0 .657.952.98.98 0 0 1 .817.474 3.57 3.57 0 0 1 2.118 2.174c-.442.125-.86.263-1.27.401a12.7 12.7 0 0 1-2.68.676V14a.98.98 0 0 1-.383.768c3.025-.216 4.217-1.568 7.59-1.568A6.6 6.6 0 0 1 16 14.29M10.706 2.013a7.2 7.2 0 0 1 2.27.399l1.72 10.163a8 8 0 0 0-.75-.19c.134-3.836-1.725-4.85-3.378-5.742-1.435-.774-2.67-1.475-2.658-4.046q.222-.075.428-.15a5.9 5.9 0 0 1 2.368-.434m-3.85 7.393c-.181-.06-.408-.462-.628-.848A4.42 4.42 0 0 0 2.404 5.88l.531-3.141A11.4 11.4 0 0 0 5.294 3 8.6 8.6 0 0 0 6.9 2.862c.077 2.973 1.723 3.869 3.193 4.661 1.574.85 2.945 1.592 2.863 4.711a9 9 0 0 0-.749-.034 11.6 11.6 0 0 0-2.285.218 4.62 4.62 0 0 0-3.067-3.01zM1 12v-1h2V9h1v2h2v1H4v2H3v-2z"/><path fill="none" d="M0 0h16v16H0z"/></svg>