<svg xmlns="http://www.w3.org/2000/svg" viewBox="0 0 16 16"><path d="M3 7.501a1.49 1.49 0 0 0-.15-.643L3.706 6H6V5h1.092A1.497 1.497 0 0 0 10 4.501c0-.827-.673-1.5-1.5-1.5A1.5 1.5 0 0 0 7.092 4H6V3H3.701l-.853-.853A1.48 1.48 0 0 0 3 1.5C3 .673 2.327 0 1.5 0S0 .674 0 1.501.673 3 1.5 3c.23 0 .445-.055.64-.148l.86.86v1.581l-.858.858A1.483 1.483 0 0 0 1.5 6C.673 6 0 6.673 0 7.5a1.5 1.5 0 0 0 3 0zm5-3.238C8 4.118 8.118 4 8.263 4h.487a.25.25 0 0 1 .25.25v.5a.25.25 0 0 1-.25.25h-.245l-.005.001L8.495 5H8.25A.25.25 0 0 1 8 4.75v-.487zM4 4h1v1H4V4zM2 1.75a.25.25 0 0 1-.25.25h-.245l-.005.001L1.495 2H1.25A.25.25 0 0 1 1 1.75v-.487C1 1.118 1.118 1 1.263 1h.487a.25.25 0 0 1 .25.25v.5zM1.25 8A.25.25 0 0 1 1 7.75v-.487C1 7.118 1.118 7 1.263 7h.487a.25.25 0 0 1 .25.25v.5a.25.25 0 0 1-.25.25h-.245l-.005.001L1.495 8H1.25zM4 14.177v-1.176h-.5a2.503 2.503 0 0 1-2.5-2.5v-.5h1v.5c0 .827.673 1.5 1.5 1.5H4v-1.176L6.058 12.5 4 14.177zM14.5 10a1.5 1.5 0 0 0-1.408 1H12v-1H9.701l-.853-.853C8.942 8.95 9 8.733 9 8.5 9 7.673 8.327 7 7.5 7S6 7.674 6 8.501 6.673 10 7.5 10c.23 0 .445-.055.64-.148l.86.86v1.581l-.858.858A1.483 1.483 0 0 0 7.5 13c-.827 0-1.5.673-1.5 1.5a1.5 1.5 0 0 0 3 0 1.49 1.49 0 0 0-.15-.643L9.706 13H12v-1h1.092c.207.58.757 1 1.408 1 .827 0 1.5-.673 1.5-1.5s-.673-1.5-1.5-1.5zM8 8.75a.25.25 0 0 1-.25.25h-.245l-.005.001L7.495 9H7.25A.25.25 0 0 1 7 8.75v-.487C7 8.118 7.118 8 7.263 8h.487a.25.25 0 0 1 .25.25v.5zm0 6a.25.25 0 0 1-.25.25h-.245l-.005.001L7.495 15H7.25a.25.25 0 0 1-.25-.25v-.487c0-.145.118-.263.263-.263h.487a.25.25 0 0 1 .25.25v.5zM11 12h-1v-1h1v1zm4-.25a.25.25 0 0 1-.25.25h-.5a.25.25 0 0 1-.25-.25v-.487c0-.145.118-.263.263-.263h.487a.25.25 0 0 1 .25.25v.5z" stroke-width="0"/><path stroke-width="0" fill="none" d="M0 0h16v16H0z"/></svg>