<svg xmlns="http://www.w3.org/2000/svg" viewBox="0 0 16 16"><path d="M16 14.29L13.867 1.687a8.205 8.205 0 0 0-3.161-.674c-2.69 0-2.725.986-5.412.986a10.39 10.39 0 0 1-3.161-.512L.68 10.064A.983.983 0 0 1 1 10h.706l.53-3.133A3.44 3.44 0 0 1 5.359 9.05a4.552 4.552 0 0 0 .657.952.982.982 0 0 1 .817.474 3.571 3.571 0 0 1 2.118 2.174c-.442.125-.86.263-1.27.401a12.664 12.664 0 0 1-2.68.676V14a.982.982 0 0 1-.383.768c3.025-.216 4.217-1.568 7.59-1.568A6.624 6.624 0 0 1 16 14.29zM10.706 2.013a7.214 7.214 0 0 1 2.27.399l1.72 10.163a8.329 8.329 0 0 0-.75-.19c.134-3.836-1.725-4.85-3.378-5.742-1.435-.774-2.67-1.475-2.658-4.046.148-.05.291-.1.428-.15a5.895 5.895 0 0 1 2.368-.434zm-3.85 7.393c-.181-.06-.408-.462-.628-.848A4.422 4.422 0 0 0 2.404 5.88l.531-3.141A11.375 11.375 0 0 0 5.294 3 8.619 8.619 0 0 0 6.9 2.862c.077 2.973 1.723 3.869 3.193 4.661 1.574.85 2.945 1.592 2.863 4.711a8.493 8.493 0 0 0-.749-.034 11.602 11.602 0 0 0-2.285.218 4.62 4.62 0 0 0-3.067-3.01zM1 12v-1h2V9h1v2h2v1H4v2H3v-2z"/><path fill="none" d="M0 0h16v16H0z"/></svg>