<svg xmlns="http://www.w3.org/2000/svg" viewBox="0 0 24 24"><path d="M19 24v-4.001h-4V19h4v-4h1v4h4v.999h-4V24zm3-22v7h-4V6h-2v1h-1V6h-2v1h-1V2h10zm-7 1h-2v2h2zm3 0h-2v2h2zm3 3h-2v2h2zm0-3h-2v2h2zm-4 5v7h-4v-3h-2v1h-1v-1H8v1H7V8h10zm-7 1H8v2h2zm3 0h-2v2h2zm3 3h-2v2h2zm0-3h-2v2h2zm-4 5v7H2v-7h10zm-6 1v2h2v-2zm-3 0v2h2v-2zm2 5v-2H3v2zm3 0v-2H6v2zm3 0v-2H9v2zm0-5H9v2h2z"/><path d="M16 6h2v1h-2zm-5 7h2v-1h-2zm-5 7h2v-2H6z" opacity=".5"/><path d="M13 3h2v2h-2zm6 2h2V3h-2zM8 11h2V9H8zm6 0h2V9h-2zM3 17h2v-2H3zm6 0h2v-2H9z" opacity=".25"/><path fill="none" d="M0 0h24v24H0z"/></svg>