<svg xmlns="http://www.w3.org/2000/svg" viewBox="0 0 24 24"><path d="M21 18.358a15 15 0 0 1 1.615.329L19.941 2.815a11.9 11.9 0 0 0-3.63-.615 7.8 7.8 0 0 0-3.49.725 9.8 9.8 0 0 1-4.25.875 16.2 16.2 0 0 1-3.723-.457L2.124 19.15a13.7 13.7 0 0 0 4.3.65c.625 0 1.193-.024 1.72-.066a2 2 0 0 0 .749.93 22 22 0 0 1-2.47.136A13.1 13.1 0 0 1 1 19.783L4.05 2.078a15 15 0 0 0 4.52.722c3.849 0 3.893-1.6 7.74-1.6a12.7 12.7 0 0 1 4.52.878l3.051 18.105a11.2 11.2 0 0 0-2.918-.818 2 2 0 0 0 .037-.366zM15 14h-1v4h-4v.999h4V23h1v-4.001h4V18h-4z"/><path fill="none" d="M0 0h24v24H0z"/></svg>