<svg xmlns="http://www.w3.org/2000/svg" viewBox="0 0 32 32"><path d="m24.384 6.455-.368-.048a23 23 0 0 0-2.942-.196 14.8 14.8 0 0 0-4.739.733 19.4 19.4 0 0 1-5.995.924 18 18 0 0 1-2.44-.161l-.48-.063L5.37 20h1.012l.837-5.041c3.555-.22 4.677 1.727 5.574 3.31.474.836.884 1.56 1.59 1.798 1.912.648 3.468 2.24 3.7 3.69-1.25.275-2.317.614-3.314.937a26 26 0 0 1-2.769.778v1.018a25 25 0 0 0 3.08-.845 24.3 24.3 0 0 1 8.383-1.446 41 41 0 0 1 3.259.132l.637.052zm-5.32 17.11a6.48 6.48 0 0 0-4.36-4.444c-.346-.117-.668-.685-1.04-1.344-.91-1.606-2.272-3.988-6.277-3.828l.862-5.192a20 20 0 0 0 2.09.111 19.2 19.2 0 0 0 4.752-.552c-.267 5.126 1.976 6.237 4.155 7.302 2.191 1.07 4.45 2.19 4.834 7.603-.205-.004-.413-.02-.617-.02a25 25 0 0 0-4.398.364zm6.02-.311c-.402-6.076-3.05-7.386-5.398-8.534-2.188-1.069-3.922-1.93-3.578-6.671l.514-.147a14 14 0 0 1 4.452-.691 22 22 0 0 1 2.445.143l2.645 15.935c-.36-.023-.72-.021-1.08-.035M27 3.9a26.4 26.4 0 0 0-5.926-.689c-5.144 0-5.927 1.657-10.735 1.657A15 15 0 0 1 5 3.9L1 28a16.3 16.3 0 0 0 7.538 1.8c6.876 0 8.048-2.6 14.924-2.6A33.2 33.2 0 0 1 31 28zM15.693 27.548A20.4 20.4 0 0 1 8.538 28.8a16 16 0 0 1-6.43-1.366L5.794 5.217a15.6 15.6 0 0 0 4.544.651 17.4 17.4 0 0 0 5.445-.847 16.6 16.6 0 0 1 5.29-.81 26 26 0 0 1 5.05.518l3.651 21.999a37.3 37.3 0 0 0-6.313-.528 22.4 22.4 0 0 0-7.77 1.348zM10 27.001H9V23H5v-.999h4v-4h1v4h4V23h-4z"/><path fill="none" d="M0 0h32v32H0z"/></svg>