<svg xmlns="http://www.w3.org/2000/svg" viewBox="0 0 32 32"><path d="M19 8h3v2h-3zm-6 10h3v-2h-3zm-5 9h3v-3H8z" opacity=".5"/><path d="M15 4h3v3h-3zm8 3h3V4h-3zM9 15h3v-3H9zm8 0h3v-3h-3zM4 23h3v-3H4zm8-3h3v3h-3z" opacity=".25"/><path d="M15 3h-1v7h1V8h3v2h1V8h3v4h5V3zm3 4h-3V4h3zm4 0h-3V4h3zm4 4h-3V8h3zm0-4h-3V4h3zM9 11H8v7h1v-2h3v2h1v-2h3v2h1v-2h3v3h-3v1h4v-9zm3 4H9v-3h3zm4 0h-3v-3h3zm4 0h-3v-3h3zM4 19H3v9h13v-9zm7 1v3H8v-3zm-4 0v3H4v-3zm-3 7v-3h3v3zm4 0v-3h3v3zm4 0v-3h3v3zm3-4h-3v-3h3zm9 7v-5.001h-5V24h5v-5h1v5h5v.999h-5V30z"/><path fill="none" d="M0 0h32v32H0z"/></svg>