<svg xmlns="http://www.w3.org/2000/svg" viewBox="0 0 32 32"><path d="M28 25.47c.689.082 1.289.173 1.775.258l-3.651-22a26 26 0 0 0-5.05-.517 16.6 16.6 0 0 0-5.29.81 17.4 17.4 0 0 1-5.445.847 15.6 15.6 0 0 1-4.544-.65L2.107 26.433a16 16 0 0 0 6.43 1.366 19.2 19.2 0 0 0 4.893-.576 2 2 0 0 0 1.134.724 20 20 0 0 1-6.026.852A16.3 16.3 0 0 1 1 27L5 2.9a15 15 0 0 0 5.34.968c4.807 0 5.59-1.657 10.734-1.657A26.4 26.4 0 0 1 27 2.9L31 27a26 26 0 0 0-3.062-.53A2 2 0 0 0 28 26zM21 20h-1v5h-5v1h5v5h1v-5h5v-1h-5z"/><path fill="none" d="M0 0h32v32H0z"/></svg>