<svg xmlns="http://www.w3.org/2000/svg" viewBox="0 0 16 16"><path d="M10 15v1H2v-1h5v-1.678c-.895.268-1.881.478-3.207.478-2.37 0-3.793-.71-3.793-.71L2.133.487S3.556 1 5.294 1C7.982 1 8.015.014 10.706.014c1.738 0 3.161.674 3.161.674l1.114 6.579A1.979 1.979 0 0 0 14 7h-.079l-.945-5.587c-.496-.17-1.337-.399-2.27-.399-1.17 0-1.725.201-2.367.434C7.623 1.707 6.813 2 5.294 2c-.908 0-1.736-.126-2.359-.26l-1.81 10.697c.573.169 1.49.363 2.668.363 1.336 0 2.292-.235 3.207-.525V13c0 .738.405 1.376 1 1.723V15h2zm3-3V9h-1v3H9v1h3v3h1v-3h3v-1h-3z"/><path fill="none" d="M0 0h16v16H0z"/></svg>