<svg xmlns="http://www.w3.org/2000/svg" viewBox="0 0 16 16"><path d="M4.441 12l-1.369 1.37A7.264 7.264 0 0 1 1.2 8.5a7.3 7.3 0 0 1 7.3-7.3c1.874 0 3.577.712 4.87 1.872l-1.83 1.83a3.307 3.307 0 0 0-2.425-1.747C9.478 2.605 9.047 2 8.5 2c-.559 0-.98.622-.608 1.165C6.139 3.45 5 4.928 5 6.735V9.57c0 .895-1.065 1.62-2 1.62V12h1.441zM6 6.735V9.57c0 .482-.16.914-.414 1.285l5.205-5.204C10.429 4.7 9.594 4.09 8.5 4.09 7.028 4.09 6 5.178 6 6.735zM15.8 8.5a7.3 7.3 0 0 1-7.3 7.3 7.264 7.264 0 0 1-4.848-1.853L13.947 3.652A7.264 7.264 0 0 1 15.8 8.5zM10 13H7v.034c0 .533.672.966 1.5.966s1.5-.433 1.5-.966V13zm4-1v-.81c-.935 0-2-.725-2-1.62V7.132l-1 1V9.57c0 .544.196 1.03.512 1.43h-3.38l-1 1H14z"/><path fill="none" d="M0 0h16v16H0z"/></svg>