<svg xmlns="http://www.w3.org/2000/svg" viewBox="0 0 32 32"><path d="M16 9c-.551 0-1-.449-1-1s.449-1 1-1 1 .449 1 1-.449 1-1 1M9.293 23H7v-1a3 3 0 0 0 3-3v-4.087a5.91 5.91 0 0 1 4.463-5.726A1.93 1.93 0 0 1 14.05 8a1.95 1.95 0 1 1 3.9 0c0 .449-.158.857-.412 1.186a5.9 5.9 0 0 1 3.314 2.254l4.682-4.681A13.24 13.24 0 0 0 16.5 3.2C9.154 3.2 3.2 9.154 3.2 16.5c0 3.493 1.357 6.661 3.559 9.034zM11 14.913V19a4 4 0 0 1-1.357 3h.65l9.831-9.831c-.882-1.3-2.35-2.169-4.037-2.169h-.174A4.92 4.92 0 0 0 11 14.913M29.8 16.5c0 7.346-5.954 13.3-13.3 13.3a13.24 13.24 0 0 1-9.034-3.559L26.24 7.466A13.24 13.24 0 0 1 29.8 16.5M18 24h-1c0 .551-.449 1-1 1s-1-.449-1-1h-1a2 2 0 0 0 4 0m7-2a3 3 0 0 1-3-3v-4.087c0-.34-.035-.67-.09-.995l-.918.918c0 .026.008.05.008.077V19a4 4 0 0 0 1.357 3h-8.529l-1 1H25z"/><path fill="none" d="M0 0h32v32H0z"/></svg>