<svg xmlns="http://www.w3.org/2000/svg" viewBox="0 0 32 32"><path d="M12 6v1h2V6zM9 6v1h2V6zM6 6v1h2V6zm6 12v1h2v-1zm-3 0v1h2v-1zm-3 0v1h2v-1zm6-12v1h2V6zM9 7h2V6H9zM6 7h2V6H6zm6 5v1h2v-1zm-3 1h2v-1H9zm-3 0h2v-1H6zm6 5v1h2v-1zm-3 1h2v-1H9zm-3 0h2v-1H6zm23 3V3H3v19h17v4h-2v1H6v1h12v1h5v-1h3v-1h-3v-1h-2v-4zM4 4h24v5H4zm0 6h24v5H4zm18 17v1h-3v-1zM4 21v-5h24v5zm8-2h2v-1h-2zm0-6h2v-1h-2zm0-6h2V6h-2zM9 19h2v-1H9zm0-6h2v-1H9zm0-6h2V6H9zM6 19h2v-1H6zm0-6h2v-1H6zm0-6h2V6H6zm6 5v1h2v-1zm-3 0v1h2v-1zm-3 0v1h2v-1z"/><path fill="none" d="M0 0h32v32H0z"/></svg>