<svg xmlns="http://www.w3.org/2000/svg" viewBox="0 0 32 32"><path d="M24 19H9L3 29h27l-6-10zM9.566 20h13.387l-4.317 2.349-6.848 1.712a.505.505 0 0 0-.102.037l-6.54 3.27L9.565 20zm2.518 5.017l6.855-1.714a.51.51 0 0 0 .119-.045l4.773-2.596L28.234 28H6.118l5.966-2.983zM8 13.5c0-.588-.16-1.135-.417-1.622l5.386-3.973A3.482 3.482 0 0 0 15.5 9a3.48 3.48 0 0 0 2.716-1.32l4.048 2.496A3.475 3.475 0 0 0 22 11.5c0 1.93 1.57 3.5 3.5 3.5s3.5-1.57 3.5-3.5S27.43 8 25.5 8a3.48 3.48 0 0 0-2.716 1.32l-4.048-2.496C18.904 6.415 19 5.97 19 5.5 19 3.57 17.43 2 15.5 2S12 3.57 12 5.5c0 .573.152 1.106.397 1.584l-5.393 3.979A3.485 3.485 0 0 0 4.5 10C2.57 10 1 11.57 1 13.5S2.57 17 4.5 17 8 15.43 8 13.5zM25.5 9c1.379 0 2.5 1.122 2.5 2.5S26.879 14 25.5 14 23 12.878 23 11.5 24.121 9 25.5 9zm-10-6C16.879 3 18 4.122 18 5.5S16.879 8 15.5 8 13 6.878 13 5.5 14.121 3 15.5 3zM2 13.5C2 12.122 3.121 11 4.5 11S7 12.122 7 13.5 5.879 16 4.5 16 2 14.878 2 13.5z"/><path fill="none" d="M0 0h32v32H0z"/></svg>