<svg xmlns="http://www.w3.org/2000/svg" viewBox="0 0 16 16"><path d="M5 6.5a2.48 2.48 0 0 0-.182-.926l1.921-1.302a2.486 2.486 0 0 0 3.584-.074l.823.492A2.47 2.47 0 0 0 11 5.5C11 6.878 12.121 8 13.5 8S16 6.878 16 5.5 14.879 3 13.5 3c-.734 0-1.388.323-1.846.829l-.81-.486c.095-.264.156-.546.156-.843C11 1.122 9.879 0 8.5 0S6 1.122 6 2.5c0 .332.068.649.186.94L4.271 4.736A2.492 2.492 0 0 0 2.5 4C1.121 4 0 5.122 0 6.5S1.121 9 2.5 9 5 7.878 5 6.5zM13.5 4c.827 0 1.5.673 1.5 1.5S14.327 7 13.5 7 12 6.327 12 5.5 12.673 4 13.5 4zm-5-3c.827 0 1.5.673 1.5 1.5S9.327 4 8.5 4 7 3.327 7 2.5 7.673 1 8.5 1zM1 6.5C1 5.673 1.673 5 2.5 5S4 5.673 4 6.5 3.327 8 2.5 8 1 7.327 1 6.5zM4 9l-3 7h15l-3-7H4zm.66 1h7.439l-2.304 1.536-3.916.98-2.919 1.449L4.66 10zm-1.542 5l3.057-1.528 3.946-.987 2.564-1.681L14.483 15H3.118z"/><path fill="none" d="M0 0h16v16H0z"/></svg>