<svg xmlns="http://www.w3.org/2000/svg" viewBox="0 0 24 24"><path d="M21.981 15.677V2.02H2.021v19.96h19.96v-6.264l.019-.024zm-.981-.08c-.171.03-.36.045-.45.059a2.3 2.3 0 0 1-.366.04c-.295 0-.69-.347-.952-.577a1.2 1.2 0 0 1-.197-.36c-.135-.313-.361-.839-.962-.839a1.46 1.46 0 0 0-.981.383.58.58 0 0 1-.41.185.7.7 0 0 1-.22-.08 1.4 1.4 0 0 0-.61-.165.987.987 0 0 0-1.079.869v.695c0 .09-.046.15-.216.32a1.35 1.35 0 0 0-.485.975 1.06 1.06 0 0 0 .33.675c.033.038.079.093.101.097a1.7 1.7 0 0 1-.41.147c-.41.113-1.096.302-1.096 1.054a1.12 1.12 0 0 0 .294.675l.08.107c-.044.114-.128.303-.217.505-.096.221-.194.45-.27.638h-2.477v-.024a2.1 2.1 0 0 1 .17-.755l.048-.14a2.7 2.7 0 0 0 .173-.922c0-.805-.81-.994-1.294-1.107l-.429-.1c-.16-.319-.081-.448.33-.859a1.78 1.78 0 0 0 .68-1.25 1.11 1.11 0 0 0-.88-1.172 1.5 1.5 0 0 0-.79.127.9.9 0 0 1-.36.084.26.26 0 0 1-.144-.036.9.9 0 0 1 .158-.44 1.76 1.76 0 0 0 .27-.88 2 2 0 0 0-.086-.563 1.2 1.2 0 0 1-.056-.329.4.4 0 0 1 .356-.428c.145 0 .228.109.452.509a1.33 1.33 0 0 0 1.26.666c.956 0 1.567-1.076 1.567-1.816 0-.105.074-.215.144-.215.078 0 .146.045.292.156a1.36 1.36 0 0 0 .85.342 1.41 1.41 0 0 0 1.234-.921 1.4 1.4 0 0 1 .446-.56 2.01 2.01 0 0 0 .748-2.418c.046-.075.15-.184.141-.2a1.09 1.09 0 0 0 .943-.297 1.22 1.22 0 0 0 .156-1.09 1 1 0 0 1-.027-.264.9.9 0 0 1 .26-.278 1.34 1.34 0 0 0 .59-1.029 1.4 1.4 0 0 0-.22-.706.54.54 0 0 1-.103-.255c0-.051.101-.373.921-.818L18.231 3H21zM3 3h13.709a1.28 1.28 0 0 0-.347.83 1.4 1.4 0 0 0 .221.71.54.54 0 0 1 .102.251c0 .085-.064.153-.266.326a1.6 1.6 0 0 0-.536.687 1.1 1.1 0 0 0-.054.343 2 2 0 0 0 .05.388c.018.098.054.28.09.28a.5.5 0 0 1-.218.011 1.15 1.15 0 0 0-.84.438.97.97 0 0 0-.27.868c.151.742.151 1.188-.282 1.421a2.14 2.14 0 0 0-.812.92c-.214.38-.283.451-.429.451-.079 0-.146-.045-.293-.156a1.35 1.35 0 0 0-.849-.342 1.106 1.106 0 0 0-1.068 1.139c0 .298-.278.892-.644.892-.346 0-.414-.124-.465-.216a1.45 1.45 0 0 0-1.246-.96 1.32 1.32 0 0 0-1.28 1.353 2 2 0 0 0 .086.563 1.2 1.2 0 0 1 .056.328.9.9 0 0 1-.158.44 1.75 1.75 0 0 0-.27.881 1.02 1.02 0 0 0 1.068.96 1.8 1.8 0 0 0 .695-.146.8.8 0 0 1 .323-.084h.007a.5.5 0 0 1 .08.267c0 .176-.154.343-.407.596a1.52 1.52 0 0 0-.505 1.928 1.41 1.41 0 0 0 1.045.585c.184.042.525.121.58.207a1.8 1.8 0 0 1-.121.621l-.046.13a3 3 0 0 0-.223 1.066V21H3zm10.885 18 .117-.268c.274-.63.31-.716.31-.89a1.1 1.1 0 0 0-.288-.655c-.038-.05-.087-.13-.108-.117a1.4 1.4 0 0 1 .422-.158c.384-.106 1.098-.302 1.098-1.057a1.07 1.07 0 0 0-.332-.68c-.044-.05-.107-.121-.108-.073 0-.092.046-.152.217-.323a1.34 1.34 0 0 0 .484-.972v-.609a.46.46 0 0 1 .377.049 1.4 1.4 0 0 0 .608.165 1.47 1.47 0 0 0 .982-.382.7.7 0 0 1 .369-.202 1.3 1.3 0 0 1 .153.296 1.8 1.8 0 0 0 .437.689 2.56 2.56 0 0 0 1.561.808 3.4 3.4 0 0 0 .51-.052 3 3 0 0 1 .306-.034V21zM10.5 5.5a1 1 0 1 1 1 1 1 1 0 0 1-1-1m-4 4a1 1 0 1 1 1-1 1 1 0 0 1-1 1m12 9a1 1 0 1 1-1-1 1 1 0 0 1 1 1"/><path fill="none" d="M0 0h24v24H0z"/></svg>