<svg xmlns="http://www.w3.org/2000/svg" viewBox="0 0 32 32"><path d="M3 3v26h26V3zm19.559 1c-1.098.577-2.226 1.098-2.226 2.12 0 .471.653 1.047.777 1.268a1 1 0 0 1 .09.177 3 3 0 0 0-.23.187c-.252.214-.805.507-.966.985a1.6 1.6 0 0 0-.085.52 3 3 0 0 0 .067.54l.006.03a1.9 1.9 0 0 0-1.2.696 1.42 1.42 0 0 0-.373 1.175l.02.102c.19.923.14 1.28-.206 1.465a3.3 3.3 0 0 0-1.13 1.437 2 2 0 0 1-.279.423c-.03-.016-.13-.093-.196-.143a2.03 2.03 0 0 0-1.236-.661 1.67 1.67 0 0 0-1.625 1.713c0 .3-.298.828-.515.828-.263 0-.295-.058-.312-.09a2.11 2.11 0 0 0-1.828-1.381 1.94 1.94 0 0 0-1.891 1.982 3 3 0 0 0 .116.775 1.3 1.3 0 0 1 .061.339.9.9 0 0 1-.161.41 2.5 2.5 0 0 0-.373 1.24 1.563 1.563 0 0 0 1.625 1.49 2.5 2.5 0 0 0 .974-.204l.12-.045v.006c0 .116-.236.35-.425.54-.48.48-1.548 1.284-.86 2.658a2.45 2.45 0 0 0 1.672.968 5 5 0 0 1 .496.135 2.3 2.3 0 0 1-.128.527l-.058.163a4 4 0 0 0-.295 1.428l-.012.063-.015.134H4V4zM18.28 28a6 6 0 0 0 .33-1.434v-.606l-.384-.175a1 1 0 0 0 .007-.127c.026-.019.217-.127.343-.198a1.96 1.96 0 0 0 1.226-1.707 1.35 1.35 0 0 0-.268-.794c.04-.045.096-.101.138-.143a1.97 1.97 0 0 0 .697-1.432v-.566a1 1 0 0 1 .131.045 2.3 2.3 0 0 0 .838.186 1.94 1.94 0 0 0 1.592-1.02l.104-.147a2.6 2.6 0 0 0 .582.805 2.37 2.37 0 0 0 1.674.545l1.6-.007a2.6 2.6 0 0 0 .903-.248l.207-.08V28zM28 19.898a1 1 0 0 0-.352.063l-.218.084a3 3 0 0 1-.54.18l-1.6.007a1.4 1.4 0 0 1-1.014-.296 1.7 1.7 0 0 1-.355-.515 1 1 0 0 0-.818-.53l-.07-.003a1.01 1.01 0 0 0-.816.419l-.106.148c-.289.41-.468.594-.773.594a1.3 1.3 0 0 1-.47-.116 2 2 0 0 0-.237-.08 1 1 0 0 0-1.262.965v.566a1.02 1.02 0 0 1-.413.733c-.05.051-.116.118-.165.172a1 1 0 0 0-.071 1.252.35.35 0 0 1 .082.212c0 .368-.23.562-.718.836a12 12 0 0 0-.427.25 1.02 1.02 0 0 0-.425.83 1 1 0 0 0 .378.905 8 8 0 0 1-.286 1.134 1 1 0 0 0-.018.292h-4.34a1 1 0 0 0 .02-.197 3.1 3.1 0 0 1 .237-1.095l.06-.168a3.2 3.2 0 0 0 .179-.756 1 1 0 0 0-.653-1.039 6 6 0 0 0-.612-.168c-.844-.198-.985-.404-1.005-.443-.254-.506-.112-.753.506-1.341l.18-.174a1.8 1.8 0 0 0 .705-1.241 1 1 0 0 0-1.325-.946l-.16.06a1.5 1.5 0 0 1-.61.134.577.577 0 0 1-.624-.49 1.53 1.53 0 0 1 .248-.758 1.75 1.75 0 0 0 .286-.892 2.3 2.3 0 0 0-.094-.597 2 2 0 0 1-.083-.516.94.94 0 0 1 .891-.982c.398 0 .596.227.943.845a1.23 1.23 0 0 0 1.197.625c.911 0 1.516-1.1 1.516-1.827a.674.674 0 0 1 .625-.713c.098 0 .277.157.407.27.083.073.158.138.253.21a4 4 0 0 0 .29.2 1 1 0 0 0 1.037-.045 2 2 0 0 0 .594-.764l.116-.214a2.14 2.14 0 0 1 .618-.832c1.111-.6.85-1.866.712-2.542l-.02-.098a.52.52 0 0 1 .162-.344.92.92 0 0 1 .528-.34 1 1 0 0 0 .7-.41 1.03 1.03 0 0 0 .179-.802 2 2 0 0 1-.05-.352.6.6 0 0 1 .03-.193 2 2 0 0 1 .394-.34c.105-.077.2-.147.312-.243l.107-.089a1 1 0 0 0 .423-.997 1.5 1.5 0 0 0-.204-.499 3 3 0 0 0-.319-.424 4 4 0 0 1-.321-.415c.087-.34.854-.74 1.478-1.066l.204-.107A.99.99 0 0 0 23.547 4H28zM13.5 7.5a1 1 0 1 1 1 1 1 1 0 0 1-1-1m-5 5a1 1 0 1 1 1-1 1 1 0 0 1-1 1m16 11a1 1 0 1 1-1-1 1 1 0 0 1 1 1"/><path fill="none" d="M0 0h32v32H0z"/></svg>