<svg xmlns="http://www.w3.org/2000/svg" viewBox="0 0 16 16"><path d="M1 1v14h14V1zm4.267 13H2V2h9.867a2.05 2.05 0 0 0-.72 1.44 1.5 1.5 0 0 0 .11.567 1.6 1.6 0 0 0-.421.644 1.4 1.4 0 0 0-.074.44 1.7 1.7 0 0 0-.536.432 1.32 1.32 0 0 0-.32 1.09 3 3 0 0 1 .066.414 2 2 0 0 0-.649.669 1.5 1.5 0 0 0-.674-.165 1.45 1.45 0 0 0-1.384 1.087 1.44 1.44 0 0 0-1.085-.47 1.62 1.62 0 0 0-1.591 1.643 2.2 2.2 0 0 0 .083.574c.022.007.004.036-.013.067a1.9 1.9 0 0 0-.276.955 1.37 1.37 0 0 0 .985 1.29A1.55 1.55 0 0 0 5.267 14M14 14h-3.918c-.005-.037-.113-.274-.122-.309a1.5 1.5 0 0 0 .718-1.267 1.2 1.2 0 0 0-.053-.358 1.6 1.6 0 0 0 .326-.607q.046.003.093.003a1.4 1.4 0 0 0 .836-.266 2 2 0 0 0 .126.124 2.38 2.38 0 0 0 1.564.68H14zm0-3h-.43a1.46 1.46 0 0 1-.906-.433c-.264-.23-.258-.782-.617-.782-.482 0-.52.677-1.003.677-.219 0-.38-.177-.599-.177-.193 0-.445.102-.445.293v.502c0 .424-.506.508-.506.934 0 .171.184.236.184.41 0 .58-.893.502-.893 1.08 0 .191.215.305.215.486V14H6.693c-.2-.049-.376-.104-.435-.223-.407-.812.693-1.021.693-1.672 0-.16-.082-.488-.334-.513-.351-.035-.443.154-.797.154a.406.406 0 0 1-.437-.36c0-.386.308-.566.308-.952 0-.25-.102-.393-.102-.643a.62.62 0 0 1 .59-.643c.323 0 .464.264.618.54a.64.64 0 0 0 .617.308c.49 0 .798-.61.798-.977a.47.47 0 0 1 .437-.488c.347 0 .476.36.824.36.57 0 .55-.756 1.053-1.03.618-.332.438-1.052.36-1.44-.032-.169.29-.5.464-.487.72.05.412-.54.412-.823a.4.4 0 0 1 .022-.142c.111-.332.595-.438.595-.836 0-.281-.233-.41-.233-.693 0-.416.621-.967 1.284-1.44H14zM7.5 4.5a1 1 0 1 1 1 1 1 1 0 0 1-1-1m-3 3a1 1 0 1 1 1-1 1 1 0 0 1-1 1"/><path fill="none" d="M0 0h16v16H0z"/></svg>