<svg xmlns="http://www.w3.org/2000/svg" viewBox="0 0 16 16"><path d="M9.5 2.5a1 1 0 1 1-1-1 1 1 0 0 1 1 1m-5.72 7.67.17-.17H1V8.089l1.67-1.782a1.3 1.3 0 0 0 .23.022 1.28 1.28 0 0 0 .93-.405l1.533-1.636 1.501 1.334a1.21 1.21 0 0 0 1.204.26L9.67 4.28l-.198-.19a.27.27 0 0 0-.37-.029l-1.224.824a.27.27 0 0 1-.35-.01L5.498 3.07a.27.27 0 0 0-.382.018L3.1 5.24a.27.27 0 0 1-.4 0 .27.27 0 0 0-.4 0L1 6.627V1h11v.98a2.4 2.4 0 0 1 1-.509V0H0v11h3.308l.154-.36a1.5 1.5 0 0 1 .319-.47zm11.912-5.548a.965.965 0 0 1 .03 1.385L14.277 7.45h-.002L7.67 14.057l-4.096 1.756a.371.371 0 0 1-.488-.487l1.756-4.097 8.052-8.052a.965.965 0 0 1 1.385.03zm-9.774 9.1-.74-.74-.554 1.294zm7.052-6.378-1.414-1.415-6.007 6.008 1.413 1.415zm1.888-2.015a.3.3 0 0 0-.09-.216l-.98-.981a.306.306 0 0 0-.434 0l-1.09 1.09 1.414 1.414 1.09-1.09a.3.3 0 0 0 .09-.217"/><path fill="none" d="M0 0h16v16H0z"/></svg>