<svg xmlns="http://www.w3.org/2000/svg" viewBox="0 0 24 24"><path stroke-width="0" fill="none" d="M0 0h24v24H0z"/><path d="M17 6H2V3h15v3z" opacity=".25" stroke-width="0"/><path d="M18.291 2H1v18h6v-1H2V3h15v6h6v10h-6v1h7V7.71L18.291 2zM23 8h-5V3h.2L23 7.8V8zm-9.644 8.16A2.48 2.48 0 0 0 14 14.5a2.5 2.5 0 0 0-2.5-2.5H9v9h3.5c1.38 0 2.3-1.12 2.3-2.5 0-1.078-.487-1.989-1.444-2.34zM10 13h1.5c.827 0 1.5.673 1.5 1.5s-.673 1.5-1.5 1.5H10v-3zm2.5 7H10v-3h2.5c.827 0 1.5.673 1.5 1.5s-.673 1.5-1.5 1.5z" stroke-width="0"/></svg>