<svg xmlns="http://www.w3.org/2000/svg" viewBox="0 0 24 24"><path stroke-width="0" fill="none" d="M0 0h24v24H0z"/><path d="M15 5H5V2h10v3z" opacity=".25" stroke-width="0"/><path d="M16.29 1H4v7h1V2h10v6h6v15H5v-2H4v3h18V6.709L16.29 1zM21 7h-5V2h.2L21 6.8V7zM7.356 14.16A2.48 2.48 0 0 0 8 12.5 2.5 2.5 0 0 0 5.5 10H3v9h3.5c1.38 0 2.3-1.12 2.3-2.5 0-1.078-.487-1.989-1.444-2.34zM4 11h1.5c.827 0 1.5.673 1.5 1.5S6.327 14 5.5 14H4v-3zm2.5 7H4v-3h2.5c.827 0 1.5.673 1.5 1.5S7.327 18 6.5 18z" stroke-width="0"/></svg>