<svg xmlns="http://www.w3.org/2000/svg" viewBox="0 0 16 16"><path d="M3.5 2A1.5 1.5 0 1 1 2 .5 1.5 1.5 0 0 1 3.5 2M8 .5A1.5 1.5 0 1 0 9.5 2 1.5 1.5 0 0 0 8 .5m6 3A1.5 1.5 0 1 0 12.5 2 1.5 1.5 0 0 0 14 3.5m-12 3A1.5 1.5 0 1 0 3.5 8 1.5 1.5 0 0 0 2 6.5m6 0A1.5 1.5 0 1 0 9.5 8 1.5 1.5 0 0 0 8 6.5m6 0A1.5 1.5 0 1 0 15.5 8 1.5 1.5 0 0 0 14 6.5m-12 6A1.5 1.5 0 1 0 3.5 14 1.5 1.5 0 0 0 2 12.5m6 0A1.5 1.5 0 1 0 9.5 14 1.5 1.5 0 0 0 8 12.5m6 0a1.5 1.5 0 1 0 1.5 1.5 1.5 1.5 0 0 0-1.5-1.5"/><path fill="none" d="M0 0h16v16H0z"/></svg>