<svg xmlns="http://www.w3.org/2000/svg" viewBox="0 0 24 24"><path d="M10 17.745v1.092l-.323.142a1.7 1.7 0 0 1-1.352 0L1 15.774v-9.94a2.46 2.46 0 0 1 1.472-2.251l5.85-2.562a1.7 1.7 0 0 1 1.353 0L17 4.226V11h-1V4.88L9.276 1.939a.7.7 0 0 0-.554 0L2.873 4.5A1.46 1.46 0 0 0 2 5.834v9.285l6.724 2.944a.7.7 0 0 0 .554-.001zM19 18a2 2 0 1 1-2-2 2 2 0 0 1 2 2m-1 0a1 1 0 1 0-1 1 1 1 0 0 0 1-1m3.34-1.484 1.66.636v1.65l-1.586.59-.296.628.724 1.624-1.162 1.17-1.543-.71-.653.236-.636 1.66h-1.65l-.59-1.586-.628-.295-1.627.727-1.167-1.166.71-1.543-.236-.653-1.66-.636v-1.65l1.586-.59.295-.628-.727-1.627 1.166-1.167 1.543.71.653-.236.636-1.66h1.65l.59 1.586.628.296 1.624-.724 1.166 1.167-.705 1.538zm.66 1.169-1.427-.548-.434-1.204.585-1.28-.412-.412-1.397.622-1.158-.544-.49-1.319h-.582l-.548 1.427-1.206.434-1.283-.59-.41.411.626 1.4-.545 1.161-1.319.49v.582l1.427.548.434 1.206-.59 1.283.411.41 1.4-.626 1.161.545.49 1.319h.582l.548-1.427 1.206-.434 1.28.588.411-.413-.623-1.399.544-1.158 1.319-.49z"/><path fill="none" d="M0 0h24v24H0z"/></svg>