<svg xmlns="http://www.w3.org/2000/svg" viewBox="0 0 16 16"><path d="M8 10.879v1.091l-1.982.868a1.3 1.3 0 0 1-1.036 0L0 10.658V3.522A1.8 1.8 0 0 1 1.08 1.87L4.983.162a1.3 1.3 0 0 1 1.036 0L11 2.342V7h-1V2.997L5.617 1.078a.28.28 0 0 0-.234 0L1.48 2.785a.8.8 0 0 0-.48.737v6.481l4.383 1.919a.3.3 0 0 0 .234 0zm6 2.35a2.267 2.267 0 0 1-3.07-.058L12.1 12H9v3.1l1.223-1.223c.046.045.1.081.148.123a3.27 3.27 0 0 0 5.378-2h-1.008A2.3 2.3 0 0 1 14 13.229m.777-4.106A3.3 3.3 0 0 0 14 8.578a3.26 3.26 0 0 0-1.5-.377A3.296 3.296 0 0 0 9.25 11h1.009A2.283 2.283 0 0 1 14 9.771l.07.058L12.9 11H16V7.9z"/><path fill="none" d="M0 0h16v16H0z"/></svg>