<svg xmlns="http://www.w3.org/2000/svg" viewBox="0 0 16 16"><path d="M11 2.342V6h-1V2.996L5.617 1.078a.28.28 0 0 0-.234 0L1.48 2.785a.8.8 0 0 0-.48.737v6.482l4.383 1.918a.3.3 0 0 0 .234 0L6 11.754v1.088a1.27 1.27 0 0 1-1.018-.004L0 10.658V3.522A1.81 1.81 0 0 1 1.08 1.87L4.983.162a1.3 1.3 0 0 1 1.036 0zm1.896 6.128 1.343-.593.868.86-.602 1.309q.07.144.126.296l1.37.53v1.256l-1.37.53q-.056.152-.126.296l.602 1.308-.868.86-1.343-.592q-.145.067-.298.12l-.5 1.35h-1.222l-.53-1.373q-.151-.056-.296-.126l-1.308.601-.86-.867.592-1.343q-.067-.146-.12-.299l-1.35-.499v-1.188l1.35-.5q.053-.152.12-.298l-.592-1.343.86-.867 1.308.601q.144-.07.296-.126L10.876 7h1.222l.5 1.35q.152.053.298.12m-.006.822-.307-.14a3 3 0 0 0-.23-.093l-.335-.117-.442-1.192h-.185l-.468 1.209-.318.118a2 2 0 0 0-.224.096l-.32.156-1.156-.531-.13.133.523 1.185-.144.309a3 3 0 0 0-.093.232l-.119.331-1.188.44v.144l1.188.44.119.33q.041.12.093.233l.144.309-.524 1.185.131.133 1.156-.531.32.156a2 2 0 0 0 .224.096l.318.118.468 1.209h.185l.442-1.192.335-.117q.12-.042.236-.094l.305-.138 1.18.521.132-.13-.53-1.155.154-.318a2 2 0 0 0 .097-.227l.116-.318 1.207-.468v-.228l-1.207-.468-.116-.318a2 2 0 0 0-.097-.227l-.154-.318.53-1.155-.132-.13zM13 11.5a1.5 1.5 0 1 1-1.5-1.5 1.5 1.5 0 0 1 1.5 1.5m-1-.5h-1v1h1z"/><path fill="none" d="M0 0h16v16H0z"/></svg>