<svg xmlns="http://www.w3.org/2000/svg" viewBox="0 0 32 32"><path d="M17.5 16a1.5 1.5 0 1 1-1.5-1.5 1.5 1.5 0 0 1 1.5 1.5M6 17.5A1.5 1.5 0 1 0 4.5 16 1.5 1.5 0 0 0 6 17.5M7.5 26A1.5 1.5 0 1 0 6 27.5 1.5 1.5 0 0 0 7.5 26m8.5-1.5a1.5 1.5 0 1 0 1.5 1.5 1.5 1.5 0 0 0-1.5-1.5m10 0a1.5 1.5 0 1 0 1.5 1.5 1.5 1.5 0 0 0-1.5-1.5m0-10a1.5 1.5 0 1 0 1.5 1.5 1.5 1.5 0 0 0-1.5-1.5m0-10A1.5 1.5 0 1 0 27.5 6 1.5 1.5 0 0 0 26 4.5m-20 3A1.5 1.5 0 1 0 4.5 6 1.5 1.5 0 0 0 6 7.5m10-3A1.5 1.5 0 1 0 17.5 6 1.5 1.5 0 0 0 16 4.5"/><path fill="none" d="M0 0h32v32H0z"/></svg>