<svg xmlns="http://www.w3.org/2000/svg" viewBox="0 0 24 24"><path d="M9.5 11.1c-.759 0-1.428.36-1.868.911l-2.27-2.016c.231-.287.404-.622.484-.995h4.308a2.4 2.4 0 0 0 2.346 1.9c1.324 0 2.4-1.076 2.4-2.4s-1.076-2.4-2.4-2.4A2.4 2.4 0 0 0 10.154 8H5.846a2.4 2.4 0 0 0-.484-.995l2.27-2.016c.44.55 1.11.911 1.868.911 1.324 0 2.4-1.076 2.4-2.4s-1.076-2.4-2.4-2.4-2.4 1.076-2.4 2.4c0 .29.06.565.154.822L4.81 6.493A2.4 2.4 0 0 0 3.5 6.1c-1.324 0-2.4 1.076-2.4 2.4s1.076 2.4 2.4 2.4c.483 0 .932-.146 1.31-.393l2.444 2.17a2.4 2.4 0 0 0-.154.823c0 1.324 1.076 2.4 2.4 2.4s2.4-1.076 2.4-2.4-1.076-2.4-2.4-2.4M11 8a1 1 0 0 1 1-1h1a1 1 0 0 1 1 1v1a1 1 0 0 1-1 1h-1a1 1 0 0 1-1-1zM8 3a1 1 0 0 1 1-1h1a1 1 0 0 1 1 1v1a1 1 0 0 1-1 1H9a1 1 0 0 1-1-1zm-5 7a1 1 0 0 1-1-1V8a1 1 0 0 1 1-1h1a1 1 0 0 1 1 1v1a1 1 0 0 1-1 1zm8 4a1 1 0 0 1-1 1H9a1 1 0 0 1-1-1v-1a1 1 0 0 1 1-1h1a1 1 0 0 1 1 1zm-2.646 3.66 2.847 2.846-2.847 2.848-.708-.708L9.293 21H7c-1.654 0-3-1.346-3-3v-2h1v2c0 1.103.897 2 2 2h2.281l-1.635-1.634.708-.707zM24 6v1h-3v3h-1V7h-3V6h3V3h1v3zm-1.5 8c-.362 0-.69.134-.949.348l-2.581-1.55A1.499 1.499 0 1 0 16 12.5c0 .23.057.447.15.643l-2.007 2.007A1.5 1.5 0 0 0 13.5 15a1.497 1.497 0 0 0-.214 2.978l.448 2.24a1.495 1.495 0 1 0 2.088 1.976l4.208.601A1.5 1.5 0 0 0 21.5 24c1.543 0 2.092-2.085.694-2.822l.601-4.208A1.5 1.5 0 0 0 24 15.5c0-.827-.673-1.5-1.5-1.5m-3.906-.48v.011h-.01zm-.146.132 2.582 1.55q-.03.145-.03.298c0 .062.011.122.018.182l-1.48.74a1.5 1.5 0 0 0-.824-.4l-.448-2.24q.097-.058.182-.13M19 17v1h-1v-1zm-2-5h1v1h-1zm-.143 1.85q.201.095.429.128l.448 2.24a1.5 1.5 0 0 0-.517.516l-2.239-.448a1.5 1.5 0 0 0-.128-.429zM13 17v-1h1v1zm2 5h-1v-1h1zm.148-1.847a1.5 1.5 0 0 0-.434-.131l-.447-2.24c.212-.127.388-.304.515-.516l2.24.448q.035.237.138.446zm5.03 1.653-4.208-.601a1.5 1.5 0 0 0-.12-.348l2.007-2.007c.196.093.412.15.643.15q.165-.002.32-.036l1.533 2.582a1.5 1.5 0 0 0-.175.26m-.526-3.357c.214-.26.348-.587.348-.949 0-.062-.011-.122-.018-.182l1.48-.74q.153.146.344.244l-.6 4.208H21.2l-1.549-2.581zM22 23h-1v-1h1zm1-7h-1v-1h1z"/><path fill="none" d="M0 0h24v24H0z"/></svg>