<svg xmlns="http://www.w3.org/2000/svg" viewBox="0 0 32 32"><path d="M24.442 26.944a14 14 0 0 1-2.277 1.43 3 3 0 0 0 .249-1.569 2 2 0 0 0-.032-.167 2.5 2.5 0 0 1-1.032.712 1.43 1.43 0 0 1-.411.836 2.2 2.2 0 0 0-.632.958 13.78 13.78 0 0 1-14.053-3.358l.004-.03a3 3 0 0 0-.005-.334.56.56 0 0 1 .279-.525 3 3 0 0 1 .402-.246.74.74 0 0 0 .33-.402.7.7 0 0 0-.027-.508 2 2 0 0 0-.117-.169 6.4 6.4 0 0 0-1.642-1.294l-.94-.61a3 3 0 0 1-.45-.357.5.5 0 0 1-.09-.279 2 2 0 0 1 .037-.396 2.6 2.6 0 0 0-.086-1.2 9.6 9.6 0 0 0-.577-1.37l-.097-.202c-.18-.356-.359-.716-.507-1.1a3.4 3.4 0 0 0-.308-.614q-.08-.133-.157-.248l-.103-.154a13.77 13.77 0 0 1 3.825-9.283 10 10 0 0 1 1.207.054c.017.002.104.004.13.004a.93.93 0 0 0 .852-.689c.172-.46.264-.505.448-.505.034 0 .07.006.112.01a2.3 2.3 0 0 1 .437.113 3 3 0 0 0 .334.081l.13.014a.65.65 0 0 0 .499-.228 22 22 0 0 0 1.11-1.516 1.76 1.76 0 0 0 .303-.848c.001-.014-.004-.03-.004-.044a13.7 13.7 0 0 1 2.923-.656c-.059.047-.24.178-.24.178a3.5 3.5 0 0 0-.566.467 1.78 1.78 0 0 0-.648 1.15.65.65 0 0 0 .31.576.7.7 0 0 0 .324.086.66.66 0 0 0 .32-.083 5.6 5.6 0 0 1 1.476-.63 1.4 1.4 0 0 1 .25-.02l.207.006q.15.003.321.022l.226.014c.086.004.157.006.23.006a2 2 0 0 0 .302-.02.77.77 0 0 0 .459-.24 4 4 0 0 0 .18-.24l.187-.294a3 3 0 0 1 .415-.545 3 3 0 0 1 .273-.23l.056-.042a13.7 13.7 0 0 1 4.181 1.521 1 1 0 0 0-.265-.04 1.8 1.8 0 0 0-1.119.662 3 3 0 0 0-.152.26l-.285.63a2 2 0 0 1-.175.288 2 2 0 0 0-.126.198.79.79 0 0 0 .19.808 6 6 0 0 0 .863.727.62.62 0 0 0 .363.114.6.6 0 0 0 .308-.083.62.62 0 0 0 .323-.594l-.012-.146a8 8 0 0 1-.02-.452.5.5 0 0 1 .13-.293.13.13 0 0 1 .08-.027.12.12 0 0 1 .09.041.6.6 0 0 0 .166.176c.03.022.24.153.24.153a.7.7 0 0 1 .32.34 1.22 1.22 0 0 1-.092 1.002c-.167.295-.229.406-.785.406a1.3 1.3 0 0 1-.585-.138l-.1-.044a.6.6 0 0 0-.25-.051.7.7 0 0 0-.394.12 3 3 0 0 0-.297.244 4.4 4.4 0 0 0-.506.528 2.7 2.7 0 0 1-.906.654.64.64 0 0 0-.337.83l.06.134a1.8 1.8 0 0 1 .12.458c.007.172-.067.19-.117.2a1 1 0 0 1-.26.033 1 1 0 0 1-.125-.008 2.5 2.5 0 0 1-.363-.071l-.145-.038a.7.7 0 0 0-.775.359 2 2 0 0 0-.112.427 7 7 0 0 0-.047.929.66.66 0 0 0 .494.677l.25.067a2 2 0 0 0 .152.046 2 2 0 0 0 .254.06l.118.003a.86.86 0 0 0 .6-.251 1.2 1.2 0 0 0 .273-.327 2 2 0 0 0 .14-.289L20 12.56a.5.5 0 0 1 .058-.095.5.5 0 0 1 .179-.152 1.15 1.15 0 0 0 .451-.41l.115-.16a1.3 1.3 0 0 1 .161-.155 1.07 1.07 0 0 1 .575-.198.66.66 0 0 1 .345.095c.087.055.213.146.362.265a.67.67 0 0 0 .402.125.64.64 0 0 0 .297-.063.7.7 0 0 0 .378-.436l.03.02a3 3 0 0 1 .449.338c.156.141.317.31.448.454a.9.9 0 0 1 .208.354 1.2 1.2 0 0 0 .2.511.62.62 0 0 0 .572.26.68.68 0 0 0 .55-.351c.025-.044.062-.075.053-.087a.4.4 0 0 1 .086.071.7.7 0 0 1 .12.21.65.65 0 0 0 .615.398l.179-.002a2 2 0 0 1 .266.012c.266.036.442.139.5.293a1.7 1.7 0 0 1 .186.69.357.357 0 0 1-.273.403 5 5 0 0 1-1.01.307c-.283 0-1.397-.79-1.626.16a1.3 1.3 0 0 1-.087.246c-.018.03-.039.053-.113.053a4.5 4.5 0 0 1-1.833-.84.3.3 0 0 1-.094-.195c-.004-.032-.004-.072-.005-.097l.025-.173a.734.734 0 0 0-.581-.73 3.3 3.3 0 0 0-.641-.071l-.177-.006a10 10 0 0 0-1.024.059 1.66 1.66 0 0 0-.721.255l-.105.054-.173.055-.095.002a1.6 1.6 0 0 1-.237-.119l-.148-.089a.5.5 0 0 0-.093-.05 1.3 1.3 0 0 0-.301-.144.6.6 0 0 0-.194-.03.63.63 0 0 0-.438.179 1.6 1.6 0 0 0-.18.19l-.137.154a1.6 1.6 0 0 1-.271.226 1.95 1.95 0 0 0-.863.98.67.67 0 0 1-.234.356 1 1 0 0 1-.186.097l-.277.097a3.46 3.46 0 0 0-1.509 1.545 3.2 3.2 0 0 0-.27.673 2 2 0 0 0-.044.503 1.5 1.5 0 0 1-.406 1.04.63.63 0 0 0-.207.348 1.3 1.3 0 0 0-.016.348 1.5 1.5 0 0 0 .231.675 1.4 1.4 0 0 0 .228.256l.274.257a1.5 1.5 0 0 1 .417.6 2.5 2.5 0 0 0 .753 1.226 2.15 2.15 0 0 0 1.349.594 5 5 0 0 0 .56-.058l.194-.031c.194-.028.407-.06.627-.084.039-.005.086-.004.127-.01v-.856c-.077.008-.149.013-.23.024-.187.02-.392.05-.583.077l-.274.043a4 4 0 0 1-.415.046 1.34 1.34 0 0 1-.745-.376 1.6 1.6 0 0 1-.46-.777 2.4 2.4 0 0 0-.668-1.02l-.298-.28a.5.5 0 0 1-.092-.098.6.6 0 0 1-.07-.215 2.52 2.52 0 0 0 .64-1.687 1 1 0 0 1 .02-.291 2.5 2.5 0 0 1 .203-.481 2.9 2.9 0 0 1 .954-1.067l.305-.106a2 2 0 0 0 .478-.259 1.6 1.6 0 0 0 .543-.797c.061-.157.108-.236.511-.516a2.4 2.4 0 0 0 .406-.336l.158-.176c.007.005.076.042.09.049l.085.055a3 3 0 0 0 .406.2 1 1 0 0 0 .333.059h.02c.388-.008.495-.09.4-.058l.137-.043a1 1 0 0 0 .156-.063l.106-.055a1 1 0 0 1 .365-.156 9 9 0 0 1 .965-.057l.148.005q.16.005.279.018c0 .013.005.163.011.215a1.26 1.26 0 0 0 .347.744 5.24 5.24 0 0 0 2.44 1.152 1 1 0 0 0 .129.009 1.07 1.07 0 0 0 .936-.512 1 1 0 0 0 .142-.154 2 2 0 0 0 .293.113 1.4 1.4 0 0 0 .48.087 1 1 0 0 0 .109-.006 2.6 2.6 0 0 0 .668-.158 1 1 0 0 0-.016.322 4 4 0 0 0 .172.73 8 8 0 0 0 .285.75 2.5 2.5 0 0 1 .601 1.348l.049.173c.076.272.156.534.234.751a3 3 0 0 0 .166.366 1 1 0 0 0 .104.179 13.8 13.8 0 0 1-1.235 2.547l.717.713q.195-.308.376-.627c.163-.287.312-.583.456-.881.087-.18.18-.356.26-.54a15 15 0 0 0 .575-1.55l.013-.035-.001-.011q.188-.617.323-1.256l.004-.005q.004-.017.006-.035c.045-.22.068-.448.104-.672.042-.269.095-.535.122-.805.016-.15.013-.304.024-.455.024-.349.053-.697.053-1.046V16c0-.036-.005-.07-.005-.107q-.006-.232-.02-.46l-.005-.026a14.8 14.8 0 0 0-.7-3.986l-.01-.026a15 15 0 0 0-.548-1.418c-.036-.08-.077-.157-.114-.236q-.272-.585-.593-1.14c-.057-.1-.12-.197-.18-.296q-.32-.524-.679-1.018l-.205-.274q-.395-.515-.833-.992l-.162-.179a14.776 14.776 0 0 0-25.49 9.041c-.031.375-.052.733-.053 1.075L1.22 16v.015a14.65 14.65 0 0 0 3.295 9.286l.092.121c.198.239.415.464.628.691.123.13.238.267.365.393.031.03.058.065.09.096.005.006.016.005.025.008a14.78 14.78 0 0 0 14.637 3.542l.021.006a.1.1 0 0 0 .03-.004c.344-.107.67-.25 1.002-.38.14-.054.284-.1.422-.16.324-.137.635-.295.946-.455q.238-.12.47-.248.466-.26.908-.552.192-.128.379-.262c.209-.148.43-.28.63-.438zM19.19 12.087l-.057.123a2 2 0 0 1-.093.2c-.008.006-.083.097-.102.117a.2.2 0 0 0-.061-.025l-.212-.059a5 5 0 0 1 .027-.544 3 3 0 0 0 .38.065 1 1 0 0 0 .177.012zM4.8 23.184a9.5 9.5 0 0 1 1.258.908q-.117.072-.234.157a1.6 1.6 0 0 0-.474.545 14 14 0 0 1-1.5-2.227zm-1.946-3.398a1.5 1.5 0 0 1 .06.605 14 14 0 0 1-.413-1.482 8 8 0 0 1 .353.877m4.314-14.37-.033-.003.056-.05zm2.957-1.91c-.223.318-.463.65-.657.895l-.066-.02a3 3 0 0 0-.613-.15 14 14 0 0 1 1.336-.726zm7.143-1.275c-.073.103-.156.213-.21.296l-.195.31-.04.052-.098.002-.19-.005-.212-.013a4 4 0 0 0-.367-.024l-.21-.006a2.4 2.4 0 0 0-.45.037 4 4 0 0 0-.463.127c.075-.055.24-.175.288-.217a2.4 2.4 0 0 0 .323-.284 1.7 1.7 0 0 0 .264-.323c.105-.002.207-.016.312-.016.422 0 .837.027 1.248.064m4.523 3.892-.084-.08a3 3 0 0 0 .138-.236 1.3 1.3 0 0 0-.054.316m5.596 6.451a4 4 0 0 0-.4-.02 2 2 0 0 0-.18-.261 1.5 1.5 0 0 0-.38-.313.97.97 0 0 0-.989.049 2.3 2.3 0 0 0-.315-.496 8 8 0 0 0-.564-.575 4 4 0 0 0-.596-.449l-.075-.046a.97.97 0 0 0-1.229.263 4 4 0 0 0-.172-.118 1.7 1.7 0 0 0-.87-.247 2 2 0 0 0-.99.283 2.5 2.5 0 0 0-.134-.56 3.8 3.8 0 0 0 1.004-.806 3.5 3.5 0 0 1 .409-.428l.087-.077a2.3 2.3 0 0 0 .915.192 1.59 1.59 0 0 0 1.64-.904 2.2 2.2 0 0 0 .181-1.758 1.6 1.6 0 0 0-.726-.889l-.172-.107a1 1 0 0 0-.071-.085 1.1 1.1 0 0 0-.79-.34 1.23 1.23 0 0 0-.69.245 1 1 0 0 0-.079.071 1.4 1.4 0 0 0-.174.22l.162-.357.066-.107a1.3 1.3 0 0 1 .376-.259c-.01.007.037.019.106.037l.448.131a4 4 0 0 0 1.186.248 1 1 0 0 0 .117-.025A13.8 13.8 0 0 1 29.853 16c0 .272-.025.537-.04.805a7 7 0 0 0-.696-1.158.97.97 0 0 0-.435-.299 1.44 1.44 0 0 0 .24-.816 2.7 2.7 0 0 0-.275-1.1 1.49 1.49 0 0 0-1.26-.858m1.872 6.494-.064-.23c-.052-.17-.102-.334-.152-.483-.152-.421-.23-.487-.243-.499a3.9 3.9 0 0 1-.47-1.055 3.3 3.3 0 0 1-.133-.544 7.5 7.5 0 0 1 1.037 2.142 2.7 2.7 0 0 0 .125.54.5.5 0 0 0 .129.17q-.047.194-.1.387a12 12 0 0 1-.129-.428M18.503 7.883a.66.66 0 0 1-.072-.556c.028-.067.058-.135.088-.196a.66.66 0 0 1 .463-.364l.122-.016a.63.63 0 0 1 .415.158 1.2 1.2 0 0 1 .354.535.64.64 0 0 1 .021.303.68.68 0 0 1 .46.602.88.88 0 0 1-.407.758.44.44 0 0 1-.208.046.76.76 0 0 1-.445-.16.71.71 0 0 1-.256-.646l.01-.115-.006-.002a.83.83 0 0 1-.539-.347m6.372 7.533-.003.01zm6.478 14.169-.706.709L21 20.7V25h-1v-6h6v1h-4.287z"/><path fill="none" d="M0 0h32v32H0z"/></svg>