<svg xmlns="http://www.w3.org/2000/svg" viewBox="0 0 24 24"><path d="M17.809 19.93a9.5 9.5 0 0 1-2.574 1.353l-.002.004A9.76 9.76 0 0 1 4.88 18.78a.4.4 0 0 1 .195-.336 2.4 2.4 0 0 1 .293-.178.54.54 0 0 0 .24-.293.5.5 0 0 0-.019-.37 2 2 0 0 0-.085-.123 4.7 4.7 0 0 0-1.198-.944l-.686-.444a2 2 0 0 1-.328-.26.35.35 0 0 1-.067-.203 1.6 1.6 0 0 1 .028-.288 1.9 1.9 0 0 0-.063-.874 7 7 0 0 0-.421-.998l-.071-.147a9 9 0 0 1-.37-.802 2.3 2.3 0 0 0-.164-.342c-.001-.06-.009-.118-.009-.178a9.8 9.8 0 0 1 2.908-6.977c.17.004.34.013.523.036l.094.003a.68.68 0 0 0 .622-.502c.126-.335.193-.368.327-.368q.037.001.082.007a1.7 1.7 0 0 1 .32.083 2 2 0 0 0 .243.059l.094.01a.48.48 0 0 0 .365-.166c.221-.264.575-.756.81-1.105a1.3 1.3 0 0 0 .163-.345 10 10 0 0 1 1.746-.445 2 2 0 0 0-.146.133 1.3 1.3 0 0 0-.473.838.47.47 0 0 0 .226.42.5.5 0 0 0 .237.061.5.5 0 0 0 .233-.06 4 4 0 0 1 1.077-.46 1 1 0 0 1 .183-.013l.15.004q.11.002.235.016l.165.01c.062.003.115.004.167.004a1.3 1.3 0 0 0 .221-.014.56.56 0 0 0 .335-.175q.07-.085.132-.174l.136-.215a2.4 2.4 0 0 1 .276-.366 9.8 9.8 0 0 1 2.837.929 1.6 1.6 0 0 0-.53.403 2 2 0 0 0-.11.189l-.208.459a1.5 1.5 0 0 1-.128.21 2 2 0 0 0-.092.144.57.57 0 0 0 .139.589 4.5 4.5 0 0 0 .63.529.46.46 0 0 0 .265.084.44.44 0 0 0 .224-.06.45.45 0 0 0 .236-.434l-.009-.106a6 6 0 0 1-.014-.329.36.36 0 0 1 .095-.214.1.1 0 0 1 .057-.02.1.1 0 0 1 .066.03.5.5 0 0 0 .122.129c.02.016.175.11.175.11a.5.5 0 0 1 .234.249.9.9 0 0 1-.068.73c-.121.215-.167.295-.573.295a.96.96 0 0 1-.427-.1l-.072-.032a.5.5 0 0 0-.184-.038.5.5 0 0 0-.286.088 2 2 0 0 0-.217.178 3 3 0 0 0-.37.385 2 2 0 0 1-.66.475.465.465 0 0 0-.247.605l.044.098a1.3 1.3 0 0 1 .088.333c.005.125-.05.138-.085.146a.8.8 0 0 1-.19.024 1 1 0 0 1-.091-.006 2 2 0 0 1-.265-.052l-.106-.027a.51.51 0 0 0-.566.26 1.4 1.4 0 0 0-.081.312 5 5 0 0 0-.035.677.48.48 0 0 0 .36.493l.183.05a1 1 0 0 0 .11.032 1.3 1.3 0 0 0 .186.043c.017.002.073.003.086.003a.63.63 0 0 0 .439-.183.9.9 0 0 0 .199-.238 2 2 0 0 0 .102-.21l.033-.072a.4.4 0 0 1 .042-.07.4.4 0 0 1 .131-.11.84.84 0 0 0 .33-.3l.083-.116a1 1 0 0 1 .118-.113.8.8 0 0 1 .419-.144.5.5 0 0 1 .252.07c.064.04.155.106.265.193a.5.5 0 0 0 .293.09.5.5 0 0 0 .217-.046.52.52 0 0 0 .275-.317l.021.015a2 2 0 0 1 .328.246c.115.103.232.225.328.33a.64.64 0 0 1 .151.259.9.9 0 0 0 .146.372.45.45 0 0 0 .418.189.5.5 0 0 0 .4-.256c.02-.031.046-.054.04-.063a.3.3 0 0 1 .063.052.5.5 0 0 1 .088.153.48.48 0 0 0 .448.29l.13-.002a2 2 0 0 1 .195.009c.193.026.322.1.365.213a1.3 1.3 0 0 1 .135.503.26.26 0 0 1-.199.293c-.162.05-.269.091-.406.144a1.2 1.2 0 0 1-.332.08.5.5 0 0 1-.146-.033 2 2 0 0 1-.223-.09.8.8 0 0 0-.29-.095l-.08-.012a.46.46 0 0 0-.449.352l-.025.09a1 1 0 0 1-.036.083c-.013.022-.028.04-.083.04a3.3 3.3 0 0 1-1.337-.612.22.22 0 0 1-.068-.143c-.003-.023-.003-.052-.004-.07l.018-.126a.535.535 0 0 0-.424-.532 2.4 2.4 0 0 0-.468-.052l-.129-.004a7 7 0 0 0-.747.043 1.2 1.2 0 0 0-.526.186l-.077.039-.126.04-.07.002a1 1 0 0 1-.172-.087l-.109-.065a.3.3 0 0 0-.068-.036 1 1 0 0 0-.22-.105.4.4 0 0 0-.14-.022.46.46 0 0 0-.32.13 1 1 0 0 0-.132.139l-.1.112a1 1 0 0 1-.197.164 1.42 1.42 0 0 0-.63.714.5.5 0 0 1-.17.26.6.6 0 0 1-.137.07l-.202.071A2.52 2.52 0 0 0 10.66 13a2.3 2.3 0 0 0-.197.49 1.5 1.5 0 0 0-.033.367 1.1 1.1 0 0 1-.296.757.46.46 0 0 0-.15.254 1 1 0 0 0-.013.253 1.1 1.1 0 0 0 .169.492 1 1 0 0 0 .166.186l.2.188a1.1 1.1 0 0 1 .304.437 1.8 1.8 0 0 0 .55.892 1.57 1.57 0 0 0 .984.433 4 4 0 0 0 .409-.042l.141-.023c.142-.02.297-.043.458-.06a5 5 0 0 1 .636-.048H14v-.938l-.012-.001a6 6 0 0 0-.763.056c-.128.014-.278.035-.416.055l-.206.032c-.101.014-.196.028-.263.03a.8.8 0 0 1-.377-.213.9.9 0 0 1-.253-.442 2 2 0 0 0-.544-.836l-.217-.205a2.13 2.13 0 0 0 .42-1.258.6.6 0 0 1 .008-.151 1.9 1.9 0 0 1 .693-.944l.202-.07a1.6 1.6 0 0 0 .41-.221 1.4 1.4 0 0 0 .474-.688c.021-.052.033-.081.276-.249a1.8 1.8 0 0 0 .314-.26 2 2 0 0 0 .283.137l.17.064.746-.02.106-.167.042-.02a1 1 0 0 1 .134-.068 7 7 0 0 1 .676-.04l.08.004a1.15 1.15 0 0 0 .308.624 4 4 0 0 0 1.898.903l.063.008h.593l.312-.431.068.022a1.3 1.3 0 0 0 .423.074h.054s.199-.026.26-.037a4 4 0 0 0 .124.503 3.8 3.8 0 0 0 .487 1.051q.019.042.047.12l.055.18a1.5 1.5 0 0 1 .717.769c-.059.188-.138.366-.208.548l.004.008c-.033.086-.06.174-.095.259q-.035.083-.072.164l-.007.016-.02.04a10 10 0 0 1-.293.608l-.107.196-.069.113v.002a11 11 0 0 1-.432.688c-.052.075-.109.145-.163.218l.685.686A10.74 10.74 0 0 0 22.8 12v-.025c0-.143-.01-.284-.019-.424l-.005-.035c-.009-.186-.011-.374-.029-.558l.002-.004-.003-.015a11 11 0 0 0-.17-1.135c-.03-.15-.077-.293-.114-.44-.052-.21-.101-.422-.166-.627-.066-.21-.148-.413-.226-.617-.052-.134-.099-.27-.155-.401a11 11 0 0 0-.314-.65q-.079-.16-.164-.315a11 11 0 0 0-.568-.91q-.22-.315-.46-.614-.098-.121-.2-.239a11 11 0 0 0-.518-.568q-.114-.112-.231-.221a11 11 0 0 0-.567-.515c-.078-.065-.162-.122-.241-.185-.192-.15-.378-.304-.58-.442l-.02-.007a10.7 10.7 0 0 0-4.058-1.662l-.004-.007c-.185-.034-.362-.051-.541-.076-.13-.017-.259-.042-.39-.055A10 10 0 0 0 12 1.195q-.119.001-.236.01l-.062.01a10.8 10.8 0 0 0-3.528.695l-.056.014L8 1.967a2 2 0 0 0-.17.069c-.28.117-.55.25-.815.389L7 2.424c-.02.01-.039.025-.06.036a11 11 0 0 0-1.022.615c-.062.043-.119.091-.18.135q-.393.28-.76.592c-.103.088-.2.181-.3.273q-.29.269-.56.557a8 8 0 0 0-.298.327q-.264.31-.505.638c-.059.08-.128.152-.184.233-.004.005 0 .009 0 .013a10.7 10.7 0 0 0-1.824 4.71l-.005.006c-.004.028-.005.051-.008.08q-.03.239-.05.48c-.027.3-.045.585-.045.856V12a10.785 10.785 0 0 0 17.294 8.615zM3.796 17.325c.29.184.492.324.635.432a1.5 1.5 0 0 0-.225.233l-.107-.144a10 10 0 0 1-.345-.487l-.062-.102zm8.729-15.143-.074.118h-.07l-.149-.009a3 3 0 0 0-.28-.017l-.041-.001q.041-.055.08-.117H12c.177 0 .35.017.525.026m7.687 7.078a2 2 0 0 0-.188-.015 1 1 0 0 0-.074-.1l-.122-.149-.234-.141s-.9.627-.891.4.245-.392.036-.653a6 6 0 0 0-.433-.443 3.4 3.4 0 0 0-.436-.331l-1.118-.66-.171.614a1.4 1.4 0 0 0-.555-.115 1.6 1.6 0 0 0-.356.043 2.7 2.7 0 0 0 .458-.422 2 2 0 0 1 .22-.236 1.8 1.8 0 0 0 .607.103 1.38 1.38 0 0 0 1.391-.774 1.8 1.8 0 0 0 .153-1.45 1.24 1.24 0 0 0-.33-.544h.063a9.83 9.83 0 0 1 3.606 7.499 3 3 0 0 0-.231-.336l-.159-.191a1.4 1.4 0 0 0 .075-.452 2.2 2.2 0 0 0-.219-.89 1.3 1.3 0 0 0-1.092-.757m1.402 4.772a14 14 0 0 0-.11-.352c-.112-.307-.168-.355-.178-.364a2.8 2.8 0 0 1-.344-.768 2.4 2.4 0 0 1-.096-.397 5.5 5.5 0 0 1 .756 1.56c.004.036.019.074.026.112q-.021.12-.045.24zm-7.802-7.98a.48.48 0 0 1-.053-.405q.031-.075.064-.143a.48.48 0 0 1 .338-.265l.09-.012a.46.46 0 0 1 .302.116.9.9 0 0 1 .259.39.46.46 0 0 1 .015.22.5.5 0 0 1 .335.438.64.64 0 0 1-.297.553.3.3 0 0 1-.152.033.55.55 0 0 1-.324-.117.51.51 0 0 1-.187-.47l.008-.084-.005-.001a.6.6 0 0 1-.393-.253m9.542 16.594-.707.707L16 16.707V20h-1v-5h5v1h-3.293z"/><path fill="none" d="M0 0h24v24H0z"/></svg>