<svg xmlns="http://www.w3.org/2000/svg" viewBox="0 0 16 16"><path d="M16 2v1h-2v2h-1V3h-2V2h2V0h1v2h2zM7 7.5c0 .237-.06.459-.159.658a1.502 1.502 0 0 0-.682.683A1.48 1.48 0 0 1 5.5 9C4.673 9 4 8.327 4 7.5c0-.215.047-.418.129-.603L2.542 5.575C2.272 5.837 1.905 6 1.5 6 .673 6 0 5.327 0 4.5S.673 3 1.5 3c.406 0 .774.164 1.044.427L4.13 2.105A1.488 1.488 0 0 1 4 1.5C4 .673 4.673 0 5.5 0S7 .673 7 1.5 6.327 3 5.5 3c-.34 0-.65-.118-.901-.309l-1.573 1.31h3.066A1.498 1.498 0 0 1 7.5 3C8.327 3 9 3.673 9 4.5S8.327 6 7.5 6a1.5 1.5 0 0 1-1.408-1H3.026l1.571 1.31C4.849 6.118 5.16 6 5.5 6 6.327 6 7 6.673 7 7.5zm0-2.75c0 .139.112.25.25.25h.5A.25.25 0 0 0 8 4.75v-.486A.263.263 0 0 0 7.737 4H7.25a.25.25 0 0 0-.25.25v.5zm-2-3c0 .139.112.25.25.25h.5A.25.25 0 0 0 6 1.75v-.486A.263.263 0 0 0 5.737 1H5.25a.25.25 0 0 0-.25.25v.5zM2 4.264A.263.263 0 0 0 1.737 4H1.25a.25.25 0 0 0-.25.25v.5c0 .139.112.25.25.25h.5A.25.25 0 0 0 2 4.75v-.486zm4 3A.263.263 0 0 0 5.737 7H5.25a.25.25 0 0 0-.25.25v.5c0 .139.112.25.25.25h.5A.25.25 0 0 0 6 7.75v-.486zM16 8.5v1a.5.5 0 0 1-.5.5h-.26l-.67 4.014c.241.035.43.235.43.486v1a.5.5 0 0 1-.5.5h-1a.5.5 0 0 1-.5-.5v-.292l-3.021-.604A.493.493 0 0 1 9.5 15h-1a.5.5 0 0 1-.5-.5v-1c0-.221.146-.403.346-.469L7.838 11H7.5a.5.5 0 0 1-.5-.5v-1a.5.5 0 0 1 .5-.5h.934L10 7.434V6.5a.5.5 0 0 1 .5-.5h1a.5.5 0 0 1 .5.5v.553l2.164 1.082A.495.495 0 0 1 14.5 8h1a.5.5 0 0 1 .5.5zM9.434 13L11 11.434v-.271l-2.031-.509a.49.49 0 0 1-.315.315L9.162 13h.272zM9 9.566v.272l2.031.507a.49.49 0 0 1 .314-.314L10.838 8h-.272L9 9.566zm2.655-1.597L12.162 10h.338c.076 0 .147.02.212.05L14 9.189v-.24l-2.164-1.083a.494.494 0 0 1-.181.104zM10 13.792l3.021.604a.493.493 0 0 1 .114-.232L12.053 12h-.496L10 13.563v.229zm3.808-.071l.622-3.735a.502.502 0 0 1-.137-.034L13 10.814v.686c0 .13-.053.247-.135.336l.943 1.885zM4 12h-.5c-.827 0-1.5-.673-1.5-1.5V10H1v.5C1 11.878 2.121 13 3.5 13H4v1.176L6.058 12.5 4 10.825V12z"/><path fill="none" d="M0 0h16v16H0z"/></svg>