<svg xmlns="http://www.w3.org/2000/svg" viewBox="0 0 16 16"><path d="m.24 8.797.003.016a7.7 7.7 0 0 0 1.082 3.207c.072.119.14.24.217.354l.062.082A7.74 7.74 0 0 0 9.85 15.57a1.7 1.7 0 0 1-.883-.847A6.68 6.68 0 0 1 3.2 12.811c0-.034.006-.05.056-.087a2 2 0 0 1 .186-.113.6.6 0 0 0 .266-.327.57.57 0 0 0-.038-.43l-.068-.102a3.5 3.5 0 0 0-.898-.714l-.477-.31c-.12-.08-.174-.128-.186-.16a1 1 0 0 1 .016-.17 1.5 1.5 0 0 0-.051-.706 5 5 0 0 0-.308-.73l-.05-.104a7 7 0 0 1-.252-.545 2 2 0 0 0-.171-.346l-.021-.034a6.77 6.77 0 0 1 1.881-4.62c.135.003.28.009.473.028a.66.66 0 0 0 .632-.49c.033-.09.054-.126.064-.126q.004 0 .007.008a1 1 0 0 1 .198.052 1 1 0 0 0 .18.043l.106.01a.54.54 0 0 0 .417-.19c.158-.191.411-.543.579-.792a1.1 1.1 0 0 0 .146-.316 7 7 0 0 1 .574-.158.9.9 0 0 0-.192.472.54.54 0 0 0 .269.487.54.54 0 0 0 .535-.002 2.4 2.4 0 0 1 .774-.305l.51.026a1.3 1.3 0 0 0 .186-.013.6.6 0 0 0 .366-.2l.108-.141.096-.153a1.4 1.4 0 0 1 .171-.228 6.7 6.7 0 0 1 1.508.481 1.5 1.5 0 0 0-.208.196 1.3 1.3 0 0 0-.1.171l-.14.31a1 1 0 0 1-.072.12 1 1 0 0 0-.084.137.61.61 0 0 0 .134.652 4 4 0 0 0 .366.32l-.006.004a1.3 1.3 0 0 0-.17.14l-.098.092a.57.57 0 0 0-.218-.313 1 1 0 0 0-.02-.093.8.8 0 0 0-.243-.367.54.54 0 0 0-.392-.124l-.061.002a.54.54 0 0 0-.384.296l-.053.118a.546.546 0 0 0 .294.68.57.57 0 0 0 .215.417q.034.024.07.045a.6.6 0 0 0-.034.575l.024.07h-.006a1.4 1.4 0 0 1-.228-.049 1 1 0 0 0-.131-.017.55.55 0 0 0-.512.328 1 1 0 0 0-.069.262 3.5 3.5 0 0 0-.028.5.56.56 0 0 0 .16.414 1 1 0 0 0-.112.12l-.058.07a.7.7 0 0 1-.116.091 1.2 1.2 0 0 0-.517.6l-.09.11-.137.05a1.95 1.95 0 0 0-.899.9 1.7 1.7 0 0 0-.151.385 1.3 1.3 0 0 0-.03.31.57.57 0 0 1-.137.375.54.54 0 0 0-.172.29 1 1 0 0 0-.012.248 1 1 0 0 0 .146.428.8.8 0 0 0 .156.175l.134.13a.6.6 0 0 1 .16.218 1.5 1.5 0 0 0 .452.73 1.3 1.3 0 0 0 .828.352 3 3 0 0 0 .315-.03l.242-.035v-.788l-.352.05a2 2 0 0 1-.206.023.57.57 0 0 1-.326-.17.7.7 0 0 1-.204-.352 1.3 1.3 0 0 0-.367-.56l-.137-.131a.2.2 0 0 1-.054-.078 1.38 1.38 0 0 0 .314-.875.5.5 0 0 1 .01-.135 1.5 1.5 0 0 1 .097-.229 1.4 1.4 0 0 1 .438-.491l.158-.056a.8.8 0 0 0 .358-.266l.09-.11a.8.8 0 0 0 .104-.19c.027-.07.04-.102.235-.238a1.2 1.2 0 0 0 .18-.141 1 1 0 0 0 .088-.09l.104-.12a.7.7 0 0 0 .142-.157.78.78 0 0 0 .603.282 1 1 0 0 0 .17-.019 4 4 0 0 1 .49-.033q.098.003.164.008a.8.8 0 0 0 .06.19 1.95 1.95 0 0 0 1.164.826.8.8 0 0 0 .225.034.78.78 0 0 0 .62-.307 1 1 0 0 0 .161.055.8.8 0 0 0 .2.026h.027a1.2 1.2 0 0 0 .451-.073c.099-.04.163-.064.257-.094a.78.78 0 0 0 .509-1.002 1.3 1.3 0 0 0-.11-.334.78.78 0 0 0-.522-.442 1.4 1.4 0 0 0-.39-.056.78.78 0 0 0-.702-.2 1 1 0 0 0-.08-.15 2 2 0 0 0-.106-.14 4 4 0 0 0-.28-.29l-.087-.073a.78.78 0 0 0-.897-.061l-.084-.057a.8.8 0 0 0-.276-.108 2 2 0 0 0-.214-.02 1 1 0 0 0-.114.006.8.8 0 0 0-.258-.044 1 1 0 0 0-.093.006l-.032-.097a.8.8 0 0 0 .064-.21h.022a.78.78 0 0 0 .54-.216c.011-.01.09-.084.111-.106a.8.8 0 0 0 .403.112 1 1 0 0 0 .67-.188.8.8 0 0 0 .17-.19l.056-.088a1.22 1.22 0 0 0 .12-.985.8.8 0 0 0-.25-.378A6.77 6.77 0 0 1 14.73 8.97a1.7 1.7 0 0 1 .84.88c.021-.083.047-.165.065-.25l.004-.009.002-.015c.024-.117.037-.238.055-.357a8 8 0 0 0 .105-1.218v-.003a5 5 0 0 0-.016-.33c-.006-.131-.009-.271-.021-.401v-.011a7.8 7.8 0 0 0-.34-1.647c-.02-.061-.045-.12-.066-.18a8 8 0 0 0-.22-.571q-.062-.132-.126-.26a8 8 0 0 0-.235-.453 7 7 0 0 0-.172-.283 8 8 0 0 0-.263-.394q-.099-.138-.203-.271-.15-.19-.31-.37-.105-.121-.215-.236a8 8 0 0 0-.402-.384q-.089-.083-.18-.164A7.76 7.76 0 0 0 8.71.236C8.68.233 8.65.234 8.62.23A8 8 0 0 0 8 .2c-.064 0-.127.008-.19.01H7.8a7.8 7.8 0 0 0-2.658.538l-.024.007-.022.01a7.8 7.8 0 0 0-2.228 1.37l-.06.055a8 8 0 0 0-.582.579l-.079.086A7.76 7.76 0 0 0 .23 7.403q-.028.31-.03.593V8a8 8 0 0 0 .04.796zM9.42 6.16q0-.079.004-.144l.058.01a.7.7 0 0 0-.062.134m1.143-.148-.11-.204.196.097a.3.3 0 0 1 .176-.058.4.4 0 0 1 .072.006 2 2 0 0 1 .172.127.55.55 0 0 0 .331.105.5.5 0 0 0 .238-.053.6.6 0 0 0 .165-.114l.049.04a3 3 0 0 1 .207.21c.044.055.06.08.06.08a.8.8 0 0 0 .132.34.51.51 0 0 0 .477.235.55.55 0 0 0 .284-.094.64.64 0 0 0 .53.217.7.7 0 0 1 .208.032 1.3 1.3 0 0 1 .086.277 3 3 0 0 0-.299.107.35.35 0 0 1-.148.028l-.06-.002a.6.6 0 0 1-.117-.047.6.6 0 0 0-.209-.076h-.015a.6.6 0 0 0-.133-.023.54.54 0 0 0-.508.371 1.36 1.36 0 0 1-.68-.406.58.58 0 0 0-.456-.605 2 2 0 0 0-.467-.047 5 5 0 0 0-.544.032 1 1 0 0 0-.122.02 1 1 0 0 0 .048-.076c.027-.047.05-.09.038-.105a.7.7 0 0 0 .092-.137.8.8 0 0 0 .307-.277m-7.738 6.062-.01.006a1 1 0 0 0-.134.145q-.197-.248-.371-.513a6 6 0 0 1 .515.362m8.331-9.497.039-.083a.5.5 0 0 1 .177-.142l.201.07a.8.8 0 0 0-.344.106l-.073.05zm.55 1.056-.056.087c-.002.003-.03.018-.167.018h-.015a.62.62 0 0 0 .157-.498l-.002-.039c.039.026.08.054.11.077a.42.42 0 0 1-.027.355M12 2.519l.005-.001.032.023zm3.35 12.065-.703.71L11 11.687V14h-1v-4h4v1h-2.272z"/><path fill="none" d="M0 0h16v16H0z"/></svg>