<svg xmlns="http://www.w3.org/2000/svg" viewBox="0 0 32 32"><path d="M31 7h-5v5h-1V7h-5V6h5V1h1v5h5v1zM8.34 21.646l-.707.708L10.279 25H7c-1.654 0-3-1.346-3-3v-2H3v2c0 2.206 1.794 4 4 4h3.28l-2.647 2.646.707.708 3.853-3.854-3.853-3.854zM16.9 10.5c0 1.324-1.076 2.4-2.4 2.4a2.402 2.402 0 0 1-2.346-1.9H5.846a2.38 2.38 0 0 1-.45.956l3.322 2.95A2.385 2.385 0 0 1 10.5 14.1c1.324 0 2.4 1.076 2.4 2.4s-1.076 2.4-2.4 2.4-2.4-1.076-2.4-2.4c0-.342.074-.665.203-.96l-3.448-3.062A2.385 2.385 0 0 1 3.5 12.9c-1.324 0-2.4-1.076-2.4-2.4s1.076-2.4 2.4-2.4c.503 0 .969.157 1.355.422L8.303 5.46A2.382 2.382 0 0 1 8.1 4.5c0-1.324 1.076-2.4 2.4-2.4s2.4 1.076 2.4 2.4-1.076 2.4-2.4 2.4c-.71 0-1.342-.316-1.781-.807L5.395 9.044c.215.279.375.6.45.956h6.31A2.402 2.402 0 0 1 14.5 8.1c1.324 0 2.4 1.076 2.4 2.4zM9 5a1 1 0 0 0 1 1h1a1 1 0 0 0 1-1V4a1 1 0 0 0-1-1h-1a1 1 0 0 0-1 1v1zm0 11v1a1 1 0 0 0 1 1h1a1 1 0 0 0 1-1v-1a1 1 0 0 0-1-1h-1a1 1 0 0 0-1 1zm-5-4a1 1 0 0 0 1-1v-1a1 1 0 0 0-1-1H3a1 1 0 0 0-1 1v1a1 1 0 0 0 1 1h1zm12-2a1 1 0 0 0-1-1h-1a1 1 0 0 0-1 1v1a1 1 0 0 0 1 1h1a1 1 0 0 0 1-1v-1zm12.07 10.993l-1.164 5.234A1.995 1.995 0 0 1 28 28c0 1.103-.897 2-2 2a1.997 1.997 0 0 1-1.974-1.743l-4.17-.521A2 2 0 0 1 18 29c-1.103 0-2-.897-2-2a2 2 0 0 1 1.186-1.823l-.369-2.196A1.996 1.996 0 0 1 15 21c0-1.103.897-2 2-2 .369 0 .71.107 1.008.282l2.278-2.268A1.977 1.977 0 0 1 20 16c0-1.103.897-2 2-2s2 .897 2 2a2 2 0 0 1-.048.426l2.546 1.268c.367-.422.9-.694 1.502-.694 1.103 0 2 .897 2 2 0 1.079-.86 1.955-1.93 1.993zm-2.14 5.014l1.164-5.234a2.004 2.004 0 0 1-.495-.35l-1.69 1.014c.054.18.091.366.091.563 0 .6-.271 1.133-.691 1.5l1.273 2.546c.113-.025.23-.035.348-.039zm-1.234.49l-1.263-2.547c-.14.03-.284.05-.433.05-.37 0-.712-.108-1.01-.284l-2.274 2.275c.134.226.222.48.258.752l4.17.521c.12-.3.312-.56.552-.768zm-5.683-1.211l2.276-2.267a1.976 1.976 0 0 1-.271-.842l-2.194-.365a2.009 2.009 0 0 1-1.018 1.015l.368 2.19c.305.027.589.12.84.269zm1.982-7.567l-2.28 2.27c.148.25.24.532.267.836l2.193.365a2.01 2.01 0 0 1 1.013-1.014l-.366-2.194c-.3-.027-.58-.118-.827-.263zM24 21.5a.5.5 0 0 0-.5-.5h-1a.5.5 0 0 0-.5.5v1a.5.5 0 0 0 .5.5h1a.5.5 0 0 0 .5-.5v-1zm3-2a.5.5 0 0 0 .5.5h1a.5.5 0 0 0 .5-.5v-1a.5.5 0 0 0-.5-.5h-1a.5.5 0 0 0-.5.5v1zm-3.506-2.185a2 2 0 0 1-.685.51l.367 2.193a1.99 1.99 0 0 1 1.225.558l1.69-1.013A1.971 1.971 0 0 1 26 19c0-.142.016-.28.045-.415l-2.55-1.27zM21 16.5a.5.5 0 0 0 .5.5h1a.5.5 0 0 0 .5-.5v-1a.5.5 0 0 0-.5-.5h-1a.5.5 0 0 0-.5.5v1zM16.5 22h1a.5.5 0 0 0 .5-.5v-1a.5.5 0 0 0-.5-.5h-1a.5.5 0 0 0-.5.5v1a.5.5 0 0 0 .5.5zm2.5 4.5a.5.5 0 0 0-.5-.5h-1a.5.5 0 0 0-.5.5v1a.5.5 0 0 0 .5.5h1a.5.5 0 0 0 .5-.5v-1zm8 1a.5.5 0 0 0-.5-.5h-1a.5.5 0 0 0-.5.5v1a.5.5 0 0 0 .5.5h1a.5.5 0 0 0 .5-.5v-1z"/><path fill="none" d="M0 0h32v32H0z"/></svg>