<svg xmlns="http://www.w3.org/2000/svg" viewBox="0 0 32 32"><path d="M13.25 3h-8.5A1.75 1.75 0 0 0 3 4.75v8.5A1.75 1.75 0 0 0 4.75 15h8.5A1.75 1.75 0 0 0 15 13.25v-8.5A1.75 1.75 0 0 0 13.25 3M14 13.25a.75.75 0 0 1-.75.75h-8.5a.75.75 0 0 1-.75-.75v-8.5A.75.75 0 0 1 4.75 4h8.5a.75.75 0 0 1 .75.75zM27.25 3h-8.5A1.75 1.75 0 0 0 17 4.75v8.5A1.75 1.75 0 0 0 18.75 15h8.5A1.75 1.75 0 0 0 29 13.25v-8.5A1.75 1.75 0 0 0 27.25 3M28 13.25a.75.75 0 0 1-.75.75h-8.5a.75.75 0 0 1-.75-.75v-8.5a.75.75 0 0 1 .75-.75h8.5a.75.75 0 0 1 .75.75zM27.25 17h-8.5A1.75 1.75 0 0 0 17 18.75v8.5A1.75 1.75 0 0 0 18.75 29h8.5A1.75 1.75 0 0 0 29 27.25v-8.5A1.75 1.75 0 0 0 27.25 17M28 27.25a.75.75 0 0 1-.75.75h-8.5a.75.75 0 0 1-.75-.75v-8.5a.75.75 0 0 1 .75-.75h8.5a.75.75 0 0 1 .75.75zM13.25 17h-8.5A1.75 1.75 0 0 0 3 18.75v8.5A1.75 1.75 0 0 0 4.75 29h8.5A1.75 1.75 0 0 0 15 27.25v-8.5A1.75 1.75 0 0 0 13.25 17M14 27.25a.75.75 0 0 1-.75.75h-8.5a.75.75 0 0 1-.75-.75v-8.5a.75.75 0 0 1 .75-.75h8.5a.75.75 0 0 1 .75.75z"/><path fill="none" d="M0 0h32v32H0z"/></svg>