<?xml version="1.0" encoding="UTF-8"?><svg id="icons" xmlns="http://www.w3.org/2000/svg" viewBox="0 0 16 16"><defs><style>.cls-1{fill:none;}</style></defs><path d="M3.13965,11.13281l-.98047-.19531c-.06738.33887-.12012.68262-.15723,1.03223-.00104.01013-.00171.02014-.00275.03027h-.99921v3h3v-3h-.99243c.03345-.29242.07544-.58234.13208-.86719ZM3,14h-1v-1h1v1ZM3.18457,7.9834l.89062.45508c-.21631.42285-.40479.86523-.56104,1.31348l-.94434-.32812c.1709-.49219.37793-.97656.61475-1.44043ZM10.33496,2.29199l.23047.97266c-.4585.1084-.91553.25391-1.3584.43066l-.37207-.92773c.48877-.19629.99365-.35645,1.5-.47559ZM7.42285,3.46191c-.2796.16388-.55115.34692-.8175.53809h-2.60535v3h3v-2.03479c.30176-.22772.60718-.45245.92969-.64197l-.50684-.86133ZM6,6h-1v-1h1v1ZM12,1v3h3V1h-3ZM14,3h-1v-1h1v1Z"/><rect class="cls-1" width="16" height="16"/></svg>