<svg xmlns="http://www.w3.org/2000/svg" viewBox="0 0 16 16"><path d="M3.14 11.133l-.98-.195c-.068.338-.12.682-.158 1.032l-.003.03H1v3h3v-3h-.992c.033-.292.075-.582.132-.867zM3 14H2v-1h1v1zm.185-6.017l.89.455a10.44 10.44 0 0 0-.56 1.314l-.945-.328c.17-.492.378-.977.615-1.44zm7.15-5.691l.23.973a9.7 9.7 0 0 0-1.358.43l-.372-.927a10.4 10.4 0 0 1 1.5-.476zm-2.912 1.17c-.28.164-.551.347-.818.538H4v3h3V4.965c.302-.228.607-.452.93-.642l-.507-.861zM6 6H5V5h1v1zm6-5v3h3V1h-3zm2 2h-1V2h1v1z"/><path fill="none" d="M0 0h16v16H0z"/></svg>