<svg xmlns="http://www.w3.org/2000/svg" viewBox="0 0 32 32"><path d="M5.061 25.257l-.993-.113c.06-.532.14-1.052.235-1.559l.983.186c-.091.483-.167.978-.225 1.486zm1.952-9.016l.872.488c.268-.479.532-.91.778-1.292l-.84-.543a24.38 24.38 0 0 0-.81 1.347zM4.648 22.05l.968.254c.13-.498.276-.98.431-1.444l-.948-.318c-.162.485-.314.988-.45 1.508zM21.478 4.9l.27.963c.506-.141.996-.26 1.464-.361l-.21-.979c-.487.105-.997.23-1.524.377zM5.648 19.07l.925.377c.198-.483.405-.943.614-1.377l-.9-.435c-.219.451-.434.93-.64 1.435zM15.705 7.346l.507.861c.442-.26.884-.5 1.323-.72l-.45-.893c-.458.23-.918.48-1.38.752zm2.807-1.412l.389.921c.476-.2.946-.38 1.407-.542l-.33-.943c-.48.167-.969.355-1.466.564zM13.11 9.115l.616.787c.403-.315.809-.611 1.215-.888l-.563-.826c-.424.289-.848.598-1.268.927zM3 26h3v3H3v-3zm1 2h1v-1H4v1zm6-18h3v2.974h-2.56l.032.026c-.118.139-.236.305-.353.447-.02.024-.246.28-.598.751l-.802-.597c.391-.525.64-.803.64-.803.11-.134.23-.28.354-.422l.287.246V10zm1 2h1v-1h-1v1zm18-9v3h-3v-.924a23.4 23.4 0 0 0-1.304.154l-.146-.988a24.359 24.359 0 0 1 1.45-.17V3h3zm-1 1h-1v1h1V4z"/><path fill="none" d="M0 0h32v32H0z"/></svg>