<?xml version="1.0" encoding="UTF-8"?><svg id="icons" xmlns="http://www.w3.org/2000/svg" viewBox="0 0 24 24"><defs><style>.cls-1{fill:none;}</style></defs><rect class="cls-1" width="24" height="24"/><path d="M3.29541,14.47656l.93066.36719c-.18018.45508-.34229.91992-.48633,1.3916l-.95605-.29297c.15186-.49707.32275-.98535.51172-1.46582ZM3.92188,13.05273l.89844.43945c.21631-.44336.4502-.87598.69922-1.29883l-.86133-.50781c-.2627.44434-.5083.90039-.73633,1.36719ZM3.36475,17.66113l-.97656-.2168c-.11133.50391-.20361,1.01367-.2749,1.53027l.99023.13672c.06836-.48926.15576-.97363.26123-1.4502ZM1,20h3v3H1v-3ZM2,22h1v-1h-1v1ZM12.41211,4.24707l.4707.88281c.43311-.23145.87598-.44629,1.32812-.64453l-.40039-.91602c-.47656.20801-.94287.43457-1.39844.67773ZM15.25879,3.00195l.32617.94531c.46289-.16016.93457-.30273,1.4126-.42578l-.25-.96875c-.50439.13086-1.00049.28125-1.48877.44922ZM23,1v3h-3v-.98859l-.09863-.00165c-.49365.04688-.98145.11426-1.4624.19727l-.17188-.98438c.50635-.08887,1.01953-.1582,1.53857-.20898l.19434-.013v-1.00067h3ZM22,2h-1v1h1v-1ZM9.79639,5.92188l.60352.79688c.39209-.29688.7959-.57812,1.21045-.84375l-.53906-.8418c-.43701.2793-.8623.57617-1.2749.88867ZM6,7h3v3h-1.95685c-.24915.31171-.49548.62604-.72382.95215l-.81934-.57422c.1582-.22546.3327-.43848.5-.65717v-2.72076ZM7,9h1v-1h-1v1Z"/></svg>