<svg xmlns="http://www.w3.org/2000/svg" viewBox="0 0 24 24"><path fill="none" d="M0 0h24v24H0z"/><path d="M3.295 14.477l.931.367c-.18.455-.342.92-.486 1.391l-.956-.293c.152-.497.322-.985.511-1.465zm.627-1.424l.898.44c.217-.444.45-.877.7-1.3l-.862-.507c-.262.444-.508.9-.736 1.367zm-.557 4.608l-.977-.217a19.352 19.352 0 0 0-.275 1.53l.99.137c.069-.489.156-.973.262-1.45zM1 20h3v3H1v-3zm1 2h1v-1H2v1zM12.412 4.247l.47.883a19.03 19.03 0 0 1 1.329-.645l-.4-.916c-.477.208-.943.435-1.399.678zm2.847-1.245l.326.945c.463-.16.935-.302 1.413-.426l-.25-.968c-.505.13-1 .281-1.49.449zM23 1v3h-3v-.989l-.099-.001a19.36 19.36 0 0 0-1.462.197l-.172-.984c.506-.09 1.02-.159 1.539-.21L20 2.002V1h3zm-1 1h-1v1h1V2zM9.796 5.922l.604.797c.392-.297.796-.578 1.21-.844l-.539-.842c-.437.28-.862.576-1.275.889zM6 7h3v3H7.043c-.249.312-.495.626-.724.952l-.819-.574c.158-.226.333-.439.5-.657V7zm1 2h1V8H7v1z"/></svg>