<?xml version="1.0" encoding="UTF-8"?><svg id="icons" xmlns="http://www.w3.org/2000/svg" viewBox="0 0 32 32"><defs><style>.cls-1{fill:none;}</style></defs><path d="M5.06104,25.25684l-.99316-.11328c.06006-.53125.13965-1.05176.23535-1.55859l.98242.18555c-.09082.4834-.1665.97852-.22461,1.48633ZM7.0127,16.24121l.87207.48828c.26855-.47949.53174-.91113.77783-1.29297l-.83984-.54297c-.25684.39746-.53076.84863-.81006,1.34766ZM4.64844,22.04883l.96777.25391c.13037-.49805.27539-.97949.43115-1.44336l-.94824-.31836c-.1626.48535-.31445.98828-.45068,1.50781ZM21.47754,4.89941l.26953.96289c.50684-.1416.99658-.26074,1.46533-.36133l-.20996-.97852c-.4873.10449-.99756.22949-1.5249.37695ZM5.64746,19.06934l.92578.37695c.19775-.4834.4043-.94336.61377-1.37695l-.90039-.43555c-.21826.45117-.43359.93066-.63916,1.43555ZM15.70605,7.3457l.50684.86133c.44238-.25977.88428-.5,1.32275-.7207l-.44922-.89258c-.45801.23047-.91846.48047-1.38037.75195ZM18.51318,5.93359l.38867.92188c.47656-.20117.94629-.38086,1.40674-.54199l-.3291-.94336c-.47998.16699-.96924.35449-1.46631.56348ZM13.10986,9.11523l.61621.78711c.40283-.31543.80859-.61133,1.21533-.88867l-.56348-.82617c-.42432.28906-.84766.59863-1.26807.92773ZM3,26h3v3h-3v-3ZM4,28h1v-1h-1v1ZM10,10h3v2.97363h-2.55908l.03076.02637c-.11816.13867-.23584.30469-.35303.44727-.02002.02344-.24561.2793-.59766.75098l-.80176-.59766c.39111-.52441.63965-.80273.63965-.80273.10938-.13379.23096-.2793.354-.42188l.28711.24609v-2.62207ZM11,12h1v-1h-1v1ZM29,3v3h-3v-.92413c-.39868.0365-.83057.08459-1.30371.1546l-.14648-.98828c.52856-.07861,1.01123-.1319,1.4502-.17065v-1.07153h3ZM28,4h-1v1h1v-1Z"/><rect class="cls-1" width="32" height="32"/></svg>