<svg xmlns="http://www.w3.org/2000/svg" viewBox="0 0 24 24"><path fill="none" d="M0 0h24v24H0z"/><path d="m3.295 14.477.931.367q-.27.684-.486 1.391l-.956-.293q.228-.745.511-1.465m.627-1.424.898.44q.325-.666.7-1.3l-.862-.507q-.394.666-.736 1.367m-.557 4.608-.977-.217a19 19 0 0 0-.275 1.53l.99.137q.103-.734.262-1.45M1 20h3v3H1zm1 2h1v-1H2zM12.412 4.247l.47.883a19 19 0 0 1 1.329-.645l-.4-.916q-.715.313-1.399.678m2.847-1.245.326.945q.695-.24 1.413-.426l-.25-.968q-.756.196-1.49.449zM23 1v3h-3v-.989l-.099-.001a19 19 0 0 0-1.462.197l-.172-.984q.76-.134 1.539-.21L20 2.002V1zm-1 1h-1v1h1zM9.796 5.922l.604.797q.588-.445 1.21-.844l-.539-.842q-.655.42-1.275.889M6 7h3v3H7.043c-.249.312-.495.626-.724.952l-.819-.574c.158-.226.333-.439.5-.657zm1 2h1V8H7z"/></svg>