<svg xmlns="http://www.w3.org/2000/svg" viewBox="0 0 32 32"><path d="m5.061 25.257-.993-.113q.091-.798.235-1.559l.983.186q-.137.724-.225 1.486m1.952-9.016.872.488c.268-.479.532-.91.778-1.292l-.84-.543a24 24 0 0 0-.81 1.347M4.648 22.05l.968.254q.197-.747.431-1.444l-.948-.318q-.245.728-.45 1.508zM21.478 4.9l.27.963q.76-.21 1.464-.361l-.21-.979q-.732.157-1.524.377M5.648 19.07l.925.377q.299-.725.614-1.377l-.9-.435q-.33.677-.64 1.435zM15.705 7.346l.507.861q.664-.39 1.323-.72l-.45-.893q-.687.345-1.38.752m2.807-1.412.389.921q.715-.3 1.407-.542l-.33-.943q-.72.25-1.466.564M13.11 9.115l.616.787q.605-.473 1.215-.888l-.563-.826q-.637.434-1.268.927M3 26h3v3H3zm1 2h1v-1H4zm6-18h3v2.974h-2.56l.032.026c-.118.139-.236.305-.353.447-.02.024-.246.28-.598.751l-.802-.597c.391-.525.64-.803.64-.803.11-.134.23-.28.354-.422l.287.246zm1 2h1v-1h-1zm18-9v3h-3v-.924a23 23 0 0 0-1.304.154l-.146-.988a24 24 0 0 1 1.45-.17V3zm-1 1h-1v1h1z"/><path fill="none" d="M0 0h32v32H0z"/></svg>