<svg xmlns="http://www.w3.org/2000/svg" viewBox="0 0 16 16"><path stroke-width="0" fill="none" d="M0 0h16v16H0z"/><path d="M14 12c-1.103 0-2 .897-2 2s.897 2 2 2 2-.897 2-2-.897-2-2-2zm1 2.75a.25.25 0 0 1-.25.25h-1.5a.25.25 0 0 1-.25-.25v-1.5a.25.25 0 0 1 .25-.25h1.5a.25.25 0 0 1 .25.25v1.5zM10 11h4V7h-4v4zm1-3h2v2h-2V8zm-4.22 8h5.44L9.5 11.812 6.78 16zm1.841-1l.879-1.352.879 1.352H8.62zM8 12c-.515.051-.87.072-1.5.072-3.839 0-5.5-1.086-5.5-1.593V6.906c1.101.672 3.045 1.073 5.5 1.073.91 0 1.748-.055 2.5-.159v-.94c-.701.112-1.528.183-2.5.183-3.839 0-5.5-1.077-5.5-1.584V3.906C2.101 4.578 4.045 5 6.5 5s4.399-.422 5.5-1.094V5.48c0 .141-.143.327-.412.521H13V2.48C13 .983 10.388 0 6.5 0S0 .984 0 2.48v8c0 1.495 2.612 2.5 6.5 2.5.37 0 .527-.012.872-.03L8 12zM6.5.925c3.839 0 5.5 1.048 5.5 1.555s-1.661 1.583-5.5 1.583S1 2.986 1 2.479 2.661.925 6.5.925z" stroke-width="0"/></svg>