<svg xmlns="http://www.w3.org/2000/svg" viewBox="0 0 32 32"><path d="m29.541 21.722-.921-.537a5.77 5.77 0 0 0 2.18-4.48 5.36 5.36 0 0 0-3.607-5.098l-.989-.336-.147-1.033A7.95 7.95 0 0 0 18.463 3.2a7.65 7.65 0 0 0-6.683 4.187l-.629 1.184-1.298-.335a3.5 3.5 0 0 0-.874-.13 2.943 2.943 0 0 0-3.024 2.766l-.053.977-.867.445A5.17 5.17 0 0 0 2.2 16.897c0 2.653 2.166 5.085 4.545 5.103H9v1H6.737C3.733 22.978 1.2 19.988 1.2 16.897a6.17 6.17 0 0 1 3.378-5.493l.357-.183.022-.402a3.93 3.93 0 0 1 4.022-3.713 4.4 4.4 0 0 1 1.125.162l.534.138.26-.488A8.65 8.65 0 0 1 18.462 2.2a8.956 8.956 0 0 1 8.584 7.897l.06.425.408.138a6.36 6.36 0 0 1 4.285 6.044 6.78 6.78 0 0 1-2.259 5.018zm-3.409 4.376-6.678 3.896-6.678-3.896.494-.288-.992-.58-1.486.868 8.662 5.054 8.663-5.054-1.419-.828-.992.58zm-.052-4.659-.992.58 1.112.648-6.678 3.896-6.678-3.896 1.112-.649-.992-.579-2.105 1.228 8.663 5.054 8.663-5.054zm-15.22-2.386L19.521 14l8.663 5.053-8.663 5.054zm1.984 0 6.678 3.896 6.678-3.896-6.678-3.896z"/><path fill="none" d="M0 0h32v32H0z"/></svg>