<?xml version="1.0" encoding="UTF-8"?><svg id="icons" xmlns="http://www.w3.org/2000/svg" viewBox="0 0 24 24"><defs><style>.cls-1{fill:none;}</style></defs><rect class="cls-1" width="24" height="24"/><path d="M12.5,19.55884c-.2937-.13239-.60498-.26752-.95398-.39783l8.52014-8.52014c.22443.69104.40057,1.37726.53571,2.05023l-.95923.95923c.30945.14807.55896.39758.70703.70703l.45477-.45477c.11194.87427.1496,1.7077.11584,2.47009l-.42029.42029v.70703h1.30902c.38702-2.77338-.18695-6.63654-2.06-10.18555C16.9541,2.0166,11.58496,1.86426,9.91992,2.22852c-2.96289.65039-4.73633,3.30176-4.86816,7.27246-.02734.83203-1.125,2.75-2.14355,4.13281-1.1748,1.59375-.88379,2.87695-.57617,3.56836.29883.68457,1.21191,2.76562,4.83008,2.36426,2.41406-.27051,4.21777.56934,5.41211,1.12598.01337.00623.02411.01074.03735.01691-.07074-.26202-.11157-.51117-.11157-.71027v-.44019ZM10.06934,3.22363l-3.58331,3.58331c.49396-1.57587,1.5174-3.10126,3.58331-3.58331ZM6.05176,9.53418c.00958-.28979.03229-.61157.07037-.94928l5.45508-5.45508c.63116.03174,1.38983.14471,2.19525.39069L4.93445,12.35852c.58508-1.00592,1.09277-2.09003,1.11731-2.82434ZM3.21582,16.72754c-.10504-.23547-.20258-.61804-.12592-1.11041L14.8006,3.90643c.54468.24432,1.09229.56085,1.6228.96313L3.70923,17.58374c-.24438-.30731-.39203-.62323-.49341-.8562ZM6.70636,18.58661c-1.00592.06238-1.71808-.09644-2.22009-.36584l12.70135-12.70135c.41547.40387.81104.87061,1.17261,1.41333l-11.65387,11.65387ZM8.19092,18.51611l10.6936-10.6936c.30634.58405.57654,1.17816.81085,1.77509l-9.22516,9.22516c-.67847-.17688-1.43573-.29907-2.2793-.30664ZM23,19v.99896h-4v4.00104h-1v-4.00104h-4v-.99896h4v-4h1v4h4Z"/></svg>