<?xml version="1.0" encoding="UTF-8"?><svg id="icons" xmlns="http://www.w3.org/2000/svg" viewBox="0 0 16 16"><defs><style>.cls-1{fill:none;}</style></defs><rect class="cls-1" width="16" height="16"/><path d="M7.75,13v-1c0-.26465.10114-.49677.24194-.69897l-1.11023,1.11023c-.15118-.04138-.30103-.08014-.44421-.10559-.32617-.05762-.63281-.0791-.91895-.0791-.4201,0-.79431.04559-1.12256.08447l7.75073-7.75073c.3316.49023.63995,1.06183.90863,1.67731l-1.75427,1.75427c.20221-.14081.43427-.24188.69891-.24188h.95703l.48907-.48907c.07776.23053.1438.46576.20844.70099.34973.2218.59546.59406.59546,1.03809v1.75h.80798c.03302-2.70245-1.27686-5.79333-2.48474-7.29688C10.64355,1.05273,6.96582.41992,5.31348,1.58105c-1.41016.99023-1.74512,2.45117-2.06934,3.86328-.17773.77637-.36133,1.5791-.72852,2.27734-.16797.31934-.39062.61328-.60645.89746-.67285.88672-1.43457,1.8916-.3252,3.55371.91797,1.37598,1.94043,1.25098,2.92676,1.13184.53711-.06543,1.0918-.13281,1.75293-.01465.55408.09808,1.25354.38312,1.99548.68976-.30139-.22839-.50916-.57318-.50916-.9798ZM4.21973,5.66797c.30664-1.34082.57227-2.49902,1.66797-3.26855.63593-.44629,1.87061-.49744,3.12634-.12048L3.64594,7.64703c.26477-.65082.4234-1.32318.57379-1.97906ZM3.04694,12.24603c-.21515-.11084-.41559-.30493-.63092-.62787-.25-.37469-.36267-.67358-.38385-.9433l7.99054-7.99054c.54059.27484,1.04517.64142,1.48383,1.10211L3.04694,12.24603ZM9,10.75c-.26465,0-.4967.10107-.69891.24188l2.69086-2.69086c-.14081.20221-.24194.43433-.24194.69897v.95703l-.79297.79297h-.95703ZM16,12v1h-3v3h-1v-3h-3v-1h3v-3h1v3h3Z"/></svg>