<?xml version="1.0" encoding="UTF-8"?><svg id="icons" xmlns="http://www.w3.org/2000/svg" viewBox="0 0 24 24"><defs><style>.cls-1{fill:none;}</style></defs><path d="M19.74902,7.31445C16.9541,2.0166,11.58398,1.86426,9.91992,2.22852c-2.96289.65039-4.73633,3.30176-4.86816,7.27246-.02734.83203-1.125,2.75-2.14355,4.13281-1.1748,1.59375-.88379,2.87695-.57617,3.56836.29883.68457,1.20898,2.76562,4.83008,2.36426,2.41309-.27051,4.21777.56934,5.41211,1.12598.41602.19336.77441.36035,1.08301.44727l.13672.03906c.69043.19629,2.13477.60742,3.59375.60742,1.26855,0,2.54883-.31055,3.35547-1.34375,1.70898-2.19336,1.7168-7.99121-.99414-13.12793ZM10.06934,3.22363l-3.58331,3.58331c.49396-1.57587,1.5174-3.10126,3.58331-3.58331ZM6.05176,9.53418c.00958-.28979.03229-.61157.07037-.94928l5.45508-5.45508c.6311.03174,1.38977.14478,2.19519.39075L4.93445,12.35852c.58508-1.00592,1.09277-2.09003,1.11731-2.82434ZM3.21582,16.72754c-.10504-.23547-.20258-.61804-.12592-1.11041L14.80048,3.90656c.54474.24432,1.09229.56079,1.62286.96307L3.70898,17.58398c-.24426-.30737-.39172-.62341-.49316-.85645ZM6.70636,18.58661c-1.00623.06238-1.71844-.09625-2.2204-.36554l12.7016-12.7016c.41553.40387.81104.87061,1.17267,1.41327l-11.65387,11.65387ZM8.19092,18.51611l10.6936-10.6936c.30634.58405.57654,1.17816.81085,1.77509l-9.22516,9.22516c-.67847-.17688-1.43573-.29907-2.2793-.30664ZM13.34753,19.94543c-.11359-.05133-.22424-.10095-.35144-.16028-.41431-.19324-.89746-.41779-1.45007-.62415l8.52014-8.52014c.22443.69104.40057,1.37726.53571,2.05023l-7.25433,7.25433ZM19.9541,19.82715c-.46838.60059-1.20563.86029-2.01031.9361l2.77411-2.77411c-.16547.76337-.42059,1.39758-.76379,1.83801ZM16.55121,20.74176c-.83344-.09021-1.61768-.28564-2.15308-.43286l6.40631-6.40631c.11194.87427.1496,1.7077.11584,2.47009l-4.36908,4.36908Z"/><rect class="cls-1" width="24" height="24"/></svg>