<svg xmlns="http://www.w3.org/2000/svg" viewBox="0 0 32 32"><path fill="none" d="M0 0h32v32H0z"/><path d="M22.5 21.207 20.207 23.5H19c-.079 0-.155.011-.23.023l3.753-3.753a1.5 1.5 0 0 0-.023.23zm0 7.686c-2.512-.121-5.31-1.362-7.904-2.523-1.74-.777-3.444-.626-4.95-.492-1.076.097-2.004.178-2.8-.08-.95-.306-2.17-.895-3.173-2.737-1.02-1.874-.712-3.192.008-4.38l-.035-.035.15-.149c.277-.428.602-.842.933-1.262.597-.757 1.215-1.542 1.696-2.536.597-1.124.726-2.368.862-3.686.238-2.317.485-4.712 3.266-6.465 4.205-2.65 9.26-1.63 13.518 2.731 2.49 2.763 4.188 6.796 4.672 11.08.214 1.886.163 3.642-.106 5.141h-1.844l.975-.975a17 17 0 0 0 .084-2.67L26.5 21.207V20c0-.064-.011-.126-.019-.188l1.269-1.269c-.08-.727-.208-1.47-.37-2.216l-2.192 2.192c-.062-.008-.124-.019-.188-.019h-1c-.079 0-.155.012-.23.023l3.333-3.333a21 21 0 0 0-.634-1.952L14.454 25.253c.183.065.366.122.55.205q.633.284 1.268.563l1.251-1.251a1.5 1.5 0 0 0-.023.23v1c0 .064.011.126.019.188l-.257.257c.12.05.236.089.356.137A1.5 1.5 0 0 0 19 27.5h1.207c.754.212 1.487.354 2.186.4l.107-.107zM8.433 9.86l5.655-5.655a8.4 8.4 0 0 0-3.002 1.189C9.18 6.596 8.676 8.162 8.433 9.86m-.985 4.985 10.41-10.41a8.5 8.5 0 0 0-2.232-.354l-7.383 7.383c-.121 1.14-.293 2.296-.795 3.381m-3.16 7.16L20.59 5.704a11.5 11.5 0 0 0-1.69-.895L4.588 19.118c-.552.875-.769 1.72-.3 2.887m18.54-14.54q-.693-.654-1.403-1.183L4.768 22.94c.399.635.819 1.058 1.236 1.349L22.827 7.466zm1.807 2.193a15 15 0 0 0-1.113-1.473L6.936 24.77l.217.077c.568.184 1.346.126 2.245.047zM13.349 24.944 26.052 12.24a18 18 0 0 0-.87-1.717L10.917 24.792c.196-.009.388-.022.59-.022.59 0 1.21.05 1.843.174zM24 25h-5v1h5v5h1v-5h5v-1h-5v-5h-1z"/></svg>