<?xml version="1.0" encoding="UTF-8"?><svg id="icons" xmlns="http://www.w3.org/2000/svg" viewBox="0 0 16 16"><defs><style>.cls-1{fill:none;}</style></defs><path d="M12.57324,3.45312C10.64258,1.05273,6.96582.41992,5.31348,1.58105c-1.41016.99023-1.74512,2.45117-2.06934,3.86328-.17773.77637-.36133,1.5791-.72852,2.27734-.16797.32031-.40137.60547-.62695.88184-.68945.84766-1.47266,1.80859-.19531,3.58398.95508,1.32812,1.92188,1.21484,2.85742,1.10742.51367-.05957,1.04785-.12305,1.71289-.00488.56934.10156,1.28906.3877,2.05078.69043,1.1709.46484,2.43848.96875,3.5625.96875.70801,0,1.3584-.19922,1.89355-.7334,2.3584-2.35449.89941-8.15234-1.19727-10.7627ZM4.21973,5.66797c.30664-1.34082.57227-2.49902,1.66797-3.26855.6355-.44635,1.87018-.49744,3.12616-.1203L3.64594,7.64703c.26477-.65082.4234-1.32318.57379-1.97906ZM3.10187,12.1911c-.1947-.11365-.38525-.29413-.59601-.58759-.27478-.38208-.41058-.68079-.45905-.9433l7.97571-7.97571c.54059.27484,1.04517.64136,1.48395,1.10199L3.10187,12.1911ZM6.4375,12.30566c-.33789-.06055-.65039-.08105-.93848-.08105-.40137,0-.75488.04102-1.06445.07715-.01166.00134-.02136.00226-.03284.00354l7.7428-7.7428c.32666.49084.62988,1.06824.89191,1.69403l-6.1532,6.1532c-.15198-.04089-.30206-.07849-.44574-.10406ZM8.68359,13.05078c-.25214-.10022-.49774-.19604-.73962-.28772l5.46985-5.46985c.22137.68945.38782,1.40356.48199,2.10394l-4.0849,4.0849c-.37811-.13525-.75836-.28455-1.12732-.43127ZM13.06348,13.50879c-.50574.50464-1.29236.50323-2.16461.29938l3.08142-3.08142c-.01605,1.14301-.28412,2.15033-.91681,2.78204Z"/><rect class="cls-1" width="16" height="16"/></svg>