<?xml version="1.0" encoding="UTF-8"?><svg id="icons" xmlns="http://www.w3.org/2000/svg" viewBox="0 0 32 32"><defs><style>.cls-1{fill:none;}</style></defs><path d="M28.74316,18.3584c-.48438-4.2832-2.18164-8.31641-4.67188-11.0791-4.25977-4.36133-9.31348-5.38086-13.51855-2.73145-2.78027,1.75293-3.02734,4.14844-3.26562,6.46484-.13574,1.31836-.26465,2.5625-.8623,3.68652-.48047.99414-1.09863,1.77832-1.69629,2.53613-.33063.4198-.65564.8338-.93286,1.26196l-.14917.14917.03491.03491c-.72046,1.18768-1.02844,2.50555-.00854,4.37915,1.03027,1.8916,2.72949,2.39844,3.5459,2.64258,1.1084.33008,2.1377.24219,3.13184.1543,1.27539-.11035,2.59375-.22461,4.24512.5127,2.72949,1.22168,5.68945,2.54688,8.29883,2.5459,1.50879,0,2.90039-.44238,4.0625-1.60449,1.55078-1.55078,2.23535-4.98145,1.78613-8.95312ZM11.08594,5.39355c.96619-.60846,1.97333-1.00262,3.00238-1.1889l-5.65558,5.65558c.24286-1.69812.74768-3.2644,2.6532-4.46667ZM8.24323,11.46381l7.38293-7.38293c.73993.01361,1.48627.13391,2.23254.35339L7.44757,14.8454c.50244-1.08533.67438-2.24213.79565-3.38159ZM4.28827,22.0047c-.46826-1.16699-.25128-2.01166.30115-2.88708l14.30908-14.30908c.56653.23901,1.13062.53943,1.69049.89545L4.28827,22.0047ZM4.77301,22.93402L21.42487,6.28217c.47266.35297.94067.7467,1.40253,1.18341L6.11285,24.18011c-.48676-.27606-.94983-.66498-1.33984-1.24609ZM9.37042,24.92255c-.62335.02942-1.2359.00989-1.86652-.17841-.13489-.04022-.27222-.0835-.41058-.13043L23.52222,8.18481c.40198.46503.76935.95966,1.1123,1.47363l-15.2641,15.2641ZM11.7793,24.77637c-.30536,0-.59778.01526-.88373.0351l14.28711-14.28711c.32196.55469.60803,1.12958.86957,1.71637l-12.68994,12.68994c-.55939-.11243-1.08582-.1543-1.58301-.1543ZM15.00391,25.45801c-.18805-.08417-.36591-.1424-.54675-.20813l12.0119-12.0119c.24548.64368.45508,1.29602.63403,1.9519l-10.83081,10.83081c-.42303-.18542-.84637-.37384-1.26837-.56268ZM17.26166,26.44537l10.11865-10.11865c.16138.74701.28943,1.48969.36926,2.21667l-8.62042,8.62042c-.61475-.21246-1.23865-.45563-1.86749-.71844ZM26.25,26.60449c-.6911.69135-1.49438,1.07135-2.37598,1.22852l3.57471-3.57471c-.27478,1.00714-.6756,1.82306-1.19873,2.34619ZM27.76782,22.52515l-5.37451,5.37451c-.69965-.0459-1.43219-.18774-2.18719-.39874l7.64606-7.64606c.0426.94556.00989,1.84113-.08435,2.67029Z"/><rect class="cls-1" width="32" height="32"/></svg>