<?xml version="1.0" encoding="UTF-8"?><svg id="icons" xmlns="http://www.w3.org/2000/svg" viewBox="0 0 32 32"><defs><style>.cls-1{fill:none;}</style></defs><rect class="cls-1" width="32" height="32"/><path d="M22.5,21.20703l-2.29297,2.29297h-1.20703c-.07886,0-.15466.01147-.23029.02325l3.75354-3.75354c-.01178.07562-.02325.15143-.02325.23029v1.20703ZM22.5,28.89258c-2.51154-.12079-5.31024-1.36139-7.9043-2.52246-1.73926-.77734-3.44336-.62598-4.9502-.49219-1.0752.09668-2.00391.17773-2.7998-.0791-.94922-.30664-2.16895-.89551-3.17285-2.73828-1.0199-1.8736-.71191-3.19147.00854-4.37915l-.03491-.03491.14917-.14917c.27722-.42816.60223-.84216.93286-1.26196.59766-.75781,1.21582-1.54199,1.69629-2.53613.59766-1.12402.72656-2.36816.8623-3.68652.23828-2.31641.48535-4.71191,3.26562-6.46484,4.20508-2.64941,9.25977-1.62988,13.51855,2.73145,2.49023,2.7627,4.1875,6.7959,4.67188,11.0791.21338,1.88666.16333,3.64264-.10626,5.1416h-1.84393l.97485-.97485c.09424-.82916.12695-1.72473.08435-2.67029l-1.35217,1.35217v-1.20703c0-.06439-.01105-.12579-.01898-.18805l1.26855-1.26855c-.07983-.72699-.20789-1.46967-.36926-2.21667l-2.19226,2.19226c-.06226-.00793-.12366-.01898-.18805-.01898h-1c-.07886,0-.15466.01147-.23029.02325l3.33337-3.33337c-.17896-.65588-.38855-1.30823-.63403-1.9519l-12.01526,12.01526c.18317.06506.36578.12219.55011.20477.422.18884.8454.3772,1.26849.56256l1.25085-1.25085c-.01178.07562-.02325.15143-.02325.23029v1c0,.06439.01105.12579.01898.18805l-.2572.2572c.11981.05011.23645.08832.3559.1369.22778.53876.76154.91785,1.38232.91785h1.20703l-.00073.00073c.75494.211,1.48749.35291,2.18707.39886l.10663-.10663v1.09961ZM8.43274,9.86023l5.65564-5.65564c-1.02917.18628-2.03632.58044-3.00244,1.18896-1.90552,1.20227-2.41034,2.76855-2.6532,4.46667ZM7.44757,14.8454l10.41107-10.41107c-.74628-.21942-1.49261-.33972-2.23254-.35339l-7.38287,7.38287c-.12128,1.13947-.29321,2.29626-.79565,3.38159ZM4.28827,22.0047L20.58899,5.70398c-.55994-.35596-1.12408-.65637-1.69055-.89539l-14.30902,14.30902c-.55243.87543-.76941,1.72009-.30115,2.88708ZM22.82739,7.46558c-.46185-.43671-.92987-.83044-1.40253-1.18341L4.76752,22.93951c.39911.63568.81915,1.05872,1.23651,1.34943L22.82739,7.46558ZM24.63452,9.65845c-.34296-.51398-.71033-1.00861-1.1123-1.47363L6.93628,24.77075c.07281.02667.146.05396.21704.0769.56812.18414,1.34601.12659,2.24451.04749l15.23669-15.23669ZM13.34943,24.94354l12.70282-12.70282c-.26154-.58679-.54761-1.16168-.86957-1.71637l-14.26715,14.26715c.19617-.00842.38818-.021.59131-.021.59009,0,1.20905.04944,1.84259.17303ZM24,25h-5v1h5v5h1v-5h5v-1h-5v-5h-1v5Z"/></svg>