<?xml version="1.0" encoding="UTF-8"?><svg id="icons" xmlns="http://www.w3.org/2000/svg" viewBox="0 0 16 16"><defs><style>.cls-1{fill:none;}</style></defs><rect class="cls-1" width="16" height="16"/><path d="M16,3v4h-4v-1h2.39795c-.64026-.91742-3.04034-4-6.39795-4C4.07715,2,1.45312,6.21777,1.42676,6.26074l-.85352-.52051c.11719-.19336,2.93652-4.74023,7.42676-4.74023,3.54932,0,6.04803,2.83447,7,4.12054v-2.12054h1ZM3.12988,9.5498l.57031.66992,1.2998-1.06976v5.85004h1v-7h-.91132l-1.9588,1.5498ZM12.64098,10.13547c.08821.42728.1314.8812.1314,1.36453,0,.48976-.04319.94552-.1314,1.36913s-.22421.79391-.4089,1.11c-.18561.31701-.42085.56603-.7057.74797-.28577.18194-.62575.27291-1.02087.27291-.39604,0-.73786-.09097-1.02638-.27291s-.52468-.43095-.71029-.74797c-.18469-.31609-.32161-.6864-.4089-1.11-.08821-.4236-.13232-.87936-.13232-1.36913,0-.48333.04411-.93725.13232-1.36453.08729-.42636.22421-.79758.4089-1.1146.18561-.31701.42176-.56603.71029-.74797s.63035-.27291,1.02638-.27291c.39512,0,.7351.09097,1.02087.27291.28485.18194.52008.43095.7057.74797.18469.31701.32069.68824.4089,1.1146ZM11.84156,11.5c0-.2821-.0193-.58349-.05697-.90326s-.10659-.61657-.20675-.88947-.23707-.49803-.40982-.67721c-.17183-.17918-.39328-.26831-.66251-.26831-.27658,0-.50263.08913-.67813.26831s-.3115.40431-.4089.67721-.16448.5697-.20215.88947-.05697.62116-.05697.90326.0193.58349.05697.90326.10475.61473.20215.88488c.0974.26923.23339.49344.4089.67262.17551.17826.40155.26831.67813.26831.26923,0,.49068-.09005.66251-.26831.17275-.17918.30966-.40339.40982-.67262.10016-.27015.16907-.56511.20675-.88488s.05697-.62116.05697-.90326Z"/></svg>