<svg xmlns="http://www.w3.org/2000/svg" viewBox="0 0 16 16"><path d="M0 0h16v16H0z" style="fill:none"/><path d="M5.089 8H6v7H5V9.15l-1.3 1.07-.57-.67zM8 1C4.45 1 1.952 3.834 1 5.12V3H0v4h4V6H1.602c.64-.917 3.04-4 6.398-4 3.923 0 6.547 4.218 6.573 4.26l.854-.52C15.31 5.547 12.49 1 8 1m4.641 9.135q.131.641.131 1.365 0 .735-.131 1.37a3.7 3.7 0 0 1-.409 1.11q-.278.474-.706.747t-1.02.273-1.027-.273a2.15 2.15 0 0 1-.71-.748 3.7 3.7 0 0 1-.41-1.11 6.7 6.7 0 0 1-.131-1.369q0-.724.132-1.365.131-.639.409-1.114t.71-.748C9.911 8 10.11 8 10.505 8q.594 0 1.021.273.427.272.706.748.277.475.409 1.114m-.8 1.365q0-.423-.056-.903a4 4 0 0 0-.207-.89 1.9 1.9 0 0 0-.41-.677.88.88 0 0 0-.663-.268.9.9 0 0 0-.678.268q-.262.269-.409.677-.145.41-.202.89-.056.48-.057.903c0 .423.02.584.057.903q.057.48.202.885t.41.673a.9.9 0 0 0 .677.268q.405 0 .663-.268.26-.27.41-.673.15-.405.207-.885t.057-.903"/></svg>