<?xml version="1.0" encoding="UTF-8"?><svg id="icons" xmlns="http://www.w3.org/2000/svg" viewBox="0 0 32 32"><defs><style>.cls-1{fill:none;}</style></defs><rect class="cls-1" width="32" height="32"/><path d="M27.92041,11.22949l-.84082.54102c-.04346-.06738-4.44141-6.77051-11.07959-6.77051-5.27881,0-9.13184,4.23004-10.5141,6h5.5141v1h-7v-7h1v4.98932c1.68738-2.07092,5.59418-5.98932,11-5.98932,7.19043,0,11.73096,6.93457,11.92041,7.22949ZM9.12988,18.52057l.57031.66992,1.2998-1.0697v10.84998h1v-11.97076h-.91132l-1.9588,1.52057ZM19.01001,29c-5.26849,0-5.26849-12,0-12,5.24188,0,5.24188,12,0,12ZM19.01526,17.875c-3.99255,0-3.99255,10.25,0,10.25,3.95197,0,3.95197-10.25,0-10.25Z"/></svg>