<?xml version="1.0" encoding="UTF-8"?><svg id="icons" xmlns="http://www.w3.org/2000/svg" viewBox="0 0 32 32"><defs><style>.cls-1{fill:none;}</style></defs><rect class="cls-1" width="32" height="32"/><path d="M28,5v7h-7v-1h5.51379c-1.38214-1.76996-5.23535-6-10.51379-6-6.6377,0-11.03613,6.70312-11.0791,6.77051l-.8418-.54102c.19043-.29492,4.73047-7.22949,11.9209-7.22949,5.40582,0,9.31232,3.9184,11,5.98932v-4.98932h1ZM9.12988,18.52057l.57031.66992,1.2998-1.0697v10.84998h1v-11.97076h-.91132l-1.9588,1.52057ZM19.01001,29c-5.26849,0-5.26849-12,0-12,5.24188,0,5.24188,12,0,12ZM19.01526,17.875c-3.99255,0-3.99255,10.25,0,10.25,3.95197,0,3.95197-10.25,0-10.25Z"/></svg>