<?xml version="1.0" encoding="UTF-8"?><svg id="icons" xmlns="http://www.w3.org/2000/svg" viewBox="0 0 24 24"><defs><style>.cls-1{fill:none;}</style></defs><rect class="cls-1" width="24" height="24"/><path d="M22,4v4.99002l-4.991.00781-.00195-.98884,3.51773-.00519c-1.20117-1.56555-4.31-5.00381-8.52478-5.00381-5.42969,0-9.03906,5.70605-9.0752,5.76367l-.84961-.52734c.15723-.25391,3.93262-6.23633,9.9248-6.23633,4.34979,0,7.52252,3.14563,9,4.97083v-2.97083h1ZM6.12988,13.52057l.57031.66992,1.2998-1.0697v8.87921h1v-10h-.91132l-1.9588,1.52057ZM14.5083,22c-4.39038,0-4.39038-10,0-10,4.36823,0,4.36823,10,0,10ZM14.51178,12.92938c-3.08545,0-3.08545,8.14117,0,8.14117,3.05414,0,3.05414-8.14117,0-8.14117Z"/></svg>