<svg xmlns="http://www.w3.org/2000/svg" viewBox="0 0 16 16"><path d="M0 0h16v16H0z" style="fill:none"/><path d="M16 3v4h-4V6h2.398c-.64-.917-3.04-4-6.398-4-3.923 0-6.547 4.218-6.573 4.26l-.854-.52C.69 5.547 3.51 1 8 1c3.55 0 6.048 2.834 7 4.12V3zM3.13 9.55l.57.67L5 9.15V15h1V8h-.911zm9.511.585q.132.641.131 1.365 0 .735-.131 1.37c-.131.634-.224.793-.409 1.11q-.278.474-.706.747t-1.02.273q-.594 0-1.027-.273c-.433-.273-.525-.43-.71-.748a3.7 3.7 0 0 1-.41-1.11 6.7 6.7 0 0 1-.131-1.369q0-.724.132-1.365.131-.639.409-1.114t.71-.748C9.911 8 10.11 8 10.506 8q.593 0 1.02.273.427.272.706.748.277.475.409 1.114m-.8 1.365q0-.423-.056-.903c-.056-.48-.107-.617-.207-.89s-.237-.498-.41-.677a.88.88 0 0 0-.662-.268q-.415 0-.679.268c-.264.268-.311.404-.409.677s-.164.57-.202.89-.057.62-.057.903.02.583.057.903.105.615.202.885q.146.405.41.673a.9.9 0 0 0 .678.268q.404 0 .662-.268.26-.27.41-.673.15-.405.207-.885c.057-.48.057-.62.057-.903"/></svg>