<?xml version="1.0" encoding="UTF-8"?><svg id="icons" xmlns="http://www.w3.org/2000/svg" viewBox="0 0 32 32"><defs><style>.cls-1{fill:none;}</style></defs><path d="M23.63867,1l-.63867.76953,2.99036,2.38757c-5.14526.52551-9.81189,2.63391-13.51398,5.8429h-2.47638v2.47845c-3.21136,3.70337-5.3186,8.37305-5.84283,13.52155h-1.15717v3h3v-3h-.86493c.52765-4.95471,2.60529-9.4494,5.73303-13h2.1319v-2.11249c3.52771-3.10736,7.98364-5.16791,12.90009-5.7135l-2.90009,3.14435.73145.68164,4.20117-4.54688-4.29395-3.45312ZM4,27h1v1h-.91486c-.04919-.02069-.08582-.02887-.08514,0v-1ZM12,12h-1v-1h1v1Z"/><rect class="cls-1" width="32" height="32"/></svg>