<?xml version="1.0" encoding="UTF-8"?><svg id="icons" xmlns="http://www.w3.org/2000/svg" viewBox="0 0 16 16"><defs><style>.cls-1{fill:none;}</style></defs><rect class="cls-1" width="16" height="16"/><path d="M5.08868,8h.91132v7h-1v-5.85004l-1.2998,1.06976-.57031-.66992,1.9588-1.5498ZM8,1C4.45068,1,1.95233,3.83441,1,5.12054v-2.12054H0v4h4v-1H1.60205c.64014-.91742,3.03998-4,6.39795-4,3.92334,0,6.54688,4.21777,6.57324,4.26074l.854-.52051c-.11816-.19336-2.93701-4.74023-7.42725-4.74023ZM12.64099,10.13544c.0882.42731.13141.88123.13141,1.36456,0,.48975-.04321.9455-.13141,1.36914-.0882.42358-.22424.79388-.40894,1.10999-.18561.31702-.42084.56604-.70569.74792-.28577.18195-.62573.27295-1.02087.27295-.396,0-.73785-.091-1.02637-.27295-.28851-.18188-.52466-.43091-.71027-.74792-.18469-.3161-.32166-.6864-.40894-1.10999-.0882-.42365-.13232-.87939-.13232-1.36914,0-.48334.04413-.93726.13232-1.36456.08728-.42633.22424-.79755.40894-1.11456.18561-.31702.42175-.56604.71027-.74799s.63037-.27289,1.02637-.27289c.39514,0,.73511.09094,1.02087.27289.28485.18195.52008.43097.70569.74799.18469.31702.32074.68823.40894,1.11456ZM11.84155,11.5c0-.2821-.01929-.5835-.05695-.90326-.03772-.31976-.10663-.61658-.20679-.88947-.10016-.27295-.23706-.49805-.40979-.67725-.17181-.17914-.39331-.26831-.66254-.26831-.27655,0-.50262.08917-.6781.26831-.17554.1792-.31152.4043-.40894.67725-.09735.27289-.16443.5697-.20215.88947-.03766.31976-.05695.62115-.05695.90326s.01929.5835.05695.90326c.03772.31976.1048.61469.20215.88489.09741.26923.2334.49341.40894.67261.17548.17822.40155.26831.6781.26831.26923,0,.49072-.09009.66254-.26831.17273-.1792.30963-.40338.40979-.67261.10016-.2702.16907-.56512.20679-.88489.03766-.31976.05695-.62115.05695-.90326Z"/></svg>