<?xml version="1.0" encoding="UTF-8"?><svg id="icons" xmlns="http://www.w3.org/2000/svg" viewBox="0 0 24 24"><defs><style>.cls-1{fill:none;}</style></defs><rect class="cls-1" width="24" height="24"/><path d="M21.9248,8.23633l-.84961.52734c-.03564-.05762-3.64551-5.76367-9.0752-5.76367-4.22101,0-7.33307,3.43933-8.53021,5.00165l3.52219.00519-.00195.991-4.99002-.00781v-4.99002h1v2.97113c1.47742-1.82513,4.64996-4.97113,9-4.97113,5.99219,0,9.76709,5.98242,9.9248,6.23633ZM6.12988,13.52057l.57031.66992,1.2998-1.0697v8.87921h1v-10h-.91132l-1.9588,1.52057ZM14.5083,22c-4.39038,0-4.39038-10,0-10,4.36823,0,4.36823,10,0,10ZM14.51178,12.92938c-3.08545,0-3.08545,8.14117,0,8.14117,3.05414,0,3.05414-8.14117,0-8.14117Z"/></svg>