<svg xmlns="http://www.w3.org/2000/svg" viewBox="0 0 32 32"><path d="M0 0h32v32H0z" style="fill:none"/><path d="M15.232 26.674C8.304 22.277 7 16.057 7 10.667c0-1.007.039-1.738.076-2.467 3.35-.39 5.718-.997 8.424-2.826 2.017 1.363 4.194 2.337 8.004 2.777l-.115.995c-3.236-.375-5.753-1.194-7.889-2.569-2.043 1.316-4.435 2.121-7.467 2.517-.25 5.761.565 12.185 7.735 16.736zM14.5 28.55C6.111 23.4 4.363 15.985 5.217 6.33c4.076-.214 7.342-.907 10.283-3.528 2.94 2.621 6.201 3.314 10.283 3.527.214 2.415.303 4.764.077 7.178.242-.005.446-.018 1.017.06.086-.96.123-1.921.123-2.88 0-2.07-.161-3.77-.297-5.311-4.894-.253-7.74-.682-11.203-3.939-3.466 3.26-6.265 3.683-11.203 3.939C4.16 6.921 4.01 8.515 4 10.475c-.036 7.011 1.855 14.228 10.5 19.258zM29 18.5a1.5 1.5 0 1 1-3 0 1.5 1.5 0 0 1 3 0m-1 0a.501.501 0 0 0-1 0 .501.501 0 0 0 1 0m3 1.5a5 5 0 0 1-5 5c-.53 0-1.03-.105-1.51-.258L23.232 26H22v1.233l-.767.767H20v1.234l-.756.756-.022.01H16v-2.273l5.53-5.53A4.95 4.95 0 0 1 21 20a5 5 0 0 1 10 0m-1 0c0-2.206-1.794-4-4-4s-4 1.794-4 4c0 .883.297 1.693.784 2.356L17 28.14V29h1.82l.18-.18V27h1.82l.18-.18V25h1.818l1.424-1.425A3.95 3.95 0 0 0 26 24c2.206 0 4-1.794 4-4"/></svg>