<svg xmlns="http://www.w3.org/2000/svg" viewBox="0 0 16 16"><path d="M13.82 2.21C10.604 2.036 9.425 1.779 7.5.02 5.494 1.853 4.266 2.043 1.18 2.21l-.07.74A24 24 0 0 0 1 5.313c.015 5.392 2.225 8.383 6.5 10.677.019-.01.482-.258.5-.27v-1.16c-.16.1-.33.2-.5.29C2.13 11.89 1.74 7.3 2.1 3.17c2.41-.14 4.18-.73 5.4-1.79 1.22 1.06 2.99 1.65 5.4 1.79.14 1.61.17 3.29-.17 4.92.313-.075.815-.12 1.04-.07.168-.918.229-1.848.23-2.77 0-1.267-.092-2.113-.18-3.04M7.201 12.296c-2.19-1.622-3.175-3.751-3.2-6.902L4 4.978l.404-.08A10.5 10.5 0 0 0 7.5 3.815c.9.47 1.76.824 3.096 1.083l-.19.983A11.8 11.8 0 0 1 7.5 4.938c-.747.364-1.582.65-2.491.856.096 2.613.944 4.333 2.789 5.7zM13.5 9.05a2.45 2.45 0 0 0-2.45 2.45c0 .246.047.48.115.704L9 14.5V16h2.3l1.974-2.073c.076.007.149.023.226.023a2.45 2.45 0 0 0 0-4.9m0 3.95c-.177 0-.344-.036-.502-.093L10.986 15H10v-.103l2.33-2.47A1.5 1.5 0 0 1 12 11.5c0-.827.673-1.5 1.5-1.5s1.5.673 1.5 1.5-.673 1.5-1.5 1.5m-.5-2h1v1h-1z"/><path d="M0 0h16v16H0z" style="fill:none"/></svg>