<svg xmlns="http://www.w3.org/2000/svg" viewBox="0 0 24 24"><path d="M0 0h24v24H0z" style="fill:none"/><path d="m19.84 4.72-.08-.87-.87-.04C14.275 3.587 12.696 2.386 11 .84 8.192 3.4 6.108 3.672 2.24 3.85 2.123 5.124 2 6.358 2 7.985c0 5.108 1.403 10.344 7.5 14.105V20.9C3.06 16.6 2.65 10.4 3.16 4.81c1.78-.09 3.3-.35 4.61-.78C9.07 3.6 10.14 2.99 11 2.2c.86.79 1.93 1.4 3.23 1.83 1.31.43 2.83.69 4.61.78.09 1.03.16 2.08.16 3.13 0 .52-.02 1.04-.05 1.56H19c.32 0 .64.03.95.09q.052-.804.05-1.607c0-1.1-.062-2.193-.16-3.263M11 5.87c-1.41.8-3.05 1.35-5 1.66-.08 5.16 1.48 8.42 5.16 10.87l-.71.73c-4.62-3.142-5.548-7.092-5.42-12.47 2.345-.335 4.045-.765 5.97-1.95 1.397.86 2.997 1.527 5.55 1.89l-.14.99c-2.12-.3-3.9-.86-5.41-1.72M19 11a4 4 0 0 0-4 4c0 .471.096.917.246 1.336L11 20.726V23h2.993l.023-.01L15 22v-1h1.005L17 20v-1h1.004l.107-.107c.287.065.582.107.889.107a4 4 0 0 0 0-8m0 7c-.436 0-.849-.098-1.223-.267l-.272.267H16v2h-2v1.674l-.408.326H12v-.906l4.419-4.591A2.97 2.97 0 0 1 16 15c0-1.654 1.346-3 3-3s3 1.346 3 3-1.346 3-3 3m.5-5a1.5 1.5 0 1 0 0 3 1.5 1.5 0 0 0 0-3m0 2a.501.501 0 0 1 0-1 .501.501 0 0 1 0 1"/></svg>