<svg xmlns="http://www.w3.org/2000/svg" viewBox="0 0 24 24"><path d="M10.372 2H2.628A.63.63 0 0 0 2 2.628v7.744a.63.63 0 0 0 .628.628h7.744a.63.63 0 0 0 .628-.628V2.628A.63.63 0 0 0 10.372 2M10 10H3V3h7zm12.65 7.125-4.792-4.793a.5.5 0 0 0-.707 0l-4.793 4.793a.5.5 0 0 0 0 .707l4.793 4.793a.5.5 0 0 0 .707 0l4.793-4.793a.5.5 0 0 0 0-.707zm-5.146 4.44-4.086-4.086 4.086-4.086 4.086 4.086zM6.5 13a4.5 4.5 0 1 0 4.5 4.5A4.49 4.49 0 0 0 6.5 13m0 8a3.5 3.5 0 1 1 3.491-3.5A3.5 3.5 0 0 1 6.5 21m11-19A4.5 4.5 0 1 0 22 6.5 4.49 4.49 0 0 0 17.5 2m0 8a3.5 3.5 0 1 1 3.491-3.5A3.5 3.5 0 0 1 17.5 10"/><path fill="none" d="M0 0h24v24H0z"/></svg>