<svg xmlns="http://www.w3.org/2000/svg" viewBox="0 0 16 16"><path d="M6.428 0H.572A.572.572 0 0 0 0 .572v5.857A.571.571 0 0 0 .572 7h5.856A.571.571 0 0 0 7 6.43V.571A.572.572 0 0 0 6.428 0zM6 6H1V1h5zM12.5.1a3.4 3.4 0 1 0 3.396 3.4A3.402 3.402 0 0 0 12.5.1zm0 5.829A2.429 2.429 0 1 1 14.923 3.5 2.433 2.433 0 0 1 12.5 5.929zM3.5 9.1a3.4 3.4 0 1 0 3.4 3.4 3.4 3.4 0 0 0-3.4-3.4zm0 5.829A2.429 2.429 0 1 1 5.929 12.5 2.431 2.431 0 0 1 3.5 14.929zm12.257-3.274l-3.412-3.412a.488.488 0 0 0-.69 0l-3.412 3.412a.488.488 0 0 0 0 .69l3.412 3.412a.488.488 0 0 0 .69 0l3.412-3.412a.488.488 0 0 0 0-.69zM12 14.72L9.279 12 12 9.279 14.721 12z" fill-rule="evenodd"/><path fill="none" d="M0 0h16v16H0z"/></svg>