<svg xmlns="http://www.w3.org/2000/svg" viewBox="0 0 16 16"><path fill-rule="evenodd" d="M6.428 0H.572A.57.57 0 0 0 0 .572v5.857A.57.57 0 0 0 .572 7h5.856A.57.57 0 0 0 7 6.43V.571A.57.57 0 0 0 6.428 0M6 6H1V1h5zM12.5.1a3.4 3.4 0 1 0 3.396 3.4A3.4 3.4 0 0 0 12.5.1m0 5.829A2.429 2.429 0 1 1 14.923 3.5 2.433 2.433 0 0 1 12.5 5.929M3.5 9.1a3.4 3.4 0 1 0 3.4 3.4 3.4 3.4 0 0 0-3.4-3.4m0 5.829A2.429 2.429 0 1 1 5.929 12.5 2.43 2.43 0 0 1 3.5 14.929m12.257-3.274-3.412-3.412a.49.49 0 0 0-.69 0l-3.412 3.412a.49.49 0 0 0 0 .69l3.412 3.412a.49.49 0 0 0 .69 0l3.412-3.412a.49.49 0 0 0 0-.69M12 14.72 9.279 12 12 9.279 14.721 12z"/><path fill="none" d="M0 0h16v16H0z"/></svg>