<svg xmlns="http://www.w3.org/2000/svg" viewBox="0 0 16 16"><path d="M14.456 2.117a1.76 1.76 0 0 0-1.676-1.052c-1.646.162-1.713 1.5-1.772 2.68a7 7 0 0 1-.555 2.794 3.3 3.3 0 0 0-1.86-.554c-2.986 0-4.445 1.982-4.563 3.043a2.28 2.28 0 0 0 .412 1.672.5.5 0 0 0 .075.058q-.493.133-1.017.242H2v3.01l1.302-.027a5.5 5.5 0 0 0 3.384 1.022 7.6 7.6 0 0 0 1.294-.112 6.54 6.54 0 0 0 2.914-1.237 3.7 3.7 0 0 1-.615 1.365.5.5 0 0 0 .164.886 1.3 1.3 0 0 0 .348.045 3.24 3.24 0 0 0 2.314-1.431 4.14 4.14 0 0 0 .45-4.425c1.776-2.587 1.925-6.159.9-7.979zm-2.45 1.678c.069-1.364.151-1.664.871-1.733.309-.042.557.279.707.545.722 1.284.756 4.268-.64 6.587a5 5 0 0 0-1.1-.892 3.7 3.7 0 0 0-.625-1.069 7.6 7.6 0 0 0 .788-3.438zM5.025 9.138c.07-.633 1.198-2.153 3.57-2.153a2.33 2.33 0 0 1 1.871.899A6.8 6.8 0 0 0 5.017 9.44a1.7 1.7 0 0 1 .007-.302zm3.492-.214a11.1 11.1 0 0 1-3.122 1.573 5.2 5.2 0 0 1 3.122-1.573M11.13 11.9a4.61 4.61 0 0 1-3.32 2.008 5.1 5.1 0 0 1-3.831-.675v-.166c2.611-.003 5.037-.085 6.371-1.712l-.773-.635c-1.047 1.277-3.137 1.347-5.598 1.348v-.164a12.3 12.3 0 0 0 6.144-3.04c.25.02.515.065.78.112a9.1 9.1 0 0 1 .292 2.794q-.03.066-.065.13m1.178 2.017a3.4 3.4 0 0 1-.662.665 9.6 9.6 0 0 0 .448-4.849 2.7 2.7 0 0 1 .422.522 3.17 3.17 0 0 1-.208 3.662"/><path fill="none" d="M0 0h16v16H0z"/></svg>