<svg xmlns="http://www.w3.org/2000/svg" viewBox="0 0 24 24"><path d="M22 6.5C22 3.21 20.86 1 19.166 1c-1.572 0-1.837 1.553-2.118 3.196a10.7 10.7 0 0 1-1.404 4.25 4.72 4.72 0 0 0-3.403-1.418 6.5 6.5 0 0 0-4.877 1.696A5.32 5.32 0 0 0 6 12.567v.933l.884.32A8.07 8.07 0 0 1 13.5 11l.212.003A18 18 0 0 1 4.506 16H3v2.98l1.434.06A13.2 13.2 0 0 0 9.5 20a11.78 11.78 0 0 0 7.19-2.47 18.2 18.2 0 0 1-1.613 4.46l.3.729a1.7 1.7 0 0 0 .452.058c1.924 0 5.108-2.999 5.108-6.417a5.7 5.7 0 0 0-.823-2.898A13.4 13.4 0 0 0 22 6.5m-3.966-2.135C18.327 2.648 18.5 2 19.166 2 20.229 2 21 3.893 21 6.5a12.5 12.5 0 0 1-1.516 6.06 6.2 6.2 0 0 0-1.868-1.595l-.57-.419a6.4 6.4 0 0 0-.735-1.316 11.05 11.05 0 0 0 1.723-4.865M6.996 12.261a4.22 4.22 0 0 1 1.089-2.844 5.56 5.56 0 0 1 4.156-1.389 4.04 4.04 0 0 1 3.477 2.086A18 18 0 0 0 13.5 10a9.25 9.25 0 0 0-6.504 2.26zM4 18.02v-1.024l.59-.004c.123-.02.248-.057.373-.082l-.024 1.244c-.065-.026-.136-.045-.2-.072zm5.5.98a12.8 12.8 0 0 1-3.568-.5l.008-.425c.266.009.486.01.635.01 3.94 0 7.282-1.195 9.415-3.367l-.714-.701c-1.942 1.98-5.032 3.069-8.7 3.069-.145 0-.358-.002-.617-.011l.007-.383a19.77 19.77 0 0 0 9.091-5.636 11 11 0 0 1 1.22.166l.652.48a14 14 0 0 1 .18 2.211 16 16 0 0 1-.148 2.107A10.92 10.92 0 0 1 9.5 19m6.851 2.679a19.1 19.1 0 0 0 1.759-7.766c0-.483-.023-.964-.066-1.424a5.26 5.26 0 0 1 1.893 3.871 6.21 6.21 0 0 1-3.586 5.319"/><path fill="none" d="M0 0h24v24H0z"/></svg>