<svg xmlns="http://www.w3.org/2000/svg" viewBox="0 0 24 24"><path d="M23 13H13v10h10zm-9 9v-5h5v2h-2v1h2v2zm8 0h-2v-5h2zm0-6h-8v-2h8zM11 1H1v10h10zm-.519 7.085-.1-.008c-.133-.01-.252-.039-.381-.056V10H5.956c.019.067.043.13.058.2H4.981c-.023-.071-.062-.131-.089-.2H2V7.266l-.108-.046-.093-.035-.166-1.129.367.138V2h2.053a7 7 0 0 1-.094-.422l-.016-.1.989-.155.015.1c.007.04.042.254.126.577H10v5.014c.152.024.299.054.46.067l.1.008zm-.021-1.004.1.008-.079.996-.1-.008c-.133-.01-.252-.039-.381-.056C5.759 7.455 4.385 3.332 4.053 2a7 7 0 0 1-.094-.422l-.016-.1.989-.155.015.1c.007.04.042.254.126.577C5.42 3.328 6.603 6.488 10 7.014c.152.024.299.054.46.067M5.956 10c.019.067.043.13.058.2H4.981c-.023-.071-.062-.131-.089-.2A5.65 5.65 0 0 0 2 7.266l-.108-.046-.093-.035-.166-1.129.611.229c.14.052 2.995 1.168 3.712 3.715M23 9V1H13v10h10zm-1-7v6h-4V7h2V5h1V2zm-3 3v1h-5V4h3v1zm1-3v2h-2V2zm-6 0h3v1h-3zm0 8V7h3v2h5v1zM1 23h10V13H1zm1-1v-1.614A4.1 4.1 0 0 0 3.313 20a2.44 2.44 0 0 0 .6-1.413c.125-1.22.36-1.595 1.65-1.586a1.98 1.98 0 0 1 1.8 1.003c1.01.879 1.552 1.282 2.292 1.048a3 3 0 0 1 .345-.08V22zm8-8v3.937a9 9 0 0 0-.646.161c-.501.159-.765-.247-1.528-.99a2.74 2.74 0 0 0-2.224-1.066 2.54 2.54 0 0 0-2.39 1.045c-.306.453.01 1.248-.5 2.038a1.2 1.2 0 0 1-.712.192V14z"/><path fill="none" d="M0 0h24v24H0z"/></svg>