<svg xmlns="http://www.w3.org/2000/svg" viewBox="0 0 32 32"><path d="M16 30a3 3 0 0 1-3-3h1a2 2 0 0 0 4 0h1a3 3 0 0 1-3 3m9-9v-7a9 9 0 0 0-.219-1.953l-.864.865A8 8 0 0 1 24 14v7a5 5 0 0 0 2.003 4H11.828l-1 1H29v-1a4 4 0 0 1-4-4M4.48 30.228l-.354-.354-.354-.353L7.292 26H3v-1a4 4 0 0 0 4-4v-7a9 9 0 0 1 7.372-8.845 2 2 0 1 1 3.257 0 9 9 0 0 1 6.16 4.35l4.732-4.733.353.354.354.353zM16 5a1 1 0 1 0-1-1 1 1 0 0 0 1 1M8.293 25l14.763-14.763A7.998 7.998 0 0 0 8 14v7a5 5 0 0 1-2.003 4z"/><path fill="none" d="M0 0h32v32H0z"/></svg>