<svg xmlns="http://www.w3.org/2000/svg" viewBox="0 0 32 32"><path d="M16 5.5A2.5 2.5 0 1 1 18.5 8 2.5 2.5 0 0 1 16 5.5m-1.042 19.02a1.545 1.545 0 0 0 1.021 1.688c.73.104 1.23-.25 1.452-1.211.034-.145 1.173-6.518 1.173-6.518l-3.979-2.146 2.823-4.087L19.498 15H24a1 1 0 0 0 0-2h-3.498l-2.434-3.27a1.6 1.6 0 0 0-.48-.551 1 1 0 0 0-.11-.083l-1.107-.765a1.685 1.685 0 0 0-2.194.595l-4.09 6.534a1 1 0 0 0 .367 1.408l5.114 2.8zM29.8 24.5a5.3 5.3 0 1 1-5.3-5.3 5.3 5.3 0 0 1 5.3 5.3m-1.8 0a3.5 3.5 0 1 0-3.5 3.5 3.504 3.504 0 0 0 3.5-3.5m-15.2 0a5.3 5.3 0 1 1-5.3-5.3 5.3 5.3 0 0 1 5.3 5.3m-1.8 0A3.5 3.5 0 1 0 7.5 28a3.504 3.504 0 0 0 3.5-3.5"/><path fill="none" d="M0 0h32v32H0z"/></svg>