<svg xmlns="http://www.w3.org/2000/svg" viewBox="0 0 24 24"><path d="M13.75 13h-1.5c-.69 0-1.25.56-1.25 1.25v5.5c0 .69.56 1.25 1.25 1.25h1.5c.69 0 1.25-.56 1.25-1.25v-5.5c0-.69-.56-1.25-1.25-1.25m.25 6.75a.25.25 0 0 1-.25.25h-1.5a.25.25 0 0 1-.25-.25v-5.5a.25.25 0 0 1 .25-.25h1.5a.25.25 0 0 1 .25.25zM6 20h1v1H4v-1h1v-6H4v-1h2zm15 0h1v1h-3v-1h1v-6h-1v-1h2zm-.25-17h-1.5C18.56 3 18 3.56 18 4.25v5.5c0 .69.56 1.25 1.25 1.25h1.5c.69 0 1.25-.56 1.25-1.25v-5.5C22 3.56 21.44 3 20.75 3M21 9.75a.25.25 0 0 1-.25.25h-1.5a.25.25 0 0 1-.25-.25v-5.5a.25.25 0 0 1 .25-.25h1.5a.25.25 0 0 1 .25.25zM5.75 3h-1.5C3.56 3 3 3.56 3 4.25v5.5c0 .69.56 1.25 1.25 1.25h1.5C6.44 11 7 10.44 7 9.75v-5.5C7 3.56 6.44 3 5.75 3M6 9.75a.25.25 0 0 1-.25.25h-1.5A.25.25 0 0 1 4 9.75v-5.5A.25.25 0 0 1 4.25 4h1.5a.25.25 0 0 1 .25.25zM14 11h-3v-1h1V4h-1V3h2v7h1z"/><path fill="none" d="M0 0h24v24H0z"/></svg>