<svg xmlns="http://www.w3.org/2000/svg" viewBox="0 0 32 32"><path d="M19 14h-5v-1h2V4h-2V3h3v10h2zm1 5.5v8c0 .827-.673 1.5-1.5 1.5h-3c-.827 0-1.5-.673-1.5-1.5v-8c0-.827.673-1.5 1.5-1.5h3c.827 0 1.5.673 1.5 1.5m-1 0a.5.5 0 0 0-.5-.5h-3a.5.5 0 0 0-.5.5v8a.5.5 0 0 0 .5.5h3a.5.5 0 0 0 .5-.5zM9 4.5v8c0 .827-.673 1.5-1.5 1.5h-3c-.827 0-1.5-.673-1.5-1.5v-8C3 3.673 3.673 3 4.5 3h3C8.327 3 9 3.673 9 4.5m-1 0a.5.5 0 0 0-.5-.5h-3a.5.5 0 0 0-.5.5v8a.5.5 0 0 0 .5.5h3a.5.5 0 0 0 .5-.5zm22 0v8c0 .827-.673 1.5-1.5 1.5h-3c-.827 0-1.5-.673-1.5-1.5v-8c0-.827.673-1.5 1.5-1.5h3c.827 0 1.5.673 1.5 1.5m-1 0a.5.5 0 0 0-.5-.5h-3a.5.5 0 0 0-.5.5v8a.5.5 0 0 0 .5.5h3a.5.5 0 0 0 .5-.5zM7 18H4v1h2v9H4v1h5v-1H7zm21 0h-3v1h2v9h-2v1h5v-1h-2z"/><path fill="none" d="M0 0h32v32H0z"/></svg>