<svg xmlns="http://www.w3.org/2000/svg" viewBox="0 0 32 32"><path d="M30 16v1h-4.825c.01-.167.025-.332.025-.5s-.014-.334-.024-.5zM17 7.825V3h-1v4.823c.166-.01.332-.023.5-.023s.334.015.5.025M7.825 16H3v1h4.824c-.01-.166-.024-.332-.024-.5s.016-.334.025-.5M16 25.175V30h1v-4.823c-.166.01-.332.023-.5.023s-.334-.015-.5-.025m6.5-2.375c-.07.067-.146.125-.218.189l3.41 3.41.707-.707-3.409-3.408a9 9 0 0 1-.49.516m.3-12.299c.067.07.125.145.189.217l3.41-3.41-.707-.707-3.408 3.408c.176.158.351.318.516.492m-12.3-.3c.07-.068.146-.126.218-.19l-3.41-3.41-.707.707 3.409 3.408c.157-.176.317-.351.49-.516zm-.3 12.298c-.067-.07-.125-.145-.189-.217l-3.41 3.41.707.707 3.408-3.408a9 9 0 0 1-.516-.492m13.08-8.71a7.327 7.327 0 1 1-1.494-2.324 7.3 7.3 0 0 1 1.494 2.323zm-4.44 8.562a6.326 6.326 0 1 0-2.34.449 6.3 6.3 0 0 0 2.34-.449"/><path fill="none" d="M0 0h32v32H0z"/></svg>