<svg xmlns="http://www.w3.org/2000/svg" viewBox="0 0 24 24"><path d="M21 6h-1V5h1zm2-3v18H1V3zM6 20V8H2v12zm5.677 0 .029-.09.046-.13a1.8 1.8 0 0 0 .122-.62c-.056-.087-.397-.166-.58-.208a1.41 1.41 0 0 1-1.046-.585 1.52 1.52 0 0 1 .505-1.928c.253-.253.408-.42.408-.596a.5.5 0 0 0-.081-.267h-.007a.8.8 0 0 0-.323.084 1.8 1.8 0 0 1-.695.146 1.02 1.02 0 0 1-1.068-.96 1.75 1.75 0 0 1 .27-.881.9.9 0 0 0 .158-.44 1.2 1.2 0 0 0-.056-.328 2 2 0 0 1-.086-.563 1.32 1.32 0 0 1 1.28-1.352 1.45 1.45 0 0 1 1.246.959c.051.092.119.216.466.216.365 0 .643-.594.643-.892a1.106 1.106 0 0 1 1.068-1.139 1.35 1.35 0 0 1 .849.342c.147.111.215.156.293.156.146 0 .215-.071.429-.451a2.14 2.14 0 0 1 .812-.92c.433-.233.433-.68.281-1.421A1 1 0 0 1 16.63 8H7v12zM22 16.588a2.86 2.86 0 0 1-1.377-.775 1.8 1.8 0 0 1-.437-.689 1.3 1.3 0 0 0-.153-.296.7.7 0 0 0-.37.202 1.47 1.47 0 0 1-.981.382 1.4 1.4 0 0 1-.608-.165.46.46 0 0 0-.377-.049v.61a1.34 1.34 0 0 1-.484.97c-.17.172-.217.231-.217.324.001-.048.064.024.108.074a1.07 1.07 0 0 1 .332.679c0 .754-.714.951-1.098 1.057a1.4 1.4 0 0 0-.422.158c.02-.014.07.067.108.117a1.1 1.1 0 0 1 .287.654.7.7 0 0 1-.02.159H22zM22 8h-4.444a1.974 1.974 0 0 1-.758 2.367 1.4 1.4 0 0 0-.446.56 1.41 1.41 0 0 1-1.234.921 1.36 1.36 0 0 1-.85-.342c-.146-.11-.214-.156-.292-.156-.07 0-.144.11-.144.215 0 .74-.611 1.816-1.568 1.816a1.33 1.33 0 0 1-1.26-.666c-.223-.4-.306-.51-.45-.51a.4.4 0 0 0-.357.43 1.2 1.2 0 0 0 .056.328 2 2 0 0 1 .086.562 1.76 1.76 0 0 1-.27.882.9.9 0 0 0-.158.44.26.26 0 0 0 .144.035.9.9 0 0 0 .36-.083 1.5 1.5 0 0 1 .79-.128 1.11 1.11 0 0 1 .88 1.172 1.78 1.78 0 0 1-.68 1.25c-.411.411-.49.54-.33.86.03.005.27.062.429.099.484.113 1.294.302 1.294 1.107a2.6 2.6 0 0 1-.15.841h2.663c.022-.051.046-.106.06-.143l-.08-.107a1.12 1.12 0 0 1-.294-.675c0-.752.686-.941 1.096-1.054a1.7 1.7 0 0 0 .41-.147c-.022-.004-.068-.059-.102-.097a1.06 1.06 0 0 1-.33-.675 1.35 1.35 0 0 1 .486-.975c.17-.17.216-.23.216-.32v-.695a.987.987 0 0 1 1.08-.868 1.4 1.4 0 0 1 .61.165.7.7 0 0 0 .219.08.58.58 0 0 0 .41-.186 1.46 1.46 0 0 1 .98-.383c.602 0 .828.526.963.839a1.2 1.2 0 0 0 .197.36 2.9 2.9 0 0 0 .768.532zm0-4H2v3h20z"/><path fill="none" d="M0 0h24v24H0z"/></svg>