<svg xmlns="http://www.w3.org/2000/svg" viewBox="0 0 16 16"><path d="M4.469 7.5a.97.97 0 0 0 .105-.79 1.35 1.35 0 0 0-.699-.632c-.36-.187-.783-.335-1.225-.516a2.67 2.67 0 0 1-1.368-.975 1.28 1.28 0 0 1-.09-1.07 1.66 1.66 0 0 1 .584-.747 3.7 3.7 0 0 1 1.443-.603 6.7 6.7 0 0 1 2.917.071.4.4 0 0 1 .295.483.405.405 0 0 1-.475.297 5.8 5.8 0 0 0-2.539.02 2.85 2.85 0 0 0-1.065.475c-.287.232-.308.43-.217.577a1.97 1.97 0 0 0 .893.503c.411.152.863.286 1.329.503a2.42 2.42 0 0 1 1.28 1.185 2.11 2.11 0 0 1-.149 1.855 3.04 3.04 0 0 1-1.311 1.08l-1.247.577c-.778.383-1.18.817-1.207 1.5-.14.874.65 1.437 1.662 1.711a3 3 0 0 1-.45.31 1 1 0 0 0-.54.84 1 1 0 0 0 .01.128c-.138-.058-.278-.107-.416-.177A3.35 3.35 0 0 1 .682 12.94a2.78 2.78 0 0 1-.381-1.775 2.88 2.88 0 0 1 .71-1.639 4 4 0 0 1 1.354-.92c.886-.393 1.813-.65 2.104-1.107zm.548 4.565c.03-1.327 1.55-1.238 1.55-1.238l1.325 1.556s.097 1.197-1.548 1.928a3.26 3.26 0 0 1-2.95-.109s1.594-.824 1.623-2.137m1 .023a2.84 2.84 0 0 1-.442 1.438 3 3 0 0 0 .363-.13 1.7 1.7 0 0 0 .886-.724l-.673-.79a.204.204 0 0 0-.134.206M16 4.62c-.307-.38-.195-.242-.505-.62-.483.388-4.29 3.006-4.29 3.006l-3.665 3.27 1.027 1.228 3.65-3.254s3.3-3.238 3.783-3.63"/><path fill="none" d="M0 0h16v16H0z"/></svg>