<svg xmlns="http://www.w3.org/2000/svg" viewBox="0 0 32 32"><path d="M5.003 27.966a5.6 5.6 0 0 1-2.587-1.898 4.5 4.5 0 0 1-.713-1.553 4.9 4.9 0 0 1-.062-1.668 5.43 5.43 0 0 1 1.346-2.88 17.8 17.8 0 0 1 4.638-3.256c1.496-.861 3.123-1.86 3.136-3.173.05-.583-.376-1.093-1.062-1.531a13.3 13.3 0 0 0-2.327-1.074 27 27 0 0 1-2.567-1.058 4.7 4.7 0 0 1-1.275-.891 2.4 2.4 0 0 1-.504-.764 2.1 2.1 0 0 1-.114-.96 2.45 2.45 0 0 1 .866-1.516 5 5 0 0 1 1.301-.799 11.3 11.3 0 0 1 2.746-.753 21.7 21.7 0 0 1 5.538-.074.5.5 0 0 1-.1.995 20.7 20.7 0 0 0-5.258.168 10.2 10.2 0 0 0-2.45.717c-.743.328-1.41.878-1.444 1.402-.095.497.497.975 1.262 1.335.753.36 1.607.635 2.462.941a14.5 14.5 0 0 1 2.606 1.137 4.3 4.3 0 0 1 1.221 1.05 2.7 2.7 0 0 1 .57 1.704 3.3 3.3 0 0 1-.45 1.65 5.1 5.1 0 0 1-1.009 1.223 15 15 0 0 1-2.332 1.651 16.6 16.6 0 0 0-4.136 3.004 3.11 3.11 0 0 0-.383 3.868 4.26 4.26 0 0 0 2.722 1.431 4.6 4.6 0 0 1-.93.715 1.5 1.5 0 0 0-.711.857M28.825 7.013 23.2 12.202 12.6 22.8l1.6 1.6 10.6-10.598 5.189-5.625a.835.835 0 0 0-1.164-1.164M11.157 23.225l1.918 2.317a3.92 3.92 0 0 1-2.171 2.98 5.2 5.2 0 0 1-2.166.477 4.8 4.8 0 0 1-2.313-.568s2.4-1.29 2.411-3.286c.008-1.84 1.935-1.92 2.271-1.92zm.841 2.584-1.288-1.555c-.456.073-.871.303-.874.896a4.24 4.24 0 0 1-1.263 2.845q.081.004.165.004a4.2 4.2 0 0 0 1.754-.389 2.8 2.8 0 0 0 1.506-1.801"/><path fill="none" d="M0 0h32v32H0z"/></svg>