<svg xmlns="http://www.w3.org/2000/svg" viewBox="0 0 24 24"><path d="M11.318 15h1.364a17.1 17.1 0 0 1 1.203 8h1.007a18.2 18.2 0 0 0-1.253-8.265 4.12 4.12 0 0 0 2.323-3.371 6.16 6.16 0 0 0-1.205-3.222A9.07 9.07 0 0 1 13.1 3v-.756l-.696.296A8.35 8.35 0 0 0 8 9.5a6.78 6.78 0 0 0 2.392 5.158A18.15 18.15 0 0 0 9.108 23h1.007a17.1 17.1 0 0 1 1.203-8m.814-11.175a10.34 10.34 0 0 0 1.77 4.835 5.27 5.27 0 0 1 1.06 2.704 2 2 0 0 1-.09.589 3.78 3.78 0 0 1-3.335-2.317 6 6 0 0 0-1.965-2.627 7.7 7.7 0 0 1 2.56-3.184M9 9.5a5.7 5.7 0 0 1 .233-1.534 5.55 5.55 0 0 1 1.392 2.08 4.66 4.66 0 0 0 3.725 2.839A4.8 4.8 0 0 1 12.89 14h-1.733A5.78 5.78 0 0 1 9 9.5"/><path fill="none" d="M0 0h24v24H0z"/></svg>