<svg xmlns="http://www.w3.org/2000/svg" viewBox="0 0 24 24"><path d="M4.334 21.39a6 6 0 0 1-1.151-.317 4.23 4.23 0 0 1-2.014-1.575 3.945 3.945 0 0 1 .575-4.804 13.4 13.4 0 0 1 3.549-2.401c1.133-.607 2.337-1.328 2.458-2.122.073-.41-.072-.67-.52-1.024a7.4 7.4 0 0 0-1.631-.82c-.61-.243-1.249-.463-1.903-.766a5.3 5.3 0 0 1-.99-.578 2 2 0 0 1-.786-1.19 1.53 1.53 0 0 1 .09-.828 1.8 1.8 0 0 1 .426-.606 3.5 3.5 0 0 1 1.022-.645 7.7 7.7 0 0 1 2.105-.529 10.9 10.9 0 0 1 4.193.338.5.5 0 0 1-.265.965 9.9 9.9 0 0 0-3.786-.207 6.6 6.6 0 0 0-1.775.49 2.4 2.4 0 0 0-.665.433c-.164.187-.174.241-.154.37.023.236.537.597 1.107.822.572.244 1.21.443 1.854.675a8.7 8.7 0 0 1 1.979.932 2.9 2.9 0 0 1 .907.96 2.28 2.28 0 0 1 .25 1.423 3.45 3.45 0 0 1-1.347 2.122 14 14 0 0 1-1.778 1.182 12.2 12.2 0 0 0-3.041 2.157 2.45 2.45 0 0 0-.617 1.33 1.8 1.8 0 0 0 .295 1.28A3.3 3.3 0 0 0 5.5 19.5a1 1 0 0 1 .363.063 3 3 0 0 1-.755.639 1.5 1.5 0 0 0-.774 1.189zM22.11 6.018 18.4 9.35l-7.45 7.25 1.4 1.4 7.25-7.449 3.383-3.661a.626.626 0 0 0-.873-.873zM9.368 17.619l1.439 1.738a2.94 2.94 0 0 1-1.63 2.234 3.9 3.9 0 0 1-1.626.359 3.6 3.6 0 0 1-1.733-.427s1.8-.968 1.809-2.464c.006-1.38 1.451-1.44 1.703-1.44zm.35 1.99-.78-.94a.38.38 0 0 0-.311.395 3.2 3.2 0 0 1-.633 1.85 3 3 0 0 0 .772-.234 1.82 1.82 0 0 0 .952-1.07z"/><path fill="none" d="M0 0h24v24H0z"/></svg>