<svg xmlns="http://www.w3.org/2000/svg" viewBox="0 0 16 16"><path d="M7.84 10h.32a22.4 22.4 0 0 1 .836 6h1a24.6 24.6 0 0 0-.868-6.22A2.88 2.88 0 0 0 10.98 7.3a5.94 5.94 0 0 0-.824-2.638A8.7 8.7 0 0 1 9 .57V0h-.501C5.572 1.13 5 4.612 5 5.594 5 7.56 5.61 9.07 6.88 9.76A24.5 24.5 0 0 0 6.003 16h1a22.4 22.4 0 0 1 .836-6zm.202-8.606a10.3 10.3 0 0 0 1.219 3.712A5.15 5.15 0 0 1 9.98 7.3a1.2 1.2 0 0 1-.13.53 1.48 1.48 0 0 1-1.402-1.244 3.2 3.2 0 0 0-2.281-2.348 6.13 6.13 0 0 1 1.875-2.844M5.96 5.214a2.21 2.21 0 0 1 1.543 1.699 2.36 2.36 0 0 0 1.601 1.74A4 4 0 0 1 8.415 9H7.59c-1.358-.537-1.775-2.375-1.63-3.785z"/><path fill="none" d="M0 0h16v16H0z"/></svg>