<svg xmlns="http://www.w3.org/2000/svg" viewBox="0 0 32 32"><path d="M14 29.975c-.004-.075-.35-7.28.855-10.975h2.29c1.206 3.695.86 10.9.855 10.975l.96.025c.023-.46.376-7.395-.85-11.24A5.01 5.01 0 0 0 21 14.5a9.3 9.3 0 0 0-1.26-4.162A14.4 14.4 0 0 1 18 3.367V2.61l-.696.297C14.31 4.182 11 8.313 11 11.933c0 2.767 1.127 5.462 2.913 6.755-1.253 3.83-.896 10.85-.874 11.312zm3.019-25.809a15.7 15.7 0 0 0 1.82 6.61A8.4 8.4 0 0 1 20 14.5a3 3 0 0 1-.068.556 5.09 5.09 0 0 1-4.255-3.14 7.8 7.8 0 0 0-2.595-3.584 11.4 11.4 0 0 1 3.937-4.166M12 11.933a6.8 6.8 0 0 1 .628-2.695 7 7 0 0 1 2.137 3.088 6.04 6.04 0 0 0 4.839 3.689A5.1 5.1 0 0 1 17.394 18h-2.75C13.047 16.959 12 14.437 12 11.933"/><path fill="none" d="M0 0h32v32H0z"/></svg>