<?xml version="1.0" encoding="UTF-8"?><svg id="icons" xmlns="http://www.w3.org/2000/svg" viewBox="0 0 32 32"><defs><style>.cls-1{fill:none;}.cls-2,.cls-3{fill:#231f20;}.cls-3{opacity:.25;}</style></defs><path class="cls-2" d="M24.01758,3.47754c-.50393-1.17583-1.82282-1.74954-3.00195-1.34863l-5.78613,1.92773c-.82227.27637-1.43945.97559-1.61035,1.82617l-1.61035,8.05371-8.05566,1.61035c-1.89743.37949-2.60865,2.73151-1.23828,4.09766l9.64062,9.6416c.4668.46484,1.06055.70996,1.71582.70996.50879,0,.99707-.15625,1.41113-.45215l13.49805-9.64062c.90918-.64648,1.26172-1.90723.82031-2.93066l-5.7832-13.49512ZM28.39941,19.08887l-13.49902,9.6416c-.56152.40234-1.34863.33594-1.83887-.15234L3.42188,18.9375c-.80458-.80458-.38903-2.18619.72656-2.41016l8.70996-1.74121,1.74121-8.70703c.10059-.5.46387-.91113.94727-1.07324,6.35508-2.11765,5.91641-2.00293,6.2373-2.00293.57227,0,1.08789.34082,1.31348.86816l5.78418,13.49707c.25977.60156.05273,1.34082-.48242,1.7207ZM17.2373,7.45117l-1.95215,9.76172-7.95605,1.5918,6.89746,6.89941,11.57617-8.26953-4.81348-11.2334-3.75195,1.25ZM14.34912,24.21057l-4.70355-4.70483,6.61029-1.32178,1.97205-9.85773,2.12518-.70801,4.03705,9.4209-10.04102,7.17145Z"/><polygon class="cls-3" points="18.22791 8.32623 16.25586 18.18396 9.64557 19.50574 14.34912 24.21057 24.39014 17.03912 20.35309 7.61823 18.22791 8.32623"/><rect class="cls-1" width="32" height="32"/></svg>