<?xml version="1.0" encoding="UTF-8"?><svg id="icons" xmlns="http://www.w3.org/2000/svg" viewBox="0 0 16 16"><defs><style>.cls-1{fill:none;}.cls-2{fill:#231f20;}</style></defs><rect class="cls-1" width="16" height="16"/><path class="cls-2" d="M8.66211,1.15918C8.20117.43457,7.42212.01099,6.56079.01099c-.46875,0-.92871.13184-1.33496.38477-1.16211.73535-1.52173,2.27124-.78834,3.44019l2.1338,3.37695-5.09332,3.10504c-1.16211.73535-1.51074,2.2832-.77441,3.45605.46191.72559,1.25098,1.1582,2.11035,1.1582.46777,0,.92773-.13184,1.33594-.38574l5.09332-3.10504,2.1377,3.38184c.46191.72559,1.25098,1.1582,2.11035,1.1582.46777,0,.92773-.13184,1.33594-.38574,1.16211-.73535,1.51172-2.28125.77832-3.4502L8.66211,1.15918ZM14.29297,14.75c-.24512.15234-.52051.23145-.80176.23145-.51562,0-.98926-.25977-1.2666-.69531l-2.66992-4.22461-5.93903,3.63922c-.24512.15234-.52051.23145-.80176.23145-.51562,0-.98926-.25977-1.2666-.69531-.44238-.7041-.2334-1.63184.46484-2.07324l5.93903-3.6402-2.65796-4.21167c-.44043-.70117-.23145-1.62891.4668-2.07031.24316-.15137.51855-.23047.80078-.23047.5166,0,.99023.25879,1.2666.69434l6.93237,10.97437c.44043.70117.23145,1.62891-.4668,2.07031ZM13.91406,13.21387c.14746.23438.07812.54297-.15527.69043-.08301.05176-.17578.07715-.26758.07715-.16504,0-.32715-.08203-.42285-.23242l-3.20233-5.06763-6.78455,4.17365c-.08301.05176-.17578.07715-.26758.07715-.16504,0-.32715-.08203-.42285-.23242-.14746-.23438-.07812-.54297.15527-.69043l6.78503-4.17395-3.19244-5.0578c-.14746-.23438-.07812-.54297.15527-.69043.23145-.14453.54102-.0791.69043.15527l6.92944,10.97144Z"/></svg>