<svg xmlns="http://www.w3.org/2000/svg" viewBox="0 0 16 16"><path fill="#231f20" d="m8.162 15.627 7-5a2.01 2.01 0 0 0 .676-2.414l-3-7a2 2 0 0 0-2.47-1.11l-3 1a2 2 0 0 0-1.329 1.504l-.738 3.694-3.694.738a1.999 1.999 0 0 0-1.021 3.375l5 5a2 2 0 0 0 2.576.213M1.043 8.71a1 1 0 0 1 .76-.69l4.347-.87.87-4.346a1 1 0 0 1 .664-.752C10.904.978 10.772 1 11 1a1 1 0 0 1 .919.606l3 7a1 1 0 0 1-.338 1.207l-7 5a1 1 0 0 1-1.288-.106l-5-5a1 1 0 0 1-.25-.997M14 9l-3-7-3 1-1 5-5 1 5 5zm-6.15-.15 1.017-5.084 1.576-.527 2.32 5.415-5.655 4.04-3.08-3.08z"/><path fill="#231f20" d="m12.764 8.654-2.32-5.415-1.577.527L7.85 8.85l-3.822.764 3.08 3.08z" opacity=".25"/><path fill="none" d="M0 0h16v16H0z"/></svg>