<?xml version="1.0" encoding="UTF-8"?><svg id="icons" xmlns="http://www.w3.org/2000/svg" viewBox="0 0 24 24"><defs><style>.cls-1{fill:none;}.cls-2,.cls-3{fill:#231f20;}.cls-3{opacity:.25;}</style></defs><path class="cls-2" d="M18.33984,2.21387c-.40236-.9375-1.52441-1.43359-2.47266-1.11035l-4.50098,1.5c-.67873.22754-1.18652.80273-1.32715,1.50391l-1.23828,6.19336-6.19434,1.23828c-1.56353.31186-2.13787,2.24764-1.01051,3.375l7.49098,7.50098c.73137.72951,1.82248.75111,2.5752.21191l10.50098-7.5c.74902-.53223,1.03906-1.57031.67578-2.41406l-4.49902-10.49902ZM21.58203,14.3125l-10.50195,7.50098c-.39551.28223-.94238.23633-1.28711-.10645l-7.49-7.5c-.56282-.56282-.28171-1.5314.49879-1.6875l6.84863-1.36914,1.36914-6.84668c.07031-.35059.32422-.6377.66309-.75098,4.93935-1.64609,4.59326-1.55273,4.81738-1.55273.40039,0,.76172.23828.91992.6084l4.5,10.5c.17871.41406.03027.94238-.33789,1.2041ZM12.86621,5.26465l-1.5166,7.58496-6.32031,1.26465,5.5791,5.58008,9.15527-6.54004-3.82031-8.91504-3.07715,1.02539ZM10.71582,18.3877l-3.65918-3.66016,5.14258-1.02832,1.53418-7.66895,1.65332-.55078,3.14062,7.3291-7.81152,5.5791Z"/><polygon class="cls-3" points="13.7334 6.03027 12.19922 13.69922 7.05664 14.72754 10.71582 18.3877 18.52734 12.80859 15.38672 5.47949 13.7334 6.03027"/><rect class="cls-1" width="24" height="24"/></svg>