<?xml version="1.0" encoding="UTF-8"?><svg id="icons" xmlns="http://www.w3.org/2000/svg" viewBox="0 0 16 16"><defs><style>.cls-1{fill:none;}.cls-2{fill:#231f20;}</style></defs><path class="cls-2" d="M4,0C1.79083,0,0,1.79083,0,4s1.79083,4,4,4,4-1.79089,4-4S6.20917,0,4,0ZM4,7c-1.65466,0-3-1.34534-3-3s1.34534-3,3-3,3,1.34528,3,3-1.34534,3-3,3ZM5,3.5v1c0,.27612-.22388.5-.5.5h-1c-.27612,0-.5-.22388-.5-.5v-1c0-.27618.22388-.5.5-.5h1c.27612,0,.5.22382.5.5ZM4,12c0,2.20911,1.79083,4,4,4,1.86682,0,3.42169-1.28442,3.86285-3.01379.04657.00159.09015.01379.13715.01379,2.20917,0,4-1.79089,4-4s-1.79083-4-4-4c-1.86682,0-3.42169,1.28442-3.86285,3.01379-.04657-.00159-.09015-.01379-.13715-.01379-2.20917,0-4,1.79083-4,4ZM8,9c.35944,0,.69958.07385,1.01923.19019-.00409-.06409-.01923-.12506-.01923-.19019,0-1.65472,1.34534-3,3-3s3,1.34528,3,3-1.34534,3-3,3c-.35944,0-.69958-.07385-1.01923-.19019.00409.06409.01923.12506.01923.19019,0,1.65466-1.34534,3-3,3s-3-1.34534-3-3,1.34534-3,3-3ZM7,12.5v-1c0-.27618.22388-.5.5-.5h1c.27612,0,.5.22382.5.5v1c0,.27612-.22388.5-.5.5h-1c-.27612,0-.5-.22388-.5-.5ZM11,9.5v-1c0-.27618.22388-.5.5-.5h1c.27612,0,.5.22382.5.5v1c0,.27612-.22388.5-.5.5h-1c-.27612,0-.5-.22388-.5-.5Z"/><rect class="cls-1" width="16" height="16"/></svg>