<?xml version="1.0" encoding="UTF-8"?><svg id="icons" xmlns="http://www.w3.org/2000/svg" viewBox="0 0 32 32"><defs><style>.cls-1{fill:none;}.cls-2{fill:#231f20;}</style></defs><path class="cls-2" d="M23,11c-3.22656,0-6.0459,2.26367-6.79688,5.35742-.71094-.2373-1.44922-.35742-2.20312-.35742-3.85938,0-7,3.14062-7,7s3.14062,7,7,7c3.22656,0,6.0459-2.26367,6.79688-5.35742.71094.2373,1.44922.35742,2.20312.35742,3.85938,0,7-3.14062,7-7s-3.14062-7-7-7ZM23,24c-.82129,0-1.62207-.16699-2.37988-.49512l-.59766-.25879-.0957.64355c-.4375,2.91309-2.98535,5.11035-5.92676,5.11035-3.30859,0-6-2.69141-6-6s2.69141-6,6-6c.82129,0,1.62207.16699,2.37988.49512l.59766.25879.0957-.64355c.4375-2.91309,2.98535-5.11035,5.92676-5.11035,3.30859,0,6,2.69141,6,6s-2.69141,6-6,6ZM25,18c0,1.10254-.89746,2-2,2s-2-.89746-2-2,.89746-2,2-2,2,.89746,2,2ZM16,9c0-3.85938-3.14062-7-7-7s-7,3.14062-7,7,3.14062,7,7,7,7-3.14062,7-7ZM9,3c3.30859,0,6,2.69141,6,6s-2.69141,6-6,6-6-2.69141-6-6,2.69141-6,6-6ZM7,9c0-1.10254.89746-2,2-2s2,.89746,2,2-.89746,2-2,2-2-.89746-2-2ZM16,23c0,1.10254-.89746,2-2,2s-2-.89746-2-2,.89746-2,2-2,2,.89746,2,2Z"/><rect class="cls-1" width="32" height="32"/></svg>