<?xml version="1.0" encoding="UTF-8"?><svg id="icons" xmlns="http://www.w3.org/2000/svg" viewBox="0 0 24 24"><defs><style>.cls-1{fill:none;}.cls-2{fill:#231f20;}</style></defs><path class="cls-2" d="M17.5,8c-2.57812,0-4.76855,1.79395-5.33398,4.2666-.54395-.17676-1.10156-.2666-1.66602-.2666-3.03223,0-5.5,2.46777-5.5,5.5s2.46777,5.5,5.5,5.5c2.57812,0,4.76855-1.79395,5.33398-4.2666.54395.17676,1.10156.2666,1.66602.2666,3.03223,0,5.5-2.46777,5.5-5.5s-2.46777-5.5-5.5-5.5ZM17.5,18c-.62988,0-1.25195-.1377-1.84863-.40918l-.62793-.28613-.07617.68652c-.25293,2.28516-2.16504,4.00879-4.44727,4.00879-2.48145,0-4.5-2.01855-4.5-4.5s2.01855-4.5,4.5-4.5c.62988,0,1.25195.1377,1.84863.40918l.62793.28613.07617-.68652c.25293-2.28516,2.16504-4.00879,4.44727-4.00879,2.48145,0,4.5,2.01855,4.5,4.5s-2.01855,4.5-4.5,4.5ZM19,13.5c0,.82715-.67285,1.5-1.5,1.5s-1.5-.67285-1.5-1.5.67285-1.5,1.5-1.5,1.5.67285,1.5,1.5ZM12,6.5c0-3.03223-2.46777-5.5-5.5-5.5S1,3.46777,1,6.5s2.46777,5.5,5.5,5.5,5.5-2.46777,5.5-5.5ZM6.5,2c2.48145,0,4.5,2.01855,4.5,4.5s-2.01855,4.5-4.5,4.5-4.5-2.01855-4.5-4.5S4.01855,2,6.5,2ZM5,6.5c0-.82715.67285-1.5,1.5-1.5s1.5.67285,1.5,1.5-.67285,1.5-1.5,1.5-1.5-.67285-1.5-1.5ZM12,17.5c0,.82715-.67285,1.5-1.5,1.5s-1.5-.67285-1.5-1.5.67285-1.5,1.5-1.5,1.5.67285,1.5,1.5Z"/><rect class="cls-1" width="24" height="24"/></svg>