<?xml version="1.0" encoding="UTF-8"?><svg id="icons" xmlns="http://www.w3.org/2000/svg" viewBox="0 0 24 24"><defs><style>.cls-1{fill:none;}.cls-2{fill:#231f20;}</style></defs><path class="cls-2" d="M12.16625,2.28539c-.81907-1.28689-2.51269-1.65181-3.79492-.85254-1.28027.81055-1.66504,2.51562-.85742,3.80078l3.7273,5.90602-8.95703,5.66016c-1.2793.81055-1.66309,2.5166-.85352,3.80664.78613,1.23438,2.52539,1.63867,3.7959.85156l8.95703-5.66211,3.73219,5.90992c.50879.79883,1.37793,1.27539,2.32422,1.27539,2.16484,0,3.47767-2.39371,2.3291-4.22363L12.16625,2.28539ZM21.18043,21.70973c-.81152.50391-1.9209.24512-2.41992-.54004l-4.26637-6.7527-9.79883,6.19336c-.81152.50391-1.9209.24414-2.41895-.53809-.5166-.82227-.27246-1.91113.54297-2.42676l9.80078-6.19531-4.25953-6.74879c-.51562-.82031-.27051-1.90723.54297-2.42188.79688-.49707,1.91893-.24316,2.41797.54199l10.4009,16.46926c.51465.81934.26953,1.90527-.54199,2.41895ZM20.70582,19.93336c.14746.23438.07812.54297-.15527.69043-.23727.14794-.54326.076-.69043-.15527l-4.9333-7.81275-10.90826,6.89111c-.08203.05176-.1748.07715-.2666.07715-.49776,0-.69116-.65573-.2666-.92285l10.90741-6.89056-4.93061-7.80842c-.14746-.23438-.07812-.54297.15527-.69043.23242-.14551.54199-.0791.69043.15527l10.39797,16.46633Z"/><rect class="cls-1" width="24" height="24"/></svg>