<?xml version="1.0" encoding="UTF-8"?><svg id="icons" xmlns="http://www.w3.org/2000/svg" viewBox="0 0 16 16"><defs><style>.cls-1{fill:none;}.cls-2,.cls-3{fill:#231f20;}.cls-3{opacity:.25;}</style></defs><path class="cls-2" d="M8.16211,15.62695l6.99902-4.99902c.76074-.54102,1.0459-1.55762.67676-2.41504l-2.99902-6.99902c-.417-.97473-1.50624-1.43683-2.47168-1.11035l-3,1c-.67871.22559-1.1875.80273-1.32812,1.50391l-.73828,3.69336-3.69336.73828c-.72461.14453-1.30859.6748-1.52246,1.38281-.21289.70703-.02051,1.4707.50098,1.99219l5,5c.70253.70253,1.79314.77381,2.57617.21289ZM1.04297,8.70996c.10645-.35254.39941-.61816.76074-.69043l4.34668-.86914.86914-4.34668c.07031-.35156.32422-.63867.66406-.75195,3.21993-1.07331,3.08851-1.05176,3.31641-1.05176.38965,0,.75781.22949.91895.60645l3,7c.18555.43164.04492.93457-.33789,1.20703l-7,5c-.3982.28475-.94262.23902-1.28809-.10645L1.29297,9.70703c-.26074-.26074-.35645-.64355-.25-.99707ZM14,9l-3-7-3,1-1,5-5,1,5,5,7-5ZM7.84961,8.84961l1.01758-5.08398,1.57617-.52637,2.32031,5.41504-5.65527,4.04004-3.08008-3.08008,3.82129-.76465Z"/><polygon class="cls-3" points="12.76367 8.6543 10.44336 3.23926 8.86719 3.76562 7.84961 8.84961 4.02832 9.61426 7.1084 12.69434 12.76367 8.6543"/><rect class="cls-1" width="16" height="16"/></svg>