<?xml version="1.0" encoding="UTF-8"?><svg id="icons" xmlns="http://www.w3.org/2000/svg" viewBox="0 0 32 32"><defs><style>.cls-1{fill:none;}.cls-2{fill:#231f20;}</style></defs><rect class="cls-1" width="32" height="32"/><path class="cls-2" d="M29.16215,25.10648L15.45602,3.47457c-.93457-1.46973-2.89941-1.91309-4.38574-.98535-1.48047.93652-1.9248,2.90625-.99023,4.39453l5.1475,8.12113-10.74219,6.78906c-2.63298,1.66769-1.57972,5.87286,1.79785,5.875,1.09921,0,.86901-.02668,12.34766-7.28223l5.15434,8.12699c.61035.95898,1.62402,1.48047,2.67285,1.48047,2.5052,0,4.03724-2.76667,2.7041-4.8877ZM27.64066,28.65043c-1.03906.64551-2.36035.34766-3.01172-.67383l-5.68949-8.96879c-12.53009,7.94137-11.94599,7.66757-12.75391,7.66016-2.21407,0-2.96865-2.88765-1.16504-4.02832l11.58789-7.32422-5.68266-8.96586c-.6416-1.02051-.33691-2.37305.67676-3.01367,1.01953-.63574,2.36816-.33301,3.00977.6748l13.70418,21.62898c.64062,1.01855.33496,2.37012-.67578,3.01074ZM26.94437,26.5059c.35592.55729-.49133,1.09467-.84375.53516l-6.58463-10.39359c-13.29176,8.39702-13.10863,8.33203-13.33337,8.33203-.49776,0-.69116-.65573-.2666-.92285l13.06409-8.25317-6.58073-10.38749c-.356-.55741.49092-1.09458.84375-.53516l13.70125,21.62508Z"/></svg>