<?xml version="1.0" encoding="UTF-8"?><svg id="icons" xmlns="http://www.w3.org/2000/svg" viewBox="0 0 32 32"><defs><style>.cls-1{fill:none;}</style></defs><path d="M25,4H7v-1h18v1ZM28,16h1V7h-1v9ZM28,5h1v-2h-2v1h1v1ZM3,5h1v-1h1v-1h-2v2ZM4,7h-1v18h1V7ZM4,27h-1v2h2v-1h-1v-1ZM9.68359,28h12.2337c-.66034.6217-1.57538,1-2.55109,1h-9.68262c-1.56348,0-2.97168-.9707-3.42383-2.36035-.36133-1.10645-.18555-2.26855.48145-3.18848.33234-.45789.76709-.82147,1.25879-1.07092v-1.38025h-1v-3.10352l.98535-1.89648h2.01465v-4h-1v-1h7.70215l.77313,5h1.52472v-3h1v3h3.05859l.94141,1.88184v5.11816h-1v-4.88184l-.55859-1.11816h-13.84863l-.59277,1.14062v1.85938h1v2.0694c.19012-.03241.37976-.0694.5752-.0694h9.89941c.90912,0,1.76862.37439,2.41699,1h-12.31641c-.7959,0-1.55273.38867-2.02539,1.03906-.47656.65723-.59961,1.49219-.33887,2.29102.31934.9834,1.33594,1.66992,2.47266,1.66992ZM13,16h3.46387l-.61914-4h-2.84473v4ZM11,16h1v-4h-1v4ZM9.47559,24.95001h5.52441v-.95001h-5.52441c-.47656,0-.93066.23438-1.21484.62598-.29199.40137-.36133.89746-.19825,1.39551.18751.57617.81349.97852,1.5215.97852h7.41602v-1h-7.41602c-.28516,0-.52539-.14844-.57129-.28906-.06348-.19434-.04492-.35742.05762-.49707.09668-.13379.24805-.26385.40527-.26385ZM25,29v-2h-7v-3h7v-4h3v6.11816l2.00781,2.88184h-5.00781ZM26,28h2.0918l-1.0918-1.56738v-5.43262h-1v7ZM25,26v-1h-6v1h6Z"/><rect class="cls-1" width="32" height="32"/></svg>