<?xml version="1.0" encoding="UTF-8"?><svg id="icons" xmlns="http://www.w3.org/2000/svg" viewBox="0 0 24 24"><defs><style>.cls-1{fill:none;}</style></defs><path d="M18,3H6v-1h12v1ZM2,4h1v-1h1v-1h-2v2ZM3,6h-1v12h1V6ZM20,2v1h1v1h1v-2h-2ZM3,20h-1v2h2v-1h-1v-1ZM21,12h1v-6h-1v6ZM17.55194,21c-.47516.61139-1.25586,1-2.09979,1h-6.80371c-1.14258,0-2.13281-.6748-2.46387-1.67773-.26074-.79199-.1377-1.62402.33887-2.2832.36047-.49811.89032-.83868,1.47656-.97272v-1.06635h-1v-1.71973l.7041-1.28027h.2959v-3h-1v-1h6.24121l.5,4h1.25879v-2h1v2h2.30859l.69141,1.38184v3.61816h-1v-3.38184l-.30859-.61816h-9.39551l-.2959.53809v.46191h1v2h6.5498c.7796,0,1.51685.37537,1.99042,1h-8.99042c-.47852,0-.93262.2334-1.21582.625-.28613.39648-.35938.90039-.2002,1.38379.19336.58301.81543.99121,1.51465.99121h8.9035ZM11,10v3h1.7334l-.375-3h-1.3584ZM9,13h1v-3h-1v3ZM8,20h6v-1h-6v1ZM21,16h-1v3h-4v1h4v2h2l-1-2v-4Z"/><rect class="cls-1" width="24" height="24"/></svg>