<?xml version="1.0" encoding="UTF-8"?><svg id="icons" xmlns="http://www.w3.org/2000/svg" viewBox="0 0 32 32"><defs><style>.cls-1{fill:none;}</style></defs><path d="M31.80859,28l-1.80859-3.61816v-7.38184h-4v5h-10v3h10v3h5.80859ZM27,18h2v6.61816l1.19141,2.38184h-3.19141v-9ZM17,24v-1h9v1h-9ZM18.5,27H4.5c-1.92969,0-3.5-1.57031-3.5-3.5s1.57031-3.5,3.5-3.5h14c.94995,0,1.81042.38336,2.44171,1h1.29651c-.80829-1.20471-2.18152-2-3.73822-2H4.5c-.1712,0-.33368.0318-.5.05054v-2.05054h-1v-2.38184l.80859-1.61816h18.38281l.80859,1.61816v6.38184h1v-6.61816l-1.19141-2.38184h-3.80859v-4h-1v4h-3.06665l-.99976-7H4v1h1v6h-1.80859l-1.19141,2.38184v3.61816h1v1.27643c-1.74219.62122-3,2.27063-3,4.22357,0,2.48145,2.01855,4.5,4.5,4.5h14c1.5567,0,2.92993-.79529,3.73822-2h-1.29651c-.63129.61664-1.49176,1-2.44171,1ZM9,6h4.06641l.85742,6h-4.92383v-6ZM6,6h2v6h-2v-6ZM3,23.5c0,.82715.67285,1.5,1.5,1.5h10.5v1H4.5c-1.37891,0-2.5-1.12109-2.5-2.5s1.12109-2.5,2.5-2.5h8.5v1H4.5c-.82715,0-1.5.67285-1.5,1.5Z"/><rect class="cls-1" width="32" height="32"/></svg>