<?xml version="1.0" encoding="UTF-8"?><svg id="icons" xmlns="http://www.w3.org/2000/svg" viewBox="0 0 16 16"><defs><style>.cls-1{fill:none;}</style></defs><path d="M1.13379,13.00879c-.15918-.4834-.08594-.9873.2002-1.38379.2832-.3916.7373-.625,1.21582-.625h8.99042c-.47357-.62463-1.21082-1-1.99042-1H3v-2h-1v-.46191l.2959-.53809h9.39551l.30859.61816v3.38184h1v-3.61816l-.69141-1.38184h-2.30859v-2h-1v2h-1.25879l-.5-4H1v1h1v3h-.2959l-.7041,1.28027v1.71973h1v1.06635c-.58624.13403-1.11609.47461-1.47656.97272-.47656.65918-.59961,1.49121-.33887,2.2832.33105,1.00293,1.32129,1.67773,2.46387,1.67773h6.80371c.84393,0,1.62463-.38861,2.09979-1H2.64844c-.69922,0-1.32129-.4082-1.51465-.99121ZM5,3h1.3584l.375,3h-1.7334v-3ZM3,3h1v3h-1v-3ZM2,12h6v1H2v-1ZM14,15v-2h-4v-1h4v-3h1v4l1,2h-2Z"/><rect class="cls-1" width="16" height="16"/></svg>