<svg xmlns="http://www.w3.org/2000/svg" viewBox="0 0 16 16"><path d="M15 13v-3h-1v3h-1.05a2.5 2.5 0 0 0-.95-1.488V8h-1V7h-1v1H8.809l-1-2H4v1h1v4.5h.015A2.49 2.49 0 0 0 4 13.5C4 14.879 5.121 16 6.5 16h4c1.208 0 2.217-.86 2.45-2H14v2h2zM6 7h1.191l.5 1H6zm0 2h5v2.05c-.47-.095-4.638-.073-5 0zm5.908 5c-.207.58-.757 1-1.408 1h-4c-.827 0-1.5-.673-1.5-1.5S5.673 12 6.5 12h4c.651 0 1.2.42 1.408 1H8v1zM6 13h1v1H6zM3 1v1H2v1H1V1zm1 0h9v1H4zm10 0h2v2h-1V2h-1zM2 4v9H1V4zm0 10v1h1v1H1v-2zm14-6h-1V4h1z"/><path fill="none" d="M0 0h16v16H0z"/></svg>