<svg xmlns="http://www.w3.org/2000/svg" viewBox="0 0 32 32"><path d="M31.809 28 30 24.382V17h-4v5H16v3h10v3zM27 18h2v6.618L30.191 27H27zm-10 6v-1h9v1zm1.5 3h-14C2.57 27 1 25.43 1 23.5S2.57 20 4.5 20h14c.95 0 1.81.383 2.442 1h1.296a4.5 4.5 0 0 0-3.738-2h-14c-.171 0-.334.032-.5.05V17H3v-2.382L3.809 13H22.19l.81 1.618V21h1v-6.618L22.809 12H19V8h-1v4h-3.067l-1-7H4v1h1v6H3.191L2 14.382V18h1v1.276c-1.742.622-3 2.271-3 4.224C0 25.981 2.019 28 4.5 28h14c1.557 0 2.93-.795 3.738-2h-1.296c-.632.617-1.492 1-2.442 1M9 6h4.066l.858 6H9zM6 6h2v6H6zM3 23.5c0 .827.673 1.5 1.5 1.5H15v1H4.5C3.121 26 2 24.879 2 23.5S3.121 21 4.5 21H13v1H4.5c-.827 0-1.5.673-1.5 1.5"/><path fill="none" d="M0 0h32v32H0z"/></svg>