<svg xmlns="http://www.w3.org/2000/svg" viewBox="0 0 24 24"><path d="M1.21 19.33c-.26-.799-.137-1.634.34-2.29A2.52 2.52 0 0 1 3.575 16h12.317a3.5 3.5 0 0 0-2.417-1h-9.9c-.195 0-.385.037-.575.07V13H2v-1.86L2.593 10H16.44l.56 1.118V16h1v-5.118L17.059 9H14V6h-1v3h-1.525l-.773-5H3v1h1v4H1.985L1 10.896V14h1v1.38c-.492.25-.926.613-1.259 1.071-.667.92-.843 2.082-.481 3.189C.712 21.03 2.12 22 3.684 22h9.682c.976 0 1.891-.378 2.551-1H3.684c-1.137 0-2.154-.687-2.473-1.67zM7 5h2.845l.619 4H7zM5 5h1v4H5zM3.17 18.214q-.154.208-.058.497c.046.14.286.289.572.289H11v1H3.684c-.708 0-1.334-.402-1.522-.979A1.51 1.51 0 0 1 3.575 17H9v.95H3.575c-.157 0-.308.13-.405.264M23.95 22 22 19.118V13h-3v4h-7v3h7v2zM20 14h1v5.433L22.092 21H20zm-7 5v-1h6v1z"/><path fill="none" d="M0 0h24v24H0z"/></svg>