<?xml version="1.0" encoding="UTF-8"?><svg id="icons" xmlns="http://www.w3.org/2000/svg" viewBox="0 0 24 24"><defs><style>.cls-1{fill:none;}</style></defs><path d="M22.02539,7.01025v-1.17529c0-.46777-.37988-.84766-.84766-.84766h-1.06427c-.6153-1.93243-1.34583-2.38324-1.46893-2.44531-.15527-.08984-1.19629-.54199-6.39355-.54199-5.5498,0-6.73438.4668-6.87109.5293-.13684.06927-.8736.52338-1.49158,2.45801h-1.06604c-.46777,0-.84766.37988-.84766.84766v1.17529c-.54059.02802-.97461.46771-.97461,1.01514v2.11035c0,.93164,1.18457,1.5498,1.96875,1.5498.01666,0,.03052-.00867.047-.00946-.00684.33142-.01575,7.24872-.01575,7.24872,0,.5191.01215,1.81158,1,2.03027v.85059c0,.6582.53613,1.19434,1.19434,1.19434h1.61133c.6582,0,1.19434-.53613,1.19434-1.19434v-.80566h1v1h6v-1h1v.80566c0,.6582.53613,1.19434,1.19434,1.19434h1.61133c.6582,0,1.19434-.53613,1.19434-1.19434v-.85059c.98785-.21869,1-1.51117,1-2.03027,0,0-.00153-5.55054,0-5.55078,0,0-.00891-1.36652-.01575-1.69794.01648.00079.03033.00946.047.00946.78418,0,1.96875-.61816,1.96875-1.5498v-2.11035c0-.54742-.43402-.98712-.97461-1.01514ZM3,10.74365c-.45288-.00665-1-.38416-1-.57233v-2.17133h1v2.74365ZM3.39832,7.10071c-.13-.06024-.27148-.09863-.42371-.09955v-1.01385h.64526c-.07922.33746-.15326.70831-.22156,1.1134ZM5.7998,3.33555c.04883-.01855,1.1875-.43555,6.45117-.43555,4.91309,0,5.87988.4043,5.89551.40918.00598.00378.20209.2424.46368.69082H5.37701c.24738-.43188.42743-.66445.42279-.66445ZM4.93384,5h14.12726c.46027,1.28741.9223,3.56592.93634,7.51135-2.21906.29425-5.2984.48608-7.99646.48865-2.69977-.00256-5.7793-.1944-7.99841-.48865.01404-3.95081.47723-6.22827.93127-7.51135ZM4,16.99384c.45953.02057,1.09106.07916,1.66504.24054.18555.05176.24805.14551.42871.50586l.13672.30859c-1.16357-.04474-1.85217-.18311-2.23047-.29053v-.76447ZM7,21.80566c0,.10742-.08691.19434-.19434.19434h-1.61133c-.10742,0-.19434-.08691-.19434-.19434v-.80566h2v.80566ZM14,21h-4v-1h4v1ZM19,21.80566c0,.10742-.08691.19434-.19434.19434h-1.61133c-.10742,0-.19434-.08691-.19434-.19434v-.80566h2v.80566ZM20,17.7572c-.38184.10913-1.07007.24725-2.23047.29163l.12695-.28711c.19043-.38184.25293-.47559.43848-.52734.57397-.16083,1.20551-.21918,1.66504-.23981v.76263ZM20,15.99518c-.51788.02081-1.24994.08459-1.93457.27631-.63086.17578-.86133.63672-1.07324,1.06445l-.375.84863c-.09863.19043-.08691.41992.02246.59082.10938.17676.30664.28711.51855.28711,1.36005-.01013,2.25885-.13434,2.8418-.26935v.13165c0,1.0752-.19629,1.0752-.29004,1.0752h-4.70996v-1h-6v1h-4.70996c-.09375,0-.29004,0-.29004-1.0752v-.1322c.58313.13519,1.48309.25977,2.8457.2699.20801,0,.40527-.11035.50781-.27734.11621-.18066.12793-.41016.04199-.57422l-.39746-.89648c-.20215-.40625-.43262-.86719-1.06348-1.04297-.68457-.19183-1.41663-.25555-1.93457-.27637v-1.01807c1.16669.1524,2.54584.28082,4.0459.3667.39342,1.62446,1.81206,1.65625,1.99316,1.65625h3.92188c1.05005,0,1.76383-.71671,1.99316-1.65625,1.50201-.08594,2.87817-.21509,4.0459-.3678v1.01923ZM20,13.9718c-1.64266.21881-3.25486.33023-4.83691.41394-.18189.72672-.25629,1.61426-1.20215,1.61426h-3.92188c-.46973,0-.87793-.31836-.99219-.77441l-.20996-.83984c-1.60288-.08481-3.19065-.19465-4.83691-.41394v-.45355c2.25189.29034,5.31384.47925,8.00098.48175,2.68542-.0025,5.74719-.19141,7.99902-.48175v.45355ZM20.60205,7.10046c-.06818-.40509-.14197-.77582-.22095-1.11316h.64429v1.01385c-.15204.00092-.29346.03918-.42334.0993ZM22,10.17133c0,.18817-.54712.56567-1,.57233v-2.74365h1v2.17133Z"/><rect class="cls-1" width="24" height="24"/></svg>