<?xml version="1.0" encoding="UTF-8"?><svg id="icons" xmlns="http://www.w3.org/2000/svg" viewBox="0 0 32 32"><defs><style>.cls-1{fill:none;}</style></defs><path d="M29,10.03381v-1.09241c0-.51992-.42148-.94141-.94141-.94141h-1.06555c-.79437-3.08575-1.77893-4.11481-1.84656-4.18066-.52246-.52051-3.85645-.81934-9.14648-.81934s-8.62402.29883-9.14355.81641c-.06934.06763-1.05475,1.09741-1.84937,4.18359h-1.05761c-.52438,0-.94947.42509-.94947.94947v1.08434c-.56122.08435-1,.54883-1,1.13318v1.97949c0,1.01172.82227,1.83398,1.83301,1.83398.08423,0,.15845-.03107.23767-.0481-.04144.86829-.07068,10.58325-.07068,10.58325,0,.64661.0022,2.04651,1,2.39996v.98285c0,.60838.49319,1.10156,1.10156,1.10156h2.79688c.60838,0,1.10156-.49319,1.10156-1.10156v-.89844h1v1h10v-1h1v.89844c0,.60838.49319,1.10156,1.10156,1.10156h2.79688c.60838,0,1.10156-.49319,1.10156-1.10156v-.98285c.9978-.35345,1-1.75336,1-2.39996,0,0-.02924-9.71497-.07068-10.58325.07922.01703.15344.0481.23767.0481,1.01074,0,1.83301-.82227,1.83301-1.83398v-1.97949c0-.58435-.43878-1.04883-1-1.13318ZM27,24.37897l-.05371.03369c-.0088.00488-.8877.48145-3.72656.5625.24902-.42285.58496-.7373.87598-.81348,1.13904-.29907,2.44489-.31714,2.9043-.31219v.52948ZM7.4873,4.58496c.05176-.02734,1.18262-.685,8.5127-.685,7.30273,0,8.48047.66058,8.44043.62738.00555.0058.13666.15289.3313.47266H7.20966c.1709-.28485.28131-.41504.27765-.41504ZM25.27844,6c.72382,1.68097,1.65961,5.03137,1.71613,11.13477-2.80322.539-7.07935.91052-10.74359.91504-3.88641-.00482-8.47131-.42047-11.24463-1.01282.06573-6.05383.99878-9.38165,1.70245-11.03699h18.56964ZM5,18.05469c2.88306.59192,7.328.99042,11.25098.99512,3.70007-.00446,7.867-.35956,10.74902-.89673v1.18658c-1.69189.32593-3.89722.58978-6.30664.75116l-.36035.02441-.21973.84863c-.15723.61035-.72559,1.03613-1.38281,1.03613h-4.96094c-.65723,0-1.22559-.42578-1.38281-1.03613l-.21973-.84863-.36035-.02441c-2.65619-.17792-5.06152-.48059-6.80664-.85358v-1.18256ZM5,23.84906c.45795-.00549,1.76227.01251,2.90527.31262.29004.07617.62598.38965.875.81348-2.83984-.08105-3.7168-.55762-3.7168-.55762l-.06348-.03955v-.52893ZM4,13.81348c0,.0918-.0752.16699-.16699.16699-.45898,0-.83301-.37402-.83301-.83398v-1.97949c0-.0918.0752-.16699.16699-.16699h.66602c.0918,0,.16699.0752.16699.19043v2.62305ZM3.99646,10.03345l-.05505-1.03345h.83234c-.08313.39288-.16144.81445-.23541,1.26355-.1546-.12024-.3407-.19452-.54187-.2301ZM9,28.89844c0,.05566-.0459.10156-.10156.10156h-2.79688c-.05566,0-.10156-.0459-.10156-.10156v-.89844h3v.89844ZM20,28h-8v-1h8v1ZM26,28.89844c0,.05566-.0459.10156-.10156.10156h-2.79688c-.05566,0-.10156-.0459-.10156-.10156v-.89844h3v.89844ZM26.48535,27h-5.48535v-1h-10v1h-5.48535c-.20508,0-.51465,0-.51465-1.48438v-.04883c.61688.2085,1.92059.5025,4.4043.5191.2168,0,.41602-.10645.52832-.27734.12891-.18945.14355-.43359.03418-.6416l-.24609-.45996c-.14648-.27441-.69141-1.18457-1.5625-1.41211-1.25665-.33044-2.64111-.349-3.1582-.3446v-2.59222c1.68933.34601,3.92096.62939,6.37988.80542l.03809.15039c.27148,1.05176,1.23828,1.78613,2.35156,1.78613h4.96094c1.11328,0,2.08008-.73438,2.35156-1.78613l.03809-.15039c2.22247-.15912,4.26031-.40588,5.87988-.70721v2.49432c-.51813-.00415-1.901.01373-3.15723.3443-.87207.22754-1.41699,1.1377-1.5625,1.41113l-.24902.46484c-.10742.2041-.09277.44824.03124.62988.1172.17871.31642.28516.53614.28516,2.48157-.0166,3.78473-.31061,4.40137-.5191v.04883c0,1.48438-.30957,1.48438-.51465,1.48438ZM27.46173,10.26361c-.07477-.45404-.15393-.86707-.23804-1.26361h.77631v1.03223c-.1991.03467-.38391.10962-.53827.23138ZM29,13.14648c0,.45996-.37402.83398-.83301.83398-.0918,0-.16699-.0752-.16699-.16699v-2.64648c0-.0918.0752-.16699.18066-.16699h.65234c.0918,0,.16699.0752.16699.16699v1.97949Z"/><rect class="cls-1" width="32" height="32"/></svg>