<?xml version="1.0" encoding="UTF-8"?><svg id="icons" xmlns="http://www.w3.org/2000/svg" viewBox="0 0 16 16"><defs><style>.cls-1{fill:none;}</style></defs><path d="M15.25195,2h-1.02979c-.41559-1.14642-.85474-1.49146-.91846-1.53125-.34863-.31055-2.13281-.46875-5.30371-.46875S3.04492.1582,2.75098.42676c-.09174.06128-.54559.41791-.96838,1.57324H.74805c-.41211,0-.74805.33594-.74805.74805v3.2406c0,.55853.45282,1.01135,1.01135,1.01135h.00452l-.01587,5.38379c0,.3891.00781,1.54529,1,1.60522v1.20825c0,.44238.36035.80273.80273.80273h1.39453c.44238,0,.80273-.36035.80273-.80273v-1.19727h1v1h4v-1h1v1.19727c0,.44238.36035.80273.80273.80273h1.39453c.44238,0,.80273-.36035.80273-.80273v-1.20825c.99219-.05994,1-1.21613,1-1.60522l-.01587-5.38379h.00452c.55853,0,1.01135-.45282,1.01135-1.01135v-3.2406c0-.41211-.33594-.74805-.74805-.74805ZM14,7.99316v.53723c-.92621.17072-2.09131.31061-3.37402.39636l-.35938.02441-.16504.63086c-.06348.24609-.2959.41797-.56641.41797h-2.78906c-.27051,0-.50293-.17188-.56738-.41895l-.16406-.62988-.35938-.02441c-1.41541-.0946-2.6933-.25439-3.65527-.45007v-.48352c0-.17798.00415-.34155.00671-.51074,1.63409.30872,4.01801.51398,6.13489.51758,1.99414-.00336,4.23242-.18549,5.85168-.46497.00208.15326.00671.29767.00671.45813ZM2.50934,3h10.98285c.21149.8053.39783,1.94727.47174,3.52783-1.56146.29822-3.85089.56866-5.82233.57214-2.09741-.00372-4.54694-.30914-6.10419-.62878.0755-1.55151.26117-2.67188.47192-3.47119ZM8,.93439c3.95703,0,4.72266.25,4.6748.24512.01337.01135.23041.22101.48468.8205H2.84241c.19958-.46832.38019-.70801.46716-.79999.19531-.05762,1.15039-.26562,4.69043-.26562ZM1,4v-1h.48444c-.07239.29791-.13928.63251-.19995,1h-.28448ZM4,15h-1v-1h1v1ZM9,14h-2v-1h2v1ZM13,15h-1v-1h1v1ZM13.92725,13h-3.92725v-1h-4v1h-3.92999c-.10001-.21209-.07001-.92727-.07001-1.41736.47795.14161,2.26563.34725,2.35492.2135.01404-.021.01532-.04724.00354-.0694l-.13867-.25934c-.14178-.26514-.39722-.57477-.70245-.65479-.55383-.1452-1.16333-.17786-1.51733-.18372v-1.13361c.89386.16986,2.00409.31097,3.23047.40411.2002.65137.81348,1.10059,1.51562,1.10059h2.78906c.70312,0,1.31641-.44922,1.51562-1.10059,1.09619-.08325,2.10791-.2038,2.94922-.34967v1.07916c-1.21519.02011-1.82145.0936-2.21979.8385l-.13867.25934c-.01178.02216-.0105.0484.00354.0694.01398.02094.03857.03357.065.03339,1.25275-.00842,1.94281-.14404,2.28992-.24689,0,.10003.0276,1.38858-.07275,1.41736ZM14.71655,4c-.06042-.36761-.12689-.70239-.19873-1h.48218v1h-.28345Z"/><rect class="cls-1" width="16" height="16"/></svg>