<svg xmlns="http://www.w3.org/2000/svg" viewBox="0 0 24 24"><path d="M0 0h24v24H0z" style="fill:none"/><path d="M15 15h-2v-1h2zm-2 7h1v-1h-1zm7-4a3 3 0 1 1-6 0 3 3 0 0 1 6 0m-1 0c0-1.103-.897-2-2-2s-2 .897-2 2 .897 2 2 2 2-.897 2-2m5-2.397v4.794c0 .333-.27.603-.603.603H23v2l-1 1H12l-1-1v-2h-.397a.603.603 0 0 1-.603-.603v-4.794c0-.333.27-.603.603-.603H11v-2l1-1h1v-1h4v1h5l1 1v2h.397c.333 0 .603.27.603.603m-2-2.189L21.586 13h-9.172l-.414.414v9.172l.414.414h9.172l.414-.414zM16 18h1v-1h-1zm-5.753-7.513c-.146-.111-.213-.157-.291-.157-.07 0-.144.11-.144.215 0 .62-.434 1.47-1.137 1.73l-.038.016a1.2 1.2 0 0 1-.393.07c-.736 0-1.091-.362-1.26-.666-.224-.4-.307-.509-.451-.509-.22 0-.357.223-.357.429 0 .113.025.208.056.328.038.147.086.33.086.562 0 .386-.15.661-.27.882-.1.185-.158.296-.158.44 0 .003.059.036.145.036.144 0 .23-.034.36-.084.188-.073.423-.169.79-.127.572.056.88.646.88 1.17 0 .573-.377.95-.68 1.252-.412.41-.491.54-.33.859.03.005.27.062.428.1.485.112 1.294.301 1.294 1.106 0 .372-.083.664-.172.923l-.049.14c-.091.253-.17.473-.17.754v.024H9v.98H1V1h19.96v10H20V1.98s-3.804.008-3.814.013c-.82.444-.92.766-.92.817 0 .072.033.134.102.255.093.165.22.39.22.706 0 .526-.355.828-.59 1.03-.114.097-.232.198-.259.277-.006.11.012.184.027.264.057.3.143.753-.156 1.09q-.303.34-.943.297c.008.016-.096.125-.141.2.136.675.331 1.837-.748 2.418-.188.102-.314.325-.447.56-.22.39-.52.922-1.233.922-.397 0-.658-.198-.85-.342m-.291-1.08c.395 0 .657.197.848.341.147.111.215.157.294.157.146 0 .214-.072.428-.452.173-.307.39-.69.812-.92.434-.233.434-.679.282-1.42-.064-.326.038-.605.27-.869.124-.14.46-.466.84-.438.159.015.218-.011.218-.011-.036 0-.072-.182-.09-.28a2 2 0 0 1-.05-.387q0-.181.055-.344c.109-.323.345-.524.536-.687.202-.173.265-.24.265-.326 0-.07-.032-.13-.101-.251-.093-.166-.221-.391-.221-.71 0-.146.037-.28.09-.41l.021-.056q.09-.194.235-.364H1.98V20h5.484v-.044c0-.44.118-.772.222-1.066l.046-.13c.075-.218.122-.398.122-.62-.056-.086-.397-.166-.58-.208-.399-.094-.852-.2-1.045-.585-.476-.948.114-1.538.504-1.928.254-.253.408-.42.408-.596 0-.098-.047-.235-.081-.266h-.006c-.11 0-.182.028-.323.084-.16.061-.378.146-.695.146-.59 0-1.069-.43-1.069-.96 0-.386.15-.661.27-.882.101-.185.158-.296.158-.44a1.2 1.2 0 0 0-.056-.328c-.038-.147-.086-.33-.086-.562 0-.747.575-1.353 1.28-1.353.71 0 1.02.554 1.246.96.052.091.12.215.466.215.365 0 .643-.594.643-.892 0-.628.48-1.139 1.069-1.139" style="fill:#231f20"/></svg>