<svg xmlns="http://www.w3.org/2000/svg" viewBox="0 0 24 24"><path d="M14.5 8a4.5 4.5 0 1 0 4.5 4.5A4.505 4.505 0 0 0 14.5 8m0 8a3.5 3.5 0 1 1 3.5-3.5 3.504 3.504 0 0 1-3.5 3.5M8 9H4V8h4zm13 11H3a2 2 0 0 1-2-2V8a2 2 0 0 1 2-2h1V5h4v1h1.5a.5.5 0 0 0 .5-.5A1.5 1.5 0 0 1 11.5 4h6A1.5 1.5 0 0 1 19 5.5a.5.5 0 0 0 .5.5H21a2 2 0 0 1 2 2v10a2 2 0 0 1-2 2M3 7a1 1 0 0 0-1 1v10a1 1 0 0 0 1 1h18a1 1 0 0 0 1-1V8a1 1 0 0 0-1-1h-1.5A1.5 1.5 0 0 1 18 5.5a.5.5 0 0 0-.5-.5h-6a.5.5 0 0 0-.5.5A1.5 1.5 0 0 1 9.5 7H7V6H5v1z"/><path fill="none" d="M0 0h24v24H0z"/></svg>