<svg xmlns="http://www.w3.org/2000/svg" viewBox="0 0 24 24"><path d="M0 0h24v24H0z" style="fill:none"/><path d="M15 15h-2v-1h2zm-2 7h1v-1h-1zM2.124 20.15 4.848 4.343c.89.215 2.227.457 3.723.457 2.121 0 3.252-.465 4.25-.875.946-.39 1.763-.725 3.49-.725 1.55 0 2.927.38 3.63.615L21.15 11h1.014L20.83 3.078S18.797 2.2 16.31 2.2c-3.847 0-3.891 1.6-7.74 1.6-2.485 0-4.52-.722-4.52-.722L1 20.783S3.034 21.8 6.424 21.8c.97 0 1.812-.056 2.576-.148v-1.008a20 20 0 0 1-2.576.156c-1.999 0-3.493-.38-4.3-.65M24 15.603v4.794c0 .333-.27.603-.603.603H23v2l-1 1H12l-1-1v-2h-.397a.603.603 0 0 1-.603-.603v-4.794c0-.333.27-.603.603-.603H11v-2l1-1h1v-1h4v1h5l1 1v2h.397c.333 0 .603.27.603.603m-2-2.189L21.586 13h-9.172l-.414.414v9.172l.414.414h9.172l.414-.414zM16 18h1v-1h-1zm4 0a3 3 0 1 1-6 0 3 3 0 0 1 6 0m-1 0c0-1.103-.897-2-2-2s-2 .897-2 2 .897 2 2 2 2-.897 2-2" style="fill:#231f20"/></svg>