<svg xmlns="http://www.w3.org/2000/svg" viewBox="0 0 16 16"><path d="M0 0h16v16H0z" style="fill:none"/><path d="M0 0v14h5v-1.922c-.301-.084-.652-.121-.742-.3-.407-.813.693-1.022.693-1.673 0-.16-.082-.488-.334-.513-.351-.035-.443.154-.797.154-.218 0-.437-.143-.437-.36 0-.386.308-.566.308-.952 0-.25-.102-.393-.102-.643 0-.34.25-.643.59-.643.323 0 .464.264.618.54.129.232.353.308.617.308.49 0 .798-.61.798-.977 0-.25.186-.488.437-.488.347 0 .476.36.824.36.57 0 .55-.756 1.053-1.03.618-.332.438-1.052.36-1.44-.032-.169.29-.5.464-.487.72.05.412-.54.412-.823q0-.079.022-.142c.111-.332.595-.438.595-.836 0-.281-.233-.41-.233-.693 0-.153.084-.3.22-.44H13v6h1V0zm9.258 2.007a1.6 1.6 0 0 0-.422.643 1.4 1.4 0 0 0-.074.442 1.7 1.7 0 0 0-.536.43c-.279.338-.392.726-.32 1.091.027.137.062.309.066.414a2 2 0 0 0-.649.67 1.46 1.46 0 0 0-.674-.166c-.658 0-1.214.46-1.383 1.086a1.44 1.44 0 0 0-1.086-.469c-.877 0-1.591.738-1.591 1.643 0 .254.113.293.084.574s-.29.535-.29 1.022c0 .6.413 1.11.984 1.29-.21.384-.324.908-.003 1.549.143.286.636.774.534.774H1V1h8.278c-.013.077-.132.356-.132.44 0 .228.051.417.112.567M15.5 10H15V9l-1-1h-3V7H9v1H8L7 9v1h-.5c-.275 0-.5.225-.5.5v2c0 .275.225.5.5.5H7v2l1 1h6l1-1v-2h.5c.275 0 .5-.225.5-.5v-2c0-.275-.225-.5-.5-.5M14 14.586l-.414.414H8.414L8 14.586V9.414L8.414 9h5.172l.414.414zM11 10a2 2 0 1 0 0 4 2 2 0 0 0 0-4m0 3a1 1 0 1 1 .001-2.001A1 1 0 0 1 11 13" style="fill:#231f20"/></svg>