<svg xmlns="http://www.w3.org/2000/svg" viewBox="0 0 32 32"><path d="M0 0h32v32H0z" style="fill:none"/><path d="M8.538 28.8c2.357 0 3.989-.316 5.462-.731v1.036c-1.464.394-3.133.695-5.462.695C4.093 29.8 1 28 1 28L5 3.9c.7.233 2.519.968 5.34.968 4.807 0 5.59-1.657 10.734-1.657 3.26 0 5.926.689 5.926.689L28.842 15H27.83L26.124 4.729a26 26 0 0 0-5.05-.518c-2.474 0-3.842.393-5.29.81-1.445.417-2.94.847-5.445.847a15.6 15.6 0 0 1-4.544-.65L2.107 27.433a16 16 0 0 0 6.43 1.366M31 20.679v4.642a.68.68 0 0 1-.679.679H30v3l-2 2H17l-2-2v-3h-.321a.68.68 0 0 1-.679-.679V20.68c0-.375.304-.679.679-.679H15v-2l2-2h1v-1h3.996v1H28l2 2v2h.321c.375 0 .679.304.679.679m-2-2.265L27.586 17H17.414L16 18.414v10.172L17.414 30h10.172L29 28.586zM27 23.5a4.5 4.5 0 1 1-9 0 4.5 4.5 0 0 1 9 0m-1 0c0-1.93-1.57-3.5-3.5-3.5S19 21.57 19 23.5s1.57 3.5 3.5 3.5 3.5-1.57 3.5-3.5M19 18h-2v1h2zm-2 11h1v-1h-1zm3-5.5q.001.257.05.5h1.042a1.5 1.5 0 0 1-.092-.5c0-.827.673-1.5 1.5-1.5.176 0 .343.036.5.092v-1.041a2.502 2.502 0 0 0-3 2.45" style="fill:#231f20"/></svg>