<?xml version="1.0" encoding="UTF-8"?><svg id="icons" xmlns="http://www.w3.org/2000/svg" viewBox="0 0 32 32"><defs><style>.cls-1{fill:none;}.cls-2{fill:#231f20;}</style></defs><rect class="cls-1" width="32" height="32"/><path class="cls-2" d="M30,11h-1v-3l-3-3h-11v-1c0-.54999-.45001-1-1-1h-5c-.54999,0-1,.45001-1,1v1h-2l-3,3v3h-1c-.55231,0-1,.44769-1,1v9c0,.55225.44769,1,1,1h1v5l3,3h20l3-3v-5h1c.55231,0,1-.44775,1-1v-9c0-.55231-.44769-1-1-1ZM9,4h5v1h-5v-1ZM2,21v-9h1v9h-1ZM28,26.58594l-2.41406,2.41406H6.41406l-2.41406-2.41406V8.41406l2.41406-2.41406h19.17188l2.41406,2.41406v18.17188ZM30,21h-1v-9h1v9ZM11,10h-4v-1h4v1ZM16.0005,10.0005c-4.41019,0-7.9995,3.58931-7.9995,7.9995s3.58931,7.9995,7.9995,7.9995,7.9995-3.58938,7.9995-7.9995-3.58931-7.9995-7.9995-7.9995ZM16.0005,24.99956c-3.85913,0-6.99956-3.14043-6.99956-6.99956s3.14043-6.99956,6.99956-6.99956,6.99956,3.14037,6.99956,6.99956-3.14043,6.99956-6.99956,6.99956ZM7,27h3v1h-3v-1ZM16,13v1c-2.20605,0-4,1.79395-4,4h-1c0-2.76141,2.23859-5,5-5Z"/></svg>