<?xml version="1.0" encoding="UTF-8"?><svg id="icons" xmlns="http://www.w3.org/2000/svg" viewBox="0 0 24 24"><defs><style>.cls-1{fill:none;}.cls-2{fill:#231f20;}</style></defs><rect class="cls-1" width="24" height="24"/><path class="cls-2" d="M15,15h-2v-1h2v1ZM13,22h1v-1h-1v1ZM2.12384,20.14972l2.72375-15.80664c.89056.21466,2.22717.45691,3.72302.45691,2.12152,0,3.25244-.4649,4.25024-.87506.94623-.38898,1.76337-.72491,3.48987-.72491,1.5506,0,2.92719.38007,3.62988.61499l1.21069,7.185h1.0141l-1.3349-7.92206s-2.03387-.87793-4.51978-.87793c-3.84802,0-3.89209,1.59998-7.74011,1.59998-2.4859,0-4.51978-.72205-4.51978-.72205L1,20.78302s2.03387,1.01697,5.42371,1.01697c.96991,0,1.81238-.0564,2.57629-.14758v-1.00793c-.76056.0957-1.59766.15552-2.57629.15552-1.99866,0-3.49304-.38092-4.29987-.65027ZM24,15.60303v4.79395c0,.33301-.26996.60303-.60303.60303h-.39697v2l-1,1h-10l-1-1v-2h-.39697c-.33307,0-.60303-.27002-.60303-.60303v-4.79395c0-.33307.26996-.60303.60303-.60303h.39697v-2l1-1h1v-1h4v1h5l1,1v2h.39697c.33307,0,.60303.26996.60303.60303ZM22,13.41406l-.41406-.41406h-9.17188l-.41406.41406v9.17188l.41406.41406h9.17188l.41406-.41406v-9.17188ZM16,18h1v-1h-1v1ZM20,18c0,1.65692-1.34308,3-3,3s-3-1.34308-3-3,1.34308-3,3-3,3,1.34302,3,3ZM19,18c0-1.10254-.89746-2-2-2s-2,.89746-2,2,.89746,2,2,2,2-.89746,2-2Z"/></svg>