<?xml version="1.0" encoding="UTF-8"?><svg id="icons" xmlns="http://www.w3.org/2000/svg" viewBox="0 0 24 24"><defs><style>.cls-1{fill:none;}.cls-2{fill:#231f20;}</style></defs><rect class="cls-1" width="24" height="24"/><path class="cls-2" d="M15,15h-2v-1h2v1ZM13,22h1v-1h-1v1ZM20,18c0,1.65692-1.34308,3-3,3s-3-1.34308-3-3,1.34308-3,3-3,3,1.34302,3,3ZM19,18c0-1.10254-.89746-2-2-2s-2,.89746-2,2,.89746,2,2,2,2-.89746,2-2ZM24,15.60303v4.79395c0,.33301-.26996.60303-.60303.60303h-.39697v2l-1,1h-10l-1-1v-2h-.39697c-.33307,0-.60303-.27002-.60303-.60303v-4.79395c0-.33307.26996-.60303.60303-.60303h.39697v-2l1-1h1v-1h4v1h5l1,1v2h.39697c.33307,0,.60303.26996.60303.60303ZM22,13.41406l-.41406-.41406h-9.17188l-.41406.41406v9.17188l.41406.41406h9.17188l.41406-.41406v-9.17188ZM16,18h1v-1h-1v1ZM10.24738,10.48663c-.14618-.11102-.21387-.15613-.29144-.15613-.07043,0-.14441.11011-.14441.21478,0,.62048-.43347,1.46912-1.13617,1.72955-.01312.00513-.02527.01196-.03864.01666-.1239.04132-.25336.06952-.39276.06952-.73553,0-1.09106-.36188-1.25983-.66602-.22382-.39978-.30682-.50897-.45123-.50897-.22021,0-.35651.2229-.35651.42865,0,.11371.02441.20844.05597.32849.0379.14709.08575.32941.08575.56226,0,.38531-.14984.66058-.26984.88165-.10107.185-.15796.29602-.15796.43951,0,.0036.05865.03613.14441.03613.14441,0,.2301-.03345.36011-.08398.18768-.07306.42322-.16876.79053-.1272.57123.05682.87897.64612.87897,1.17139,0,.57214-.37628.94849-.6795,1.25079-.41156.41058-.49097.53967-.33032.85913.02979.00543.26984.06226.42865.09924.48462.11285,1.29413.30237,1.29413,1.10736,0,.37177-.08301.66327-.17236.9223l-.04871.13989c-.09119.25354-.16968.47375-.16968.75446l.00018.02411h.61328v.98029H1V1h19.96051v10h-.96051V1.98022s-3.8042.00739-3.81354.01245c-.81989.44409-.92053.76617-.92053.81763,0,.0722.03345.13354.10199.25452.09296.16516.22021.39075.22021.7066,0,.52521-.35468.82758-.58929,1.02881-.11462.09747-.23285.19855-.25989.27795-.00635.11011.01172.18408.02704.26349.05688.30054.14349.7536-.15613,1.09021-.20123.2265-.51801.32758-.94305.29688.00812.01624-.09564.12549-.14081.20038.13629.67505.33124,1.83649-.74811,2.41766-.18774.10199-.31409.32489-.44672.56042-.2193.38898-.51984.92139-1.23364.92139-.39618,0-.6579-.19763-.85016-.34198ZM9.95593,9.40637c.39526,0,.65698.19763.84827.34204.14709.11096.21478.15613.29333.15613.14618,0,.21478-.07129.42865-.45123.17328-.30774.38898-.68951.81219-.91962.43317-.2337.43317-.67957.28156-1.42139-.06403-.32489.0379-.60461.26984-.86816.12457-.14075.45935-.46655.84113-.43768.1579.01447.21747-.01172.21747-.01172-.03607,0-.0722-.1814-.09021-.27979-.02802-.14258-.04968-.27795-.04968-.38715,0-.12.01807-.23553.05414-.34381.10925-.32312.34564-.52435.53607-.68677.20215-.17328.26532-.24097.26532-.32581,0-.06946-.03247-.13086-.10107-.25177-.09296-.16516-.22107-.39075-.22107-.70935,0-.14587.03705-.28101.08929-.41077.00763-.01855.01361-.03717.02209-.05536.05939-.12939.13855-.25073.23523-.36395H1.97949v18.01978h5.48309l-.00018-.04388c0-.44043.11823-.77252.2229-1.0658l.04602-.13c.07495-.21838.12183-.39795.12183-.62085-.05591-.08575-.39703-.16516-.58026-.20758-.39886-.09387-.85193-.19946-1.04504-.58478-.47559-.94849.11371-1.53778.50446-1.92767.2536-.2536.40796-.42053.40796-.5965,0-.09747-.04694-.23468-.08124-.26624h-.00635c-.10919,0-.1814.02795-.32306.08392-.15881.06134-.3772.14618-.69489.14618-.58929,0-1.06848-.43048-1.06848-.96021,0-.38531.14978-.66058.26984-.88171.10107-.185.1579-.29596.1579-.43945,0-.11371-.02435-.2085-.05597-.32849-.0379-.14716-.08569-.32941-.08569-.56226,0-.74634.57483-1.35278,1.28058-1.35278.70844,0,1.01886.55408,1.24536.95929.05145.09204.11914.2157.4657.2157.36548,0,.64343-.59381.64343-.8916,0-.62811.47919-1.13892,1.06854-1.13892Z"/></svg>