<svg xmlns="http://www.w3.org/2000/svg" viewBox="0 0 16 16"><path d="M0 0h16v16H0z" style="fill:none"/><path d="M8.01 5.01a3.99 3.99 0 1 0 0 7.98 3.99 3.99 0 0 0 0-7.98m0 6.983c-1.65 0-2.993-1.343-2.993-2.993S6.36 6.008 8.01 6.008 11.003 7.35 11.003 9 9.66 11.993 8.01 11.993M6 5H4V4h2zm-2 8h1v1H4zm11.5-7H15V4l-2-2H8V1H4v1h-.969L1 3.906V6H.5c-.275 0-.5.225-.5.5v5c0 .275.225.5.5.5H1v2l2 2h10l2-1.969V12h.5c.275 0 .5-.225.5-.5v-5c0-.275-.225-.5-.5-.5M14 13.612 12.59 15H3.415L2 13.586V4.339L3.427 3h9.159L14 4.414zM8 7v1a1 1 0 0 0-1 1H6c0-1.103.897-2 2-2" style="fill:#231f20"/></svg>