<?xml version="1.0" encoding="UTF-8"?><svg id="icons" xmlns="http://www.w3.org/2000/svg" viewBox="0 0 32 32"><defs><style>.cls-1{fill:none;}.cls-2{fill:#231f20;}</style></defs><rect class="cls-1" width="32" height="32"/><path class="cls-2" d="M22.5,19.0005c-2.48514,0-4.4995,2.01436-4.4995,4.4995s2.01436,4.4995,4.4995,4.4995,4.4995-2.01436,4.4995-4.4995-2.01436-4.4995-4.4995-4.4995ZM22.5,27c-1.92999,0-3.5-1.57001-3.5-3.5s1.57001-3.5,3.5-3.5,3.5,1.56995,3.5,3.5-1.57001,3.5-3.5,3.5ZM19,19h-2v-1h2v1ZM18,29h-1v-1h1v1ZM20.05054,24c-.0329-.16162-.05054-.32874-.05054-.5,0-1.37891,1.12109-2.5,2.5-2.5.17126,0,.33838.01764.5.05054v1.04156c-.15717-.05603-.32385-.0921-.5-.0921-.82715,0-1.5.67285-1.5,1.5,0,.17615.03607.34283.0921.5h-1.04156ZM30.32129,20h-.32129v-2l-2-2h-6.00391v-1h-3.99609v1h-1l-2,2v2h-.32129c-.37488,0-.67871.30383-.67871.67871v4.64258c0,.37482.30383.67871.67871.67871h.32129v3l2,2h11l2-2v-3h.32129c.37488,0,.67871-.30389.67871-.67871v-4.64258c0-.37488-.30383-.67871-.67871-.67871ZM29,28.58594l-1.41406,1.41406h-10.17188l-1.41406-1.41406v-10.17188l1.41406-1.41406h10.17188l1.41406,1.41406v10.17188ZM13,26h-2.03394c.01227-.06512.01929-.13068.01929-.19678,0-.43164.12012-.76709.2373-1.09473l.05957-.16846c.07227-.20801.15039-.45996.17969-.75635.04492-.45459-.22363-.88232-.65332-1.03857-.16699-.06104-.43164-.12646-.61133-.16846-.84473-.19727-.98535-.40381-1.00488-.44287-.25391-.50586-.1123-.75293.50586-1.34082l.17969-.17383c.34668-.34863.70508-.70898.70508-1.24121,0-.32324-.15625-.62646-.41895-.81396-.17188-.12256-.375-.18604-.58105-.18604-.10938,0-.21875.01807-.3252.0542l-.15918.05908c-.18555.07275-.3457.13525-.61035.13525-.33789,0-.62402-.22412-.62402-.48975,0-.30029.12109-.52441.24805-.75879.14062-.25537.28613-.52002.28613-.8916,0-.22852-.04492-.40234-.09473-.59717-.04492-.17236-.08301-.3208-.08301-.5166,0-.5415.40039-.98193.8916-.98193.39746,0,.5957.22705.94238.84521.2168.41504.61914.62549,1.19727.62549.91113,0,1.51562-1.1001,1.51562-1.82764,0-.39307.28027-.71289.625-.71289.09863,0,.27734.15674.40723.271.08301.07227.1582.13721.25293.2085.10938.08252.24609.05225.29004.07568.15039.08301.31543.12402.48145.12402.19434,0,.38867-.05664.55566-.16895.24902-.16602.39746-.28662.59375-.63867l.11621-.21484c.15625-.29443.37012-.69775.61816-.83203,1.11133-.59912.85059-1.86572.71191-2.5415l-.01953-.09766c-.01074-.05518.02539-.1792.16211-.34473.12012-.14453.33008-.32031.52734-.33984.2793-.02734.53223-.18555.7002-.41064.16895-.2251.23145-.52539.17871-.80127-.02539-.12988-.04883-.25244-.04883-.35205,0-.07129.01074-.14014.02832-.19238.04395-.0874.28125-.25879.39453-.34131.10547-.07617.2002-.14648.3125-.2417l.10645-.08936c.31543-.21436.49219-.6001.42383-.99756-.03418-.20117-.12207-.35449-.2041-.49854-.05566-.09912-.1709-.25049-.31934-.42383-.08594-.10059-.25293-.29688-.32129-.41504.08691-.34082.85449-.74072,1.47852-1.06592l.2041-.10693c.33417-.17554.52338-.52051.52362-.88525h4.45294v13h1V1H1v26h12v-1ZM10.33783,24.2121l-.05756.16248c-.13202.36816-.29535.8269-.29535,1.42865l-.0119.06262c-.00507.04376-.00983.08936-.01483.13416H2V2l18.5-.03c-1.09839.57678-2.16669,1.12821-2.16669,2.15,0,.47144.65259,1.04742.77704,1.26752.03381.06006.08459.14978.08972.17773-.01611.00421-.14478.11426-.23022.18701-.25134.21411-.80493.50696-.96576.98431-.0567.16925-.08459.34448-.08459.52136,0,.15234.02875.34106.06683.53998.00171.00928.00336.01862.00592.02875-.63306.06183-1.07147.54254-1.19928.69659-.31909.38757-.44855.79382-.37408,1.17468l.02032.10242c.18958.92255.13965,1.27887-.20569,1.46509-.60345.32666-.90814,1.04083-1.13074,1.4361-.08459.15063-.2124.3783-.27844.42316-.0296-.01611-.12946-.09229-.19635-.14307-.25647-.19379-.64404-.66083-1.23566-.66083-.8963,0-1.625.76849-1.625,1.71301,0,.29962-.29791.82776-.51544.82776-.26239,0-.29456-.05756-.31146-.08887-.31738-.56708-.77185-1.38208-1.82812-1.38208-1.04272,0-1.8916.88953-1.8916,1.98212,0,.32758.06519.57556.11676.77527.03979.15234.06097.237.06097.33856,0,.10413-.04401.19464-.16168.40961-.15656.28864-.23676.68475-.23676,1.24078,0,.82098.59308,1.48956,1.48853,1.48956.45197,0,.75409-.11761.97418-.20398.05078-.01941.08887-.03381.12018-.0448v.00671c0,.11511-.23615.3504-.42487.53998-.48071.47906-1.54785,1.28363-.8606,2.65723.30219.6026,1.13904.84418,1.67224.96857.14386.03387.36053.08466.49683.13458-.01697.17603-.06348.33856-.12866.52728Z"/></svg>