<?xml version="1.0" encoding="UTF-8"?><svg id="icons" xmlns="http://www.w3.org/2000/svg" viewBox="0 0 16 16"><defs><style>.cls-1{fill:none;}.cls-2{fill:#231f20;}</style></defs><rect class="cls-1" width="16" height="16"/><path class="cls-2" d="M6,14.57709c-.63995.13367-1.35168.2229-2.20734.2229-2.37036,0-3.79266-.71094-3.79266-.71094L2.13281,1.48828s1.42273.51172,3.16119.51172c2.6875,0,2.72125-.98572,5.41199-.98572,1.73846,0,3.16119.67401,3.16119.67401l.89905,5.31171h-1.01422l-.77643-4.58722c-.49542-.16968-1.33667-.3985-2.26959-.3985-1.17035,0-1.7251.20081-2.36743.43335-.71515.25891-1.52576.55237-3.04456.55237-.90814,0-1.73621-.12622-2.35883-.26007l-1.81061,10.69733c.57385.16846,1.49091.36273,2.66809.36273.86499,0,1.56873-.09967,2.20734-.24719v1.02429ZM16,10.5v2c0,.27496-.22498.5-.5.5h-.5v2l-1,1h-6l-1-1v-2h-.5c-.27502,0-.5-.22504-.5-.5v-2c0-.27502.22498-.5.5-.5h.5v-1l1-1h1v-1h2v1h3l1,1v1h.5c.27502,0,.5.22498.5.5ZM14,9.41406l-.41406-.41406h-5.17188l-.41406.41406v5.17188l.41406.41406h5.17188l.41406-.41406v-5.17188ZM13,12c0,1.10455-.89545,2-2,2s-2-.89545-2-2c0-1.10461.89545-2,2-2s2,.89539,2,2ZM12,12c0-.55176-.44824-1-1-1s-1,.44824-1,1,.44824,1,1,1,1-.44824,1-1Z"/></svg>