<svg xmlns="http://www.w3.org/2000/svg" viewBox="0 0 32 32"><path d="M0 0h32v32H0z" style="fill:none"/><path d="M22.5 19a4.5 4.5 0 1 0 0 9 4.5 4.5 0 0 0 0-9m0 8c-1.93 0-3.5-1.57-3.5-3.5s1.57-3.5 3.5-3.5 3.5 1.57 3.5 3.5-1.57 3.5-3.5 3.5M19 19h-2v-1h2zm-1 10h-1v-1h1zm2.05-5A2.502 2.502 0 0 1 23 21.05v1.042a1.5 1.5 0 0 0-.5-.092c-.827 0-1.5.673-1.5 1.5 0 .176.036.343.092.5zm10.271-4H30v-2l-2-2h-6.004v-1H18v1h-1l-2 2v2h-.321a.68.68 0 0 0-.679.679v4.642c0 .375.304.679.679.679H15v3l2 2h11l2-2v-3h.321a.68.68 0 0 0 .679-.679V20.68a.68.68 0 0 0-.679-.679M29 28.586 27.586 30H17.414L16 28.586V18.414L17.414 17h10.172L29 18.414zM13 26h-2.034q.019-.097.02-.197c0-.431.12-.767.237-1.095l.06-.168c.071-.208.15-.46.179-.756a1 1 0 0 0-.653-1.039 6 6 0 0 0-.612-.168c-.844-.198-.985-.404-1.005-.443-.254-.506-.112-.753.506-1.341l.18-.174c.347-.348.705-.709.705-1.241a1 1 0 0 0-1.325-.946l-.16.06c-.185.072-.345.134-.61.134-.338 0-.624-.224-.624-.49 0-.3.121-.524.248-.758.14-.255.286-.52.286-.892 0-.228-.044-.402-.094-.597a2 2 0 0 1-.083-.516c0-.542.4-.982.891-.982.398 0 .596.227.943.845.216.415.619.625 1.197.625.911 0 1.516-1.1 1.516-1.827 0-.393.28-.713.625-.713.098 0 .277.157.407.27.083.073.158.138.253.21.11.082.246.052.29.075a.99.99 0 0 0 1.037-.045 1.56 1.56 0 0 0 .594-.639l.116-.214c.156-.295.37-.698.618-.833 1.111-.599.85-1.865.712-2.541l-.02-.098c-.01-.055.026-.179.162-.344.12-.145.33-.32.528-.34a1 1 0 0 0 .7-.41 1.03 1.03 0 0 0 .179-.802 2 2 0 0 1-.05-.352.6.6 0 0 1 .03-.193c.043-.087.28-.258.394-.34.105-.077.2-.147.312-.243l.107-.089c.315-.214.492-.6.424-.998-.035-.2-.123-.354-.205-.498a3 3 0 0 0-.319-.424 4 4 0 0 1-.321-.415c.087-.34.854-.74 1.478-1.066l.204-.107A.99.99 0 0 0 21.547 2H26v13h1V1H1v26h12zm-2.662-1.788-.058.163c-.132.368-.295.826-.295 1.428l-.012.063-.015.134H2V2l18.5-.03c-1.098.577-2.167 1.128-2.167 2.15 0 .471.653 1.047.777 1.268.034.06.085.15.09.177-.016.004-.145.115-.23.187-.251.214-.805.507-.966.985q-.085.255-.084.52c0 .153.028.342.066.54l.006.03c-.633.061-1.071.542-1.199.696-.32.388-.449.794-.374 1.175l.02.102c.19.923.14 1.28-.205 1.465-.604.327-.909 1.041-1.131 1.437-.085.15-.213.378-.279.423-.03-.016-.13-.093-.196-.143-.256-.194-.644-.661-1.236-.661-.896 0-1.625.768-1.625 1.713 0 .3-.298.828-.515.828-.262 0-.295-.058-.312-.09-.317-.566-.771-1.381-1.828-1.381-1.042 0-1.891.89-1.891 1.982 0 .327.065.575.116.775.04.152.061.237.061.339 0 .104-.044.194-.161.41-.157.288-.237.684-.237 1.24 0 .82.593 1.49 1.489 1.49.452 0 .754-.118.974-.204q.074-.03.12-.045v.006c0 .116-.236.35-.425.54-.48.48-1.548 1.284-.86 2.658.302.602 1.138.844 1.672.968.144.034.36.085.496.135a2.3 2.3 0 0 1-.128.527" style="fill:#231f20"/></svg>