<svg xmlns="http://www.w3.org/2000/svg" viewBox="0 0 32 32"><path d="M0 0h32v32H0z" style="fill:none"/><path d="M30 11h-1V8l-3-3H15V4c0-.55-.45-1-1-1H9c-.55 0-1 .45-1 1v1H6L3 8v3H2a1 1 0 0 0-1 1v9a1 1 0 0 0 1 1h1v5l3 3h20l3-3v-5h1a1 1 0 0 0 1-1v-9a1 1 0 0 0-1-1M9 4h5v1H9zM2 21v-9h1v9zm26 5.586L25.586 29H6.414L4 26.586V8.414L6.414 6h19.172L28 8.414zM30 21h-1v-9h1zM11 10H7V9h4zm5 0c-4.41 0-7.999 3.59-7.999 8s3.59 8 8 8S24 22.41 24 18s-3.59-8-8-8m0 15c-3.859 0-7-3.14-7-7s3.141-7 7-7 7 3.14 7 7-3.14 7-7 7m-9 2h3v1H7zm9-14v1c-2.206 0-4 1.794-4 4h-1a5 5 0 0 1 5-5" style="fill:#231f20"/></svg>