<svg xmlns="http://www.w3.org/2000/svg" viewBox="0 0 24 24"><path d="M0 0h24v24H0z" style="fill:none"/><path d="M22.267 8H21V6l-2-2h-8V2H6v2H5L3 6v2H1.733A.74.74 0 0 0 1 8.75v6.5c0 .415.328.75.733.75H3v4l2 2h14l2-2v-4h1.267a.74.74 0 0 0 .733-.75v-6.5a.74.74 0 0 0-.733-.75M7 3h3v1H7zM2 15V9h1v6zm18 4.586L18.586 21H5.414L4 19.586V6.414L5.414 5h13.172L20 6.414zM22 15h-1V9h1zM9 7H6V6h3zM6 19h2v1H6zm6-10.85c-2.673 0-4.85 2.176-4.85 4.85s2.177 4.85 4.85 4.85 4.85-2.176 4.85-4.85S14.674 8.15 12 8.15m0 8.73c-2.14 0-3.88-1.74-3.88-3.88S9.86 9.12 12 9.12s3.88 1.74 3.88 3.88-1.74 3.88-3.88 3.88M12 10v1c-1.103 0-2 .897-2 2H9c0-1.654 1.346-3 3-3" style="fill:#231f20"/></svg>