<svg xmlns="http://www.w3.org/2000/svg" viewBox="0 0 16 16"><path d="M0 0h16v16H0z" style="fill:none"/><path d="M6 14.577c-.64.134-1.352.223-2.207.223-2.37 0-3.793-.711-3.793-.711l2.133-12.6S3.556 2 5.294 2c2.688 0 2.721-.986 5.412-.986 1.738 0 3.161.674 3.161.674l.9 5.312h-1.015l-.776-4.587c-.496-.17-1.337-.399-2.27-.399-1.17 0-1.725.201-2.367.434C7.623 2.707 6.813 3 5.294 3c-.908 0-1.736-.126-2.359-.26l-1.81 10.697c.573.169 1.49.363 2.668.363.865 0 1.568-.1 2.207-.247zM16 10.5v2c0 .275-.225.5-.5.5H15v2l-1 1H8l-1-1v-2h-.5a.5.5 0 0 1-.5-.5v-2c0-.275.225-.5.5-.5H7V9l1-1h1V7h2v1h3l1 1v1h.5c.275 0 .5.225.5.5m-2-1.086L13.586 9H8.414L8 9.414v5.172l.414.414h5.172l.414-.414zM13 12a2 2 0 1 1-4 0 2 2 0 0 1 4 0m-1 0a1 1 0 1 0-2.001.001A1 1 0 0 0 12 12" style="fill:#231f20"/></svg>