<svg xmlns="http://www.w3.org/2000/svg" viewBox="0 0 32 32"><path d="M11 13H6v-1h5zm16.5 13a2.503 2.503 0 0 0 2.5-2.5v-12A2.503 2.503 0 0 0 27.5 9H27a1 1 0 0 1-1-1 2 2 0 0 0-2-2h-8a2 2 0 0 0-2 2 1 1 0 0 1-1 1h-2V8H6v1H4.5A2.503 2.503 0 0 0 2 11.5V22h1V11.5A1.5 1.5 0 0 1 4.5 10H7V9h3v1h3a2 2 0 0 0 2-2 1 1 0 0 1 1-1h8a1 1 0 0 1 1 1 2 2 0 0 0 2 2h.5a1.5 1.5 0 0 1 1.5 1.5v12a1.5 1.5 0 0 1-1.5 1.5H15v.999zm-13.3-9a5.8 5.8 0 1 1 5.8 5.8 5.806 5.806 0 0 1-5.8-5.8m1 0a4.8 4.8 0 1 0 4.8-4.8 4.805 4.805 0 0 0-4.8 4.8M8 24.999h5V24H8v-5H7v5H2v.999h5V30h1z"/><path fill="none" d="M0 0h32v32H0z"/></svg>