<?xml version="1.0" encoding="UTF-8"?><svg id="icons" xmlns="http://www.w3.org/2000/svg" viewBox="0 0 16 16"><defs><style>.cls-1{fill:none;}.cls-2{fill:#231f20;}</style></defs><rect class="cls-1" width="16" height="16"/><path class="cls-2" d="M0,0v14h5v-1.92151c-.30145-.08453-.6524-.12164-.74219-.30121-.40723-.8125.69336-1.02142.69336-1.67181,0-.16016-.08209-.48828-.33398-.51367-.35162-.03522-.44342.1543-.79688.1543-.21875,0-.4375-.14264-.4375-.35944,0-.38666.30859-.56635.30859-.95306,0-.25-.10254-.39264-.10254-.64264,0-.33978.25092-.64258.59082-.64258.32233,0,.46289.26373.61719.53912.12891.23236.35352.30859.61719.30859.48926,0,.79785-.60944.79785-.97662,0-.25.18646-.48816.4375-.48816.34668,0,.47559.35925.8233.35925.57117,0,.55066-.7558,1.05365-1.0293.61725-.33197.4375-1.05267.36035-1.43939-.0332-.16986.2901-.5.46289-.48828.7207.05078.41211-.53912.41211-.82233,0-.05267.00775-.09961.02246-.14246.11133-.33215.59473-.4375.59473-.836,0-.28125-.23242-.41016-.23242-.6933,0-.15253.08386-.29938.22003-.43951h2.63348v6h1V0H0ZM9.25781,2.00684c-.15137.14648-.32422.35254-.42188.64355-.04688.1377-.07227.28711-.07422.44141-.27051.13477-.44922.3252-.53613.43066-.27832.33789-.3916.72559-.32031,1.09082.02734.13672.0625.30859.06641.41406-.31543.19336-.51074.44824-.64844.66895-.18262-.09277-.4043-.16504-.67383-.16504-.6582,0-1.21484.45996-1.38379,1.08594-.24121-.25293-.58398-.46875-1.08594-.46875-.87695,0-1.59082.7373-1.59082,1.64258,0,.25391.11346.29291.08398.57422s-.29004.53479-.29004,1.02148c0,.59961.41309,1.11035.98438,1.29004-.20996.38379-.32422.9082-.00293,1.54883.14258.28613.63574.77441.53351.77441H1V1h8.27777c-.0127.07715-.13129.35645-.13129.43945,0,.22852.05078.41797.11133.56738ZM15.5,10h-.5v-1l-1-1h-3v-1h-2v1h-1l-1,1v1h-.5c-.27502,0-.5.22498-.5.5v2c0,.27496.22498.5.5.5h.5v2l1,1h6l1-1v-2h.5c.27502,0,.5-.22504.5-.5v-2c0-.27502-.22498-.5-.5-.5ZM14,14.58594l-.41406.41406h-5.17188l-.41406-.41406v-5.17188l.41406-.41406h5.17188l.41406.41406v5.17188ZM11,10c-1.10455,0-2,.89539-2,2,0,1.10455.89545,2,2,2s2-.89545,2-2c0-1.10461-.89545-2-2-2ZM11,13c-.55176,0-1-.44824-1-1s.44824-1,1-1,1,.44824,1,1-.44824,1-1,1Z"/></svg>