<?xml version="1.0" encoding="UTF-8"?><svg id="icons" xmlns="http://www.w3.org/2000/svg" viewBox="0 0 32 32"><defs><style>.cls-1{fill:none;}</style></defs><rect class="cls-1" width="32" height="32"/><path d="M30.99103,15l-5.99103-11H7L1.00897,15l-.00897,13h30l-.00897-13ZM7.61816,5h16.76367l5.5,10h-2.88184v-4h-2v-3h-2v-2h-14v2h-2v3h-2v4h-2.88184L7.61816,5ZM22,8h-12v-1h12v1ZM24,9v2H8v-2h16ZM26,12v3h-5l-2,4h-6l-2-4h-5v-3h20ZM1.99198,27l.00684-11h8.38302l2,4h7.23633l2-4h8.38302l.00684,11H1.99198Z"/></svg>