<svg xmlns="http://www.w3.org/2000/svg" viewBox="0 0 32 32"><path d="M22 9.662c.69.308 3.21 1.483 3.21 1.483A54 54 0 0 1 29 13.107V3h-8v6.207q.499.23 1 .455" opacity=".5"/><path d="M6 18.997c.06-.042.114-.088.175-.129a12.5 12.5 0 0 1 1.691-.77q.94-.534 1.905-.979A9.4 9.4 0 0 1 11 16.69v-3.76a47 47 0 0 0-2.127-1.058c-.952-.44-1.91-.888-2.873-1.322z" opacity=".75"/><path d="M3.61 20.012c.14-.08.261-.182.39-.275v.855l-.04.026a6 6 0 0 1-.586.282l-.094.041a.7.7 0 0 1-.236.05c-.015 0-.03.009-.044.009v3h1v1H2V2h10v4h-1V3H3v17.3a6 6 0 0 0 .61-.288M30 2v28H20v-9.879l1-1v1.289a9 9 0 0 1 1-.34 6.2 6.2 0 0 0 1.56-.619 7.6 7.6 0 0 0 .9-.644c.214-.17.43-.34.659-.495a5.2 5.2 0 0 1 1.074-.514c.211-.082.423-.163.63-.263.617-.351 1.26-.682 1.906-.98.092-.04.18-.064.271-.1V14.14a52 52 0 0 0-4.169-2.178L21 10.176v3.703l-1-1V2zm-1 15.425c-.576.27-1.16.567-1.739.895a8 8 0 0 1-.744.317 4.5 4.5 0 0 0-.896.422c-.207.14-.403.295-.597.45a8.5 8.5 0 0 1-1.014.722 7.2 7.2 0 0 1-2.01.775 9 9 0 0 0-1 .295V29h8zm0-4.318V3h-8v6.207l4.21 1.938A54 54 0 0 1 29 13.107M12 7h3v8h-1V8h-2v19H6v2h8V18h1v12H5V7zm-1 10.42a8 8 0 0 0-.948.34 25 25 0 0 0-1.84.947 8 8 0 0 1-.73.31 4.6 4.6 0 0 0-.917.432c-.196.133-.38.28-.565.426V26h5zm0-4.49a47 47 0 0 0-2.127-1.059c-.952-.44-1.91-.888-2.873-1.322v8.448c.06-.042.114-.088.175-.129a12.5 12.5 0 0 1 1.691-.77q.94-.534 1.905-.979A9.4 9.4 0 0 1 11 16.69zM11 8H6v1.774c.676.301 3.167 1.461 3.167 1.461.58.268 1.194.576 1.833.906zm2 8v1h7.293l-2.646 2.646.707.707 3.853-3.853-3.854-3.854-.707.707L20.293 16z"/><path d="M11 3v3H4v13.737c-.129.093-.25.195-.39.275A6 6 0 0 1 3 20.3V3zm15.517 15.637a4.5 4.5 0 0 0-.896.422c-.207.14-.403.295-.597.45a8.5 8.5 0 0 1-1.014.722 7.2 7.2 0 0 1-2.01.775 9 9 0 0 0-1 .295V29h8V17.425c-.576.27-1.16.567-1.739.895a8 8 0 0 1-.744.317M6 9.774c.676.301 3.167 1.461 3.167 1.461.58.268 1.194.576 1.833.906V8H6zM12 25v2H6v2h8V18h-1a1 1 0 0 1-1-1zm-1-1v-6.58a8 8 0 0 0-.948.34 25 25 0 0 0-1.84.947 8 8 0 0 1-.73.31 4.6 4.6 0 0 0-.917.432c-.196.133-.38.28-.565.426V26h5z" opacity=".2"/><path fill="none" d="M0 0h32v32H0z"/><path fill="none" d="M0 0h32v32H0z"/></svg>