<svg xmlns="http://www.w3.org/2000/svg" viewBox="0 0 32 32"><path d="M5 12H3v-2h2v2zm0 1H3v2h2v-2zm0 3H3v2h2v-2zm22.999 7H27v5.5a.5.5 0 0 1-.5.5h-24a.5.5 0 0 1-.5-.5v-25a.5.5 0 0 1 .5-.5h24a.5.5 0 0 1 .5.5V5h1V3.5c0-.827-.673-1.5-1.5-1.5h-24C1.673 2 1 2.673 1 3.5v25c0 .827.673 1.5 1.5 1.5h24c.827 0 1.5-.673 1.5-1.5V23h-.001zM17.68 22H28c.8 0 1.554-.312 2.121-.879S31 19.801 31 19V9c0-1.654-1.346-3-3-3H9.999A3.002 3.002 0 0 0 7 9v10c0 1.654 1.345 3 2.999 3H11v6l6.68-6zM28 7c1.103 0 2 .897 2 2v10c0 .534-.208 1.036-.586 1.414S28.534 21 28 21H17.318l-5.319 4.433V21h-2A2.001 2.001 0 0 1 8 19V9c0-1.103.896-2 1.999-2H28z"/><path fill="none" d="M0 0h32v32H0z"/></svg>