<svg xmlns="http://www.w3.org/2000/svg" viewBox="0 0 24 24"><path d="M15.64 7.147c.808.335 1.573.694 2.312 1.042l.89.416A39 39 0 0 1 22 10.258V2h-7v4.942a.7.7 0 0 1 .265.052z" opacity=".5"/><path d="M22 13.247V22h-7v-5.807l.024.006h.01a6.3 6.3 0 0 0 2.946-.76 6 6 0 0 0 .771-.55c.133-.106.267-.212.408-.307a3.2 3.2 0 0 1 .626-.294 6 6 0 0 0 .559-.239c.434-.246.883-.477 1.32-.679.112-.05.224-.083.336-.123M7.167 8.235c.58.268 1.194.576 1.833.906V4H4v2.774a413 413 0 0 1 3.167 1.461M10 20v1H4v1h7v-9h-1zm-1-6.27a8 8 0 0 0-.948.34c-.612.283-1.236.604-1.84.947a8 8 0 0 1-.73.31 4.6 4.6 0 0 0-.917.432c-.196.133-.38.28-.565.426V20h5z" opacity=".2"/><path d="M6.873 8.871C5.921 8.431 4.963 7.983 4 7.55v7.759c.06-.043.114-.089.175-.13a12.5 12.5 0 0 1 1.691-.77q.94-.534 1.905-.979A9.4 9.4 0 0 1 9 13V9.93a47 47 0 0 0-2.127-1.06z" opacity=".75"/><path d="M10 2H2v19H1V1h9zm4-1h9v22h-9v-7.772a3.1 3.1 0 0 0 1 .062 5.4 5.4 0 0 0 2.526-.64 5 5 0 0 0 .634-.454c.163-.129.322-.255.491-.37a4 4 0 0 1 .806-.386c.15-.057.302-.115.45-.187.449-.256.915-.495 1.387-.714A7 7 0 0 1 22 12.28v-.977a38 38 0 0 0-3.54-1.873l-.863-.404c-.762-.358-1.51-.71-2.267-1.024a3 3 0 0 0-.33-.134 3.3 3.3 0 0 0-.553-.15 1.6 1.6 0 0 0-.447.054zm8 12.247c-.112.04-.224.074-.337.123a18 18 0 0 0-1.32.68 6 6 0 0 1-.558.238 3.2 3.2 0 0 0-.626.294c-.14.095-.275.2-.408.306a6 6 0 0 1-.77.55 6.3 6.3 0 0 1-2.946.761h-.01L15 16.193V22h7zm-7-6.305a.7.7 0 0 1 .265.052l.376.153c.807.335 1.572.694 2.311 1.042l.89.415A39 39 0 0 1 22 10.258V2h-7zM11 13h1v10H3V3h9v7h-1V4h-1v6a1 1 0 0 0-.999.999l-.001 1v-2.07a47 47 0 0 0-2.127-1.058C5.921 8.431 4.963 7.983 4 7.55v7.759c.06-.043.114-.089.175-.13a12.5 12.5 0 0 1 1.691-.77q.94-.534 1.905-.979A9.4 9.4 0 0 1 9 13v-1.001A1 1 0 0 0 10 13v8H4v1h7zM4 6.774c.676.301 3.167 1.461 3.167 1.461.58.268 1.194.576 1.833.906V4H4zM4 20h5v-6.27a8 8 0 0 0-.948.34c-.612.283-1.236.604-1.84.947a8 8 0 0 1-.73.31 4.6 4.6 0 0 0-.917.432c-.196.133-.38.28-.565.426zm10.283-5.717 2.783-2.783-2.783-2.783-.565.566L15.435 11H10v1h5.435l-1.717 1.717z"/><path fill="none" d="M0 0h24v24H0z"/><path fill="none" d="M0 0h24v24H0z"/></svg>