<svg xmlns="http://www.w3.org/2000/svg" viewBox="0 0 24 24"><path d="m22.764 20.476-4.24-4.24a.81.81 0 0 0-1.144 0l-.218.219-1.456-1.456a8.32 8.32 0 1 0-.708.707l1.457 1.456-.219.218a.81.81 0 0 0 0 1.145l4.24 4.238a.81.81 0 0 0 1.143 0l1.145-1.143a.81.81 0 0 0 0-1.144M2.2 9.5a7.3 7.3 0 1 1 7.3 7.3 7.31 7.31 0 0 1-7.3-7.3m18.848 12.421-3.97-3.968.874-.873 3.97 3.968zM15 12.25v-5.5a.75.75 0 0 0-.75-.75h-1.5a.75.75 0 0 0-.75.75v5.5a.75.75 0 0 0 .75.75h1.5a.75.75 0 0 0 .75-.75M14 12h-1V7h1zm-3.75-8h-1.5a.75.75 0 0 0-.75.75v7.5a.75.75 0 0 0 .75.75h1.5a.75.75 0 0 0 .75-.75v-7.5a.75.75 0 0 0-.75-.75M10 12H9V5h1zM6.25 8h-1.5a.75.75 0 0 0-.75.75v3.5a.75.75 0 0 0 .75.75h1.5a.75.75 0 0 0 .75-.75v-3.5A.75.75 0 0 0 6.25 8M6 12H5V9h1z"/><path fill="none" d="M0 0h24v24H0z"/></svg>