<svg xmlns="http://www.w3.org/2000/svg" viewBox="0 0 24 24"><path d="m10.626 21.142.028.027a21.6 21.6 0 0 1-5.23.631A13.1 13.1 0 0 1 0 20.783L3.05 3.078a15 15 0 0 0 4.52.722c3.849 0 3.893-1.6 7.74-1.6a12.7 12.7 0 0 1 4.52.878l1.695 10.054a2 2 0 0 0-.401.296l-.484.473-1.7-10.086a11.9 11.9 0 0 0-3.63-.615 7.8 7.8 0 0 0-3.49.725 9.8 9.8 0 0 1-4.25.875 16.2 16.2 0 0 1-3.722-.457L1.124 20.15a13.7 13.7 0 0 0 4.3.65 20 20 0 0 0 4.673-.53 2 2 0 0 0 .529.872m4.867.528-2.832-2.663-.685.728 3.53 3.321 7.684-7.522-.699-.715z"/><path fill="none" d="M0 0h24v24H0z"/></svg>