<svg xmlns="http://www.w3.org/2000/svg" viewBox="0 0 16 16"><path d="m5.852 13.584.83.83a10.6 10.6 0 0 1-2.89.386A9.2 9.2 0 0 1 0 14.089l2.133-12.6A10.4 10.4 0 0 0 5.294 2c2.688 0 2.721-.986 5.412-.986a8.2 8.2 0 0 1 3.161.674l.942 5.566a1.44 1.44 0 0 0-.988.156l-.845-4.997a7.2 7.2 0 0 0-2.27-.399 5.9 5.9 0 0 0-2.367.434A7.8 7.8 0 0 1 5.294 3a11.4 11.4 0 0 1-2.359-.26l-1.81 10.697a9.5 9.5 0 0 0 2.668.363 9.6 9.6 0 0 0 2.06-.216zm9.397-4.136-.707-.707-4.985 4.984-2.1-2.102-.707.707 2.807 2.81z"/><path fill="none" d="M0 0h16v16H0z"/></svg>