<svg xmlns="http://www.w3.org/2000/svg" viewBox="0 0 32 32"><path d="m15.202 28.725.024.022A20.4 20.4 0 0 1 8.538 29.8 16.3 16.3 0 0 1 1 28L5 3.9a15 15 0 0 0 5.34.968c4.807 0 5.59-1.657 10.734-1.657A26.4 26.4 0 0 1 27 3.9l2.378 14.33a2 2 0 0 0-.202.163l-.674.664-2.378-14.328a26.3 26.3 0 0 0-5.05-.518 16.6 16.6 0 0 0-5.29.81 17.4 17.4 0 0 1-5.445.847 15.6 15.6 0 0 1-4.544-.65L2.108 27.433a16 16 0 0 0 6.43 1.366 19.2 19.2 0 0 0 6.143-.932 2 2 0 0 0 .521.857zm5.297.954-3.256-3.084-.687.726 3.957 3.749 10.735-10.577-.701-.712z"/><path fill="none" d="M0 0h32v32H0z"/></svg>