<svg xmlns="http://www.w3.org/2000/svg" viewBox="0 0 24 24"><path d="M12.956 21.777a9 9 0 0 1 .84.932 10.12 10.12 0 0 1-8.736-3.106 8.6 8.6 0 0 1 1.239-.192A9.25 9.25 0 0 0 12.5 21.8c.154 0 .304-.016.456-.023M10.37 3.456a8.6 8.6 0 0 0 .584-1.127A10.32 10.32 0 0 0 3.44 7.603a9 9 0 0 0 1.26-.148 9.32 9.32 0 0 1 5.672-4zm11.478 4.748a8.6 8.6 0 0 0-.407 1.77A9.3 9.3 0 0 1 21.8 12.5a9 9 0 0 1-.055.992 8.6 8.6 0 0 0 .697 1.656 10.1 10.1 0 0 0-.593-6.944zm-.702 7.697a10 10 0 0 0 .648 1.007 10.34 10.34 0 0 1-6.383 5.466 10 10 0 0 0-.65-.864 9 9 0 0 0 1.657-.588 11.68 11.68 0 0 0-12.271-4.359 9.3 9.3 0 0 0 .919 1.502 10 10 0 0 0-1.053.26 10.2 10.2 0 0 1-1.23-9.21c.072 0 .143.01.216.01.29 0 .576-.02.86-.044a9 9 0 0 0-.494 1.7 11.8 11.8 0 0 0 10.6-7.454A9 9 0 0 0 12.5 3.2c-.103 0-.204.012-.306.016a10 10 0 0 0 .403-1.01 10.29 10.29 0 0 1 8.312 4.366 10 10 0 0 0-.466 1.116 9.3 9.3 0 0 0-1.18-1.553 11.73 11.73 0 0 0 .985 11.498 9.3 9.3 0 0 0 .899-1.732zm-1.522 2.565A12.68 12.68 0 0 1 18.503 5.41a9.3 9.3 0 0 0-3.55-1.87 12.81 12.81 0 0 1-11.717 8.248 9 9 0 0 0-.036.712 9.2 9.2 0 0 0 .555 3.133 12.68 12.68 0 0 1 13.554 4.812 9.4 9.4 0 0 0 2.316-1.98z"/><path fill="none" d="M0 0h24v24H0z"/></svg>