<svg xmlns="http://www.w3.org/2000/svg" viewBox="0 0 16 16"><path d="M9.103 14.77a6 6 0 0 1 .761.897 7.23 7.23 0 0 1-6.747-2.253 6 6 0 0 1 1.149-.263A6.27 6.27 0 0 0 8.5 14.8q.305-.002.603-.03M6.283 2.61a6 6 0 0 0 .435-1.18 7.32 7.32 0 0 0-5.014 4.424 6 6 0 0 0 1.224-.284 6.33 6.33 0 0 1 3.355-2.96m8.1 1.587a6 6 0 0 0-.266 1.465A6.25 6.25 0 0 1 14.8 8.5c0 .086-.01.17-.013.256a6 6 0 0 0 .863 1.216 7.27 7.27 0 0 0-1.266-5.775zm.1 6.263a7 7 0 0 0 .77.804 7.33 7.33 0 0 1-4.19 4.062 7 7 0 0 0-.592-.846 6 6 0 0 0 .672-.27 7.73 7.73 0 0 0-8.19-2.728 6 6 0 0 0 .387.622 7 7 0 0 0-.99.314 7.24 7.24 0 0 1-1.01-5.335 7 7 0 0 0 1.058-.123 6 6 0 0 0-.14.729A7.81 7.81 0 0 0 8.479 2.2a6 6 0 0 0-.75.052 7 7 0 0 0 .258-1.027c.17-.012.34-.026.514-.026a7.27 7.27 0 0 1 4.986 1.983 7 7 0 0 0-.356 1.06 6 6 0 0 0-.578-.56 7.77 7.77 0 0 0 1.638 7.503 6 6 0 0 0 .293-.726zm-.816 1.634a8.73 8.73 0 0 1-1.96-9.007 6.3 6.3 0 0 0-2.219-.801 8.81 8.81 0 0 1-7.277 6.42 6.3 6.3 0 0 0 .34 1.848 8.74 8.74 0 0 1 9.472 3.166 6.4 6.4 0 0 0 1.644-1.626"/><path fill="none" d="M0 0h16v16H0z"/></svg>