<svg xmlns="http://www.w3.org/2000/svg" viewBox="0 0 32 32"><path d="M0 0h32v32H0z" style="fill:none"/><path d="M31 12c0 6.065-4.935 11-11 11v-1c5.514 0 10-4.486 10-10S25.514 2 20 2 10 6.486 10 12c0 1.054.166 2.07.47 3.024 3.144.184 5.796 2.19 6.929 4.976h-1.103c-1.008-2.105-3.02-3.64-5.426-3.94A10.05 10.05 0 0 0 15 20.644v1.124a11.04 11.04 0 0 1-5.232-5.756C6.017 16.136 3 19.219 3 23c0 3.86 3.14 7 7 7 3.164 0 5.842-2.113 6.705-5h1.032c-.892 3.445-4.018 6-7.737 6-4.411 0-8-3.589-8-8 0-4.22 3.287-7.679 7.434-7.971A11 11 0 0 1 9 12C9 5.935 13.935 1 20 1s11 4.935 11 11m-12 9v3h-3v-3zm-1 1h-1v1h1z"/></svg>