<?xml version="1.0" encoding="UTF-8"?><svg id="icons" xmlns="http://www.w3.org/2000/svg" viewBox="0 0 32 32"><defs><style>.cls-1{fill:none;}</style></defs><rect class="cls-1" width="32" height="32"/><path d="M16.5,2c-7.99512,0-14.5,6.50488-14.5,14.5s6.50488,14.5,14.5,14.5,14.46997-6.50488,14.46997-14.5S24.49512,2,16.5,2ZM16.5,30c-7.44434,0-13.5-6.05566-13.5-13.5S9.05566,3,16.5,3s13.5,6.05566,13.5,13.5-6.05566,13.5-13.5,13.5ZM16.5,7c-5.23828,0-9.47,4.26172-9.47,9.5s4.23172,9.5,9.47,9.5,9.5-4.26172,9.5-9.5-4.26172-9.5-9.5-9.5ZM13.87244,8.42053l-5.4519,5.4519c.8399-2.57544,2.87646-4.612,5.4519-5.4519ZM8,16.5c0-.28192.01532-.5603.0423-.83527l7.62244-7.62244c.27496-.02698.55334-.0423.83527-.0423.55847,0,1.10333.05762,1.63202.16095l-9.97107,9.97107c-.10333-.52869-.16095-1.07355-.16095-1.63202ZM9.29877,20.9942c-.34186-.54572-.62347-1.13129-.83557-1.75037l10.78064-10.78064c.61908.2121,1.20465.49371,1.75037.83557l-11.69543,11.69543ZM9.88361,21.82343l11.93982-11.93982c.47601.38367.9093.81696,1.29297,1.29297l-11.93982,11.93982c-.47601-.38367-.9093-.81696-1.29297-1.29297ZM19.12756,24.57947l5.4519-5.4519c-.8399,2.57544-2.87646,4.612-5.4519,5.4519ZM25,16.5c0,.28192-.01532.5603-.0423.83527l-7.62244,7.62244c-.27496.02698-.55334.0423-.83527.0423-.55847,0-1.10333-.05762-1.63202-.16095l9.97107-9.97107c.10333.52869.16095,1.07355.16095,1.63202ZM24.5368,13.75616l-10.78064,10.78064c-.61908-.2121-1.20465-.49371-1.75037-.83557l11.69543-11.69543c.34186.54572.62347,1.13129.83557,1.75037Z"/></svg>