<svg xmlns="http://www.w3.org/2000/svg" viewBox="0 0 24 24"><path d="M0 0h24v24H0z" style="fill:none"/><path d="M24 9.5c0 4.518-3.547 8.214-8 8.475v-1c3.902-.26 7-3.508 7-7.475C23 5.364 19.636 2 15.5 2S8 5.364 8 9.5c0 .49.05.969.14 1.433 2.455.241 4.49 1.863 5.373 4.067h-1.08a5.5 5.5 0 0 0-4-3.014A7.5 7.5 0 0 0 11 15.474V16.7a8.54 8.54 0 0 1-3.647-4.793C4.389 11.987 2 14.418 2 17.4c0 3.033 2.468 5.5 5.5 5.5 2.087 0 3.885-1.182 4.814-2.9h1.129c-1.004 2.292-3.285 3.9-5.943 3.9A6.51 6.51 0 0 1 1 17.4c0-3.458 2.718-6.286 6.128-6.48A8.5 8.5 0 0 1 7 9.5C7 4.813 10.813 1 15.5 1S24 4.813 24 9.5M15 16v3h-3v-3zm-1 1h-1v1h1z"/></svg>