<?xml version="1.0" encoding="UTF-8"?><svg id="icons" xmlns="http://www.w3.org/2000/svg" viewBox="0 0 24 24"><defs><style>.cls-1{fill:none;}</style></defs><rect class="cls-1" width="24" height="24"/><path d="M12.5,5c-4.13574,0-7.47,3.36426-7.47,7.5s3.33426,7.5,7.47,7.5,7.5-3.36426,7.5-7.5-3.36426-7.5-7.5-7.5ZM18.43378,9.85919l-8.57452,8.57452c-.57697-.25787-1.10907-.59656-1.58289-1.00305l9.1543-9.1543c.40649.47382.74524,1.00586,1.00311,1.58282ZM9.60327,6.6897l-2.91351,2.91351c.63025-1.25879,1.65472-2.28326,2.91351-2.91351ZM6.06311,11.64392l5.58081-5.58081c.28088-.03723.56525-.06311.85608-.06311.54883,0,1.07904.07587,1.58844.20453l-7.88391,7.88391c-.12866-.5094-.20453-1.03961-.20453-1.58844,0-.29083.02588-.5752.06311-.85608ZM6.56628,15.14075L15.14081,6.56622c.57697.25787,1.10901.59662,1.58282,1.00311l-9.1543,9.1543c-.40649-.47382-.74518-1.00592-1.00305-1.58289ZM10.91156,18.79547l7.88391-7.88391c.12866.5094.20453,1.03961.20453,1.58844,0,.29083-.02588.5752-.06311.85608l-5.58081,5.58081c-.28088.03723-.56525.06311-.85608.06311-.54883,0-1.07904-.07587-1.58844-.20453ZM15.39679,18.31024l2.91351-2.91351c-.63025,1.25879-1.65472,2.28326-2.91351,2.91351ZM12.5,2C6.70996,2,2.03,6.70996,2.03,12.5s4.67996,10.5,10.47,10.5,10.5-4.70996,10.5-10.5S18.29004,2,12.5,2ZM12.5,22c-5.23828,0-9.5-4.26172-9.5-9.5S7.26172,3,12.5,3s9.5,4.26172,9.5,9.5-4.26172,9.5-9.5,9.5Z"/></svg>