<svg xmlns="http://www.w3.org/2000/svg" viewBox="0 0 24 24"><path fill="none" d="M0 0h24v24H0z"/><path d="M12.5 5c-4.136 0-7.47 3.364-7.47 7.5S8.364 20 12.5 20s7.5-3.364 7.5-7.5S16.636 5 12.5 5m5.934 4.86-8.575 8.574a6.5 6.5 0 0 1-1.583-1.003l9.155-9.155a6.5 6.5 0 0 1 1.003 1.583zm-8.83-3.17L6.69 9.603A6.53 6.53 0 0 1 9.603 6.69zm-3.54 4.954 5.58-5.58c.28-.038.565-.064.856-.064a6.5 6.5 0 0 1 1.588.205l-7.883 7.883A6.5 6.5 0 0 1 6 12.5c0-.29.026-.575.063-.856zm.502 3.497 8.575-8.575a6.5 6.5 0 0 1 1.583 1.003l-9.155 9.155a6.5 6.5 0 0 1-1.003-1.583m4.346 3.654 7.883-7.883c.13.509.205 1.04.205 1.588 0 .29-.026.575-.063.856l-5.58 5.58A6 6 0 0 1 12.5 19a6.5 6.5 0 0 1-1.588-.205m4.485-.485 2.913-2.913a6.53 6.53 0 0 1-2.913 2.913M12.5 2C6.71 2 2.03 6.71 2.03 12.5S6.71 23 12.5 23 23 18.29 23 12.5 18.29 2 12.5 2m0 20C7.262 22 3 17.738 3 12.5S7.262 3 12.5 3 22 7.262 22 12.5 17.738 22 12.5 22"/></svg>