<svg xmlns="http://www.w3.org/2000/svg" viewBox="0 0 32 32"><path fill="none" d="M0 0h32v32H0z"/><path d="M16.5 2C8.505 2 2 8.505 2 16.5S8.505 31 16.5 31s14.47-6.505 14.47-14.5S24.495 2 16.5 2m0 28C9.056 30 3 23.944 3 16.5S9.056 3 16.5 3 30 9.056 30 16.5 23.944 30 16.5 30m0-23c-5.238 0-9.47 4.262-9.47 9.5S11.262 26 16.5 26s9.5-4.262 9.5-9.5S21.738 7 16.5 7m-2.628 1.42-5.451 5.452a8.53 8.53 0 0 1 5.451-5.451zM8 16.5q0-.423.042-.835l7.623-7.623a8.5 8.5 0 0 1 2.467.119l-9.971 9.971A8.5 8.5 0 0 1 8 16.5m1.299 4.494a8.5 8.5 0 0 1-.836-1.75l10.78-10.78a8.5 8.5 0 0 1 1.751.835L9.3 20.994zm.585.83 11.94-11.94c.475.383.909.817 1.292 1.293l-11.94 11.94a8.6 8.6 0 0 1-1.292-1.294zm9.244 2.755 5.451-5.451a8.53 8.53 0 0 1-5.451 5.451M25 16.5q0 .423-.042.835l-7.623 7.623A9 9 0 0 1 16.5 25a8.5 8.5 0 0 1-1.632-.16l9.971-9.972c.103.529.161 1.074.161 1.632m-.463-2.744-10.78 10.78a8.5 8.5 0 0 1-1.751-.835L23.7 12.006a8.5 8.5 0 0 1 .836 1.75z"/></svg>