<svg xmlns="http://www.w3.org/2000/svg" viewBox="0 0 16 16"><path d="M0 0h16v16H0z" style="fill:none"/><path d="M16 6c0 2.607-1.673 4.824-4 5.65v-1.074A5 5 0 0 0 15 6c0-2.757-2.243-5-5-5S5 3.243 5 6a5 5 0 0 1 4.576 3H8.434a3.98 3.98 0 0 0-3.331-1.99A5 5 0 0 0 7 9.996v1.18a6 6 0 0 1-2.893-4.067A4 4 0 0 0 1 11c0 2.206 1.794 4 4 4 1.008 0 1.92-.382 2.622-1h1.353C8.062 15.208 6.627 16 5 16c-2.757 0-5-2.243-5-5a5.01 5.01 0 0 1 4.005-4.9C4.005 6.068 4 6.035 4 6c0-3.309 2.691-6 6-6s6 2.691 6 6m-5 4v3H8v-3zm-1 1H9v1h1z"/></svg>