<?xml version="1.0" encoding="UTF-8"?><svg id="icons" xmlns="http://www.w3.org/2000/svg" viewBox="0 0 16 16"><defs><style>.cls-1{fill:none;}</style></defs><path d="M8.5,1C4.36426,1,1.03,4.36426,1.03,8.5s3.33426,7.5,7.47,7.5,7.5-3.36426,7.5-7.5S12.63574,1,8.5,1ZM8.5,15c-3.58398,0-6.5-2.91602-6.5-6.5s2.91602-6.5,6.5-6.5,6.5,2.91602,6.5,6.5-2.91602,6.5-6.5,6.5ZM8.5,3c-3.03223,0-5.5,2.46777-5.5,5.5s2.46777,5.5,5.5,5.5,5.5-2.46777,5.5-5.5-2.46777-5.5-5.5-5.5ZM8.26971,4.02325l-4.24646,4.24646c.11871-2.29474,1.95172-4.12775,4.24646-4.24646ZM4.1413,9.56573l5.42444-5.42444c.64349.15771,1.22546.45691,1.72748.85846l-6.29346,6.29346c-.40155-.50201-.70074-1.08398-.85846-1.72748ZM7.43427,12.8587c-.64349-.15771-1.22546-.45691-1.72748-.85846l6.29346-6.29346c.40155.50201.70074,1.08398.85846,1.72748l-5.42444,5.42444ZM8.73029,12.97675l4.24646-4.24646c-.11871,2.29474-1.95172,4.12775-4.24646,4.24646Z"/><rect class="cls-1" width="16" height="16"/></svg>