<?xml version="1.0" encoding="UTF-8"?><svg id="icons" xmlns="http://www.w3.org/2000/svg" viewBox="0 0 32 32"><defs><style>.cls-1{fill:none;}</style></defs><rect class="cls-1" width="32" height="32"/><path d="M31,12c0,6.06543-4.93457,11-11,11v-1c5.51367,0,10-4.48633,10-10S25.51367,2,20,2s-10,4.48633-10,10c0,1.05389.16638,2.06915.47003,3.0238,3.14435.18408,5.7962,2.19073,6.92889,4.9762h-1.10297c-1.00775-2.10516-3.01953-3.63971-5.42609-3.94006.86133,1.92877,2.31635,3.53156,4.13013,4.58435v1.1236c-2.36975-1.21777-4.24799-3.25659-5.23169-5.75616-3.75171.12378-6.76831,3.20709-6.76831,6.98828,0,3.85938,3.14062,7,7,7,3.16418,0,5.84192-2.11255,6.70514-5h1.03156c-.8916,3.4447-4.01721,6-7.73669,6-4.41113,0-8-3.58887-8-8,0-4.22003,3.28699-7.67877,7.43384-7.97131-.27673-.96356-.43384-1.97736-.43384-3.02869,0-6.06543,4.93457-11,11-11s11,4.93457,11,11ZM19,21v3h-3v-3h3ZM18,22h-1v1h1v-1Z"/></svg>