<?xml version="1.0" encoding="UTF-8"?><svg id="icons" xmlns="http://www.w3.org/2000/svg" viewBox="0 0 16 16"><defs><style>.cls-1{fill:none;}</style></defs><rect class="cls-1" width="16" height="16"/><path d="M16,6c0,2.60651-1.6734,4.82367-4,5.64996v-1.07379c1.7627-.77374,3-2.53113,3-4.57617,0-2.75684-2.24316-5-5-5s-5,2.24316-5,5c2.04504,0,3.80243,1.2373,4.57617,3h-1.14172c-.67572-1.15723-1.90295-1.95245-3.33142-1.98956.25,1.21295.94116,2.26605,1.89697,2.98547v1.18011c-1.48029-.86115-2.56622-2.32709-2.89301-4.06732-1.77582.4079-3.10699,1.99329-3.10699,3.8913,0,2.20605,1.79395,4,4,4,1.00751,0,1.92004-.38239,2.62201-1h1.35345c-.91333,1.20776-2.34802,2-3.97546,2-2.75684,0-5-2.24316-5-5,0-2.41614,1.72333-4.43665,4.00507-4.89941-.00055-.03381-.00507-.06665-.00507-.10059C4,2.69141,6.69141,0,10,0s6,2.69141,6,6ZM11,10v3h-3v-3h3ZM10,11h-1v1h1v-1Z"/></svg>