<svg xmlns="http://www.w3.org/2000/svg" viewBox="0 0 24 24"><path fill="none" d="M0 0h24v24H0z"/><path d="M22.503 1H5.497A1.5 1.5 0 0 0 4 2.497V7h1V2.497C5 2.223 5.223 2 5.497 2h11.201a2.2 2.2 0 0 1-.385 1.186c-.515.776-.394 1.189-.181 1.649.14.3.297.64.18 1.523-.074.552-.113 1.33.391 1.713.512.387 1.168.107 1.695-.119.08-.035.18-.077.272-.113.07.964.581 1.354.977 1.54a7 7 0 0 1-.36.259c-.412.284-.926.636-1.326 1.239-.694 1.048-.396 2.076-.197 2.756.029.102.06.206.08.295-.582.175-.815.598-.857 2.072H13v1h9.503A1.5 1.5 0 0 0 24 15.503V2.497A1.5 1.5 0 0 0 22.503 1M23 15.503a.497.497 0 0 1-.497.497H18c.03-.99-.002-1.066.203-1.117.171-.043.69-.173.69-.767 0-.238-.072-.483-.154-.767-.172-.588-.365-1.255.069-1.91.292-.439.68-.706 1.055-.963.35-.24.68-.468.908-.812q.219-.331.115-.64c-.106-.313-.39-.412-.599-.484-.327-.113-.61-.212-.61-.932 0-.418-.186-.629-.342-.732-.398-.258-.872-.057-1.337.142-.206.088-.59.252-.664.26-.001-.002-.099-.157-.015-.787.156-1.174-.097-1.72-.264-2.083-.124-.267-.137-.296.105-.66A3.2 3.2 0 0 0 17.714 2h4.789c.274 0 .497.223.497.497zM4 10.757l.378-.27A1.5 1.5 0 0 0 5.5 11 1.5 1.5 0 1 0 4 9.5q0 .013.003.026L3 10.243V13H0v1.624L1.255 17H2v7h1v-7h6v7h1v-7h.772L12 14.621V13H4zM5 9h1v1H5zm6 5v.379L10.163 16H1.858L1 14.376V14zm2-2.5a1.5 1.5 0 1 0 3 0 1.5 1.5 0 0 0-3 0m2 .5h-1v-1h1zm0-3.5a1.5 1.5 0 1 0-3 0 1.5 1.5 0 0 0 3 0M13 8h1v1h-1zm-1-3H7V4h5zM7 6h4v1H7z"/></svg>