<?xml version="1.0" encoding="UTF-8"?><svg id="icons" xmlns="http://www.w3.org/2000/svg" viewBox="0 0 16 16"><defs><style>.cls-1{fill:none;}</style></defs><rect class="cls-1" width="16" height="16"/><path d="M5,2h4v1h-4v-1ZM5,5h3v-1h-3v1ZM16,1.5v9c0,.82715-.67285,1.5-1.5,1.5h-5.5v-1h1.49048c.09155-.81964.41858-1.15479.87866-1.36914.00391-.00098.00781-.00195.01074-.00293-.01172-.09277-.22656-.93848-.22656-1.29492,0-1.04883.80566-1.5,1.33887-1.79883.16895-.09375.47656-.2666.50586-.35449-.01953.00391-.06738-.0127-.16797-.0127-.00781-.00098-.38184-.07031-.50977-.19922-.20898-.21094-.24316-.51367-.24512-.80859-.43457.33301-.82129.34375-.89648.34082h-.00098c-.25391,0-.48828-.10645-.64648-.2998-.35352-.43164-.07324-1.82422-.06934-1.87695,0-.13867-.07129-.25977-.1875-.44531-.12207-.19531-.27441-.4375-.27441-.75,0-.32227.33801-.97803.38336-1.12793H3.5c-.27539,0-.5.22461-.5.5v2.5h-1V1.5c0-.82715.67285-1.5,1.5-1.5h11c.82715,0,1.5.67285,1.5,1.5ZM15,1.5c0-.27539-.22461-.5-.5-.5h-3.08917c-.07104.38983-.41083,1.05566-.41083,1.12793.00586.03418.0752.14551.12109.21875.14355.22852.34082.54199.34082.98633,0,.08301-.16211.92383-.15918,1.13184.0625-.02734.14746-.07715.24316-.16602.21484-.19824.65918-.61426,1.12207-.4043.43066.19434.41895.68359.41016,1.07715-.00098.05957-.00293.13965-.00195.21191.34082.0498.54883.19727.66895.3252.27148.29004.25879.63281.25293.69824.00195.62988-.56348.94629-1.01758,1.2002-.5625.31445-.82715.50879-.82715.92578,0,.23047.23145,1.14062.23145,1.33398,0,.59473-.40137.78125-.59375.87109-.11914.05524-.2403.11469-.29651.46191h3.00549c.27539,0,.5-.22461.5-.5V1.5ZM2,9h6l-.02539,1-.61426,2h-.36035v4h-.99219v-4H2v4h-1v-4h-.36035l-.63965-2v-1h1v-1.19434l1.07684-.854c-.04553-.14337-.07684-.29321-.07684-.45166,0-.82843.67157-1.5,1.5-1.5s1.5.67157,1.5,1.5-.67157,1.5-1.5,1.5c-.30463,0-.58722-.09204-.82379-.24805l-.67621.53613v.71191ZM3,7h1v-1h-1v1ZM6.97266,10H1.02734l.33301,1h5.2793l.33301-1ZM9,9h1v-1h-1v1ZM9,6h-1v1h1v-1Z"/></svg>