<?xml version="1.0" encoding="UTF-8"?><svg id="icons" xmlns="http://www.w3.org/2000/svg" viewBox="0 0 24 24"><defs><style>.cls-1{fill:none;}</style></defs><rect class="cls-1" width="24" height="24"/><path d="M22.50293,1H5.49707c-.8252,0-1.49707.67188-1.49707,1.49707v4.50293h1V2.49707c0-.27441.22266-.49707.49707-.49707h11.20135c-.00153.23376-.05499.68628-.38495,1.18555-.51562.77637-.39453,1.18945-.18164,1.64941.13965.30078.29688.64062.17969,1.52344-.07324.55176-.1123,1.33008.3916,1.71289.51172.38672,1.16797.10645,1.69531-.11914.08008-.03516.17969-.07715.27148-.11328.07031.96387.58105,1.35449.97754,1.54102-.10547.08301-.22852.16797-.36035.25781-.41211.28418-.92578.63672-1.32617,1.23926-.69434,1.04785-.39551,2.07617-.19727,2.75586.0293.10254.05957.20605.08105.29492-.58289.17499-.81555.59857-.85797,2.07227h-3.98676v1h9.50293c.8252,0,1.49707-.67188,1.49707-1.49707V2.49707c0-.8252-.67188-1.49707-1.49707-1.49707ZM23,15.50293c0,.27441-.22266.49707-.49707.49707h-4.50293c.02924-.98999-.00165-1.06573.20312-1.11719.1709-.04297.68945-.17285.68945-.7666,0-.23828-.07129-.4834-.15332-.76758-.17188-.58789-.36523-1.25488.06836-1.90918.29199-.43945.67969-.70605,1.05566-.96387.34961-.24023.67969-.46777.9082-.81152.14551-.21973.18359-.43457.11426-.63965-.10547-.31348-.39062-.41211-.59863-.48438-.32715-.11328-.60938-.21191-.60938-.93164,0-.41797-.18652-.62891-.34277-.73242-.39747-.25781-.87207-.05664-1.33691.1416-.20605.08887-.59082.25293-.66406.25977-.00098-.00098-.09863-.15625-.01465-.78613.15527-1.17383-.09766-1.7207-.26465-2.08301-.12402-.26758-.13672-.2959.10547-.66113.4549-.68622.55219-1.32593.55389-1.74707h4.78888c.27441,0,.49707.22266.49707.49707v13.00586ZM4,10.75684l.37787-.27063c.27484.31256.67316.51379,1.12213.51379.82843,0,1.5-.67157,1.5-1.5s-.67157-1.5-1.5-1.5-1.5.67157-1.5,1.5c0,.00873.00244.01678.00256.02551l-1.00256.71765v2.75684H0v1.62402l1.25488,2.37598h.74512v7h1v-7h6v7h1v-7h.77246l1.22754-2.37891v-1.62109H4v-2.24316ZM5,9h1v1h-1v-1ZM11,14v.37891l-.83691,1.62109H1.8584l-.8584-1.62402v-.37598h10ZM13,11.5c0,.82843.67157,1.5,1.5,1.5s1.5-.67157,1.5-1.5-.67157-1.5-1.5-1.5-1.5.67157-1.5,1.5ZM15,12h-1v-1h1v1ZM15,8.5c0-.82843-.67157-1.5-1.5-1.5s-1.5.67157-1.5,1.5.67157,1.5,1.5,1.5,1.5-.67157,1.5-1.5ZM13,8h1v1h-1v-1ZM12,5h-5v-1h5v1ZM7,6h4v1h-4v-1Z"/></svg>