<?xml version="1.0" encoding="UTF-8"?><svg id="icons" xmlns="http://www.w3.org/2000/svg" viewBox="0 0 32 32"><defs><style>.cls-1{fill:none;}</style></defs><path d="M5,15.24121l1.7962-1.42426c.21075.11298.44794.18298.7038.18298.82843,0,1.5-.67157,1.5-1.49994,0-.82843-.67157-1.5-1.5-1.5s-1.5.67157-1.5,1.5c0,.20575.04175.40161.1167.58014l-2.1167,1.67865v3.24121H1.55664l1.33301,4h1.11035v10h1v-10h8v10h1v-10h1.11035l1.33301-4H5v-2.75879ZM7,12h1v1h-.99799l-.00201-.00256v-.99744ZM15.05664,19l-.66699,2H3.61035l-.66699-2h12.11328ZM8,8h6v1h-6v-1ZM16,7h-8v-1h8v1ZM29.85645,2H7.14355c-1.18164,0-2.10742.96191-2.10742,2.14355l-.03613,5.85645h1v-6c0-.59082.48047-1,1.07129-1h12.92871c-.06116.80579-.15009,1.27051-.40332,1.6709-.21875.34668-.44531.70605-.44531,1.21777,0,.47852.27637.84082.54297,1.19238.25098.32812.4873.63867.4873,1.02051-.00293.06836-.05762.2959-.10254.47852-.19922.82031-.47266,1.94238.05859,2.61816.16699.21289.48633.46582,1.04785.46582.09863,0,.91895-.00098,1.85938-.71387.3877-.29492.61816-.41602.74121-.46582.01758.16211.01074.4209.00586.59277-.0166.57617-.0332,1.1709.33203,1.54199.12109.12305.33496.26855.6709.26855h.01367c.60449-.00879.87012.1416.96094.23047.07715.07617.08008.15234.0791.1875,0,.37207-.71875.70312-1.41406,1.02344-1.20605.55469-2.70703,1.24609-2.70703,2.95605,0,.61426.18359,1.20996.33105,1.68848.08984.29297.18359.5957.18359.75977,0,.15625,0,.16211-.35938.2998-.80481.30835-1.84351.86206-1.88147,2.9668h-3.00134v1h12.85645c1.18164,0,2.14355-.96191,2.14355-2.14355V4.14355c0-1.18164-.96191-2.14355-2.14355-2.14355ZM31.07129,22c0,.59082-.48047,1-1.07129,1h-9c.03009-1.59161.73499-1.83887,1.24023-2.0332.39941-.15234,1.00195-.38281,1.00195-1.2334,0-.31445-.10547-.65723-.22754-1.05371-.13477-.43652-.28711-.93066-.28711-1.39453,0-.99512.8418-1.45703,2.125-2.04785.98145-.45215,1.99609-.91895,1.99414-1.88281.00781-.08203.0293-.50977-.3291-.90039-.35254-.38379-.92578-.5791-1.67383-.52734-.07227-.11133-.05957-.57422-.05176-.82227.0166-.60449.03516-1.29004-.49902-1.56543-.54785-.2793-1.24414.15234-1.85352.61426-.66211.50293-1.21387.51074-1.24219.51074-.20801,0-.25684-.0625-.27344-.08398-.23047-.29297.01074-1.28613.12695-1.76367.07617-.31152.13086-.53711.13086-.71289,0-.7207-.38379-1.22461-.69141-1.62891-.16699-.21875-.33887-.44434-.33887-.58594,0-.21289.09961-.38086.29102-.68359.28223-.44684.48816-1.09967.55762-2.20508h9c.59082,0,1.07129.40918,1.07129,1v18ZM18,11.5c0-.82843-.67157-1.5-1.5-1.5s-1.5.67157-1.5,1.5c0,.82837.67157,1.49994,1.5,1.49994s1.5-.67157,1.5-1.49994ZM17,12h-1v-1h1v1ZM17,14.49994c0,.82843.67157,1.5,1.50006,1.5.82837,0,1.49994-.67157,1.49994-1.5s-.67157-1.5-1.49994-1.5c-.82849,0-1.50006.67157-1.50006,1.5ZM18,14h1v1h-1v-1Z"/><rect class="cls-1" width="32" height="32"/></svg>