<svg xmlns="http://www.w3.org/2000/svg" viewBox="0 0 32 32"><path d="M3 3v26h26V3zm17.105 1a32.3 32.3 0 0 0-7.359 3.326c-1.975 1.164-2.155 2.405-2.087 3.041a2.68 2.68 0 0 0 2.008 2.146c.488.161 1.296.554 1.216 1.37a2.59 2.59 0 0 1-2.358 1.94c-4.672.586-4.544 2.901-4.475 4.145a3 3 0 0 1 .004.548c-.63.955-1.2 1.05-2.332 1.238q-.336.055-.722.13V4zM20 28v-5h5v5zm-1-6v3h-5v-5h5zm9-9h-6V7h6zm-7-7v8h7v14h-2v-6h-6v-3h-7v7h6v2H4v-5.095c.319-.065.619-.12.886-.164a3.67 3.67 0 0 0 3.002-1.674 1.86 1.86 0 0 0 .16-1.154c-.065-1.17-.145-2.627 3.602-3.097a3.59 3.59 0 0 0 3.229-2.837 2.36 2.36 0 0 0-1.899-2.415 1.75 1.75 0 0 1-1.327-1.303c-.072-.676.511-1.43 1.6-2.073A27.2 27.2 0 0 1 25.524 4H28v2zm0 18h3v3h-3zm-3 0h-3v-3h3zm9-12h-4V8h4z"/><path fill="none" d="M0 0h32v32H0z"/></svg>