<svg xmlns="http://www.w3.org/2000/svg" viewBox="0 0 16 16"><path d="M13 2H3a1 1 0 0 0-1 1v10a1 1 0 0 0 1 1h10a1 1 0 0 0 1-1V3a1 1 0 0 0-1-1zM3 13V3h2.163c.006.684.058 1.574.257 2.302.467 1.72.976 2.202 1.515 2.713.32.303.653.617 1.02 1.275.37.664.426 1.133.492 1.675.07.565.155 1.181.588 2.035H3zm10 0H9.945c-.547-.93-.63-1.541-.703-2.133-.07-.573-.143-1.165-.589-1.966-.021-.038-.042-.064-.062-.1.231-.388.923-1.352 2.35-1.905a8.595 8.595 0 0 1 2.059-.5V13zm0-7.408a9.446 9.446 0 0 0-2.348.558c-1.363.528-2.15 1.375-2.548 1.935a6.916 6.916 0 0 0-.618-.651c-.496-.47-.886-.838-1.295-2.342C6.016 4.449 5.97 3.634 5.963 3H13v2.592z"/><path fill="none" d="M0 0h16v16H0z"/></svg>