<svg xmlns="http://www.w3.org/2000/svg" viewBox="0 0 24 24"><path d="M20 2H4a2 2 0 0 0-1.999 2v16A2 2 0 0 0 4 22h16a2 2 0 0 0 2-2V4a2 2 0 0 0-2-2zm1 2v2.668c-1.477.14-2.862.445-4.115.93-2.304.893-3.691 2.345-4.316 3.27-.41-.53-.8-.9-1.12-1.203-.794-.75-1.48-1.397-2.159-3.897C9.06 4.92 8.97 3.9 8.935 3H20a1 1 0 0 1 1 1zM3 20V4a1 1 0 0 1 1-1h4.026c.035.968.133 2.08.391 3.033.755 2.774 1.575 3.546 2.44 4.365.533.503 1.083 1.023 1.693 2.122.618 1.11.719 1.925.826 2.794.174 1.427.37 2.912 2.5 5.686H4a1 1 0 0 1-1-1zm17 1h-2.949l-.02-.025c-2.407-2.95-2.584-4.39-2.755-5.784-.114-.923-.232-1.877-.946-3.163a8.676 8.676 0 0 0-.142-.245c.368-.631 1.633-2.304 4.061-3.245 1.344-.52 2.689-.752 3.751-.859V20a1 1 0 0 1-1 1z"/><path fill="none" d="M0 0h24v24H0z"/></svg>