<svg xmlns="http://www.w3.org/2000/svg" viewBox="0 0 32 32"><path stroke-width="0" fill="none" d="M0 0h32v32H0z"/><path d="M27.5 5h-23C3.673 5 3 5.673 3 6.5v19c0 .827.673 1.5 1.5 1.5h23c.827 0 1.5-.673 1.5-1.5v-19c0-.827-.673-1.5-1.5-1.5zM11.552 19.889c.954 0 1.694-.337 2.261-1.03l.142-.172 1 1.024-.13.14c-1.033 1.115-2.35 1.35-3.273 1.35C8.709 21.2 6.8 19.11 6.8 16c0-3.063 1.954-5.201 4.752-5.201 1.314 0 2.46.458 3.314 1.323l.143.145L13.93 13.3l-.138-.157c-.619-.704-1.33-1.03-2.24-1.03-2.015 0-3.368 1.562-3.368 3.888 0 2.217 1.448 3.888 3.368 3.888zm10 0c.954 0 1.694-.337 2.261-1.03l.142-.172 1 1.024-.13.14c-1.033 1.115-2.35 1.35-3.273 1.35-2.843 0-4.752-2.09-4.752-5.2 0-3.063 1.954-5.201 4.752-5.201 1.314 0 2.46.458 3.314 1.323l.143.145L23.93 13.3l-.138-.157c-.619-.704-1.33-1.03-2.24-1.03-2.015 0-3.368 1.562-3.368 3.888 0 2.217 1.448 3.888 3.368 3.888z" stroke-width="0"/></svg>