<svg xmlns="http://www.w3.org/2000/svg" viewBox="0 0 16 16"><path d="M6.265 6.51c-.391-.496-.84-.706-1.398-.706-1.244 0-1.953.965-1.953 2.153 0 1.187.828 2.152 1.953 2.152.604 0 1.066-.222 1.41-.717l.687.68c-.533.644-1.292.928-2.097.928C3.15 11 2 9.739 2 7.957 2 6.2 3.16 5 4.867 5c.818 0 1.576.198 2.133.829l-.735.68zM14 5.828C13.443 5.198 12.685 5 11.867 5 10.161 5 9 6.2 9 7.957 9 9.739 10.15 11 11.867 11c.805 0 1.564-.284 2.097-.928l-.687-.68c-.344.495-.806.717-1.41.717-1.125 0-1.953-.965-1.953-2.152 0-1.188.709-2.153 1.953-2.153.557 0 1.007.21 1.398.705L14 5.83zM1.5 15C.673 15 0 14.327 0 13.5v-11C0 1.673.673 1 1.5 1h13c.827 0 1.5.673 1.5 1.5v11c0 .827-.673 1.5-1.5 1.5h-13zm0-1h13a.5.5 0 0 0 .5-.5v-11a.5.5 0 0 0-.5-.5h-13a.5.5 0 0 0-.5.5v11a.5.5 0 0 0 .5.5z"/><path fill="none" d="M0 0h16v16H0z"/></svg>