<?xml version="1.0" encoding="UTF-8"?><svg id="icons" xmlns="http://www.w3.org/2000/svg" viewBox="0 0 24 24"><path d="M20.5,3H3.5c-.82715,0-1.5.67285-1.5,1.5v15c0,.82715.67285,1.5,1.5,1.5h17c.82715,0,1.5-.67285,1.5-1.5V4.5c0-.82715-.67285-1.5-1.5-1.5ZM8.53516,14.98145c.7002,0,1.2417-.25391,1.65527-.77637l.13428-.16992.91553.84863-.12109.14551c-.63672.76562-1.53027,1.1709-2.58398,1.1709-2.23389,0-3.73535-1.68848-3.73535-4.2002,0-2.47266,1.53613-4.2002,3.73535-4.2002,1.03516,0,1.9375.37207,2.60938,1.07617l.12842.13379-.86621.95605-.14893-.15234c-.5415-.55664-1.05664-.79395-1.72266-.79395-1.48535,0-2.48291,1.19727-2.48291,2.98047,0,1.7002,1.06738,2.98145,2.48291,2.98145ZM16.53516,14.98145c.7002,0,1.2417-.25391,1.65527-.77637l.13428-.16992.91553.84863-.12109.14551c-.63672.76562-1.53027,1.1709-2.58398,1.1709-2.23389,0-3.73535-1.68848-3.73535-4.2002,0-2.47266,1.53613-4.2002,3.73535-4.2002,1.03516,0,1.9375.37207,2.60938,1.07617l.12842.13379-.86621.95605-.14893-.15234c-.5415-.55664-1.05664-.79395-1.72266-.79395-1.48535,0-2.48291,1.19727-2.48291,2.98047,0,1.7002,1.06738,2.98145,2.48291,2.98145Z"/></svg>