<?xml version="1.0" encoding="UTF-8"?><svg id="icons" xmlns="http://www.w3.org/2000/svg" viewBox="0 0 16 16"><path d="M14.5,1H1.5c-.82715,0-1.5.67285-1.5,1.5v11c0,.82715.67285,1.5,1.5,1.5h13c.82715,0,1.5-.67285,1.5-1.5V2.5c0-.82715-.67285-1.5-1.5-1.5ZM4.86719,9.90918c.55029,0,.94629-.2002,1.24609-.63086l.13574-.19531.98584.97559-.11719.1416c-.54199.6543-1.32031,1-2.25049,1-1.80615,0-3.06738-1.33398-3.06738-3.24316,0-1.8584,1.26123-3.15723,3.06738-3.15723,1.00293,0,1.75.29395,2.28271.89648l.12939.14648-1.0376.96094-.13428-.16992c-.34277-.43555-.72559-.62988-1.24023-.62988-1.21143,0-1.75342.98047-1.75342,1.95312,0,1.09473.77002,1.95215,1.75342,1.95215ZM11.86719,9.90918c.55029,0,.94629-.2002,1.24609-.63086l.13574-.19531.98584.97559-.11719.1416c-.54199.6543-1.32031,1-2.25049,1-1.80615,0-3.06738-1.33398-3.06738-3.24316,0-1.8584,1.26123-3.15723,3.06738-3.15723,1.00293,0,1.75.29395,2.28271.89648l.12939.14648-1.0376.96094-.13428-.16992c-.34277-.43555-.72559-.62988-1.24023-.62988-1.21143,0-1.75342.98047-1.75342,1.95312,0,1.09473.77002,1.95215,1.75342,1.95215Z"/></svg>