<?xml version="1.0" encoding="UTF-8"?><svg id="icons" xmlns="http://www.w3.org/2000/svg" viewBox="0 0 24 24"><path d="M20.5,3H3.5c-.82715,0-1.5.67285-1.5,1.5v15c0,.82715.67285,1.5,1.5,1.5h17c.82715,0,1.5-.67285,1.5-1.5V4.5c0-.82715-.67285-1.5-1.5-1.5ZM21,19.5c0,.27588-.22412.5-.5.5H3.5c-.27588,0-.5-.22412-.5-.5V4.5c0-.27588.22412-.5.5-.5h17c.27588,0,.5.22412.5.5v15ZM5.86108,12c0,1.81433,1.15338,3.18207,2.68323,3.18207.7644,0,1.35748-.27881,1.81195-.85266l.6181.57196c-.76447.92017-1.74359,1.09863-2.43005,1.09863-2.11426,0-3.53534-1.60693-3.53534-4,0-2.35547,1.4538-4,3.53534-4,.97913,0,1.83118.3501,2.46466,1.01373l-.59882.65973c-.56805-.58356-1.138-.85455-1.86584-.85455-1.60498,0-2.68323,1.27802-2.68323,3.18109ZM13.86108,12c0,1.81433,1.15338,3.18207,2.68323,3.18207.7644,0,1.35748-.27881,1.81195-.85266l.6181.57196c-.76447.92017-1.74359,1.09863-2.43005,1.09863-2.11426,0-3.53534-1.60693-3.53534-4,0-2.35547,1.4538-4,3.53534-4,.97913,0,1.83118.3501,2.46466,1.01373l-.59882.65973c-.56805-.58356-1.138-.85455-1.86584-.85455-1.60498,0-2.68323,1.27802-2.68323,3.18109Z"/><rect width="24" height="24" style="fill:none;"/></svg>