<svg xmlns="http://www.w3.org/2000/svg" viewBox="0 0 32 32"><path d="M7.984 16c0 2.37 1.558 4.09 3.568 4.09 1.017 0 1.808-.361 2.416-1.103l.71.728c-.98 1.06-2.237 1.285-3.126 1.285C8.829 21 7 18.99 7 16c0-2.944 1.872-5 4.552-5 1.261 0 2.355.436 3.172 1.264l-.782.747c-.659-.75-1.421-1.1-2.39-1.1-2.107 0-3.568 1.605-3.568 4.09zm13.577-4.088c.968 0 1.731.35 2.39 1.1l.782-.748C23.916 11.436 22.823 11 21.56 11c-2.68 0-4.552 2.056-4.552 5 0 2.99 1.83 5 4.552 5 .89 0 2.145-.226 3.127-1.285l-.711-.728c-.608.742-1.399 1.102-2.416 1.102-2.01 0-3.568-1.719-3.568-4.089 0-2.484 1.461-4.088 3.568-4.088zM29 6.5v19c0 .827-.673 1.5-1.5 1.5h-23c-.827 0-1.5-.673-1.5-1.5v-19C3 5.673 3.673 5 4.5 5h23c.827 0 1.5.673 1.5 1.5zm-1 0a.5.5 0 0 0-.5-.5h-23a.5.5 0 0 0-.5.5v19a.5.5 0 0 0 .5.5h23a.5.5 0 0 0 .5-.5v-19z"/><path fill="none" d="M0 0h32v32H0z"/></svg>