<?xml version="1.0" encoding="UTF-8"?><svg id="icons" xmlns="http://www.w3.org/2000/svg" viewBox="0 0 16 16"><path d="M6.26489,6.50932c-.39108-.49538-.84079-.70562-1.39772-.70562-1.24421,0-1.95347.96499-1.95347,2.15311,0,1.18731.82805,2.15231,1.95347,2.15231.60398,0,1.06603-.22232,1.41006-.7169l.68652.67985c-.53301.6436-1.29127.92794-2.09658.92794-1.71783,0-2.86717-1.26142-2.86717-3.04319,0-1.7568,1.16091-2.95681,2.86717-2.95681.81765,0,1.5759.19796,2.13283.82866l-.73511.68065ZM14,5.82866c-.55693-.63071-1.31518-.82866-2.13283-.82866-1.70626,0-2.86717,1.2-2.86717,2.95681,0,1.78177,1.14934,3.04319,2.86717,3.04319.80531,0,1.56356-.28434,2.09658-.92794l-.68652-.67985c-.34403.49458-.80608.7169-1.41006.7169-1.12542,0-1.95347-.96499-1.95347-2.15231,0-1.18812.70925-2.15311,1.95347-2.15311.55693,0,1.00663.21024,1.39772.70562l.73511-.68065ZM1.5,15c-.82715,0-1.5-.67285-1.5-1.5V2.5c0-.82715.67285-1.5,1.5-1.5h13c.82715,0,1.5.67285,1.5,1.5v11c0,.82715-.67285,1.5-1.5,1.5H1.5ZM1.5,14h13c.27588,0,.5-.22412.5-.5V2.5c0-.27588-.22412-.5-.5-.5H1.5c-.27588,0-.5.22412-.5.5v11c0,.27588.22412.5.5.5Z"/><rect width="16" height="16" style="fill:none;"/></svg>