<?xml version="1.0" encoding="UTF-8"?><svg id="icons" xmlns="http://www.w3.org/2000/svg" viewBox="0 0 32 32"><path d="M27.5,5H4.5c-.82715,0-1.5.67285-1.5,1.5v19c0,.82715.67285,1.5,1.5,1.5h23c.82715,0,1.5-.67285,1.5-1.5V6.5c0-.82715-.67285-1.5-1.5-1.5ZM11.55176,19.88867c.95459,0,1.69434-.33691,2.26123-1.0293l.1416-.17285,1,1.02441-.12939.13965c-1.03271,1.11523-2.3501,1.34961-3.27344,1.34961-2.84229,0-4.75195-2.08984-4.75195-5.19922,0-3.0625,1.9541-5.20117,4.75195-5.20117,1.31396,0,2.45996.45801,3.31445,1.32324l.14258.14453-1.07861,1.03223-.1377-.15723c-.61914-.70312-1.33105-1.03027-2.24072-1.03027-2.01465,0-3.36768,1.5625-3.36768,3.88867,0,2.2168,1.44775,3.8877,3.36768,3.8877ZM21.55176,19.88867c.95459,0,1.69434-.33691,2.26123-1.0293l.1416-.17285,1,1.02441-.12939.13965c-1.03271,1.11523-2.3501,1.34961-3.27344,1.34961-2.84229,0-4.75195-2.08984-4.75195-5.19922,0-3.0625,1.9541-5.20117,4.75195-5.20117,1.31396,0,2.45996.45801,3.31445,1.32324l.14258.14453-1.07861,1.03223-.1377-.15723c-.61914-.70312-1.33105-1.03027-2.24072-1.03027-2.01465,0-3.36768,1.5625-3.36768,3.88867,0,2.2168,1.44775,3.8877,3.36768,3.8877Z"/></svg>