<?xml version="1.0" encoding="UTF-8"?><svg id="icons" xmlns="http://www.w3.org/2000/svg" viewBox="0 0 32 32"><path d="M7.98401,16.00049c0,2.36957,1.55798,4.08881,3.56775,4.08881,1.01758,0,1.80859-.36053,2.41602-1.1026l.71094.72839c-.98145,1.05933-2.2373,1.28491-3.12695,1.28491-2.72266,0-4.55176-2.00909-4.55176-4.99951,0-2.94403,1.87207-5.00049,4.55176-5.00049,1.26172,0,2.35547.4364,3.17188,1.26379l-.78125.74738c-.65918-.74945-1.42188-1.09943-2.39062-1.09943-2.10645,0-3.56775,1.60431-3.56775,4.08875ZM21.56073,11.91174c.96875,0,1.73145.34998,2.39062,1.09943l.78125-.74738c-.81641-.82739-1.91016-1.26379-3.17188-1.26379-2.67969,0-4.55176,2.05646-4.55176,5.00049,0,2.99042,1.8291,4.99951,4.55176,4.99951.88965,0,2.14551-.22559,3.12695-1.28491l-.71094-.72839c-.60742.74207-1.39844,1.1026-2.41602,1.1026-2.00977,0-3.56775-1.71924-3.56775-4.08881,0-2.48444,1.4613-4.08875,3.56775-4.08875ZM29,6.5v19c0,.82715-.67285,1.5-1.5,1.5H4.5c-.82715,0-1.5-.67285-1.5-1.5V6.5c0-.82715.67285-1.5,1.5-1.5h23c.82715,0,1.5.67285,1.5,1.5ZM28,6.5c0-.27588-.22412-.5-.5-.5H4.5c-.27588,0-.5.22412-.5.5v19c0,.27588.22412.5.5.5h23c.27588,0,.5-.22412.5-.5V6.5Z"/><rect width="32" height="32" style="fill:none;"/></svg>