<svg xmlns="http://www.w3.org/2000/svg" viewBox="0 0 16 16"><path stroke-width="0" fill="none" d="M0 0h16v16H0z"/><path d="M14.5 1h-13C.673 1 0 1.673 0 2.5v11c0 .827.673 1.5 1.5 1.5h13c.827 0 1.5-.673 1.5-1.5v-11c0-.827-.673-1.5-1.5-1.5zM4.867 9.91c.55 0 .946-.201 1.246-.632l.136-.195.986.976-.117.141c-.542.655-1.32 1-2.25 1C3.06 11.2 1.8 9.866 1.8 7.957 1.8 6.099 3.06 4.8 4.867 4.8c1.003 0 1.75.294 2.283.896l.13.147-1.038.96-.135-.17c-.342-.435-.725-.63-1.24-.63-1.211 0-1.753.981-1.753 1.954 0 1.095.77 1.952 1.753 1.952zm7 0c.55 0 .946-.201 1.246-.632l.136-.195.986.976-.117.141c-.542.655-1.32 1-2.25 1C10.06 11.2 8.8 9.866 8.8 7.957c0-1.858 1.26-3.157 3.067-3.157 1.003 0 1.75.294 2.283.896l.13.147-1.038.96-.135-.17c-.342-.435-.725-.63-1.24-.63-1.211 0-1.753.981-1.753 1.954 0 1.095.77 1.952 1.753 1.952z" stroke-width="0"/></svg>