<svg xmlns="http://www.w3.org/2000/svg" viewBox="0 0 16 16"><path fill="none" d="M0 0h16v16H0z"/><path d="M15 10.5V9h-.05a2.5 2.5 0 0 0-1.429-2.775l-.504-.227-.077-.548C12.667 3.483 10.974 2 9 2a3.99 3.99 0 0 0-3.49 2.093l-.403.734-.794-.266A1 1 0 0 0 4 4.5a.99.99 0 0 0-.987.92L2.966 6l-.525.246A2.48 2.48 0 0 0 1 8.5C1 9.879 2.121 11 3.5 11H4v1h-.5a3.492 3.492 0 0 1-1.484-6.659A1.994 1.994 0 0 1 4 3.5c.223 0 .433.045.633.112C5.483 2.062 7.109 1 9 1c2.526 0 4.593 1.88 4.93 4.312A3.5 3.5 0 0 1 16 8.5c0 .909-.356 1.781-1 2.43zM5 10h9v5H5zm1 4h7v-3H6zm1-1h1v-1H7zm2 0h1v-1H9z"/></svg>