<svg xmlns="http://www.w3.org/2000/svg" viewBox="0 0 32 32"><path d="m27.515 12.66-.407-.138-.06-.425A8.956 8.956 0 0 0 18.462 4.2a8.65 8.65 0 0 0-7.566 4.718l-.259.488-.534-.138a4.4 4.4 0 0 0-1.125-.162 3.93 3.93 0 0 0-4.022 3.713l-.022.402-.357.183A6.17 6.17 0 0 0 1.2 18.897c0 3.091 2.533 6.08 5.537 6.103h19.825c2.473 0 5.238-2.807 5.238-6.296a6.36 6.36 0 0 0-4.285-6.044M26.562 24H6.745C4.366 23.982 2.2 21.55 2.2 18.897a5.17 5.17 0 0 1 2.835-4.603l.357-.183.51-.262.031-.573.022-.404a2.943 2.943 0 0 1 3.024-2.766 3.5 3.5 0 0 1 .874.13l.535.138.763.197.37-.696.26-.487A7.65 7.65 0 0 1 18.462 5.2a7.95 7.95 0 0 1 7.594 7.038l.061.425.087.608.581.198.407.138a5.36 5.36 0 0 1 3.607 5.097c0 2.934-2.318 5.296-4.238 5.296z"/><path fill="none" d="M0 0h32v32H0z"/></svg>