<svg xmlns="http://www.w3.org/2000/svg" viewBox="0 0 32 32"><path d="M26.921 12.471a7.489 7.489 0 0 0-12.566-4.422A4.454 4.454 0 0 0 7.72 9.073 3.964 3.964 0 0 0 3 13a4 4 0 0 0 .053.526 3.966 3.966 0 0 0-.046 6.923 4.7 4.7 0 0 0 .057.824A4.614 4.614 0 0 0 7.672 25H24.5a6.498 6.498 0 0 0 2.421-12.529M24.5 24H7.672a3.62 3.62 0 0 1-3.621-2.892 3.5 3.5 0 0 1 3.271-4.098l.67-.033.223-.633A3.5 3.5 0 0 1 11.5 14a2 2 0 0 1 .246.025l1.212.144.063-1.057a6.49 6.49 0 0 1 12.91-.505l.079.575.538.217A5.498 5.498 0 0 1 24.5 24M4.133 14.066l-.103-.776A2 2 0 0 1 4 13a2.965 2.965 0 0 1 3.541-2.944l.658.12.362-.562a3.46 3.46 0 0 1 5.122-.828 7.47 7.47 0 0 0-1.66 4.267A4 4 0 0 0 11.5 13a4.49 4.49 0 0 0-4.228 3.012 4.5 4.5 0 0 0-4.12 3.333 2.965 2.965 0 0 1 .39-4.947z"/><path fill="none" d="M0 0h32v32H0z"/></svg>