<svg xmlns="http://www.w3.org/2000/svg" viewBox="0 0 16 16"><path d="M13.93 6.312a3.978 3.978 0 0 0-6.49-2.371 2.48 2.48 0 0 0-3.977.118 1.98 1.98 0 0 0-2.427 2.295 2.224 2.224 0 0 0-.001 3.758A2.473 2.473 0 0 0 3.5 13h9a3.496 3.496 0 0 0 1.43-6.688M12.5 12h-9a1.498 1.498 0 0 1-.273-2.97l.678-.126.124-.677a1.462 1.462 0 0 1 1.84-1.173l.986.252.233-.992a2.989 2.989 0 0 1 5.857.17l.092.522.484.218A2.496 2.496 0 0 1 12.5 12M1 8.233a1.23 1.23 0 0 1 .574-1.036l.564-.36-.118-.66A.98.98 0 0 1 3 5a1 1 0 0 1 .231.032l.657.156.39-.55a1.49 1.49 0 0 1 2.48.051 4 4 0 0 0-.643 1.396 2.46 2.46 0 0 0-3.07 1.96A2.5 2.5 0 0 0 1.414 9.14 1.22 1.22 0 0 1 1 8.233"/><path fill="none" d="M0 0h16v16H0z"/></svg>