<svg xmlns="http://www.w3.org/2000/svg" viewBox="0 0 24 24"><path stroke-width="0" fill="none" d="M0 0h24v24H0z"/><path d="M24 14c0 1.63-.792 3.065-2 3.977v-1.36c.615-.703 1-1.612 1-2.618a3.97 3.97 0 0 0-3.377-3.933l-.79-.124-.052-.798A5.307 5.307 0 0 0 13.5 4.2a5.268 5.268 0 0 0-4.933 3.374L8.17 8.59l-.977-.484a2.277 2.277 0 0 0-1.003-.235 2.205 2.205 0 0 0-2.147 1.735l-.112.504-.477.2A3.993 3.993 0 0 0 1 14c0 2.205 1.795 4 4 4h2v1H5a5 5 0 0 1-1.934-9.611A3.21 3.21 0 0 1 6.19 6.87c.5 0 .996.117 1.446.34A6.297 6.297 0 0 1 13.5 3.2a6.295 6.295 0 0 1 6.279 5.878C22.168 9.454 24 11.505 24 14zM8 15h13v9H8v-9zm12 5H9v3h11v-3zM9 19h11v-3H9v3zm1-1h1v-1h-1v1zm2 0h1v-1h-1v1zm2 0h1v-1h-1v1zm-3 3h-1v1h1v-1zm2 0h-1v1h1v-1zm2 0h-1v1h1v-1z" stroke-width="0"/></svg>