<svg xmlns="http://www.w3.org/2000/svg" viewBox="0 0 16 16"><path stroke-width="0" fill="none" d="M0 0h16v16H0z"/><path d="M15 10.93V9.595c0-.14-.02-.32-.074-.516C14.97 8.893 15 8.7 15 8.5a2.5 2.5 0 0 0-1.48-2.275l-.503-.227-.077-.548C12.667 3.483 10.974 2 9 2a3.993 3.993 0 0 0-3.49 2.093l-.403.734-.794-.266A.978.978 0 0 0 4 4.5a.989.989 0 0 0-.987.92L2.966 6l-.525.246A2.478 2.478 0 0 0 1 8.5C1 9.879 2.121 11 3.5 11H6v1H3.5a3.492 3.492 0 0 1-1.484-6.659A1.994 1.994 0 0 1 4 3.5c.223 0 .433.045.633.112C5.483 2.062 7.109 1 9 1c2.526 0 4.593 1.88 4.93 4.312A3.495 3.495 0 0 1 16 8.5c0 .909-.356 1.781-1 2.43zm-1-1.334l-.009 3.714c0 1.109-1.752 1.69-3.491 1.69S7 14.419 7 13.31V9.596c0-.292.137-.713.787-1.06.252-.134.558-.246.91-.333.275-.067.578-.121.903-.156.572-.06 1.23-.06 1.8 0 .325.035.628.089.902.156a4 4 0 0 1 .91.333c.651.347.788.768.788 1.06zm-5.994.01c.021.007.086.042.252.13.176.093.41.178.68.245.234.058.493.103.769.132a7.98 7.98 0 0 0 1.587 0c.275-.029.534-.074.768-.132.27-.067.504-.152.68-.246.148-.078.215-.106.243-.14-.028-.033-.095-.197-.243-.275a3.033 3.033 0 0 0-.68-.245 5.742 5.742 0 0 0-.769-.133 7.98 7.98 0 0 0-1.587 0 5.8 5.8 0 0 0-.77.133 3.042 3.042 0 0 0-.678.245c-.166.088-.23.257-.252.286zm4.994.962c-.208.091-.435.139-.697.203a6.728 6.728 0 0 1-.903.157 8.577 8.577 0 0 1-1.8 0 6.759 6.759 0 0 1-.904-.157c-.262-.064-.488-.111-.696-.203v2.823c.042.205.942.69 2.5.69s2.458-.485 2.5-.693v-2.82z" stroke-width="0"/></svg>