<svg xmlns="http://www.w3.org/2000/svg" viewBox="0 0 32 32"><path stroke-width="0" fill="none" d="M0 0h32v32H0z"/><path d="M31.8 18.704c0 2.335-1.24 4.359-2.8 5.446v-1.302c1.02-.969 1.8-2.452 1.8-4.144 0-2.316-1.45-4.364-3.607-5.097l-.407-.138-.582-.198-.086-.608-.06-.425c-.575-4.012-3.84-7.038-7.595-7.038-2.749 0-5.31 1.605-6.683 4.187l-.259.488-.37.696-.763-.197-.535-.138a3.474 3.474 0 0 0-.874-.13c-1.64 0-2.94 1.19-3.024 2.766l-.022.404-.031.573-.51.262-.357.183c-1.748.9-2.835 2.664-2.835 4.603 0 2.653 2.166 5.085 4.545 5.103H13v1H6.737C3.733 24.978 1.2 21.988 1.2 18.897c0-2.315 1.294-4.42 3.378-5.493l.357-.183.022-.402c.112-2.116 1.841-3.713 4.022-3.713.342 0 .7.052 1.125.162l.534.138.26-.488c1.547-2.91 4.446-4.718 7.565-4.718 4.25 0 7.94 3.395 8.584 7.897l.06.425.408.138c2.563.87 4.285 3.3 4.285 6.044zM17 24h-1v1h1v-1zm2 0h-1v1h1v-1zm2 0h-1v1h1v-1zm-7-6h14v13H14V18zm13 9H15v3h12v-3zm0-4H15v3h12v-3zm-12-1h12v-3H15v3zm1-1h1v-1h-1v1zm2 0h1v-1h-1v1zm2 0h1v-1h-1v1zm-3 7h-1v1h1v-1zm2 0h-1v1h1v-1zm2 0h-1v1h1v-1z" stroke-width="0"/></svg>