<?xml version="1.0" encoding="UTF-8"?><svg id="icons" xmlns="http://www.w3.org/2000/svg" viewBox="0 0 24 24"><defs><style>.cls-1{fill:none;}</style></defs><path d="M20.89453,10.07129c-.10101-.46838-.2392-.92651-.41241-1.37146.24994-.10138.4892-.22229.71155-.36951.20337.50958.36664,1.03448.48212,1.573l-.78125.16797ZM10.08105,3.10156l-.16797-.78125c-1.01758.21875-1.98926.59473-2.8877,1.11816l.40234.69141c.82617-.48047,1.71875-.82715,2.65332-1.02832ZM5.89355,5.25195l-.53711-.59375c-.77148.69922-1.42578,1.51074-1.94336,2.41113l.69336.39844c.47559-.82715,1.07715-1.57324,1.78711-2.21582ZM14.78516,3.33398l.24414-.76172c-.97754-.31348-1.99707-.47266-3.0293-.47266h-.02832l.02832.80078c.94922,0,1.88672.14551,2.78516.43359ZM4.65234,18.63574c.7002.77344,1.50977,1.42773,2.4082,1.94629l.40039-.69336c-.82617-.47656-1.57129-1.07812-2.21484-1.79004l-.59375.53711ZM13.90039,20.90137l.16602.7832c1.0166-.21582,1.98828-.58984,2.88965-1.1123l-.40039-.69141c-.82812.47949-1.72168.82324-2.65527,1.02051ZM3.33691,9.20703l-.76172-.24609c-.31543.97852-.47559,2.00098-.47559,3.03906v.01953l.80078-.01953c0-.9541.14648-1.89453.43652-2.79297ZM21.09961,12c0,.96094-.14844,1.90625-.44238,2.81152l.76172.24609c.31934-.98438.48145-2.0127.48145-3.05762v-.03906l-.80078.03906ZM18.09277,18.75977l.53516.59375c.77344-.69531,1.42871-1.50488,1.94922-2.40527l-.69336-.40039c-.47754.82715-1.08105,1.57129-1.79102,2.21191ZM2.31836,14.07715c.2168,1.0166.5918,1.98828,1.11523,2.88867l.69141-.40234c-.48047-.82617-.8252-1.71875-1.02344-2.65234l-.7832.16602ZM9.19824,20.66113l-.24609.76172c.98242.31641,2.00781.47754,3.04785.47754h.00977l-.00977-.80078c-.95605,0-1.89941-.14746-2.80176-.43848ZM21.99,5c0,1.6543-1.3357,3-2.99,3-.64685,0-1.24255-.21045-1.73303-.55994l-2.8269,2.8269c.34949.49048.55994,1.08618.55994,1.73303,0,1.6543-1.3457,3-3,3s-3-1.3457-3-3,1.3457-3,3-3c.64685,0,1.24255.21045,1.73303.55994l2.8269-2.8269c-.34949-.49048-.55994-1.08618-.55994-1.73303,0-1.6543,1.3457-3,3-3s2.99,1.3457,2.99,3ZM14,12c0-1.10254-.89746-2-2-2s-2,.89746-2,2,.89746,2,2,2,2-.89746,2-2ZM21,5c0-1.10254-.89746-2-2-2s-2,.89746-2,2,.89746,2,2,2,2-.89746,2-2Z"/><rect class="cls-1" width="24" height="24"/></svg>