<?xml version="1.0" encoding="UTF-8"?><svg id="icons" xmlns="http://www.w3.org/2000/svg" viewBox="0 0 16 16"><defs><style>.cls-1{fill:none;}</style></defs><path d="M7.0332,1.97656l-.18164-.78027.05273-.00879c.89673-.14307,1.7926-.10071,2.65479.09967-.15802.22351-.2912.46545-.38525.72675-.69836-.13715-1.42096-.15198-2.14062-.03735ZM1.89941,7.99219c0-.62207.09473-1.2373.28223-1.82812l-.76367-.24219c-.21191.66992-.31934,1.36621-.31934,2.07031,0,.36523.03027.73535.08885,1.10352l.00588.03516.7832-.16406c-.05176-.32422-.07715-.65137-.07715-.97461ZM14.81055,6.8916l-.25586.00391-.53125.1377c.05176.32422.07715.65137.07715.97461,0,.63379-.09766,1.25977-.29199,1.86035l.76172.24609c.21973-.68066.33105-1.38965.33105-2.10645,0-.36523-.03027-.73535-.09082-1.11621ZM6.14746,13.81348l-.24414.76172c.6748.21582,1.37793.32617,2.08887.32617.36523,0,.73535-.03027,1.11426-.09082l-.13965-.78711c-.9541.15332-1.91602.0791-2.81934-.20996ZM10.79297,13.4248l.36523.71094c.95996-.49219,1.80273-1.21875,2.4375-2.09863l-.64844-.46875c-.56152.7793-1.30664,1.4209-2.1543,1.85645ZM2.38184,3.99414l.65039.46484c.55859-.78223,1.29883-1.42773,2.14355-1.86719l-.36914-.70898c-.95605.49707-1.79492,1.22754-2.4248,2.11133ZM2.58398,10.80762l-.71094.36719c.49512.95801,1.22363,1.79883,2.10547,2.43164l.4668-.65039c-.78027-.55957-1.42383-1.30273-1.86133-2.14844ZM9.6087,6.82288c.24304.33112.3913.73578.3913,1.17712,0,1.10284-.89716,2-2,2s-2-.89716-2-2c0-1.10291.89716-2,2-2,.29938,0,.58081.07068.83606.18909l1.60089-1.95667c-.26935-.34076-.43695-.76532-.43695-1.23242,0-1.10291.89716-2,2-2s2,.89709,2,2c0,1.10284-.89716,2-2,2-.27374,0-.53455-.05579-.7724-.15576l-1.6189,1.97864ZM11,3c0,.55176.44824,1,1,1s1-.44824,1-1-.44824-1-1-1-1,.44824-1,1ZM9,8c0-.55176-.44824-1-1-1s-1,.44824-1,1,.44824,1,1,1,1-.44824,1-1Z"/><rect class="cls-1" width="16" height="16"/></svg>