<svg xmlns="http://www.w3.org/2000/svg" viewBox="0 0 16 16"><path fill-rule="evenodd" d="M15 6.5A1.5 1.5 0 0 1 13.5 8a1.5 1.5 0 0 1-.535-.103 5.45 5.45 0 0 0-.734-2.188A1.496 1.496 0 0 1 15 6.5M3.281 4.978A5.5 5.5 0 0 1 4.99 3.613c0-.038.01-.074.01-.113a1.5 1.5 0 1 0-1.719 1.478m0 7.044A1.497 1.497 0 1 0 5 13.5c0-.039-.009-.075-.011-.113a5.5 5.5 0 0 1-1.708-1.365" opacity=".15"/><path d="M4.989 13.387a5.5 5.5 0 0 0 .983.392 2.493 2.493 0 1 1-3.29-2.63 5.5 5.5 0 0 0 .6.873A1.497 1.497 0 1 0 5 13.5c0-.039-.009-.075-.011-.113M2.682 5.852a5.5 5.5 0 0 1 .6-.874A1.497 1.497 0 1 1 5 3.5c0 .039-.009.075-.011.113a5.5 5.5 0 0 1 .983-.392 2.493 2.493 0 1 0-3.29 2.63zM12 8.5A4.5 4.5 0 1 1 7.5 4 4.5 4.5 0 0 1 12 8.5m-1 0A3.5 3.5 0 1 0 7.5 12 3.504 3.504 0 0 0 11 8.5M13.5 4a2.48 2.48 0 0 0-1.88.869 5.5 5.5 0 0 1 .61.84 1.504 1.504 0 1 1 .735 2.188A6 6 0 0 1 13 8.5c0 .15-.01.297-.022.443A2.5 2.5 0 1 0 13.5 4"/><path fill-rule="evenodd" d="M11 8.5A3.5 3.5 0 1 1 7.5 5 3.504 3.504 0 0 1 11 8.5" opacity=".3"/><path fill="none" d="M0 0h16v16H0z"/></svg>