<svg xmlns="http://www.w3.org/2000/svg" viewBox="0 0 32 32"><path d="m15.555 29.394-.11-.014a12.8 12.8 0 0 1-3.016-.462l.213-.772c.942.261 1.921.41 2.914.447zm2.086-.092-.096-.795a12.5 12.5 0 0 0 2.873-.703l.281.75c-.986.369-2.015.62-3.058.748m-7.189-1.1a13.3 13.3 0 0 1-2.691-1.634l.492-.63c.778.609 1.63 1.125 2.531 1.535l-.332.728zm12.152-.539-.395-.695c.86-.49 1.662-1.08 2.386-1.753l.545.586a13.6 13.6 0 0 1-2.536 1.862M6.209 25.15a13.6 13.6 0 0 1-1.866-2.534l.695-.396c.49.86 1.08 1.66 1.755 2.384zm20.352-.898-.631-.492a12.6 12.6 0 0 0 1.538-2.53l.728.332a13.4 13.4 0 0 1-1.635 2.69m-23.109-3.54a13.3 13.3 0 0 1-.752-3.056l.795-.097c.12.98.358 1.947.705 2.873zm25.464-1.128-.771-.213c.261-.95.413-1.933.448-2.926l.401-.04.399.055a13.6 13.6 0 0 1-.477 3.124m-26.31-4.015.003-.067a13.4 13.4 0 0 1 .468-3.059l.772.213a12.7 12.7 0 0 0-.442 2.9zm25.896-1.152a12.5 12.5 0 0 0-.712-2.872l.748-.283c.373.985.628 2.013.757 3.055zM4.52 10.795l-.729-.33a13.4 13.4 0 0 1 1.63-2.695l.63.493a12.6 12.6 0 0 0-1.531 2.532m2.866-3.992-.547-.584A13.5 13.5 0 0 1 9.373 4.35l.397.695c-.86.49-1.662 1.08-2.383 1.757zm4.17-2.598-.283-.748a13.3 13.3 0 0 1 3.058-.755l.098.795c-.98.12-1.947.358-2.872.708zm7.775-.36a12.7 12.7 0 0 0-2.887-.438l-.027-.802.07.003c1.027.037 2.059.194 3.055.466zM25 3a3.996 3.996 0 0 0-3.99 4c0 .923.317 1.762.843 2.44l-3.413 3.413A3.96 3.96 0 0 0 16 12c-2.206 0-3.99 1.794-3.99 4s1.784 4 3.99 4 3.99-1.794 3.99-4c0-.923-.317-1.762-.843-2.44l3.413-3.413A3.96 3.96 0 0 0 25 11c2.206 0 4-1.794 4-4s-1.794-4-4-4m-9 16c-1.654 0-3-1.346-3-3s1.346-3 3-3 3 1.346 3 3-1.346 3-3 3m9-9c-1.654 0-3-1.346-3-3s1.346-3 3-3 3 1.346 3 3-1.346 3-3 3"/><path fill="none" d="M0 0h32v32H0z"/></svg>