<svg xmlns="http://www.w3.org/2000/svg" viewBox="0 0 24 24"><path fill-rule="evenodd" d="M22 11.5a2.5 2.5 0 0 1-2.5 2.5 2.5 2.5 0 0 1-.756-.13 8 8 0 0 0 .056-.895 7.74 7.74 0 0 0-.815-3.45A2.48 2.48 0 0 1 19.5 9a2.5 2.5 0 0 1 2.5 2.5M4.341 17.016a2.494 2.494 0 1 0 2.644 2.634 7.85 7.85 0 0 1-2.644-2.634m.72-9.085a7.9 7.9 0 0 1 1.766-1.535A2.5 2.5 0 0 0 7 5.5a2.525 2.525 0 1 0-1.94 2.431z" opacity=".15"/><path d="M6.985 19.65a8 8 0 0 0 .95.496 3.497 3.497 0 1 1-4.093-4.08 8 8 0 0 0 .5.95 2.494 2.494 0 1 0 2.643 2.634M4.312 8.98a8 8 0 0 1 .749-1.05 2.522 2.522 0 1 1 1.766-1.535 8 8 0 0 1 1.144-.609C7.98 5.691 8 5.598 8 5.5a3.5 3.5 0 1 0-3.688 3.481zM19.5 8a3.5 3.5 0 0 0-2.016.646 8 8 0 0 1 .501.879A2.48 2.48 0 0 1 19.5 9a2.5 2.5 0 0 1 0 5 2.5 2.5 0 0 1-.756-.13 8 8 0 0 1-.183.986A3.5 3.5 0 0 0 19.5 15a3.5 3.5 0 0 0 0-7m-1.7 4.975a6.8 6.8 0 1 1-6.8-6.8 6.8 6.8 0 0 1 6.8 6.8m-1 .025a5.8 5.8 0 1 0-5.8 5.8 5.807 5.807 0 0 0 5.8-5.8"/><path fill-rule="evenodd" d="M16.8 13A5.8 5.8 0 1 1 11 7.2a5.807 5.807 0 0 1 5.8 5.8" opacity=".3"/><path fill="none" d="M0 0h24v24H0z"/></svg>