<?xml version="1.0" encoding="UTF-8"?><svg id="icons" xmlns="http://www.w3.org/2000/svg" viewBox="0 0 32 32"><defs><style>.cls-1{fill:none;}</style></defs><path d="M15.55469,29.39355l-.11035-.01367c-.97168-.02539-2.01367-.18555-3.01562-.46191l.21289-.77148c.94238.26074,1.92188.41016,2.91406.44629l-.00098.80078ZM17.64062,29.30176l-.0957-.79492c.97949-.11914,1.94629-.35547,2.87305-.70312l.28125.75c-.98633.36914-2.01562.62109-3.05859.74805ZM10.45215,28.20117c-.95801-.43555-1.86328-.98535-2.69141-1.63281l.49219-.63086c.77832.60938,1.62988,1.12598,2.53125,1.53516l-.33203.72852ZM22.60352,27.66309l-.39453-.69531c.85938-.48926,1.66211-1.0791,2.38574-1.75293l.54492.58594c-.76855.71582-1.62207,1.34277-2.53613,1.8623ZM6.20898,25.14941c-.71777-.76855-1.3457-1.62109-1.86621-2.53418l.69531-.39648c.48926.85938,1.08008,1.66113,1.75488,2.38379l-.58398.54688ZM26.56055,24.25098l-.63086-.49219c.61133-.78125,1.12891-1.63184,1.53809-2.53027l.72852.33203c-.43652.95605-.98633,1.86133-1.63574,2.69043ZM3.45215,20.71191c-.37109-.98535-.62402-2.01367-.75195-3.05664l.79492-.09766c.12012.98047.35742,1.94727.70508,2.87305l-.74805.28125ZM28.91602,19.58301l-.77148-.21289c.26172-.94922.41309-1.93359.44824-2.92578l.40137-.04004.39844.05469c-.03809,1.06836-.19824,2.11426-.47656,3.12402ZM2.60645,15.56836l.00293-.06738c.03516-1.02051.19336-2.05859.46777-3.05859l.77148.21289c-.25781.93945-.40625,1.91504-.44141,2.89941l-.80078.01367ZM28.50195,14.41602c-.12207-.97949-.36133-1.94629-.71191-2.87207l.74805-.2832c.37305.98535.62793,2.01367.75684,3.05566l-.79297.09961ZM4.52051,10.79492l-.72852-.33008c.43359-.95703.98242-1.86328,1.62988-2.69434l.63086.49219c-.6084.78125-1.12402,1.63281-1.53223,2.53223ZM7.38672,6.80273l-.54688-.58398c.76758-.71875,1.62012-1.34766,2.5332-1.86816l.39648.69531c-.85938.48926-1.66113,1.08008-2.38281,1.75684ZM11.55762,4.20508l-.2832-.74805c.98633-.37207,2.01465-.62598,3.05762-.75488l.09766.79492c-.97949.12012-1.94629.3584-2.87207.70801ZM19.33203,3.8457c-.93652-.25586-1.90723-.40332-2.88672-.43848l-.02734-.80176.06934.00293c1.02734.03613,2.05957.19336,3.05566.46582l-.21094.77148ZM25,3c-2.20575,0-3.99,1.79425-3.99,4,0,.92255.31654,1.76239.84315,2.43982l-3.41333,3.41333c-.67743-.52661-1.51727-.85315-2.43982-.85315-2.20575,0-3.99,1.79425-3.99,4s1.78425,4,3.99,4,3.99-1.79431,3.99-4c0-.92255-.31654-1.76239-.84315-2.43982l3.41333-3.41333c.67743.52661,1.51727.85315,2.43982.85315,2.20575,0,4-1.79431,4-4s-1.79425-4-4-4ZM16,19c-1.6543,0-3-1.3457-3-3s1.3457-3,3-3,3,1.3457,3,3-1.3457,3-3,3ZM25,10c-1.6543,0-3-1.3457-3-3s1.3457-3,3-3,3,1.3457,3,3-1.3457,3-3,3Z"/><rect class="cls-1" width="32" height="32"/></svg>