<svg xmlns="http://www.w3.org/2000/svg" viewBox="0 0 24 24"><path d="M20.895 10.071a9 9 0 0 0-.413-1.371c.25-.102.49-.222.712-.37a10 10 0 0 1 .482 1.573zM10.08 3.101l-.168-.78a9.8 9.8 0 0 0-2.888 1.117l.403.692a9 9 0 0 1 2.653-1.028zM5.894 5.253l-.538-.594A10 10 0 0 0 3.413 7.07l.693.399a9.1 9.1 0 0 1 1.788-2.216m8.891-1.918.244-.762A9.9 9.9 0 0 0 12 2.1h-.028l.028.8c.95 0 1.887.146 2.785.434zM4.652 18.636a10 10 0 0 0 2.409 1.946l.4-.693a9.1 9.1 0 0 1-2.215-1.79zM13.9 20.9l.166.784a9.8 9.8 0 0 0 2.89-1.113l-.4-.691A9 9 0 0 1 13.9 20.9M3.337 9.207l-.762-.246A9.9 9.9 0 0 0 2.1 12v.02l.8-.02c0-.954.147-1.895.437-2.793M21.1 12c0 .96-.149 1.906-.443 2.812l.762.246c.32-.985.481-2.013.481-3.058v-.04zm-3.007 6.76.535.594a9.9 9.9 0 0 0 1.95-2.406l-.694-.4a9.1 9.1 0 0 1-1.791 2.212M2.318 14.077a9.8 9.8 0 0 0 1.116 2.889l.691-.403a9 9 0 0 1-1.023-2.652zm6.88 6.584-.246.762A10 10 0 0 0 12 21.9h.01l-.01-.8c-.956 0-1.9-.148-2.802-.439M21.99 5c0 1.654-1.336 3-2.99 3a2.97 2.97 0 0 1-1.733-.56l-2.827 2.827c.35.49.56 1.086.56 1.733 0 1.654-1.346 3-3 3s-3-1.346-3-3 1.346-3 3-3c.647 0 1.243.21 1.733.56l2.827-2.827A3 3 0 0 1 16 5c0-1.654 1.346-3 3-3s2.99 1.346 2.99 3M14 12c0-1.103-.897-2-2-2s-2 .897-2 2 .897 2 2 2 2-.897 2-2m7-7c0-1.103-.897-2-2-2s-2 .897-2 2 .897 2 2 2 2-.897 2-2"/><path fill="none" d="M0 0h24v24H0z"/></svg>