<svg xmlns="http://www.w3.org/2000/svg" viewBox="0 0 16 16"><path d="m7.033 1.977-.181-.78.052-.01a6.9 6.9 0 0 1 2.655.1 3 3 0 0 0-.385.727 6.1 6.1 0 0 0-2.14-.037zM1.9 7.992c0-.622.095-1.237.283-1.828l-.764-.242a6.86 6.86 0 0 0-.23 3.174l.005.035.784-.164a6 6 0 0 1-.078-.975m12.912-1.1-.256.004-.532.137a6 6 0 0 1-.215 2.835l.762.246a6.85 6.85 0 0 0 .24-3.222zm-8.664 6.921-.244.762a6.85 6.85 0 0 0 3.203.236l-.14-.788a6.1 6.1 0 0 1-2.819-.21m4.646-.388.365.71a6.9 6.9 0 0 0 2.438-2.098l-.649-.469a6.1 6.1 0 0 1-2.154 1.857m-8.411-9.43.65.464a6.1 6.1 0 0 1 2.144-1.867l-.37-.71a6.9 6.9 0 0 0-2.424 2.112zm.202 6.813-.711.367a6.9 6.9 0 0 0 2.106 2.431l.466-.65a6.1 6.1 0 0 1-1.861-2.148M9.61 6.823c.242.331.39.736.39 1.177 0 1.103-.897 2-2 2s-2-.897-2-2 .897-2 2-2c.3 0 .58.07.836.19l1.6-1.958A1.98 1.98 0 0 1 10 3c0-1.103.897-2 2-2s2 .897 2 2a2.002 2.002 0 0 1-2.772 1.844l-1.62 1.979zM11 3a1 1 0 1 0 2.001-.001A1 1 0 0 0 11 3M9 8a1 1 0 1 0-2.001.001A1 1 0 0 0 9 8"/><path fill="none" d="M0 0h16v16H0z"/></svg>