<?xml version="1.0" encoding="UTF-8"?><svg id="icons" xmlns="http://www.w3.org/2000/svg" viewBox="0 0 32 32"><defs><style>.cls-1{fill:none;}</style></defs><rect class="cls-1" width="32" height="32"/><path d="M6,28h-3.5c-.82843,0-1.5-.67157-1.5-1.5V6.5c0-.82843.67157-1.5,1.5-1.5h3.5v1h-3.5c-.27588,0-.5.22461-.5.5v20c0,.27539.22412.5.5.5h3.5v1ZM29.5,5h-3.5v1h3.5c.27588,0,.5.22461.5.5v20c0,.27539-.22412.5-.5.5h-3.5v1h3.5c.82843,0,1.5-.67157,1.5-1.5V6.5c0-.82843-.67157-1.5-1.5-1.5ZM27,10H5v1h22v-1ZM27,14H5v1h22v-1ZM27,18H5v1h22v-1ZM27,22H5v1h22v-1Z"/></svg>