<svg xmlns="http://www.w3.org/2000/svg" viewBox="0 0 16 16"><path stroke-width="0" fill="none" d="M0 0h16v16H0z"/><path d="M12.5 2c-.827 0-1.5.673-1.5 1.5 0 .651.42 1.2 1 1.408V5.5C12 6.879 10.878 8 9.5 8h-3c-.56 0-1.078.209-1.5.543V2.908A1.5 1.5 0 0 0 6 1.5C6 .673 5.327 0 4.5 0S3 .673 3 1.5c0 .651.42 1.2 1 1.408v10.296c-.523.203-.9.702-.9 1.296 0 .772.628 1.4 1.4 1.4.772 0 1.4-.628 1.4-1.4 0-.594-.377-1.093-.9-1.296V10.57C5 9.72 5.687 9 6.5 9h3C11.43 9 13 7.43 13 5.5v-.592c.58-.207 1-.757 1-1.408 0-.827-.673-1.5-1.5-1.5zM4.967 14.733a.233.233 0 0 1-.234.234H4.28a.246.246 0 0 1-.246-.246v-.454c0-.13.105-.234.234-.234h.466c.13 0 .234.105.234.234v.466zM4.75 2h-.5A.25.25 0 0 1 4 1.75v-.5A.25.25 0 0 1 4.25 1h.487c.145 0 .263.118.263.263v.487a.25.25 0 0 1-.25.25zM13 3.75a.25.25 0 0 1-.25.25h-.5a.25.25 0 0 1-.25-.25v-.5a.25.25 0 0 1 .25-.25h.487c.145 0 .263.118.263.263v.487z" fill="#231f20" stroke-width="0"/></svg>