<svg xmlns="http://www.w3.org/2000/svg" viewBox="0 0 32 32"><path stroke-width="0" fill="none" d="M0 0h32v32H0z"/><path d="M28 7.5C28 6.121 26.98 5 25.601 5s-2.5 1.121-2.5 2.5c0 1.17.811 2.148 1.899 2.419V12.5c0 2.481-2.019 4.5-4.5 4.5H12c-1.2 0-2.266.542-3 1.382V5.95c1.118-.234 1.899-1.243 1.899-2.449 0-1.379-1.02-2.5-2.399-2.5S6 2.121 6 3.5c0 1.208.86 2.217 2 2.45v20.13a2.498 2.498 0 0 0-1.899 2.42c0 1.379 1.122 2.5 2.5 2.5S11 29.879 11 28.5c0-1.241-.83-2.265-2-2.46V21c0-1.654 1.346-3 3-3h8.5c3.033 0 5.5-2.468 5.5-5.5V9.96c1.17-.195 2-1.219 2-2.46zM7 4V3a1 1 0 0 1 1-1h1a1 1 0 0 1 1 1v1a1 1 0 0 1-1 1H8a1 1 0 0 1-1-1zm2.101 23a1 1 0 0 1 1 1v1a1 1 0 0 1-1 1h-1a1 1 0 0 1-1-1v-1a1 1 0 0 1 1-1h1zm18-19a1 1 0 0 1-1 1h-1a1 1 0 0 1-1-1V7a1 1 0 0 1 1-1h1a1 1 0 0 1 1 1v1z" fill="#231f20" stroke-width="0"/></svg>