<svg xmlns="http://www.w3.org/2000/svg" viewBox="0 0 16 16"><path fill="none" d="M0 0h16v16H0z"/><path fill="#231f20" d="M1 10.5V12h4v1H0v-2.5C0 8.57 1.57 7 3.5 7h3c.334 0 .652.062.958.15a5.3 5.3 0 0 0-.77.869C6.625 8.014 6.564 8 6.5 8h-3A2.503 2.503 0 0 0 1 10.5M7.99 3c0 1.654-1.336 3-2.99 3S2 4.654 2 3s1.346-3 3-3 2.99 1.346 2.99 3M7 3c0-1.103-.897-2-2-2s-2 .897-2 2 .897 2 2 2 2-.897 2-2m2 4.592V8.74A3 3 0 0 0 7.969 11c0 .029.007.056.008.084.594.2 1.023.754 1.023 1.416 0 .83-.67 1.5-1.5 1.5S6 13.33 6 12.5a1.49 1.49 0 0 1 1.04-1.42c-.001-.028-.009-.053-.009-.08 0-1.456.797-2.718 1.969-3.408M7 12v1h1v-1zm9 .5-.003.025A1.494 1.494 0 0 1 14.5 14c-.257 0-.495-.07-.707-.184A3.96 3.96 0 0 1 11 14.969a3.9 3.9 0 0 1-1.916-.515l.687-.689a3.01 3.01 0 0 0 3.375-.627A1.5 1.5 0 0 1 13 12.5c0-.83.67-1.5 1.5-1.5s1.5.67 1.5 1.5m-1-.5h-1v1h1zm-2-4.5c0 .03-.007.058-.009.087A3.96 3.96 0 0 1 14.825 10h-.977a3.03 3.03 0 0 0-1.204-1.54A1.49 1.49 0 0 1 11.5 9c-.83 0-1.5-.67-1.5-1.5S10.67 6 11.5 6s1.5.67 1.5 1.5M12 7h-1v1h1z"/></svg>