<?xml version="1.0" encoding="UTF-8"?><svg id="icons" xmlns="http://www.w3.org/2000/svg" viewBox="0 0 32 32"><defs><style>.cls-1{fill:none;}</style></defs><path d="M5,5c0-1.6543,1.3457-3,3-3s2.99,1.3457,2.99,3-1.3357,3-2.99,3-3-1.3457-3-3ZM5,19c-1.6543,0-3-1.3457-3-3s1.3457-3,3-3,2.99,1.3457,2.99,3-1.3357,3-2.99,3ZM5,18c1.10254,0,2-.89746,2-2s-.89746-2-2-2-2,.89746-2,2,.89746,2,2,2ZM8,23c-1.6543,0-3,1.3457-3,3s1.3457,3,3,3,2.99-1.3457,2.99-3-1.3357-3-2.99-3ZM30,16c0,2.20605-1.79395,4-4,4s-4-1.79395-4-4,1.79395-4,4-4,4,1.79395,4,4ZM29,16c0-1.6543-1.3457-3-3-3s-3,1.3457-3,3,1.3457,3,3,3,3-1.3457,3-3ZM15.64648,13.35352l2.64648,2.64648h-8.29297v1h8.29297l-2.64648,2.64648.70703.70703,3.85352-3.85352-3.85352-3.85352-.70703.70703Z"/><rect class="cls-1" width="32" height="32"/></svg>