<svg xmlns="http://www.w3.org/2000/svg" viewBox="0 0 16 16"><path d="M13.864 9.204a5.886 5.886 0 0 0-2.947-6.436 2.925 2.925 0 0 0-5.834 0 5.885 5.885 0 0 0-2.947 6.436 2.932 2.932 0 1 0 3.4 4.256 5.89 5.89 0 0 0 4.927 0 2.931 2.931 0 1 0 3.4-4.256zM8 1.04A1.96 1.96 0 1 1 6.04 3 1.96 1.96 0 0 1 8 1.04M3 13.96A1.96 1.96 0 1 1 4.96 12 1.96 1.96 0 0 1 3 13.96M10.06 12a3 3 0 0 0 .052.521 5.1 5.1 0 0 1-4.224 0 2.9 2.9 0 0 0-2.76-3.449A4.915 4.915 0 0 1 5.203 3.86a2.92 2.92 0 0 0 5.594 0 4.915 4.915 0 0 1 2.075 5.212A2.94 2.94 0 0 0 10.06 12M13 13.96A1.96 1.96 0 1 1 14.96 12 1.96 1.96 0 0 1 13 13.96"/><path fill="none" d="M0 0h16v16H0z"/></svg>