<svg xmlns="http://www.w3.org/2000/svg" viewBox="0 0 32 32"><path d="M22 2H2v20h20zM3 21V3h13.287a2.52 2.52 0 0 0-1.241 1.852 1.7 1.7 0 0 0 .204.801 1.9 1.9 0 0 0-.618.846 1.5 1.5 0 0 0-.081.501q0 .066.007.14a1.9 1.9 0 0 0-.764.573 1.42 1.42 0 0 0-.35 1.17 2 2 0 0 1 .072.76 2.5 2.5 0 0 0-.997 1.069 1.7 1.7 0 0 0-.97-.316 1.6 1.6 0 0 0-1.563 1.631.5.5 0 0 1-.06.172 1.77 1.77 0 0 0-1.553-1.008 1.797 1.797 0 0 0-1.759 1.829 2.5 2.5 0 0 0 .098.664.7.7 0 0 1 .034.162c-.005.002-.046.078-.076.133a2.17 2.17 0 0 0-.32 1.09 1.51 1.51 0 0 0 1.455 1.458 1.731 1.731 0 0 0 1.128 2.908l.02.004-.05.141A2.9 2.9 0 0 0 8.767 21zm18 0h-7.04c.008-.09.013-1.178.013-1.26q0-.045-.005-.097a2 2 0 0 0-.045-.337l.047-.023a1.79 1.79 0 0 0 1.224-1.594 1.4 1.4 0 0 0-.081-.461 1.7 1.7 0 0 0 .606-1.13 2 2 0 0 0 .195.013 1.58 1.58 0 0 0 1.185-.54 1.7 1.7 0 0 0 .243.26 2.5 2.5 0 0 0 1.821.577 4.3 4.3 0 0 0 1.837-.57zm0-6.13c-.407.11-.894.538-1.028.538h-.809a1.66 1.66 0 0 1-1.166-.332c-.34-.295-.331-.892-.794-.892-.621 0-.668.927-1.289.927-.281 0-.413-.2-.694-.2a.456.456 0 0 0-.495.405v.645c0 .545-.73.654-.73 1.2 0 .222.2.306.2.529 0 .744-1.325.644-1.325 1.388 0 .244.09.39.1.625a.1.1 0 0 1 .003.037A5.4 5.4 0 0 1 12.75 21H9.68a4 4 0 0 1-.015-.246 2.8 2.8 0 0 1 .226-.967 2.1 2.1 0 0 0 .137-.717c0-.703-1.342-.504-1.552-.926-.525-1.046.89-1.316.89-2.15 0-.205-.105-.627-.43-.662-.452-.045-.569.2-1.023.2a.52.52 0 0 1-.562-.464c0-.496.395-.726.395-1.222 0-.325-.132-.506-.132-.827a.795.795 0 0 1 .759-.828c.416 0 .595.34.794.694a.83.83 0 0 0 .794.398c.63 0 1.025-.785 1.025-1.256a.61.61 0 0 1 .563-.63c.445 0 .612.462 1.057.462.736 0 .71-.972 1.357-1.32.794-.428.562-1.357.463-1.852-.044-.22.372-.644.595-.63.925.068.53-.692.53-1.057a.5.5 0 0 1 .03-.182c.143-.425.764-.562.764-1.076 0-.36-.3-.527-.3-.89 0-.54.798-1.022 1.63-1.418A.67.67 0 0 0 18.026 3H21zM25 7h-2V6h3v20H6v-3h1v2h18zm5 3v20H10v-3h1v2h18V11h-2v-1z"/><path fill="none" d="M0 0h32v32H0z"/></svg>