<?xml version="1.0" encoding="UTF-8"?><svg id="icons" xmlns="http://www.w3.org/2000/svg" viewBox="0 0 16 16"><defs><style>.cls-1{fill:none;}</style></defs><path d="M2,2.5c0-.82715.67285-1.5,1.5-1.5s1.5.67285,1.5,1.5-.67285,1.5-1.5,1.5-1.5-.67285-1.5-1.5ZM1.5,9c-.82715,0-1.5-.67285-1.5-1.5s.67285-1.5,1.5-1.5,1.5.67285,1.5,1.5-.67285,1.5-1.5,1.5ZM2,7h-1v1h1v-1ZM15.99,7.5c0,1.37891-1.11109,2.5-2.49,2.5s-2.5-1.12109-2.5-2.5,1.12109-2.5,2.5-2.5,2.49,1.12109,2.49,2.5ZM15,7.5c0-.82715-.67285-1.5-1.5-1.5s-1.5.67285-1.5,1.5.67285,1.5,1.5,1.5,1.5-.67285,1.5-1.5ZM8,7h-4v1h4l-.00006,1,2-1.50006-1.99988-1.5-.00006,1.00006ZM3.5,11c-.82715,0-1.5.67285-1.5,1.5s.67285,1.5,1.5,1.5,1.5-.67285,1.5-1.5-.67285-1.5-1.5-1.5Z"/><rect class="cls-1" width="16" height="16"/></svg>