<svg xmlns="http://www.w3.org/2000/svg" viewBox="0 0 24 24"><path d="M2 2v15h15V2zm1 14V3h8.81a1.49 1.49 0 0 0-.194 1.43 1.56 1.56 0 0 0-.398.614 1.3 1.3 0 0 0-.074.415 1.7 1.7 0 0 0-.511.417 1.3 1.3 0 0 0-.315 1.084 3 3 0 0 1 .063.37 2 2 0 0 0-.602.616 1.45 1.45 0 0 0-.637-.148 1.43 1.43 0 0 0-1.353 1.018 1.42 1.42 0 0 0-1.03-.422 1.6 1.6 0 0 0-1.568 1.62 2 2 0 0 0 .081.561.03.03 0 0 0 .02-.015 2 2 0 0 0-.299.992 1.355 1.355 0 0 0 .933 1.264 1.56 1.56 0 0 0 .017 1.49 1.4 1.4 0 0 0 .927.699 2.5 2.5 0 0 0-.141.81L6.73 16zm13 0h-4.874c.03-.45.041-.826.041-.833v-.136l-.012-.048a1.53 1.53 0 0 0 .928-1.353 1.3 1.3 0 0 0-.03-.277 1.56 1.56 0 0 0 .381-.659 1.38 1.38 0 0 0 .811-.3l.035.03a2.23 2.23 0 0 0 1.53.494h.606a2.2 2.2 0 0 0 .584-.104zm0-13v8.782c-.29.075-.54.136-.584.136h-.606a1.24 1.24 0 0 1-.875-.249c-.255-.22-.248-.669-.595-.669-.466 0-.501.696-.967.696-.21 0-.31-.151-.52-.151a.34.34 0 0 0-.372.305v.483c0 .409-.547.49-.547.9 0 .166.15.23.15.396 0 .559-.994.484-.994 1.042 0 .183.068.293.075.469l.002.027c0 .103-.015.456-.043.833H7.73l-.001-.184a2.1 2.1 0 0 1 .17-.726A1.6 1.6 0 0 0 8 14.553c0-.528-1.006-.378-1.164-.695-.393-.785.668-.987.668-1.612 0-.154-.08-.47-.323-.497-.338-.034-.426.15-.767.15a.39.39 0 0 1-.422-.348c0-.372.297-.545.297-.917 0-.243-.1-.38-.1-.62a.597.597 0 0 1 .57-.62c.312 0 .446.255.595.52a.62.62 0 0 0 .596.298c.472 0 .769-.588.769-.942a.456.456 0 0 1 .422-.473c.334 0 .459.348.793.348.552 0 .532-.73 1.017-.99.596-.322.422-1.019.347-1.39-.033-.165.28-.483.446-.473.695.052.398-.518.398-.792a.4.4 0 0 1 .022-.136c.108-.32.574-.422.574-.807 0-.27-.224-.396-.224-.668 0-.33.4-.628.883-.889zm3 16V6h-1V5h2v15H5v-2h1v1zm3 3V9h-1V8h2v15H8v-2h1v1z"/><path fill="none" d="M0 0h24v24H0z"/></svg>