<svg xmlns="http://www.w3.org/2000/svg" viewBox="0 0 24 24"><path fill="#231f20" d="M7.5 9C9.43 9 11 7.43 11 5.5S9.43 2 7.5 2 4 3.57 4 5.5 5.57 9 7.5 9m0-6C8.879 3 10 4.122 10 5.5S8.879 8 7.5 8 5 6.878 5 5.5 6.121 3 7.5 3M9 18H1v-3.5C1 12.019 3.019 10 5.5 10h4c1.155 0 2.2.45 2.997 1.168q-.436.275-.83.605A3.47 3.47 0 0 0 9.5 11h-4C3.57 11 2 12.57 2 14.5V17h7zm8-4c.827 0 1.539-.505 1.843-1.223 1.701.772 2.932 2.35 3.15 4.223h.944c-.23-2.345-1.8-4.316-3.956-5.188a1.99 1.99 0 0 0-1.458-1.734A2 2 0 0 0 17 10c-.057 0-.111.012-.167.017A1.996 1.996 0 0 0 15 12c0 1.103.897 2 2 2m0-3a1.001 1.001 0 1 1-1 1c0-.551.448-1 1-1m6.809 8.16A2 2 0 0 0 22 18c-1.103 0-2 .897-2 2 0 .493.186.94.484 1.29a5.6 5.6 0 0 1-3.984 1.64 5.65 5.65 0 0 1-3.099-.918l-.67.67A6.57 6.57 0 0 0 16.5 23.87a6.54 6.54 0 0 0 4.742-2.02c.234.096.49.151.758.151.192 0 .375-.036.55-.087A2 2 0 0 0 24 20c0-.301-.072-.584-.191-.84M22 21a1.001 1.001 0 0 1 0-2 1.001 1.001 0 0 1 0 2m-11-3-.01.001c-.01-.133-.021-.266-.021-.4 0-2.073 1.235-3.869 3.031-4.75v-1.032c-2.329.95-3.969 3.183-3.969 5.781q0 .325.034.643A2 2 0 0 0 9 20c0 .91.615 1.672 1.45 1.913.175.051.358.087.55.087 1.103 0 2-.897 2-2s-.897-2-2-2m0 3a1.001 1.001 0 0 1 0-2 1.001 1.001 0 0 1 0 2"/><path fill="none" d="M0 0h24v24H0z"/></svg>