<svg xmlns="http://www.w3.org/2000/svg" viewBox="0 0 24 24"><path d="M19.902 13.161a7.88 7.88 0 0 0-3.956-8.1c0-.021.006-.04.006-.061a3.952 3.952 0 0 0-7.904 0c0 .02.006.04.006.06a7.88 7.88 0 0 0-3.956 8.101 3.946 3.946 0 1 0 4.242 5.93 7.86 7.86 0 0 0 7.32 0 3.945 3.945 0 1 0 4.242-5.93M12 2.051A2.948 2.948 0 1 1 9.052 5 2.95 2.95 0 0 1 12 2.052zM5 19.949A2.948 2.948 0 1 1 7.948 17 2.95 2.95 0 0 1 5 19.948zm3.75-1.76A3.9 3.9 0 0 0 8.952 17a3.95 3.95 0 0 0-3.868-3.944A7 7 0 0 1 4.996 12a6.98 6.98 0 0 1 3.232-5.885 3.926 3.926 0 0 0 7.544 0A6.98 6.98 0 0 1 19.004 12a7 7 0 0 1-.088 1.056A3.95 3.95 0 0 0 15.048 17a3.9 3.9 0 0 0 .202 1.188 7.13 7.13 0 0 1-6.5 0zM19 19.948A2.948 2.948 0 1 1 21.948 17 2.95 2.95 0 0 1 19 19.948"/><path fill="none" d="M0 0h24v24H0z"/></svg>