<?xml version="1.0" encoding="UTF-8"?><svg id="icons" xmlns="http://www.w3.org/2000/svg" viewBox="0 0 16 16"><defs><style>.cls-1{fill:none;}</style></defs><path d="M15,12.0921V3.9079c.58075-.20709,1-.7569,1-1.4079,0-.82715-.67285-1.5-1.5-1.5s-1.5.67285-1.5,1.5c0,.651.41925,1.20081,1,1.4079v8.1842c-.58075.20709-.99.7569-.99,1.4079,0,.82715.66285,1.5,1.49,1.5s1.49-.67285,1.49-1.5c0-.651-.40925-1.20081-.99-1.4079ZM15,14h-1v-1h1v1ZM3.79828,3.2373c.12476-.21869.20172-.46802.20172-.7373,0-.82715-.67285-1.5-1.5-1.5s-1.5.67285-1.5,1.5c0,.26929.07697.51862.20172.7373C.41449,4.25311,0,6.16626,0,8s.41449,3.74689,1.20172,4.7627c-.12476.21869-.20172.46802-.20172.7373,0,.82715.67285,1.5,1.5,1.5s1.5-.67285,1.5-1.5c0-.26929-.07697-.51862-.20172-.7373.78723-1.01581,1.19172-2.92896,1.19172-4.7627s-.40449-3.74689-1.19172-4.7627ZM3,14h-1v-1h1v1ZM3.04321,12.10559c-.16895-.06604-.35114-.10559-.54321-.10559-.19202,0-.37427.03949-.54315.10553-.48962-.65784-.95685-2.11487-.95685-4.10553s.46722-3.44769.95685-4.10553c.16888.06604.35114.10553.54315.10553.19208,0,.37427-.03955.54321-.10559.48962.65784.95679,2.11493.95679,4.10559s-.46716,3.44775-.95679,4.10559ZM10.00006,5.99994l1.99988,1.5-2,1.50006.00006-1h-4v-1h4l.00006-1.00006Z"/><rect class="cls-1" x="0" width="16" height="16"/></svg>