<svg xmlns="http://www.w3.org/2000/svg" viewBox="0 0 32 32"><path d="M3 3v26h26V3zm1 1h9.747l2.726 10.092L4 17.086zm24 24H4v-9.914a1 1 0 0 0 .233-.028l12.546-3.011 2.267 7.251a1 1 0 0 0 .68.663l8 2.286a1 1 0 0 0 .274.039zm0-3.715L20 22l-2.545-8.143L14.783 4H28z"/><path d="M28 28H4v-9.914a1 1 0 0 0 .233-.028l12.546-3.011 2.267 7.251a1 1 0 0 0 .68.663l8 2.286a1 1 0 0 0 .274.039z" opacity=".2"/><path d="M28 24.285 20 22l-2.545-8.143L14.783 4H28z" opacity=".5"/><path fill="none" d="M0 0h32v32H0z"/></svg>