<svg xmlns="http://www.w3.org/2000/svg" viewBox="0 0 24 24"><path fill="none" d="M0 0h24v24H0z"/><path d="M10 4H9v1H8V4H7V3h3zM9 20v-1H8v1H7v1h3v-1zM9 9V7H8v2zm-1 6v2h1v-2zM3 3H1v2h1V4h1zM2 20v-1H1v2h2v-1zM2 9V7H1v2zm-1 6v2h1v-2zM22 3h-1v1h1v1h1V3zm1 6V7h-1v2zm-6-6h-3v1h1v1h1V4h1zm-1 6V7h-1v2zM6 3H4v1h2zm0 17H4v1h2zm7-17h-2v1h2zm7 0h-2v1h2zm-1 15a2 2 0 1 1-4 0 2 2 0 0 1 4 0m-1 0a1 1 0 1 0-2 0 1 1 0 0 0 2 0m.484 4.34.653-.235 1.543.71 1.162-1.171-.724-1.624.296-.628 1.586-.59v-1.65l-1.66-.636-.235-.653.705-1.538-1.166-1.167-1.624.724-.628-.296-.59-1.586h-1.65l-.636 1.66-.653.235-1.543-.71-1.166 1.168.727 1.627-.295.628-1.586.59v1.65l1.66.636.235.653-.71 1.543 1.168 1.166 1.627-.727.628.295.59 1.586h1.65zm-2.24-.66-1.161-.544-1.4.627-.412-.411.59-1.283-.434-1.206L12 18.315v-.581l1.32-.49.544-1.161-.627-1.4.411-.412 1.283.59 1.206-.434.548-1.427h.581l.49 1.32 1.16.543 1.396-.622.412.412-.585 1.28.434 1.204 1.427.548v.581l-1.32.49-.543 1.16.623 1.398-.41.413-1.28-.588-1.207.434L17.315 23h-.581zM2 11H1v2h1zm7 0H8v2h1zm14 0h-1v2h1z"/></svg>