<svg xmlns="http://www.w3.org/2000/svg" viewBox="0 0 16 16"><path fill="none" d="M0 0h16v16H0z"/><path d="M2 14v1H0v-2h1v1zM2 1H0v2h1V2h1zm4 13v-1H5v1H4v1h3v-1zM7 1H4v1h1v1h1V2h1zm8 0h-1v1h1v1h1V1zm-3 0H9v1h1v1h1V2h1zm2.631 11.658q-.056.152-.126.296l.602 1.308-.868.86-1.343-.592a3 3 0 0 1-.298.12l-.5 1.35h-1.222l-.53-1.373q-.151-.056-.296-.126l-1.308.601-.86-.867.592-1.343a3 3 0 0 1-.12-.299l-1.35-.499v-1.188l1.35-.5q.053-.151.12-.298l-.592-1.343.86-.867 1.308.601a3 3 0 0 1 .296-.126L10.876 7h1.222l.5 1.35q.153.053.298.12l1.343-.593.868.86-.602 1.309q.07.144.126.296l1.37.53v1.256zm.619-1.044v-.228l-1.207-.468-.116-.318a2 2 0 0 0-.097-.227l-.154-.318.53-1.155-.132-.13-1.184.522-.307-.14a3 3 0 0 0-.23-.093l-.335-.117-.442-1.192h-.185l-.468 1.209-.318.118q-.116.041-.224.096l-.32.156-1.156-.531-.13.133.523 1.185-.144.309a3 3 0 0 0-.093.232l-.119.331-1.188.44v.144l1.188.44.119.33q.041.12.093.233l.144.309-.524 1.185.131.133 1.156-.531.32.156q.108.054.224.096l.318.118.468 1.209h.185l.442-1.192.335-.117q.12-.042.236-.094l.305-.138 1.18.521.132-.13-.53-1.155.154-.318q.054-.11.097-.227l.116-.318zM13 11.5a1.5 1.5 0 1 1-3 0 1.5 1.5 0 0 1 3 0m-1-.5h-1v1h1zM1 4H0v2h1zm0 3H0v2h1zm5-3H5v2h1zm5 0h-1v2h1zm5 0h-1v2h1zM6 7H5v2h1zm0 3H5v2h1zm-5 0H0v2h1z"/></svg>