<svg xmlns="http://www.w3.org/2000/svg" viewBox="0 0 32 32"><path fill="none" d="M0 0h32v32H0z"/><path d="M3 5h1v1H3v1H2V5zm0 20H2v2h2v-1H3zM3 9H2v2h1zm0 4H2v2h1zm0 8H2v2h1zm0-4H2v2h1zM6 6h2V5H6zm0 21h2v-1H6zm5-22h-1v1h1v1h1V6h1V5zm1 20h-1v1h-1v1h3v-1h-1zm0-16h-1v2h1zm-1 6h1v-2h-1zm0 8h1v-2h-1zm0-4h1v-2h-1zm4-13h2V5h-2zm5-1h-1v1h1v1h1V6h1V5zm9 0h-1v1h1v1h1V5zm-9 6h1V9h-1zm0 4h1v-2h-1zm9-4h1V9h-1zm0 4h1v-2h-1zm-5-9h2V5h-2zm4.87 19.871 2.13-.79-.008-2.221-2.201-.838-.319-.849.95-2.066-1.577-1.565-2.149.965-.826-.377-.789-2.13-2.221.008-.838 2.201-.848.319-2.066-.95-1.566 1.577.965 2.149-.377.826-2.13.789.008 2.221 2.202.838.318.848-.95 2.066 1.577 1.566 2.15-.965.824.377.79 2.13 2.221-.008.838-2.202.849-.318 2.066.95 1.565-1.577-.965-2.15zm-1.214 3.373-1.81-.832-1.608.59-.758 1.994-.897.003-.691-1.864-1.555-.722-1.945.874-.636-.631.831-1.81L18 25.24l-1.995-.76-.003-.895 1.865-.692.721-1.555-.874-1.945.632-.636 1.809.831 1.608-.59.758-1.993.897-.004.69 1.866 1.556.72 1.945-.873.636.632-.831 1.809.588 1.607 1.995.76.004.896-1.866.692-.722 1.551.875 1.948-.631.636zM23 21a3 3 0 1 0 0 6 3 3 0 0 0 0-6m0 5a2 2 0 1 1 0-4 2 2 0 0 1 0 4"/></svg>