<?xml version="1.0" encoding="UTF-8"?><svg id="icons" xmlns="http://www.w3.org/2000/svg" viewBox="0 0 24 24"><defs><style>.cls-1{fill:none;}</style></defs><path d="M12.63568,8l.96381-.57587c.36121.35522.85529.57587,1.40051.57587,1.10254,0,2-.89746,2-2s-.89746-2-2-2c-.54395,0-1.03674.21979-1.39771.57355l-1.69348-1.00897c.05353-.18024.09119-.36719.09119-.56458,0-1.10254-.89746-2-2-2s-1.98999.89746-1.98999,2c0,.19769.02771.38501.08142.56555l-1.69092,1.01031c-.36121-.35522-.85529-.57587-1.40051-.57587-1.10254,0-1.98999.89746-1.98999,2s.88745,2,1.98999,2c.54395,0,1.03674-.21979,1.39771-.57355l1.69348,1.00897c-.05353.18024-.09119.36719-.09119.56458,0,.63367.30212,1.19281.76361,1.55957l-2.43494,5.47369c-.10754-.01794-.21613-.03326-.32867-.03326-.60004,0-1.13306.27136-1.5.69141-.36694-.42004-.89996-.69141-1.5-.69141-1.10254,0-1.98999.89746-1.98999,2s.88745,2,1.98999,2c.60004,0,1.13306-.27136,1.5-.69141.05969.0683.12311.13171.19141.19141-.42004.36694-.69141.89996-.69141,1.5,0,1.10254.89746,2,2,2s2-.89746,2-2c0-.60004-.27136-1.13306-.69141-1.5.16394-.14325.3028-.31091.41309-.5h1.27832v-1h-1c0-.63367-.30212-1.19281-.76361-1.55957l1.76361-3.96454v-1.97589c0-1.37891,1.12109-2.5,2.5-2.5h1.13568ZM14,5.5c0-.27618.22388-.5.5-.5h1c.27612,0,.5.22382.5.5v1c0,.27612-.22388.5-.5.5h-1c-.27612,0-.5-.22388-.5-.5v-1ZM6,6.5c0,.27612-.22388.5-.5.5h-1c-.27612,0-.5-.22388-.5-.5v-1c0-.27618.22388-.5.5-.5h1c.27612,0,.5.22382.5.5v1ZM4,18.5c0,.27612-.22388.5-.5.5h-1c-.27612,0-.5-.22388-.5-.5v-1c0-.27618.22388-.5.5-.5h1c.27612,0,.5.22382.5.5v1ZM7,21.5c0,.27612-.22388.5-.5.5h-1c-.27612,0-.5-.22388-.5-.5v-1c0-.27618.22388-.5.5-.5h1c.27612,0,.5.22382.5.5v1ZM9,2.5c0-.27618.22388-.5.5-.5h1c.27612,0,.5.22382.5.5v1c0,.27612-.22388.5-.5.5h-1c-.27612,0-.5-.22388-.5-.5v-1ZM10,7c-.54395,0-1.03674.21979-1.39771.57355l-1.69348-1.00897c.05353-.18024.09119-.36719.09119-.56458s-.03766-.38434-.09119-.56458l1.69348-1.00897c.36096.35376.85376.57355,1.39771.57355s1.03674-.21979,1.39771-.57355l1.69348,1.00897c-.05353.18024-.08118.36719-.08118.56458s.02765.38434.08118.56458l-1.69348,1.00897c-.36096-.35376-.85376-.57355-1.39771-.57355ZM21.5,9h-10c-.82715,0-1.5.67285-1.5,1.5v11c0,.82715.67285,1.5,1.5,1.5h10c.82715,0,1.5-.67285,1.5-1.5v-11c0-.82715-.67285-1.5-1.5-1.5ZM22,21.5c0,.27539-.22461.5-.5.5h-10c-.27539,0-.5-.22461-.5-.5v-11c0-.27539.22461-.5.5-.5h10c.27539,0,.5.22461.5.5v11ZM20,16h-1c-.55231,0-1,.44769-1,1v3c0,.55225.44769,1,1,1h1c.55231,0,1-.44775,1-1v-3c0-.55231-.44769-1-1-1ZM20,20h-1v-3h1v3ZM12,15h9v-4h-9v4ZM13,12h7v2h-7v-2ZM17,16.72723v.54547c0,.40167-.32562.72729-.72729.72729h-.54541c-.40167,0-.72729-.32562-.72729-.72729v-.54547c0-.40161.32562-.72723.72729-.72723h.54541c.40167,0,.72729.32562.72729.72723ZM17,19.72723v.54547c0,.40167-.32562.72729-.72729.72729h-.54541c-.40167,0-.72729-.32562-.72729-.72729v-.54547c0-.40161.32562-.72723.72729-.72723h.54541c.40167,0,.72729.32562.72729.72723ZM14,16.72723v.54547c0,.40167-.32562.72729-.72729.72729h-.54541c-.40167,0-.72729-.32562-.72729-.72729v-.54547c0-.40161.32562-.72723.72729-.72723h.54541c.40167,0,.72729.32562.72729.72723ZM14,19.72723v.54547c0,.40167-.32562.72729-.72729.72729h-.54541c-.40167,0-.72729-.32562-.72729-.72729v-.54547c0-.40161.32562-.72723.72729-.72723h.54541c.40167,0,.72729.32562.72729.72723Z"/><rect class="cls-1" width="24" height="24"/></svg>