<?xml version="1.0" encoding="UTF-8"?><svg id="icons" xmlns="http://www.w3.org/2000/svg" viewBox="0 0 16 16"><defs><style>.cls-1{fill:none;}</style></defs><path d="M7.5,3c.40356,0,.7688-.16193,1.0387-.42206l1.47974.73987c-.00745.06042-.01843.11981-.01843.18219,0,.15546.03052.30255.07458.44366l-.07507.05634h1.00049v-1h1v1h.9079c.05603-.15717.0921-.32385.0921-.5,0-.82715-.67285-1.5-1.5-1.5-.40356,0-.7688.16193-1.0387.42206l-1.47974-.73987c.00745-.06042.01843-.11981.01843-.18219,0-.82715-.67285-1.5-1.5-1.5s-1.5.67285-1.5,1.5c0,.06238.01099.12177.01843.18219l-1.47974.73987c-.2699-.26013-.63513-.42206-1.0387-.42206-.82715,0-1.5.67285-1.5,1.5s.67285,1.5,1.5,1.5c.30695,0,.59204-.09332.83002-.25214l1.71692,1.28748c.06592-.34845.20258-.67108.39709-.95245l-1.51862-1.13922c.04407-.14111.07458-.28821.07458-.44366,0-.06238-.01099-.12177-.01843-.18219l1.47974-.73987c.2699.26013.63513.42206,1.0387.42206ZM7,1h1v1h-1v-1ZM4,4h-1v-1h1v1ZM3.5,11c-.38556,0-.73401.15027-1,.39014-.26599-.23987-.61444-.39014-1-.39014-.82715,0-1.5.67285-1.5,1.5s.67285,1.5,1.5,1.5c.23767,0,.45953-.06061.65942-.15942-.09882.19989-.15942.42175-.15942.65942,0,.82715.67285,1.5,1.5,1.5s1.5-.67285,1.5-1.5c0-.38556-.15027-.73401-.39014-1,.12982-.14392.22601-.31494.2937-.5h1.09644v-1h-1.0921c-.05188-.14172-.12164-.27533-.21082-.39429l1.30292-1.95435v-1.80273l-2.13446,3.20166c-.11768-.02972-.23877-.05029-.36554-.05029ZM2,13h-1v-1h1v1ZM4,15h-1v-1h1v1ZM9,11h1v1h-1v-1ZM9,13h1v1h-1v-1ZM11,11h1v1h-1v-1ZM13,11h1v3h-1v-3ZM11,13h1v1h-1v-1ZM14.5,5h-6c-.82715,0-1.5.67285-1.5,1.5v8c0,.82715.67285,1.5,1.5,1.5h6c.82715,0,1.5-.67285,1.5-1.5V6.5c0-.82715-.67285-1.5-1.5-1.5ZM15,14.5c0,.27539-.22461.5-.5.5h-6c-.27539,0-.5-.22461-.5-.5V6.5c0-.27539.22461-.5.5-.5h6c.27539,0,.5.22461.5.5v8ZM9,10h5v-3h-5v3ZM10,8h3v1h-3v-1Z"/><rect class="cls-1" width="16" height="16"/></svg>