<svg xmlns="http://www.w3.org/2000/svg" viewBox="0 0 32 32"><path fill="none" d="M0 0h32v32H0z"/><path d="M18 21h-1a1 1 0 0 0-1 1v1a1 1 0 0 0 1 1h1a1 1 0 0 0 1-1v-1a1 1 0 0 0-1-1m0 2h-1v-1h1zm4-2h-1a1 1 0 0 0-1 1v1a1 1 0 0 0 1 1h1a1 1 0 0 0 1-1v-1a1 1 0 0 0-1-1m0 2h-1v-1h1zm5-2h-2a1 1 0 0 0-1 1v5a1 1 0 0 0 1 1h2a1 1 0 0 0 1-1v-5a1 1 0 0 0-1-1m0 6h-2v-5h2zm-5-2h-1a1 1 0 0 0-1 1v1a1 1 0 0 0 1 1h1a1 1 0 0 0 1-1v-1a1 1 0 0 0-1-1m0 2h-1v-1h1zM8.5 21a2.49 2.49 0 0 0-2 1.015A2.49 2.49 0 0 0 4.5 21C3.121 21 2 22.121 2 23.5S3.121 26 4.5 26a2.49 2.49 0 0 0 2-1.015c.288.387.684.686 1.145.855A2.48 2.48 0 0 0 7 27.5C7 28.879 8.121 30 9.5 30s2.49-1.121 2.49-2.5a2.49 2.49 0 0 0-1.635-2.34c.29-.323.498-.72.59-1.16H13v-1h-2.05a2.5 2.5 0 0 0-.714-1.292L13 17.367V15.5l.001-.01-3.616 5.68A2.5 2.5 0 0 0 8.5 21M6 24a1 1 0 0 1-1 1H4a1 1 0 0 1-1-1v-1a1 1 0 0 1 1-1h1a1 1 0 0 1 1 1zm5 3v1a1 1 0 0 1-1 1H9a1 1 0 0 1-1-1v-1a1 1 0 0 1 1-1h1a1 1 0 0 1 1 1m17.5-13h-13c-.827 0-1.5.673-1.5 1.5v13c0 .827.673 1.5 1.5 1.5h13c.827 0 1.5-.673 1.5-1.5v-13c0-.827-.673-1.5-1.5-1.5m.5 14.5c0 .275-.225.5-.5.5h-13a.5.5 0 0 1-.5-.5v-13c0-.275.225-.5.5-.5h13c.275 0 .5.225.5.5zM16 20h12v-4H16zm1-3h10v2H17zm1 8h-1a1 1 0 0 0-1 1v1a1 1 0 0 0 1 1h1a1 1 0 0 0 1-1v-1a1 1 0 0 0-1-1m0 2h-1v-1h1zm-.05-14q.049-.243.05-.5c0-.272-.055-.529-.135-.774l2.765-1.584A2.48 2.48 0 0 0 22.5 11c1.379 0 2.49-1.121 2.49-2.5S23.879 6 22.5 6c-.748 0-1.412.336-1.87.858l-2.765-1.584c.08-.245.135-.502.135-.774C18 3.121 16.879 2 15.5 2S13 3.121 13 4.5c0 .272.055.529.135.774L10.37 6.858A2.48 2.48 0 0 0 8.5 6C7.121 6 6 7.121 6 8.5S7.121 11 8.5 11c.748 0 1.412-.336 1.87-.858l2.765 1.584c-.08.245-.135.502-.135.774 0 .565.196 1.08.514 1.499A2.49 2.49 0 0 1 15.5 13zM21 8a1 1 0 0 1 1-1h1a1 1 0 0 1 1 1v1a1 1 0 0 1-1 1h-1a1 1 0 0 1-1-1zM10 9a1 1 0 0 1-1 1H8a1 1 0 0 1-1-1V8a1 1 0 0 1 1-1h1a1 1 0 0 1 1 1zm7.37-2.858 2.765 1.584c-.08.245-.135.502-.135.774s.055.529.135.774l-2.765 1.584a2.5 2.5 0 0 0-1.37-.807V6.949a2.5 2.5 0 0 0 1.37-.807M15 10.051a2.5 2.5 0 0 0-1.37.807l-2.765-1.584c.08-.245.135-.502.135-.774s-.055-.529-.135-.774l2.765-1.584a2.5 2.5 0 0 0 1.37.807zM14 5V4a1 1 0 0 1 1-1h1a1 1 0 0 1 1 1v1a1 1 0 0 1-1 1h-1a1 1 0 0 1-1-1"/></svg>