<svg xmlns="http://www.w3.org/2000/svg" viewBox="0 0 16 16"><path d="M14.5 11c-.386 0-.734.15-1 .39a1.5 1.5 0 0 0-1-.39q-.171.001-.33.04L9.697 7.392a1.5 1.5 0 0 0 .272-1.19l1.851-1.373c.205.105.433.17.679.17A1.5 1.5 0 0 0 12.5 2c-.403 0-.768.162-1.038.421l-1.47-.848c.002-.025.008-.048.008-.073C10 .673 9.327 0 8.5 0S7 .673 7 1.5c0 .042.009.082.013.124l-1.44.831A1.5 1.5 0 0 0 4.5 2C3.673 2 3 2.673 3 3.5S3.673 5 4.5 5c.32 0 .616-.103.86-.274l1.703 1.367A1.5 1.5 0 0 0 7 6.5c0 .326.107.625.284.871l-2.426 3.677A1.5 1.5 0 0 0 4.5 11c-.386 0-.734.15-1 .39a1.5 1.5 0 0 0-1-.39c-.827 0-1.5.673-1.5 1.5S1.673 14 2.5 14c.238 0 .46-.06.66-.16-.1.2-.16.422-.16.66 0 .827.673 1.5 1.5 1.5S6 15.327 6 14.5c0-.386-.15-.734-.39-1q.196-.218.298-.5h5.184q.102.282.298.5c-.24.266-.39.614-.39 1 0 .827.673 1.5 1.5 1.5s1.5-.673 1.5-1.5c0-.238-.06-.46-.16-.66.2.1.422.16.66.16.827 0 1.5-.673 1.5-1.5s-.673-1.5-1.5-1.5m-1.75 1a.25.25 0 0 1 .25.25v.5a.25.25 0 0 1-.25.25h-.5a.25.25 0 0 1-.25-.25v-.487c0-.145.118-.263.263-.263zm-7.058-.4 2.414-3.66c.127.035.257.059.394.059.127 0 .249-.02.367-.05l2.459 3.628a1.5 1.5 0 0 0-.234.424H5.908a1.5 1.5 0 0 0-.216-.402zM9 6.263v.487a.25.25 0 0 1-.25.25h-.5A.25.25 0 0 1 8 6.75v-.5A.25.25 0 0 1 8.25 6h.487c.145 0 .263.118.263.263m3-3.013a.25.25 0 0 1 .25-.25h.487c.145 0 .263.118.263.263v.487a.25.25 0 0 1-.25.25h-.5a.25.25 0 0 1-.25-.25zm-.982.07c-.007.06-.018.118-.018.18 0 .213.046.416.127.6l-1.68 1.247A1.5 1.5 0 0 0 9 5.092V2.908c.235-.084.442-.222.606-.403zM8 1.25A.25.25 0 0 1 8.25 1h.487c.145 0 .263.118.263.263v.487a.25.25 0 0 1-.25.25h-.5A.25.25 0 0 1 8 1.75zm-.576 1.29c.16.165.356.29.576.368v2.184q-.194.068-.36.182L5.937 3.907A1.5 1.5 0 0 0 6 3.5c0-.044-.01-.086-.013-.13zM4.75 4h-.5A.25.25 0 0 1 4 3.75v-.5A.25.25 0 0 1 4.25 3h.487c.145 0 .263.118.263.263v.487a.25.25 0 0 1-.25.25M4 12.25a.25.25 0 0 1 .25-.25h.487c.145 0 .263.118.263.263v.487a.25.25 0 0 1-.25.25h-.5a.25.25 0 0 1-.25-.25zm-1 .5a.25.25 0 0 1-.25.25h-.5a.25.25 0 0 1-.25-.25v-.5a.25.25 0 0 1 .25-.25h.487c.145 0 .263.118.263.263zm2 2a.25.25 0 0 1-.25.25h-.5a.25.25 0 0 1-.25-.25v-.5a.25.25 0 0 1 .25-.25h.487c.145 0 .263.118.263.263zm8 0a.25.25 0 0 1-.25.25h-.5a.25.25 0 0 1-.25-.25v-.487c0-.145.118-.263.263-.263h.487a.25.25 0 0 1 .25.25zm2-2a.25.25 0 0 1-.25.25h-.5a.25.25 0 0 1-.25-.25v-.487c0-.145.118-.263.263-.263h.487a.25.25 0 0 1 .25.25z"/><path fill="none" d="M0 0h16v16H0z"/></svg>