<svg xmlns="http://www.w3.org/2000/svg" viewBox="0 0 24 24"><path d="M9 6a1 1 0 0 1-1 1H7a1 1 0 0 1-1-1V5a1 1 0 0 1 1-1h1a1 1 0 0 1 1 1v1zm7-1a1 1 0 0 1 1-1h1a1 1 0 0 1 1 1v1a1 1 0 0 1-1 1h-1a1 1 0 0 1-1-1V5zm-5.461 2.124l-.912-.536A2.37 2.37 0 0 0 9.9 5.5c0-.33-.067-.644-.188-.93l1.005-.479A2.39 2.39 0 0 0 12 4.846v1.308a2.401 2.401 0 0 0-1.461.97zM13 6.154V4.846a2.39 2.39 0 0 0 1.283-.755l1.005.48c-.121.285-.188.6-.188.929 0 .394.104.76.273 1.088l-.912.536A2.401 2.401 0 0 0 13 6.154zM5 18a1 1 0 0 1-1 1H3a1 1 0 0 1-1-1v-1a1 1 0 0 1 1-1h1a1 1 0 0 1 1 1v1zm15-1a1 1 0 0 1 1-1h1a1 1 0 0 1 1 1v1a1 1 0 0 1-1 1h-1a1 1 0 0 1-1-1v-1zM8 22a1 1 0 0 1-1 1H6a1 1 0 0 1-1-1v-1a1 1 0 0 1 1-1h1a1 1 0 0 1 1 1v1zm9-1a1 1 0 0 1 1-1h1a1 1 0 0 1 1 1v1a1 1 0 0 1-1 1h-1a1 1 0 0 1-1-1v-1zm-8-3a1 1 0 0 1-1 1H7a1 1 0 0 1-1-1v-1a1 1 0 0 1 1-1h1a1 1 0 0 1 1 1v1zm7-1a1 1 0 0 1 1-1h1a1 1 0 0 1 1 1v1a1 1 0 0 1-1 1h-1a1 1 0 0 1-1-1v-1zm-6.154 0a2.393 2.393 0 0 0-.696-1.234l2.786-4.94c.182.044.369.074.564.074s.382-.03.564-.074l2.786 4.94A2.393 2.393 0 0 0 15.154 17H9.846zM12 10a1 1 0 0 1-1-1V8a1 1 0 0 1 1-1h1a1 1 0 0 1 1 1v1a1 1 0 0 1-1 1h-1zm0-6a1 1 0 0 1-1-1V2a1 1 0 0 1 1-1h1a1 1 0 0 1 1 1v1a1 1 0 0 1-1 1h-1zm.5-3.9a2.403 2.403 0 0 0-2.4 2.4c0 .21.036.412.087.606l-1.118.592A2.38 2.38 0 0 0 7.5 3.1c-1.323 0-2.4 1.076-2.4 2.4s1.077 2.4 2.4 2.4c.54 0 1.035-.186 1.437-.49l1.203.697a2.38 2.38 0 0 0-.04.393c0 .774.374 1.456.944 1.895l-2.788 4.839c-.24-.08-.49-.134-.756-.134-.835 0-1.57.43-2 1.078a2.398 2.398 0 0 0-2-1.078c-3.175 0-3.175 4.8 0 4.8.835 0 1.57-.43 2-1.078.093.14.2.27.32.388-2.664.794-2.055 4.69.68 4.69 1.323 0 2.4-1.076 2.4-2.4a2.39 2.39 0 0 0-.72-1.71A2.399 2.399 0 0 0 9.846 18h5.308a2.4 2.4 0 0 0 1.666 1.79 2.39 2.39 0 0 0-.72 1.71c0 1.324 1.077 2.4 2.4 2.4 2.745 0 3.336-3.899.68-4.69.12-.118.227-.248.32-.388a2.398 2.398 0 0 0 2 1.078c3.175 0 3.175-4.8 0-4.8-.835 0-1.57.43-2 1.078a2.398 2.398 0 0 0-2-1.078c-.266 0-.517.054-.756.134l-2.788-4.84c.57-.438.944-1.12.944-1.894a2.38 2.38 0 0 0-.04-.393l1.203-.696c.402.303.896.489 1.437.489 1.323 0 2.4-1.076 2.4-2.4s-1.077-2.4-2.4-2.4a2.38 2.38 0 0 0-1.569.598l-1.118-.592A2.37 2.37 0 0 0 14.9 2.5c0-1.324-1.077-2.4-2.4-2.4z"/><path fill="none" d="M0 0h24v24H0z"/></svg>