<?xml version="1.0" encoding="UTF-8"?><svg id="icons" xmlns="http://www.w3.org/2000/svg" viewBox="0 0 32 32"><defs><style>.cls-1{fill:none;}</style></defs><rect class="cls-1" width="32" height="32"/><path d="M18,21h-1c-.55231,0-1,.44769-1,1v1c0,.55225.44769,1,1,1h1c.55231,0,1-.44775,1-1v-1c0-.55231-.44769-1-1-1ZM18,23h-1v-1h1v1ZM22,21h-1c-.55231,0-1,.44769-1,1v1c0,.55225.44769,1,1,1h1c.55231,0,1-.44775,1-1v-1c0-.55231-.44769-1-1-1ZM22,23h-1v-1h1v1ZM27,21h-2c-.55231,0-1,.44769-1,1v5c0,.55225.44769,1,1,1h2c.55231,0,1-.44775,1-1v-5c0-.55231-.44769-1-1-1ZM27,27h-2v-5h2v5ZM22,25h-1c-.55231,0-1,.44769-1,1v1c0,.55225.44769,1,1,1h1c.55231,0,1-.44775,1-1v-1c0-.55231-.44769-1-1-1ZM22,27h-1v-1h1v1ZM8.5,21c-.82086,0-1.54401.40265-2,1.01508-.45599-.61243-1.17914-1.01508-2-1.01508-1.37891,0-2.5,1.12109-2.5,2.5s1.12109,2.5,2.5,2.5c.82086,0,1.54401-.40265,2-1.01508.28839.38733.68365.68567,1.14478.8548-.39642.4425-.64478,1.02057-.64478,1.66028,0,1.37891,1.12109,2.5,2.5,2.5s2.48999-1.12109,2.48999-2.5c0-1.07721-.67798-1.98877-1.63477-2.33972.28986-.32355.49774-.7207.59009-1.16028h2.05469v-1h-2.05054c-.10242-.50269-.35803-.94843-.71313-1.29248l2.76367-4.34088v-1.86664c0-.0033.00098-.00629.00098-.00952l-3.61572,5.67914c-.27612-.10522-.57251-.16962-.88525-.16962ZM6,24c0,.55225-.44769,1-1,1h-1c-.55231,0-1-.44775-1-1v-1c0-.55231.44769-1,1-1h1c.55231,0,1,.44769,1,1v1ZM11,27v1c0,.55225-.44769,1-1,1h-1c-.55231,0-1-.44775-1-1v-1c0-.55231.44769-1,1-1h1c.55231,0,1,.44769,1,1ZM28.5,14h-13c-.82715,0-1.5.67285-1.5,1.5v13c0,.82715.67285,1.5,1.5,1.5h13c.82715,0,1.5-.67285,1.5-1.5v-13c0-.82715-.67285-1.5-1.5-1.5ZM29,28.5c0,.27539-.22461.5-.5.5h-13c-.27539,0-.5-.22461-.5-.5v-13c0-.27539.22461-.5.5-.5h13c.27539,0,.5.22461.5.5v13ZM16,20h12v-4h-12v4ZM17,17h10v2h-10v-2ZM18,25h-1c-.55231,0-1,.44769-1,1v1c0,.55225.44769,1,1,1h1c.55231,0,1-.44775,1-1v-1c0-.55231-.44769-1-1-1ZM18,27h-1v-1h1v1ZM17.94946,13c.0329-.16162.05054-.32874.05054-.5,0-.27197-.05457-.52899-.13513-.77429l2.76483-1.58368c.45844.52161,1.12262.85797,1.8703.85797,1.37891,0,2.48999-1.12109,2.48999-2.5s-1.11108-2.5-2.48999-2.5c-.74768,0-1.41187.33636-1.8703.85797l-2.76483-1.58368c.08057-.2453.13513-.50232.13513-.77429,0-1.37891-1.12109-2.5-2.5-2.5s-2.5,1.12109-2.5,2.5c0,.27197.05457.52899.13513.77429l-2.76483,1.58368c-.45844-.52161-1.12262-.85797-1.8703-.85797-1.37891,0-2.5,1.12109-2.5,2.5s1.12109,2.5,2.5,2.5c.74768,0,1.41187-.33636,1.8703-.85797l2.76483,1.58368c-.08057.2453-.13513.50232-.13513.77429,0,.56512.1958,1.0802.51361,1.4986.45679-.60272,1.17322-.9986,1.98639-.9986h2.44946ZM21,8c0-.55231.44769-1,1-1h1c.55231,0,1,.44769,1,1v1c0,.55225-.44769,1-1,1h-1c-.55231,0-1-.44775-1-1v-1ZM10,9c0,.55225-.44769,1-1,1h-1c-.55231,0-1-.44775-1-1v-1c0-.55231.44769-1,1-1h1c.55231,0,1,.44769,1,1v1ZM17.3703,6.14203l2.76483,1.58368c-.08057.2453-.13513.50232-.13513.77429s.05457.52899.13513.77429l-2.76483,1.58368c-.35345-.40216-.82617-.69659-1.3703-.80743v-3.10107c.54413-.11084,1.01685-.40527,1.3703-.80743ZM15,10.05054c-.54413.11084-1.01685.40527-1.3703.80743l-2.76483-1.58368c.08057-.2453.13513-.50232.13513-.77429s-.05457-.52899-.13513-.77429l2.76483-1.58368c.35345.40216.82617.69659,1.3703.80743v3.10107ZM14,5v-1c0-.55231.44769-1,1-1h1c.55231,0,1,.44769,1,1v1c0,.55225-.44769,1-1,1h-1c-.55231,0-1-.44775-1-1Z"/></svg>