<svg xmlns="http://www.w3.org/2000/svg" viewBox="0 0 16 16"><path d="M8 6V3H4.69a6 6 0 0 0-1.15 1H7v2H5v3H2.09a6 6 0 0 0 .26 1h2.995L9 12.496v1.414a6 6 0 0 0 1-.26V10h3.65a6 6 0 0 0 .26-1H13V6h-2V2.812a6 6 0 0 0-1-.462V6zm4 1v2H9v2.285l-3-2.05V7zm-4 8.969a9 9 0 0 1-.428-.011l.051-.937a7 7 0 0 0 2.597-.347l.297.89A8 8 0 0 1 8 15.968zm-2.38-.363a7.9 7.9 0 0 1-2.621-1.402l.59-.73a7 7 0 0 0 2.31 1.238zm6.688-.9-.508-.789a7 7 0 0 0 1.903-1.804l.76.55a8 8 0 0 1-2.155 2.042zm-10.689-1.93a7.9 7.9 0 0 1-1.307-2.669l.905-.247a7 7 0 0 0 1.152 2.353zm13.799-1.857-.873-.344A7 7 0 0 0 15.031 8a5 5 0 0 0-.004-.251l.938-.031q.005.142.004.287a7.9 7.9 0 0 1-.551 2.914M.032 8.144V8a8 8 0 0 1 .5-2.787l.88.328A7 7 0 0 0 .968 8v.123zM14.748 6.02a7 7 0 0 0-1.194-2.332l.74-.577a7.9 7.9 0 0 1 1.354 2.645zM2.225 3.988l-.77-.535a8 8 0 0 1 2.12-2.081l.52.779a7 7 0 0 0-1.87 1.837m10.09-1.54a7 7 0 0 0-2.333-1.196l.264-.9a7.9 7.9 0 0 1 2.645 1.356zM5.66 1.367 5.35.483A7.9 7.9 0 0 1 7.996.03a1 1 0 0 0 .29.006l-.035.936L8 .97h-.004a7 7 0 0 0-2.335.398z"/><path fill="none" d="M0 0h16v16H0z"/></svg>