<svg xmlns="http://www.w3.org/2000/svg" viewBox="0 0 32 32"><path d="M26 18v-7h-4V5.624q-.486-.283-1-.519V11h-5V7H8.09a12 12 0 0 0-1.01 1H15v3h-4v9H4.7q.18.51.405 1h6.579L19 25.442v2.163q.51-.132 1-.305V19h7.605q.128-.493.214-1zm-1 0h-6v6.272l-7-4.25V12h13zm-8.999 12q-.935-.036-1.793-.156l.137-.99c.54.075 1.104.124 1.675.146.39 0 .793-.019 1.193-.056l.092.996q-.645.06-1.304.06m3.34-.401-.237-.972a13 13 0 0 0 2.699-.99l.447.894a14 14 0 0 1-2.908 1.068zm-7.148-.162a14.4 14.4 0 0 1-2.884-1.115l.46-.887a13.4 13.4 0 0 0 2.684 1.037zm11.831-1.964-.574-.82a13 13 0 0 0 2.16-1.899l.739.674a14 14 0 0 1-2.325 2.045M7.551 27.23a13 13 0 0 1-2.264-2.125l.768-.642a12 12 0 0 0 2.088 1.961zm20.075-3.427-.83-.558a13 13 0 0 0 1.331-2.55l.932.362a14 14 0 0 1-1.433 2.746m-23.54-.386a14 14 0 0 1-1.284-2.818l.949-.313a13 13 0 0 0 1.193 2.616zm25.575-4.34-.976-.218A13 13 0 0 0 29 16l1-.06V16a14 14 0 0 1-.339 3.078zm-27.363-.481a15 15 0 0 1-.228-2.597q0-.243.008-.486l1 .031q-.008.228-.008.455a14 14 0 0 0 .212 2.423zm26.554-4.567a13 13 0 0 0-.747-2.777l.932-.365a14 14 0 0 1 .803 2.991zM3.273 13.63l-.986-.171a14.5 14.5 0 0 1 .85-2.975l.925.376a13.5 13.5 0 0 0-.789 2.77m24.003-4.106a13.2 13.2 0 0 0-1.702-2.319l.737-.677a14.2 14.2 0 0 1 1.83 2.496zm-22.361-.38-.86-.51A13.2 13.2 0 0 1 5.942 6.17l.717.697a12.2 12.2 0 0 0-1.743 2.277zm19.262-3.252a13 13 0 0 0-2.422-1.553l.443-.896a14 14 0 0 1 2.608 1.671zm-16.08-.284L7.5 4.805a13.5 13.5 0 0 1 2.687-1.546l.396.918a12.5 12.5 0 0 0-2.487 1.43zm11.878-1.99a13 13 0 0 0-2.819-.568l.088-.996a14 14 0 0 1 3.035.613zm-7.577-.076-.263-.964a16.7 16.7 0 0 1 3.033-.528l.082.997a15.7 15.7 0 0 0-2.852.495"/><path fill="none" d="M0 0h32v32H0z"/></svg>