<svg xmlns="http://www.w3.org/2000/svg" viewBox="0 0 24 24"><path d="M19 14v-4h-3V4.45a9 9 0 0 0-1-.425V10h-3V6H5.792a9 9 0 0 0-.9 1H11v3H8v5H3.36a9 9 0 0 0 .348 1h5.157L14 18.996v2.272a9 9 0 0 0 1-.293V15h5.64a9 9 0 0 0 .225-1zm-1 0h-4v3.838L9.135 15H9v-4h9zm-5.982 9.459-.002-.916a10 10 0 0 0 2.596-.344l.239.885a11 11 0 0 1-2.833.375m-1.9-.162a11 11 0 0 1-2.73-.854l.385-.83a10 10 0 0 0 2.5.782zm6.526-.869-.39-.829a10 10 0 0 0 2.207-1.411l.59.7a11 11 0 0 1-2.407 1.54m-10.91-.938a11 11 0 0 1-2.111-1.926l.7-.59a10 10 0 0 0 1.936 1.765zm14.664-1.952-.7-.589a10 10 0 0 0 1.407-2.208l.83.386a11 11 0 0 1-1.537 2.411M2.523 18.005a11 11 0 0 1-1.102-2.638l.885-.24a10 10 0 0 0 1.008 2.417zm20.065-2.671-.885-.237a10 10 0 0 0 .339-2.597 10 10 0 0 0-.162-1.81l.9-.162a11 11 0 0 1-.192 4.805zM1.087 13.489a11 11 0 0 1-.045-.989 11 11 0 0 1 .16-1.866l.902.157a10 10 0 0 0-.146 1.709q0 .458.041.906zm1.46-4.39-.86-.31a11 11 0 0 1 1.311-2.54l.752.522A10 10 0 0 0 2.548 9.1zm18.87-.094a10 10 0 0 0-1.224-2.314l.746-.53a11 11 0 0 1 1.337 2.526zM4.871 5.428l-.65-.646a11 11 0 0 1 2.258-1.75l.462.79a10 10 0 0 0-2.07 1.606m14.189-.07a10 10 0 0 0-2.085-1.584l.453-.795a11 11 0 0 1 2.276 1.729zM8.52 3.078l-.316-.86a11 11 0 0 1 2.79-.63l.081.912a10 10 0 0 0-2.555.577zm6.865-.036a10 10 0 0 0-2.56-.55l.074-.914a11 11 0 0 1 2.794.602z"/><path fill="none" d="M0 0h24v24H0z"/></svg>