<svg xmlns="http://www.w3.org/2000/svg" viewBox="0 0 32 32"><path d="M12 28v-7h1.75v-.077a1.242 1.242 0 0 1 .418-.923H12v-8h8v3.072l.1.046.591-1.554A1.229 1.229 0 0 1 21 13.12V12h7v2.322a1.232 1.232 0 0 1 .726.333l.274.272V3H3v26h13.927l-1.008-1zm9-24h7v7h-7zm-9 0h8v7h-8zm-1 24H4v-7h7zm0-8H4v-8h7zm0-9H4V4h7zm12 8a3 3 0 1 0 2.991 3 3 3 0 0 0-2.99-3zm0 5a2 2 0 1 1 2-2 2 2 0 0 1-2 2zm5.87-.129l2.13-.789-.008-2.222-2.201-.838-.319-.849.95-2.066-1.577-1.565-2.149.965-.826-.377-.789-2.13-2.221.008-.838 2.202-.848.318-2.066-.95-1.566 1.577.965 2.149-.377.826-2.13.79.008 2.22 2.202.838.318.849-.95 2.066 1.577 1.565 2.15-.965.824.377.79 2.13 2.221-.008.838-2.201.849-.319 2.066.95 1.565-1.577-.965-2.149zm-1.214 3.373l-1.81-.831-1.608.59-.758 1.993-.897.003-.691-1.864-1.555-.721-1.945.873-.636-.631.831-1.81L18 23.24l-1.995-.76-.004-.895 1.866-.692.721-1.555-.874-1.945.632-.636 1.809.832 1.608-.59.758-1.994.897-.004.69 1.866 1.556.72 1.945-.873.636.633-.831 1.808.588 1.607 1.995.76.004.896-1.866.692-.722 1.552.875 1.948z"/><path fill="none" d="M0 0h32v32H0z"/></svg>