<svg xmlns="http://www.w3.org/2000/svg" viewBox="0 0 24 24"><path d="M2.898 12.581a2.47 2.47 0 0 1 2.073-.538 2.38 2.38 0 0 1 1.42.871l.419-1.023a3.4 3.4 0 0 0-.707-.489 2.5 2.5 0 1 0-3.215-.006 3.5 3.5 0 0 0-.631.418A3.5 3.5 0 0 0 1 14.5V16h1v-1.5a2.5 2.5 0 0 1 .898-1.919M3 9.5A1.5 1.5 0 1 1 4.5 11 1.5 1.5 0 0 1 3 9.5m18.103 1.902a2.5 2.5 0 1 0-3.215-.007 3.5 3.5 0 0 0-.631.419c-.026.021-.044.05-.07.072l.412 1.006a2.41 2.41 0 0 1 2.372-.849A2.61 2.61 0 0 1 22 14.646V16h1v-1.354a3.65 3.65 0 0 0-1.897-3.244M18 9.5a1.5 1.5 0 1 1 1.5 1.5A1.5 1.5 0 0 1 18 9.5M10 9V8a1.99 1.99 0 0 1 .764-1.572 2.02 2.02 0 0 1 1.739-.367A2.08 2.08 0 0 1 14 8.119V9h1v-.88a3.17 3.17 0 0 0-1.445-2.678 2.5 2.5 0 1 0-3.1.009 3 3 0 0 0-.31.192A2.98 2.98 0 0 0 9 8v1zm.5-5.5A1.5 1.5 0 1 1 12 5a1.5 1.5 0 0 1-1.5-1.5m9.463 17.81-.926.38L14.664 11H9.336L4.963 21.69l-.926-.38L8.41 10.622A1 1 0 0 1 9.336 10h5.328a1 1 0 0 1 .925.62z"/><path fill="none" d="M0 0h24v24H0z"/></svg>