<svg xmlns="http://www.w3.org/2000/svg" viewBox="0 0 32 32"><path d="M6 16a2.99 2.99 0 0 1 2.578 1.49l.383-1.155a4 4 0 0 0-1.207-.912 3 3 0 1 0-3.508 0A3.99 3.99 0 0 0 2 19v2h1v-2a3.003 3.003 0 0 1 3-3m0-5a2 2 0 1 1-2 2 2.003 2.003 0 0 1 2-2m21.754 4.423a3 3 0 1 0-3.508 0 4 4 0 0 0-1.207.912l.384 1.155A2.99 2.99 0 0 1 29 19v2h1v-2a3.99 3.99 0 0 0-2.246-3.577M26 11a2 2 0 1 1-2 2 2.003 2.003 0 0 1 2-2m-13 2v-2a3 3 0 0 1 6 0v2h1v-2a3.99 3.99 0 0 0-2.246-3.577 3 3 0 1 0-3.508 0A3.99 3.99 0 0 0 12 11v2zm3-10a2 2 0 1 1-2 2 2.003 2.003 0 0 1 2-2m9.975 25.343-.95.314-.052-.157-4.372-13.158a.5.5 0 0 0-.475-.342h-8.252a.5.5 0 0 0-.475.343L7.027 28.5l-.052.157-.95-.314 4.425-13.316A1.5 1.5 0 0 1 11.874 14h8.252a1.5 1.5 0 0 1 1.424 1.026z"/><path fill="none" d="M0 0h32v32H0z"/></svg>