<svg xmlns="http://www.w3.org/2000/svg" viewBox="0 0 16 16"><path d="M6.754 12.528v-.968l-1.792 1.792-1.413-1.415 8.007-8.008 1.414 1.415-1.406 1.406h.968q.199.001.383.062l1.361-1.362 1.445-1.443c.391-.39.361-.993-.03-1.385l-1.413-1.414c-.392-.39-.994-.42-1.385-.03L2.841 11.23l-1.756 4.097a.371.371 0 0 0 .488.487L5.67 14.06l1.147-1.147a1.2 1.2 0 0 1-.062-.384zm6.6-10.396c.12-.12.314-.12.433 0l.981.98a.307.307 0 0 1 0 .434l-1.09 1.09-1.414-1.414zM2.624 14.276l.554-1.294.74.74zM16 12.558v-1.117l-1.217-.47a3 3 0 0 0-.112-.263l.535-1.163-.771-.765-1.194.527a3 3 0 0 0-.265-.107L12.532 8h-1.087l-.47 1.22a3 3 0 0 0-.264.113l-1.163-.535-.764.771.526 1.194a3 3 0 0 0-.106.265l-1.2.444v1.056l1.2.444q.047.136.106.265l-.526 1.194.764.771 1.163-.535q.13.063.263.113l.471 1.22h1.087l.444-1.2q.136-.047.265-.107l1.194.527.77-.765-.534-1.163q.063-.128.112-.262zm-1.817-.164c-.057.316-.18.608-.355.862l.365.793-.161.16-.768-.387a2.2 2.2 0 0 1-.86.36l-.302.818h-.227l-.27-.817a2.2 2.2 0 0 1-.861-.354l-.793.364-.159-.16.385-.768a2.2 2.2 0 0 1-.358-.86L9 12.103v-.204l.818-.304c.058-.315.182-.606.358-.859l-.385-.768.16-.16.792.364c.254-.174.546-.298.862-.354l.27-.817h.226l.302.819c.315.058.607.183.86.359l.768-.386.161.16-.365.792c.175.254.298.546.355.862l.815.27v.248zM13 12a1 1 0 1 1-2 0 1 1 0 0 1 2 0"/><path fill="none" d="M0 0h16v16H0z"/></svg>