<?xml version="1.0" encoding="UTF-8"?><svg id="icons" xmlns="http://www.w3.org/2000/svg" viewBox="0 0 32 32"><defs><style>.cls-1{fill:none;}.cls-1,.cls-2{stroke-width:0px;}</style></defs><rect class="cls-1" width="32" height="32"/><path class="cls-2" d="M27.5,13.09998c-1.70648,0-3.10602,1.26129-3.34961,2.90002h-15.30078c-.24359-1.63873-1.64313-2.90002-3.34961-2.90002-1.87775,0-3.40002,1.52222-3.40002,3.40002s1.52228,3.39996,3.40002,3.39996c1.70648,0,3.10608-1.26129,3.34961-2.89996h15.30078c.24353,1.63867,1.64313,2.89996,3.34961,2.89996,1.87775,0,3.40002-1.52222,3.40002-3.39996s-1.52228-3.40002-3.40002-3.40002ZM5.5,18.90039c-1.32324,0-2.40039-1.07715-2.40039-2.40039s1.07715-2.40039,2.40039-2.40039,2.40039,1.07715,2.40039,2.40039-1.07715,2.40039-2.40039,2.40039ZM27.5,18.90039c-1.32324,0-2.40039-1.07715-2.40039-2.40039s1.07715-2.40039,2.40039-2.40039,2.40039,1.07715,2.40039,2.40039-1.07715,2.40039-2.40039,2.40039Z"/></svg>