<?xml version="1.0" encoding="UTF-8"?><svg id="icons" xmlns="http://www.w3.org/2000/svg" viewBox="0 0 24 24"><defs><style>.cls-1{fill:none;}.cls-1,.cls-2{stroke-width:0px;}</style></defs><rect class="cls-1" width="24" height="24"/><path class="cls-2" d="M20.5,10.09998c-1.15381,0-2.11591.81482-2.34619,1.90002H6.84619c-.23029-1.08521-1.19238-1.90002-2.34619-1.90002-1.3255,0-2.40002,1.07452-2.40002,2.40002s1.07452,2.39996,2.40002,2.39996c1.15381,0,2.11591-.81482,2.34619-1.89996h11.30762c.23029,1.08514,1.19238,1.89996,2.34619,1.89996,1.3255,0,2.40002-1.07452,2.40002-2.39996s-1.07452-2.40002-2.40002-2.40002ZM4.5,14c-.82741,0-1.5-.67259-1.5-1.5s.67259-1.5,1.5-1.5,1.5.67259,1.5,1.5-.67259,1.5-1.5,1.5ZM20.5,14c-.82741,0-1.5-.67259-1.5-1.5s.67259-1.5,1.5-1.5,1.5.67259,1.5,1.5-.67259,1.5-1.5,1.5Z"/></svg>