<?xml version="1.0" encoding="UTF-8"?><svg id="icons" xmlns="http://www.w3.org/2000/svg" viewBox="0 0 24 24"><defs><style>.cls-1{fill:none;}.cls-2{fill:#231f20;}</style></defs><rect class="cls-1" width="24" height="24"/><path class="cls-2" d="M19.11238,9.15527c.00684-.02832.34352-2.7998-.25902-3.40234-.52734-.52734-1.27719-.54785-3.01059-.51465-.78809.01465-1.60156.0293-1.99707-.08203-.35547-.09473-.71094-.13672-1.02441-.17383-.28613-.03418-.55566-.06641-.70215-.12695-.18848-.07812-.40039-.11523-.60547-.15137-.26855-.04785-.54688-.09668-.72559-.22949-.67578-.49902-1.54688-.46777-2.31836-.44336-.16992.00488-.33887.01074-.50781.01074-2.20801-.00977-2.80078.81641-2.94434,1.17285-.77441,1.93262-.8125,3.45898-.12109,4.9502.14941.31738.14941.47559.15137.78906.00098.18262.00195.39062.03027.66211.10645,1.01562.22754,2.16699,1.24414,3.89062,1.41797,2.4043,3.15918,3.57324,5.32324,3.57324.83301,0,1.76074.2334,2.65723.45898.85547.21582,1.72656.43457,2.51465.43457.66406,0,1.26953-.15625,1.75586-.60254,1.09277-1.00488,1.21199-3.2168.56453-7.16797-.18359-1.14941-.2373-1.93848-.02539-3.04785ZM17.89648,18.63477c-.66309.61133-1.9668.28418-3.34961-.06543-.95605-.24023-1.94434-.48926-2.90137-.48926-1.7793,0-3.23926-1.00781-4.46191-3.08105-.90625-1.53711-1.00586-2.48438-1.11133-3.4873-.02344-.22949-.02344-.40723-.02441-.5625-.00195-.35547-.00293-.69141-.24512-1.20703-.4043-.87109-.70215-2.0459.14258-4.15527.06055-.15137.53125-.54492,1.95312-.54492.19922.00098.40137-.00488.60449-.01172.66699-.02246,1.29492-.04395,1.69043.24805.36719.27246.7998.34863,1.14648.41016.15918.02832.30859.05469.39648.09082.27344.11328.61035.15332.96777.19629.29395.03418.59766.07031.87793.14551.53027.14844,1.37988.13184,2.2793.11719.83984-.01562,1.87387-.04004,2.23617.18457.06934.33398.30488,1.52344.07637,2.52734-.24219,1.26465-.18164,2.1748.0166,3.41309.56348,3.43945.49117,5.5498-.29398,6.27148ZM22.97,6.56348c-.05762-3.35742-.70242-4.54398-5.05887-4.54398-1.66895-.00293-4.2207-.01172-4.40918-.02246-1.70801-.11719-2.02148-.10934-2.3252-.30562-.63379-.40918-1.26172-.65918-4.625-.68555-2.64648,0-3.56055.88867-3.86133,1.63574-.05469.13477-1.30859,3.36523-.27441,9.11523.14746.81836.00586,1.44727-.14453,2.11328-.22266.98926-.45312,2.01172.29492,3.50293,2.89941,5.77246,7.69434,5.05273,10.87207,4.57324.73535-.11035,1.37012-.20605,1.87012-.20605.3877,0,.84863.10742,1.33691.2207.625.14453,1.33398.30957,2.11133.30957.73633,0,2.09668-.24316,2.67969-.76562,1.61426-1.44629,1.57937-2.63281,1.54617-10.35059-.00586-1.31934-.0127-2.83496-.0127-4.59082ZM20.76855,20.76074c-.25586.22949-1.23438.50977-2.01172.50977-.66309,0-1.28418-.14453-1.88574-.28418-.54492-.12598-1.06055-.24609-1.5625-.24609-.5752,0-1.24414.10059-2.01953.21777-3.05957.46191-7.25391,1.09375-9.82812-4.03418-.58887-1.1709-.42285-1.90527-.21387-2.83398.1582-.7002.12691-1.49316-.05668-2.51074-.9834-5.46973.20605-8.53613.21777-8.56543.25781-.64062,1.53715-1.05781,3.13969-1.05781,3.31152.02539,3.70508.33027,4.08691.57539.48828.31543.97461.30883,2.80078.43383.24512.01562,3.76953.02344,4.47461.02441,3.89648,0,4.04297.82594,4.08984,3.58277,0,1.74902.00684,3.26562.0127,4.58691.03223,7.49121.03613,8.4541-1.24414,9.60156ZM15.39844,8.2998c-.10449-.04883-.20801-.10938-.32031-.1748-.43164-.25098-1.02246-.59473-2.10059-.69531-.43652-.04102-.80664-.14746-1.16406-.25-.72949-.20898-1.48633-.4248-2.58301-.01953-.40723.14941-.72852.52148-.95605,1.10547-.28711.7373-.4248,1.9082-.1543,2.43066.24219.42188.48242.66602.6748.86133.2207.22461.38086.38672.52539.79395.0918.25781.14062.51465.19238.78613.11816.62109.25195,1.3252.94336,2.03125.5459.55762,1.29297.79004,2.02148.79004.50879,0,1.00781-.11328,1.42285-.30957,1.15527-.54785,2.16016-2.62793,2.52051-4.30859.30469-1.41895-.40137-2.74805-1.02246-3.04102ZM15.44238,11.13184c-.37598,1.75781-1.33984,3.31543-1.96973,3.61328-.68262.32227-1.72949.30762-2.30176-.27539-.48047-.49023-.56641-.94434-.67578-1.51855-.05664-.29688-.11523-.60352-.23242-.93457-.21973-.61621-.50391-.90527-.75488-1.16016-.17578-.17871-.34277-.34766-.50488-.62793-.06934-.18555-.04297-1.0752.25586-1.72461.11816-.25586.24023-.37695.31641-.40527.32715-.12012.60254-.16797.86133-.16797.36816,0,.70215.09668,1.10156.21094.38281.10938.81641.2334,1.34668.28418.8584.0791,1.30078.33691,1.69043.56348.13965.08105.26953.15527.39355.21387.18359.1084.69043.9209.47363,1.92871Z"/></svg>