<?xml version="1.0" encoding="UTF-8"?><svg id="icons" xmlns="http://www.w3.org/2000/svg" viewBox="0 0 32 32"><defs><style>.cls-1{fill:none;}.cls-2{fill:#231f20;}</style></defs><rect class="cls-1" width="32" height="32"/><path class="cls-2" d="M25.09277,12.52832l.09863-.42188c.29395-1.23828.62598-2.6416-.00195-3.58887-.27344-.41211-.96777-.47559-3.82031-.57031-1.20801-.04004-2.57812-.08496-3.0332-.21289-.43164-.11523-.86523-.16699-1.24902-.21191-.36035-.04297-.70117-.07398-.89551-.15406-1.08008-.44727-1.49121-.72559-1.7627-.90918-.63672-.43066-.74023-.43164-3.39355-.45508-2.61523,0-3.28418.95898-3.4502,1.37305-.00767.01885-1.32316,3.62349-.17871,6.10035.30371.65527.29004.79395.26074,1.09863-.02148.21582-.05078.5127,0,1.00391.13086,1.24023.2793,2.64648,1.51953,4.74902,1.72559,2.92676,3.84082,4.34961,6.46582,4.34961,1.12305,0,2.33105.29297,3.49902.57617,1.09863.26562,2.16406.52441,3.11133.52441.8125,0,1.53906-.19043,2.12207-.72949,1.28613-1.18848,1.52832-3.78809.78516-8.42969-.23926-1.46387-.37402-2.54004-.07715-4.0918ZM23.70605,24.31543c-.87012.80371-2.4707.41504-4.31836-.0332-1.22559-.29688-2.49316-.60352-3.73535-.60352-2.24023,0-4.07422-1.26172-5.60449-3.85742-1.12988-1.91602-1.25391-3.09668-1.38672-4.34668-.04004-.38867-.01855-.60742.00098-.80078.04297-.44336.0498-.75879-.34766-1.61621-.81836-1.77051-.22754-4.24391.19824-5.30836.10352-.25781.76465-.77512,2.51855-.77512,2.4502.02148,2.4502.05148,2.83691.3132.30566.20703.7666.50855,1.94043.99488.32227.13379.72949.18164,1.16016.2334.36719.04297.74609.08789,1.10254.18359.56641.1582,1.87695.20215,3.26465.24805,1.06348.03516,2.64062.08691,3.07129.21094.31055.61035.0459,1.72656-.18848,2.71777l-.10449.44727c-.33203,1.73047-.18848,2.88867.06836,4.45703.66602,4.1582.50977,6.62305-.47656,7.53516ZM29.97098,15.38965c-.01367-1.92285-.0293-4.19406-.0293-6.83469-.14844-4.66016-2.05789-4.57965-9.26785-4.53766-.85254.00586-1.78613.0127-2.77246.01367-2.52539-.17285-2.9668-.6377-3.29004-.97754-.21289-.22363-.4541-.47656-.97852-.57617-1.89062-.3623-3.24805-.42969-4.33008-.44727-1.18945-.00488-5.12598.10254-5.85938,1.92578-.07617.18848-.10723.59332-.33086,1.9068l-.0625.3323v.00293c-.00879.05078-.13281,8.8432.10352,10.03559.10059.50879.01055,1.04492-.03535,1.66699-.09961,1.3457-.22363,3.02051.99023,5.43848,1.91309,3.80859,4.97461,5.66113,9.38184,5.66113l.74512-.0293c1.32324-.0498,1.35059-.00273,2.88379-.25078.60352-.09766,1.28223-.06855,1.93848.00859.42871.0498.83301.09668,1.2168.09668.92871,0,1.65723.31445,2.3623.61816.66504.28613,1.29297.55664,2.0293.55664,1.14258,0,2.74414-.92383,3.32031-1.44043,2.09375-1.87598,2.0491-4.04395,1.98465-13.16992ZM27.34668,27.81543c-.45312.40625-1.83887,1.18457-2.65234,1.18457-.53027,0-1.04199-.2207-1.63379-.47559-.76074-.32715-1.62306-.64922-2.75781-.64922-.3252,0-.70215-.04395-1.10156-.09082-.45117-.05176-.94043-.10938-1.43262-.10938-.26172,0-.52441.0166-.78125.05859q-1.48633.24023-2.76172.28809l-.72559.02832c-3.97266,0-6.74316-1.72188-8.46875-5.16035-1.09082-2.1709-1.08242-3.62891-.9877-4.91602.0498-.66504.0957-1.29297-.03125-1.93359-.1875-.94922-.09816-9.08637-.07277-9.70453l.05664-.30496c.14258-.83691.27734-1.62793.32324-1.7627.35254-.875,2.79484-1.32324,4.99992-1.29785,1.03516.0166,2.33789.08105,4.15527.42969.20898.04004.27246.10547.44043.2832.54492.57227,1.25586,1.13156,3.98047,1.31711,1.02344,0,1.95801-.00684,2.81348-.0127,7.48242-.04395,8.17871.0159,8.29102,3.58328,0,2.62793.01562,4.90109.0293,6.82688.06348,8.97461.07617,10.8418-1.68262,12.41797ZM20.55957,11.28027c-.77051-.36035-1.47754-.43262-2.29492-.5166-.69434-.07129-1.48145-.15234-2.47559-.43945-1.71484-.48242-2.87012-.41312-3.63184.12594-.85059.60254-1.03125,1.67484-1.09668,2.6807-.02734.40137-.05273.7793.13965,1.18848.05664.20801.15234.55469.44824.83008,1.02637.9541,1.14355,1.66406,1.28027,2.48438.12695.7627.27051,1.62598,1.20312,2.5791.69922.71289,1.48047.77004,2.2002.77004.10156,0,.59375-.00586.59375-.00586,2.70312,0,4.33398-3.12062,4.90918-5.81008.39062-1.81836-.49316-3.51562-1.27539-3.88672ZM20.85645,14.95898v.00098c-.40039,1.87207-1.67871,5.04004-3.93066,5.04004l-.77047.00733c-.50748.00483-1.01167-.17574-1.36036-.54448-.6661-.70441-.76557-1.30126-.87991-1.98922-.14551-.875-.30957-1.86621-1.58496-3.05371-.08887-.08203-.12988-.23145-.16602-.3623-.02832-.10449-.05566-.20312-.10059-.28027-.03906-.0791-.01855-.37793-.00488-.57715.07031-1.0957.27344-1.64457.67676-1.9307.23145-.16406.55762-.24609.98242-.24609.47363,0,1.07031.10156,1.79785.30566,1.07617.31055,1.91016.35648,2.64648.43168.75781.07812,1.35645.13965,1.97168.42773.29785.14062,1.0293,1.34863.72266,2.77051Z"/></svg>