<?xml version="1.0" encoding="UTF-8"?><svg id="icons" xmlns="http://www.w3.org/2000/svg" viewBox="0 0 16 16"><defs><style>.cls-1{fill:none;}.cls-2{fill:#231f20;}</style></defs><rect class="cls-1" width="16" height="16"/><path class="cls-2" d="M.92969,12.25c1.21582,2.4209,3.07422,3.64844,5.54883,3.64844h.00098c.07227-.00293.29492-.0293.60742-.06836.79297-.09961,2.27051-.28516,3.1748-.28516.21387,0,.54785.07031.90234.14355.50977.10645,1.10938.23242,1.70996.23242.65039,0,1.30078-.14746,1.83594-.62695,1.33789-1.19824,1.30496-1.79199,1.27273-7.46973-.00586-1.05859.0173-2.30078.0134-3.82422-.10059-.8584-1.43262-2.90527-2.48047-3.00195-.2002-.01855-2.54004-.18555-2.76758-.21289-.05566-.00684-.19531-.0332-.40234-.07227C4.29102-.40918,1.1948-.20117.56395,1.36914-.01906,2.82324-.01125,3.47461.00926,5.2168c.00488.39355.00074.84863.00367,1.44336.0332.29785.11035.60645.19238.92578.04883.18945.09863.38281.1377.58105.04785.24121.02539.51855,0,.83984-.05957.74902-.15063,1.77344.58668,3.24316ZM1.47168,1.74219c.14648-.3623,1.20703-1.43359,8.69141-.0459.23926.04395.40039.07324.46484.08105.23535.02832.99316.08301,1.67871.13281.47852.03418.9209.06543,1.11621.08398.4043.05664,1.5127,1.54492,1.57715,2.06445,0,1.4668.00684,2.71094.0127,3.77051.03125,5.60449-.00488,5.88547-.9707,6.7507-.65234.58105-1.77344.34766-2.67383.16016-.42383-.08887-.79004-.16504-1.10645-.16504-.9668,0-2.48438.16043-3.29883.26297-.27051.0332-.46289.05859-.50586.06152-2.04199,0-3.60156-1.04199-4.63281-3.09863-.6123-1.21973-.5498-2.01367-.49414-2.71484.03027-.37891.06859-.73633-.0066-1.11426-.04297-.21582-.09668-.42773-.14941-.63379-.07031-.27246-.13867-.53418-.16406-.73242,0-.54492-.01586-1.00391-.02074-1.40137-.02051-1.72949-.02637-2.19336.48242-3.46191ZM2.73242,7.78223c.07812.75391.16699,1.60742.95117,2.90527,1.60059,2.64062,3.30371,2.68652,4.80566,2.72559.58496.01562,1.1377.03027,1.68555.1875.3418.09668.89453.19922,1.44824.19922.51172,0,1.02539-.08789,1.375-.34961l.00195-.00098c1.17969-.88672,1.12793-1.19922.79102-3.23828-.13574-.82227-.19434-1.31543.07812-2.69727.21094-1.08301-.13379-2.88965-.83789-3.4541-1.33105-1.06445-1.55078-1.10449-2.90137-1.07129-.21875.00488-1.01074.0127-1.01074.0127-.58496.00781-.61816.00488-1.74316-.45508-.7373-.30078-1.57324-.5916-2.12598-.5916-1.22656,0-2.30664.4541-2.75,1.15625-.22266.35254-.88965,1.63086-.11621,3.25977.25195.53125.29688.91191.34863,1.41191ZM3.3457,3.64277c.21678-.34277.94043-.68945,1.9043-.68945.35645,0,1.19434.2918,1.75684.52129,1.25195.5127,1.39453.53906,2.12012.52539l.23145-.00098c.31055-.00098.57031-.00684.79395-.0127q1.15723-.02734,2.25391.85352c.29883.23926.65623,1.58203.48145,2.48047-.30469,1.54492-.22949,2.16602-.08301,3.05664q.29004,1.75-.40625,2.27246c-.27637.20312-1.20703.19727-1.9502-.01172-.66797-.19141-1.31055-.20801-1.93164-.22461-1.42773-.03809-2.66016-.07031-3.97754-2.24414-.66797-1.10547-.7373-1.77832-.81152-2.49121-.05664-.54102-.11426-1.05156-.44043-1.73711-.55371-1.16699-.09473-2.05371.05859-2.29785ZM5.59863,7.74316c.19531.11621.33691.2002.4707.51172.06738.15527.09863.30566.13184.4502.08887.38672.19824.86719.75098,1.33203.49316.41699,1.05566.62891,1.6416.62891.31348,0,.63281-.06055.95117-.18262,1.11426-.43457,1.71289-2.62695,1.77832-2.875.25781-.99609-.34473-1.74023-.83203-1.92871-.49609-.19336-.86035-.22363-1.24512-.25488-.32129-.02637-.68555-.05664-1.23633-.18457-.66016-.15723-1.1875-.25-1.96484-.01562h-.00098c-.53809.16406-.92578.49902-1.09277.94434-.13574.36426-.09961.76953.09961,1.08594.16309.25781.37695.38574.54785.48828ZM5.8877,6.51855c.05566-.14648.21387-.2666.44727-.33691.52246-.1582.84082-.1123,1.44531.03223.62598.14453,1.0459.17969,1.38281.20703.36426.03027.60449.0498.96387.19043.05859.02637.34961.27832.22852.74512-.30176,1.15723-.85059,2.06934-1.1709,2.19434-.56445.21387-1.11523.12109-1.58789-.27832-.29688-.25-.34375-.45312-.4209-.79004-.0459-.20215-.0957-.40918-.18945-.62402-.25977-.60645-.62988-.82812-.87402-.97363-.12305-.07324-.18262-.11133-.21582-.16309-.02539-.04102-.04102-.11523-.00879-.20312Z"/></svg>