<?xml version="1.0" encoding="UTF-8"?><svg id="icons" xmlns="http://www.w3.org/2000/svg" viewBox="0 0 32 32"><defs><style>.cls-1{fill:none;}.cls-1,.cls-2{stroke-width:0px;}.cls-2{fill:#000;}</style></defs><rect class="cls-1" width="32" height="32"/><path class="cls-2" d="M30,27c-2.04986,0-25.96136,0-28,0v-1h28v1ZM30,5H2s0,1,0,1c2.03864,0,25.95014,0,28,0v-1ZM17,8H2s0,1,0,1c2.03864,0,12.95014,0,15,0v-1ZM17,11H2s0,1,0,1c2.03864,0,12.95014,0,15,0v-1ZM17,14H2s0,1,0,1c2.03864,0,12.95014,0,15,0v-1ZM17,17H2s0,1,0,1c2.03864,0,12.95014,0,15,0v-1ZM17,20H2s0,1,0,1c2.03864,0,12.95014,0,15,0v-1ZM17,23H2s0,1,0,1c2.03864,0,12.95014,0,15,0v-1ZM30,8v16h-11V8h11ZM20,23h9s0-14,0-14h-9s0,14,0,14Z"/></svg>