<svg xmlns="http://www.w3.org/2000/svg" viewBox="0 0 32 32"><path d="M26.824 5.93c-.41-.443-.841-.865-1.304-1.254l-.003-.004a14.787 14.787 0 0 0-2.65-1.777l-.065-.03c-.148-.077-.3-.145-.45-.218-.244-.115-.487-.235-.738-.337-.066-.028-.136-.049-.204-.075-.084-.034-.17-.062-.254-.093l-.003-.002c-.283-.105-.564-.213-.854-.3-.136-.042-.276-.07-.413-.107-.32-.087-.637-.177-.966-.242-.232-.047-.471-.073-.707-.108-.243-.036-.481-.083-.727-.108a15.042 15.042 0 0 0-2.972 0c-.244.024-.479.07-.718.107-.24.036-.482.062-.717.109-.329.066-.647.155-.966.242-.137.038-.277.066-.413.107-.27.082-.53.182-.794.28-.105.038-.212.074-.316.115-.068.026-.138.047-.205.075-.406.167-.8.354-1.186.554-.023.012-.045.02-.067.032a14.84 14.84 0 0 0-3.345 2.41h-.001c-.258.246-.5.503-.74.766l-.001.002C2.663 8.701 1.2 12.175 1.2 16c0 1.058.116 2.089.326 3.085l.01.112c.182.818.444 1.616.763 2.39.056.136.116.27.175.404.102.229.211.452.325.676.1.196.199.393.307.585l.015.029s.003 0 .004.002C5.667 27.768 10.476 30.8 16 30.8c8.174 0 14.8-6.626 14.8-14.8 0-3.895-1.516-7.428-3.976-10.07zm-7.107 23.396a51.7 51.7 0 0 0 .388-4.185 18.085 18.085 0 0 0 4.241-1.514c-.298 1.541-.75 2.997-1.348 4.305a13.726 13.726 0 0 1-3.281 1.394zm.436-5.094a52.536 52.536 0 0 0-.055-5.252c1.696-.308 3.25-.804 4.598-1.443.043.567.072 1.141.072 1.727 0 1.153-.092 2.29-.256 3.394a17.396 17.396 0 0 1-4.359 1.574zM8.78 27.797c-.578-1.296-1.015-2.735-1.303-4.257a18.083 18.083 0 0 0 4.41 1.6c.076 1.429.205 2.826.389 4.183a13.722 13.722 0 0 1-3.496-1.526zM7.313 22.56a23.322 23.322 0 0 1-.24-3.297c0-.61.031-1.208.079-1.798 1.38.673 2.985 1.193 4.741 1.512a52.569 52.569 0 0 0-.055 5.252 17.365 17.365 0 0 1-4.525-1.67zM5.365 7.14c.036.525.192 1.034.475 1.514a14.08 14.08 0 0 0-2.946 4.22c-.088-.153-.18-.305-.253-.461A13.81 13.81 0 0 1 5.365 7.14zm23.993 5.272c-.047.104-.11.203-.166.305a14 14 0 0 0-2.979-4.166c.247-.45.388-.924.42-1.413a13.793 13.793 0 0 1 2.725 5.274zm.15.578c.065.293.112.591.158.891-.08-.222-.174-.434-.264-.65.035-.08.075-.16.106-.24zM11.703 5.02c0-.086.032-.167.056-.249.792-.073 1.538-.11 2.216-.097a14.63 14.63 0 0 0-2.241.48c-.007-.045-.03-.088-.03-.135zm-.41-.922c-.9.051-1.854.155-2.85.31a13.804 13.804 0 0 1 2.821-1.405c.403.107.795.217 1.167.332-.466.217-.853.475-1.137.763zm1.891-.51c.555.197 1.069.405 1.53.626a15.05 15.05 0 0 0-2.413-.151 3.6 3.6 0 0 1 .883-.476zm7.113 1.431c0 .03-.017.058-.02.087a14.913 14.913 0 0 0-2.029-.424c.61-.02 1.277.002 1.984.056.032.092.065.184.065.281zm-8.643 1.712c.59.435 1.433.774 2.423.968-.44 1.117-.823 2.39-1.144 3.775-1.483-.228-2.814-.615-3.907-1.12.726-1.465 1.618-2.7 2.628-3.623zm4.828-1.792c1.046.112 2.052.526 2.981 1.202-.485.295-1.151.525-1.931.658a11.748 11.748 0 0 0-1.05-1.86zm.445 1.943a9.29 9.29 0 0 1-1.861-.001c.287-.733.598-1.371.93-1.91.331.539.644 1.177.93 1.911zm-2.467-.084c-.823-.141-1.529-.387-2.017-.708.957-.682 1.997-1.082 3.077-1.164a11.56 11.56 0 0 0-1.06 1.872zm.274 1.006c.405.05.829.08 1.266.08.435 0 .855-.03 1.259-.08.37 1.113.695 2.381.964 3.778a20.555 20.555 0 0 1-4.453-.002 29.76 29.76 0 0 1 .964-3.776zm3.181-.103c.944-.185 1.751-.502 2.337-.906.996.927 1.875 2.158 2.59 3.618-1.07.476-2.354.845-3.783 1.063-.32-1.386-.704-2.658-1.144-3.775zm2.802-1.294c.156-.16.28-.328.368-.504 1.577.66 3 1.62 4.21 2.81-.418.493-1.004.944-1.722 1.34-.788-1.474-1.755-2.714-2.856-3.646zm-.804-.607a8.2 8.2 0 0 0-1.018-.593c.414.092.822.201 1.22.332a1.422 1.422 0 0 1-.202.26zm-.29-2.44c.37-.118.764-.228 1.168-.336.928.343 1.809.778 2.631 1.302a27.899 27.899 0 0 0-2.738-.251 3.925 3.925 0 0 0-1.061-.715zm.074.702c-.872.009-1.678.074-2.39.21.472-.233.998-.454 1.574-.66.323.13.595.28.816.45zm-3.563.417c-.003-.004-.008-.002-.012-.006-.006-.006-.005-.016-.013-.021a.182.182 0 0 0-.107-.036c-.003 0-.004-.003-.007-.003-.02 0-.038.013-.057.019a10.544 10.544 0 0 0-1.849-1.115A8.806 8.806 0 0 1 16 3.11c.725 0 1.4.087 2 .229-.723.352-1.35.733-1.866 1.14zm-3.47.884a8.113 8.113 0 0 0-.644.37c-.044-.048-.069-.1-.104-.15.245-.082.497-.152.749-.22zm-1.455.967c-1.119.927-2.106 2.173-2.905 3.657-.627-.358-1.146-.759-1.534-1.192a13.355 13.355 0 0 1 4.17-2.843c.071.13.16.257.269.378zm-3.25 4.35c-.763 1.594-1.322 3.421-1.616 5.401-1.126-.643-2.07-1.396-2.773-2.231a13.811 13.811 0 0 1 2.734-4.555c.428.505.986.97 1.655 1.384zm.726.407c1.142.58 2.518 1.03 4.052 1.295a45.972 45.972 0 0 0-.782 5.65c-1.746-.31-3.338-.822-4.715-1.483.242-1.998.745-3.849 1.445-5.462zm4.92 1.42c.77.095 1.57.151 2.395.151.822 0 1.619-.055 2.388-.15.296 1.75.507 3.665.624 5.68-.97.126-1.976.2-3.012.2a23.49 23.49 0 0 1-3.02-.201 52.88 52.88 0 0 1 .624-5.68zm5.65-.123c1.48-.256 2.812-.683 3.93-1.235.694 1.62 1.188 3.476 1.422 5.476-1.343.626-2.887 1.11-4.57 1.41a46.13 46.13 0 0 0-.782-5.651zm4.664-1.632c.761-.456 1.393-.973 1.852-1.543a13.796 13.796 0 0 1 2.763 4.507c-.741.926-1.769 1.756-3.02 2.45-.286-1.982-.838-3.814-1.595-5.414zm2.107-3.823c0 .405-.118.794-.316 1.17a14.32 14.32 0 0 0-4.476-2.664c.007-.059.018-.117.018-.177 0-.148-.031-.293-.078-.434 1.18.134 2.461.355 3.816.659.338.29.66.594.97.915.04.174.066.351.066.531zm-6.409-4.28c-.314.116-.615.239-.906.364A9.414 9.414 0 0 0 16 2.633c-.961 0-1.858.13-2.633.355a20.943 20.943 0 0 0-.908-.36A13.854 13.854 0 0 1 16 2.156c1.253 0 2.463.182 3.617.494zM6.876 5.605a38.26 38.26 0 0 1 3.934-.728c-.036.124-.062.25-.062.381 0 .081.01.16.025.24a14.4 14.4 0 0 0-4.428 2.704c-.235-.406-.37-.831-.37-1.273 0-.18.024-.357.064-.531.267-.277.548-.54.837-.793zm-4.206 7.79c-.17.416-.32.84-.448 1.273.055-.57.15-1.13.27-1.678.053.136.114.27.178.405zm.05 5.23c0-1.435.218-2.82.618-4.124.701.93 1.685 1.77 2.897 2.477-.08.76-.133 1.532-.133 2.325 0 .892.058 1.771.16 2.633-1.42-.921-2.625-2.035-3.54-3.295l-.001-.015zm10.153 3.2c0-.91.02-1.808.057-2.69a23.26 23.26 0 0 0 3.07.207 23.16 23.16 0 0 0 3.062-.206c.038.883.058 1.78.058 2.69 0 .881-.024 1.75-.06 2.61-.99.158-2.01.249-3.06.249-1.053 0-2.076-.091-3.068-.25a64.05 64.05 0 0 1-.06-2.61zm12.742-4.768c1.338-.757 2.42-1.668 3.152-2.688.409 1.285.637 2.651.656 4.07-.968 1.395-2.284 2.62-3.855 3.609.11-.896.172-1.812.172-2.745 0-.765-.05-1.51-.125-2.246zM2.83 20.261c-.017-.14-.04-.281-.052-.422.976 1.163 2.205 2.213 3.623 3.09a19.265 19.265 0 0 0 1.121 4 13.853 13.853 0 0 1-4.692-6.668zm10.55 9.329a55.06 55.06 0 0 1-.401-4.24c.979.158 1.986.25 3.021.25 1.032 0 2.037-.09 3.014-.25a54.659 54.659 0 0 1-.402 4.242c-.847.16-1.718.253-2.612.253-.897 0-1.77-.092-2.62-.255zm10.88-2.497a19.002 19.002 0 0 0 1.168-4.06c1.546-.931 2.87-2.067 3.902-3.33a13.84 13.84 0 0 1-5.07 7.39z"/><path fill="none" d="M0 0h32v32H0z"/></svg>