<svg xmlns="http://www.w3.org/2000/svg" viewBox="0 0 16 16"><path d="M13.704 2.693a8 8 0 0 0-.686-.661l-.002-.002a8 8 0 0 0-1.397-.937q-.019-.008-.033-.016l-.238-.114c-.13-.061-.257-.124-.39-.178l-.106-.04-.136-.049c-.148-.055-.298-.112-.45-.159-.072-.023-.146-.036-.218-.056C9.88.435 9.712.388 9.54.353 9.418.328 9.29.315 9.165.296 9.038.278 8.912.253 8.784.24a8 8 0 0 0-1.568 0c-.128.013-.252.038-.378.057-.125.02-.253.032-.377.057-.173.036-.341.082-.51.128-.072.02-.146.034-.217.056-.142.043-.28.096-.419.148l-.167.06-.107.04a8 8 0 0 0-.626.292l-.034.017a7.9 7.9 0 0 0-2.154 1.673A7.76 7.76 0 0 0 .372 9.625l.005.06c.096.43.234.852.403 1.26l.091.212q.081.18.173.356.076.157.16.308l.008.016.002.001A7.79 7.79 0 0 0 8 15.8 7.8 7.8 0 0 0 15.8 8a7.76 7.76 0 0 0-2.096-5.307M9.96 15.024a27 27 0 0 0 .204-2.206 9.6 9.6 0 0 0 2.236-.798c-.157.812-.395 1.58-.711 2.268a7.3 7.3 0 0 1-1.73.736zm.23-2.686a29 29 0 0 0-.029-2.767 9.8 9.8 0 0 0 2.423-.76c.023.297.039.6.039.909 0 .607-.05 1.207-.136 1.789a9.2 9.2 0 0 1-2.297.829m-5.995 1.88a10 10 0 0 1-.685-2.245c.706.37 1.49.656 2.323.844q.06 1.131.205 2.204a7.3 7.3 0 0 1-1.843-.803m-.772-2.76a11.5 11.5 0 0 1-.085-2.685 9.7 9.7 0 0 0 2.499.797 28 28 0 0 0-.03 2.767 9.1 9.1 0 0 1-2.384-.88zM2.396 3.33c.018.276.1.545.25.798a7.5 7.5 0 0 0-1.554 2.224c-.046-.081-.094-.161-.133-.244A7.3 7.3 0 0 1 2.396 3.33M15.04 6.109c-.025.055-.058.107-.087.161a7.4 7.4 0 0 0-1.57-2.196q.195-.358.221-.744a7.3 7.3 0 0 1 1.436 2.779m.08.305q.05.231.082.47c-.04-.117-.092-.23-.139-.344.018-.041.04-.083.056-.126zM5.735 2.213c0-.045.016-.088.03-.13a11 11 0 0 1 1.167-.052c-.405.057-.8.137-1.182.252-.004-.023-.015-.045-.015-.07m-.216-.486a16 16 0 0 0-1.503.163q.695-.451 1.487-.74c.212.056.42.114.615.175-.246.115-.449.25-.6.402zm.996-.27q.44.158.806.331A8 8 0 0 0 6.05 1.71q.187-.143.466-.251zm3.748.756c0 .016-.008.03-.01.046a8 8 0 0 0-1.069-.224c.32-.01.673 0 1.046.03.016.048.033.096.033.148m-4.554.902c.31.229.755.408 1.277.51-.232.59-.433 1.26-.603 1.99-.783-.12-1.484-.324-2.06-.59.383-.773.853-1.423 1.386-1.91m2.543-.944c.553.059 1.083.277 1.572.633-.255.156-.606.277-1.017.347a6 6 0 0 0-.555-.98m.235 1.024a5 5 0 0 1-.98-.001 6.4 6.4 0 0 1 .49-1.007q.263.427.49 1.008m-1.3-.044c-.433-.076-.806-.205-1.064-.373.506-.36 1.054-.57 1.623-.615q-.3.421-.56.988zm.145.53a5.4 5.4 0 0 0 1.33 0c.196.586.367 1.254.508 1.991a11 11 0 0 1-2.347-.001 16 16 0 0 1 .508-1.99zm1.676-.055c.497-.097.923-.264 1.232-.477.525.488.989 1.138 1.364 1.906a7.8 7.8 0 0 1-1.993.56c-.17-.73-.37-1.4-.603-1.99zm1.478-.682q.122-.127.192-.266A7 7 0 0 1 12.9 4.16c-.22.259-.53.497-.909.706-.415-.776-.923-1.43-1.503-1.922zm-.425-.32a4 4 0 0 0-.537-.313q.328.074.644.175a.7.7 0 0 1-.107.138M9.91 1.338q.295-.093.616-.176.735.271 1.386.685c-.504-.07-.988-.115-1.442-.131a2 2 0 0 0-.56-.378m.039.37a7.5 7.5 0 0 0-1.26.11q.375-.183.83-.347.256.105.43.236zm-1.878.22c-.001-.002-.003 0-.005-.003-.004-.003-.004-.01-.008-.011a.1.1 0 0 0-.056-.02h-.003c-.011 0-.02.007-.031.01a5.6 5.6 0 0 0-.973-.588 4.6 4.6 0 0 1 2.06.012c-.38.185-.712.386-.984.6m-1.828.466q-.171.089-.34.195c-.023-.025-.036-.051-.055-.08q.195-.064.395-.115m-.767.51c-.59.489-1.11 1.145-1.531 1.927-.33-.188-.605-.4-.81-.63a7.1 7.1 0 0 1 2.198-1.497q.058.104.143.2M3.762 5.196a10 10 0 0 0-.851 2.847c-.593-.34-1.091-.736-1.462-1.176a7.3 7.3 0 0 1 1.44-2.401c.226.267.52.512.873.73m.384.215c.6.306 1.326.543 2.134.682-.191.928-.33 1.935-.412 2.978a9.6 9.6 0 0 1-2.484-.782c.127-1.053.391-2.029.762-2.878m2.592.749c.406.049.828.079 1.262.079.433 0 .853-.03 1.258-.079.156.922.267 1.931.33 2.993A12 12 0 0 1 8 9.258c-.547 0-1.079-.04-1.591-.106a27 27 0 0 1 .33-2.992zm2.978-.066a7.6 7.6 0 0 0 2.07-.65c.366.853.627 1.83.751 2.885a9.8 9.8 0 0 1-2.41.743c-.08-1.043-.22-2.05-.411-2.978m2.457-.86c.401-.24.734-.513.977-.813a7.3 7.3 0 0 1 1.456 2.376c-.39.488-.933.925-1.591 1.292a10 10 0 0 0-.842-2.855m1.11-2.015c0 .214-.061.42-.166.617a7.6 7.6 0 0 0-2.359-1.404q.008-.046.01-.093a.7.7 0 0 0-.041-.229c.622.07 1.297.188 2.01.347q.269.229.512.482.033.138.034.28M9.907.964q-.249.091-.478.191A5 5 0 0 0 8 .955a5 5 0 0 0-1.388.188 11 11 0 0 0-.477-.19A7.3 7.3 0 0 1 8 .703c.66 0 1.298.097 1.907.26zM3.192 2.52c.734-.174 1.429-.3 2.072-.382a.8.8 0 0 0-.032.2q.001.064.013.126c-.87.334-1.656.82-2.333 1.425a1.33 1.33 0 0 1-.195-.67q.001-.144.034-.28.21-.218.44-.419zM.974 6.627a8 8 0 0 0-.235.671q.045-.451.142-.884.042.107.093.213m.028 2.756c0-.755.114-1.486.324-2.173.37.49.889.933 1.528 1.305-.042.401-.07.807-.07 1.226q.001.706.084 1.388a7 7 0 0 1-1.866-1.737zm5.35 1.688q0-.72.03-1.419a12 12 0 0 0 3.232 0 33 33 0 0 1-.001 2.794c-.522.083-1.06.13-1.613.13a10 10 0 0 1-1.617-.13 33 33 0 0 1-.031-1.375m6.715-2.514c.705-.399 1.276-.88 1.662-1.416.215.676.336 1.397.346 2.144a7 7 0 0 1-2.032 1.903q.089-.71.091-1.447c0-.403-.027-.796-.067-1.184M1.06 10.247c-.009-.075-.021-.15-.028-.225a7.9 7.9 0 0 0 1.91 1.63c.125.74.325 1.446.59 2.108a7.3 7.3 0 0 1-2.472-3.514zm5.56 4.915a29 29 0 0 1-.211-2.234c.516.082 1.046.132 1.592.132.545 0 1.073-.049 1.588-.132a28 28 0 0 1-.212 2.235c-.446.085-.904.133-1.376.133s-.934-.048-1.38-.134zm5.734-1.316a10 10 0 0 0 .616-2.14 8 8 0 0 0 2.057-1.754 7.3 7.3 0 0 1-2.673 3.894"/><path fill="none" d="M0 0h16v16H0z"/></svg>