<svg xmlns="http://www.w3.org/2000/svg" viewBox="0 0 32 32"><path d="M10 20.5c0 .057.008.112.009.169a9.294 9.294 0 1 1 10.66-10.66c-.057-.001-.112-.009-.169-.009-.282 0-.56.02-.836.042a8.296 8.296 0 1 0-9.622 9.622A11 11 0 0 0 10 20.5m.968-15.251-.088-1.043a7.31 7.31 0 0 0-6.7 7.33q.002.25.019.495l1.044-.072a7 7 0 0 1-.017-.429 6.266 6.266 0 0 1 5.742-6.281M29.8 20.5a9.3 9.3 0 1 1-9.3-9.3 9.31 9.31 0 0 1 9.3 9.3m-1 0a8.3 8.3 0 1 0-8.3 8.3 8.31 8.31 0 0 0 8.3-8.3m-3.122-5.179-.74.74a6.277 6.277 0 0 1-8.877 8.878l-.739.74A7.323 7.323 0 0 0 25.678 15.32zM14.243 20.96a7 7 0 0 1-.017-.429 6.266 6.266 0 0 1 5.742-6.281l-.088-1.043a7.31 7.31 0 0 0-6.7 7.33q.002.25.019.495z"/><path fill="none" d="M0 0h32v32H0z"/></svg>