<svg xmlns="http://www.w3.org/2000/svg" viewBox="0 0 16 16"><path d="m4 10.5.003.058a5.285 5.285 0 1 1 6.555-6.555L10.5 4a6.5 6.5 0 0 0-.96.079 4.289 4.289 0 1 0-5.46 5.46A6.5 6.5 0 0 0 4 10.5m1.462-7.3-.017-1A3.3 3.3 0 0 0 2.26 6.127l.982-.19A2.3 2.3 0 0 1 5.462 3.2M15.8 10.5a5.3 5.3 0 1 1-5.3-5.3 5.306 5.306 0 0 1 5.3 5.3m-1 0a4.3 4.3 0 1 0-4.3 4.3 4.304 4.304 0 0 0 4.3-4.3m-6.531-.56a2.3 2.3 0 0 1 2.444-1.73l.096-.996a3.3 3.3 0 0 0-.957.05A3.3 3.3 0 0 0 7.3 9.697zm5.264-.743-.92.395a2.3 2.3 0 0 1-3.74 2.534l-.706.707a3.3 3.3 0 0 0 5.366-3.636"/><path fill="none" d="M0 0h16v16H0z"/></svg>