<svg xmlns="http://www.w3.org/2000/svg" viewBox="0 0 24 24"><path d="M7 15.5c0 .049.006.096.007.145a7.3 7.3 0 1 1 8.638-8.638c-.049 0-.096-.007-.145-.007a9 9 0 0 0-.877.045 6.296 6.296 0 1 0-7.578 7.578A9 9 0 0 0 7 15.5m.983-11.27-.119-.992A5.3 5.3 0 0 0 3.2 8.558q.003.23.024.45l.995-.093a5 5 0 0 1-.019-.367A4.3 4.3 0 0 1 7.983 4.23M22.8 15.5a7.3 7.3 0 1 1-7.3-7.3 7.31 7.31 0 0 1 7.3 7.3m-1 0a6.3 6.3 0 1 0-6.3 6.3 6.307 6.307 0 0 0 6.3-6.3m-10.58.415a5 5 0 0 1-.02-.367 4.3 4.3 0 0 1 3.783-4.318l-.119-.992a5.3 5.3 0 0 0-4.664 5.32q.003.23.024.45zm8.028-4.163-.707.707a4.3 4.3 0 1 1-6.082 6.082l-.707.707a5.3 5.3 0 0 0 7.496-7.496"/><path fill="none" d="M0 0h24v24H0z"/></svg>