<svg xmlns="http://www.w3.org/2000/svg" viewBox="0 0 32 32"><path d="M18 6H6V3h12v3z" opacity=".25" stroke-width="0"/><path stroke-width="0" fill="none" d="M0 0h32v32H0z"/><path d="M19.3 2H5v16h1V3h12v8h8v18H6v-2H5v3h22V9.699L19.3 2zm-.3 8V3l7 7h-7zM6.184 24.332l-3.151 1.35 1.342-3.157 1.809 1.807zm1.274-1.208l-1.921-1.922 5.764-5.764 1.92 1.922-5.763 5.764zm7.928-7.929l-1.027 1.028-1.922-1.921 1.028-1.028a.284.284 0 0 1 .207-.083.306.306 0 0 1 .21.09l1.497 1.497c.117.118.12.304.007.417z" stroke-width="0"/></svg>