<svg xmlns="http://www.w3.org/2000/svg" viewBox="0 0 24 24"><path d="m17.95 19.356 5.05-5.05v1.414l-4.278 4.278a8 8 0 0 0 1.644.942L23 18.306v1.414l-1.589 1.589A10 10 0 0 0 23 21.64v1.015c-4.672-.548-6.488-3.29-7.731-4.915-.499-.652-.93-1.215-1.236-1.215-.61 0-1.156.785-1.683 1.544-.65.935-1.32 1.902-2.358 1.902-1.978 0-4.214-3.654-5.557-6.971H5.72l-.142.142c.262.61.54 1.2.833 1.754L8.306 13H9.72l-2.804 2.804a15 15 0 0 0 1.04 1.546l4.35-4.35h1.414l-5.117 5.117a2.3 2.3 0 0 0 1.389.854c.514 0 1.034-.749 1.537-1.473.59-.848 1.25-1.8 2.232-1.952L16.306 13h1.414l-2.829 2.829a6.6 6.6 0 0 1 1.172 1.303l.048.063L20.306 13h1.414l-4.996 4.996a12 12 0 0 0 1.226 1.36M7.63 2c1.007 0 1.614.728 2.783 2.243A23.2 23.2 0 0 0 16.462 10h1.916a22.1 22.1 0 0 1-7.172-6.368C10.026 2.104 9.174 1 7.632 1 4.989 1 2.909 5.801 1.59 10h1.049c1.875-5.845 3.767-8 4.992-8zM1 11v1h22v-1z"/><path fill="none" d="M0 0h24v24H0z"/></svg>