<svg xmlns="http://www.w3.org/2000/svg" viewBox="0 0 32 32"><path d="M6.617 29.09A14.49 14.49 0 1 1 26.69 8.189l-.712.712a13.485 13.485 0 1 0-18.65 19.477zM28 18.5a11.4 11.4 0 0 0-1.584-5.795l-.726.726a10.44 10.44 0 0 1-1.434 12.118l-1.392-1.392-.707.707 2.1 2.1A11.46 11.46 0 0 0 28 18.5m-.13-7.249a13.42 13.42 0 0 1-2.199 17.127l.712.712A14.46 14.46 0 0 0 28.6 10.52zM17 10V8.025a10.46 10.46 0 0 1 6.858 2.996l.707-.707a11.487 11.487 0 1 0-15.823 16.65l2.101-2.1-.707-.707-1.392 1.392A10.43 10.43 0 0 1 6.027 19H8v-1H6.025a10.44 10.44 0 0 1 2.717-6.55l1.394 1.393.707-.707-1.394-1.394A10.44 10.44 0 0 1 16 8.025V10zm.877 8.416L28.59 7.705l.707.707-10.712 10.71a2.505 2.505 0 1 1-.707-.706zM18 20.5a1.5 1.5 0 1 0-1.5 1.5 1.5 1.5 0 0 0 1.5-1.5"/><path fill="none" d="M0 0h32v32H0z"/></svg>