<svg xmlns="http://www.w3.org/2000/svg" viewBox="0 0 16 16"><path d="M12.425 13.718a6.43 6.43 0 0 0 1.24-6.262l.78-.78a7.48 7.48 0 0 1-2.008 8.46l-2.109-2.1.708-.708zm2.726-9.162L8.85 10.857a1.514 1.514 0 1 1-.707-.707l6.301-6.301zM8 11.5a.5.5 0 1 0-.5.5.5.5 0 0 0 .5-.5M7 5h1V3.025a6.48 6.48 0 0 1 4.03 1.823l.71-.71a7.495 7.495 0 1 0-10.177 11l2.109-2.101-.708-.708-1.389 1.39A6.45 6.45 0 0 1 1.028 10H3V9H1.025A6.47 6.47 0 0 1 2.57 5.276l1.395 1.396.708-.708L3.276 4.57A6.47 6.47 0 0 1 7 3.025z"/><path fill="none" d="M0 0h16v16H0z"/></svg>