<svg xmlns="http://www.w3.org/2000/svg" viewBox="0 0 32 32"><path d="M20.062 16h7.875v1h-7.875zm0-4h7.875v1h-7.875zM11 22.8c3.394 0 7-1.052 7-3V12c0-.467-.247-1.15-1.423-1.753-.5-.255-1.118-.472-1.834-.643a15 15 0 0 0-1.866-.31 19 19 0 0 0-3.754 0c-.663.07-1.29.174-1.866.31-.716.171-1.334.388-1.834.643C4.247 10.851 4 11.533 4 12v7.8c0 1.948 3.606 3 7 3M5.878 11.138c.43-.22.972-.408 1.61-.56a14 14 0 0 1 1.738-.289 17.6 17.6 0 0 1 3.548 0c.62.065 1.204.161 1.737.288.64.152 1.181.341 1.61.56.55.283.879.605.879.863s-.329.58-.879.861c-.428.22-.97.409-1.61.562-.533.127-1.117.223-1.737.288a18 18 0 0 1-3.548 0 14 14 0 0 1-1.737-.288c-.64-.153-1.182-.342-1.61-.562C5.328 12.581 5 12.258 5 12s.329-.58.878-.862M5 13.506q.188.124.423.246c.499.256 1.116.472 1.834.644.576.136 1.203.24 1.866.31a18.5 18.5 0 0 0 3.754 0 15 15 0 0 0 1.866-.31c.718-.172 1.335-.388 1.834-.644q.236-.121.423-.247v1.845c0 .258-.329.58-.878.862-.43.22-.972.408-1.611.56-.533.128-1.117.225-1.737.289a17.7 17.7 0 0 1-3.549 0c-.62-.064-1.203-.16-1.736-.289-.64-.152-1.181-.34-1.61-.56-.55-.281-.879-.604-.879-.862zm0 3.35q.188.125.423.247c.5.254 1.118.471 1.834.642a14 14 0 0 0 1.866.31c.606.063 1.237.095 1.877.095s1.271-.032 1.876-.095a14 14 0 0 0 1.867-.31c.716-.17 1.334-.388 1.834-.642q.236-.122.423-.247V19.8c0 .835-2.283 2-6 2s-6-1.165-6-2zM20.031 20H26v1h-5.969z"/><path d="M1 4v24h30V4zm29 23H2V5h28z"/><path fill="none" d="M0 0h32v32H0z"/></svg>