<svg xmlns="http://www.w3.org/2000/svg" viewBox="0 0 32 32"><path d="M4.225 16h-1A13.296 13.296 0 0 1 16 3.225v1A12.296 12.296 0 0 0 4.225 16m0 1h-1A13.296 13.296 0 0 0 16 29.775v-1A12.296 12.296 0 0 1 4.225 17m24.55-1h1A13.296 13.296 0 0 0 17 3.225v1A12.296 12.296 0 0 1 28.775 16M17 28.775v1A13.296 13.296 0 0 0 29.775 17h-1A12.296 12.296 0 0 1 17 28.775m0-20.55v1A7.3 7.3 0 0 1 23.775 16h1A8.3 8.3 0 0 0 17 8.225M8.225 16h1A7.3 7.3 0 0 1 16 9.225v-1A8.3 8.3 0 0 0 8.225 16m16.55 1h-1A7.3 7.3 0 0 1 17 23.775v1A8.3 8.3 0 0 0 24.775 17M16 24.775v-1A7.3 7.3 0 0 1 9.225 17h-1A8.3 8.3 0 0 0 16 24.775M20.75 17h-1A3.29 3.29 0 0 1 17 19.75v1A4.28 4.28 0 0 0 20.75 17m-8.5-1h1A3.29 3.29 0 0 1 16 13.25v-1A4.28 4.28 0 0 0 12.25 16M16 20.75v-1A3.29 3.29 0 0 1 13.25 17h-1A4.28 4.28 0 0 0 16 20.75m1-8.5v1A3.29 3.29 0 0 1 19.75 16h1A4.28 4.28 0 0 0 17 12.25"/><path fill="none" d="M0 0h32v32H0z"/></svg>