<svg xmlns="http://www.w3.org/2000/svg" viewBox="0 0 16 16"><path d="M14 6h-4V5h4zM2 10.31V5.596c0-.292.137-.712.787-1.06q.381-.202.911-.333.413-.102.902-.156c.572-.06 1.23-.06 1.8 0q.49.054.902.156.53.132.91.333c.651.348.788.768.788 1.06v4.714C9 11.419 7.24 12 5.5 12S2 11.419 2 10.31m1.006-4.704c.022.007.086.078.252.165.174.094.409.178.68.246q.352.088.768.132a8 8 0 0 0 1.589 0 6 6 0 0 0 .766-.132c.272-.068.507-.152.68-.245a.9.9 0 0 0 .244-.176.8.8 0 0 0-.243-.177 3 3 0 0 0-.68-.245 6 6 0 0 0-.768-.133 8 8 0 0 0-1.589 0q-.415.046-.768.133a3 3 0 0 0-.68.245c-.165.088-.23.158-.251.187M3 7.452c-.004-.017.028.055.258.177a3 3 0 0 0 .68.245q.351.088.768.132a7.7 7.7 0 0 0 1.587 0q.418-.045.77-.132c.268-.066.503-.151.68-.245.195-.105.247-.18.257-.197v-.684a4 4 0 0 1-.698.24 7 7 0 0 1-.902.156 8.6 8.6 0 0 1-1.8 0 7 7 0 0 1-.904-.157A4 4 0 0 1 3 6.748zm0 2.858c.042.205.943.69 2.5.69s2.458-.485 2.5-.693V8.605a4 4 0 0 1-.698.24A7 7 0 0 1 6.4 9a8.3 8.3 0 0 1-1.802 0 7 7 0 0 1-.9-.155A4 4 0 0 1 3 8.605zM14 7h-4v1h4zm2-6v14H0V1zm-1 1H1v12h14zm-2 7h-3v1h3z"/><path fill="none" d="M0 0h16v16H0z"/></svg>