<svg xmlns="http://www.w3.org/2000/svg" viewBox="0 0 16 16"><path d="M2.445 8h-1A7.06 7.06 0 0 1 8 1.443v1.02A6.03 6.03 0 0 0 2.451 7.89c-.004.037-.003.074-.006.111zm10.777-3.34A6.04 6.04 0 0 1 14.568 8h1A7.06 7.06 0 0 0 9 1.444v1.004a6.06 6.06 0 0 1 4.222 2.213zm1.337 4.462A6.03 6.03 0 0 1 9 14.548v1.02A7.06 7.06 0 0 0 15.566 9h-1c-.004.04-.003.081-.007.122M3.79 12.35A6.04 6.04 0 0 1 2.442 9h-1A7.06 7.06 0 0 0 8 15.565v-1.003a6.06 6.06 0 0 1-4.211-2.212zm5.933-7.738A4 4 0 0 0 9 4.464v1.004a3 3 0 0 1 .423.098A3.07 3.07 0 0 1 11.525 8h1.015a4.07 4.07 0 0 0-2.818-3.388zM5.48 9H4.464A4.01 4.01 0 0 0 8 12.54v-1.004a3 3 0 0 1-.417-.097A3.07 3.07 0 0 1 5.48 9M8 5.466v-1A4.006 4.006 0 0 0 4.465 8H5.48a3 3 0 0 1 .085-.417A3.06 3.06 0 0 1 8 5.466m1 6.075v1A4.01 4.01 0 0 0 12.542 9h-1.016a3 3 0 0 1-.087.423A3.06 3.06 0 0 1 9 11.54zM8.5 7A1.5 1.5 0 1 0 10 8.5 1.5 1.5 0 0 0 8.5 7"/><path fill="none" d="M0 0h16v16H0z"/></svg>