<svg xmlns="http://www.w3.org/2000/svg" viewBox="0 0 24 24"><path d="M13 3.125v-.9A10.28 10.28 0 0 1 22.775 12h-.9A9.396 9.396 0 0 0 13 3.125m-1 0v-.9A10.28 10.28 0 0 0 2.225 12h.9A9.397 9.397 0 0 1 12 3.125M3.125 13h-.9A10.28 10.28 0 0 0 12 22.775v-.9A9.397 9.397 0 0 1 3.125 13M13 21.875v.9A10.28 10.28 0 0 0 22.775 13h-.9A9.396 9.396 0 0 1 13 21.875M6.225 12h1.026A5.27 5.27 0 0 1 12 7.25V6.226A6.3 6.3 0 0 0 6.225 12m12.55 1h-1.026A5.27 5.27 0 0 1 13 17.75v1.025A6.3 6.3 0 0 0 18.775 13M12 18.775v-1.026A5.27 5.27 0 0 1 7.25 13H6.226A6.3 6.3 0 0 0 12 18.775m1-12.55v1.026A5.27 5.27 0 0 1 17.75 12h1.025A6.3 6.3 0 0 0 13 6.225M9.25 12h1.008A2.3 2.3 0 0 1 12 10.258V9.251A3.29 3.29 0 0 0 9.25 12m6.5 1h-1.008A2.3 2.3 0 0 1 13 14.742v1.007A3.29 3.29 0 0 0 15.75 13M13 9.25v1.008A2.3 2.3 0 0 1 14.742 12h1.007A3.29 3.29 0 0 0 13 9.25m-1 6.5v-1.008A2.3 2.3 0 0 1 10.258 13H9.251A3.29 3.29 0 0 0 12 15.75"/><path fill="none" d="M0 0h24v24H0z"/></svg>