<svg xmlns="http://www.w3.org/2000/svg" viewBox="0 0 24 24"><path d="M1 3v18h22V3zm21 17H2V4h20zM21 9h-6V8h6zm0 3h-6v-1h6zm-1 3h-5v-1h5zM8 16.815c2.485 0 5-.785 5-2.285V9c0-.361-.192-.883-1.108-1.316a6.2 6.2 0 0 0-1.295-.422A11 11 0 0 0 9.3 7.061a14.5 14.5 0 0 0-2.6 0 11 11 0 0 0-1.298.2 6.3 6.3 0 0 0-1.296.423C3.192 8.117 3 8.639 3 9v5.53c0 1.5 2.515 2.285 5 2.285M4.534 8.588a5.4 5.4 0 0 1 1.084-.35c.365-.08.762-.141 1.178-.181a12.5 12.5 0 0 1 2.408 0c.416.04.813.101 1.176.181.426.095.801.216 1.085.35.44.208.535.38.535.412s-.095.204-.534.412a5.4 5.4 0 0 1-1.084.35c-.365.08-.762.141-1.178.181-.765.075-1.644.075-2.408 0a10 10 0 0 1-1.176-.181 5.4 5.4 0 0 1-1.085-.35C4.095 9.204 4 9.032 4 9s.095-.204.534-.412M4 10.258c.037.02.068.04.108.058.355.168.79.31 1.295.422.404.09.84.157 1.297.201a14 14 0 0 0 2.6 0 11 11 0 0 0 1.298-.2 6.3 6.3 0 0 0 1.296-.423c.039-.018.07-.038.106-.057v.79c0 .032-.095.206-.534.413a5.4 5.4 0 0 1-1.084.35c-.365.08-.762.141-1.178.181-.765.074-1.644.074-2.408 0a10 10 0 0 1-1.176-.181 5.4 5.4 0 0 1-1.086-.35c-.439-.207-.534-.38-.534-.412zm0 2.05c.037.02.068.04.108.058.355.168.79.31 1.295.422.404.089.84.156 1.297.201a14 14 0 0 0 2.6 0 11 11 0 0 0 1.298-.2 6.3 6.3 0 0 0 1.295-.423c.04-.018.07-.038.107-.057v2.221c0 .512-1.595 1.285-4 1.285s-4-.773-4-1.285v-2.22z"/><path fill="none" d="M0 0h24v24H0z"/></svg>