<svg xmlns="http://www.w3.org/2000/svg" viewBox="0 0 16 16"><path d="M12.092 13a8.8 8.8 0 0 0 .849-3H15V9h-2v-.023A9.4 9.4 0 0 0 12.522 6h1.265l1.484-2.549-.865-.503L13.213 5h-1.097a5.94 5.94 0 0 0-2.02-2.39l1.258-1.256-.707-.707-1.502 1.5a3.5 3.5 0 0 0-2.29 0L5.354.648l-.707.706L5.904 2.61A5.94 5.94 0 0 0 3.884 5H2.787L1.594 2.948l-.865.503L2.213 6h1.265A9.4 9.4 0 0 0 3 8.977V9H1v1h2.06a8.8 8.8 0 0 0 .848 3H2.195L.917 15.47l.889.46.999-1.93h1.708A4.39 4.39 0 0 0 8 16a4.39 4.39 0 0 0 3.487-2h1.708l1 1.93.888-.46L13.805 13zM8 2.955c1.686 0 3.128 1.58 3.716 3.805a8.62 8.62 0 0 0-7.432 0C4.872 4.534 6.314 2.955 8 2.955M8 15a2.8 2.8 0 0 1-1.135-.25L8 8.87l1.135 5.879A2.8 2.8 0 0 1 8 15m2.038-.85L8.84 7.952a6.8 6.8 0 0 0-1.682 0l-1.197 6.2A7.02 7.02 0 0 1 4 8.977a9 9 0 0 1 .057-.976l.406-.224a7 7 0 0 1 .941-.419 7.62 7.62 0 0 1 6.133.419l.406.224a9 9 0 0 1 .057.976 7.02 7.02 0 0 1-1.962 5.174z"/><path fill="none" d="M0 0h16v16H0z"/></svg>