<svg xmlns="http://www.w3.org/2000/svg" viewBox="0 0 16 16"><path d="M2.944 7.294c0-.168.02-.323.03-.484l.197-.109a6.1 6.1 0 0 1 4.657-.412 4.95 4.95 0 0 1 2.197-.741Q9.948 5.267 9.85 5h.906l1.232-2.117-.864-.503L10.181 4h-.824a4.4 4.4 0 0 0-1.323-1.37l1.158-1.165-.71-.705-1.406 1.416A3.7 3.7 0 0 0 6 2a3.6 3.6 0 0 0-1.06.174L3.515.758l-.705.709 1.178 1.17A4.1 4.1 0 0 0 2.752 4H1.82L.876 2.38l-.864.503L1.244 5h1.058a7.2 7.2 0 0 0-.338 2H0v1h1.975a7.6 7.6 0 0 0 .424 2h-.973L.161 12.459l.89.457L2.037 11h.832A3.68 3.68 0 0 0 6 13c.064 0 .126-.01.189-.013a5 5 0 0 1-.446-1.026c-1.587-.198-2.8-2.164-2.8-4.667zM6 3a3.276 3.276 0 0 1 3.04 2.7 7.12 7.12 0 0 0-5.882-.093A3.075 3.075 0 0 1 6 3m9.749 12.054L13.29 12.59A3.47 3.47 0 0 0 14 10.5a3.5 3.5 0 1 0-3.5 3.5 3.47 3.47 0 0 0 2.083-.704l2.458 2.464a.5.5 0 0 0 .708-.706M10.5 13a2.5 2.5 0 1 1 2.5-2.5 2.503 2.503 0 0 1-2.5 2.5"/><path fill="none" d="M0 0h16v16H0z"/></svg>