<svg xmlns="http://www.w3.org/2000/svg" viewBox="0 0 32 32"><path d="M8.153 12a16 16 0 0 0-.935 5H3v1h4.218a16 16 0 0 0 .935 5H5.194l-2.34 4.572.891.455L5.805 24h2.757c1.56 3.429 4.307 5.718 7.438 5.718s5.878-2.29 7.438-5.718h2.756l2.06 4.027.892-.455L26.806 23h-2.959a16 16 0 0 0 .935-5H29v-1h-4.218a16 16 0 0 0-.935-5h2.96l2.316-4.575-.893-.45L26.192 11h-2.754a10.02 10.02 0 0 0-4.651-5.08l3.567-3.566-.707-.707-3.883 3.882a6.4 6.4 0 0 0-3.528 0l-3.882-3.883-.707.707 3.566 3.567A10.02 10.02 0 0 0 8.563 11H5.807L3.77 6.974l-.893.451L5.192 12zM16 6.282c3.073 0 5.728 2.575 6.999 6.297A16.47 16.47 0 0 0 9 12.58c1.27-3.722 3.926-6.297 6.999-6.297zm0 22.436a5.7 5.7 0 0 1-2.511-.608L16 15.103l2.511 13.007a5.7 5.7 0 0 1-2.511.608m3.425-1.155-2.796-14.48q-.629-.026-1.258 0l-2.796 14.48C9.99 25.735 8.2 21.917 8.2 17.5a15.6 15.6 0 0 1 .42-3.602l.063-.034a15.43 15.43 0 0 1 14.634 0l.063.034a15.6 15.6 0 0 1 .42 3.602c0 4.417-1.789 8.235-4.375 10.063"/><path fill="none" d="M0 0h32v32H0z"/></svg>