<svg xmlns="http://www.w3.org/2000/svg" viewBox="0 0 32 32"><path d="M3 24V10h25v11.213a5.5 5.5 0 0 1 1 .394V4h-8V2H10v2H2v21h10.267a4.4 4.4 0 0 1 .511-1zm8-21h9v1h-9zM3 5h25v4H3zm23.5 17a4.485 4.485 0 0 0-4.45 4h-2.1A3.48 3.48 0 0 0 17 23.05v-4.1a3.47 3.47 0 0 0 2.107-1.136L22.293 21H21v1h3v-3h-1v1.293l-3.33-3.33A3.499 3.499 0 1 0 16 18.95v4.1A3.492 3.492 0 1 0 19.95 27h2.1a4.49 4.49 0 1 0 4.45-5M14 15.5a2.5 2.5 0 1 1 2.5 2.5 2.503 2.503 0 0 1-2.5-2.5M16.5 29a2.5 2.5 0 1 1 2.5-2.5 2.503 2.503 0 0 1-2.5 2.5m10 1a3.5 3.5 0 1 1 3.5-3.5 3.504 3.504 0 0 1-3.5 3.5m2.5-3.5a2.5 2.5 0 1 1-2.5-2.5 2.5 2.5 0 0 1 2.5 2.5"/><path fill="none" d="M0 0h32v32H0z"/></svg>