<svg xmlns="http://www.w3.org/2000/svg" viewBox="0 0 24 24"><path d="M2 18.004V8h19v8.05a4.5 4.5 0 0 1 1 .226V3.004h-6v-2H7v2H1V19h8.344a3.5 3.5 0 0 1 .717-.996zM8 2h7v1.004H8zM2 4h19v3.004H2zm18.5 13a3.494 3.494 0 0 0-3.45 3h-2.1A2.5 2.5 0 0 0 13 18.05v-4.1a2.5 2.5 0 0 0 1.002-.463L16.338 16H15v1h3v-3h-1v1.243l-2.336-2.512A2.5 2.5 0 0 0 15 11.5a2.5 2.5 0 1 0-3 2.45v4.1A2.5 2.5 0 1 0 14.95 21h2.1a3.493 3.493 0 1 0 3.45-4M11 11.5a1.5 1.5 0 1 1 1.5 1.5 1.5 1.5 0 0 1-1.5-1.5M12.5 22a1.5 1.5 0 1 1 1.5-1.5 1.5 1.5 0 0 1-1.5 1.5m8 1a2.5 2.5 0 1 1 2.5-2.5 2.5 2.5 0 0 1-2.5 2.5m1.5-2.5a1.5 1.5 0 1 1-1.5-1.5 1.5 1.5 0 0 1 1.5 1.5"/><path fill="none" d="M0 0h24v24H0z"/></svg>