<svg xmlns="http://www.w3.org/2000/svg" viewBox="0 0 32 32"><path d="M27.5 12a4.485 4.485 0 0 0-4.45 4h-2.1a3.474 3.474 0 0 0-6.144-1.71l-2.676-1.294 3.347-4.649a3.44 3.44 0 0 0 3.486.323l3.33 3.33H21v1h3v-3h-1v1.293l-3.186-3.186a3.503 3.503 0 1 0-5.063-.464l-3.535 4.91-4.268-2.064a3 3 0 0 0-.043-.204l4.576-1.988-.424 1.198.943.333L13 7l-2.828-1-.334.943 1.241.438-4.568 1.985a3.006 3.006 0 1 0-.48 3.83l2.396 3.23-2.418 3.36a2.996 2.996 0 1 0 .517 3.82l4.54 2.017-1.228.434.334.943L13 26l-1-2.828-.943.333.428 1.21-4.57-2.03c.018-.082.029-.166.041-.25l4.268-2.237 3.684 4.969a3.5 3.5 0 1 0 4.906-.274L23 21.707V23h1v-3h-3v1h1.293l-3.33 3.33a3.42 3.42 0 0 0-3.285.195l-3.558-4.797 2.466-1.293A3.488 3.488 0 0 0 20.95 17h2.1a4.49 4.49 0 1 0 4.45-5m-10-9A2.5 2.5 0 1 1 15 5.5 2.503 2.503 0 0 1 17.5 3M20 27.5a2.5 2.5 0 1 1-2.5-2.5 2.503 2.503 0 0 1 2.5 2.5M4 13a2 2 0 1 1 2-2 2 2 0 0 1-2 2m2.658-.637a3 3 0 0 0 .282-.768l3.683 1.782-1.582 2.198zM4 24a2 2 0 1 1 2-2 2 2 0 0 1-2 2m2.918-2.674a3 3 0 0 0-.273-.713l2.408-3.343 1.568 2.115zm4.6-2.411-1.852-2.497 1.871-2.599 2.736 1.324a3.35 3.35 0 0 0-.103 2.38zM17.5 19a2.5 2.5 0 1 1 2.5-2.5 2.5 2.5 0 0 1-2.5 2.5m10 1a3.5 3.5 0 1 1 3.5-3.5 3.504 3.504 0 0 1-3.5 3.5m2.5-3.5a2.5 2.5 0 1 1-2.5-2.5 2.5 2.5 0 0 1 2.5 2.5"/><path fill="none" d="M0 0h32v32H0z"/></svg>