<svg xmlns="http://www.w3.org/2000/svg" viewBox="0 0 24 24"><path d="M22.57 15H1.43a.43.43 0 0 0-.43.43v6.14a.43.43 0 0 0 .43.43h21.14a.43.43 0 0 0 .43-.43v-6.14a.43.43 0 0 0-.43-.43zM22 21H2v-5h20zm1-15.57v6.14a.43.43 0 0 1-.43.43H1.43a.43.43 0 0 1-.43-.43V5.43A.43.43 0 0 1 1.43 5h5.397c.018.017.039.029.056.046L7.837 6H2v5h20V6h-8V5h8.57a.43.43 0 0 1 .43.43zM13 3v6H7V8h4.251l-3.66-3.675A4.499 4.499 0 0 0 4.403 3H0V2h4.375a5.499 5.499 0 0 1 3.93 1.652L12 7.428V3z"/><path fill="none" d="M0 0h24v24H0z"/></svg>