<svg xmlns="http://www.w3.org/2000/svg" viewBox="0 0 32 32"><path d="M8.093 19.357v1.237a9 9 0 0 0 .05 1.104h.906a10 10 0 0 1-.091-1.324v-4.03c0-2.538-1.12-3.67-3.63-3.67a4.5 4.5 0 0 0-3.103 1.154l.577.602a3.98 3.98 0 0 1 2.566-.911c1.669 0 2.625.862 2.625 2.365v.28H7.09c-2.666 0-5.191.468-5.191 3.287 0 1.836 1.518 2.487 2.988 2.487 2.028 0 3.205-1.344 3.205-2.58zM5.15 21C3.8 21 3 20.277 3 19.292c0-1.416.878-2.104 3.13-2.104h1.863v.536C7.94 19.707 6.903 21 5.149 21zm11.763 1a4.524 4.524 0 0 0 4.392-4.693 4.433 4.433 0 0 0-4.633-4.633 3.97 3.97 0 0 0-3.707 1.974V7H12v14.698h.964v-1.925A4.49 4.49 0 0 0 16.912 22zm-.32-8.481a3.55 3.55 0 0 1 3.628 3.788 3.614 3.614 0 1 1-7.22 0 3.52 3.52 0 0 1 3.592-3.788m7.392 3.85a3.595 3.595 0 0 0 3.568 3.787 3.04 3.04 0 0 0 2.416-1.021l.71.675A4.35 4.35 0 0 1 27.553 22 4.348 4.348 0 0 1 23 17.368a4.394 4.394 0 0 1 4.552-4.633 4.52 4.52 0 0 1 3.172 1.171l-.782.693a3.1 3.1 0 0 0-2.39-1.019 3.482 3.482 0 0 0-3.568 3.788z"/><path fill="none" d="M0 0h32v32H0z"/></svg>