<svg xmlns="http://www.w3.org/2000/svg" viewBox="0 0 16 16"><path d="M5 4v7h1v-.611A2.9 2.9 0 0 0 7.6 11 2.417 2.417 0 0 0 10 8.5a2.489 2.489 0 0 0-4-1.989V4zm2.5 2.9a1.6 1.6 0 0 1 0 3.2A1.584 1.584 0 0 1 6 8.5a1.6 1.6 0 0 1 1.5-1.6M1.994 6a2.03 2.03 0 0 0-1.66.717L1 7.263s.2-.363.994-.363a1.03 1.03 0 0 1 .787.262A1.37 1.37 0 0 1 3 8.088c-1.883 0-3.002.252-2.9 1.693A1.5 1.5 0 0 0 1.725 11 1.6 1.6 0 0 0 3 10.393V11h1V7.974a2.05 2.05 0 0 0-.476-1.38A1.97 1.97 0 0 0 1.994 6m-.168 4.054c-.595 0-.881-.2-.9-.554C.89 8.842 3 8.905 3 8.905a1.176 1.176 0 0 1-1.174 1.15zm13.354.286a2.5 2.5 0 1 1-.004-3.683l-.635.638A1.6 1.6 0 0 0 13.5 6.9a1.6 1.6 0 1 0 1.043 2.803z"/><path fill="none" d="M0 0h16v16H0z"/></svg>