<svg xmlns="http://www.w3.org/2000/svg" viewBox="0 0 24 24"><path d="M7 11.805c0-1.885-.825-2.726-2.896-2.726a3.95 3.95 0 0 0-2.79.927l.736.728a3.2 3.2 0 0 1 2.085-.728 1.7 1.7 0 0 1 1.74 1.794v.2h-.45C3.7 12 1 11.805 1 14.016 1 15.316 2.185 16 3.61 16a2.69 2.69 0 0 0 2.31-1.17h.03a4.5 4.5 0 0 0 .074.999h1.08A7 7 0 0 1 7 14.673zM5.875 13.37c-.03 1.085-.72 1.689-2.07 1.689-.885 0-1.545-.314-1.545-1.157 0-.899.96-.96 2.445-.96h1.17zm6.675-4.344a3.33 3.33 0 0 0-2.52 1.134H10V5H9v10.83h1v-1.177h.03A3.09 3.09 0 0 0 12.73 16a3.33 3.33 0 0 0 3.37-3.487 3.326 3.326 0 0 0-3.55-3.487m-.003 5.953A2.407 2.407 0 0 1 10 12.513a2.407 2.407 0 0 1 2.547-2.467 2.293 2.293 0 0 1 2.406 2.467 2.293 2.293 0 0 1-2.406 2.466m6.416-2.502a2.41 2.41 0 0 0 2.401 2.492 2 2 0 0 0 1.733-.83l.844.787A3.34 3.34 0 0 1 21.364 16a3.357 3.357 0 0 1-3.524-3.523 3.3 3.3 0 0 1 3.524-3.422 3.4 3.4 0 0 1 2.621.959l-.903.788a2.1 2.1 0 0 0-1.718-.817 2.327 2.327 0 0 0-2.401 2.492"/><path fill="none" d="M0 0h24v24H0z"/></svg>