<svg xmlns="http://www.w3.org/2000/svg" viewBox="0 0 32 32"><path fill="none" d="M0 0h32v32H0z"/><path d="M13.678 27.034a2.2 2.2 0 0 1-.546-.148L3 22.45V8.667c0-1.286.762-2.451 1.94-2.968l8.193-3.585a2.18 2.18 0 0 1 1.735 0L25 6.55v6.95c-.34 0-.673.034-1 .085V7.203L14.468 3.03a1.18 1.18 0 0 0-.934 0L5.341 6.615A2.24 2.24 0 0 0 4 8.667v13.13l9.532 4.173c.297.129.639.129.934 0l.302-.132-.829.828a1.5 1.5 0 0 0-.261.368M28 18.5a1.5 1.5 0 1 1-3 0 1.5 1.5 0 0 1 3 0m-1 0a.501.501 0 0 0-1 0 .501.501 0 0 0 1 0m3 1.5a5 5 0 0 1-5 5c-.53 0-1.03-.105-1.51-.258L22.232 26H21v1.233l-.767.767H19v1.234l-.756.756-.022.01H15v-2.273l5.53-5.53A4.95 4.95 0 0 1 20 20a5 5 0 0 1 10 0m-1 0c0-2.206-1.794-4-4-4s-4 1.794-4 4c0 .883.297 1.693.784 2.356L16 28.14V29h1.82l.18-.18V27h1.82l.18-.18V25h1.818l1.424-1.425A3.95 3.95 0 0 0 25 24c2.206 0 4-1.794 4-4m-15 1c-3.309 0-6-2.691-6-6 0-.773.152-1.51.42-2.19l-.803-.673A7 7 0 0 0 7 15a7 7 0 0 0 7 7 6.97 6.97 0 0 0 4.525-1.664c-.006-.113-.025-.222-.025-.336 0-.399.042-.787.11-1.166A5.99 5.99 0 0 1 14 21m0-13a6.97 6.97 0 0 0-4.59 1.724l.773.65A5.97 5.97 0 0 1 14 9c3.309 0 6 2.691 6 6 0 .328-.034.648-.085.962.317-.398.68-.756 1.08-1.07A6.997 6.997 0 0 0 14 8m3 4h-6v1h6zm1 2h-7v1h7zm-3 2h-4v1h4z"/></svg>