<svg xmlns="http://www.w3.org/2000/svg" viewBox="0 0 24 24"><path stroke-width="0" fill="none" d="M0 0h24v24H0z"/><path d="M22.425 11.706l-9.137-9.135a1.143 1.143 0 0 0-1.576 0l-9.138 9.136a1.117 1.117 0 0 0 .001 1.575l9.137 9.136c.21.21.49.326.788.326s.578-.116.788-.326l9.138-9.136a1.117 1.117 0 0 0-.001-1.576zm-.707.87L12.58 21.71a.11.11 0 0 1-.081.033l-9.217-9.168a.118.118 0 0 1 0-.163l9.136-9.135h.162l9.136 9.134a.117.117 0 0 1 0 .163zm-15.375-.082L12.5 6.335l6.157 6.16-6.157 6.158-6.157-6.159z" stroke-width="0"/></svg>