<svg xmlns="http://www.w3.org/2000/svg" viewBox="0 0 32 32"><path d="M29.558 14.884l-11.99-12.44a1.504 1.504 0 0 0-2.135 0L3.442 14.884c-.285.297-.442.69-.442 1.109s.157.812.442 1.108l11.99 12.44a1.473 1.473 0 0 0 2.136 0l11.992-12.44a1.614 1.614 0 0 0-.002-2.217zm-.677 1.512L16.89 28.836a.547.547 0 0 1-.777 0l-11.99-12.44a.57.57 0 0 1-.161-.403c0-.153.057-.296.16-.403L16.113 3.149a.535.535 0 0 1 .775 0l11.99 12.44a.588.588 0 0 1 .003.807zm-18.899-.403L16.5 9.23l6.519 6.763-6.519 6.763-6.518-6.763z" stroke-width="0"/><path stroke-width="0" fill="none" d="M0 0h32v32H0z"/></svg>