<svg xmlns="http://www.w3.org/2000/svg" viewBox="0 0 32 32"><path d="M16.5 30c-.403 0-.782-.163-1.068-.459l-11.99-12.44C3.157 16.805 3 16.41 3 15.993s.157-.812.442-1.108L15.433 2.444a1.504 1.504 0 0 1 2.134 0l11.99 12.44c.589.612.59 1.606.003 2.217L17.568 29.54A1.47 1.47 0 0 1 16.5 30m0-26.771a.53.53 0 0 0-.38.163L4.345 15.607a.57.57 0 0 0-.158.395.56.56 0 0 0 .158.396l11.772 12.215a.537.537 0 0 0 .763 0l11.774-12.215a.577.577 0 0 0-.002-.792L16.88 3.392a.52.52 0 0 0-.38-.163m0 17.021 3.75-3.75-3.75-3.75-3.75 3.75z"/><path fill="none" d="M0 0h32v32H0z"/></svg>