<svg xmlns="http://www.w3.org/2000/svg" viewBox="0 0 32 32"><path d="M16.5 30c-.403 0-.782-.163-1.068-.459l-11.99-12.44C3.157 16.805 3 16.41 3 15.993s.157-.812.442-1.108L15.433 2.444a1.504 1.504 0 0 1 2.134 0l11.99 12.44c.589.612.59 1.606.003 2.217L17.568 29.54A1.473 1.473 0 0 1 16.5 30zm0-26.771a.526.526 0 0 0-.38.163L4.345 15.607a.567.567 0 0 0-.158.395.56.56 0 0 0 .158.396l11.772 12.215a.537.537 0 0 0 .763 0l11.774-12.215a.577.577 0 0 0-.002-.792L16.88 3.392a.518.518 0 0 0-.38-.163zm0 17.021l3.75-3.75-3.75-3.75-3.75 3.75 3.75 3.75z" stroke-width="0"/><path stroke-width="0" fill="none" d="M0 0h32v32H0z"/></svg>