<?xml version="1.0" encoding="UTF-8"?><svg id="icons" xmlns="http://www.w3.org/2000/svg" viewBox="0 0 24 24"><defs><style>.cls-1{fill:none;}</style></defs><rect class="cls-1" width="24" height="24"/><path d="M1,6h1v1h-1v-1ZM1,9h1v-1h-1v1ZM1,5h1v-1h-1v1ZM22,4v1h1v-1h-1ZM22,7h1v-1h-1v1ZM22,9h1v-1h-1v1ZM1,17h1v-1h-1v1ZM22,17h1v-1h-1v1ZM1,19h1v-1h-1v1ZM22,19h1v-1h-1v1ZM1,21h1v-1h-1v1ZM22,21h1v-1h-1v1ZM18.00006,12H6v-2l-3,2.5,3,2.5v-2h12.00006v2l2.99994-2.5-2.99994-2.5v2ZM22,15h1v-5h-1v5ZM.99994,10l.00006,5h1l-.00006-5H.99994Z"/></svg>