<?xml version="1.0" encoding="UTF-8"?><svg id="icons" xmlns="http://www.w3.org/2000/svg" viewBox="0 0 24 24"><defs><style>.cls-1{fill:none;}</style></defs><path d="M2,4v17h21V4H2ZM22,20H3V5h19v15ZM10.33887,9.99487l-.96368-.59827,3.12482-1.80408,3.07623,1.77606-.96368.59821-2.11255-1.21973-2.16113,1.2478ZM19,12.5l-2.42279-1.39886.96368-.59827,3.45911,1.99713-3.43304,1.98206-.96368-.59827,2.39673-1.38379ZM7.38446,14.45398l-3.37546-1.95404,3.40152-1.96899.96368.59827-2.37421,1.37079,2.34814,1.35577-.96368.59821ZM12.5,17.40747l-3.15088-1.81915.96368-.59821,2.18719,1.26282,2.13867-1.2348.96362.59821-3.10229,1.79114Z"/><rect class="cls-1" x="0" width="24" height="24"/></svg>