<?xml version="1.0" encoding="UTF-8"?><svg id="icons" xmlns="http://www.w3.org/2000/svg" viewBox="0 0 32 32"><defs><style>.cls-1{fill:none;}</style></defs><path d="M3,5v22h27V5H3ZM29,26H4V6h25v20ZM13.87994,12.1875l-.94287-.61011,3.56287-2.05707,3.38232,1.95276-.94287.61011-2.43939-1.40839-2.62006,1.5127ZM24.85742,15.5l-3.97229-2.29346.94287-.61005,5.02905,2.9035-4.15253,2.39746-.94287-.61011,3.09576-1.78735ZM10.11487,17.79315l-3.97192-2.29321,4.84839-2.79919.94293.61011-3.79169,2.18915,2.91516,1.68304-.94287.61011ZM16.50006,21.47961l-4.43945-2.56311.94281-.61005,3.49658,2.01874,3.31592-1.91449.94287.61011-4.25873,2.4588Z"/><rect class="cls-1" x="0" width="32" height="32"/></svg>