<svg xmlns="http://www.w3.org/2000/svg" viewBox="0 0 16 16"><path d="M10.821 6.087l-1 .577L8.5 5.901l-1.204.695-1-.576L8.5 4.747l2.321 1.34zm1.98 3.683l2.19-1.27-2.17-1.258-1 .577L13 8.5l-1.2.693 1 .577zM1 2v5.393c.078-.07.157-.138.25-.192L2 6.768V3h13v3.768l.75.433c.093.054.172.122.25.192V2H1zm14 8.232V14H2v-3.768l-.75-.433A1.487 1.487 0 0 1 1 9.607V15h15V9.607c-.078.07-.157.138-.25.192l-.75.433zM4.296 7.174L2 8.5l2.316 1.337 1-.577L4 8.5l1.297-.749-1.001-.577zM8.5 11.1l-1.183-.684-1 .577 2.183 1.26 2.3-1.328-1-.576-1.3.75z"/><path fill="none" d="M0 0h16v16H0z"/></svg>