<?xml version="1.0" encoding="UTF-8"?><svg id="icons" xmlns="http://www.w3.org/2000/svg" viewBox="0 0 16 16"><defs><style>.cls-1{fill:none;}</style></defs><path d="M10.82117,6.08728l-1.00049.57678-1.32068-.7627-1.20361.69507-1.00043-.57672,2.20404-1.27252,2.32117,1.34009ZM12.80084,9.76965l2.19016-1.26965-2.16983-1.25793-1.00061.57684,1.17944.68109-1.19971.69281,1.00055.57684ZM1,2v5.39331c.07764-.07013.15735-.13867.25-.19214l.75-.43292v-3.76825h13v3.76819l.75.43298c.09265.05347.17236.12201.25.19214V2H1ZM15,10.23175v3.76825H2v-3.76831l-.75-.43286c-.09265-.05347-.17236-.12201-.25-.19214v5.39331h15v-5.39331c-.07764.07013-.15735.13867-.25.19214l-.75.43292ZM4.2959,7.17444l-2.2959,1.32556,2.31622,1.33728,1.00061-.57684-1.31683-.76044,1.29651-.74872-1.00061-.57684ZM8.5,11.09863l-1.18329-.68335-1.00043.57672,2.18372,1.26074,2.30078-1.32837-1.00037-.57672-1.30042.75098Z"/><rect class="cls-1" x="0" width="16" height="16"/></svg>