<svg xmlns="http://www.w3.org/2000/svg" viewBox="0 0 32 32"><path d="m22.229 27.565-.41.912c-1.82-.82-4.673-1.173-7.915 1.81l-.344.317-.398-.316c-3.241-2.983-6.092-2.63-7.914-1.811l-.41-.912c2.026-.914 5.152-1.342 8.654 1.671l.048.036c3.518-3.046 6.652-2.624 8.689-1.707m-1.84-12.962 3.555 1.388-.423.531a16.1 16.1 0 0 0-2.958 7.78l-.072.623-.59-.208a4.2 4.2 0 0 0-1.4-.233 6.93 6.93 0 0 0-4.66 2.19l-.34.314-.34-.315a6.94 6.94 0 0 0-4.662-2.19 4.2 4.2 0 0 0-1.397.234l-.591.208-.073-.622a16.1 16.1 0 0 0-2.96-7.781l-.422-.53 3.557-1.39L8.117 9h1.174l.8-4H12V3h3v2h1.91l.8 4h1.174zM13 5h1V4h-1zm-2.689 4h6.379l-.6-3h-5.18zm-2.542 5.151 5.732-2.237 5.731 2.237L18.116 10H8.885zm14.567 2.286-8.835-3.45-8.837 3.45a17.26 17.26 0 0 1 2.69 7.17 5.3 5.3 0 0 1 1.145-.123 7.67 7.67 0 0 1 5.002 2.152 7.67 7.67 0 0 1 5.001-2.152 5.3 5.3 0 0 1 1.145.122 17.26 17.26 0 0 1 2.689-7.169m4.02-13.79-.708.706L28.294 6H21v1h7.292l-2.646 2.646.707.707L30.207 6.5z"/><path fill="none" d="M0 0h32v32H0z"/></svg>