<svg xmlns="http://www.w3.org/2000/svg" viewBox="0 0 16 16"><path d="m15.162 3.5-2.808 2.81-.707-.708L13.248 4H8V3h5.248l-1.602-1.602.707-.707zm-5.91 5.06 1.677.718-2.138 3.725h-.29a4.03 4.03 0 0 0-2.661.928l-.34.315-.34-.315a4.03 4.03 0 0 0-2.661-.928h-.29L.07 9.278l1.68-.718L3.004 5H4V3h1V2h1v1h1v2h.996zM5 5h1V4H5zM2.997 8.026 5.5 6.956l2.503 1.07L7.289 6H3.711zm6.504 1.729L5.5 8.044l-4.002 1.71 1.295 2.257a5.1 5.1 0 0 1 2.707.905 5.1 5.1 0 0 1 2.707-.905zm-3.664 4.84-.338.213-.336-.214a3.72 3.72 0 0 0-3.935-.314l.544.839a2.67 2.67 0 0 1 2.856.32l.871.553.873-.553a2.71 2.71 0 0 1 2.856-.32l.544-.84a3.72 3.72 0 0 0-3.935.315z"/><path fill="none" d="M0 0h16v16H0z"/></svg>