<svg xmlns="http://www.w3.org/2000/svg" viewBox="0 0 24 24"><path d="M5.5 8a4.505 4.505 0 0 1 4.5 4.5V15a1 1 0 0 1-.041.204A1.87 1.87 0 0 1 11 16.875V22h6.541c-1.848-3.401-2.184-3.98-2.345-5.23-.278-2.167-.508-4.685-2.33-6.391C10.593 8.249 9.145 8.605 9 2H3v6.762A4.47 4.47 0 0 1 5.5 8" opacity=".25"/><path d="M22 2v20h-3v-1h2V9.05a10.33 10.33 0 0 0-5.253 1.91c-.154-.249-.35-.542-.558-.837A11.36 11.36 0 0 1 21 8.048V3H10V2zM3 2v2h1V3h1V2zm9 20h2v-1h-2zM3 8h1V6H3zm6-6H7v1h1v.022c.017.362.038.7.067 1.024l.996-.09A17 17 0 0 1 9 2m5.84 12.214a14 14 0 0 0-.594-1.81l-.088-.21-.914.406.073.173a13 13 0 0 1 .553 1.68zm.307 2.096-.996.091q.023.247.053.497a6.8 6.8 0 0 0 .413 1.631l.932-.365a5.8 5.8 0 0 1-.353-1.394 13 13 0 0 1-.049-.46M8.397 6.142a7.7 7.7 0 0 0 .772 2.035l.87-.494a6.7 6.7 0 0 1-.67-1.774zm4.47 4.237a12 12 0 0 0-.99-.802c-.211-.158-.424-.317-.632-.49l-.639.77c.222.183.447.352.671.52a11 11 0 0 1 .908.732zm3.583 9.592-.888.457c.134.262.274.55.417.876l.305.696h1.257L17 21s-.405-.749-.55-1.03zM10 16.875v5.25a.877.877 0 0 1-.875.875h-7.25A.877.877 0 0 1 1 22.125v-5.25A.877.877 0 0 1 1.875 16H2v-3.5a3.5 3.5 0 0 1 7 0V15H6v-2.5a.5.5 0 0 0-1 0V16h4.125a.877.877 0 0 1 .875.875M3 16h1v-3.5a1.5 1.5 0 0 1 3 0V14h1v-1.5a2.5 2.5 0 0 0-5 0zm6 1H2v5h7zm-3 2v-1H5v3h1v-1h1v-1z"/><path fill="none" d="M0 0h24v24H0z"/></svg>