<svg xmlns="http://www.w3.org/2000/svg" viewBox="0 0 32 32"><path d="M8 14a5.006 5.006 0 0 1 5 5v1a2.003 2.003 0 0 1 2 2v6h6.125c-1.812-4.102-1.217-6.705-2.028-9.7-1.825-6.736-4.83-4.49-5.82-11.308A27 27 0 0 1 13 3H4v13.03A4.98 4.98 0 0 1 8 14" opacity=".25"/><path d="M5 13H4v-2h1zm7.744-3.675.961-.275a16 16 0 0 1-.429-2.058l-.99.145a17 17 0 0 0 .458 2.188m3 3.217a8 8 0 0 1-1.26-1.606l-.865.502a9 9 0 0 0 1.406 1.8zM5 7H4v2h1zm0-3h1V3H4v2h1zm5-1H8v1h2zm2.057 1.934.998-.067c-.021-.31-.045-.622-.055-.972S13 3 13 3h-1s-.011.635 0 1 .037.636.057.934m8.002 19.833c-.136-.641-.222-1.278-.328-2.106l-.992.127c.11.853.198 1.508.341 2.186zM19 28h2v-1h-2zM15 3v.84l.009.16H28v5.97a14.3 14.3 0 0 0-8.996 3.411 8 8 0 0 1 .454.932A13.2 13.2 0 0 1 28 10.97V27h-5v1h6V3zm4.097 15.3-.965.262a12 12 0 0 1 .367 2.054l.996-.097a13 13 0 0 0-.398-2.218zM14 22v7a1.003 1.003 0 0 1-1 1H3a1.003 1.003 0 0 1-1-1v-7a1.003 1.003 0 0 1 1-1h1v-2a4 4 0 0 1 8 0v2h1a1.003 1.003 0 0 1 1 1m-9-1h1v-2a2 2 0 1 1 4 0v2h1v-2a3 3 0 0 0-6 0zm3-3a1 1 0 0 0-1 1v2h2v-2a1 1 0 0 0-1-1m5 4H3v7h10zm-5 1H7v5h1v-1h1v-1H8v-1h1v-1H8zm7 5h2v-1h-2zm2.242-13.808-.797.604a8 8 0 0 1 1.001 1.77l.924-.38a8.8 8.8 0 0 0-1.128-1.994"/><path fill="none" d="M0 0h32v32H0z"/></svg>