<svg xmlns="http://www.w3.org/2000/svg" viewBox="0 0 32 32"><path d="M8 12a5.006 5.006 0 0 1 5 5v3a2.003 2.003 0 0 1 2 2v6h6.125c-1.812-4.102-1.217-6.705-2.028-9.7-1.825-6.736-4.83-4.49-5.82-11.308A27 27 0 0 1 13 3H4v11.03A4.98 4.98 0 0 1 8 12" opacity=".25"/><path d="M19.08 24.974c-.143-.678-.231-1.333-.34-2.186l.991-.127c.106.828.192 1.465.328 2.106zm.017-6.673-.965.262a12 12 0 0 1 .367 2.053l.996-.097a13 13 0 0 0-.398-2.218m-1.855-4.109-.797.604a8 8 0 0 1 1.001 1.77l.924-.38a8.8 8.8 0 0 0-1.128-1.994m-1.498-1.65a8 8 0 0 1-1.26-1.606l-.865.502a9 9 0 0 0 1.406 1.8zm-3-3.217.961-.275a16 16 0 0 1-.429-2.058l-.99.145a17 17 0 0 0 .458 2.188M4 9h1V7H4zm0-6v2h1V4h1V3zm4 1h2V3H8zm7 24h2v-1h-2zM4 13h1v-2H4zm8.057-8.066.998-.067c-.021-.31-.045-.622-.055-.972S13 3 13 3h-1s-.011.635 0 1 .037.636.057.934M19 28h2v-1h-2zM9 25v-1H8v-1H7v5h1v-1h1v-1H8v-1zm6-22v.84l.009.16H28v5.97a14.3 14.3 0 0 0-8.996 3.411 8 8 0 0 1 .454.932A13.2 13.2 0 0 1 28 10.97V27h-5v1h6V3zm-1 19v7a1.003 1.003 0 0 1-1 1H3a1.003 1.003 0 0 1-1-1v-7a1.003 1.003 0 0 1 1-1h1v-4a4 4 0 0 1 8 0v3H9v-3a1 1 0 0 0-2 0v4h6a1.003 1.003 0 0 1 1 1m-9-1h1v-4a2 2 0 0 1 4 0v2h1v-2a3 3 0 0 0-6 0zm8 1H3v7h10z"/><path fill="none" d="M0 0h32v32H0z"/></svg>