<svg xmlns="http://www.w3.org/2000/svg" viewBox="0 0 16 16"><path d="M9.542 8.803a15 15 0 0 0-.852-2.156A7.7 7.7 0 0 1 7 1H1v6.788A2.984 2.984 0 0 1 5.966 9.71l.04.42.329.263A1.74 1.74 0 0 1 7 11.75V15h4v-1.246c-1.417-2.834-1.035-3.317-1.458-4.951" opacity=".25"/><path d="M15 1v14h-3v-1h2V6.026a6.87 6.87 0 0 0-3.739 1.67l-.265-.636c-.053-.128-.104-.23-.156-.342a7.95 7.95 0 0 1 4.16-1.7V2H8V1zM6.104 2.955l.993-.125A25 25 0 0 1 7 1.876V1H5v1h1.008q.043.525.096.955m2.02 2.83a4.4 4.4 0 0 1-.568-.946l-.922.389a5.4 5.4 0 0 0 .68 1.143 8 8 0 0 1 .505.767l.871-.49a9 9 0 0 0-.566-.864zm.83 5.41.977-.214c-.07-.324-.11-.609-.15-.894a11 11 0 0 0-.239-1.284l-.969.252a10 10 0 0 1 .217 1.17c.044.31.087.619.164.97m.757 2.181c.086.19.195.41.3.624H8v1h3v-1.246a22 22 0 0 1-.377-.79zM2 5H1v2h1zM1 1v2h1V2h1V1zm6.972 8.094.026.013-.019-.027zM6 11.75v3.5a.75.75 0 0 1-.75.75H.75a.75.75 0 0 1-.75-.75v-3.5A.75.75 0 0 1 .75 11H1v-1a2 2 0 0 1 4 0v1h.25a.75.75 0 0 1 .75.75M2 11h2v-1a1 1 0 0 0-2 0zm3 1H1v3h4zm-1 1H2v1h2z"/><path fill="none" d="M0 0h16v16H0z"/></svg>