<svg xmlns="http://www.w3.org/2000/svg" viewBox="0 0 16 16"><path fill="none" d="M0 0h16v16H0z"/><path d="M10 3H6V2h4zm0 2V4H7v1zM8 8.355v2.551l1-1v-1.55a2.7 2.7 0 0 0-1.947-2.57L1 4.45V1h9.375c.345 0 .625.28.625.625v6.28l.04-.04a1.5 1.5 0 0 1 .96-.432V1.625C12 .729 11.271 0 10.375 0h-9.5A.876.876 0 0 0 0 .875v13.25c0 .482.393.875.875.875H5.6c.02-.248.081-.462.15-.624L5.918 14H1V5.474l5.803 1.279A1.68 1.68 0 0 1 8 8.355m6.413 2.092-1.905-1.905 1.234-1.234a.95.95 0 0 1 1.342-.001l.563.564a.943.943 0 0 1-.001 1.343zm-.506-1.92.506.506.527-.527-.562-.491zm1.519 4.563c-.002 0-2.757.005-3.26.83-.155.255-.174.55-.045.867-.36.146-1.374.131-2.228.096l.061-.027 3.755-3.704-.707-.707-3.53 3.53-.86.369.368-.86 3.53-3.53-.706-.708-3.599 3.599-.898 2.13a.54.54 0 0 0 .015.412.49.49 0 0 0 .312.374l.184.034c.388 0 .807.026 1.304.052.652.034 1.23.06 1.73.06 1.136 0 1.87-.134 2.175-.598.1-.153.235-.474-.007-.868.16-.226 1.333-.455 2.413-.468.275-.004.496-.195.493-.471-.004-.274-.227-.412-.5-.412M3 3V2H2v1zm0 4H2v1h1zm-1 6h1v-1H2z"/></svg>