<?xml version="1.0" encoding="UTF-8"?><svg id="icons" xmlns="http://www.w3.org/2000/svg" viewBox="0 0 24 24"><defs><style>.cls-1{fill:none;}</style></defs><rect class="cls-1" width="24" height="24"/><path d="M3,5v-2h2v2h-2ZM14,9v-1h-4v1h4ZM14,6h-7v1h7v-1ZM12.55084,19.01166l-10.56061.00397-.00385-11.24329,8.8681,3.12024c1.26367.36133,2.14551,1.53027,2.14551,2.84375v4.82617l1-1v-3.82617c0-1.75781-1.18066-3.32227-2.8418-3.7959L1.98602,6.7121l-.00165-4.72186h11.58008c.79688,0,1.44531.64844,1.44531,1.44531v13.11719l.98047-.98047V3.43555c0-1.33691-1.08887-2.42578-2.42578-2.42578H1.98438c-.53711,0-.97461.4375-.97461.97461v17.03125c0,.53711.4375.97461.97461.97461h9.83685l.08405-.19043c.07617-.17285.18164-.32617.31348-.45605l.33209-.33209ZM14,4h-6v1h6v-1ZM23.91309,13.92676c0,.2832-.11133.5498-.31152.74902l-1.54297,1.54395-2.29395-2.29395,1.54297-1.54395c.41602-.41406,1.08789-.41406,1.5,0l.79395.79395c.20117.2002.31152.46777.31152.75098ZM22.89453,13.88281l-.87988-.79395-.83594.83691.86035.86035.85547-.90332ZM18.12207,21.21973c-.20898.36133-.20996.78125-.00293,1.19336-.33887.24219-1.64844.51172-2.88379.58691h-.26312l.44574-.19043,5.93848-5.88867-.70508-.70508-5.71484,5.71387-1.5459.66016.66016-1.5459,5.71387-5.71484-.70508-.70508-5.78223,5.78223-1.21582,2.69092c-.0918.21875-.04297.46777.12402.63379l.37657.16355,2.70253.10452c.9834-.05859,3.32031-.28906,3.79004-1.1582.14453-.26562.13574-.56445-.02344-.84277-.10156-.17676-.0625-.24414-.04395-.27734.20215-.34961,1.31934-.82153,2.99023-.82153v-.89917c-.73828,0-3.2002.08789-3.85547,1.21973ZM5,10h-2v2h2v-2ZM3,18h2v-2h-2v2Z"/></svg>