<?xml version="1.0" encoding="UTF-8"?><svg id="icons" xmlns="http://www.w3.org/2000/svg" viewBox="0 0 32 32"><defs><style>.cls-1{fill:none;}</style></defs><rect class="cls-1" width="32" height="32"/><path d="M19,7h-7v-1h7v1ZM19,11v-1h-6v1h6ZM19,8h-9v1h9v-1ZM7,23.5c0,.82843-.67157,1.5-1.5,1.5s-1.5-.67157-1.5-1.5.67157-1.5,1.5-1.5,1.5.67157,1.5,1.5ZM6,23h-1v1h1v-1ZM28.91406,21.71094l-2.67676-2.67676,1.68945-1.68945c.47266-.47266,1.29492-.47266,1.76758,0l.93945.93945c.23535.23438.36621.54883.36621.88281s-.12988.64844-.36621.88477l-1.69244,1.69244c-.00989-.0105-.01703-.02301-.02728-.03326ZM28.81055,20.46094l1.11621-1.11621c.06348-.06348.07324-.13867.07324-.17773,0-.03809-.00977-.1123-.07227-.1748l-.94043-.94043c-.09766-.09766-.25586-.09766-.35352,0l-1.11621,1.11621,1.29297,1.29297ZM7,15.5c0,.82843-.67157,1.5-1.5,1.5s-1.5-.67157-1.5-1.5.67157-1.5,1.5-1.5,1.5.67157,1.5,1.5ZM6,15h-1v1h1v-1ZM5.5,5c.82843,0,1.5.67157,1.5,1.5s-.67157,1.5-1.5,1.5-1.5-.67157-1.5-1.5.67157-1.5,1.5-1.5ZM6,6h-1v1h1v-1ZM17.24384,26l.00909-.02051c.0752-.16992.18066-.32324.31152-.4541l.43555-.43555v-6.67969c0-2.12891-1.42578-4.03809-3.49219-4.65039l-11.50781-2.75195V3.25c0-.1377.1123-.25.25-.25h16c.96484,0,1.75.78516,1.75,1.75v17.33984l1-1V4.75c0-1.5166-1.2334-2.75-2.75-2.75H3.25c-.68945,0-1.25.56055-1.25,1.25v23.5c0,.68945.56055,1.25,1.25,1.25h13.09814l.42841-1H3.25c-.1377,0-.25-.1123-.25-.25v-14.71399l11.24902,2.68958c1.62012.48047,2.75098,1.99512,2.75098,3.68457v7.58984h.24384ZM30.2793,27.03729c-1.0791-.06152-4.64746-.18085-5.44727,1.03204-.22754.34473-.23828.76465-.0293,1.18164.03516.07031.08887.19824.05078.25781-.36737.57465-3.23602.5304-5.05103.479l1.37329-.58838,6.67773-6.62793-.70703-.70703-6.45312,6.45312-2.26367.96973.9707-2.2627,6.45312-6.45312-.70703-.70703-6.52148,6.52148-1.51562,3.42535c-.06458.15558-.03699.3172.02954.46454.02826.24945.23193.44562.48901.44562.52246,0,1.12598.01855,1.75977.03711.79199.02344,1.52246.04102,2.18555.04102,2.1748,0,3.62402-.17047,4.12305-.9527.15918-.24902.28906-.66699.00098-1.24316-.06543-.13086-.04102-.16895-.03027-.18457.32422-.49316,2.61914-.74011,4.55371-.62878.27051.02344.51172-.15833.52832-.43372.01562-.27637-.19434-.50372-.46973-.51935Z"/></svg>