<svg xmlns="http://www.w3.org/2000/svg" viewBox="0 0 24 24"><path d="M9 14H8v-4h11v1h-8a2 2 0 0 0-2 2z" style="opacity:.5"/><path d="M7 19H2V5h5z" style="opacity:.25"/><path d="M9 19H8v-4h1v-1H8v-4h5v1h1v-1h5v1h1V2a1 1 0 0 0-1-1H2a1 1 0 0 0-1 1v17a1 1 0 0 0 1 1h7zm4-10H8V5h5zm6 0h-5V5h5zM2 2h17v2H2zm5 17H2v-4h5zm0-5H2v-4h5zm0-5H2V5h5zm16 3H11a1 1 0 0 0-1 1v10a1 1 0 0 0 1 1h12a1 1 0 0 0 1-1V13a1 1 0 0 0-1-1m0 11H11V13h12zm-8-1h-3v-8h3v1h-2v6h2zm7-8v8h-3v-1h2v-6h-2v-1zm-2 3h-6v-1h6zm0 2h-6v-1h6z"/><path d="M0 0h24v24H0z" style="fill:none"/></svg>