<?xml version="1.0" encoding="UTF-8"?><svg id="icons" xmlns="http://www.w3.org/2000/svg" viewBox="0 0 32 32"><defs><style>.cls-1{fill:none;}.cls-2{opacity:.5;}.cls-3{opacity:.25;}</style></defs><path class="cls-3" d="M9,23H3V6h6v17Z"/><path class="cls-2" d="M12,17h-2v-5h13v2h-9c-1.10254,0-2,.89746-2,2v1Z"/><rect class="cls-1" width="32" height="32"/><path d="M27,19h-2v-1h3v9h-3v-1h2v-7ZM26,20h-8v1h8v-1ZM10,17h2v1h-2v5h2v1H2.99902c-.55371,0-.99902-.44733-.99902-1V3c0-.55273.44531-1,.99902-1h20.00195c.55371,0,.99902.44727.99902,1v11h-1v-2h-6v2h-1v-2h-6v5ZM16,6h-6v5h6v-5ZM23,6h-6v5h6v-5ZM9,18H3v5h6v-5ZM9,12H3v5h6v-5ZM9,6H3v5h6v-5ZM23,5v-2H3v2h20ZM31,16v13c0,.55225-.44769,1-1,1H14c-.55231,0-1-.44775-1-1v-13c0-.55231.44769-1,1-1h16c.55231,0,1,.44769,1,1ZM30,16H14v13h16v-13ZM19,26h-2v-7h2v-1h-3v9h3v-1ZM18,23h8v-1h-8v1ZM18,25h8v-1h-8v1Z"/></svg>