<?xml version="1.0" encoding="UTF-8"?><svg id="icons" xmlns="http://www.w3.org/2000/svg" viewBox="0 0 16 16"><defs><style>.cls-1{fill:none;}.cls-2{opacity:.5;}.cls-3{opacity:.25;}</style></defs><path class="cls-3" d="M3,9H1v-5h2v5Z"/><path d="M4,4h5v1h1V1H0v9h4v-3c0-.36584.10596-.70459.27826-1h-.27826v-2ZM3,9H1v-2h2v2ZM3,6H1v-2h2v2ZM1,3v-1h8v1H1ZM14,14h-2v-1h1v-4h-1v-1h2v6ZM6,5v-.99902h1v.99902h-1ZM15,6H6c-.55219,0-1,.44727-1,1v8c0,.55267.44781,1,1,1h9c.55219,0,1-.44733,1-1V7c0-.55273-.44781-1-1-1ZM15,15H6V7h9v8ZM9,14h-2v-6h2v1h-1v4h1v1Z"/><path class="cls-2" d="M4.27826,6h-.27826v-2h5v1h-3c-.737,0-1.37482.40521-1.72174,1Z"/><rect class="cls-1" width="16" height="16"/></svg>