<?xml version="1.0" encoding="UTF-8"?><svg id="icons" xmlns="http://www.w3.org/2000/svg" viewBox="0 0 24 24"><defs><style>.cls-1{fill:none;}.cls-2{opacity:.5;}.cls-3{opacity:.25;}</style></defs><path class="cls-2" d="M9,14h-1v-4h11v1h-8c-1.10455,0-2,.89539-2,2v1Z"/><path class="cls-3" d="M7,19H2V5h5v14Z"/><path d="M9,19h-1v-4h1v-1h-1v-4h5v1h1v-1h5v1h1V2c0-.55231-.44769-1-1-1H2c-.55231,0-1,.44769-1,1v17c0,.55225.44769,1,1,1h7v-1ZM13,9h-5v-4h5v4ZM19,9h-5v-4h5v4ZM2,2h17v2H2v-2ZM7,19H2v-4h5v4ZM7,14H2v-4h5v4ZM7,9H2v-4h5v4ZM23,12h-12c-.55231,0-1,.44769-1,1v10c0,.55225.44769,1,1,1h12c.55231,0,1-.44775,1-1v-10c0-.55231-.44769-1-1-1ZM23,23h-12v-10h12v10ZM15,22h-3v-8h3v1h-2v6h2v1ZM22,14v8h-3v-1h2v-6h-2v-1h3ZM20,17h-6v-1h6v1ZM20,19h-6v-1h6v1Z"/><rect class="cls-1" width="24" height="24"/></svg>