<svg xmlns="http://www.w3.org/2000/svg" viewBox="0 0 32 32"><path d="M9 23H3V6h6z" style="opacity:.25"/><path d="M12 17h-2v-5h13v2h-9c-1.103 0-2 .897-2 2z" style="opacity:.5"/><path d="M0 0h32v32H0z" style="fill:none"/><path d="M27 19h-2v-1h3v9h-3v-1h2zm-1 1h-8v1h8zm-16-3h2v1h-2v5h2v1H2.999A1 1 0 0 1 2 23V3c0-.553.445-1 .999-1h20.002c.554 0 .999.447.999 1v11h-1v-2h-6v2h-1v-2h-6zm6-11h-6v5h6zm7 0h-6v5h6zM9 18H3v5h6zm0-6H3v5h6zm0-6H3v5h6zm14-1V3H3v2zm8 11v13a1 1 0 0 1-1 1H14a1 1 0 0 1-1-1V16a1 1 0 0 1 1-1h16a1 1 0 0 1 1 1m-1 0H14v13h16zM19 26h-2v-7h2v-1h-3v9h3zm-1-3h8v-1h-8zm0 2h8v-1h-8z"/></svg>