<?xml version="1.0" encoding="UTF-8"?><svg id="icons" xmlns="http://www.w3.org/2000/svg" viewBox="0 0 16 16"><defs><style>.cls-1{fill:none;}</style></defs><path d="M3,2H1c-.55176,0-1,.44824-1,1v5c0,.55176.44824,1,1,1h2c.55176,0,1-.44824,1-1V3c0-.55176-.44824-1-1-1ZM1,8V3h2v5H1ZM5,8h1v1h-1v-1ZM9,10h2v1h-1v4h1v1h-2v-6ZM10,2h-2c-.55176,0-1,.44824-1,1v5c0,.55176.44824,1,1,1h2c.55176,0,1-.44824,1-1V3c0-.55176-.44824-1-1-1ZM10,8h-2V3h2v5ZM16,8v1h-4v-1h2V3h-2v-1h3v6h1ZM14,10h2v6h-2v-1h1v-4h-1v-1Z"/><rect class="cls-1" width="16" height="16"/></svg>