<svg xmlns="http://www.w3.org/2000/svg" viewBox="0 0 32 32"><path d="M19.5 9h-4c-.827 0-1.5.673-1.5 1.5v11c0 .827.673 1.5 1.5 1.5h4c.827 0 1.5-.673 1.5-1.5v-11c0-.827-.673-1.5-1.5-1.5zm.5 12.5a.5.5 0 0 1-.5.5h-4a.5.5 0 0 1-.5-.5v-11a.5.5 0 0 1 .5-.5h4a.5.5 0 0 1 .5.5v11zM7.5 9h-4C2.673 9 2 9.673 2 10.5v11c0 .827.673 1.5 1.5 1.5h4c.827 0 1.5-.673 1.5-1.5v-11C9 9.673 8.327 9 7.5 9zM8 21.5a.5.5 0 0 1-.5.5h-4a.5.5 0 0 1-.5-.5v-11a.5.5 0 0 1 .5-.5h4a.5.5 0 0 1 .5.5v11zm3 .5h1v1h-1v-1zm19 0v1h-7v-1h3V10h-3V9h4v13h3z" stroke-width="0"/><path stroke-width="0" fill="none" d="M0 0h32v32H0z"/></svg>