<?xml version="1.0" encoding="UTF-8"?><svg id="icons" xmlns="http://www.w3.org/2000/svg" viewBox="0 0 32 32"><defs><style>.cls-1{fill:none;}</style></defs><path d="M21,6.5c0-.82715-.67285-1.5-1.5-1.5h-4c-.82715,0-1.5.67285-1.5,1.5v11c0,.82715.67285,1.5,1.5,1.5h4c.82715,0,1.5-.67285,1.5-1.5V6.5ZM20,17.5c0,.27539-.22461.5-.5.5h-4c-.27539,0-.5-.22461-.5-.5V6.5c0-.27539.22461-.5.5-.5h4c.27539,0,.5.22461.5.5v11ZM7.5,5H3.5c-.82715,0-1.5.67285-1.5,1.5v11c0,.82715.67285,1.5,1.5,1.5h4c.82715,0,1.5-.67285,1.5-1.5V6.5c0-.82715-.67285-1.5-1.5-1.5ZM8,17.5c0,.27539-.22461.5-.5.5H3.5c-.27539,0-.5-.22461-.5-.5V6.5c0-.27539.22461-.5.5-.5h4c.27539,0,.5.22461.5.5v11ZM11,18h1v1h-1v-1ZM30,19h-7v-1h3V6h-3v-1h4v13h3v1ZM21,21h3v1h-2v9h2v1h-3v-11ZM32,21v11h-3v-1h2v-9h-2v-1h3Z"/><rect class="cls-1" width="32" height="32"/></svg>