<?xml version="1.0" encoding="UTF-8"?><svg id="icons" xmlns="http://www.w3.org/2000/svg" viewBox="0 0 24 24"><defs><style>.cls-1{fill:none;}</style></defs><path d="M4.75,2h-2.5c-.68945,0-1.25.56055-1.25,1.25v8.5c0,.68945.56055,1.25,1.25,1.25h2.5c.68945,0,1.25-.56055,1.25-1.25V3.25c0-.68945-.56055-1.25-1.25-1.25ZM5,11.75c0,.1377-.1123.25-.25.25h-2.5c-.1377,0-.25-.1123-.25-.25V3.25c0-.1377.1123-.25.25-.25h2.5c.1377,0,.25.1123.25.25v8.5ZM24,15v9h-3v-1h2v-7h-2v-1h3ZM8,12h1v1h-1v-1ZM16,11.75V3.25c0-.68945-.56055-1.25-1.25-1.25h-2.5c-.68945,0-1.25.56055-1.25,1.25v8.5c0,.68945.56055,1.25,1.25,1.25h2.5c.68945,0,1.25-.56055,1.25-1.25ZM12,11.75V3.25c0-.1377.1123-.25.25-.25h2.5c.1377,0,.25.1123.25.25v8.5c0,.1377-.1123.25-.25.25h-2.5c-.1377,0-.25-.1123-.25-.25ZM14,15h3v1h-2v7h2v1h-3v-9ZM23,13h-5v-1h2V3h-2v-1h3v10h2v1Z"/><rect class="cls-1" width="24" height="24"/></svg>