<svg xmlns="http://www.w3.org/2000/svg" viewBox="0 0 32 32"><path d="M21 6.5c0-.827-.673-1.5-1.5-1.5h-4c-.827 0-1.5.673-1.5 1.5v11c0 .827.673 1.5 1.5 1.5h4c.827 0 1.5-.673 1.5-1.5zm-1 11c0 .275-.225.5-.5.5h-4a.5.5 0 0 1-.5-.5v-11c0-.275.225-.5.5-.5h4c.275 0 .5.225.5.5zM7.5 5h-4C2.673 5 2 5.673 2 6.5v11c0 .827.673 1.5 1.5 1.5h4c.827 0 1.5-.673 1.5-1.5v-11C9 5.673 8.327 5 7.5 5M8 17.5c0 .275-.225.5-.5.5h-4a.5.5 0 0 1-.5-.5v-11c0-.275.225-.5.5-.5h4c.275 0 .5.225.5.5zm3 .5h1v1h-1zm19 1h-7v-1h3V6h-3V5h4v13h3zm-9 2h3v1h-2v9h2v1h-3zm11 0v11h-3v-1h2v-9h-2v-1z"/><path fill="none" d="M0 0h32v32H0z"/></svg>