<svg xmlns="http://www.w3.org/2000/svg" viewBox="0 0 16 16"><path d="M1 3H0V0h1zm3-1h5v2h3v1l2-1.5L12 2v1h-2V1H4V0L2 1.5 4 3zm11 0v3h1V2zm-5 13h6v1H0v-4.629a1.37 1.37 0 0 1 1.132-1.347L1.14 10H0V9h1.473l.44-1.316A1 1 0 0 1 2.86 7h4.28a1 1 0 0 1 .948.684L8.528 9H10v1H8.86l.009.024A1.37 1.37 0 0 1 10 11.371zm-7.806-5h5.612L7.14 8H2.86zM8 14H2v1h6zm1-2.629A.37.37 0 0 0 8.629 11H1.37a.37.37 0 0 0-.371.371V13H2.06a.7.7 0 0 1-.06-.286V12h.714l.5 1h3.572l.5-1H8v.714a.7.7 0 0 1-.061.286H9z"/><path fill="none" d="M0 0h16v16H0z"/></svg>