<svg xmlns="http://www.w3.org/2000/svg" viewBox="0 0 32 32"><path d="M30 7v5h-1V7zM3 3H2v5h1zm4 3h8v4h10v2.19l3.058-2.69L25 6.81V9h-9V5H7V2.81L3.942 5.5 7 8.19zm10 17h2v1a1 1 0 0 1-1 1h-2zM5 23v1a1 1 0 0 0 1 1h2l-1-2zm4 2h6v-1H9zm12 4v-6.477A4.1 4.1 0 0 0 20.489 21h.011a.5.5 0 0 0 .5-.5V19h-2.286l-1.517-3.54A.82.82 0 0 0 16.5 15h-9a.82.82 0 0 0-.697.46L5.286 19H3v1.5a.5.5 0 0 0 .5.5 4.2 4.2 0 0 0-.5 1.522V29H2v1h28v-1zM7.66 16h8.68l1.715 4H5.945zM5 29H4v-1.79a2 2 0 0 0 .613.235c.118.024.254.048.387.071zm13 0H6v-1.331A46 46 0 0 0 12 28a46 46 0 0 0 6.001-.331zm2 0h-1v-1.484c.133-.023.269-.047.387-.07A2 2 0 0 0 20 27.21zm0-3.532a1.015 1.015 0 0 1-.808.997A44 44 0 0 1 12 27.1a44.4 44.4 0 0 1-7.192-.635A1.015 1.015 0 0 1 4 25.468v-2.946a1.53 1.53 0 0 1 .524-1.156 1.5 1.5 0 0 1 .568-.307L5.296 21h13.406l.205.06a1.5 1.5 0 0 1 .568.308A1.53 1.53 0 0 1 20 22.522z"/><path fill="none" d="M0 0h32v32H0z"/></svg>