<svg xmlns="http://www.w3.org/2000/svg" viewBox="0 0 16 16"><path d="M12.55 0A3.526 3.526 0 0 0 9 3.5 3.526 3.526 0 0 0 12.55 7 3.44 3.44 0 0 0 16 3.5 3.44 3.44 0 0 0 12.55 0m-.05 6a2.5 2.5 0 0 1-.5-4.95V4h2V3h-1V1.05A2.5 2.5 0 0 1 12.5 6M10 15v-3.629a1.37 1.37 0 0 0-1.131-1.347L8.86 10H10V9H8.527l-.439-1.316A1 1 0 0 0 7.14 7H2.86a1 1 0 0 0-.948.684L1.473 9H0v1h1.14l-.008.024A1.37 1.37 0 0 0 0 11.371V16h16v-1zm-2.714-3-.5 1H3.214l-.5-1H2v.714a.7.7 0 0 0 .061.286H1v-1.629A.37.37 0 0 1 1.371 11H8.63a.37.37 0 0 1 .371.371V13H7.939A.7.7 0 0 0 8 12.714V12zM2.86 8h4.28l.666 2H2.194zM2 15v-1h6v1z"/><path fill="none" d="M0 0h16v16H0z"/></svg>