<svg xmlns="http://www.w3.org/2000/svg" viewBox="0 0 32 32"><path d="M21.177 8.56a2.7 2.7 0 0 1-.793-.608l1.433-1.876a1.5 1.5 0 1 1 2.36 1.854l-.796 1.044c-.13.011-.258.026-.386.026a4 4 0 0 1-.824-.091l1.217-1.593a.5.5 0 1 0-.782-.626zM8.07 26.179a1.5 1.5 0 0 0 2.108-.248l1.46-1.85a2.6 2.6 0 0 0-.781-.624L9.394 25.31a.445.445 0 0 1-.704.084.5.5 0 0 1-.083-.705l1.257-1.591A4 4 0 0 0 9.005 23c-.119 0-.238.014-.357.024l-.826 1.046a1.504 1.504 0 0 0 .248 2.108zm19.216-3.407a1.5 1.5 0 0 0-.515-2.057l-1.146-.688c-.067.006-.135.005-.202.014a3.8 3.8 0 0 0-1.14.347l1.975 1.184a.5.5 0 0 1 .227.308.5.5 0 0 1-.056.379.51.51 0 0 1-.687.17l-2.324-1.393a2 2 0 0 0-.147.161 1.4 1.4 0 0 0-.266.757l2.224 1.333a1.543 1.543 0 0 0 2.057-.515M5.636 8.544a1.5 1.5 0 0 0-.407 2.742l1.146.688c.068-.006.136-.005.202-.014a3.8 3.8 0 0 0 1.14-.347L5.741 10.43a.5.5 0 0 1-.227-.308.5.5 0 0 1 .364-.606A.5.5 0 0 1 6 9.499a.5.5 0 0 1 .258.072l2.323 1.394a2 2 0 0 0 .148-.161 1.4 1.4 0 0 0 .266-.757L6.772 8.714a1.5 1.5 0 0 0-1.136-.17m25.282 12.738a3.34 3.34 0 0 1-.544 2.66 5.07 5.07 0 0 1-3.524 2 6 6 0 0 1-.845.057c-2.37 0-4.487-1.36-4.923-3.281a3.25 3.25 0 0 1 .134-1.84l-2.121-1.272a3.54 3.54 0 0 0-4.587.84l-1.63 2.063a3.65 3.65 0 0 1 1.04 1.773 3.34 3.34 0 0 1-.544 2.66 5.07 5.07 0 0 1-3.524 2 6 6 0 0 1-.845.057c-2.37 0-4.487-1.36-4.923-3.281a3.34 3.34 0 0 1 .544-2.66 5.07 5.07 0 0 1 3.524-2 6.2 6.2 0 0 1 2.006.055l1.194-1.511a3.53 3.53 0 0 0-.953-5.215l-1.714-1.028a5.8 5.8 0 0 1-1.833.582 6 6 0 0 1-.845.058c-2.37 0-4.487-1.36-4.923-3.281a3.34 3.34 0 0 1 .544-2.66 5.07 5.07 0 0 1 3.524-2c2.694-.374 5.28 1.077 5.768 3.224a3.25 3.25 0 0 1-.133 1.84l2.214 1.328a3.53 3.53 0 0 0 4.622-.883l1.54-2.016a3.67 3.67 0 0 1-1.079-1.833 3.34 3.34 0 0 1 .544-2.66 5.07 5.07 0 0 1 3.524-2c2.695-.37 5.282 1.077 5.768 3.224a3.34 3.34 0 0 1-.544 2.66 5.07 5.07 0 0 1-3.524 2 6 6 0 0 1-.845.057 6 6 0 0 1-1.088-.108l-1.223 1.6a3.53 3.53 0 0 0 .99 5.17l1.633.98a5.8 5.8 0 0 1 1.833-.582c2.692-.373 5.28 1.076 5.768 3.223m-1.366 2.091a2.32 2.32 0 0 0 .391-1.87c-.334-1.47-2.021-2.504-3.931-2.504a5 5 0 0 0-.725.05 4.08 4.08 0 0 0-2.839 1.578 2.32 2.32 0 0 0-.391 1.87c.376 1.653 2.47 2.75 4.656 2.454a4.08 4.08 0 0 0 2.839-1.578m-5.84-13.422a4.08 4.08 0 0 0 2.84-1.578 2.32 2.32 0 0 0 .391-1.87c-.334-1.47-2.021-2.504-3.931-2.504a5 5 0 0 0-.725.05 4.08 4.08 0 0 0-2.839 1.578 2.32 2.32 0 0 0-.391 1.87c.376 1.654 2.468 2.752 4.656 2.454zm-17 3a4.08 4.08 0 0 0 2.84-1.578 2.32 2.32 0 0 0 .391-1.87c-.334-1.47-2.021-2.504-3.931-2.504a5 5 0 0 0-.725.05 4.08 4.08 0 0 0-2.839 1.578 2.32 2.32 0 0 0-.391 1.87c.376 1.654 2.47 2.753 4.656 2.454zm6.231 11.552c-.334-1.47-2.021-2.504-3.931-2.504a5 5 0 0 0-.725.05 4.08 4.08 0 0 0-2.839 1.578 2.32 2.32 0 0 0-.391 1.87c.376 1.653 2.471 2.75 4.656 2.454a4.08 4.08 0 0 0 2.839-1.578 2.32 2.32 0 0 0 .391-1.87m6.665-5.754 2.075 1.245a4.2 4.2 0 0 1 .702-.746l-1.215-.73a4.53 4.53 0 0 1-1.27-6.634l.98-1.283a5.4 5.4 0 0 1-.922-.444l-1.542 2.018a4.53 4.53 0 0 1-5.93 1.133l-2.17-1.301a4.2 4.2 0 0 1-.701.745l1.295.777a4.53 4.53 0 0 1 1.225 6.693l-.947 1.198a5.3 5.3 0 0 1 .909.465l1.626-2.059a4.54 4.54 0 0 1 5.885-1.077"/><path fill="none" d="M0 0h32v32H0z"/></svg>