<svg xmlns="http://www.w3.org/2000/svg" viewBox="0 0 16 16"><path d="M5.95 4.045a3.016 3.016 0 0 0-3.454-2.01 3.04 3.04 0 0 0-2.093 1.21 2.16 2.16 0 0 0-.353 1.71A2.925 2.925 0 0 0 3.006 7a4 4 0 0 0 .498-.035 3.3 3.3 0 0 0 1.235-.429 2.75 2.75 0 0 1 1.285 1.846 2.5 2.5 0 0 1-.394 1.813 3.5 3.5 0 0 0-1.634-.16 3.04 3.04 0 0 0-2.093 1.21 2.16 2.16 0 0 0-.353 1.71A2.925 2.925 0 0 0 4.506 15a4 4 0 0 0 .498-.035 3.04 3.04 0 0 0 2.093-1.21 2.16 2.16 0 0 0 .353-1.71 2.4 2.4 0 0 0-.872-1.334 3.43 3.43 0 0 1 3.885-.534c-.018.024-.043.043-.06.068a2.16 2.16 0 0 0-.353 1.71A2.925 2.925 0 0 0 13.006 14a4 4 0 0 0 .498-.035 3.04 3.04 0 0 0 2.093-1.21 2.16 2.16 0 0 0 .353-1.71 3.02 3.02 0 0 0-3.454-2.01 3.3 3.3 0 0 0-1.235.428 2.75 2.75 0 0 1-1.285-1.845 2.5 2.5 0 0 1 .394-1.813A3.5 3.5 0 0 0 11.506 6a4 4 0 0 0 .498-.035 3.04 3.04 0 0 0 2.093-1.21 2.16 2.16 0 0 0 .353-1.71 3.016 3.016 0 0 0-3.454-2.01 3.04 3.04 0 0 0-2.093 1.21 2.16 2.16 0 0 0-.353 1.71 2.4 2.4 0 0 0 .873 1.332 3.44 3.44 0 0 1-3.886.536c.018-.024.043-.044.06-.068a2.16 2.16 0 0 0 .353-1.71m3.008 2.758a3.5 3.5 0 0 0 .032.988 3.6 3.6 0 0 0 .347 1.028 4.55 4.55 0 0 0-2.295.378 3.5 3.5 0 0 0-.032-.988 3.6 3.6 0 0 0-.347-1.028 4.5 4.5 0 0 0 2.295-.378m-5.594-.828A2.044 2.044 0 0 1 1.026 4.74a1.17 1.17 0 0 1 .199-.925 2.04 2.04 0 0 1 1.41-.79 2.04 2.04 0 0 1 2.34 1.235 1.17 1.17 0 0 1-.199.925 2 2 0 0 1-.11.122l-1.398-.881a.5.5 0 0 0-.534.845l.986.621a2.5 2.5 0 0 1-.355.083zm2.911 7.21a2.04 2.04 0 0 1-1.41.79 2.04 2.04 0 0 1-2.339-1.235 1.17 1.17 0 0 1 .199-.925 2.04 2.04 0 0 1 1.41-.79 2.6 2.6 0 0 1 .856.028l-.887 1.14a.5.5 0 1 0 .79.614l1.043-1.342a1.4 1.4 0 0 1 .537.795 1.17 1.17 0 0 1-.199.925m6.36-3.16a2.04 2.04 0 0 1 2.339 1.235 1.17 1.17 0 0 1-.199.925 2.04 2.04 0 0 1-1.41.79 2.04 2.04 0 0 1-2.339-1.235 1.17 1.17 0 0 1 .199-.925 2 2 0 0 1 .11-.122l1.398.881a.5.5 0 0 0 .267.077.5.5 0 0 0 .267-.922l-.986-.621a2.5 2.5 0 0 1 .355-.083zm-2.91-7.21a2.04 2.04 0 0 1 1.41-.79 2.04 2.04 0 0 1 2.339 1.235 1.17 1.17 0 0 1-.199.925 2.04 2.04 0 0 1-1.41.79 2.6 2.6 0 0 1-.856-.029l.887-1.14a.5.5 0 1 0-.79-.613l-1.043 1.341a1.4 1.4 0 0 1-.537-.794 1.17 1.17 0 0 1 .199-.925"/><path fill="none" d="M0 0h16v16H0z"/></svg>