<svg xmlns="http://www.w3.org/2000/svg" viewBox="0 0 32 32"><path d="m30.453 25.746-10-10 2.2-3.544a2.3 2.3 0 0 0 .347-1.22 2 2 0 0 0-.031-.306l2.677 2.678.707-.707-7-7-.707.707 2.678 2.677A2 2 0 0 0 21.018 9a2.3 2.3 0 0 0-1.221.348l-3.542 2.2L6.254 1.547a1.2 1.2 0 0 0-.854-.354 1.2 1.2 0 0 0-.853.354L2.413 3.68a1.2 1.2 0 0 0-.21 1.424 41.4 41.4 0 0 0 7.773 9.864l1.474 1.475-4.498 5.688-3.061-1.66a1 1 0 0 0-1.221.151L1.353 21.94a1.234 1.234 0 0 0-.187 1.508l2.504 4.175-1.524 1.523a.5.5 0 1 0 .707.707l1.524-1.523 4.175 2.504a1.23 1.23 0 0 0 1.508-.187l1.316-1.317a.99.99 0 0 0 .163-1.203l-1.67-3.08 5.688-4.497 1.466 1.467a41.5 41.5 0 0 0 9.875 7.782 1.2 1.2 0 0 0 1.422-.212l2.132-2.133a1.207 1.207 0 0 0 .001-1.708m-10.13-15.549a1.3 1.3 0 0 1 .695-.197.983.983 0 0 1 .982.982 1.3 1.3 0 0 1-.197.694l-2.077 3.343-2.745-2.745zm9.423 16.55-2.133 2.133a.21.21 0 0 1-.244.037 40.5 40.5 0 0 1-9.63-7.6l-2.104-2.103-7.045 5.57 2.08 3.838-1.317 1.318a.234.234 0 0 1-.288.037L5.106 27.6l1.748-1.747a.5.5 0 0 0-.707-.707l-1.748 1.747-2.376-3.96a.236.236 0 0 1 .037-.287l1.336-1.307 3.82 2.07 5.57-7.045-2.111-2.112a40.4 40.4 0 0 1-7.591-9.62.21.21 0 0 1 .036-.246l2.135-2.134a.207.207 0 0 1 .292 0l24.2 24.2a.2.2 0 0 1 .06.148.2.2 0 0 1-.06.145z"/><path fill="none" d="M0 0h32v32H0z"/></svg>