<svg xmlns="http://www.w3.org/2000/svg" viewBox="0 0 24 24"><path d="M6.504 21h-.006a1.5 1.5 0 0 1-1.177-2.428l.372-.472c.103-.023.201-.053.31-.067A4 4 0 0 1 6.504 18a4 4 0 0 1 .51.036l-.908 1.154a.5.5 0 0 0 .083.703.44.44 0 0 0 .703-.083l1.146-1.46a2.04 2.04 0 0 1 .775.634L7.68 20.427a1.5 1.5 0 0 1-1.176.572zM3.252 6.667a1.5 1.5 0 0 0 .416 2.08l.327.218a4 4 0 0 0 .5.034 4 4 0 0 0 .503-.033 3.6 3.6 0 0 0 .6-.134l-1.375-.917a.5.5 0 1 1 .554-.832l1.8 1.2a1.7 1.7 0 0 0 .242-.259.85.85 0 0 0 .16-.676L5.33 6.251a1.5 1.5 0 0 0-.842-.25 1.49 1.49 0 0 0-1.237.667zm17.496 11.664a1.5 1.5 0 0 0-.416-2.08l-.327-.218a4 4 0 0 0-.5-.034 4 4 0 0 0-.503.033 3.6 3.6 0 0 0-.6.134l1.375.917a.5.5 0 0 1 .139.693.51.51 0 0 1-.693.139l-1.8-1.2a1.7 1.7 0 0 0-.242.259.85.85 0 0 0-.16.676l1.648 1.098a1.54 1.54 0 0 0 2.079-.417M16.32 4.573l-1.134 1.443a2.04 2.04 0 0 0 .775.633l1.146-1.459a.5.5 0 0 1 .333-.187.48.48 0 0 1 .37.104.5.5 0 0 1 .083.703l-.908 1.154a4 4 0 0 0 .51.036 4 4 0 0 0 .503-.033c.108-.014.206-.044.31-.067l.37-.472a1.497 1.497 0 0 0-1.037-2.42l-.062-.003a2 2 0 0 0-.207.004q-.034.001-.067.004a1.5 1.5 0 0 0-.985.56m7.605 12.292a2.85 2.85 0 0 1-.46 2.296 4.56 4.56 0 0 1-3.205 1.79 6 6 0 0 1-.751.048c-2.133 0-4.04-1.187-4.434-2.864a2.8 2.8 0 0 1 .14-1.69l-1.475-.982a1.85 1.85 0 0 0-2.47.394l-1.206 1.535a3.14 3.14 0 0 1 .86 1.473 2.85 2.85 0 0 1-.46 2.296 4.56 4.56 0 0 1-3.204 1.79 6 6 0 0 1-.751.048c-2.133 0-4.04-1.187-4.434-2.864a2.85 2.85 0 0 1 .46-2.296 4.56 4.56 0 0 1 3.205-1.79 5.7 5.7 0 0 1 1.549.02l1.299-1.654a1.844 1.844 0 0 0-.426-2.67l-1.677-1.12a5.4 5.4 0 0 1-1.225.325 6 6 0 0 1-.751.049c-2.133 0-4.04-1.187-4.434-2.864a2.85 2.85 0 0 1 .46-2.296 4.56 4.56 0 0 1 3.205-1.79c2.418-.319 4.745.944 5.185 2.816a2.8 2.8 0 0 1-.14 1.69l1.475.982a1.85 1.85 0 0 0 2.47-.394l1.203-1.532a3.14 3.14 0 0 1-.858-1.476 2.85 2.85 0 0 1 .46-2.296 4.56 4.56 0 0 1 3.205-1.79c2.415-.32 4.745.944 5.185 2.816a2.85 2.85 0 0 1-.46 2.296 4.56 4.56 0 0 1-3.205 1.79 6 6 0 0 1-.751.048 6 6 0 0 1-.805-.058l-1.292 1.644a1.844 1.844 0 0 0 .426 2.67l1.677 1.12a5.4 5.4 0 0 1 1.225-.325c2.416-.322 4.745.943 5.185 2.815m-1.283 1.728a1.85 1.85 0 0 0 .31-1.5c-.29-1.23-1.765-2.094-3.44-2.094a5 5 0 0 0-.64.043 3.62 3.62 0 0 0-2.514 1.365 1.85 1.85 0 0 0-.31 1.5c.327 1.385 2.155 2.314 4.08 2.051a3.62 3.62 0 0 0 2.514-1.365M14.048 5.906c.327 1.386 2.151 2.315 4.08 2.052a3.62 3.62 0 0 0 2.514-1.365 1.85 1.85 0 0 0 .31-1.5C20.662 3.864 19.187 3 17.512 3a5 5 0 0 0-.64.043 3.62 3.62 0 0 0-2.514 1.365 1.85 1.85 0 0 0-.31 1.5zm-8.92 4.052a3.62 3.62 0 0 0 2.514-1.365 1.85 1.85 0 0 0 .31-1.5C7.662 5.864 6.187 5 4.512 5a5 5 0 0 0-.64.043 3.62 3.62 0 0 0-2.514 1.365 1.85 1.85 0 0 0-.31 1.5c.327 1.385 2.152 2.313 4.08 2.051zm4.824 9.136c-.29-1.23-1.765-2.095-3.44-2.095a5 5 0 0 0-.64.043 3.62 3.62 0 0 0-2.514 1.365 1.85 1.85 0 0 0-.31 1.5c.327 1.385 2.151 2.313 4.08 2.051a3.62 3.62 0 0 0 2.514-1.365 1.85 1.85 0 0 0 .31-1.5zm4.343-4.463 1.453.969a4 4 0 0 1 .763-.694l-1.227-.818a2.84 2.84 0 0 1-.659-4.12l1.02-1.299a5 5 0 0 1-.93-.433L13.516 9.76a2.857 2.857 0 0 1-3.812.61L8.252 9.4a4 4 0 0 1-.763.694l1.227.818a2.84 2.84 0 0 1 .659 4.12l-1.013 1.29a5 5 0 0 1 .918.45l1.203-1.532a2.854 2.854 0 0 1 3.812-.61z"/><path fill="none" d="M0 0h24v24H0z"/></svg>