<svg xmlns="http://www.w3.org/2000/svg" viewBox="0 0 16 16"><path d="M1.996 10.143a.95.95 0 0 0-1.153.143l-.584.584a.88.88 0 0 0-.133 1.08l1.207 2.01-.686.686a.5.5 0 1 0 .707.707l.686-.687 2.012 1.208a.88.88 0 0 0 1.078-.133l.584-.584a.945.945 0 0 0 .142-1.154l-.626-1.044 2.804-2.093.378.38a21.8 21.8 0 0 0 5.201 4.096.86.86 0 0 0 1.022-.153l1.112-1.11a.87.87 0 0 0 0-1.227L10.88 7.986l.893-1.924a1.7 1.7 0 0 0 .163-.726 1.274 1.274 0 0 0-1.273-1.273 1.7 1.7 0 0 0-.724.162l-1.926.894L3.148.254a.87.87 0 0 0-1.227 0L.81 1.365A.864.864 0 0 0 .659 2.39a21.8 21.8 0 0 0 4.088 5.19l.386.386L3.04 10.77zm8.368-5.013c.228-.106.573-.048.573.206a.7.7 0 0 1-.068.302l-.74 1.596-1.363-1.362zm-3.91 2.74L5.445 6.865a21 21 0 0 1-3.86-4.862l.95-.948 12.41 12.41-.949.948a21 21 0 0 1-4.87-3.867l-.997-1L3.908 12.7l1.099 1.751-.52.52-1.718-1.032.384-.384a.5.5 0 0 0-.707-.707l-.384.384-1.034-1.723.455-.507 1.818 1.09zm7.192-1.516-4-4 .707-.707 4 4z"/><path fill="none" d="M0 0h16v16H0z"/></svg>