<svg xmlns="http://www.w3.org/2000/svg" viewBox="0 0 24 24"><path fill="none" d="M0 0h24v24H0z"/><path d="M19 9c-2.006 0-4 1.458-4 3.352v7.662L19 24l4-3.986v-7.662C23 10.458 21.006 9 19 9m3 10.603-3 3.034-3-3.035v-7.249C16 11.006 17.584 10 19 10s3 1.006 3 2.353zM19 12h-.002A1.999 1.999 0 0 0 19 16a2 2 0 0 0 0-4m1 2.5a.5.5 0 0 1-.5.5h-1a.5.5 0 0 1-.5-.5v-1a.5.5 0 0 1 .5-.5h1a.5.5 0 0 1 .5.5zM2 18h12v1H1V4h3V1h17v7.394a5.6 5.6 0 0 0-1-.294V2H5v2h13v4.1q-.512.1-1 .294V5H2zm9-5v-3H8v3zm-2-2h1v1H9z"/></svg>