<?xml version="1.0" encoding="UTF-8"?><svg id="icons" xmlns="http://www.w3.org/2000/svg" viewBox="0 0 24 24"><defs><style>.cls-1{fill:none;}</style></defs><rect class="cls-1" width="24" height="24"/><path d="M19,9c-2.00598,0-4,1.45801-4,3.35199v7.66199l4,3.98602,4-3.98602v-7.66199c0-1.89398-1.99402-3.35199-4-3.35199ZM22,19.60297l-3,3.034-3-3.03497v-7.24902c0-1.34698,1.58398-2.35297,3-2.35297s3,1.00598,3,2.35297v7.25ZM19,12h-.00215c-1.10397.00059-1.99844.89603-1.99785,2,0,1.10456.89544,2,2,2s2-.89544,2-2-.89544-2-2-2ZM20,14.5c0,.27612-.22388.5-.5.5h-1c-.27612,0-.5-.22388-.5-.5v-1c0-.27618.22388-.5.5-.5h1c.27612,0,.5.22382.5.5v1ZM2,18h12v1H1V4h3V1h17v7.39355c-.3244-.12811-.65942-.22754-1-.29321V2H5v2h13v4.10034c-.34058.06567-.6756.1651-1,.29321v-3.39355H2v13ZM11,13v-3h-3v3h3ZM9,11h1v1h-1v-1Z"/></svg>