<?xml version="1.0" encoding="UTF-8"?><svg id="icons" xmlns="http://www.w3.org/2000/svg" viewBox="0 0 32 32"><defs><style>.cls-1{fill:none;}</style></defs><rect class="cls-1" width="32" height="32"/><path d="M15,18v-3h-3v3h3ZM13,16h1v1h-1v-1ZM19.29297,25.98041l.01959.01959H2V6h4V2h23v7.53137c-.31635-.12036-.65143-.21881-1-.30035V3H7v3h18v3.06024c-.34644.03802-.6795.09583-1,.17078v-2.23102H3v18h16v.27289c0,.26514.10547.52002.29297.70752ZM26,9.99994c-3.742,0-6,2.45502-6,4.60803v10.66498l6,5.99603,6-5.99603v-10.66498c0-2.15302-2.258-4.60803-6-4.60803ZM31,24.85895l-5,4.99701-5-4.99701v-10.25201c0-1.51196,1.73798-3.60699,5-3.60699s5,2.09503,5,3.60699v10.25201ZM26,14.09894c-1.60162,0-2.90002,1.2984-2.90002,2.90002s1.2984,2.90002,2.90002,2.90002,2.90002-1.2984,2.90002-2.90002-1.2984-2.90002-2.90002-2.90002ZM26,18.89899c-1.04932,0-1.90002-.85071-1.90002-1.90002.0011-1.04889.85114-1.89893,1.90002-1.90002,1.04932,0,1.90002.85071,1.90002,1.90002s-.85071,1.90002-1.90002,1.90002Z"/></svg>