<svg xmlns="http://www.w3.org/2000/svg" viewBox="0 0 32 32"><path fill="none" d="M0 0h32v32H0z"/><path d="M15 18v-3h-3v3zm-2-2h1v1h-1zm6.293 9.98.02.02H2V6h4V2h23v7.531a8 8 0 0 0-1-.3V3H7v3h18v3.06a8 8 0 0 0-1 .171V7H3v18h16v.273c0 .265.105.52.293.707M26 10c-3.742 0-6 2.455-6 4.608v10.665l6 5.996 6-5.996V14.608C32 12.455 29.742 10 26 10m5 14.859-5 4.997-5-4.997V14.607C21 13.095 22.738 11 26 11s5 2.095 5 3.607zm-5-10.76a2.9 2.9 0 1 0 0 5.8 2.9 2.9 0 0 0 0-5.8m0 4.8a1.9 1.9 0 1 1 0-3.8 1.9 1.9 0 0 1 0 3.8"/></svg>