<?xml version="1.0" encoding="UTF-8"?><svg id="icons" xmlns="http://www.w3.org/2000/svg" viewBox="0 0 16 16"><defs><style>.cls-1{fill:none;}</style></defs><rect class="cls-1" width="16" height="16"/><path d="M5,6v3h3v-3h-3ZM7,8h-1v-1h1v1ZM9.00323,13H0V2h2V0h13v5.50476c-.31097-.1731-.64368-.30908-1-.39197V1H3v1h10v3.00122l-.10742-.00024-.146.00293c-.25659.00958-.50549.047-.74658.1037v-2.1076H1v9h8.00293v.99854c0,.00049.00031.00098.00031.00146ZM13.00092,6.00342c-.07233-.00275-.14465-.00275-.21692-.00006-1.59558.05963-2.74364,1.40106-2.68401,2.99664l-.09999,3.99866,3.00092,2.99792,2.99792-2.99792v-3.99829c.00275-.07227.00269-.14465,0-.21692-.06018-1.59558-1.4024-2.84021-2.99792-2.78003ZM15,12.58313l-2.00004,1.99683-1.99996-1.99683-.00319-3.5813c-.00421-.07294-.00415-.14606.00006-.21899.06079-1.04205.96109-1.83752,2.00309-1.77679.07294-.00427.14612-.00427.21906-.00006,1.04206.06018,1.84122.9538,1.78098,1.99585v3.5813ZM13.00063,8.00002c.55184.00044.99884.44816.9984,1,0,.55228-.44771,1-1,1s-1-.44772-1-1,.44772-1,1-1c.00053,0,.00107,0,.0016,0Z"/></svg>