<?xml version="1.0" encoding="UTF-8"?><svg id="icons" xmlns="http://www.w3.org/2000/svg" viewBox="0 0 24 24"><defs><style>.cls-1{fill:none;}</style></defs><rect class="cls-1" width="24" height="24"/><path d="M2,5h15v11h4V1H4v3H1v15h5v-1H2V5ZM5,2h15v13h-2V4H5v-2ZM7,17v7h17v-7H7ZM23,23h-1v-2h-1v2h-1v-3h-1v3h-1v-2h-1v2h-1v-4h-1v4h-1v-2h-1v2h-1v-3h-1v3h-1v-2h-1v2h-1v-5h15v5ZM15,10v-3h-3v1h-5v-1h-3v3h1v3h-1v3h3v-1h5v1h3v-3h-1v-3h1ZM5,8h1v1h-1v-1ZM6,15h-1v-1h1v1ZM12,14h-5v-1h-1v-3h1v-1h5v1h1.05078v3h-1.05078v1ZM14,15h-1v-1h1v1ZM14,9h-1v-1h1v1Z"/></svg>