<?xml version="1.0" encoding="UTF-8"?><svg id="icons" xmlns="http://www.w3.org/2000/svg" viewBox="0 0 16 16"><defs><style>.cls-1{fill:none;}</style></defs><rect class="cls-1" width="16" height="16"/><path d="M16,5h-1c0-1.80859-1.18555-3-3-3v-1c2.375,0,4,1.63086,4,4ZM12.96875,5h1c0-1.10352-.86523-1.94238-1.96875-1.94238v1c.55273,0,.96875.38965.96875.94238ZM10.31248,10c-.72361,0-1.31248.58887-1.31248,1.3125v.6875h1v-.6875c0-.17188.14062-.3125.31248-.3125h1.375c.1719,0,.31252.14062.31252.3125v.6875h1v-.6875c0-.72363-.58887-1.3125-1.31252-1.3125h-1.375ZM3.93555,8.12402l-.93555.35156,1.31934,3.9668,2.0293-2.23242.73145,1.69141.91797-.39648-1.34668-3.11523-1.9707,2.16797-.74512-2.43359ZM3,1.5v4l3-2L3,1.5ZM11,6h1v-1h-1v1ZM11.5,9c.27612,0,.5-.22388.5-.5v-1c0-.27618-.22388-.5-.5-.5h-1c-.27612,0-.5.22382-.5.5v1c0,.27612.22388.5.5.5h1ZM14,7h1v6.125c0,.48325-.39175.875-.875.875h-4.125v1h1v1h-6v-1h1v-1H1.875c-.48325,0-.875-.39175-.875-.875v-6.125h-.125c-.48242,0-.875-.39258-.875-.875V.875c0-.48325.39175-.875.875-.875h7.25c.48325,0,.875.39175.875.875v2.125h2v1h-2v2.125c0,.48325-.39175.875-.875.875H2v6h12v-6ZM1,6h7V1H1v5ZM9,14h-2v1h2v-1Z"/></svg>