<?xml version="1.0" encoding="UTF-8"?><svg id="icons" xmlns="http://www.w3.org/2000/svg" viewBox="0 0 24 24"><defs><style>.cls-1{fill:none;}</style></defs><rect class="cls-1" width="24" height="24"/><path d="M22,19H3v-8h8.96777c.57007,0,1.03223-.46216,1.03223-1.03223v-3.96777h3v-1h-3v-2.96777c0-.57007-.46216-1.03223-1.03223-1.03223H1.03223c-.57007,0-1.03223.46216-1.03223,1.03223v7.93555c0,.57007.46216,1.03223,1.03223,1.03223h.96777v8c0,.55225.44769,1,1,1h7v2h-1v1h7v-1h-1v-2h7c.55231,0,1-.44775,1-1v-9h-1v9ZM1,10V2h11v8H1ZM14,22h-3v-2h3v2ZM18.00586,6.99609v-1c1.07227,0,1.97852.91797,1.97852,2.00391h-1c0-.53516-.45703-1.00391-.97852-1.00391ZM18.00586,5.00391v-1c2.1709,0,4.00488,1.82227,4.00488,3.97852h-1c0-1.61426-1.37598-2.97852-3.00488-2.97852ZM18.0498,3v-1c3.27734,0,5.94336,2.6875,5.94336,5.99121h-1c0-2.75195-2.21777-4.99121-4.94336-4.99121ZM16.53906,12h1.92578c.50293,0,.96875.25,1.24805.66797.1875.28027.28711.6084.28711.94824v.38379h-1v-.38379c0-.14062-.04102-.27734-.11816-.39258-.09375-.14062-.24902-.22363-.41699-.22363h-1.92578c-.16895,0-.32422.08398-.41699.22461-.09375.14258-.12207.2373-.12207.33496v.44043h-1v-.44043c0-.29199.08496-.57617.24512-.82227.31836-.48438.78711-.7373,1.29395-.7373ZM4,9.93457l5.9248-3.9502-5.9248-3.66797v7.61816ZM5,4.11133l3.0752,1.9043-3.0752,2.0498v-3.9541ZM15.5,18c.82843,0,1.5-.67157,1.5-1.5s-.67157-1.5-1.5-1.5c-.40222,0-.76562.1604-1.03497.41809l-1.4834-.73572c.00739-.06049.01837-.11993.01837-.18237,0-.82843-.67157-1.5-1.5-1.5s-1.5.67157-1.5,1.5c0,.12329.01904.24133.04712.35596l-.65527.44116c-.25275-.19391-.56519-.31372-.90839-.31372-.23114,0-.44751.05658-.64307.14996l-.99036-.99036c.09338-.19556.14996-.41187.14996-.64301,0-.82843-.67157-1.5-1.5-1.5s-1.5.67157-1.5,1.5.67157,1.5,1.5,1.5c.23114,0,.44745-.05658.64301-.14996l.99042.99042c-.09338.1955-.14996.4118-.14996.64294,0,.82843.67157,1.5,1.5,1.5s1.5-.67157,1.5-1.5c0-.12073-.01807-.23657-.04498-.34906l.65875-.44336c.25177.19122.56219.30902.90277.30902.40375,0,.76855-.16138,1.03821-.42084l1.48053.73468c-.00775.06165-.01874.12238-.01874.18616,0,.82843.67157,1.5,1.5,1.5ZM15,16h1v1h-1v-1ZM6,14h-1v-1h1v1ZM8.98346,16.9834h-1v-.98956c.00177-.00366.00433-.00684.00616-.01044h.99384v1ZM12,15h-1v-1h1v1ZM17.5,11c.82843,0,1.5-.67157,1.5-1.5s-.67157-1.5-1.5-1.5-1.5.67157-1.5,1.5.67157,1.5,1.5,1.5ZM17,9h1v1h-1v-1Z"/></svg>