<?xml version="1.0" encoding="UTF-8"?><svg id="icons" xmlns="http://www.w3.org/2000/svg" viewBox="0 0 32 32"><defs><style>.cls-1{fill:none;}</style></defs><rect class="cls-1" width="32" height="32"/><path d="M28,25.75c0,.13574-.11426.25-.25.25H3.25c-.13574,0-.25-.11426-.25-.25v-10.75h12.75c.68945,0,1.25-.56055,1.25-1.25v-4.75h5v-1h-5V3.25c0-.68945-.56055-1.25-1.25-1.25H1.25c-.68945,0-1.25.56055-1.25,1.25v10.5c0,.68945.56055,1.25,1.25,1.25h.75v10.75c0,.68945.56055,1.25,1.25,1.25h9.75v2h-1v1h8v-1h-1v-2h8.75c.68945,0,1.25-.56055,1.25-1.25v-11.75h-1v11.75ZM1.25,14c-.13574,0-.25-.11426-.25-.25V3.25c0-.13574.11426-.25.25-.25h14.5c.13574,0,.25.11426.25.25v10.5c0,.13574-.11426.25-.25.25H1.25ZM18,29h-4v-2h4v2ZM31.97363,11.96289h-1c0-3.91016-3.05078-6.97266-6.94629-6.97266v-.99023c4.45605,0,7.94629,3.49219,7.94629,7.96289ZM30.0127,12h-1c0-2.80176-2.19434-4.99609-4.99609-4.99609v-1c3.3623,0,5.99609,2.63379,5.99609,5.99609ZM24.0498,9.07031v-1c2.16602,0,3.92871,1.7627,3.92871,3.92969h-1c0-1.61523-1.31348-2.92969-2.92871-2.92969ZM25,20v-.875c0-.62012-.50488-1.125-1.125-1.125h-1.75c-.62012,0-1.125.50488-1.125,1.125v.875h-1v-.875c0-1.17188.95312-2.125,2.125-2.125h1.75c1.17188,0,2.125.95312,2.125,2.125v.875h-1ZM18.5,24c.82843,0,1.5-.67157,1.5-1.5s-.67157-1.5-1.5-1.5c-.30676,0-.59143.0929-.82904.25092l-1.74432-1.3103c.04333-.1402.07336-.28619.07336-.44061,0-.82843-.67157-1.5-1.5-1.5s-1.5.67157-1.5,1.5c0,.29816.08954.5744.2395.80792l-1.30475,1.76367c-.13849-.04218-.28247-.07159-.43475-.07159-.17365,0-.33777.03534-.49292.0896l-2.24316-2.78796c.14764-.2323.23608-.50604.23608-.80164,0-.82843-.67157-1.5-1.5-1.5s-1.5.67157-1.5,1.5.67157,1.5,1.5,1.5c.16693,0,.32465-.03363.47461-.08392l2.25226,2.79926c-.1413.22882-.22687.49597-.22687.78467,0,.82843.67157,1.5,1.5,1.5s1.5-.67157,1.5-1.5c0-.3111-.09479-.59998-.2569-.83954l1.28894-1.74231c.14807.04889.30347.08185.46796.08185.3089,0,.59583-.09375.83441-.25385l1.74066,1.3078c-.04443.14178-.07507.28961-.07507.44604,0,.82843.67157,1.5,1.5,1.5ZM18,22h1v1h-1v-1ZM7,19v-1h1v1h-1ZM12,24h-1v-1h1v1ZM14,20v-1h1v1h-1ZM6,4.21387v8.57227l5.8457-4.28613-5.8457-4.28613ZM7,6.18652l3.1543,2.31348-3.1543,2.31348v-4.62695ZM21.009,14c0,1.10455.88645,2,1.991,2s2-.89545,2-2c0-1.10461-.89545-2-2-2s-1.991.89539-1.991,2ZM24,13.5v1c0,.27612-.22388.5-.5.5h-1c-.27612,0-.5-.22388-.5-.5v-1c0-.27618.22388-.5.5-.5h1c.27612,0,.5.22382.5.5Z"/></svg>