<svg xmlns="http://www.w3.org/2000/svg" viewBox="0 0 32 32"><path d="M28 20.704l1-1V29h-9.297l1-1H28zM4 28V8.964l10.03 7.294L28 5.08v6.656a2.217 2.217 0 0 1 1 .256V3L14 15 3 7v22h9.18l.428-1zm26.682-11.392l-1.802 1.798v.001L18.316 28.974l-5.465 2.342a.306.306 0 0 1-.402-.402l2.342-5.465 12.366-12.366a1.203 1.203 0 0 1 1.726.037l1.763 1.762a1.203 1.203 0 0 1 .037 1.726zM17.324 28.311l-1.871-1.87-1.403 3.273zm10.584-10.344l-2.11-2.111-9.759 9.757 2.112 2.111zm2.03-2.378l-1.761-1.761a.285.285 0 0 0-.193-.092.163.163 0 0 0-.12.054l-1.36 1.359 2.111 2.11 1.36-1.358c.133-.133-.02-.294-.038-.312z"/><path fill="none" d="M0 0h32v32H0z"/></svg>