<svg xmlns="http://www.w3.org/2000/svg" viewBox="0 0 16 16"><path d="M14 11.142l1-1V15h-4.99l.052-.022a.993.993 0 0 0 .314-.212l.766-.766H14zM2 5.64l4.927 2.534L14 2.976v.979a2.034 2.034 0 0 1 .984.545l.016.016V1L6.833 7 1 4v11h3.15c.009-.023.009-.048.019-.071L4.567 14H2zm13.721 2.368L14.276 9.45v.001L9.67 14.06l-4.096 1.755a.371.371 0 0 1-.488-.487l1.756-4.097 6.052-6.051a.965.965 0 0 1 1.385.03l1.414 1.413a.965.965 0 0 1 .03 1.385zm-7.803 5.714l-.74-.739-.554 1.294zm5.052-4.377L11.556 7.93l-4.007 4.008 1.413 1.415zm1.888-2.015a.307.307 0 0 0-.09-.216l-.98-.981a.306.306 0 0 0-.434 0l-1.09 1.09 1.414 1.414 1.09-1.09a.307.307 0 0 0 .09-.217z"/><path fill="none" d="M0 0h16v16H0z"/></svg>