<svg xmlns="http://www.w3.org/2000/svg" viewBox="0 0 32 32"><path d="M20 22h6v1h-6v-1zm-2-3h10v-1H18v1zm0-4h10v-1H18v1zm0-9h13v23H1V6h13V2h4v4zm-3 1h2V3h-2v4zm1 18.5c0-1.93-1.57-3.5-3.5-3.5h-5C5.57 22 4 23.57 4 25.5V28h12v-2.5zM30 28V10H2v18h1v-2.5C3 23.019 5.019 21 7.5 21h5c2.481 0 4.5 2.019 4.5 4.5V28h13zM18 7v1h-4V7H2v2h28V7H18zm-4 9c0 2.206-1.794 4-4 4s-4-1.794-4-4 1.794-4 4-4 4 1.794 4 4zm-1 0c0-1.654-1.346-3-3-3s-3 1.346-3 3 1.346 3 3 3 3-1.346 3-3z" fill="#231f20"/><path fill="none" d="M0 0h32v32H0z"/></svg>