<svg xmlns="http://www.w3.org/2000/svg" viewBox="0 0 24 24"><path d="M16 12.014V4.352C16 2.458 14.006 1 12 1S8 2.458 8 4.352v7.662l4 4.045zM9 4.353C9 3.006 10.584 2 12 2s3 1.006 3 2.353v7.25l-3 3.034-3-3.035zM13.875 6A1.875 1.875 0 0 0 12 4.125h-.002A1.875 1.875 0 1 0 13.875 6zM11 6a1 1 0 1 1 1 1 1 1 0 0 1-1-1zM4.203 9.082l-.865-.866.713-4.138A14.924 14.924 0 0 0 7 4.705v1.002a17.15 17.15 0 0 1-2.152-.364zm19.678 13.101a13.093 13.093 0 0 0-5.423-1.017c-.764 0-1.443.038-2.073.097l-.905-.904a22.198 22.198 0 0 1 2.977-.193 16.243 16.243 0 0 1 4.158.52l-2.674-15.87a12.215 12.215 0 0 0-2.949-.59 3.754 3.754 0 0 0-.17-1.005 12.926 12.926 0 0 1 4.008.857zM1.763 8.056l15.2 15.2-.707.707-15.2-15.2zM1.824 17H2.84l-.172 1H1.652zm.345-2h1.015l-.173 1H1.997zm1.187-1H2.34l.172-1h1.015zm8.595 7.072l.83.83c-.587.14-1.17.282-1.781.412v-1.023c.32-.07.635-.144.951-.22zM1.48 19h1.014l-.172 1H1.307zM5 21.733c.314.03.65.047 1 .057v.995c-.348-.01-.684-.024-1-.052zM1.135 21H2v1.158a8.36 8.36 0 0 1-1-.375zM9 21.643q.52-.066 1-.152v1.017c-.318.054-.653.1-1 .142zm-6-.244c.295.073.63.142 1 .204v1.012c-.366-.056-.696-.12-1-.19zm4 .39c.348-.008.684-.023 1-.046v1q-.476.033-1 .045z"/><path fill="none" d="M0 0h24v24H0z"/></svg>