<svg xmlns="http://www.w3.org/2000/svg" viewBox="0 0 24 24"><path fill="none" d="M0 0h24v24H0z"/><path d="m16.748 2.553.25.968q-.718.186-1.413.426l-.326-.945q.732-.252 1.489-.45zM6 7h3v3H7.099a18.8 18.8 0 0 0-4.066 10H4v3H1v-3h1.03A19.64 19.64 0 0 1 6 9.798zM3 21H2v1h1zM7 9h1V8H7zm16-8v3h-3v-.989l-.099-.001a19 19 0 0 0-1.462.197l-.172-.984q.76-.134 1.539-.21L20 2.002V1zm-1 1h-1v1h1zM9.796 5.922l.604.797q.588-.445 1.21-.844l-.539-.842q-.655.42-1.275.889m2.616-1.675.47.883a19 19 0 0 1 1.329-.645l-.4-.916q-.715.313-1.399.678"/></svg>