<svg xmlns="http://www.w3.org/2000/svg" viewBox="0 0 32 32"><path d="M23.002 4.522l.21.979c-.468.1-.958.22-1.465.361l-.27-.963a25.61 25.61 0 0 1 1.525-.377zM13.11 9.115l.616.787c.403-.315.809-.611 1.215-.888l-.563-.826c-.424.289-.848.598-1.268.927zm2.596-1.77l.507.862c.442-.26.884-.5 1.323-.72l-.45-.893c-.458.23-.918.48-1.38.752zm2.807-1.411l.389.921c.476-.2.946-.38 1.407-.542l-.33-.943c-.48.167-.969.355-1.466.564zM10 10h3v3h-2.118A23.39 23.39 0 0 0 5.15 26H6v3H3v-3h1.143A24.37 24.37 0 0 1 10 12.478V10zM5 27H4v1h1v-1zm6-15h1v-1h-1v1zm18-9v3h-3v-.924a23.4 23.4 0 0 0-1.304.154l-.146-.988a24.359 24.359 0 0 1 1.45-.17V3h3zm-1 1h-1v1h1V4z"/><path fill="none" d="M0 0h32v32H0z"/></svg>