<svg xmlns="http://www.w3.org/2000/svg" viewBox="0 0 24 24"><path fill="none" d="M0 0h24v24H0z"/><path d="M16.748 2.553l.25.968c-.478.124-.95.266-1.413.426l-.326-.945c.488-.168.984-.318 1.489-.45zM6 7h3v3H7.099a18.776 18.776 0 0 0-4.066 10H4v3H1v-3h1.03A19.644 19.644 0 0 1 6 9.798V7zM3 21H2v1h1v-1zM7 9h1V8H7v1zm16-8v3h-3v-.989l-.099-.001a19.36 19.36 0 0 0-1.462.197l-.172-.984c.506-.09 1.02-.159 1.539-.21L20 2.002V1h3zm-1 1h-1v1h1V2zM9.796 5.922l.604.797c.392-.297.796-.578 1.21-.844l-.539-.842c-.437.28-.862.576-1.275.889zm2.616-1.675l.47.883a19.03 19.03 0 0 1 1.329-.645l-.4-.916c-.477.208-.943.435-1.399.678z"/></svg>