<?xml version="1.0" encoding="UTF-8"?><svg id="icons" xmlns="http://www.w3.org/2000/svg" viewBox="0 0 32 32"><defs><style>.cls-1{fill:none;}</style></defs><path d="M23.00244,4.52246l.20996.97852c-.46875.10059-.9585.21973-1.46533.36133l-.26953-.96289c.52734-.14746,1.0376-.27246,1.5249-.37695ZM13.10986,9.11523l.61621.78711c.40283-.31543.80859-.61133,1.21533-.88867l-.56348-.82617c-.42432.28906-.84766.59863-1.26807.92773ZM15.70605,7.3457l.50684.86133c.44238-.25977.88428-.5,1.32275-.7207l-.44922-.89258c-.45801.23047-.91846.48047-1.38037.75195ZM18.51318,5.93359l.38867.92188c.47656-.20117.94629-.38086,1.40674-.54199l-.3291-.94336c-.47998.16699-.96924.35449-1.46631.56348ZM10,10h3v3h-2.11798c-3.12872,3.552-5.20337,8.04388-5.73169,13h.84967v3h-3v-3h1.14288c.52386-5.14996,2.64526-9.81714,5.85712-13.52222v-2.47778ZM5,27h-1v1h1v-1ZM11,12h1v-1h-1v1ZM29,3v3h-3v-.92413c-.39868.0365-.83057.08459-1.30371.1546l-.14648-.98828c.52856-.07861,1.01123-.1319,1.4502-.17065v-1.07153h3ZM28,4h-1v1h1v-1Z"/><rect class="cls-1" width="32" height="32"/></svg>