<svg xmlns="http://www.w3.org/2000/svg" viewBox="0 0 32 32"><path d="m23.002 4.522.21.979q-.703.15-1.465.361l-.27-.963a26 26 0 0 1 1.525-.377M13.11 9.115l.616.787q.605-.473 1.215-.888l-.563-.826q-.637.434-1.268.927m2.596-1.77.507.862q.664-.39 1.323-.72l-.45-.893q-.687.345-1.38.752zm2.807-1.411.389.921q.715-.3 1.407-.542l-.33-.943q-.72.25-1.466.564M10 10h3v3h-2.118A23.4 23.4 0 0 0 5.15 26H6v3H3v-3h1.143A24.37 24.37 0 0 1 10 12.478zM5 27H4v1h1zm6-15h1v-1h-1zm18-9v3h-3v-.924a23 23 0 0 0-1.304.154l-.146-.988a24 24 0 0 1 1.45-.17V3zm-1 1h-1v1h1z"/><path fill="none" d="M0 0h32v32H0z"/></svg>