<?xml version="1.0" encoding="UTF-8"?><svg id="icons" xmlns="http://www.w3.org/2000/svg" viewBox="0 0 16 16"><defs><style>.cls-1{fill:none;}</style></defs><path d="M10.33496,2.29199l.23047.97266c-.4585.1084-.91553.25391-1.3584.43066l-.37207-.92773c.48877-.19629.99365-.35645,1.5-.47559ZM7.42285,3.46191l.50684.86133c-.32251.18951-.62793.41425-.92969.64197v2.03479h-1.97937c-1.07153,1.42194-1.76849,3.13477-1.9549,5h.93427v3H1v-3h1.0625c.17743-1.96362.86463-3.77704,1.9375-5.30609v-2.69391h2.60535c.26636-.19116.5379-.37421.8175-.53809ZM3,13h-1v1h1v-1ZM6,5h-1v1h1v-1ZM15,1v3h-3V1h3ZM14,2h-1v1h1v-1Z"/><rect class="cls-1" width="16" height="16"/></svg>