<?xml version="1.0" encoding="UTF-8"?><svg id="icons" xmlns="http://www.w3.org/2000/svg" viewBox="0 0 32 32"><path d="M28,6H4c-1.10352,0-2,.89838-2,2v16c0,1.10345.89648,2,2,2h24c1.10352,0,2-.89655,2-2V8c0-1.10162-.89648-2-2-2ZM28.24371,24.95074l-9.4964-9.4964-2.74731,2.15308-2.74731-2.15308L3.75629,24.95074c-.35089-.09058-.61646-.3562-.70703-.70703l9.41071-9.41071L3.13611,7.52582c.17041-.30835.487-.52582.86389-.52582h.08667l11.91333,9.33691,11.91339-9.33691h.08661c.37695,0,.69354.21747.86395.52588l-9.32385,7.30719,9.41064,9.41064c-.09058.35083-.35614.61646-.70703.70703Z"/><rect width="32" height="32" style="fill:none;"/></svg>