<svg xmlns="http://www.w3.org/2000/svg" viewBox="0 0 32 32"><path d="M30.102 16.113 15.749 3.388a1.45 1.45 0 0 0-.975-.376 1.3 1.3 0 0 0-.425.067l-14.197 4-.05 1.429c-.067 1.858 1.175 4.718 1.771 6.304a1.3 1.3 0 0 0 .308.486l13.944 14.215a1.42 1.42 0 0 0 1.012.424 1.4 1.4 0 0 0 .538-.105l13.433-5.452c1.877-.752.345-4.776-.568-7.136zM14.62 4.041l.153-.03a.46.46 0 0 1 .304.118l13.423 11.9-11.182 4.193a2.89 2.89 0 0 1-3.049-.661L2.239 7.53zm16.116 19.41L17.3 28.905a.4.4 0 0 1-.162.033.42.42 0 0 1-.3-.126L2.895 14.597a.4.4 0 0 1-.081-.125l-.293-.763c-.585-1.504-1.47-3.776-1.42-5.166l.025-.7 12.436 12.424a3.88 3.88 0 0 0 4.107.89l11.626-4.36.312.806c1.836 4.746 1.497 5.7 1.13 5.847z"/><path fill="none" d="M0 0h32v32H0z"/></svg>