<svg xmlns="http://www.w3.org/2000/svg" viewBox="0 0 24 24"><path d="M24 5.5A2.388 2.388 0 0 0 21.75 3h-3.457l-13 13H2.25A2.388 2.388 0 0 0 0 18.5a2.413 2.413 0 0 0 2 2.472V21h21V7.577A2.582 2.582 0 0 0 24 5.5zM22 20H6.707l12-12h3.043a1.993 1.993 0 0 0 .25-.028zm-.25-13h-3.457l-13 13H2.25A1.394 1.394 0 0 1 1 18.5 1.394 1.394 0 0 1 2.25 17h3.457l13-13h3.043A1.394 1.394 0 0 1 23 5.5 1.394 1.394 0 0 1 21.75 7zM3.707 10H7v1H2V6h1v3.293l7.278-7.278.707.707z"/><path fill="none" d="M0 0h24v24H0z"/></svg>