<?xml version="1.0" encoding="UTF-8"?><svg id="Pills" xmlns="http://www.w3.org/2000/svg" viewBox="0 0 40 26"><defs><style>.cls-1{fill:#d9f2a7;}.cls-1,.cls-2{stroke-width:0px;}.cls-2{fill:#338f4d;}</style></defs><rect class="cls-1" x="1" y="5" width="38" height="16" rx="7.99999" ry="7.99999"/><rect class="cls-2" x="17" y="15" width="1" height="5"/><path class="cls-2" d="M13,15c-.55228,0-1,.44772-1,1v4h1v-2h2v2h1v-4c0-.55228-.44772-1-1-1h-2ZM15,17h-2v-1h2v1Z"/><path class="cls-2" d="M21,16v3h-1v-3h-1v3c0,.55228.44772,1,1,1h1c.55228,0,1-.44772,1-1v-3h-1Z"/><path class="cls-2" d="M24,16c-.55228,0-1,.44772-1,1v3h1v-3h1v3h1v-3h1v3h1v-3c0-.55228-.44772-1-1-1h-3Z"/><path class="cls-2" d="M16.53418,10.66768v.17285c0,.05762-.00391.11523-.01074.17285h-3.94238c.01465.1875.0625.3584.14551.51318s.19238.28809.33008.39941c.13672.11182.29102.19971.46387.26465s.35254.09717.54004.09717c.32422,0,.59766-.05957.82129-.17822.22266-.11865.40625-.28223.55078-.49121l.86328.69092c-.51074.69141-1.25293,1.03711-2.22461,1.03711-.40332,0-.77441-.06348-1.1123-.18896-.33887-.12598-.63184-.3042-.87988-.53467-.24902-.23047-.44336-.51318-.58301-.84814-.14062-.33447-.21094-.71436-.21094-1.13916,0-.41748.07031-.79736.21094-1.13965.13965-.3418.33203-.6333.57715-.87451s.53516-.42822.86914-.56152c.33496-.1333.69727-.19971,1.08594-.19971.35938,0,.69238.05908.99902.17773.30566.11914.57031.29541.79395.5293.22266.23438.39746.52588.52344.875s.18945.75781.18945,1.22559ZM15.23828,10.08467c0-.16553-.02344-.32422-.07031-.4751-.04688-.15137-.12109-.28467-.22168-.3999-.10059-.11475-.22852-.20654-.38381-.27539-.15428-.06836-.33592-.10254-.5449-.10254-.38867,0-.71875.11719-.98828.35107-.27051.23389-.41992.53467-.44824.90186h2.65723Z"/><path class="cls-2" d="M20.84277,9.39326c-.11523-.15088-.27344-.28223-.47559-.39404-.20117-.11133-.4209-.16748-.6582-.16748-.20898,0-.39941.04346-.57227.12988s-.25977.23047-.25977.43164c0,.20166.0957.34424.28613.42676.19141.08301.46973.16748.83691.25391.19531.04297.39062.10059.58887.17285.19824.07178.37793.16748.54004.28613s.29297.2666.39453.44287c.10059.17627.15137.39062.15137.64258,0,.31689-.05957.58496-.17871.80469-.11816.21973-.27734.39746-.47461.53418-.19824.13721-.42871.23633-.69141.29736s-.53516.0918-.81543.0918c-.40332,0-.7959-.07422-1.17773-.22168s-.69824-.35791-.9502-.63184l.85352-.79883c.14355.18701.33105.3418.56152.46436s.48633.18359.7666.18359c.09375,0,.18945-.01074.28613-.03271.09766-.02148.1875-.05566.27051-.10254.08203-.04688.14941-.10938.19922-.18896.05078-.0791.07617-.17627.07617-.2915,0-.21582-.09961-.37061-.29688-.46436-.19824-.09375-.49512-.18701-.8916-.28076-.19434-.04346-.38281-.09912-.56641-.16748s-.34766-.1582-.49219-.27002c-.14355-.11182-.25879-.25-.3457-.41602-.08594-.16553-.12891-.37061-.12891-.61523,0-.28809.05957-.53662.17773-.74561.11914-.2085.27539-.37939.46973-.5127s.41406-.23242.65918-.29688c.24414-.06494.49707-.09717.75586-.09717.37402,0,.74023.06445,1.09668.19434.35645.12939.63867.32764.84766.59375l-.84277.74512Z"/><path class="cls-2" d="M23.01367,8.01094h1.24219v.86426h.02148c.14355-.30273.3457-.54736.60449-.73438.25977-.1875.56152-.28076.90723-.28076.05078,0,.10449.00146.16211.00537.05762.00342.1084.01221.15137.02686v1.18799c-.08691-.02148-.16016-.03613-.22168-.04346-.06055-.00684-.12012-.01074-.17773-.01074-.2959,0-.5332.0542-.71289.16211-.18066.10791-.32031.23779-.4209.38867-.10156.15137-.16992.30615-.20605.46436-.03613.15869-.05371.28467-.05371.37842v2.77539h-1.2959v-5.18408Z"/><path class="cls-2" d="M26.99902,6.75068c0-.20898.07715-.39062.23145-.54541.15527-.15479.35156-.23242.58887-.23242s.4375.07422.59961.22168.24316.33301.24316.55615-.08105.40869-.24316.55615-.3623.22119-.59961.22119-.43359-.07715-.58887-.23193c-.1543-.15479-.23145-.33643-.23145-.54541ZM27.18262,8.01094h1.2959v5.18408h-1.2959v-5.18408Z"/></svg>