<svg xmlns="http://www.w3.org/2000/svg" viewBox="0 0 32 32"><path d="M21.335 20h1.11l-6.13-14h-.63l-6.13 14h1.11l1.728-4h7.214zm-8.51-5L16 7.652 19.175 15zm11.51 14H23v-1h1.336A3.67 3.67 0 0 0 28 24.336V20.75c0-1.37.808-3.214 2.065-4.15A3.75 3.75 0 0 1 28 13.25V8.664A3.67 3.67 0 0 0 24.336 5H23V4h1.336A4.67 4.67 0 0 1 29 8.664v4.586A2.753 2.753 0 0 0 31.75 16H32v1h-.25C30.334 17 29 19.112 29 20.75v3.586A4.67 4.67 0 0 1 24.336 29zM9 29H7.664A4.67 4.67 0 0 1 3 24.336V20.75C3 19.112 1.666 17 .25 17H0v-1h.25A2.753 2.753 0 0 0 3 13.25V8.664A4.67 4.67 0 0 1 7.664 4H9v1H7.664A3.67 3.67 0 0 0 4 8.664v4.586c0 1.462-.84 2.731-2.065 3.35C3.192 17.536 4 19.38 4 20.75v3.586A3.67 3.67 0 0 0 7.664 28H9zm14-4H9v-4h14z"/><path fill="none" d="M0 0h32v32H0z"/></svg>