<svg xmlns="http://www.w3.org/2000/svg" viewBox="0 0 24 24"><path d="M16.173 14.976h1.093L12.458 4.024h-.916L6.734 14.976h1.093L9.133 12h5.734l1.306 2.976zM9.572 11L12 5.47 14.428 11H9.572zM7 22H5.703A3.707 3.707 0 0 1 2 18.297V15c0-1.103-.897-2-2-2v-1c1.103 0 2-.897 2-2V6.703A3.707 3.707 0 0 1 5.703 3H7v1H5.703A2.707 2.707 0 0 0 3 6.703V10a3 3 0 0 1-1.344 2.5A3 3 0 0 1 3 15v3.297A2.707 2.707 0 0 0 5.703 21H7v1zm11.297 0H17v-1h1.297A2.707 2.707 0 0 0 21 18.297V15a3 3 0 0 1 1.344-2.5A3 3 0 0 1 21 10V6.703A2.707 2.707 0 0 0 18.297 4H17V3h1.297A3.707 3.707 0 0 1 22 6.703V10c0 1.103.897 2 2 2v1c-1.103 0-2 .897-2 2v3.297A3.707 3.707 0 0 1 18.297 22zM17 19H7v-3h10v3z"/><path fill="none" d="M0 0h24v24H0z"/></svg>