<?xml version="1.0" encoding="UTF-8"?><svg id="icons" xmlns="http://www.w3.org/2000/svg" viewBox="0 0 32 32"><defs><style>.cls-1{fill:none;}</style></defs><rect class="cls-1" width="32" height="32"/><path d="M29,8h-11v-3c0-1.10461-.89545-2-2-2H3c-1.10455,0-2,.89539-2,2v11c0,1.10455.89545,2,2,2h3v9c0,1.10455.89545,2,2,2h13c1.10455,0,2-.89545,2-2v-4h6c1.10455,0,2-.89545,2-2v-11c0-1.10461-.89545-2-2-2ZM6,16v1h-3c-.55176,0-1-.44824-1-1V5c0-.55176.44824-1,1-1h13c.55176,0,1,.44824,1,1v9h-9c-1.10455,0-2,.89539-2,2ZM22,27c0,.55176-.44824,1-1,1h-13c-.55176,0-1-.44824-1-1v-11c0-.55176.44824-1,1-1h13c.55176,0,1,.44824,1,1v11ZM30,21c0,.55176-.44824,1-1,1h-6v-6c0-1.10461-.89545-2-2-2h-3v-5h11c.55176,0,1,.44824,1,1v11Z"/></svg>