<?xml version="1.0" encoding="UTF-8"?><svg id="icons" xmlns="http://www.w3.org/2000/svg" viewBox="0 0 24 24"><defs><style>.cls-1{fill:none;}</style></defs><rect class="cls-1" width="24" height="24"/><path d="M22,6h-9v-2c0-.55231-.44769-1-1-1H2c-.55231,0-1,.44769-1,1v9c0,.55225.44769,1,1,1h3v7c0,.55225.44769,1,1,1h10c.55231,0,1-.44775,1-1v-4h5c.55231,0,1-.44775,1-1V7c0-.55231-.44769-1-1-1ZM5,12v1h-2.5c-.27612,0-.5-.22388-.5-.5V4.5c0-.27618.22388-.5.5-.5h9c.27612,0,.5.22382.5.5v6.5h-6c-.55231,0-1,.44769-1,1ZM16,20.5c0,.27612-.22388.5-.5.5H6.5c-.27612,0-.5-.22388-.5-.5v-8c0-.27618.22388-.5.5-.5h9c.27612,0,.5.22382.5.5v8ZM22,15.5c0,.27612-.22388.5-.5.5h-4.5v-4c0-.55231-.44769-1-1-1h-3v-4h8.5c.27612,0,.5.22382.5.5v8Z"/></svg>