<?xml version="1.0" encoding="UTF-8"?><svg id="icons" xmlns="http://www.w3.org/2000/svg" viewBox="0 0 16 16"><defs><style>.cls-1{fill:none;}</style></defs><path d="M15,4h-5v-1c0-.55231-.44769-1-1-1H2c-.55231,0-1,.44769-1,1v6c0,.55225.44769,1,1,1h1v4c0,.55225.44769,1,1,1h7c.55231,0,1-.44775,1-1v-2h3c.55231,0,1-.44775,1-1v-6c0-.55231-.44769-1-1-1ZM3,8v1h-.5c-.27612,0-.5-.22388-.5-.5V3.5c0-.27618.22388-.5.5-.5h6c.27612,0,.5.22382.5.5v3.5h-5c-.55231,0-1,.44769-1,1ZM11,13.5c0,.27612-.22388.5-.5.5h-6c-.27612,0-.5-.22388-.5-.5v-5c0-.27618.22388-.5.5-.5h6c.27612,0,.5.22382.5.5v5ZM15,10.5c0,.27612-.22388.5-.5.5h-2.5v-3c0-.55231-.44769-1-1-1h-1v-2h4.5c.27612,0,.5.22382.5.5v5Z"/><rect class="cls-1" x="0" width="16" height="16"/></svg>