<svg xmlns="http://www.w3.org/2000/svg" viewBox="0 0 32 32"><path d="M27 3.9 31 28a33.2 33.2 0 0 0-7.538-.8c-6.876 0-8.048 2.6-14.924 2.6A16.3 16.3 0 0 1 1 28L5 3.9a15.4 15.4 0 0 0 4 .905v1.008a15.3 15.3 0 0 1-3.205-.596L2.108 27.434a16 16 0 0 0 6.43 1.366 20.4 20.4 0 0 0 7.155-1.252 22.4 22.4 0 0 1 7.77-1.348 37 37 0 0 1 6.312.528L26.124 4.73a27 27 0 0 0-3.143-.437 4.5 4.5 0 0 0-.201-1.02A26 26 0 0 1 27 3.9m-17 .708C10 2.455 12.258 0 16 0s6 2.455 6 4.608v10.665l-6 5.996-6-5.996zm1 0v10.251l5 4.997 5-4.997V4.607C21 3.095 19.262 1 16 1s-5 2.095-5 3.607zm5-.609a3 3 0 1 1-3 3 3 3 0 0 1 3-3m-2 3a2 2 0 1 0 2-2 2 2 0 0 0-2 2"/><path fill="none" d="M0 0h32v32H0z"/></svg>