<svg xmlns="http://www.w3.org/2000/svg" viewBox="0 0 16 16"><path d="M3.793 14.8A9.2 9.2 0 0 1 0 14.089l2.133-12.6a10.3 10.3 0 0 0 2.018.44 4.2 4.2 0 0 0-.143.991 12 12 0 0 1-1.073-.18l-1.81 10.697a9.5 9.5 0 0 0 2.668.363 11 11 0 0 0 3.888-.748 12.8 12.8 0 0 1 4.526-.852 8.3 8.3 0 0 1 2.489.376l-1.72-10.163a8 8 0 0 0-1.065-.278 4 4 0 0 0-.399-1.07 8.4 8.4 0 0 1 2.355.623L16 14.29a6.6 6.6 0 0 0-3.793-1.089c-3.665 0-4.749 1.6-8.414 1.6zM8 0a2.893 2.893 0 0 1 3 2.999V7l-3 3-3-3V2.999A2.893 2.893 0 0 1 8 0M6 2.999v3.587l2 2 2-2V2.999A1.893 1.893 0 0 0 8 1a1.893 1.893 0 0 0-2 1.999M8 1.75A1.25 1.25 0 1 0 9.25 3 1.25 1.25 0 0 0 8 1.75"/><path fill="none" d="M0 0h16v16H0z"/></svg>