<?xml version="1.0" encoding="UTF-8"?><svg id="icons" xmlns="http://www.w3.org/2000/svg" viewBox="0 0 16 16"><rect width="16" height="16" fill="none"/><path d="M15,3H6V1h9v2ZM10,5H1v2h9v-2ZM15,10H6v2h9v-2Z" opacity=".25"/><path d="M15,0H6c-.55219,0-1,.44629-1,1v2h1V1h4v2c.73669,0,1.37469.40521,1.72168,1h3.27832v2h-3v1h3c.55219,0,1-.44733,1-1V1c0-.55371-.44781-1-1-1ZM15,3h-4V1h4v2ZM10,4H1c-.55219,0-1,.44629-1,1v5c0,.55267.44781,1,1,1h3v-1H1v-2h10v-3c0-.55371-.44781-1-1-1ZM5,7H1v-2h4v2ZM10,7h-4v-2h4v2ZM15,9H6c-.55219,0-1,.44629-1,1v5c0,.55267.44781,1,1,1h9c.55219,0,1-.44733,1-1v-5c0-.55371-.44781-1-1-1ZM6,10h4v2h-4v-2ZM6,15v-2h4v2h-4ZM15,15h-4v-2h4v2ZM15,12h-4v-2h4v2Z"/></svg>