<?xml version="1.0" encoding="UTF-8"?><svg id="icons" xmlns="http://www.w3.org/2000/svg" viewBox="0 0 24 24"><path d="M22,5H7V1h15v4ZM16,7H1v4h15v-4ZM23,14h-15v4h15v-4Z" opacity=".25"/><path d="M23,1v9c0,.55273-.44775,1-1,1h-4v-1h4v-4h-4.27826c-.34692-.59479-.98474-1-1.72174-1h6V1h-7v4h-1V1h-7v4h-1V1c0-.55273.44775-1,1-1h15c.55225,0,1,.44727,1,1ZM6,17H1c-.55225,0-1-.44727-1-1V7c0-.55273.44775-1,1-1h15c.55225,0,1,.44727,1,1v5H1v4h5v1ZM9,11h7v-4h-7v4ZM1,11h7v-4H1v4ZM24,14v9c0,.55273-.44775,1-1,1h-15c-.55225,0-1-.44727-1-1v-9c0-.55273.44775-1,1-1h15c.55225,0,1,.44727,1,1ZM8,18h7v-4h-7v4ZM15,23v-4h-7v4h7ZM23,19h-7v4h7v-4ZM23,18v-4h-7v4h7Z"/><rect width="24" height="24" fill="none"/></svg>