<?xml version="1.0" encoding="UTF-8"?><svg id="icons" xmlns="http://www.w3.org/2000/svg" viewBox="0 0 32 32"><rect width="32" height="32" fill="none"/><path d="M28,8H11V3h17v5ZM19,16H2v-5h17v5ZM30,24H13v-5h17v5Z" opacity=".25"/><path d="M28,2H11c-.55219,0-1,.50201-1,1.12109v5.87891h18v5h-7v1h7c.55219,0,1-.50201,1-1.12213V3.12109c0-.61908-.44781-1.12109-1-1.12109ZM19,8h-8V3h8v5ZM28,8h-8V3h8v5ZM19,10H2c-.55219,0-1,.50201-1,1.12109v10.75677c0,.62012.44781,1.12213,1,1.12213h9v-6h9v-5.87891c0-.61908-.44781-1.12109-1-1.12109ZM10,22H2v-5h8v5ZM10,16H2v-5h8v5ZM19,16h-8v-5h8v5ZM30,18H13c-.55219,0-1,.50201-1,1.12109v10.75677c0,.62012.44781,1.12213,1,1.12213h17c.55219,0,1-.50201,1-1.12213v-10.75677c0-.61908-.44781-1.12109-1-1.12109ZM13,19h8v5h-8v-5ZM13,30v-5h8v5h-8ZM30,30h-8v-5h8v5ZM30,24h-8v-5h8v5Z"/></svg>