<svg xmlns="http://www.w3.org/2000/svg" viewBox="0 0 24 24"><path d="M5 13h8v1H5zm0 7h7v-1H5zM15.29 1 21 6.709V23H3V1zM20 8h-6V2H4v20h16zm0-1.2L15.2 2H15v5h5zM19 19h-4v1h4zM5 3h8v8H5zm7 5.162a1.3 1.3 0 0 1-.13.32.9.9 0 0 1-.584.376c-.081.02-.221.018-.318.045.022.019-.002.1-.005.215-.009.297-.038.585-.035.882H12zM9.815 6.044a5 5 0 0 1-.537-.047l-.054-.01a2.3 2.3 0 0 0-.226.52 2.1 2.1 0 0 1-.642 1.071 1.6 1.6 0 0 1 .544.893 3.3 3.3 0 0 1 .005 1.213A1.5 1.5 0 0 0 8.92 10h1.102c-.036-.685-.213-1.783.567-2.03.138-.045.36-.02.46-.12.106-.106.153-.432.254-.567A1.33 1.33 0 0 1 12 6.81V4h-1.023l.005.943a1.2 1.2 0 0 1-.114.585 1.08 1.08 0 0 1-1.053.516M6 10h2.033a2 2 0 0 1-.021-.434 2.7 2.7 0 0 0 .023-.833c-.053-.192-.265-.35-.512-.533q-.12-.089-.238-.181L7.15 7.91l-.087-.228a.6.6 0 0 1 .11-.487 1.2 1.2 0 0 1 .463-.351 1 1 0 0 0 .106-.057 1.3 1.3 0 0 0 .31-.605 2.7 2.7 0 0 1 .42-.86.9.9 0 0 1 .332-.266 1.04 1.04 0 0 1 .613-.05 2 2 0 0 0 .386.038.6.6 0 0 0 .194-.02c-.014-.008.085-.052.085-.075L10.009 4H6zm5 6H5v1h6zm8-6h-4v1h4zm0 3h-4v1h4zm0 3h-4v1h4z"/><path fill="none" d="M0 0h24v24H0z"/></svg>