<svg xmlns="http://www.w3.org/2000/svg" viewBox="0 0 16 16"><path d="M11.4 0H2v16h13V3.6zM14 15H3V1h7v4h4zm0-11h-3V1h.31L14 3.69zM7.6 7.047a7 7 0 0 0-.903.156 4 4 0 0 0-.91.333A1.22 1.22 0 0 0 5 8.596v3.714C5 13.419 6.76 14 8.5 14s3.5-.581 3.5-1.69V8.596a1.22 1.22 0 0 0-.787-1.06 4 4 0 0 0-.911-.333 7 7 0 0 0-.903-.156 9 9 0 0 0-1.8 0zM8.5 13c-1.558 0-2.458-.485-2.5-.69V9.748a4 4 0 0 0 .696.24 7 7 0 0 0 .905.156 9 9 0 0 0 .899.046 9 9 0 0 0 .9-.046 7 7 0 0 0 .903-.157A4 4 0 0 0 11 9.748v2.559c-.042.208-.942.693-2.5.693m2.242-4.581a.8.8 0 0 1 .243.177.8.8 0 0 1-.243.176 3 3 0 0 1-.68.245 6 6 0 0 1-.768.132 8 8 0 0 1-1.587 0 6 6 0 0 1-.77-.132 3 3 0 0 1-.68-.246 2 2 0 0 1-.251-.165.7.7 0 0 1 .252-.187 3 3 0 0 1 .679-.245 6 6 0 0 1 .769-.133 8 8 0 0 1 1.587 0 6 6 0 0 1 .77.133 3 3 0 0 1 .68.245z"/><path fill="none" d="M0 0h16v16H0z"/></svg>