<svg xmlns="http://www.w3.org/2000/svg" viewBox="0 0 24 24"><path d="M3 23h18V6.709L15.29 1H3zM15 2h.2L20 6.8V7h-5zM4 2h10v6h6v14H4zm13.324 11.819-.167-.004a12.2 12.2 0 0 0-2.469.338 24 24 0 0 1-2.344-2.728 11.9 11.9 0 0 0 .697-4.028 1.43 1.43 0 0 0-.928-1.237 1.4 1.4 0 0 0-.461-.08 1.52 1.52 0 0 0-1.014.398c-.836.75-.752 2.316.226 4.187q.062.123.13.276a2 2 0 0 0 .323.561c-.334 1.046-.803 2.182-1.216 3.184l-.252.694a9 9 0 0 0-1.36.607c-1.673.959-2.683 1.849-2.17 3.08a1.15 1.15 0 0 0 .88.716 1.3 1.3 0 0 0 .23.02 2.34 2.34 0 0 0 1.623-.813 10.9 10.9 0 0 0 1.467-2.83c1.074-.37 2.484-.74 3.784-1.04a7.5 7.5 0 0 0 2.876 1.87 2 2 0 0 0 .426.045 1.35 1.35 0 0 0 1.088-.489 1.65 1.65 0 0 0 .136-1.703 1.71 1.71 0 0 0-1.505-1.024M9.44 16.474c-.395.94-1.057 2.513-1.842 2.513a.7.7 0 0 1-.154-.018.62.62 0 0 1-.372-.58c.001-.285.195-1.033 1.972-1.815q.145-.065.314-.15l.13-.063zm1.84-9.28a.56.56 0 0 1 .367-.153.4.4 0 0 1 .144.024.63.63 0 0 1 .355.54 8.2 8.2 0 0 1-.47 2.71l-.01-.02c-.797-1.525-.794-2.736-.387-3.102zm-.424 8.02 1.17-2.792a69 69 0 0 0 1.709 1.937c-.947.21-2.358.678-2.88.854zm7.094.67a.55.55 0 0 1-.485.22 3.2 3.2 0 0 1-1.94-1.154l.178-.032a8 8 0 0 1 1.292-.168.894.894 0 0 1 .96.522.65.65 0 0 1-.005.613z"/><path fill="none" d="M0 0h24v24H0z"/></svg>