<svg xmlns="http://www.w3.org/2000/svg" viewBox="0 0 32 32"><path d="M27 9.699 19.3 2H5v28h22zM26 29H6V3h12v8h8zm-7-19V3l7 7zm-4.538 5.293L11.112 18H8.917a.917.917 0 0 0-.917.917v2.166a.917.917 0 0 0 .917.917h2.196l3.35 2.707A.34.34 0 0 0 15 24.43v-8.86a.34.34 0 0 0-.538-.277M14 23.05 11.466 21H9v-2h2.466L14 16.952zm3.584-6.819.682-.663A6.5 6.5 0 0 1 20 20a6.74 6.74 0 0 1-1.664 4.427l-.032.038-.715-.626A6.08 6.08 0 0 0 19 20a5.73 5.73 0 0 0-1.416-3.769M23 20a9.73 9.73 0 0 0-2.412-6.398l.684-.664A10.47 10.47 0 0 1 24 20a10.73 10.73 0 0 1-2.657 7.057l-.033.038-.717-.627A10.07 10.07 0 0 0 23 20"/><path fill="none" d="M0 0h32v32H0z"/></svg>