<svg xmlns="http://www.w3.org/2000/svg" viewBox="0 0 24 24"><path stroke-width="0" fill="none" d="M0 0h24v24H0z"/><path d="M17 11v7h-1v-7h1zM3.184 18L4.5 16.377 5.816 18h1.287l-1.96-2.417L7.238 13H5.951L4.5 14.79 3.049 13H1.762l2.094 2.583L1.896 18h1.288zM8 13v5h1v-3a1 1 0 0 1 2 0v3h1v-3a1 1 0 0 1 2 0v3h1v-3c0-1.103-.897-2-2-2-.6 0-1.133.271-1.5.691-.367-.42-.9-.691-1.5-.691-.366 0-.705.106-1 .278V13H8zm13-6.291V23H3v-4h1v3h16V8h-6V2H4v10H3V1h12.29L21 6.709zM20 6.8L15.2 2H15v5h5v-.2z" stroke-width="0"/></svg>