<svg xmlns="http://www.w3.org/2000/svg" viewBox="0 0 32 32"><path d="M6 29V3h12v8h8v8h1V9.699L19.3 2H5v28h19v-1zM19 3l7 7h-7zm1.52 16.855-.174-.003a12.7 12.7 0 0 0-2.571.352 25 25 0 0 1-2.442-2.842 12.4 12.4 0 0 0 .726-4.195 1.49 1.49 0 0 0-.966-1.288 1.4 1.4 0 0 0-.48-.082 1.6 1.6 0 0 0-1.055.414c-.872.781-.784 2.411.234 4.36q.065.128.135.287a2 2 0 0 0 .338.584c-.349 1.09-.837 2.273-1.267 3.316l-.262.723a9.6 9.6 0 0 0-1.417.632c-1.742.998-2.794 1.926-2.26 3.208a1.2 1.2 0 0 0 .917.745 1.4 1.4 0 0 0 .24.02 2.44 2.44 0 0 0 1.69-.846 11.3 11.3 0 0 0 1.527-2.947c1.119-.386 2.587-.771 3.94-1.082a7.84 7.84 0 0 0 2.996 1.946 2.2 2.2 0 0 0 .443.047 1.4 1.4 0 0 0 1.133-.509 1.72 1.72 0 0 0 .142-1.774 1.78 1.78 0 0 0-1.567-1.066m-8.21 2.765c-.412.98-1.101 2.618-1.919 2.618a.7.7 0 0 1-.16-.02.65.65 0 0 1-.388-.603c.002-.297.204-1.076 2.054-1.89q.15-.069.327-.156l.135-.066zm1.915-9.664a.58.58 0 0 1 .383-.16.4.4 0 0 1 .15.026.65.65 0 0 1 .37.563 8.5 8.5 0 0 1-.49 2.822l-.011-.022c-.83-1.587-.826-2.849-.402-3.23zm-.441 8.351 1.218-2.907c.56.672 1.46 1.666 1.78 2.017-.986.22-2.456.707-2.998.89m7.387.7a.57.57 0 0 1-.505.229 3.33 3.33 0 0 1-2.02-1.203l.186-.033a8 8 0 0 1 1.345-.175.93.93 0 0 1 1 .544.67.67 0 0 1-.006.637zM27 26h5v.999h-5V32h-1v-5.001h-5V26h5v-5h1z"/><path fill="none" d="M0 0h32v32H0z"/></svg>