<svg xmlns="http://www.w3.org/2000/svg" viewBox="0 0 16 16"><path d="M11.4 0H2v16h13V3.6zM14 6.105V15H3V1h7v4h4zM14 4h-3V1h.31L14 3.69zm-5.914 8c-.007.328-.007.66.01 1H5.75a.75.75 0 0 1-.75-.75v-4.5A.75.75 0 0 1 5.75 7h3.767a7.4 7.4 0 0 0-.561 1H6v4zm4.987-5.527a5.02 5.02 0 0 1-.618 3.255 7 7 0 0 0-1.2.572 4 4 0 0 1 1.037-.321 14 14 0 0 1-.761 1.052 1.77 1.77 0 0 0-.937.968 29 29 0 0 1 1.87-5.53 7.7 7.7 0 0 0-2.196 3.217A8.5 8.5 0 0 0 9.988 14h-.8c-.398-3.085.258-5.646 1.77-7.22 1.219-1.267 2.011-.694 2.115-.307"/><path fill="none" d="M0 0h16v16H0z"/></svg>