<svg xmlns="http://www.w3.org/2000/svg" viewBox="0 0 24 24"><path d="M15.29 1H3v11h1V2h10v6h6v14H4v-3H3v4h18V6.709zM20 7h-5V2h.2L20 6.8zm-3 4v2.295A2 2 0 0 0 15.959 13h-.918A2.044 2.044 0 0 0 13 15.041v.918A2.044 2.044 0 0 0 15.041 18h.918A2 2 0 0 0 17 17.705V18h1v-7zm-1.041 6h-.918A1.04 1.04 0 0 1 14 15.959v-.918A1.04 1.04 0 0 1 15.041 14h.918A1.04 1.04 0 0 1 17 15.041v.918A1.04 1.04 0 0 1 15.959 17M2 15.959v-.918A2.044 2.044 0 0 1 4.041 13H6v1H4.041A1.04 1.04 0 0 0 3 15.041v.918A1.04 1.04 0 0 0 4.041 17H6v1H4.041A2.044 2.044 0 0 1 2 15.959M8.39 18H12v-3a2.044 2.044 0 0 0-2.041-2H8v1h1.959a1.04 1.04 0 0 1 1.04 1h-2.39A1.61 1.61 0 0 0 7 16.61 1.39 1.39 0 0 0 8.39 18m.22-2H11v1H8.39a.39.39 0 0 1-.39-.39.61.61 0 0 1 .61-.61"/><path fill="none" d="M0 0h24v24H0z"/></svg>