<svg xmlns="http://www.w3.org/2000/svg" viewBox="0 0 32 32"><path d="M19.3 2H5v15h1V3h12v8h8v18H6v-4H5v5h22V9.699zm-.3 8V3l7 7zm4 14v-9h-1v3.78a3 3 0 1 0 0 4.44V24zm-3-1a2 2 0 1 1 2-2 2.003 2.003 0 0 1-2 2M8.879 24v-1H7a1.98 1.98 0 0 1-1.445-.618 2 2 0 0 1-.301-.404h3.745a.99.99 0 0 0 1-.965 2.656 2.656 0 0 0-1.95-2.885 3.36 3.36 0 0 0-2.838.522 2.86 2.86 0 0 0-1.207 2.212A3 3 0 0 0 7 24zm-3.877-3.093a1.89 1.89 0 0 1 .8-1.45 2.36 2.36 0 0 1 1.987-.364 1.706 1.706 0 0 1 1.21 1.885H5l.002-.07zm7.612-1.37a2.1 2.1 0 0 0 0 2.97 2.08 2.08 0 0 0 2.951 0l.707.707a3.1 3.1 0 0 1-2.19.906 3.05 3.05 0 0 1-2.175-.906 3.094 3.094 0 1 1 4.365-4.385l-.707.707a2.08 2.08 0 0 0-2.951 0z"/><path fill="none" d="M0 0h32v32H0z"/></svg>