<svg xmlns="http://www.w3.org/2000/svg" viewBox="0 0 32 32"><path d="M5 2v28h22V9.699L19.3 2zm21 27H6V3h12v8h8zm-7-19V3l7 7zm-5 14H8v-1h6zm-6-4h9v1H8zm0-3h9v1H8zm16 1h-5v-1h5zm0-3h-5v-1h5zm0 6h-5v-1h5zm0 3h-5v-1h5zM8 26h8v1H8zm16 1h-5v-1h5zM8 14h9V5H8zm8-1h-1.072c-.003-.297.026-.585.035-.882.003-.114.027-.196.005-.215.097-.027.237-.026.318-.045a.9.9 0 0 0 .584-.377 1.3 1.3 0 0 0 .13-.32zm-1.658-7H16v3.81a1.33 1.33 0 0 0-.697.473c-.101.135-.148.461-.254.567-.1.1-.322.075-.46.12-.78.247-.603 1.345-.567 2.03H11.92a1.5 1.5 0 0 1-.015-.316 3.3 3.3 0 0 0-.005-1.213 1.6 1.6 0 0 0-.544-.893 2.1 2.1 0 0 0 .642-1.07 2.3 2.3 0 0 1 .226-.52l.054.01a4 4 0 0 0 .502.046 1.58 1.58 0 0 0 1.262-.492c.308-.401-.137-1.106-.157-1.52s.308-.756.457-1.032M9 6h4.135a1.6 1.6 0 0 0-.3.642q-.002.024-.002.049c0 .244.305.513.305.762 0 .269.054.455-.144.56l-.032.011a.6.6 0 0 1-.193.02 2 2 0 0 1-.352-.038 1.04 1.04 0 0 0-.613.05.9.9 0 0 0-.331.265 2.7 2.7 0 0 0-.42.86 1.3 1.3 0 0 1-.31.606 1 1 0 0 1-.107.057 1.2 1.2 0 0 0-.463.351.6.6 0 0 0-.11.487l.087.228.135.109q.117.093.238.181c.247.183.46.341.512.533a2.7 2.7 0 0 1-.023.833 2 2 0 0 0 .02.434H9z"/><path fill="none" d="M0 0h32v32H0z"/></svg>