<svg xmlns="http://www.w3.org/2000/svg" viewBox="0 0 32 32"><path d="M19.3 2H5v28h22V9.699zM26 29H6V3h12v8h8zm-7-19V3l7 7zm-4 16h-4.5A1.5 1.5 0 0 1 9 24.5v-9a1.5 1.5 0 0 1 1.5-1.5h8.432a12 12 0 0 0-.786 1H10.5a.5.5 0 0 0-.5.5v9a.5.5 0 0 0 .5.5h4.522A24 24 0 0 0 15 26m3.873-5.558A21 21 0 0 1 21.7 15.3a10.67 10.67 0 0 0-3.764 5.273A17.3 17.3 0 0 0 17 28h-.917c-.823-9.408 4.162-15 6.1-15 1.594 0 2.63 2.257-.672 7.456A13.6 13.6 0 0 0 19.11 21.6a8.2 8.2 0 0 1 2.075-.643c-.817 1.239-1.523 2.105-1.523 2.105a3.64 3.64 0 0 0-2.073 1.936 26 26 0 0 1 1.284-4.556"/><path fill="none" d="M0 0h32v32H0z"/></svg>