<svg xmlns="http://www.w3.org/2000/svg" viewBox="0 0 16 16"><path stroke-width="0" fill="none" d="M0 0h16v16H0z"/><path d="M11.4 0H2v8h1V1h7v4h4v10H3v-1H2v2h13V3.6L11.4 0zM14 4h-3V1h.31L14 3.69V4zm-2 9h-1V7h1v6zm-2-2.5V13H9v-2.5a.501.501 0 0 0-1 0V13H7v-2.5a.501.501 0 0 0-1 0V13H5V9h1v.092c.157-.056.324-.092.5-.092.386 0 .734.15 1 .39.266-.24.614-.39 1-.39.827 0 1.5.673 1.5 1.5zm-8.102.4L.694 9h1.183l.613.966L3.102 9h1.183l-1.204 1.9L4.413 13H3.23l-.74-1.167L1.75 13H.567l1.331-2.1z" stroke-width="0"/></svg>