<svg xmlns="http://www.w3.org/2000/svg" viewBox="0 0 32 32"><path d="M14.123 13.295a15 15 0 0 0-1.866.31 8.3 8.3 0 0 0-1.833.642C9.247 14.85 9 15.533 9 16v7.8c0 1.948 3.606 3 7 3s7-1.052 7-3V16c0-.467-.247-1.15-1.424-1.753a8.3 8.3 0 0 0-1.834-.643 15 15 0 0 0-1.866-.31 19 19 0 0 0-3.753 0zM16 25.8c-3.718 0-6-1.165-6-2v-6.294a4 4 0 0 0 .424.247 8.3 8.3 0 0 0 1.834.643 15 15 0 0 0 1.866.31A19 19 0 0 0 16 18.8a19 19 0 0 0 1.877-.095 15 15 0 0 0 1.866-.31 8.3 8.3 0 0 0 1.833-.642 4 4 0 0 0 .424-.247V23.8c0 .835-2.282 2-6 2m5.121-10.662c.55.281.879.604.879.862s-.33.581-.879.862a7.3 7.3 0 0 1-1.61.56 14 14 0 0 1-1.737.289 18 18 0 0 1-3.547 0 14 14 0 0 1-1.738-.288 7.3 7.3 0 0 1-1.61-.56C10.329 16.58 10 16.257 10 16s.33-.581.879-.862a7.3 7.3 0 0 1 1.61-.56 14 14 0 0 1 1.737-.289 18 18 0 0 1 3.547 0 14 14 0 0 1 1.738.288 7.3 7.3 0 0 1 1.61.56zM19.3 2H5v28h22V9.699zM26 29H6V3h12v8h8zm-7-19V3l7 7z"/><path fill="none" d="M0 0h32v32H0z"/></svg>