<svg xmlns="http://www.w3.org/2000/svg" viewBox="0 0 24 24"><path d="M15.29 1H3v22h18V6.709zM20 22H4V2h10v6h6zm0-15h-5V2h.2L20 6.8zm-9.3 3.06a11 11 0 0 0-1.298.202 6.4 6.4 0 0 0-1.296.422C7.191 11.118 7 11.639 7 12v5.53c0 1.5 2.516 2.286 5 2.286s5-.786 5-2.287V12c0-.361-.191-.882-1.107-1.316a6.3 6.3 0 0 0-1.296-.422 11 11 0 0 0-1.297-.201 14.5 14.5 0 0 0-2.6 0zm1.3 8.756c-2.404 0-4-.775-4-1.287v-4.27c.037.019.068.039.107.057a6.3 6.3 0 0 0 1.296.422 11 11 0 0 0 1.297.201 14 14 0 0 0 2.6 0 11 11 0 0 0 1.298-.2 6.4 6.4 0 0 0 1.296-.423c.039-.018.07-.038.106-.057v4.27c0 .512-1.596 1.287-4 1.287m3.466-7.228c.44.208.534.38.534.412s-.095.204-.533.412a5.3 5.3 0 0 1-1.085.35 10 10 0 0 1-1.178.181 13 13 0 0 1-2.408 0 10 10 0 0 1-1.177-.181 5.3 5.3 0 0 1-1.085-.35C8.094 12.204 8 12.032 8 12s.095-.204.533-.412a5.3 5.3 0 0 1 1.085-.35 10 10 0 0 1 1.178-.181 12.5 12.5 0 0 1 2.408 0 10 10 0 0 1 1.177.181 5.3 5.3 0 0 1 1.085.35"/><path fill="none" d="M0 0h24v24H0z"/></svg>