<svg xmlns="http://www.w3.org/2000/svg" viewBox="0 0 32 32"><path fill="none" d="M0 0h32v32H0z"/><path fill="#231f20" d="M15.404 14a5.4 5.4 0 0 0-.286-1H26v1zM23 21h-5.649q.337.47.58 1H23zm6-12.291V26H18.5v-1H28V10h-6V4H11v5.596a5.5 5.5 0 0 0-1-.096V3h13.29zM28 8.8 23.2 4H23v5h5zM26 18v-1H15.118a5.5 5.5 0 0 1-.527 1zm-9 6.5V29H3l.01-4.5c0-2.481 2.009-4.5 4.49-4.5h5c2.481 0 4.5 2.019 4.5 4.5m-1 0c0-1.93-1.57-3.5-3.5-3.5h-5C5.57 21 4 22.57 4 24.5V28h12zM6.01 15c0-2.206 1.784-4 3.99-4s4 1.794 4 4-1.794 4-4 4-3.99-1.794-3.99-4M7 15c0 1.654 1.346 3 3 3s3-1.346 3-3-1.346-3-3-3-3 1.346-3 3"/></svg>