<svg xmlns="http://www.w3.org/2000/svg" viewBox="0 0 16 16"><path d="M7.731 8.034 6.078 9h-1.16A.917.917 0 0 0 4 9.917v1.166a.917.917 0 0 0 .917.917H6l1.731.966A.17.17 0 0 0 8 12.821V8.18a.17.17 0 0 0-.269-.145zM7 11.414 6.26 11H5v-1h1.35L7 9.62zm3.559-3.806.686-.515A8.4 8.4 0 0 1 12 10.538a8.1 8.1 0 0 1-.742 3.379l-.684-.513a7.6 7.6 0 0 0 .587-2.866 7.8 7.8 0 0 0-.602-2.93m-1.045.76a5.3 5.3 0 0 1 .486 2.17 5.2 5.2 0 0 1-.464 2.11l-.712-.534a4.5 4.5 0 0 0 .306-1.576 4.6 4.6 0 0 0-.322-1.64zM15 3.6 11.4 0H2v16h13zM14 15H3V1h7v4h4zm0-11h-3V1h.31L14 3.69z"/><path fill="none" d="M0 0h16v16H0z"/></svg>