<svg xmlns="http://www.w3.org/2000/svg" viewBox="0 0 32 32"><path d="M27 9.699 19.3 2H5v28h22zM26 29H6V3h12v8h8zm-7-19V3l7 7zm.5 6a1.5 1.5 0 1 0-1.5-1.5 1.5 1.5 0 0 0 1.5 1.5m0-2a.5.5 0 1 1-.5.5.5.5 0 0 1 .5-.5m1.007 4.259-1.79 1.684a.49.49 0 0 1-.653.015c-.765-.652-2.498-2.16-3.25-2.832a.49.49 0 0 0-.642-.009l-3.839 3.243a.485.485 0 0 1-.666 0 .485.485 0 0 0-.667 0l-1 .96V27h16v-5.68l-2.798-3.036a.49.49 0 0 0-.695-.025M23 21.71V26H9v-4.253l.396-.381a1.49 1.49 0 0 0 1.63-.285l3.453-2.914c.852.752 2.265 1.98 2.937 2.553a1.49 1.49 0 0 0 1.985-.049l1.414-1.33z"/><path fill="none" d="M0 0h32v32H0z"/></svg>