<svg xmlns="http://www.w3.org/2000/svg" viewBox="0 0 16 16"><path d="M10.4 0H1v16h9v-1H2V1h7v4h4v2h1V3.6zM10 4V1h.31L13 3.69V4zm-3.814 6.65a51 51 0 0 0 .69-1.9c.345.42.652.844 1.02 1.25H9v-.106c-.054.012-.105.02-.16.034a21 21 0 0 1-1.626-1.914 9.5 9.5 0 0 0 .555-2.972 1.3 1.3 0 0 0-.827-1.075 1.2 1.2 0 0 0-.39-.067 1.28 1.28 0 0 0-.851.333c-.684.613-.645 1.93.1 3.354a2.1 2.1 0 0 0 .343.502l-.66 2.435a3 3 0 0 0-.689.361c-1.314.753-2.103 1.463-1.68 2.477a1 1 0 0 0 .764.62 1 1 0 0 0 .2.018 1.86 1.86 0 0 0 1.31-.65 6.7 6.7 0 0 0 1.022-1.945L7 11.27v-.85c-.27.074-.537.15-.814.23m-1.379 2.079a1.44 1.44 0 0 1-.888.522.12.12 0 0 1-.12-.063c-.086-.207-.263-.636 1.817-1.837a4.7 4.7 0 0 1-.809 1.378m1.147-7.456a.67.67 0 0 1 .256-.443.7.7 0 0 1 .372-.113.6.6 0 0 1 .136.016.48.48 0 0 1 .34.39A5.1 5.1 0 0 1 6.56 7.23a2.73 2.73 0 0 1-.607-1.958zM13 9v3h3v1h-3v3h-1v-3H9v-1h3V9z"/><path fill="none" d="M0 0h16v16H0z"/></svg>