<svg xmlns="http://www.w3.org/2000/svg" viewBox="0 0 32 32"><path fill="none" d="M0 0h32v32H0z"/><path d="M15.404 14a5.443 5.443 0 0 0-.286-1H26v1H15.404zM23 21h-5.649c.226.312.417.647.58 1H23v-1zm6-12.291V26H18.5v-1H28V10h-6V4H11v5.596a5.493 5.493 0 0 0-1-.096V3h13.29L29 8.709zM28 8.8L23.2 4H23v5h5v-.2zM26 18v-1H15.118a5.48 5.48 0 0 1-.527 1H26zm-9 6.5V29H3l.01-4.5c0-2.481 2.009-4.5 4.49-4.5h5c2.481 0 4.5 2.019 4.5 4.5zm-1 0c0-1.93-1.57-3.5-3.5-3.5h-5C5.57 21 4 22.57 4 24.5V28h12v-3.5zM6.01 15c0-2.206 1.784-4 3.99-4s4 1.794 4 4-1.794 4-4 4-3.99-1.794-3.99-4zM7 15c0 1.654 1.346 3 3 3s3-1.346 3-3-1.346-3-3-3-3 1.346-3 3z" fill="#231f20"/></svg>