<svg xmlns="http://www.w3.org/2000/svg" viewBox="0 0 16 16"><path d="M15 3.6 11.4 0H2v16h13zM14 15H3V1h7v4h4zm0-11h-3V1h.31L14 3.69zM8.214 8.014a9.5 9.5 0 0 0 .555-2.972 1.3 1.3 0 0 0-.827-1.075 1.2 1.2 0 0 0-.39-.067 1.28 1.28 0 0 0-.851.333c-.684.613-.645 1.93.1 3.354a2.1 2.1 0 0 0 .343.502l-.66 2.435a3 3 0 0 0-.689.361c-1.314.753-2.103 1.463-1.68 2.477a1 1 0 0 0 .764.62 1 1 0 0 0 .2.018 1.86 1.86 0 0 0 1.31-.65 6.7 6.7 0 0 0 1.022-1.945l2.043-.47a5.7 5.7 0 0 0 2.17 1.393 1.7 1.7 0 0 0 .35.038 1.14 1.14 0 0 0 .92-.419 1.38 1.38 0 0 0 .12-1.42 1.41 1.41 0 0 0-1.247-.847l-.139-.003a8.3 8.3 0 0 0-1.788.25 21 21 0 0 1-1.626-1.913M5.807 12.73a1.44 1.44 0 0 1-.888.522.12.12 0 0 1-.12-.063c-.086-.207-.263-.636 1.817-1.837a4.7 4.7 0 0 1-.809 1.378m1.147-7.456a.67.67 0 0 1 .256-.443.7.7 0 0 1 .372-.113.6.6 0 0 1 .136.016.48.48 0 0 1 .34.39A5.1 5.1 0 0 1 7.56 7.23a2.73 2.73 0 0 1-.607-1.958zm.232 5.376a51 51 0 0 0 .69-1.899c.39.474.719.957 1.155 1.41-.663.146-1.228.314-1.845.49zm4.464-.125.131.003a.59.59 0 0 1 .52.371.6.6 0 0 1 .008.546.27.27 0 0 1-.21.069 1 1 0 0 1-.191-.023 4.05 4.05 0 0 1-1.461-.858 9 9 0 0 1 1.203-.108"/><path fill="none" d="M0 0h16v16H0z"/></svg>