<svg xmlns="http://www.w3.org/2000/svg" viewBox="0 0 32 32"><path stroke-width="0" fill="none" d="M0 0h32v32H0z"/><path d="M19.3 2H5v14h1V3h12v8h8v18H6v-3H5v4h22V9.699L19.3 2zm-.3 8V3l7 7h-7zM6.5 21.671L4.689 24H3.423l2.444-3.143L3.645 18H4.91l1.59 2.043L8.09 18h1.265l-2.222 2.857L9.577 24H8.311L6.5 21.671zM12 18v.512a2.476 2.476 0 0 1 3.5.49 2.496 2.496 0 0 1 2-1.002c1.379 0 2.5 1.121 2.5 2.5V24h-1v-3.5c0-.827-.673-1.5-1.5-1.5s-1.5.673-1.5 1.5V24h-1v-3.5c0-.827-.673-1.5-1.5-1.5s-1.5.673-1.5 1.5V24h-1v-6h1zm11-3v9h-1v-9h1z" stroke-width="0"/></svg>