<svg xmlns="http://www.w3.org/2000/svg" viewBox="0 0 24 24"><path fill="none" d="M0 0h24v24H0z"/><path d="M17 16h-4.938a5.014 5.014 0 0 0-1.422-1H17v1zm2-3v-1h-7.5c0 .345-.047.677-.12 1H19zm3-7.4V20h-8.5v-.5c0-.171-.034-.333-.05-.5H21V7h-4V3H8v4.62a4.47 4.47 0 0 0-1-.12V2h11.4L22 5.6zm-1 .09L18.31 3H18v3h3v-.31zM19 9h-8.67c.27.3.497.635.68 1H19V9zM4 12c0-1.654 1.346-3 3-3s2.99 1.346 2.99 3S8.654 15 7 15s-3-1.346-3-3zm1 0c0 1.103.897 2 2 2s2-.897 2-2-.897-2-2-2-2 .897-2 2zm6.99 7.5L12 22H2v-2.5C2 17.57 3.57 16 5.5 16h3c1.93 0 3.49 1.57 3.49 3.5zm-.99 0c0-1.379-1.122-2.5-2.5-2.5h-3A2.503 2.503 0 0 0 3 19.5V21h8v-1.5z" fill="#231f20"/></svg>