<svg xmlns="http://www.w3.org/2000/svg" viewBox="0 0 24 24"><path d="M11.597 12.047 9.126 14H6.917a.917.917 0 0 0-.917.917v1.166a.917.917 0 0 0 .917.917h2.209l2.47 1.953A.255.255 0 0 0 12 18.75v-6.5a.255.255 0 0 0-.403-.203M11 17.208 9.474 16H7v-1h2.474L11 13.793zm2.575-5.212a5.34 5.34 0 0 1 1.396 3.588 5.2 5.2 0 0 1-1.417 3.568l-.578-.504a5.27 5.27 0 0 0 1.125-3.064 5.4 5.4 0 0 0-1.123-3.095zm2.276-1.95a8.46 8.46 0 0 1 2.09 5.538 8.16 8.16 0 0 1-2.133 5.5l-.546-.476a8.25 8.25 0 0 0 1.839-5.024 8.54 8.54 0 0 0-1.83-5.087zM3 23h18V6.709L15.29 1H3zM15 2h.2L20 6.8V7h-5zM4 2h10v6h6v14H4z"/><path fill="none" d="M0 0h24v24H0z"/></svg>