<svg xmlns="http://www.w3.org/2000/svg" viewBox="0 0 32 32"><path d="M15.066 27h-2.132l-1.858-13h5.848l-.564 3.946c.33-.106.674-.175 1.036-.186l.573-4.007L27 5.725V3H1v2.725l9.031 8.028L12.066 28h3.868l.42-2.948a3.7 3.7 0 0 1-.946-.442zM10.69 13 2.815 6h22.37l-7.875 7zM26 4v1H2V4zm2.5 15c-1.208 0-2.217.86-2.45 2h-6.1a2.5 2.5 0 0 0-.48-1.022l3.174-2.819A2.48 2.48 0 0 0 24.5 18a2.495 2.495 0 0 0 2.491-2.5 2.495 2.495 0 1 0-4.764 1.028l-3.297 2.927A2.5 2.5 0 0 0 17.5 19c-1.379 0-2.5 1.121-2.5 2.5s1.121 2.5 2.5 2.5c.533 0 1.024-.17 1.43-.455l3.297 2.927c-.143.315-.227.66-.227 1.028a2.495 2.495 0 1 0 4.991 0c0-1.379-1.112-2.5-2.491-2.5-.74 0-1.398.329-1.856.84l-3.174-2.818c.23-.297.402-.64.48-1.022h6.1a2.495 2.495 0 0 0 4.94-.5A2.493 2.493 0 0 0 28.5 19M23 15a1 1 0 0 1 1-1h1a1 1 0 0 1 1 1v1a1 1 0 0 1-1 1h-1a1 1 0 0 1-1-1zm0 12a1 1 0 0 1 1-1h1a1 1 0 0 1 1 1v1a1 1 0 0 1-1 1h-1a1 1 0 0 1-1-1zm-6-4a1 1 0 0 1-1-1v-1a1 1 0 0 1 1-1h1a1 1 0 0 1 1 1v1a1 1 0 0 1-1 1zm13-1a1 1 0 0 1-1 1h-1a1 1 0 0 1-1-1v-1a1 1 0 0 1 1-1h1a1 1 0 0 1 1 1z"/><path fill="none" d="M0 0h32v32H0z"/></svg>