<?xml version="1.0" encoding="UTF-8"?><svg id="icons" xmlns="http://www.w3.org/2000/svg" viewBox="0 0 32 32"><defs><style>.cls-1{fill:none;}</style></defs><rect class="cls-1" width="32" height="32"/><path d="M2,6.5c0-1.37891,1.12109-2.5,2.5-2.5s2.47998,1.12109,2.47998,2.5-1.10107,2.5-2.47998,2.5-2.5-1.12109-2.5-2.5ZM12.5,7c1.37891,0,2.47998-1.12109,2.47998-2.5s-1.10107-2.5-2.47998-2.5-2.5,1.12109-2.5,2.5,1.12109,2.5,2.5,2.5ZM18,14l-5,5-1.5,11h-3l-1.5-11-5-5v-2h16v2ZM11.85449,19h-3.70898l1.22754,10h1.25391l1.22754-10ZM15.86475,15H4.13525l3.33301,3h5.06348l3.33301-3ZM17,13H3v1h14v-1ZM25,8v3.2793l-2.64648-2.64648-.70703.70703,3.85352,3.85352,3.85352-3.85352-.70703-.70703-2.64648,2.64648v-3.2793c0-2.20605-1.79395-4-4-4h-4v1h4c1.6543,0,3,1.3457,3,3ZM30,19c0,1.07874-.86066,1.95538-1.93042,1.99298l-1.16327,5.23444c.646.33197,1.09369.99786,1.09369,1.77258,0,1.10254-.89746,2-2,2s-1.97998-.89746-1.97998-2c0-1.07867.84161-1.95532,1.91046-1.99298l1.16315-5.23444c-.64594-.33203-1.09363-.99792-1.09363-1.77258,0-.1424.01611-.28082.04456-.41486l-2.55005-1.2699c-.36682.41632-.89752.68475-1.49451.68475-.36786,0-.70844-.10693-1.00494-.28101l-2.27954,2.26978c.17633.29785.28448.64081.28448,1.01123,0,.81555-.49249,1.51642-1.19434,1.82733l.53918,3.20758c.93811.16461,1.65515.98065,1.65515,1.96509,0,1.10254-.89746,2-2,2s-1.97998-.89746-1.97998-2c0-.87103.55121-1.60632,1.32489-1.87994l-.52771-3.13855c-1.01581-.09406-1.79718-.94159-1.79718-1.98151,0-1.10254.87744-2,1.97998-2,.3689,0,.71045.10742,1.00751.28241l2.27838-2.26855c-.17731-.2984-.26587-.6424-.26587-1.01385,0-1.10254.87744-2,1.97998-2s2,.89746,2,2c0,.14648-.01794.28845-.04803.42609l2.5462,1.26752c.367-.42133.90076-.6936,1.50183-.6936,1.10254,0,2,.89746,2,2ZM18,20.5c0-.27618-.22388-.5-.5-.5h-1c-.27612,0-.5.22382-.5.5v1c0,.27612.22388.5.5.5h1c.27612,0,.5-.22388.5-.5v-1ZM23,15.5c0-.27618-.22388-.5-.5-.5h-1c-.27612,0-.5.22382-.5.5v1c0,.27612.22388.5.5.5h1c.27612,0,.5-.22388.5-.5v-1ZM29,18.5c0-.27618-.22388-.5-.5-.5h-1c-.27612,0-.5.22382-.5.5v1c0,.27612.22388.5.5.5h1c.27612,0,.5-.22388.5-.5v-1Z"/></svg>