<?xml version="1.0" encoding="UTF-8"?><svg id="icons" xmlns="http://www.w3.org/2000/svg" viewBox="0 0 24 24"><defs><style>.cls-1{fill:none;}</style></defs><path d="M14.00006,8.99994H1.00006v2l4,4,1,8h3l1-8,4-4v-2ZM8.11725,21.99994h-1.23438l-.75-7h2.73438l-.75,7ZM9.58594,14h-4.17188l-2-2h8.17188l-2,2ZM13.00006,10.58588l-.41406.41406H2.41412l-.41406-.41406v-.58594h11v.58594ZM1,5c0-1.10254.89746-2,2-2s2,.89746,2,2-.89746,2-2,2-2-.89746-2-2ZM8,3c0-1.10254.89746-2,2-2s2,.89746,2,2-.89746,2-2,2-2-.89746-2-2ZM16,3h-2v-1h2c1.6543,0,2.99,1.3457,2.99,3l.01,2.29297,1.64648-1.64648.70703.70703-2.84766,2.84766-2.84668-2.84766.70703-.70703,1.63379,1.63452v-2.28101c0-1.10254-.89746-2-2-2ZM23,15.5c0-.82715-.67285-1.5-1.5-1.5-.30701,0-.59229.09344-.83026.25232l-1.74445-1.30835c.04419-.14124.07471-.28839.07471-.44397,0-.82715-.67285-1.5-1.5-1.5s-1.5.67285-1.5,1.5c0,.2309.05676.44708.15033.64264l-2.00769,2.00769c-.19556-.09357-.41174-.15033-.64264-.15033-.82715,0-1.5.67285-1.5,1.5,0,.75372.56061,1.37329,1.28564,1.47833l.448,2.2392c-.43732.26233-.71362.73639-.71362,1.28247,0,.82715.65283,1.5,1.47998,1.5s1.47998-.67285,1.47998-1.5c0-.75378-.54059-1.37329-1.26575-1.47833l-.44769-2.23932c.43719-.26239.73346-.73633.73346-1.28235,0-.2309-.05676-.44708-.15033-.64264l2.00769-2.00769c.19556.09357.41174.15033.64264.15033.30701,0,.59229-.09344.83026-.25232l1.74445,1.30835c-.04419.14124-.07471.28839-.07471.44397,0,.56317.31561,1.04895.77576,1.30536l-.53693,3.22107c-.70251.12439-1.21881.73584-1.21881,1.47357,0,.82715.65283,1.5,1.47998,1.5s1.47998-.67285,1.47998-1.5c0-.56311-.29547-1.04883-.75562-1.3053l.53674-3.22107c.70264-.12433,1.23889-.7359,1.23889-1.47363ZM14,17h-1v-1h1v1ZM18,13h-1v-1h1v1ZM21,16v-1h1v1h-1Z"/><rect class="cls-1" width="24" height="24"/></svg>