<svg xmlns="http://www.w3.org/2000/svg" viewBox="0 0 16 16"><path d="M6.415 14l-.352-1.876c-.007-.039-.015-.077-.021-.116L5.102 7h3.795L8.57 8.754c.077.002.154.004.23.013l.93-.774.234-1.249L14 2.707V1H0v1.707l4.037 4.037L5.585 15h2.83l.194-1H6.415zM1 2.293V2h12v.293L12.293 3H1.707L1 2.293zM2.707 4h8.586l-2 2H4.707l-2-2zM14.5 10a1.5 1.5 0 0 0-1.408 1h-3.066l1.572-1.31c.252.192.562.31.902.31.827 0 1.5-.673 1.5-1.5S13.327 7 12.5 7 11 7.673 11 8.5c0 .215.047.419.13.604l-1.587 1.322A1.493 1.493 0 0 0 8.5 10c-.827 0-1.5.673-1.5 1.5S7.673 13 8.5 13a1.49 1.49 0 0 0 1.043-.426l1.586 1.322A1.487 1.487 0 0 0 11 14.5c0 .827.673 1.5 1.5 1.5s1.5-.673 1.5-1.5-.673-1.5-1.5-1.5c-.34 0-.65.118-.902.31l-1.572-1.311h3.066A1.498 1.498 0 0 0 14.5 13c.827 0 1.5-.673 1.5-1.5s-.673-1.5-1.5-1.5zM12 8h1v1h-1V8zm0 6.75V14h1v1h-1v-.25zm-3-3.487V12H8v-1h1v.263zm6 0V12h-1v-1h1v.263z" stroke-width="0"/><path stroke-width="0" fill="none" d="M0 0h16v16H0z"/></svg>