<?xml version="1.0" encoding="UTF-8"?><svg id="icons" xmlns="http://www.w3.org/2000/svg" viewBox="0 0 16 16"><defs><style>.cls-1{fill:none;}</style></defs><rect class="cls-1" width="16" height="16"/><path d="M7,7v-1H0v2l2.79999,3h.00482l.37054,4h.64929l.36926-4h.0061l2.79999-3v-1ZM3.85254,10.2002h-.70508l-1.30664-1.40039h3.31836l-1.30664,1.40039ZM6,8H1v-1h5v1ZM10.5,2h-.5v-1h.5c1.37842,0,2.5,1.12109,2.5,2.5v.5h1.17603l-1.67603,2.05817-1.67603-2.05817h1.17603v-.5c0-.82715-.67285-1.5-1.5-1.5ZM6,2.5c0-.82715.67285-1.5,1.5-1.5s1.5.67285,1.5,1.5-.67285,1.5-1.5,1.5-1.5-.67285-1.5-1.5ZM0,3.5c0-.82715.67285-1.5,1.5-1.5s1.5.67285,1.5,1.5-.67285,1.5-1.5,1.5-1.5-.67285-1.5-1.5ZM16,9.5c0-.82715-.67285-1.5-1.5-1.5-.44879,0-.84747.20209-1.12262.51544l-1.40753-.71692c.01959-.0965.03015-.19629.03015-.29852,0-.82715-.67285-1.5-1.5-1.5s-1.5.67285-1.5,1.5c0,.27631.08032.5321.21118.75464l-.95654.95654c-.22253-.13086-.47833-.21118-.75464-.21118-.82715,0-1.5.67285-1.5,1.5,0,.81519.6543,1.47736,1.46497,1.49646l.29718,1.20557c-.45276.25848-.76215.7403-.76215,1.29797,0,.82715.67285,1.5,1.5,1.5s1.5-.67285,1.5-1.5c0-.81427-.65295-1.47565-1.46234-1.49622l-.29767-1.20697c.4516-.25879.76001-.74005.76001-1.29681,0-.25989-.07239-.50085-.18915-.71417l.97498-.97498c.21332.11676.45428.18915.71417.18915.43726,0,.82776-.19128,1.10217-.49072l1.42462.72565c-.0155.08636-.02679.17432-.02679.26508,0,.59485.35077,1.10547.85388,1.34784l-.45001,2.16187c-.78168.05072-1.40387.69604-1.40387,1.4903,0,.82715.67285,1.5,1.5,1.5s1.5-.67285,1.5-1.5c0-.57837-.33258-1.07556-.81323-1.32574l.45581-2.18866c.75952-.07306,1.35742-.70728,1.35742-1.4856ZM8,11h-1v-1h1v1ZM11,8h-1v-1h1v1ZM14,10v-1h1v1h-1Z"/></svg>