<?xml version="1.0" encoding="UTF-8"?><svg id="icons" xmlns="http://www.w3.org/2000/svg" viewBox="0 0 16 16"><defs><style>.cls-1{fill:none;}</style></defs><path d="M14.17603,4l-1.67603,2.05817-1.67603-2.05817h1.17603v-.5c0-.82715-.67285-1.5-1.5-1.5h-.5v-1h.5c1.37842,0,2.5,1.12109,2.5,2.5v.5h1.17603ZM7.5,1c-.82715,0-1.5.67285-1.5,1.5s.67285,1.5,1.5,1.5,1.5-.67285,1.5-1.5-.67285-1.5-1.5-1.5ZM1.5,2c-.82715,0-1.5.67285-1.5,1.5s.67285,1.5,1.5,1.5,1.5-.67285,1.5-1.5-.67285-1.5-1.5-1.5ZM14.74664,10.9751l-.46832,2.24896c.43091.26385.72168.73468.72168,1.27594,0,.82715-.67285,1.5-1.5,1.5s-1.49-.67285-1.49-1.5c0-.75861.55787-1.38074,1.28974-1.47974l.46259-2.22223c-.45288-.25842-.76233-.7403-.76233-1.29803,0-.0542.01038-.10547.01599-.1582l-1.48572-.75696c-.26917.25568-.63062.41516-1.03027.41516-.22266,0-.43225-.05188-.62244-.13928l-1.01685,1.01685c.0874.19019.13928.39978.13928.62244,0,.52002-.26648.97839-.66949,1.24756l.3125,1.26691c.75934.07324,1.34699.70734,1.34699,1.48553,0,.82715-.66285,1.5-1.49,1.5s-1.5-.67285-1.5-1.5c0-.52094.2674-.97974.67163-1.24872l-.31195-1.26544c-.76056-.07196-1.35968-.70673-1.35968-1.48584,0-.82715.67285-1.5,1.5-1.5.23907,0,.4621.0614.6629.16132l.99841-.99841c-.09991-.20081-.16132-.42383-.16132-.6629,0-.82715.67285-1.5,1.5-1.5s1.5.67285,1.5,1.5c0,.06567-.01117.1283-.01941.19177l1.46289.74506c.27136-.26965.64465-.43683,1.05652-.43683.82715,0,1.5.67285,1.5,1.5,0,.74268-.54382,1.35657-1.25336,1.4751ZM8,10h-1v1h1v-1ZM11,7h-1v1h1v-1ZM15,10v-1h-1v1h1Z"/><rect class="cls-1" width="16" height="16"/></svg>