<?xml version="1.0" encoding="UTF-8"?><svg id="icons" xmlns="http://www.w3.org/2000/svg" viewBox="0 0 32 32"><defs><style>.cls-1{fill:none;}</style></defs><path d="M29.35352,9.33984l-3.85352,3.85352-3.85352-3.85352.70703-.70703,2.64648,2.64648v-3.2793c0-1.6543-1.3457-3-3-3h-4v-1h4c2.20605,0,4,1.79395,4,4v3.2793l2.64648-2.64648.70703.70703ZM4.5,4c-1.37891,0-2.5,1.12109-2.5,2.5s1.12109,2.5,2.5,2.5,2.48-1.12109,2.48-2.5-1.10109-2.5-2.48-2.5ZM12.5,2c-1.37891,0-2.5,1.12109-2.5,2.5s1.12109,2.5,2.5,2.5,2.48-1.12109,2.48-2.5-1.10109-2.5-2.48-2.5ZM30,19c0,1.07874-.86066,1.95538-1.93042,1.99298l-1.16327,5.23444c.646.33197,1.09369.99786,1.09369,1.77258,0,1.10254-.89746,2-2,2s-1.97998-.89746-1.97998-2c0-1.07867.84161-1.95532,1.91046-1.99298l1.16315-5.23444c-.64594-.33203-1.09363-.99792-1.09363-1.77258,0-.1424.01611-.28082.04456-.41486l-2.55005-1.2699c-.36682.41632-.89752.68475-1.49451.68475-.36786,0-.70844-.10693-1.00494-.28101l-2.27948,2.26978c.17633.29785.28442.64081.28442,1.01123,0,.81555-.49249,1.51642-1.19434,1.82733l.53918,3.20758c.93811.16461,1.65515.98065,1.65515,1.96509,0,1.10254-.89746,2-2,2s-1.97998-.89746-1.97998-2c0-.87103.55121-1.60632,1.32489-1.87994l-.52777-3.13855c-1.01587-.09406-1.79714-.94159-1.79714-1.98151,0-1.10254.87746-2,1.98-2,.3689,0,.71045.10742,1.00751.28241l2.27832-2.26855c-.17725-.2984-.26583-.6424-.26583-1.01385,0-1.10254.87746-2,1.98-2s2,.89746,2,2c0,.14648-.01794.28845-.04803.42609l2.5462,1.26752c.367-.42133.90076-.6936,1.50183-.6936,1.10254,0,2,.89746,2,2ZM18,20.5c0-.27618-.22388-.5-.5-.5h-1c-.27612,0-.5.22382-.5.5v1c0,.27612.22388.5.5.5h1c.27612,0,.5-.22388.5-.5v-1ZM23,15.5c0-.27618-.22388-.5-.5-.5h-1c-.27612,0-.5.22382-.5.5v1c0,.27612.22388.5.5.5h1c.27612,0,.5-.22388.5-.5v-1ZM29,18.5c0-.27618-.22388-.5-.5-.5h-1c-.27612,0-.5.22382-.5.5v1c0,.27612.22388.5.5.5h1c.27612,0,.5-.22388.5-.5v-1Z"/><rect class="cls-1" width="32" height="32"/></svg>