<svg xmlns="http://www.w3.org/2000/svg" viewBox="0 0 24 24"><path d="M20.5 5a2.5 2.5 0 0 0-2.03 1.05l-4.53-2.012A2.499 2.499 0 1 0 9 3.499L4.186 7.11A2.4 2.4 0 0 0 3.5 7a2.5 2.5 0 0 0 0 5c.015 0 .028-.004.043-.004l.939 4.226a2.497 2.497 0 1 0 3.345 3.173l3.918.652a6 6 0 0 1-1.095-1.196l-2.66-.443a2.5 2.5 0 0 0-.406-1.285l2.037-2.037a5.9 5.9 0 0 1 .43-1.843l-3.174 3.173A2.5 2.5 0 0 0 5.5 16l-.042.004-.94-4.226a2.5 2.5 0 0 0 1.26-1.26l4.226.94L10 11.5a2.5 2.5 0 0 0 .312 1.192 6 6 0 0 1 .688-1V11a1 1 0 0 1 1-1h1a1 1 0 0 1 .246.05 6 6 0 0 1 .994-.311 2.47 2.47 0 0 0-1.546-.72l-.396-3.162a2.5 2.5 0 0 0 1.231-.908l4.532 2.014a2.3 2.3 0 0 0 .034 1.18l-2.949 1.475c.118-.007.235-.018.354-.018a6 6 0 0 1 1.51.203l1.533-.766a2.5 2.5 0 0 0 .92.731L19.2 10.91a6 6 0 0 1 .837.823l.4-1.74c.022.001.042.007.063.007a2.5 2.5 0 0 0 0-5M5 17h1a1 1 0 0 1 1 1v1a1 1 0 0 1-1 1H5a1 1 0 0 1-1-1v-1a1 1 0 0 1 1-1m-1-6H3a1 1 0 0 1-1-1V9a1 1 0 0 1 1-1h1a1 1 0 0 1 1 1v1a1 1 0 0 1-.06.295A.99.99 0 0 1 4 11m6.222-.518-4.226-.94c0-.014.004-.027.004-.041l4.817-3.613a2.5 2.5 0 0 0 .49.092l.395 3.163a2.5 2.5 0 0 0-1.48 1.339M13 4a1 1 0 0 1-1 1h-1a1 1 0 0 1-1-1V3a1 1 0 0 1 .06-.295A.99.99 0 0 1 11 2h1a1 1 0 0 1 1 1zm9 4a1 1 0 0 1-1 1h-1a1 1 0 0 1-1-1V7a1 1 0 0 1 1-1h1a1 1 0 0 1 1 1zm-4.007 14 .69.689a2.455 2.455 0 0 1-3.504-1.305c.107.005.213.016.321.016a6 6 0 0 0 .571-.047A.99.99 0 0 0 17 22z" opacity=".25"/><path d="M9.85 5.363a2.52 2.52 0 1 0-.603-.798L5.151 7.637A2.49 2.49 0 1 0 6 9.5a2.5 2.5 0 0 0-.247-1.065zM10 4V3a1 1 0 0 1 1-1h1a1 1 0 0 1 1 1v1a1 1 0 0 1-1 1h-1a1 1 0 0 1-1-1M5 9v1a1 1 0 0 1-1 1H3a1 1 0 0 1-1-1V9a1 1 0 0 1 1-1h1a1 1 0 0 1 1 1m15.75 9.862a.67.67 0 0 0-.943 0l-.124.124-.757-.757a4.451 4.451 0 1 0-.689.691l.756.756-.13.129a.67.67 0 0 0 0 .943l2.057 2.055a.666.666 0 0 0 .942 0l.933-.932a.68.68 0 0 0 0-.962zM12.1 15.5a3.4 3.4 0 1 1 3.4 3.4 3.404 3.404 0 0 1-3.4-3.4"/><path fill="none" d="M0 0h24v24H0z"/></svg>