<svg xmlns="http://www.w3.org/2000/svg" viewBox="0 0 16 16"><path opacity=".25" d="M8.063.955A1.5 1.5 0 0 0 5.941.95L.933 5.937A1.5 1.5 0 1 0 3.05 8.063l5.009-4.987a1.5 1.5 0 0 0 .004-2.12zM3 7.5a.5.5 0 0 1-.5.5h-1a.5.5 0 0 1-.5-.5v-1a.5.5 0 0 1 .5-.5h1a.5.5 0 0 1 .5.5v1zm5-5a.5.5 0 0 1-.5.5h-1a.5.5 0 0 1-.5-.5v-1a.5.5 0 0 1 .5-.5h1a.5.5 0 0 1 .5.5v1zm4.404 12.375l.25.248A2.001 2.001 0 0 1 11 16a1.99 1.99 0 0 1-1.952-1.643c.326.19.676.338 1.052.428a.49.49 0 0 0 .4.215h1a.49.49 0 0 0 .404-.221c.116-.029.233-.05.346-.089.045.065.097.127.154.185zM8.82 14.23l-3.963-.495A2 2 0 0 1 3 15c-1.103 0-2-.897-2-2a2 2 0 0 1 1.186-1.823L1.988 10H2c.343 0 .666-.07.973-.176l.201 1.194c.305.026.589.119.84.267L6.288 9.02a1.977 1.977 0 0 1-.271-.843l-1.195-.199C4.93 7.67 5 7.344 5 7v-.006l1.175.196a2.007 2.007 0 0 1 1.013-1.014L6.99 4.989c.34 0 .675-.046.988-.155l.198 1.184a1.99 1.99 0 0 1 1.225.558l1.69-1.013A1.973 1.973 0 0 1 11 5c0-.142.016-.28.044-.415l-1.631-.812c.194-.264.344-.566.446-.895l1.639.816C11.865 3.272 12.398 3 13 3c1.102 0 2 .897 2 2 0 1.08-.86 1.955-1.93 1.993l-.142.638a3.856 3.856 0 0 0-.939-.388l.105-.47a2.006 2.006 0 0 1-.495-.35l-1.235.741A3.855 3.855 0 0 0 9 7.67V7.5a.5.5 0 0 0-.5-.5h-1a.5.5 0 0 0-.5.5v1a.5.5 0 0 0 .5.5h.17c-.16.264-.283.548-.377.848-.103-.04-.208-.076-.303-.132L4.717 11.99c.133.227.221.48.257.753l2.742.342c.288.453.66.846 1.103 1.146zM12 5.5a.5.5 0 0 0 .5.5h1a.5.5 0 0 0 .5-.5v-1a.5.5 0 0 0-.5-.5h-1a.5.5 0 0 0-.5.5v1zm-8 7a.5.5 0 0 0-.5-.5h-1a.5.5 0 0 0-.5.5v1a.5.5 0 0 0 .5.5h1a.5.5 0 0 0 .5-.5v-1z"/><path d="M14.17 13.109a.375.375 0 0 0-.529 0l-.356-.343A2.87 2.87 0 0 0 13.9 11a2.9 2.9 0 1 0-2.9 2.9c.661 0 1.263-.23 1.751-.602l.355.354a.372.372 0 0 0 .006.515l1.722 1.723a.375.375 0 0 0 .53 0l.528-.53a.375.375 0 0 0 0-.53l-1.722-1.721zM11 9.1c1.048 0 1.9.852 1.9 1.9s-.852 1.9-1.9 1.9-1.9-.852-1.9-1.9.852-1.9 1.9-1.9zM3.008 5.282A1.977 1.977 0 0 0 2 5C.897 5 0 5.897 0 7s.897 2 2 2 2-.897 2-2c0-.37-.108-.714-.284-1.011l.724-.722.831-.827.724-.72C6.292 3.892 6.632 4 7 4c1.103 0 2-.897 2-2s-.897-2-2-2-2 .897-2 2c0 .372.109.716.286 1.014l-.719.716-.834.83-.725.722zM3 7.5a.5.5 0 0 1-.5.5h-1a.5.5 0 0 1-.5-.5v-1a.5.5 0 0 1 .5-.5h1a.5.5 0 0 1 .5.5v1zm3-6a.5.5 0 0 1 .5-.5h1a.5.5 0 0 1 .5.5v1a.5.5 0 0 1-.5.5h-1a.5.5 0 0 1-.5-.5v-1z"/><path fill="none" d="M0 0h16v16H0z"/></svg>