<svg xmlns="http://www.w3.org/2000/svg" viewBox="0 0 32 32"><path d="m15.7 25.25-5.905-1.18A3 3 0 0 1 7 26c-1.654 0-3-1.346-3-3 0-1.227.742-2.28 1.799-2.745l-1.326-5.303c.338-.04.665-.113.972-.232l1.326 5.303c.077-.006.15-.023.229-.023a2.97 2.97 0 0 1 1.857.662l4.61-4.07A2.97 2.97 0 0 1 13 15c0-.151.023-.297.045-.442L7.57 12.765a4 4 0 0 0 .342-.94l5.445 1.783a3 3 0 0 1 1.878-1.497l-.374-4.125c.047.002.09.014.138.014.295 0 .58-.037.858-.098l.374 4.121c.897.07 1.681.528 2.184 1.215l4.73-2.359A3 3 0 0 1 23 10c0-.342.07-.665.175-.971l-4.94-2.695q.294-.405.48-.877l4.94 2.694A2.98 2.98 0 0 1 26 7c1.654 0 3 1.346 3 3s-1.346 3-3 3c-.078 0-.152-.017-.229-.023l-.656 2.623a7 7 0 0 0-.885-.582l.568-2.273a3 3 0 0 1-1.205-.972l-4.736 2.361q.057.188.094.383a7 7 0 0 0-.96.394 2 2 0 0 0-.724-1.445l-.02-.017a2 2 0 0 0-.255-.175l-.042-.023a2 2 0 0 0-.275-.126l-.043-.013A2 2 0 0 0 16 13a1.98 1.98 0 0 0-1.229.434l-.03.025A1.98 1.98 0 0 0 14 15c0 .162.025.317.061.468q.005.02.012.037.058.217.16.411c.154.297.373.555.65.742a2 2 0 0 0 .587.261c.03.009.063.007.093.015a7 7 0 0 0-.569.885 3.1 3.1 0 0 1-.866-.494l-4.6 4.073C9.822 21.863 10 22.41 10 23c0 .03-.008.058-.009.088l4.954.991c.213.417.465.81.756 1.171zM24 10a2 2 0 0 0 1.047 1.748c.285.155.606.252.953.252l.016-.002h.004a2 2 0 0 0 1.398-.59l.019-.023a2 2 0 0 0 .223-.272c.022-.033.037-.07.057-.104.045-.076.092-.152.126-.234.027-.063.041-.13.062-.197.018-.059.042-.115.054-.177a2 2 0 0 0-2.373-2.357l-.06.019a2 2 0 0 0-.33.108l-.02.012A2 2 0 0 0 24 10M9 23c0-.186-.034-.363-.082-.534l-.001-.005a2 2 0 0 0-.818-1.13h-.001a2 2 0 0 0-.562-.249A2 2 0 0 0 7 21c-.72 0-1.346.385-1.698.957q-.014.023-.026.047-.105.182-.171.387A2 2 0 0 0 5 23c0 1.103.897 2 2 2a2 2 0 0 0 .628-.111 2 2 0 0 0 .427-.197l.02-.011q.227-.147.405-.348l.016-.019C8.806 23.962 9 23.505 9 23m15.725 3.822-.083-.083c-.36.229-.744.408-1.138.565a1.99 1.99 0 0 1-1.899.656c-.056-.011-.107-.033-.161-.049-.069-.02-.14-.036-.204-.063-.039-.016-.074-.038-.11-.058-.044.001-.086.01-.13.01a6.8 6.8 0 0 1-1.516-.176A3 3 0 0 0 22 29c1.173 0 2.18-.683 2.674-1.667a1.7 1.7 0 0 1 .05-.51zM14.699 5.97A2 2 0 0 1 13 4c0-.197.037-.383.09-.563L4.3 9.03C5.26 9.177 6 10 6 11c0 .197-.037.383-.09.563z" opacity=".25"/><path d="M27.738 25.85a.67.67 0 0 0-.943 0l-.124.124-1.238-1.238A5.8 5.8 0 1 0 21 26.8a5.77 5.77 0 0 0 3.743-1.374l1.238 1.238-.13.129a.667.667 0 0 0 0 .943l3.068 3.067c.26.261.683.261.943 0l.943-.942a.666.666 0 0 0 0-.943zM21 25.8c-2.647 0-4.8-2.153-4.8-4.8s2.153-4.8 4.8-4.8 4.8 2.153 4.8 4.8-2.153 4.8-4.8 4.8M4 8c-1.654 0-3 1.346-3 3s1.346 3 3 3a3.003 3.003 0 0 0 2.764-4.166l6.02-3.83A2.98 2.98 0 0 0 15 7c1.654 0 3-1.346 3-3s-1.346-3-3-3a3.003 3.003 0 0 0-2.764 4.166l-6.02 3.83A2.98 2.98 0 0 0 4 8m9-4c0-1.103.897-2 2-2s2 .897 2 2-.897 2-2 2-2-.897-2-2m-7 7c0 1.103-.897 2-2 2s-2-.897-2-2 .897-2 2-2 2 .897 2 2"/><path fill="none" d="M0 0h32v32H0z"/></svg>