<?xml version="1.0" encoding="UTF-8"?><svg id="icons" xmlns="http://www.w3.org/2000/svg" viewBox="0 0 24 24"><defs><style>.cls-1{fill:none;}</style></defs><path d="M21.35352,6.35352l-2.84766,2.84766-2.84668-2.84766.70703-.70703,1.63379,1.63452v-2.28101c0-1.10254-.89746-2-2-2h-2v-1h2c1.6543,0,2.99,1.3457,2.99,3l.01,2.29297,1.64648-1.64648.70703.70703ZM21.76111,16.97363l-.53674,3.22107c.46008.25647.76563.74219.76563,1.3053,0,.82715-.66285,1.5-1.49,1.5s-1.49-.67285-1.49-1.5c0-.73773.52632-1.34918,1.22883-1.47357l.53693-3.22107c-.46014-.25647-.77576-.74219-.77576-1.30536,0-.15558.03052-.30273.07471-.44397l-1.74445-1.30835c-.23798.15887-.52325.25232-.83026.25232-.2309,0-.44708-.05676-.64264-.15033l-2.00769,2.00769c.09357.19556.15033.41174.15033.64264,0,.54602-.29626,1.01996-.73346,1.28235l.44769,2.23932c.72516.10504,1.27577.72455,1.27577,1.47833,0,.82715-.66285,1.5-1.49,1.5s-1.49-.67285-1.49-1.5c0-.54608.28633-1.02014.72364-1.28247l-.448-2.2392c-.72504-.10504-1.28564-.72461-1.28564-1.47833,0-.82715.67285-1.5,1.5-1.5.2309,0,.44708.05676.64264.15033l2.00769-2.00769c-.09357-.19556-.15033-.41174-.15033-.64264,0-.82715.67285-1.5,1.5-1.5s1.5.67285,1.5,1.5c0,.15558-.03052.30273-.07471.44397l1.74445,1.30835c.23798-.15887.52325-.25232.83026-.25232.82715,0,1.5.67285,1.5,1.5,0,.73773-.53625,1.3493-1.23889,1.47363ZM14,16h-1v1h1v-1ZM18,12h-1v1h1v-1ZM22,16v-1h-1v1h1ZM3,3c-1.10254,0-1.98.89746-1.98,2s.87746,2,1.98,2,2-.89746,2-2-.89746-2-2-2ZM10,1c-1.10254,0-1.98.89746-1.98,2s.87746,2,1.98,2,2-.89746,2-2-.89746-2-2-2Z"/><rect class="cls-1" width="24" height="24"/></svg>