<svg xmlns="http://www.w3.org/2000/svg" viewBox="0 0 16 16"><path d="M1.647 12.937a.47.47 0 0 1-.457-.372 11 11 0 0 1-.217-1.661 7.3 7.3 0 0 1 3.953-7.206.468.468 0 0 1 .447.822 6.41 6.41 0 0 0-3.467 6.334 10 10 0 0 0 .199 1.519.467.467 0 0 1-.361.554.5.5 0 0 1-.097.01m8.144 2.728a.47.47 0 0 0-.273-.603 4.57 4.57 0 0 1-2.778-3.92c-.077-.889.136-1.435.313-1.539.297-.178 1.222.258 1.966.607 1.252.587 2.671 1.253 3.973.894a2.613 2.613 0 0 0 1.937-3.268c-.476-2.368-3.473-5.348-7.864-4.785a.468.468 0 1 0 .12.928c3.823-.489 6.422 2.03 6.827 4.041a1.7 1.7 0 0 1-1.27 2.183c-.968.265-2.22-.322-3.326-.84-1.135-.532-2.114-.991-2.839-.566a2.5 2.5 0 0 0-.769 2.426 5.52 5.52 0 0 0 3.381 4.715.5.5 0 0 0 .165.03.47.47 0 0 0 .438-.303zm3.211-1.612a.47.47 0 0 0-.334-.572 10.8 10.8 0 0 1-3.502-1.787.468.468 0 0 0-.568.744 11.6 11.6 0 0 0 3.833 1.949.5.5 0 0 0 .12.015.47.47 0 0 0 .451-.35zm-7.224 1.424a.47.47 0 0 0-.04-.66 4.88 4.88 0 0 1-1.745-4.764A4 4 0 0 1 6.705 7.03c1.557-.454 3.3.174 4.902 1.77a.468.468 0 1 0 .66-.663C9.765 5.645 7.545 5.812 6.444 6.131A4.93 4.93 0 0 0 3.08 9.848a5.79 5.79 0 0 0 2.037 5.669.467.467 0 0 0 .66-.04zM2.906 3.028a7.58 7.58 0 0 1 9.825-.479.468.468 0 0 0 .561-.748 8.51 8.51 0 0 0-11.026.546.468.468 0 1 0 .64.681"/><path fill="none" d="M0 0h16v16H0z"/></svg>