<svg xmlns="http://www.w3.org/2000/svg" viewBox="0 0 16 16"><path d="M8.5 5a3.4 3.4 0 0 0-.5.05V1h1v4.05A3.4 3.4 0 0 0 8.5 5M5 8.5a3.5 3.5 0 0 1 .05-.5H1v1h4.05A3.5 3.5 0 0 1 5 8.5m6.163 2.247 2.849 2.849-.416.416-2.849-2.849c.06-.05.108-.11.163-.163H6.09c.055.053.104.113.163.163l-2.849 2.849-.416-.416 2.849-2.849c.05.059.11.108.163.163V6.09c-.053.056-.113.105-.163.164L2.988 3.405l.416-.416 2.848 2.849c-.058.05-.106.109-.161.162h4.818c-.055-.053-.104-.113-.163-.163l2.849-2.849.416.416-2.848 2.849c-.05-.06-.11-.107-.163-.162v4.82c.053-.056.113-.105.163-.164M10 7H7v3h3zm1.95 1a3.5 3.5 0 0 1 .05.5 3.5 3.5 0 0 1-.05.5H16V8zM8 11.95V16h1v-4.05a3.4 3.4 0 0 1-.5.05 3.4 3.4 0 0 1-.5-.05m2.87-8.407a6 6 0 0 0-.542-.226L9.556 5.18a3.5 3.5 0 0 1 .544.224zm2.586 2.586-1.86.77a3.5 3.5 0 0 1 .224.544l1.863-.771a6 6 0 0 0-.227-.543m-3.899 5.69.772 1.863a6 6 0 0 0 .543-.225l-.771-1.861a3.4 3.4 0 0 1-.544.223m3.9-.947a6 6 0 0 0 .225-.544l-1.862-.771a3.5 3.5 0 0 1-.224.544zM7.442 5.181 6.67 3.318a5 5 0 0 0-.543.226l.771 1.86a3.4 3.4 0 0 1 .544-.223m-1.315 8.276a6 6 0 0 0 .543.225l.772-1.863a3.4 3.4 0 0 1-.544-.223zM3.544 6.129a5 5 0 0 0-.226.543l1.862.771a3.5 3.5 0 0 1 .224-.544zm-.226 4.2a6 6 0 0 0 .226.543l1.86-.771a3.5 3.5 0 0 1-.224-.544z"/><path fill="none" d="M0 0h16v16H0z"/></svg>