<svg xmlns="http://www.w3.org/2000/svg" viewBox="0 0 24 24"><path stroke-width="0" fill="none" d="M0 0h24v24H0z"/><path d="M12.2 5L11 3H4L2.8 5H1v16h6.032a6.479 6.479 0 0 1-.53-1H2V9h20v11h-3.501a6.48 6.48 0 0 1-.53 1H23V5H12.2zM22 8H2V6h1.366l1.2-2h5.868l1.2 2H22v2zm-9.494 4.006c-3.03 0-5.495 2.464-5.495 5.494s2.465 5.494 5.495 5.494S18 20.53 18 17.5s-2.465-5.494-5.494-5.494zM12.5 22C10.019 22 8 19.981 8 17.5s2.019-4.5 4.5-4.5 4.5 2.019 4.5 4.5-2.019 4.5-4.5 4.5zM11 14v7l5-3.5-5-3.5zm1 1.92l2.256 1.58L12 19.08v-3.16z" stroke-width="0"/></svg>