<svg xmlns="http://www.w3.org/2000/svg" viewBox="0 0 16 16"><path stroke-width="0" fill="none" d="M0 0h16v16H0z"/><path d="M8.3 3.002L6.98 2H4L2.7 3H1v11h2.429a4.903 4.903 0 0 1-.327-1H2V7h12v6h-1.097c-.067.35-.171.683-.305 1H15V3l-6.7.002zM14 6H2V4h1.04l1.3-1h2.304l1.319 1H14v2zM8.058 8.006C5.82 8.006 4.006 9.794 4.006 12c0 2.206 1.814 3.994 4.052 3.994s3.936-1.788 3.936-3.994c0-2.206-1.698-3.994-3.936-3.994zM8 14.996A3 3 0 0 1 5.004 12 3 3 0 0 1 8 9.004 3 3 0 0 1 10.996 12 3 3 0 0 1 8 14.996zM10 12l-3 2v-4l3 2z" stroke-width="0"/></svg>