<svg xmlns="http://www.w3.org/2000/svg" viewBox="0 0 16 16"><path d="M13.5 12c-.23 0-.447.057-.643.15L9.85 9.143c.093-.196.15-.412.15-.643s-.057-.447-.15-.643l3.007-3.007c.196.093.412.15.643.15.827 0 1.5-.673 1.5-1.5S14.327 2 13.5 2 12 2.673 12 3.5c0 .23.057.447.15.643L9.143 7.15a1.48 1.48 0 0 0-.382-.124l-.537-3.22A1.5 1.5 0 0 0 9 2.5C9 1.673 8.327 1 7.5 1S6 1.673 6 2.5a1.5 1.5 0 0 0 1.239 1.474l.537 3.22a1.51 1.51 0 0 0-.314.228l-3.48-1.74c.007-.06.018-.12.018-.182C4 4.673 3.327 4 2.5 4S1 4.673 1 5.5 1.673 7 2.5 7c.403 0 .768-.162 1.038-.422l3.48 1.74c-.007.06-.018.12-.018.182 0 .279.081.537.215.761l-3.198 3.837A1.484 1.484 0 0 0 3.5 13c-.827 0-1.5.673-1.5 1.5S2.673 16 3.5 16 5 15.327 5 14.5c0-.279-.082-.537-.215-.761l3.197-3.837c.162.06.335.098.518.098.23 0 .447-.057.643-.15l3.007 3.007c-.093.196-.15.412-.15.643 0 .827.673 1.5 1.5 1.5s1.5-.673 1.5-1.5-.673-1.5-1.5-1.5zM13 3.25a.25.25 0 0 1 .25-.25h.487c.145 0 .263.118.263.263v.487a.25.25 0 0 1-.25.25h-.5a.25.25 0 0 1-.25-.25v-.5zm-6-.5v-.5A.25.25 0 0 1 7.25 2h.487c.145 0 .263.118.263.263v.487a.25.25 0 0 1-.25.25h-.5A.25.25 0 0 1 7 2.75zm-4 3a.25.25 0 0 1-.25.25h-.5A.25.25 0 0 1 2 5.75v-.5A.25.25 0 0 1 2.25 5h.487c.145 0 .263.118.263.263v.487zm1 9a.25.25 0 0 1-.25.25h-.5a.25.25 0 0 1-.25-.25v-.5a.25.25 0 0 1 .25-.25h.487c.145 0 .263.118.263.263v.487zM8.25 9A.25.25 0 0 1 8 8.75v-.5A.25.25 0 0 1 8.25 8h.487c.145 0 .263.118.263.263v.487a.25.25 0 0 1-.25.25h-.5zM14 13.75a.25.25 0 0 1-.25.25h-.5a.25.25 0 0 1-.25-.25v-.5a.25.25 0 0 1 .25-.25h.487c.145 0 .263.118.263.263v.487z"/><path fill="none" d="M0 0h16v16H0z"/></svg>