<svg xmlns="http://www.w3.org/2000/svg" viewBox="0 0 24 24"><path d="M20.5 17.1c-.496 0-.957.151-1.34.41l-2.974-3.305c.44-.435.714-1.038.714-1.705a2.38 2.38 0 0 0-.603-1.574l3.015-3.353c.352.202.754.327 1.188.327 1.324 0 2.4-1.077 2.4-2.4s-1.076-2.4-2.4-2.4-2.4 1.077-2.4 2.4c0 .545.19 1.043.497 1.446l-3.06 3.4A2.371 2.371 0 0 0 14.5 10.1c-.201 0-.394.032-.581.08l-1.107-3.674A2.397 2.397 0 0 0 11.5 2.1c-1.324 0-2.4 1.077-2.4 2.4s1.076 2.4 2.4 2.4c.146 0 .288-.018.427-.043l1.128 3.74c-.267.203-.487.46-.65.756L6.864 8.857c.018-.117.036-.235.036-.357 0-1.323-1.076-2.4-2.4-2.4S2.1 7.177 2.1 8.5s1.076 2.4 2.4 2.4c.864 0 1.616-.463 2.039-1.149l5.585 2.511c-.008.08-.024.157-.024.238 0 .433.124.834.326 1.185l-4.744 4.739c-.35-.2-.75-.324-1.182-.324-1.324 0-2.4 1.077-2.4 2.4s1.076 2.4 2.4 2.4 2.4-1.077 2.4-2.4c0-.548-.192-1.048-.503-1.453l4.651-4.65c.405.311.904.503 1.452.503.31 0 .606-.064.878-.172l3.116 3.461A2.383 2.383 0 0 0 18.1 19.5c0 1.323 1.076 2.4 2.4 2.4s2.4-1.077 2.4-2.4-1.076-2.4-2.4-2.4zM11 6a1 1 0 0 1-1-1V4a1 1 0 0 1 1-1h1a1 1 0 0 1 1 1v1a1 1 0 0 1-1 1h-1zM6 9a1 1 0 0 1-1 1H4a1 1 0 0 1-1-1V8a1 1 0 0 1 1-1h1a1 1 0 0 1 1 1v1zm13-4a1 1 0 0 1 1-1h1a1 1 0 0 1 1 1v1a1 1 0 0 1-1 1h-1a1 1 0 0 1-1-1V5zM8 21a1 1 0 0 1-1 1H6a1 1 0 0 1-1-1v-1a1 1 0 0 1 1-1h1a1 1 0 0 1 1 1v1zm6-7a1 1 0 0 1-1-1v-1a1 1 0 0 1 1-1h1a1 1 0 0 1 1 1v1a1 1 0 0 1-1 1h-1zm8 6a1 1 0 0 1-1 1h-1a1 1 0 0 1-1-1v-1a1 1 0 0 1 1-1h1a1 1 0 0 1 1 1v1z"/><path fill="none" d="M0 0h24v24H0z"/></svg>