<svg xmlns="http://www.w3.org/2000/svg" viewBox="0 0 32 32"><path d="M26 9.9c1.6 0 2.9-1.3 2.9-2.9S27.6 4.1 26 4.1 23.1 5.4 23.1 7c0 .687.25 1.31.65 1.807l-5.183 5.76a2.874 2.874 0 0 0-1.211-.431L15.368 7.54A2.89 2.89 0 0 0 16.9 5c0-1.6-1.3-2.9-2.9-2.9S11.1 3.4 11.1 5s1.3 2.9 2.9 2.9c.145 0 .283-.022.422-.043l1.909 6.329c-.491.117-.93.358-1.29.69l-7.213-3.25c.045-.202.072-.41.072-.626 0-1.6-1.3-2.9-2.9-2.9S2.1 9.4 2.1 11s1.3 2.9 2.9 2.9a2.894 2.894 0 0 0 2.443-1.352l6.985 3.14A2.864 2.864 0 0 0 14.1 17c0 .63.207 1.21.55 1.685l-5.968 5.962A2.876 2.876 0 0 0 7 24.1c-1.6 0-2.9 1.3-2.9 2.9s1.3 2.9 2.9 2.9 2.9-1.3 2.9-2.9a2.88 2.88 0 0 0-.516-1.645l5.972-5.97a2.88 2.88 0 0 0 3.728-.377l3.714 4.127A2.873 2.873 0 0 0 22.1 25c0 1.6 1.3 2.9 2.9 2.9s2.9-1.3 2.9-2.9-1.3-2.9-2.9-2.9a2.86 2.86 0 0 0-1.432.394l-3.909-4.343c.154-.353.241-.742.241-1.151 0-.658-.228-1.258-.599-1.745l5.2-5.784c.44.267.949.429 1.499.429zM12.067 5c0-1.066.867-1.933 1.933-1.933s1.933.867 1.933 1.933S15.066 6.933 14 6.933 12.067 6.066 12.067 5zM5 13c-1.103 0-2-.897-2-2s.897-2 2-2 2 .897 2 2-.897 2-2 2zm22 12c0 1.103-.897 2-2 2s-2-.897-2-2 .897-2 2-2 2 .897 2 2zM26 5c1.103 0 2 .897 2 2s-.897 2-2 2-2-.897-2-2 .897-2 2-2zM7 29c-1.103 0-2-.897-2-2s.897-2 2-2 2 .897 2 2-.897 2-2 2zm10-10c-1.103 0-2-.897-2-2s.897-2 2-2 2 .897 2 2-.897 2-2 2z"/><path fill="none" d="M0 0h32v32H0z"/></svg>