<svg xmlns="http://www.w3.org/2000/svg" viewBox="0 0 32 32"><path fill="none" stroke-width="0" d="M0 0h32v32H0z"/><path d="M19.72 15L13 19.58v-9.16L19.72 15zM16 26H2V4h28v19h-1v-1h-2v1h-1V5H6v20h10v1zM27 8h2V6h-2v2zm0 4h2v-2h-2v2zm0 4h2v-2h-2v2zm0 4h2v-2h-2v2zM5 22H3v2h2v-2zm0-4H3v2h2v-2zm0-4H3v2h2v-2zm0-4H3v2h2v-2zm0-4H3v2h2V6zm21.854 18.146l-.708.707L27.293 26H19.5a.501.501 0 0 1-.5-.5V23h-1v2.5c0 .827.673 1.5 1.5 1.5h7.793l-1.147 1.146.708.707 2.353-2.353-2.353-2.354z" stroke-width="0"/></svg>