<svg xmlns="http://www.w3.org/2000/svg" viewBox="0 0 16 16"><path d="M4.348 2.72c.232-.168.44-.32.602-.451l-.63-.776c-.151.122-.344.262-.56.418C2.662 2.71 1 3.914 1 5.5A2.473 2.473 0 0 0 3.5 8c1.045 0 1.954-1.002 2.755-1.886C6.634 5.697 7.267 5 7.5 5a.49.49 0 0 1 .5.5 5.3 5.3 0 0 1-.854 1.991A6.56 6.56 0 0 0 6 10.5a2.88 2.88 0 0 0 .936 2.132A6.46 6.46 0 0 0 11.5 14h.077a8.2 8.2 0 0 0 4.09 1.743l.166-.986a8.6 8.6 0 0 1-2.838-.962A4.1 4.1 0 0 0 16 10a2.916 2.916 0 0 0-3-3c-1.738 0-3 1.472-3 3.5a4.54 4.54 0 0 0 .71 2.501 5 5 0 0 1-3.086-1.095A1.88 1.88 0 0 1 7 10.5a5.96 5.96 0 0 1 1.015-2.513A5.6 5.6 0 0 0 9 5.5 1.486 1.486 0 0 0 7.5 4c-.676 0-1.283.669-1.985 1.442C4.885 6.137 4.102 7 3.5 7A1.467 1.467 0 0 1 2 5.5c0-1.075 1.413-2.1 2.348-2.78M13 8a1.97 1.97 0 0 1 2 2 3.186 3.186 0 0 1-3.048 2.978A3.5 3.5 0 0 1 11 10.5c0-1.448.841-2.5 2-2.5"/><path fill="none" d="M0 0h16v16H0z"/></svg>