<svg xmlns="http://www.w3.org/2000/svg" viewBox="0 0 24 24"><path d="M21.8 15.66c0 3.479-1.17 6.14-4.553 6.14-3.743 0-5.414-2.337-8.7-2.337-.844 0-1.535.154-2.22.154A4.14 4.14 0 0 1 2 15.504c0-2.329 2.956-2.756 3.19-7.521C5.373 4.254 8.23 2.2 11.565 2.2 17.521 2.2 21.8 8.757 21.8 15.66m-1 0c0-6.017-3.711-12.46-9.235-12.46-2.37 0-5.2 1.265-5.376 4.832a8.82 8.82 0 0 1-2.272 5.716C3.314 14.493 3 14.91 3 15.504c0 3.077 3.293 3.113 3.326 3.113a9 9 0 0 0 .89-.066 12 12 0 0 1 1.33-.088 10.3 10.3 0 0 1 4.465 1.2 9.6 9.6 0 0 0 4.235 1.137c.879 0 3.554 0 3.554-5.14"/><path d="M17.246 20.8a9.6 9.6 0 0 1-4.235-1.137 10.3 10.3 0 0 0-4.464-1.2 12 12 0 0 0-1.331.088 9 9 0 0 1-.89.066C6.293 18.617 3 18.58 3 15.504c0-.594.314-1.01.917-1.756a8.82 8.82 0 0 0 2.272-5.716C6.364 4.465 9.194 3.2 11.565 3.2c5.524 0 9.235 6.443 9.235 12.46 0 5.14-2.675 5.14-3.554 5.14" opacity=".25"/><path fill="none" d="M0 0h24v24H0z"/></svg>