<svg xmlns="http://www.w3.org/2000/svg" viewBox="0 0 32 32"><path d="M28.8 20.759c0 2.418-.583 8.04-5.98 8.04a12.7 12.7 0 0 1-5.953-1.608 11.54 11.54 0 0 0-5.357-1.489 15 15 0 0 0-1.614.108 12 12 0 0 1-1.272.091c-1.508 0-5.424-1.124-5.424-5.345a4.63 4.63 0 0 1 1.437-2.975 10.37 10.37 0 0 0 2.71-6.794A7.76 7.76 0 0 1 15.435 3.2C21.89 3.2 28.8 10.256 28.8 20.76zm-1 0C27.8 10.854 21.406 4.2 15.436 4.2a6.796 6.796 0 0 0-7.09 6.636 11.37 11.37 0 0 1-2.934 7.376c-.796.986-1.212 1.538-1.212 2.344 0 3.608 3.49 4.345 4.425 4.345a12 12 0 0 0 1.193-.087 16 16 0 0 1 1.692-.112 12.5 12.5 0 0 1 5.798 1.591A11.8 11.8 0 0 0 22.82 27.8c4.333 0 4.98-4.412 4.98-7.041"/><path d="M22.82 27.8a11.8 11.8 0 0 1-5.512-1.507 12.5 12.5 0 0 0-5.798-1.59 16 16 0 0 0-1.692.11 12 12 0 0 1-1.193.088c-.935 0-4.425-.737-4.425-4.345 0-.806.416-1.358 1.212-2.344a11.37 11.37 0 0 0 2.934-7.376 6.796 6.796 0 0 1 7.09-6.636c5.97 0 12.364 6.654 12.364 16.559 0 2.63-.647 7.04-4.98 7.04z" opacity=".25"/><path fill="none" d="M0 0h32v32H0z"/></svg>