<svg xmlns="http://www.w3.org/2000/svg" viewBox="0 0 16 16"><path d="M8 .2A7.8 7.8 0 1 0 15.8 8 7.8 7.8 0 0 0 8 .2m0 14.6A6.8 6.8 0 1 1 14.8 8 6.81 6.81 0 0 1 8 14.8m2.07-7.126a1.1 1.1 0 0 1-.32-.315 1.4 1.4 0 0 1-.189-.41 1.7 1.7 0 0 1 0-.897 1.4 1.4 0 0 1 .188-.41 1.1 1.1 0 0 1 .321-.316.8.8 0 0 1 .86 0 1.1 1.1 0 0 1 .32.315 1.4 1.4 0 0 1 .189.41 1.7 1.7 0 0 1 0 .897 1.4 1.4 0 0 1-.188.41 1.1 1.1 0 0 1-.321.316.8.8 0 0 1-.86 0M5.5 7.8a.8.8 0 0 1-.43-.126 1.1 1.1 0 0 1-.32-.315 1.4 1.4 0 0 1-.189-.41 1.7 1.7 0 0 1 0-.897 1.4 1.4 0 0 1 .188-.41 1.1 1.1 0 0 1 .321-.316.8.8 0 0 1 .86 0 1.1 1.1 0 0 1 .32.315 1.4 1.4 0 0 1 .189.41 1.7 1.7 0 0 1 0 .897 1.4 1.4 0 0 1-.188.41 1.1 1.1 0 0 1-.321.316.8.8 0 0 1-.43.126m-.532 4.407-.727-.688a5.14 5.14 0 0 1 3.756-1.42 5.22 5.22 0 0 1 3.762 1.42l-.727.688a4.22 4.22 0 0 0-3.035-1.108 4.2 4.2 0 0 0-3.03 1.108z"/><path fill="none" d="M0 0h16v16H0z"/></svg>