<svg xmlns="http://www.w3.org/2000/svg" viewBox="0 0 24 24"><path d="M12 1.2A10.8 10.8 0 1 0 22.8 12 10.8 10.8 0 0 0 12 1.2m0 20.6a9.8 9.8 0 1 1 9.8-9.8 9.81 9.81 0 0 1-9.8 9.8m4.73-3.982a6.58 6.58 0 0 0-4.735-1.74 6.57 6.57 0 0 0-4.725 1.74l-.727-.687a7.47 7.47 0 0 1 5.452-2.053 7.6 7.6 0 0 1 5.462 2.053zM15.5 11a1.1 1.1 0 0 1-.518-.135 1.3 1.3 0 0 1-.405-.353 1.6 1.6 0 0 1-.246-.479 1.8 1.8 0 0 1 0-1.066 1.6 1.6 0 0 1 .246-.479 1.3 1.3 0 0 1 .405-.353 1.07 1.07 0 0 1 1.036 0 1.3 1.3 0 0 1 .405.353 1.6 1.6 0 0 1 .246.48 1.8 1.8 0 0 1 0 1.065 1.6 1.6 0 0 1-.246.479 1.3 1.3 0 0 1-.405.353A1.1 1.1 0 0 1 15.5 11m-7 0a1.1 1.1 0 0 1-.518-.135 1.3 1.3 0 0 1-.405-.353 1.6 1.6 0 0 1-.246-.479 1.8 1.8 0 0 1 0-1.066 1.6 1.6 0 0 1 .246-.479 1.3 1.3 0 0 1 .405-.353 1.07 1.07 0 0 1 1.036 0 1.3 1.3 0 0 1 .405.353 1.6 1.6 0 0 1 .246.48 1.8 1.8 0 0 1 0 1.065 1.6 1.6 0 0 1-.246.479 1.3 1.3 0 0 1-.405.353A1.1 1.1 0 0 1 8.5 11"/><path fill="none" d="M0 0h24v24H0z"/></svg>