<svg xmlns="http://www.w3.org/2000/svg" viewBox="0 0 32 32"><path d="M6.336 15H11v1H6.183L4.04 30H3.029L5.17 16H2v-1h3.324l.847-5.531a5.266 5.266 0 0 1 6.802-4.219l-.303.953A4.267 4.267 0 0 0 7.16 9.62L6.335 15zm18.727 0l-5.358 5.816L16.057 15h-1.181l4.126 6.578L11.243 30h1.361l6.95-7.543L24.284 30h1.182l-5.21-8.305L26.424 15h-1.36zm-5.938-4.286l-1.343 3.157 3.15-1.35-1.807-1.807zm1.161-1.322l1.922 1.922L27.97 5.55l-1.92-1.922-5.764 5.764zm9.842-6.424l-1.497-1.497a.306.306 0 0 0-.21-.09.284.284 0 0 0-.207.083l-1.027 1.028 1.921 1.921 1.027-1.028a.295.295 0 0 0-.007-.417z"/><path fill="none" d="M0 0h32v32H0z"/></svg>