<svg xmlns="http://www.w3.org/2000/svg" viewBox="0 0 16 16"><path d="M5 14v1h2v1H5a1 1 0 0 1-1-1v-1a1 1 0 0 1 1-1h1v-1H4a1 1 0 0 1 1-1h1a1 1 0 0 1 1 1v1a1 1 0 0 1-1 1zm6 2v-5h-1v2H9v-2H8v3h2v2zm3.8-7h-3a3.8 3.8 0 0 0-.206-1.18l-.83.83A3 3 0 0 1 10.8 9a2.8 2.8 0 0 1-.192 1h5.12a7.62 7.62 0 0 0-1.144-5.17l-.729.73A6.75 6.75 0 0 1 14.8 9M8 1.2a7.76 7.76 0 0 1 5.145 1.948l.017-.017.707.707-3.535 3.536-.561-.561-.02.02A2.784 2.784 0 0 0 5.393 10H.27A7.75 7.75 0 0 1 8 1.2M4.2 9a3.76 3.76 0 0 1 .795-2.298L2.857 4.564A6.77 6.77 0 0 0 1.2 9zM8 2.2a6.77 6.77 0 0 0-4.436 1.657l2.138 2.138a3.72 3.72 0 0 1 4.596 0l2.138-2.138A6.77 6.77 0 0 0 8 2.2m8 .8-2-2v2z"/><path fill="none" d="M0 0h16v16H0z"/></svg>