<svg xmlns="http://www.w3.org/2000/svg" viewBox="0 0 32 32"><path d="M9.282 22a6.789 6.789 0 0 1 11.36-5.96l.567.549 6.324-6.405-.71-.702-.015.015A15.783 15.783 0 0 0 .2 21c0 .338.03.668.05 1zM16 6.2a14.73 14.73 0 0 1 10.1 4.013l-4.914 4.977a7.76 7.76 0 0 0-10.823.434l-4.947-4.948A14.75 14.75 0 0 1 16 6.2M4.742 11.417l4.977 4.977A7.75 7.75 0 0 0 8.2 21h-7a14.73 14.73 0 0 1 3.542-9.583m22.86.422.714-.723A15.72 15.72 0 0 1 31.8 21c0 .338-.03.668-.05 1h-9.032a6.63 6.63 0 0 0-.823-4.38l.721-.731A7.74 7.74 0 0 1 23.8 21h7a14.7 14.7 0 0 0-3.198-9.16zM30 9h-2V7zm2 18v1H0v-1z"/><path fill="none" d="M0 0h32v32H0z"/></svg>