<svg xmlns="http://www.w3.org/2000/svg" viewBox="0 0 32 32"><path d="M14 25v-2h-3a1 1 0 0 1 1-1h2a1 1 0 0 1 1 1v2a1 1 0 0 1-1 1h-2v2h3v1h-3a1 1 0 0 1-1-1v-2a1 1 0 0 1 1-1zm3-3v4h3v3h1v-7h-1v3h-2v-3zm10.602-11.16A14.7 14.7 0 0 1 30.8 20h-7a7.74 7.74 0 0 0-1.184-4.111l-.721.73A6.63 6.63 0 0 1 22.718 21h9.031c.021-.332.051-.662.051-1a15.72 15.72 0 0 0-3.484-9.884zM28 6v2h2zm-7.351 9.035A6.78 6.78 0 0 0 9.282 21H.25c-.02-.332-.05-.662-.05-1A15.783 15.783 0 0 1 26.807 8.496l.014-.014.712.702-6.323 6.405zm-10.93.36-4.977-4.978A14.73 14.73 0 0 0 1.2 20h7a7.75 7.75 0 0 1 1.52-4.606zM16 12.2a7.76 7.76 0 0 1 5.186 1.99L26.1 9.212a14.736 14.736 0 0 0-20.685.465l4.948 4.947A7.77 7.77 0 0 1 16 12.2"/><path fill="none" d="M0 0h32v32H0z"/></svg>