<svg xmlns="http://www.w3.org/2000/svg" viewBox="0 0 16 16"><path d="m2.487 5.294-.983-2.1L3.147 1.54l2.104.966a6 6 0 0 1 .764-.317l.79-2.18L9.136 0l.804 2.17a6 6 0 0 1 .765.317l2.1-.983 1.655 1.643-.967 2.104a6 6 0 0 1 .318.764l2.18.79L16 9.136l-2.17.804a6 6 0 0 1-.317.765l.983 2.1-1.643 1.655-2.104-.966a6 6 0 0 1-.764.317l-.79 2.18L6.864 16l-.804-2.17a6 6 0 0 1-.765-.317l-2.1.983-1.655-1.643.966-2.104a6 6 0 0 1-.317-.764l-2.18-.79L0 6.864l2.17-.804a6 6 0 0 1 .317-.765zm5.07 9.703.936-.003.715-1.973.453-.155a5 5 0 0 0 .64-.265l.428-.216 1.906.876.659-.664-.889-1.9.21-.43a6 6 0 0 0 .268-.644l.152-.454 1.962-.727-.003-.935-1.973-.715-.155-.453a5 5 0 0 0-.265-.64l-.216-.428.876-1.906-.664-.659-1.9.889-.43-.21a5 5 0 0 0-.643-.268l-.455-.151-.728-1.963-.934.003-.715 1.973-.453.155a5 5 0 0 0-.64.265l-.428.216-1.906-.876-.659.664.889 1.9-.21.43a5 5 0 0 0-.268.643l-.151.454-1.963.728.003.935 1.973.715.155.453a5 5 0 0 0 .265.64l.216.428-.876 1.906.664.659 1.9-.889.43.21a5 5 0 0 0 .643.268l.454.151zM11 8a3 3 0 1 1-3-3 3 3 0 0 1 3 3m-1 0a2 2 0 1 0-2 2 2 2 0 0 0 2-2"/><path fill="none" d="M0 0h16v16H0z"/></svg>