<svg xmlns="http://www.w3.org/2000/svg" viewBox="0 0 24 24"><path d="M5 4h1v1H5V4zm2 1h1V4H7v1zm15-3v13h-.68l-.48-.62c.04-.12.16-.38.16-.38v-3H3v3h13.05c.03.13.07.26.11.38l-.48.62H2V2h20zm-1 5H3v3h18V7zm0-4H3v3h18V3zM6 8H5v1h1V8zm2 0H7v1h1V8zm-3 4v1h1v-1H5zm2 0v1h1v-1H7zm2-7h1V4H9v1zm1 3H9v1h1V8zm-1 4v1h1v-1H9zm14 5.5a1.5 1.5 0 0 1-2.063 1.389l-1.307 1.634c.227.263.37.602.37.977a1.495 1.495 0 0 1-2.987.13l-4.13-1.55A1.5 1.5 0 1 1 11.5 18c.482 0 .906.231 1.18.584l1.348-.809a1.5 1.5 0 0 1 2.035-1.664l1.307-1.634A1.487 1.487 0 0 1 17 13.5a1.5 1.5 0 1 1 3 0c0 .375-.143.714-.37.977l1.307 1.634A1.5 1.5 0 0 1 23 17.5zM12 19h-1v1h1v-1zm6-5h1v-1h-1v1zm-3 4h1v-1h-1v1zm2.37 2.523l-1.307-1.634a1.483 1.483 0 0 1-1.743-.473l-1.348.809c.01.047.01.097.015.146l4.13 1.549c.061-.147.15-.278.253-.397zM19 21h-1v1h1v-1zm1.37-2.523a1.51 1.51 0 0 1-.278-.477h-3.184a1.488 1.488 0 0 1-.278.477l1.307 1.634a1.492 1.492 0 0 1 1.126 0l1.307-1.634zm0-1.954l-1.307-1.634c-.366.148-.76.148-1.126 0l-1.307 1.634c.12.14.215.3.278.477h3.184a1.49 1.49 0 0 1 .278-.477zM22 17h-1v1h1v-1z"/><path fill="none" d="M0 0h24v24H0z"/></svg>