<svg xmlns="http://www.w3.org/2000/svg" viewBox="0 0 32 32"><path d="M8 13H6v-1h2v1zm3-1H9v1h2v-1zm3 0h-2v1h2v-1zm15-9v17h-1v-4h-2.5c-.46-.61-1.18-1-2-1H28v-5H4v5h19.5c-.82 0-1.54.39-2 1H4v5h12v1H3V3h26zm-1 1H4v5h24V4zM6 18v1h2v-1H6zm3 0v1h2v-1H9zm3 0v1h2v-1h-2zM6 7h2V6H6v1zm3 0h2V6H9v1zm3 0h2V6h-2v1zm18 15.5c0 1.1-1.17 1.88-2.24 1.3l-4.86 4.16A1.498 1.498 0 0 1 21.5 30c-.83 0-1.5-.67-1.5-1.5v-.03l-5.36-2.01c-.88 1.07-2.64.44-2.64-.96 0-1.276 1.492-1.96 2.45-1.15l2.58-1.55c-.24-1.22 1.01-2.2 2.13-1.64l3.03-2.95c-.12-.21-.19-.45-.19-.71 0-.83.67-1.5 1.5-1.5s1.5.67 1.5 1.5c0 .25-.07.48-.17.69l3.02 2.97c.94-.49 2.15.2 2.15 1.34zM14 25h-1v1h1v-1zm9-7h1v-1h-1v1zm-5 5h1v-1h-1v1zm2.42 4.46l-1.74-3.48c-.4.07-.82-.07-1.13-.33l-2.58 1.55c.02.12.03.21.03.33l5.36 2.01c.02-.03.04-.05.06-.08zM22 28h-1v1h1v-1zm5.1-4.96c0-.01 0-.03-.01-.04h-7.18c-.07.2-.19.39-.33.54l1.74 3.48c.33-.05.64.03.92.18l4.86-4.16zm.04-1.17l-3.04-3c-.43.18-.85.16-1.17.01l-3.07 2.99c.02.04.03.09.05.13h7.18c.02-.04.03-.09.05-.13zM29 22h-1v1h1v-1z"/><path fill="none" d="M0 0h32v32H0z"/></svg>