<svg xmlns="http://www.w3.org/2000/svg" viewBox="0 0 16 16"><path d="M3 3h1v1H3zm2 1h1V3H5zm2 0h1V3H7zm8-3v6.96c-.3-.23-.64-.42-1-.57V6H2v3h6.02c-.24.31-.44.64-.6 1H1V1zm-1 1H2v3h12zM3 7v1h1V7zm2 0v1h1V7zm2 0v1h1V7zm9 5c0 2.21-1.7 4-3.94 4S8 14.21 8 12c0-2.201 1.821-4 4.06-4C14.353 8 16 9.853 16 12m-1 0c0-1.673-1.378-3-3-3-1.621 0-3 1.326-3 3 0 1.65 1.35 3 3 3s3-1.35 3-3m-3 0h1v1h-2v-3h1zm4 0c0 2.21-1.7 4-3.94 4S8 14.21 8 12c0-2.201 1.821-4 4.06-4C14.353 8 16 9.853 16 12m-1 0c0-1.673-1.378-3-3-3-1.621 0-3 1.326-3 3 0 1.65 1.35 3 3 3s3-1.35 3-3m-3 0h1v1h-2v-3h1zm0 0v-2h-1v3h2v-1z"/><path fill="none" d="M0 0h16v16H0z"/></svg>