<svg xmlns="http://www.w3.org/2000/svg" viewBox="0 0 32 32"><path d="M8 13H6v-1h2zm3-1H9v1h2zm3 0h-2v1h2zm15-9v16.03c-.3-.37-.63-.71-1-1.01V16H4v5h11.81c-.14.32-.26.66-.35 1H3V3zm-1 7H4v5h24zm0-6H4v5h24zM6 18v1h2v-1zm3 0v1h2v-1zm3 0v1h2v-1zM6 7h2V6H6zm3 0h2V6H9zm3 0h2V6h-2zm17.8 17c0 3.76-3.04 6.8-6.8 6.8s-6.8-3.04-6.8-6.8 3.04-6.8 6.8-6.8 6.8 3.04 6.8 6.8m-1 0c0-3.2-2.6-5.8-5.8-5.8s-5.8 2.6-5.8 5.8 2.6 5.8 5.8 5.8 5.8-2.6 5.8-5.8M26 24h-3v-4h-1v5h4z"/><path fill="none" d="M0 0h32v32H0z"/></svg>