<svg xmlns="http://www.w3.org/2000/svg" viewBox="0 0 24 24"><path d="M9.543 13.172c.262-.128.54-.247.54-.543 0-.167-.15-.23-.15-.397 0-.408.548-.49.548-.899v-.483a.34.34 0 0 1 .371-.305c.211 0 .31.15.521.15.466 0 .501-.695.967-.695.347 0 .34.448.595.67a1.24 1.24 0 0 0 .875.248h.358l-1.276.851a1.8 1.8 0 0 1-.612-.344l-.035-.031a1.38 1.38 0 0 1-.81.3 1.56 1.56 0 0 1-.382.659 1.3 1.3 0 0 1 .03.277 1.3 1.3 0 0 1-.074.394l-.723.483a3.6 3.6 0 0 0-.743-.335M2 15V2h8.81a1.49 1.49 0 0 0-.194 1.43 1.56 1.56 0 0 0-.398.614 1.3 1.3 0 0 0-.074.415 1.7 1.7 0 0 0-.511.417 1.3 1.3 0 0 0-.315 1.084 3 3 0 0 1 .063.37 2 2 0 0 0-.602.616 1.45 1.45 0 0 0-.637-.148 1.43 1.43 0 0 0-1.353 1.018 1.42 1.42 0 0 0-1.03-.422 1.6 1.6 0 0 0-1.568 1.62 2 2 0 0 0 .081.561.03.03 0 0 0 .02-.015 2 2 0 0 0-.299.992 1.355 1.355 0 0 0 .933 1.264 1.56 1.56 0 0 0 .017 1.49 1.4 1.4 0 0 0 .927.699 3 3 0 0 0-.082.31 3.5 3.5 0 0 1 1.163-.937c-.203-.32-.977-.245-1.114-.52-.393-.785.668-.987.668-1.612 0-.154-.08-.47-.323-.497-.339-.034-.426.15-.767.15a.39.39 0 0 1-.422-.348c0-.372.297-.545.297-.917 0-.243-.1-.38-.1-.62a.597.597 0 0 1 .57-.62c.312 0 .446.254.595.52a.62.62 0 0 0 .596.298c.472 0 .769-.589.769-.942a.456.456 0 0 1 .422-.473c.334 0 .459.347.793.347.551 0 .532-.729 1.017-.99.596-.32.422-1.018.347-1.388-.033-.166.28-.484.446-.474.695.052.398-.518.398-.792a.4.4 0 0 1 .022-.136c.108-.32.574-.422.574-.807 0-.27-.225-.396-.225-.668 0-.33.4-.628.884-.89H15v8.365l1-.667V1H1v15h4.05a3.5 3.5 0 0 1 .301-1zm19-4.05v7.1a2.5 2.5 0 1 1-3 2.45 3 3 0 0 1 .03-.296l-7.375-2.459a2.493 2.493 0 1 1-.396-3.019l7.928-5.285A2.498 2.498 0 1 1 21 10.95m-.5-.95A1.5 1.5 0 1 0 19 8.5a1.5 1.5 0 0 0 1.5 1.5m-2.155 9.255A2.5 2.5 0 0 1 20 18.05v-7.102a2.5 2.5 0 0 1-1.259-.676l-7.928 5.286A2.5 2.5 0 0 1 11 16.5a3 3 0 0 1-.03.296zM22 20.5a1.5 1.5 0 1 0-1.5 1.5 1.5 1.5 0 0 0 1.5-1.5"/><path fill="none" d="M0 0h24v24H0z"/></svg>