<svg xmlns="http://www.w3.org/2000/svg" viewBox="0 0 32 32"><path d="M8.351 21a3.4 3.4 0 0 0-.3 1H2V2h20v10.73l-1 .648V3h-2.974c-.058.188-.16.344-.351.434-.832.396-1.63.878-1.63 1.418 0 .363.3.53.3.89 0 .514-.621.65-.765 1.076a.5.5 0 0 0-.03.182c0 .365.396 1.125-.53 1.057-.222-.014-.638.41-.594.63.1.495.33 1.424-.463 1.852-.648.348-.621 1.32-1.357 1.32-.445 0-.612-.463-1.057-.463-.322 0-.563.31-.563.631 0 .471-.395 1.256-1.025 1.256-.34 0-.627-.1-.794-.398-.2-.354-.378-.694-.794-.694-.437 0-.759.39-.759.828 0 .32.132.502.132.827 0 .496-.395.726-.395 1.222 0 .282.28.463.562.463.454 0 .571-.244 1.022-.2.326.036.431.458.431.663 0 .834-1.415 1.104-.89 2.15.21.422 1.552.223 1.552.926 0 .102-.015.192-.03.282a3.5 3.5 0 0 0-1.255 1.017c.031-.391.13-.705.16-.789l.05-.14-.02-.005c-.42-.098-1.053-.246-1.351-.842-.46-.92-.129-1.617.223-2.066-.812-.051-1.454-.686-1.454-1.459 0-.503.192-.855.319-1.09.03-.054.071-.13.076-.132 0-.032-.01-.07-.034-.162-.041-.16-.098-.376-.098-.664 0-1.008.79-1.829 1.76-1.829.852 0 1.289.568 1.552 1.008a.5.5 0 0 0 .06-.172c0-.9.701-1.63 1.563-1.63.432 0 .753.168.97.315.176-.312.443-.77.997-1.068.062-.116-.027-.546-.071-.761-.077-.387.047-.802.349-1.17.119-.145.388-.43.764-.572a1.5 1.5 0 0 1 .074-.642c.14-.413.415-.67.618-.846a1.7 1.7 0 0 1-.204-.801c0-.318.244-1.197 1.24-1.852H3v18zm5.818-3.2 1.052-.682c.215-.22.458-.54.498-1.02q.093.012.195.013c.56 0 .936-.274 1.185-.54.054.07.122.14.193.207l.892-.577c-.064-.038-.128-.073-.187-.125-.34-.295-.331-.892-.794-.892-.621 0-.668.927-1.289.927-.281 0-.413-.2-.694-.2-.25 0-.495.157-.495.405v.645c0 .545-.73.654-.73 1.2 0 .222.2.306.2.529 0 .041-.018.072-.026.11M11.5 25c1.378 0 2.5-1.122 2.5-2.5S12.878 20 11.5 20 9 21.122 9 22.5s1.122 2.5 2.5 2.5m19.416-14.111c.05.197.084.4.084.611 0 1.207-.86 2.217-2 2.45v11.1c1.14.233 2 1.243 2 2.45 0 .188-.025.37-.064.545-.01.045-.028.086-.04.13a2.5 2.5 0 0 1-.137.379c-.025.053-.056.104-.085.155a2.5 2.5 0 0 1-.323.456q-.107.118-.23.222c-.06.052-.12.107-.185.153q-.06.04-.122.077a2.5 2.5 0 0 1-.693.295q-.082.024-.167.042A2.5 2.5 0 0 1 28.5 30c-.21 0-.41-.034-.605-.083A2.5 2.5 0 0 1 26 27.5c0-.071.015-.138.021-.208l-11.347-3.337q.206-.452.276-.962l11.353 3.34A2.5 2.5 0 0 1 28 25.05V13.949a2.5 2.5 0 0 1-1.282-.7l-12.046 7.794a3.5 3.5 0 0 0-.549-.836l12.054-7.8A2.5 2.5 0 0 1 26 11.5c0-.858.435-1.616 1.096-2.066l.034-.021q.176-.116.37-.202l.07-.027q.175-.07.36-.113l.106-.024A2.5 2.5 0 0 1 28.5 9c.19 0 .372.025.55.065.048.011.094.03.141.044q.19.054.369.135.08.04.158.087.212.12.398.277c.038.033.08.061.116.096q.21.203.367.449c.031.048.055.1.083.151q.107.195.18.41.03.086.054.175M30 11a1 1 0 0 0-1-1h-1a1 1 0 0 0-1 1v1a1 1 0 0 0 1 1h1a1 1 0 0 0 1-1zm0 16a1 1 0 0 0-1-1h-1a1 1 0 0 0-1 1v1a1 1 0 0 0 1 1h1a1 1 0 0 0 1-1z"/><path fill="none" d="M0 0h32v32H0z"/></svg>