<svg xmlns="http://www.w3.org/2000/svg" viewBox="0 0 24 24"><path d="M0 0h24v24H0z" style="fill:none"/><path d="M21.5 19c-.24 0-.466.044-.685.107L20.707 19H21a2 2 0 0 0 2-2V7a2 2 0 0 0-2-2h-5v-.05c1.14-.233 2-1.242 2-2.45C18 1.121 16.879 0 15.5 0S13 1.121 13 2.5c0 1.208.86 2.217 2 2.45V5H8a2 2 0 0 0-2 2v6h-.05a2.5 2.5 0 0 0-2.45-2C2.121 11 1 12.121 1 13.5S2.121 16 3.5 16c1.208 0 2.217-.86 2.45-2H6v3a2 2 0 0 0 2 2h11.293l.6.6A2.48 2.48 0 0 0 19 21.5c0 1.379 1.121 2.5 2.5 2.5s2.5-1.121 2.5-2.5-1.121-2.5-2.5-2.5m-.495-13c.55 0 .995.446.995.995v10.01c0 .55-.446.995-.995.995h-1.298l-2.6-2.6A2.48 2.48 0 0 0 18 13.5c0-1.208-.86-2.217-2-2.45V6zm-5.712 9H15a1 1 0 0 1-1-1v-1a1 1 0 0 1 1-1h1a1 1 0 0 1 1 1v1a1 1 0 0 1-1 1zM14 3V2a1 1 0 0 1 1-1h1a1 1 0 0 1 1 1v1a1 1 0 0 1-1 1h-1a1 1 0 0 1-1-1M7 6.995c0-.55.446-.995.995-.995H15v5.05A2.51 2.51 0 0 0 13.05 13H7zM4 15H3a1 1 0 0 1-1-1v-1a1 1 0 0 1 1-1h1a1 1 0 0 1 1 1v1a1 1 0 0 1-1 1m3.995 3A.995.995 0 0 1 7 17.005V14h6.05c.233 1.14 1.242 2 2.45 2 .24 0 .466-.044.685-.107L18.293 18zM23 22a1 1 0 0 1-1 1h-1a1 1 0 0 1-1-1v-1a1 1 0 0 1 1-1h1a1 1 0 0 1 1 1z"/></svg>