<svg xmlns="http://www.w3.org/2000/svg" viewBox="0 0 32 32"><path d="M0 0h32v32H0z" style="fill:none"/><path d="M28.82 25.82A2 2 0 0 0 30 24V9a2 2 0 0 0-2-2h-7.848A2.997 2.997 0 0 0 18.5 1.5 2.997 2.997 0 0 0 16.848 7H9a2 2 0 0 0-1.998 2L7 15.873A2.98 2.98 0 0 0 4.5 14.5c-1.654 0-3 1.346-3 3s1.346 3 3 3A2.98 2.98 0 0 0 7 19.127V24a2 2 0 0 0 2 2h16.578l.12.116A2.99 2.99 0 0 0 24.5 28.5c0 1.654 1.346 3 3 3s3-1.346 3-3c0-1.178-.689-2.19-1.68-2.68M4.5 19.5c-1.103 0-2-.897-2-2s.897-2 2-2 2 .897 2 2-.897 2-2 2m12-15c0-1.103.897-2 2-2s2 .897 2 2-.897 2-2 2-2-.897-2-2m4 13c0 1.103-.897 2-2 2s-2-.897-2-2 .897-2 2-2 2 .897 2 2M8 9a1 1 0 0 1 1-1h9v6.55A2.99 2.99 0 0 0 15.55 17H8zm1 16a1 1 0 0 1-1-1v-6h7.55a3 3 0 0 0 2.95 2.5 3 3 0 0 0 1.137-.227L24.54 25zm11.502-5.282c.608-.55.998-1.336.998-2.218a3 3 0 0 0-2.5-2.95V8h9a1 1 0 0 1 1 1v15a1 1 0 0 1-1 1h-2.019zM27.5 30.5c-1.103 0-2-.897-2-2s.897-2 2-2 2 .897 2 2-.897 2-2 2"/></svg>