<svg xmlns="http://www.w3.org/2000/svg" viewBox="0 0 16 16"><path d="M0 0h16v16H0z" style="fill:none"/><path d="M16 4a1 1 0 0 0-1-1H9v-.092A1.496 1.496 0 0 0 8.5 0 1.496 1.496 0 0 0 8 2.908V3H4a1 1 0 0 0-1 1v5h-.092A1.496 1.496 0 0 0 0 9.5a1.496 1.496 0 0 0 2.908.5H3v3a1 1 0 0 0 1 1h9.019l.058.048A1.5 1.5 0 0 0 13 14.5a1.5 1.5 0 1 0 2.74-.843A1 1 0 0 0 16 13zM8 1h1v1H8zM4 4.5a.5.5 0 0 1 .5-.5H8v4.092c-.424.15-.757.484-.908.908H4zM9 9v1H8V9zm-8 1V9h1v1zm3.5 3a.5.5 0 0 1-.5-.5V10h3.092c.206.581.756 1 1.408 1 .255 0 .491-.07.701-.182L11.6 13zM15 15h-1v-1h1zm0-2.5a.5.5 0 0 1-.5.5H13l-3.118-2.916A1.495 1.495 0 0 0 9 8.092V4h5.5a.5.5 0 0 1 .5.5z"/></svg>