<?xml version="1.0" encoding="UTF-8"?><svg id="icons" xmlns="http://www.w3.org/2000/svg" viewBox="0 0 24 24"><defs><style>.cls-1{fill:none;}</style></defs><rect class="cls-1" width="24" height="24"/><path d="M21.5,19c-.23932,0-.46619.04443-.68542.10748l-.10748-.10748h.29291c1.10455,0,2-.89545,2-2V7c0-1.10461-.89545-2-2-2h-5v-.05054c1.13995-.23224,2-1.24182,2-2.44946,0-1.37891-1.12109-2.5-2.5-2.5s-2.5,1.12109-2.5,2.5c0,1.20764.86005,2.21722,2,2.44946v.05054h-7c-1.10455,0-2,.89539-2,2v6h-.05054c-.23224-1.13995-1.24182-2-2.44946-2-1.37891,0-2.5,1.12109-2.5,2.5s1.12109,2.5,2.5,2.5c1.20764,0,2.21722-.86005,2.44946-2h.05054v3c0,1.10455.89545,2,2,2h11.29291l.60046.60046c-.54169.45886-.89337,1.13538-.89337,1.89954,0,1.37891,1.12109,2.5,2.5,2.5s2.5-1.12109,2.5-2.5-1.12109-2.5-2.5-2.5ZM21.0047,6c.54968,0,.9953.44556.9953.99524v10.00946c0,.54968-.44562.9953-.9953.9953h-1.29761l-2.60046-2.60046c.54169-.45886.89337-1.13538.89337-1.89954,0-1.20764-.86005-2.21722-2-2.44946v-5.05054h5.0047ZM15.29291,15h-.29291c-.55231,0-1-.44775-1-1v-1c0-.55231.44769-1,1-1h1c.55231,0,1,.44769,1,1v1c0,.55225-.44769,1-1,1h-.70709ZM14,3v-1c0-.55231.44769-1,1-1h1c.55231,0,1,.44769,1,1v1c0,.55225-.44769,1-1,1h-1c-.55231,0-1-.44775-1-1ZM7,6.99524c0-.54968.44562-.99524.9953-.99524h7.0047v5.05054c-.97833.19934-1.75012.97113-1.94946,1.94946h-6.05054v-6.00476ZM4,15h-1c-.55231,0-1-.44775-1-1v-1c0-.55231.44769-1,1-1h1c.55231,0,1,.44769,1,1v1c0,.55225-.44769,1-1,1ZM7.9953,18c-.54968,0-.9953-.44562-.9953-.9953v-3.0047h6.05054c.23224,1.13995,1.24182,2,2.44946,2,.23932,0,.46619-.04443.68542-.10748l2.10748,2.10748H7.9953ZM23,22c0,.55225-.44769,1-1,1h-1c-.55231,0-1-.44775-1-1v-1c0-.55231.44769-1,1-1h1c.55231,0,1,.44769,1,1v1Z"/></svg>