<svg xmlns="http://www.w3.org/2000/svg" viewBox="0 0 32 32"><path d="M1 24h16.875L24 30.125V24h7V4H1zM2 5h28v18h-7v4.71L18.29 23H2zm7.854 6.269a2.5 2.5 0 0 0-1.165-1.05 3.6 3.6 0 0 0-1.496-.32 3.9 3.9 0 0 0-1.51.284 3.4 3.4 0 0 0-1.89 1.916 3.8 3.8 0 0 0-.262 1.409 3.7 3.7 0 0 0 .263 1.4 3.4 3.4 0 0 0 .737 1.13 3.4 3.4 0 0 0 1.158.754 4 4 0 0 0 1.52.277 3.6 3.6 0 0 0 1.473-.305 2.8 2.8 0 0 0 1.126-.92v1.095a4.4 4.4 0 0 1-.137 1.11 2.4 2.4 0 0 1-.469.928 2.2 2.2 0 0 1-.866.623 3.3 3.3 0 0 1-1.29.223 3.88 3.88 0 0 1-2.652-1.087l-.666.811a4.8 4.8 0 0 0 1.453.819 5.5 5.5 0 0 0 1.85.334 4.6 4.6 0 0 0 1.83-.322 3.2 3.2 0 0 0 1.177-.848 3.15 3.15 0 0 0 .638-1.219 5.6 5.6 0 0 0 .193-1.48V10.1H9.854zm-.129 3.284a2.6 2.6 0 0 1-.54.879 2.5 2.5 0 0 1-.852.59 2.7 2.7 0 0 1-1.094.217 2.5 2.5 0 0 1-1.103-.235 2.6 2.6 0 0 1-.824-.614 2.6 2.6 0 0 1-.516-.88 3.1 3.1 0 0 1-.173-1.033 3.2 3.2 0 0 1 .173-1.055 2.5 2.5 0 0 1 .518-.883 2.54 2.54 0 0 1 1.925-.824 2.6 2.6 0 0 1 1.09.225 2.66 2.66 0 0 1 1.396 1.483 2.9 2.9 0 0 1 .191 1.054 3 3 0 0 1-.19 1.075zm8.635.746a2.9 2.9 0 0 1-.784.674 2.8 2.8 0 0 1-2.347.169 2.6 2.6 0 0 1-.806-.504 2.5 2.5 0 0 1-.558-.762 1.9 1.9 0 0 1-.226-.842l-.007-.2h5.82l.002-.395a4.6 4.6 0 0 0-.235-1.513 3.3 3.3 0 0 0-.66-1.126 2.9 2.9 0 0 0-1.042-.706 3.94 3.94 0 0 0-2.808.022 3.5 3.5 0 0 0-1.14.75 3.4 3.4 0 0 0-.751 1.16 4 4 0 0 0-.272 1.49 3.9 3.9 0 0 0 .277 1.495 3.4 3.4 0 0 0 .757 1.144 3.4 3.4 0 0 0 1.152.736 4 4 0 0 0 1.468.263 4 4 0 0 0 1.681-.348 3.4 3.4 0 0 0 1.19-.937zm-4.721-2.459a2.3 2.3 0 0 1 .244-.881 2.5 2.5 0 0 1 .533-.708 2.5 2.5 0 0 1 .767-.476 2.5 2.5 0 0 1 .94-.175 2.4 2.4 0 0 1 .96.177 2 2 0 0 1 .697.485 2.1 2.1 0 0 1 .425.721 3 3 0 0 1 .156.864l.008.2h-4.745zm8.188 3.285a3.5 3.5 0 0 0 1.182.758 4.2 4.2 0 0 0 2.967 0 3.6 3.6 0 0 0 1.19-.76 3.5 3.5 0 0 0 .788-1.16 3.8 3.8 0 0 0 .284-1.478 3.7 3.7 0 0 0-.283-1.471 3.5 3.5 0 0 0-.788-1.144 3.7 3.7 0 0 0-1.19-.753 4.2 4.2 0 0 0-2.968 0 3.45 3.45 0 0 0-1.963 1.897 3.7 3.7 0 0 0-.284 1.47 3.8 3.8 0 0 0 .285 1.48 3.6 3.6 0 0 0 .78 1.16zm.2-3.692a2.7 2.7 0 0 1 .506-.899 2.5 2.5 0 0 1 .827-.624 2.82 2.82 0 0 1 2.249 0 2.5 2.5 0 0 1 .828.624 2.7 2.7 0 0 1 .506.9 3.33 3.33 0 0 1 0 2.117 2.8 2.8 0 0 1-.505.906 2.4 2.4 0 0 1-.83.633 2.82 2.82 0 0 1-2.248 0 2.4 2.4 0 0 1-.828-.633 2.8 2.8 0 0 1-.505-.905 3.33 3.33 0 0 1 0-2.119"/><path fill="none" d="M0 0h32v32H0z"/></svg>