<svg xmlns="http://www.w3.org/2000/svg" viewBox="0 0 24 24"><path d="M0 18h13.5l5.5 5.5V18h5V3H0zM1 4h22v13h-5v4.086L13.914 17H1zm5.974 3.868H6.95a2.1 2.1 0 0 0-.896-.812 2.7 2.7 0 0 0-1.18-.272 2.9 2.9 0 0 0-1.182.232 2.7 2.7 0 0 0-.904.632 2.8 2.8 0 0 0-.58.936 3.28 3.28 0 0 0 0 2.288 2.7 2.7 0 0 0 .58.922 2.7 2.7 0 0 0 .908.614 3 3 0 0 0 1.186.224 2.7 2.7 0 0 0 1.17-.264 2.05 2.05 0 0 0 .874-.76h.024v.84a3.2 3.2 0 0 1-.108.838 1.8 1.8 0 0 1-.35.678 1.65 1.65 0 0 1-.638.454 2.5 2.5 0 0 1-.972.166 2.85 2.85 0 0 1-2.1-.96l-.676.792a3.7 3.7 0 0 0 1.264.784 4.2 4.2 0 0 0 1.492.28 3.6 3.6 0 0 0 1.5-.272 2.65 2.65 0 0 0 .958-.708 2.55 2.55 0 0 0 .508-.988 4.4 4.4 0 0 0 .146-1.12V6.936h-1zm-.082 2.658a2 2 0 0 1-.412.654 1.9 1.9 0 0 1-.637.432 2.1 2.1 0 0 1-.817.156 1.9 1.9 0 0 1-.83-.17 1.9 1.9 0 0 1-.619-.454 1.9 1.9 0 0 1-.387-.656 2.3 2.3 0 0 1-.132-.784 2.4 2.4 0 0 1 .132-.796 1.87 1.87 0 0 1 1.006-1.104 2 2 0 0 1 .83-.168 1.9 1.9 0 0 1 .813.168 2 2 0 0 1 1.053 1.108 2.2 2.2 0 0 1 .146.792 2.3 2.3 0 0 1-.146.822m9.913 1.302a2.8 2.8 0 0 0 .964.622 3.4 3.4 0 0 0 2.42 0 2.84 2.84 0 0 0 1.607-1.57 3.1 3.1 0 0 0 .23-1.2 3 3 0 0 0-.23-1.196 2.8 2.8 0 0 0-.639-.94 2.9 2.9 0 0 0-.967-.618 3.4 3.4 0 0 0-2.42 0 2.82 2.82 0 0 0-1.599 1.558 3 3 0 0 0-.23 1.196 3.1 3.1 0 0 0 .23 1.2 2.9 2.9 0 0 0 .634.948m.327-2.956a2 2 0 0 1 .387-.675 1.85 1.85 0 0 1 .618-.461 2.13 2.13 0 0 1 1.674 0 1.85 1.85 0 0 1 .622.46 2 2 0 0 1 .386.675 2.5 2.5 0 0 1 0 1.625 2.1 2.1 0 0 1-.386.679 1.8 1.8 0 0 1-.622.463 2.15 2.15 0 0 1-1.674 0 1.8 1.8 0 0 1-.618-.463 2.1 2.1 0 0 1-.387-.679 2.53 2.53 0 0 1 0-1.625zm-2.522 2.62-.733-.584a2.1 2.1 0 0 1-.673.634 1.99 1.99 0 0 1-2.37-.264 1.9 1.9 0 0 1-.413-.581 1.6 1.6 0 0 1-.164-.663h4.569c.008-.066.011-.182.011-.246V9.6a3.6 3.6 0 0 0-.186-1.18 2.6 2.6 0 0 0-.534-.914 2.4 2.4 0 0 0-.858-.592 3.16 3.16 0 0 0-2.295.012 2.77 2.77 0 0 0-1.538 1.566 3.2 3.2 0 0 0-.22 1.204 3.1 3.1 0 0 0 .225 1.208 2.9 2.9 0 0 0 .618.94 2.75 2.75 0 0 0 .939.61 3.35 3.35 0 0 0 2.536-.064 2.9 2.9 0 0 0 1.086-.898m-4.172-2.934a1.9 1.9 0 0 1 .396-.536 1.95 1.95 0 0 1 2.011-.363 1.4 1.4 0 0 1 .503.35 1.6 1.6 0 0 1 .318.529 2.2 2.2 0 0 1 .128.67h-3.532a1.7 1.7 0 0 1 .176-.65"/><path fill="none" d="M0 0h24v24H0z"/></svg>