<svg xmlns="http://www.w3.org/2000/svg" viewBox="0 0 24 24"><path d="M5 4h1v1H5V4zm2 1h1V4H7v1zm2 0h1V4H9v1zm13-3v11.19l-1-.41V11H3v3h6.69a.962.962 0 0 0 0 1H2V2h20zm-1 5H3v3h18V7zm0-4H3v3h18V3zM6 8H5v1h1V8zm2 0H7v1h1V8zm2 0H9v1h1V8zm-5 4v1h1v-1H5zm2 0v1h1v-1H7zm2 0v1h1v-1H9zm13.55 8.5l-6 2.5-6-2.5 2.3-.96 1.29.54c-.97.405-.872.361-.99.42l3.4 1.42 3.4-1.42c-.123-.055-.023-.012-1-.42l1.29-.54 2.31.96zm0-3l-6 2.5-6-2.5 2.3-.96 1.3.54-1 .42 3.4 1.42 3.4-1.42-1-.42 1.29-.54 2.31.96zm-6.003-4.417l-3.4 1.417 3.4 1.417 3.4-1.417-3.4-1.417m0-1.083l6 2.5-6 2.5-6-2.5 6-2.5z"/><path fill="none" d="M0 0h24v24H0z"/></svg>