<svg xmlns="http://www.w3.org/2000/svg" viewBox="0 0 32 32"><path d="M8 12v1H6v-1h2zm1 0v1h2v-1H9zm3 0v1h2v-1h-2zm17-9v14.77l-1-.54V16h-2.31l-1.88-1H28v-5H4v5h17.19l-1.87 1H4v5h10v1H3V3h26zm-1 1H4v5h24V4zM6 18v1h2v-1H6zm3 0v1h2v-1H9zm3 0v1h2v-1h-2zM6 7h2V6H6v1zm3 0h2V6H9v1zm3 0h2V6h-2v1zm18 19l-7.5 4-7.5-4 1.22-.65 1.06.56-.16.09 5.38 2.87L27.88 26l-.16-.09 1.06-.56L30 26zm0-3l-7.5 4-7.5-4 1.22-.65 1.06.56-.16.09 5.38 2.87L27.88 23l-.16-.09 1.06-.56L30 23zm-7.5-5.867L17.125 20l5.375 2.867L27.875 20 22.5 17.133m0-1.133l7.5 4-7.5 4-7.5-4 7.5-4z"/><path fill="none" d="M0 0h32v32H0z"/></svg>