<?xml version="1.0" encoding="UTF-8"?><svg id="icons" xmlns="http://www.w3.org/2000/svg" viewBox="0 0 16 16"><defs><style>.cls-1{fill:none;}.cls-2{fill-rule:evenodd;}</style></defs><path class="cls-2" d="M8,1L0,5h16L8,1ZM8,2.11798l3.76392,1.88202h-7.52783l3.76392-1.88202ZM1,7h1v5l-1,1v2h14v-2l-1-1v-5h1v-1H1v1ZM12,7h1v5h-1v-5ZM10,7h1v5h-1v-5ZM7,7h2v5h-2v-5ZM5,7h1v5h-1v-5ZM3,7h1v5h-1v-5ZM13.58582,13l.41418.41418v.58582H2v-.58582l.41418-.41418h11.17163Z"/><rect class="cls-1" width="16" height="16"/></svg>