<svg xmlns="http://www.w3.org/2000/svg" viewBox="0 0 32 32"><path d="M18 3.185C24.399 3.44 29.559 8.6 29.815 15H18V3.185z" opacity=".25"/><path d="M27.8 17H16V4.2c-.167-.006-.331-.025-.5-.025-7.348 0-13.325 5.977-13.325 13.325S8.152 30.825 15.5 30.825 28.825 24.848 28.825 17.5c0-.169-.019-.333-.025-.5h-1zM15 29.8a12.26 12.26 0 0 1-7.84-3.252L15 18.707V29.8zM15 16v1.293l-8.548 8.548c-2.027-2.198-3.277-5.123-3.277-8.341C3.175 10.873 8.437 5.465 15 5.2V16zm1 13.8V17.95h11.8c-.26 6.396-5.404 11.591-11.8 11.85zm1.5-27.625H17V16h13.825v-.5c0-7.348-5.977-13.325-13.325-13.325zM18 15V3.185C24.399 3.44 29.559 8.6 29.815 15H18z"/><path fill="none" d="M0 0h32v32H0z"/></svg>