<svg xmlns="http://www.w3.org/2000/svg" viewBox="0 0 32 32"><path d="M30 29v1H2V2h1v27h27zM5 17h1v-1H5v1zm2 0h1v-1H7v1zm2 0h1v-1H9v1zm2 0h1v-1h-1v1zm2 0h1v-1h-1v1zm4 0h1v-1h-1v1zm2 0h1v-1h-1v1zm2 0h1v-1h-1v1zm2 0h1v-1h-1v1zm2 0h1v-1h-1v1zm2 0h1v-1h-1v1zm2-1v1h1v-1h-1zM15 27h1v-1h-1v1zm0-2h1v-1h-1v1zm0-2h1v-1h-1v1zm0-2h1v-1h-1v1zm0-2h1v-1h-1v1zm0-2h1v-1h-1v1zm0-2h1v-1h-1v1zm0-2h1v-1h-1v1zm0-2h1v-1h-1v1zm0-2h1V8h-1v1zm0-2h1V6h-1v1zm0-2h1V4h-1v1zm0-2h1V2h-1v1z"/><path fill="none" d="M0 0h32v32H0z"/></svg>