<svg xmlns="http://www.w3.org/2000/svg" viewBox="0 0 24 24"><path stroke-width="0" fill="none" d="M0 0h24v24H0z"/><path d="M23 22v1H1V1h1v21h21zm0-10V7h-2V2h1V1h-3v1h1v1.69l-6 3V5h1V4h-3v1h1v2H9V6H7V3h1V2H5v1h1v3H4v6h2v3H5v1h3v-1H7v-3h1.793L11 13.687V17h2v2h-1v1h3v-1h-1v-2h2v-3.046L18.915 12H20v5h-1v1h3v-1h-1v-5h2zm-8 1.42l-1.44.965L12 13.192V12h3v1.42zM5 11V7h1.5v1H8v2.135l-.696-.532-.608.794.789.603H5zm4-.1V8h4v3h-2v1.428l-2-1.529zm6 5.1h-3v-1.549l1.522 1.164 1.478-.99V16zm-1-5V7.81l6-3V7h-2v4.41l-2 1.34V11h-2zm6.406 0l.872-.584-.556-.832L19 10.74V8h3v3h-1.594z" stroke-width="0"/></svg>