<svg xmlns="http://www.w3.org/2000/svg" viewBox="0 0 24 24"><path d="M13 3.164c4.759.252 8.585 4.078 8.837 8.836H13z" opacity=".25"/><path d="M12.5 2.15H12V13h10.85v-.5c0-5.707-4.643-10.35-10.35-10.35M13 12V3.164c4.759.252 8.585 4.078 8.837 8.836zm-2 2V4.176c-4.923.262-8.85 4.337-8.85 9.324 0 5.155 4.194 9.35 9.35 9.35 4.987 0 9.062-3.928 9.325-8.85zm-1-8.697v8.984l-4.74 4.74A8.3 8.3 0 0 1 3.15 13.5c0-4.09 2.961-7.487 6.85-8.197M5.967 19.734 10 15.701v6.006a8.33 8.33 0 0 1-4.033-1.973M11.5 21.85c-.169 0-.334-.016-.5-.026V14.95h8.697c-.71 3.888-4.106 6.9-8.197 6.9"/><path fill="none" d="M0 0h24v24H0z"/></svg>