<svg xmlns="http://www.w3.org/2000/svg" viewBox="0 0 32 32"><path d="M28.288 20.005l-1.28-1.284.704-.713 1.284 1.288 1.284-1.283.707.707-1.285 1.285 1.268 1.271-.704.713-1.272-1.276L27.707 22 27 21.293l1.288-1.288zm.066 3.647l-.708.707L29.287 26H7V3.713l1.64 1.64.708-.707L6.5 1.8 3.652 4.646l.707.708L6 3.713V26H2v1h4v4h1v-4h22.287l-1.64 1.64.707.708L31.2 26.5l-2.847-2.848zM11.8 3.517l.199.2V6h1V3.732l.215-.215L14.5 2.232l-.707-.707-1.284 1.284L11.205 1.5l-.704.713 1.3 1.304z"/><path fill="none" d="M0 0h32v32H0z"/></svg>