<svg xmlns="http://www.w3.org/2000/svg" viewBox="0 0 32 32"><path fill="none" stroke-width="0" d="M0 0h32v32H0z"/><path d="M4 11H3V9h1v2zm0 1H3v2h1v-2zm0-6H3v2h1V6zm0-2h1V3H3v2h1V4zm2.91 11.365L5 16.493l11.001 5.67L27 16.494l-1.91-1.128-.983.582.826.446L16.001 21l-8.934-4.607.826-.446-.983-.582zM4 21H3v2h1v-2zM8 3H6v1h2V3zM4 15H3v2h1v-2zm0 3H3v2h1v-2zM26 3h-2v1h2V3zm1 9.495l-10.999 5.667L5 12.492 16.001 7 27 12.495zM16.001 17l8.832-4.504L16 8.161l-8.834 4.333L16.001 17zM23 3h-2v1h2V3zM4 24H3v2h1v-2zm7-21H9v1h2V3zm9 0h-2v1h2V3zm-6 0h-2v1h2V3zm3 0h-2v1h2V3zm11 5h1V6h-1v2zm0 15h1v-2h-1v2zm0-3h1v-2h-1v2zm0 6h1v-2h-1v2zm0-9h1v-2h-1v2zM27 3v1h1v1h1V3h-2zm1 25h-1v1h2v-2h-1v1zm0-17h1V9h-1v2zm0 3h1v-2h-1v2zM4 27H3v2h2v-1H4v-1zm20 2h2v-1h-2v1zM9 29h2v-1H9v1zm18-8.505l-1.91-1.128-.983.582.826.446-8.932 4.443-8.934-4.445.826-.446-.983-.582L5 20.493 16.001 26 27 20.495zM12 29h2v-1h-2v1zm-6 0h2v-1H6v1zm9 0h2v-1h-2v1zm3 0h2v-1h-2v1zm3 0h2v-1h-2v1z" stroke-width="0"/></svg>