<svg xmlns="http://www.w3.org/2000/svg" viewBox="0 0 24 24"><path fill="none" d="M0 0h24v24H0z"/><path fill-rule="evenodd" d="M4 21v1H2v-2h1v1zm17 0h-1v1h2v-2h-1zM3 3h1V2H2v2h1zm4 0V2H5v1zm3 0V2H8v1zm3 0V2h-2v1zm3 0V2h-2v1zm3 0V2h-2v1zM7 22v-1H5v1zm3 0v-1H8v1zm3 0v-1h-2v1zm3 0v-1h-2v1zm3 0v-1h-2v1zm2-15h1V5h-1zm0 3h1V8h-1zm0 3h1v-2h-1zm0 3h1v-2h-1zm0 3h1v-2h-1zM2 7h1V5H2zm0 3h1V8H2zm0 3h1v-2H2zm0 3h1v-2H2zm0 3h1v-2H2zM20 2v1h1v1h1V2zm-1.46 7.523-6.536 3.503L5.46 9.523 12.004 6zm-6.536 2.355L16.5 9.523l-4.496-2.376L7.5 9.523zm5.516.072-5.516 2.928L6.48 11.95l-1.02.573 6.544 3.503 6.536-3.503zm-11.04 3-1.02.573 6.458 3.454c.053.03.119.03.172 0l6.45-3.454-1.02-.573-5.516 2.928z"/></svg>