<svg xmlns="http://www.w3.org/2000/svg" viewBox="0 0 16 16"><path fill="none" d="M0 0h16v16H0z"/><path d="M2 6H1V4h1zm4-5H4v1h2zM2 2h1V1H1v2h1zm0 5H1v2h1zm10-6h-2v1h2zM3.839 8.015 3 8.504 8.012 11 13 8.497 12.152 8l-4.14 2zM9 1H7v1h2zm4 5.5L8.012 9 3 6.5 8.012 4zM8.012 8.1l3.29-1.6-3.29-1.624L4.674 6.5zM2 13H1v2h2v-1H2zm0-3H1v2h1zm12 2h1v-2h-1zm0-3h1V7h-1zm0-3h1V4h-1zm-1-5v1h1v1h1V1zm-3 14h2v-1h-2zm-3 0h2v-1H7zm7-1h-1v1h2v-2h-1zM4 15h2v-1H4zm9-4.503L12.152 10l-4.14 1.973L3.839 10 3 10.49l5.012 2.483z"/></svg>