<svg xmlns="http://www.w3.org/2000/svg" viewBox="0 0 16 16"><path d="M0 0h16v16H0z" style="fill:none"/><path d="M8 4H6V3h2zm-6 7h2V9H2zm2-5H2v2h2zm4 0H5v1h3zm-3 4h3V9H5zm4-8.09V12h1V1.795C10 .806 9.253 0 8.333 0H6v1h2.167c.46 0 .833.407.833.91M1 12.09V6H0v6.205C0 13.195.747 14 1.667 14H7v-1H1.833c-.46 0-.833-.407-.833-.91M1.092 3H0V2h1.092q.026-.073.058-.143l-.77-.771.707-.707.771.771q.07-.032.143-.058V0h1v1.092q.073.026.143.058l.77-.77.707.707-.771.771q.032.07.058.143H5v1L3.908 3a2 2 0 0 1-.058.144l.771.771-.707.707-.771-.771q-.07.032-.143.058V5H2V3.908a2 2 0 0 1-.143-.058l-.771.771-.707-.707.771-.771A2 2 0 0 1 1.092 3M2 3h1V2H2zm11 10v3h3v-3zm2 2h-1v-1h1zm1-4V8h-3v2.293L10.293 13H8v3h3v-2.293L13.707 11zm-2-2h1v1h-1zm-4 6H9v-1h1z"/></svg>