<svg xmlns="http://www.w3.org/2000/svg" viewBox="0 0 32 32"><path fill="none" d="M0 0h32v32H0z"/><path d="M4 11H3V9h1zm0 1H3v2h1zm0-6H3v2h1zm0-2h1V3H3v2h1zm2.91 11.365L5 16.493l11.001 5.67L27 16.494l-1.91-1.128-.983.582.826.446L16.001 21l-8.934-4.607.826-.446zM4 21H3v2h1zM8 3H6v1h2zM4 15H3v2h1zm0 3H3v2h1zM26 3h-2v1h2zm1 9.495-10.999 5.667L5 12.492 16.001 7zM16.001 17l8.832-4.504L16 8.161l-8.834 4.333zM23 3h-2v1h2zM4 24H3v2h1zm7-21H9v1h2zm9 0h-2v1h2zm-6 0h-2v1h2zm3 0h-2v1h2zm11 5h1V6h-1zm0 15h1v-2h-1zm0-3h1v-2h-1zm0 6h1v-2h-1zm0-9h1v-2h-1zM27 3v1h1v1h1V3zm1 25h-1v1h2v-2h-1zm0-17h1V9h-1zm0 3h1v-2h-1zM4 27H3v2h2v-1H4zm20 2h2v-1h-2zM9 29h2v-1H9zm18-8.505-1.91-1.128-.983.582.826.446-8.932 4.443-8.934-4.445.826-.446-.983-.582L5 20.493 16.001 26zM12 29h2v-1h-2zm-6 0h2v-1H6zm9 0h2v-1h-2zm3 0h2v-1h-2zm3 0h2v-1h-2z"/></svg>