<svg xmlns="http://www.w3.org/2000/svg" viewBox="0 0 32 32"><path d="M0 0h32v32H0z" style="fill:none"/><path d="M5 12v12h13V5h-6V4h7v21H4V12zm1 6h5v5H6zm1 4h3v-3H7zM20 4v21h1V4.008A2.01 2.01 0 0 0 18.999 2H11v1h8.001A1 1 0 0 1 20 4m-9 13H6v-5h5zm-1-4H7v3h3zM3 25.002V11H2v13.998C2 26.102 2.896 27 3.998 27H18v-1H3.999A1 1 0 0 1 3 25.002M2.05 6H0V5h2.05c.086-.59.314-1.13.656-1.587L1.257 1.964l.707-.707 1.449 1.448c.456-.341.996-.57 1.587-.655V0h1v2.05c.59.086 1.13.314 1.587.655l1.449-1.448.707.707-1.449 1.449c.342.456.57.996.656 1.587H11v1H8.95a3.46 3.46 0 0 1-.656 1.587l1.449 1.449-.707.707-1.449-1.449c-.456.342-.996.57-1.587.656V11H5V8.95a3.46 3.46 0 0 1-1.587-.656L1.964 9.743l-.707-.707 1.449-1.449A3.46 3.46 0 0 1 2.05 6M3 5.5a2.5 2.5 0 1 0 5.001-.001A2.5 2.5 0 0 0 3 5.5m9 9.5h5v-1h-5zm5-7h-5v1h5zm-5 13h5v-1h-5zm16 9h3v-3h-3zm1-2h1v1h-1zm-1-10v2.293L21.293 27H19v3h3v-2.293L28.707 21H31v-3zm-7 11h-1v-1h1zm9-9h-1v-1h1z"/></svg>