<svg xmlns="http://www.w3.org/2000/svg" viewBox="0 0 32 32"><path d="M16 9a4 4 0 1 0-4-4 4.005 4.005 0 0 0 4 4m0-7a3 3 0 1 1-3 3 3.003 3.003 0 0 1 3-3m3.101 16a5 5 0 0 0 .323 1h-6.848a5 5 0 0 0 .323-1zm-8.588-5.297a5 5 0 0 0-.908-.415A4.49 4.49 0 0 1 13.5 10h5a4.49 4.49 0 0 1 3.895 2.288 5 5 0 0 0-.908.415A3.49 3.49 0 0 0 18.5 11h-5a3.49 3.49 0 0 0-2.987 1.703M12 17a4 4 0 1 0-4 4 4.005 4.005 0 0 0 4-4m-4 3a3 3 0 1 1 3-3 3.003 3.003 0 0 1-3 3m-7 6.5V31h14v-4.5a4.505 4.505 0 0 0-4.5-4.5h-5A4.505 4.505 0 0 0 1 26.5m9.5-3.5a3.504 3.504 0 0 1 3.5 3.5V30H2v-3.5A3.504 3.504 0 0 1 5.5 23zM24 13a4 4 0 1 0 4 4 4.005 4.005 0 0 0-4-4m0 7a3 3 0 1 1 3-3 3.003 3.003 0 0 1-3 3m2.5 2h-5a4.505 4.505 0 0 0-4.5 4.5V31h14v-4.5a4.505 4.505 0 0 0-4.5-4.5m3.5 8H18v-3.5a3.504 3.504 0 0 1 3.5-3.5h5a3.504 3.504 0 0 1 3.5 3.5z"/><path fill="none" d="M0 0h32v32H0z"/></svg>