<?xml version="1.0" encoding="UTF-8"?><svg id="icons" xmlns="http://www.w3.org/2000/svg" viewBox="0 0 32 32"><defs><style>.cls-1{fill:none;}</style></defs><rect class="cls-1" width="32" height="32"/><path d="M5,12v12h13V5h-6v-1h7v21H4v-13h1ZM6,18h5v5h-5v-5ZM7,22h3v-3h-3v3ZM20,4v21h.99982c0-.00067.00018-.00134.00018-.00201V4.00781c0-1.10156-.89752-2.00781-2.00098-2.00781h-7.99902v1h8.00098c.5517,0,.99902.44727.99902,1ZM11,17h-5v-5h5v5ZM10,13h-3v3h3v-3ZM3,25.00201v-14.00201h-1v13.99799c0,1.10358.89648,2.00201,1.99799,2.00201h14.00201v-1H3.99902c-.55176,0-.99902-.44733-.99902-.99799ZM2.05042,6H0v-1h2.05042c.08533-.59088.31317-1.13055.65509-1.5874l-1.44812-1.44812.70709-.70715,1.44812,1.44812c.45679-.34192.99652-.5697,1.5874-.65503V0h1v2.05042c.59088.08533,1.13062.31311,1.5874.65503l1.44812-1.44812.70709.70715-1.44812,1.44812c.34192.45685.56976.99652.65509,1.5874h2.05042v1h-2.05042c-.08533.59088-.31317,1.13062-.65509,1.5874l1.44812,1.44812-.70709.70709-1.44812-1.44812c-.45685.34192-.99652.56976-1.5874.65509v2.05042h-1v-2.05042c-.59088-.08533-1.13055-.31317-1.5874-.65509l-1.44812,1.44812-.70709-.70709,1.44812-1.44812c-.34192-.45679-.56976-.99652-.65509-1.5874ZM3,5.5c0,1.38019,1.11981,2.5,2.5,2.5s2.5-1.11981,2.5-2.5-1.11975-2.5-2.5-2.5-2.5,1.11975-2.5,2.5ZM12,15h5v-1h-5v1ZM17,8h-5v1h5v-1ZM12,21h5v-1h-5v1ZM28,30h3v-3h-3v3ZM29,28h1v1h-1v-1ZM28,18v2.29297l-6.70703,6.70703h-2.29297v3h3v-2.29297l6.70703-6.70703h2.29297v-3h-3ZM21,29h-1v-1h1v1ZM30,20h-1v-1h1v1Z"/></svg>