<svg xmlns="http://www.w3.org/2000/svg" viewBox="0 0 32 32"><path d="M18 17.683v4.434l-4.5 2.7-4.5-2.7v-4.434l4.5-2.7 4.5 2.7zm5-3.566V9.683l-4.5-2.7-4.5 2.7v4.434l4.5 2.7 4.5-2.7zm-10 0V9.683l-4.5-2.7-4.5 2.7v4.434l4.5 2.7 4.5-2.7zm.5-5.3l4.5-2.7V3.5H9v2.617l4.5 2.7zM8 22.117v-4.434l-4.5-2.7v9.834l4.5-2.7zm0-16V3.5H3.5v5.317l4.5-2.7z" opacity=".25"/><path d="M28.5 6.983V3.5H28v2.617l-4.5 2.7-4.5-2.7V3.5h-1v2.617l-4.5 2.7-4.5-2.7V3.5H8v2.617l-4.5 2.7v6.166l4.5 2.7v4.434l-4.5 2.7V28.5H4v-2.817l4.5-2.7 4.5 2.7V28.5h1v-2.817l4.5-2.7 4.5 2.7V28.5h1v-2.817l4.5-2.7v-6.166l-4.5-2.7V9.683l4.5-2.7zM4 14.117V9.683l4.5-2.7 4.5 2.7v4.434l-4.5 2.7-4.5-2.7zm14 8l-4.5 2.7-4.5-2.7v-4.434l4.5-2.7 4.5 2.7v4.434zm-4-8V9.683l4.5-2.7 4.5 2.7v4.434l-4.5 2.7-4.5-2.7zm14 3.566v4.434l-4.5 2.7-4.5-2.7v-4.434l4.5-2.7 4.5 2.7z" opacity=".5"/><path d="M3 3v26h26V3H3zm25 12.085l-3.925-.76L20.509 4H28v11.085zM19.45 4l3.68 10.656-9.296 10.714L4 23.468V4h15.45zM4 24.487l9.65 1.867.569 1.646H4v-3.513zM15.277 28l-.683-1.977L23.89 15.31l4.109.795V28H15.277z"/><path opacity=".5" fill="none" d="M0 0h32v32H0z"/></svg>