<svg xmlns="http://www.w3.org/2000/svg" viewBox="0 0 24 24"><path d="M20.5 2.5v1.276l-3 1.733-3-1.733V2.5h-1v1.276l-3 1.733-3-1.733V2.5h-1v1.276l-3 1.733-1-.578v1.167l.5.289v3.451l-.5.29v1.154l1-.577 3 1.732v3.452l-3 1.732-1-.577v1.167l.5.288V21.5h1v-3l3-1.733 3 1.732V21.5h1v-3l3-1.733 3 1.732V21.5h1v-3l3-1.733.5.289v-5.774l-.5.289-3-1.733V6.387l3-1.733.5.29V2.5zM4 9.838V6.387l3-1.733 3 1.733v3.451l-3 1.733zm9.5 6.051-3 1.732-3-1.732v-3.452l3-1.732 3 1.732zM11 9.84V6.386l3-1.733 3 1.733v3.451l-3 1.733-3-1.733zm9.5 2.598v3.452l-3 1.732-3-1.732v-3.452l3-1.732z" opacity=".5"/><path d="m14 11.57-3-1.732V6.387l3-1.733 3 1.733v3.451l-3 1.733zm-4-5.183L7 4.654 4 6.387v3.451l3 1.733 3-1.733zm-2.5 6.05v3.452l3 1.732 3-1.732v-3.452l-3-1.732zm3-6.928 3-1.733V2.5h-6v1.276zm-4-1.733V2.5h-4v2.431l1 .578zm0 12.113v-3.452l-3-1.732-1 .577v5.762l1 .577zM3 6.387l-.5-.29v4.03l.5-.289z" opacity=".25"/><path d="M2 2v20h20V2zm19 8.399-2.773-.537L15.857 3H21zM14.8 3l2.483 7.192-6.975 8.039L3 16.817V3zM3 17.835l7.123 1.379L10.74 21H3zM11.798 21l-.73-2.116 6.975-8.038 2.957.572V21z"/><path fill="none" d="M0 0h24v24H0z" opacity=".5"/></svg>