<svg xmlns="http://www.w3.org/2000/svg" viewBox="0 0 16 16"><path d="M14.5 3.035V1.5h-.497v.66l-2 1.155-2-1.154V1.5h-1v.66l-2 1.155-2-1.154V1.5h-1v.66l-2 1.155-.503-.29v4.64l.503-.291 2 1.155v2.31l-2 1.154-.503-.29v1.16h.003V14.5h1v-1.636l2-1.155 2 1.155V14.5h1v-1.636l2-1.155 2 1.155V14.5h1v-1.636L14.5 11.71V7.644L12.503 6.49V4.188L14.5 3.035zM2.503 6.491V4.188l2-1.154 2 1.154v2.303l-2 1.155-2-1.155zm6.5 4.347l-2 1.155-2-1.155v-2.31l2-1.154 2 1.155v2.31zm-1.5-4.347V4.188l2-1.154 2 1.154v2.303l-2 1.155-2-1.155zm6.5 2.038v2.31l-2 1.154-2-1.155v-2.31l2-1.154 2 1.155z" opacity=".5"/><path d="M9.503 7.646l-2-1.155V4.188l2-1.154 2 1.154v2.303l-2 1.155zm-4.5.883v2.31l2 1.154 2-1.155v-2.31l-2-1.154-2 1.155zm1.5-4.34l-2-1.155-2 1.154v2.303l2 1.155 2-1.155V4.188zm-2.5 6.65v-2.31l-2-1.155-.503.29v4.039l.503.29 2-1.155zm0-8.678V1.5H1.5v1.525l.503.29 2-1.154zm3 1.154l2-1.154V1.5h-4v.66l2 1.155z" opacity=".25"/><path d="M1 1v14h14V1H1zm13 5.727l-1.609-.311L10.866 2H14v4.727zM9.803 2l1.632 4.728-4.653 5.362L2 11.166V2h7.803zM2 12.184l4.56.883.323.933H2v-1.816zM7.941 14l-.424-1.228L12.17 7.41l1.83.353V14H7.941z"/><path opacity=".5" fill="none" d="M0 0h16v16H0z"/></svg>