<svg xmlns="http://www.w3.org/2000/svg" viewBox="0 0 32 32"><path d="M29.64 25.462c-1.186-1.62-3.535-4.176-6.254-7.136-2.657-2.893-5.671-6.173-8.066-9.11a3.9 3.9 0 0 1-1.044-1.531 7 7 0 0 0-.215-1.271 3 3 0 0 1-.08-.348 8 8 0 0 1 3.153-1.61 25.4 25.4 0 0 1 4.095-.527l1.08-.043-1.14-1.239-.148-.035a24.3 24.3 0 0 0-5.123-.606A13.1 13.1 0 0 0 7.53 4.82c-.225.2-1.433 1.478-1.338 2.334.078.73-.212.949-.792 1.383a8 8 0 0 0-.558.444c-1.468-.125-1.92.252-3.014 1.16l-.39.32-.095.105a1.47 1.47 0 0 0-.277 1.24 7.2 7.2 0 0 0 2.294 3.029 2.25 2.25 0 0 0 2.404-.483 18 18 0 0 0 1.577-2.018 2.67 2.67 0 0 1 1.633-1.26 12.8 12.8 0 0 1 2.588.88c.11.046.2.077.277.104.05.018.111.032.116.036 4.108 5.004 6.896 8.936 8.93 11.807 1.401 1.976 2.413 3.404 3.3 4.412l.912 1.038a1.94 1.94 0 0 0 1.362.651l.078.001a1.94 1.94 0 0 0 1.334-.534l1.548-1.486a1.93 1.93 0 0 0 .22-2.52zM12.059 11.028l-.029.034c-.03-.012-.052-.018-.088-.033a10.3 10.3 0 0 0-3-.954 3.58 3.58 0 0 0-2.454 1.738 21 21 0 0 1-1.375 1.786c-.605.434-.936.519-1.313.338a6.9 6.9 0 0 1-1.792-2.446.9.9 0 0 1 .125-.305l.334-.275c1.045-.867 1.228-1.021 2.299-.933a1.02 1.02 0 0 0 .738-.247A8 8 0 0 1 6 9.337a2.27 2.27 0 0 0 1.186-2.288A3.8 3.8 0 0 1 8.19 5.571a12.23 12.23 0 0 1 7.706-2.565 21 21 0 0 1 2.624.178c-.523.076-1.076.173-1.614.298A9 9 0 0 0 13.34 5.3a1.18 1.18 0 0 0-.25 1.356 6 6 0 0 1 .19 1.1 3.35 3.35 0 0 0 .842 1.625 10 10 0 0 0-.994.683 7 7 0 0 0-1.068.964zm16.668 16.234-1.547 1.485a.95.95 0 0 1-.678.256.92.92 0 0 1-.652-.312l-.912-1.038c-.853-.97-1.905-2.452-3.236-4.33-2.018-2.848-4.78-6.742-8.838-11.696a6.4 6.4 0 0 1 .875-.772 8 8 0 0 1 .964-.66l.09-.05C17.14 13 20.06 16.182 22.65 19.001c2.7 2.939 5.032 5.477 6.184 7.051a.92.92 0 0 1-.106 1.209z"/><path fill="none" d="M0 0h32v32H0z"/></svg>