<svg xmlns="http://www.w3.org/2000/svg" viewBox="0 0 24 24"><path d="M22.703 19.288c-.935-1.264-2.782-3.252-4.92-5.555-2.09-2.249-4.457-4.797-6.346-7.087a2.9 2.9 0 0 1-.786-1.12 5.4 5.4 0 0 0-.173-1.006c-.017-.066-.037-.143-.047-.198a6.2 6.2 0 0 1 2.382-1.187 20 20 0 0 1 3.198-.407l1.09-.041-1.085-1.168-.148-.035a19.4 19.4 0 0 0-4.05-.474 10.47 10.47 0 0 0-6.643 2.214c-.012.01-1.18 1.116-1.09 1.912.056.503-.117.63-.578.971a1.7 1.7 0 0 0-.367.326 3.02 3.02 0 0 0-2.78 1.2 1.18 1.18 0 0 0-.34 1.093 4.65 4.65 0 0 0 1.801 2.47c1.05.5 2.276-.22 3.363-1.986a2 2 0 0 1 1.194-.928 10.6 10.6 0 0 1 1.995.676 1 1 0 0 0 .267.078c3.227 3.888 5.417 6.943 7.015 9.175 1.102 1.537 1.898 2.648 2.598 3.436l.717.807a1.63 1.63 0 0 0 1.144.542l.067.001a1.64 1.64 0 0 0 1.119-.445l1.218-1.155a1.6 1.6 0 0 0 .185-2.109M6.347 7.283a2.93 2.93 0 0 0-2.014 1.402c-.571.929-1.464 1.9-2.063 1.618a3.9 3.9 0 0 1-1.266-1.762c-.013-.127.024-.163.047-.184.895-.855 1.123-1.004 2.012-.927a.9.9 0 0 0 .656-.219c.129-.112.26-.209.384-.3a1.85 1.85 0 0 0 .978-1.865 3 3 0 0 1 .75-1.067 9.56 9.56 0 0 1 5.987-1.969c.423 0 .84.02 1.234.052q-.234.045-.464.098A7.25 7.25 0 0 0 9.74 3.595a1.01 1.01 0 0 0-.232 1.17 4.4 4.4 0 0 1 .145.834 2.5 2.5 0 0 0 .605 1.228 8 8 0 0 0-.68.47 6 6 0 0 0-.828.735h-.002a8.1 8.1 0 0 0-2.401-.75zm15.482 13.389-1.217 1.154a.6.6 0 0 1-.457.17.62.62 0 0 1-.437-.206L19 20.983c-.666-.75-1.49-1.899-2.533-3.355-1.577-2.2-3.732-5.204-6.889-9.023a6 6 0 0 1 .607-.516 6 6 0 0 1 .742-.502c1.837 2.208 4.103 4.654 6.122 6.827 2.118 2.28 3.947 4.25 4.848 5.468a.6.6 0 0 1-.069.79z"/><path fill="none" d="M0 0h24v24H0z"/></svg>