<?xml version="1.0" encoding="UTF-8"?><svg id="icons" xmlns="http://www.w3.org/2000/svg" viewBox="0 0 24 24"><defs><style>.cls-1{fill:none;}</style></defs><rect class="cls-1" width="24" height="24"/><path d="M22.70312,19.28809v-.00098c-.93555-1.2627-2.78125-3.25098-4.91992-5.55273-2.08887-2.24902-4.45703-4.79883-6.3457-7.08887-.41211-.4082-.77246-.91992-.78613-1.11816-.03223-.4502-.11426-.77246-.17383-1.00781-.0166-.06543-.03613-.14258-.04688-.19727.37402-.30078,1.25586-.92773,2.38184-1.1875,1.47656-.33887,3.12891-.40527,3.19824-.40723l1.0918-.04199-1.08691-1.16602-.14746-.03516c-.20508-.04883-2.05664-.47363-4.0498-.47363-3.00977,0-5.4043,1.14258-6.64258,2.21289-.01172.00977-1.18066,1.11523-1.08984,1.91211.05469.50195-.11816.62988-.57812.9707-.14453.10742-.2959.21973-.36914.32617-1.33496-.10938-1.84766.31152-2.77832,1.20215-.20312.19336-.42676.53906-.33984,1.0918.16113,1.03027,1.41797,2.2832,1.80078,2.46875,1.04883.50098,2.27441-.2207,3.36328-1.98535.22559-.36621.75684-.89648,1.19336-.92871.30469,0,1.2832.39258,1.99512.67773.08789.03613.16016.06055.2666.07715.22571.27185.43463.53003.65033.79376.69385.11731,1.33875.37494,1.89618.75903-.50824-.6377-1.03607-1.2926-1.60748-1.98364.11047-.11163.29523-.27661.60687-.51544.27441-.21112.52435-.38031.74255-.5033,1.83679,2.20874,4.10413,4.65497,6.12268,6.82849,2.11719,2.28027,3.94629,4.24902,4.84766,5.46777.17871.24219.14844.58203-.06934.78906l-1.21875,1.15527c-.12012.11523-.28027.19824-.45508.16895-.16699-.00684-.32715-.08203-.4375-.20605l-.7168-.80664c-.66602-.74902-1.49023-1.89941-2.5332-3.35547-.94171-1.31421-2.09613-2.92133-3.54053-4.81085.20032.52496.32275,1.0885.32275,1.68292v.4043c.11255.15131.23163.30957.34009.45648.18011.17255.32489.37146.43378.59222.60321.82489,1.14844,1.58374,1.63141,2.25793,1.10156,1.53711,1.89746,2.64844,2.59766,3.43652l.71777.80762c.29004.3252.70703.52246,1.14355.54102.02246.00098.04395.00098.06641.00098.41504,0,.81934-.16016,1.11816-.44434l1.21875-1.15527c.58301-.55566.66309-1.46191.18555-2.10938ZM9.57715,7.2959c-.38501.2951-.65259.53461-.82849.73657-.00024-.00012-.00037-.00012-.00061-.00024-1.16309-.4668-1.90332-.75-2.40137-.75h-.00391c-.94238.06641-1.70703.91211-2.00977,1.40234-.57129.92871-1.46387,1.89746-2.0625,1.61816-.24121-.14941-1.20312-1.15918-1.2666-1.76172-.0127-.12695.02441-.16211.04688-.18359.89453-.85547,1.12207-.99609,2.00781-.92871.25195.01758.48047-.05957.66016-.2168.12988-.11328.26074-.20996.38379-.30176.5127-.37988,1.09375-.80957.97852-1.86328.01855-.20508.47754-.83105.75-1.06836,1.05078-.90723,3.24902-1.96777,5.9873-1.96777.42285,0,.83887.02051,1.23242.05176-.15527.03027-.30957.0625-.46289.09766-1.39062.32031-2.4541,1.10938-2.84766,1.43457-.43652.36133-.32324.80957-.23242,1.16992.05371.21094.12012.47266.14551.83496.02997.41327.328.87714.60608,1.2265-.21332.13129-.43866.28326-.68225.46979ZM12.125,16h-.125v-1.5c0-1.92969-1.57031-3.5-3.5-3.5s-3.5,1.57031-3.5,3.5v1.5h-.125c-.48151,0-.875.39343-.875.875v5.25c0,.48151.39349.875.875.875h7.25c.48157,0,.875-.39349.875-.875v-5.25c0-.48157-.39343-.875-.875-.875ZM6,14.5c0-1.37842,1.12158-2.5,2.5-2.5s2.5,1.12158,2.5,2.5v1.5h-1v-1.5c0-.82739-.67261-1.5-1.5-1.5s-1.5.67261-1.5,1.5v1.5h-1v-1.5ZM9,14.5v1.5h-1v-1.5c0-.27539.22461-.5.5-.5s.5.22461.5.5ZM12,22h-7v-5h7v5ZM9,19h1v1h-1v1h-1v-3h1v1Z"/></svg>