<?xml version="1.0" encoding="UTF-8"?><svg id="icons" xmlns="http://www.w3.org/2000/svg" viewBox="0 0 16 16"><defs><style>.cls-1{fill:none;}</style></defs><path d="M15.48438,13.3125c-.15918-.22656-2.65723-2.8653-2.68311-2.89362-.84277-.88916-2.30371-2.37256-3.32666-3.37695-.55713-.54639-1.3125-1.42627-1.84912-2.06982-.22363-.28418-.479-.7041-.48975-.85645-.01855-.25342-.0835-.55957-.13428-.77051.26172-.20801.80615-.58398,1.49902-.74512.98584-.23096,2.08008-.271,2.09082-.271l.86133-.02979-.81152-.89551-.11914-.0293c-.09033-.02197-2.24219-.53857-3.979-.21143-1.2876.24219-2.3667.71826-3.12109,1.37695-.16113.14258-.79395.82227-.73877,1.32861.00977.08936.00439.2793-.08545.3623-.12988.12012-.34033.27832-.48584.38379-.25342-.07275-.64258-.14648-.92529-.02295-.30566.13281-.86719.61426-.97656.70947l-.0918.0791-.03174.11719c-.09863.35889-.11133.63086-.03906.80811.06836.16406.26025.53418.43018.7793.07959.11523.58838.77686.91797.93652.26611.13037.4668.1167.61523.10254.21289-.01465.45557-.13428.76221-.3584.08887-.08691.62744-.70947.85889-1.08887.18018-.29541.51562-.56689.71729-.58105.18457.00293.89062.25879,1.47607.51904.03479.04034.08301.09619.12146.14069.01819-.00031.0351-.00537.05334-.00537.61383,0,1.18213.18097,1.67242.47791-.29175-.34021-.58929-.68616-.88837-1.03278.05225-.04468.1073-.09082.17981-.14685.06787-.05322.10925-.08105.16132-.11877.52753.62402,1.15314,1.33923,1.64923,1.82629,1.01367.99512,2.46387,2.4668,3.2998,3.35059,1.83203,1.94092,2.50732,2.67633,2.61279,2.80817l.09082.10498c.04102.05713.0332.20361-.25781.49463-.43848.43799-.58984.45703-.5957.45752-.00195,0-.01953-.00146-.05957-.01465-.19141-.08154-.66406-.70996-.86621-.97852l-.46582-.59766c-.75098-.95801-1.89502-2.43317-2.3042-3.05133-.16827-.25403-.62018-.81262-1.21082-1.51776.14587.36902.2323.76801.2323,1.18823v.02539c.6123.35645,1,1.0166,1,1.72461v.31012c.49103.65021,1.0625,1.38464,1.49512,1.93597.22266.28516.38916.49707.45459.58398.49707.66016.91406,1.17969,1.354,1.32715.12744.04199.24951.06445.37109.06445.39551,0,.7832-.23145,1.30322-.75098.97607-.97754.50439-1.66016.25635-1.9082ZM6.37988,2.56244l-.49902.39648.14844.62012c.04102.16699.09473.40918.10938.60986.02136.30341.19513.64581.38123.94141-.05103.0376-.10516.07806-.16931.12793-.17578.13562-.28943.23804-.38422.32928-.47351-.20087-1.20697-.48535-1.60114-.49188-.79004.05176-1.36035.68994-1.58691,1.05908-.14746.24316-.51855.6875-.66797.85547-.14941.10254-.21094.12207-.21387.12305-.15527-.07568-.47363-.44141-.5957-.61572-.10547-.15283-.23145-.38672-.29785-.52344.00195-.01562.00488-.03613.00879-.06201.25781-.21436.49316-.38477.57812-.42529-.00684.01855.08691.02344.24512.06885l.4668.13428.39355-.28369c.17578-.12646.42578-.31738.58105-.46094.44922-.41504.4209-1.02734.40137-1.20557.0293-.02979.2627-.34033.4082-.47168.61328-.53613,1.5293-.93262,2.6416-1.14209.1123-.02148.23145-.03906.35547-.05273-.30469.16943-.54492.34326-.70312.46924ZM8.25,11h-.25v-1c0-1.10254-.89746-2-2-2s-1.99.89746-1.99,2l-.01,1h-.25c-.41309,0-.75.33691-.75.75v3.5c0,.41309.33691.75.75.75h4.5c.41309,0,.75-.33691.75-.75v-3.5c0-.41309-.33691-.75-.75-.75ZM5,10c0-.55176.44824-1,1-1s1,.44824,1,1v1h-2v-1ZM8,15h-4v-3h4v3ZM7,14h-2v-1h2v1Z"/><rect class="cls-1" width="16" height="16"/></svg>