<svg xmlns="http://www.w3.org/2000/svg" viewBox="0 0 16 16"><path d="m10.591 2.33.862-.03-.812-.896-.119-.03a11.1 11.1 0 0 0-3.979-.21A6.6 6.6 0 0 0 3.422 2.54c-.161.143-.794.822-.739 1.329a.5.5 0 0 1-.085.362 6 6 0 0 1-.486.384 1.5 1.5 0 0 0-.925-.023 5.7 5.7 0 0 0-.977.71l-.092.078-.032.118a1.34 1.34 0 0 0-.039.808 5.3 5.3 0 0 0 .43.779 3.9 3.9 0 0 0 .919.936 1.05 1.05 0 0 0 .615.103 1.57 1.57 0 0 0 .762-.358 9 9 0 0 0 .859-1.09 1.25 1.25 0 0 1 .717-.58 7 7 0 0 1 1.476.519c.927 1.073 3.192 3.697 3.57 4.267.434.656 1.685 2.252 2.432 3.204.222.285.389.497.454.584a3.65 3.65 0 0 0 1.354 1.327 1.2 1.2 0 0 0 .371.065 1.96 1.96 0 0 0 1.304-.751c.976-.978.504-1.66.256-1.909-.16-.226-2.739-2.955-2.765-2.983-.843-.89-2.303-2.373-3.326-3.377-.558-.546-1.313-1.426-1.85-2.07a2.7 2.7 0 0 1-.49-.856 5 5 0 0 0-.134-.77 3.9 3.9 0 0 1 1.5-.746 12.5 12.5 0 0 1 2.09-.27m-3.466 3.6c.528.624 1.153 1.339 1.65 1.826 1.013.995 2.463 2.467 3.3 3.35 1.831 1.941 2.588 2.767 2.694 2.898l.09.105c.041.058.034.204-.257.495-.439.438-.59.457-.596.458a.3.3 0 0 1-.06-.015 5 5 0 0 1-.866-.979l-.466-.597c-.75-.958-1.976-2.523-2.385-3.141-.35-.528-1.909-2.355-3.445-4.135.052-.044.107-.09.18-.147.068-.053.11-.08.161-.118M6.38 2.563l-.5.396.15.62a4 4 0 0 1 .109.61 2.2 2.2 0 0 0 .38.941l-.168.128a4 4 0 0 0-.385.33 5.8 5.8 0 0 0-1.6-.492 2.19 2.19 0 0 0-1.588 1.059 8 8 0 0 1-.668.855 1 1 0 0 1-.214.123 2.7 2.7 0 0 1-.595-.615 5 5 0 0 1-.298-.524l.009-.062a4.3 4.3 0 0 1 .578-.425c-.007.018.087.023.245.069l.467.134.393-.284a7 7 0 0 0 .581-.46 1.46 1.46 0 0 0 .402-1.206 6 6 0 0 1 .408-.472 5.6 5.6 0 0 1 2.642-1.142q.168-.032.355-.053a5 5 0 0 0-.703.47"/><path fill="none" d="M0 0h16v16H0z"/></svg>