<?xml version="1.0" encoding="UTF-8"?><svg id="icons" xmlns="http://www.w3.org/2000/svg" viewBox="0 0 32 32"><defs><style>.cls-1{fill:none;}</style></defs><rect class="cls-1" width="32" height="32"/><path d="M29.63965,25.46191c-1.18555-1.62012-3.53516-4.17676-6.25488-7.1377-2.65723-2.89258-5.66992-6.1709-8.06445-9.10742-.4834-.48242-1.02051-1.20605-1.04395-1.53223-.04004-.56543-.1416-.97266-.21582-1.27051-.03613-.14355-.08105-.32227-.0791-.34766.43555-.36523,1.61523-1.25293,3.15234-1.61035,1.87402-.43555,4.00488-.52441,4.09473-.52734l1.08008-.04297-1.13965-1.23926-.14844-.03516c-.42578-.10156-2.66895-.60547-5.12305-.60547-3.79199,0-6.80664,1.45215-8.36621,2.81348-.22559.19922-1.43359,1.47852-1.33789,2.33496.07812.73047-.21191.94727-.79199,1.38184-.18066.13477-.37012.27734-.55859.44531-1.46875-.12695-1.91992.25098-3.01367,1.15918l-.38965.32129-.0957.10352c-.11523.16797-.47656.75391-.27637,1.24121.59473,1.43457,1.77246,2.77246,2.29395,3.02832,1.04199.50391,1.91602-.12305,2.40332-.4834.11328-.11719,1.1377-1.29785,1.57715-2.01855.28223-.46191.98535-1.21289,1.63281-1.25977.41602,0,1.67383.50977,2.58789.88086.11133.0459.20215.07715.2793.10449.0459.01562.10156.03516.11328.03516h.00098c4.10742,5.00293,6.89453,8.93555,8.92969,11.80664,1.40137,1.97656,2.41309,3.4043,3.30078,4.41309l.91113,1.03711c.34473.3916.84082.61421,1.36133.63667.02734.00098.05371.00098.08105.00098.49219,0,.97363-.17671,1.33203-.51949l1.54688-1.48535c.69238-.66406.78809-1.74805.2207-2.52148ZM12.05859,11.02734l-.02881.03461c-.03033-.01135-.05176-.01801-.0874-.03265-1.4209-.57715-2.39551-.95508-3-.95508h-.00293c-1.14551.08105-2.0791,1.12988-2.45117,1.7373-.38574.63281-1.34277,1.74023-1.37598,1.78711-.59668.43066-.9375.51758-1.3125.33789-.23535-.12207-1.28125-1.24023-1.79199-2.44531.00098-.03906.04004-.16602.125-.30566l.33398-.27539c1.04492-.86621,1.23535-1.02344,2.29688-.93164.28223.02051.53906-.06836.74023-.24805.16797-.14844.33691-.27441.49707-.39453.62109-.46484,1.32617-.99219,1.18652-2.28613-.00391-.26562.61426-1.13477,1.00391-1.47852,1.35547-1.18359,4.1875-2.56543,7.70605-2.56543.93066,0,1.84082.0791,2.61914.17773-.52148.07617-1.07227.17383-1.60938.29785-1.74707.40723-3.07715,1.40723-3.56836,1.81738-.48633.40723-.36035.91211-.24902,1.35742.06934.27637.15527.62012.18848,1.09961.03979.54901.47345,1.1803.84229,1.62512-.3031.17859-.63452.40369-.99365.68347-.50391.38965-.85254.7041-1.06836.96289ZM28.72656,27.26172l-1.54688,1.48535c-.18164.17383-.44727.27051-.67773.25488-.25-.01074-.48828-.12402-.65332-.31152l-.91211-1.03711c-.85254-.96973-1.90332-2.45312-3.23438-4.33105-2.01929-2.849-4.7807-6.74225-8.83759-11.6955.12549-.14313.37189-.38257.87567-.77228.35645-.27832.67969-.5.96289-.65918l.09021-.05103c2.34448,2.85638,5.26538,6.03748,7.8551,8.85669,2.7002,2.93848,5.03125,5.47656,6.18457,7.05176v.00098c.27148.37012.22656.88965-.10645,1.20801ZM16,21h-1v-2c0-2.20001-1.79999-4-4-4s-3.99,1.79999-3.99,4l-.01,2h-1c-.54999,0-1,.45001-1,1v7c0,.54999.45001,1,1,1h10c.54999,0,1-.45001,1-1v-7c0-.54999-.45001-1-1-1ZM8,19c0-1.6543,1.3457-3,3-3s3,1.3457,3,3v2h-1v-2c0-1.10303-.89697-2-2-2s-2,.89697-2,2v2h-1v-2ZM12,19v2h-2v-2c0-.55127.44873-1,1-1s1,.44873,1,1ZM16,29H6v-7h10v7ZM11,24h1v1h-1v1h1v1h-1v1h-1v-5h1v1Z"/></svg>