<svg xmlns="http://www.w3.org/2000/svg" viewBox="0 0 24 24"><path d="m22.004 9.783-1.297-.773q-.016-.008-.033-.014A8.97 8.97 0 0 0 12 1.2 9.04 9.04 0 0 0 3.213 10H2v1h2.2v-.5A8.07 8.07 0 0 1 12 2.2a7.96 7.96 0 0 1 7.66 6.762c-.03.014-.06.02-.09.036a1.14 1.14 0 0 0-.57.982v4.767a1.13 1.13 0 0 0 .402.854 8.04 8.04 0 0 1-5.483 5.434A1.495 1.495 0 0 0 12.5 20h-1a1.5 1.5 0 0 0 0 3h1a1.5 1.5 0 0 0 1.383-.92 9.03 9.03 0 0 0 6.492-6.236 1.1 1.1 0 0 0 .333-.126l1.284-.766A1.9 1.9 0 0 0 23 13.271v-1.813a1.9 1.9 0 0 0-.996-1.675M11 21.5a.5.5 0 0 1 .5-.5h1a.5.5 0 0 1 0 1h-1a.5.5 0 0 1-.5-.5m11-8.23a.92.92 0 0 1-.499.811l-1.307.778a.13.13 0 0 1-.194-.112V9.98a.13.13 0 0 1 .064-.112.13.13 0 0 1 .066-.017.13.13 0 0 1 .066.018l1.305.778.02.012a.9.9 0 0 1 .479.799z"/><path fill="none" d="M0 0h24v24H0z"/></svg>