<svg xmlns="http://www.w3.org/2000/svg" viewBox="0 0 24 24"><path d="M3.38 23H2.277l1.871-4h1.105zm3.936-2 .936-2H7.147l-.935 2zm2.831-2-1.87 4H9.38l1.871-4zm2.364-1H5.438A3.44 3.44 0 0 1 2 14.562c0-.035.01-.068.01-.103a3.05 3.05 0 0 1 .414-4.848 2.725 2.725 0 0 1 3.337-3.155 3.41 3.41 0 0 1 5.466-.166 5.48 5.48 0 0 1 8.723 2.43 4.755 4.755 0 0 1 2.922 5.537 1.44 1.44 0 0 0-.908-.7c.012-.123.037-.243.037-.368a3.79 3.79 0 0 0-2.418-3.54l-.429-.169-.15-.436a4.494 4.494 0 0 0-8.629.426l-.232.99-.986-.25a2.4 2.4 0 0 0-.594-.084 2.44 2.44 0 0 0-2.206 1.42l-.268.581h-.715A2.437 2.437 0 0 0 5.437 17h7.542zm-9.549-7.546a2.04 2.04 0 0 0-.685 2.757 3.44 3.44 0 0 1 3.16-2.086l.012.001A3.37 3.37 0 0 1 9.4 9.24a5.5 5.5 0 0 1 1.124-2.235 2.42 2.42 0 0 0-3.948.03l-.39.55-.657-.156a1.725 1.725 0 0 0-2.155 1.696 2 2 0 0 0 .033.31l.118.659zM17.72 18h-1.105l-2.339 5h1.105zm3.936-2H20.55l-2.34 5h1.105zm-9.912 6h1.105l3.274-7H15.02z"/><path fill="none" d="M0 0h24v24H0z"/></svg>