<svg xmlns="http://www.w3.org/2000/svg" viewBox="0 0 16 16"><path d="M16 11.132 13.722 16h-1.104l2.339-5H16zM6.917 13H3.5a2.473 2.473 0 0 1-2.465-2.888 2.224 2.224 0 0 1 0-3.758 1.982 1.982 0 0 1 2.428-2.295 2.48 2.48 0 0 1 3.977-.118 3.978 3.978 0 0 1 6.49 2.371 3.5 3.5 0 0 1 2.004 2.544 1.5 1.5 0 0 0-.988.276 2.49 2.49 0 0 0-1.425-1.908l-.484-.218-.092-.522a2.989 2.989 0 0 0-5.857-.17l-.233.992-.987-.252A1.462 1.462 0 0 0 4.03 8.227l-.124.677-.678.125A1.498 1.498 0 0 0 3.5 12h3.885zM3.046 8.046a2.46 2.46 0 0 1 3.069-1.96 4 4 0 0 1 .643-1.397 1.49 1.49 0 0 0-2.48-.052l-.39.551-.657-.156A1 1 0 0 0 3 5a.98.98 0 0 0-.98 1.177l.118.66-.564.36a1.214 1.214 0 0 0-.161 1.943 2.5 2.5 0 0 1 1.633-1.094M9.618 16h1.104l1.404-3h-1.104zm-9 0h1.104l.936-2H1.554zm3 0h1.104l.936-2H4.554zm5.807-6-2.807 6h1.104l2.808-6z"/><path fill="none" d="M0 0h16v16H0z"/></svg>