<svg xmlns="http://www.w3.org/2000/svg" viewBox="0 0 24 24"><path d="M7.417 20H2V8h20v5.509c.371.294.704.587 1 .866V3H1v18h7.162c.034-.057.065-.114.102-.171A24 24 0 0 1 7.417 20M2 4h20v3H2zm12.893 15.844 2.85-2.85a2.392 2.392 0 0 1-2.85 2.85M23.03 17.5l-.234.305c-.132.171-3.273 4.195-7.338 4.195a6.9 6.9 0 0 1-2.303-.418l.715-.715a5.8 5.8 0 0 0 1.59.233c3.055 0 5.657-2.67 6.47-3.6a13.6 13.6 0 0 0-2.486-2.206l.643-.644a13.6 13.6 0 0 1 2.709 2.545zm-11.273 3.45h.003l.663-.662-.003-.002 1.196-1.195.002.002 3.375-3.374-.003-.003 1.165-1.164.003.001.668-.667-.003-.002 1.53-1.53-.707-.707-1.806 1.806A6.9 6.9 0 0 0 15.458 13c-4.06 0-7.312 4.017-7.45 4.188l-.248.312.249.312a14.2 14.2 0 0 0 2.87 2.6l-1.233 1.234.707.707zM8.88 17.5c.85-.937 3.534-3.6 6.58-3.6a5.8 5.8 0 0 1 1.674.258l-1.052 1.053a2.4 2.4 0 0 0-.683-.111 2.403 2.403 0 0 0-2.4 2.4 2.4 2.4 0 0 0 .111.682l-1.584 1.585A14 14 0 0 1 8.88 17.5"/><path fill="none" d="M0 0h24v24H0z"/></svg>