<svg xmlns="http://www.w3.org/2000/svg" viewBox="0 0 24 24"><path d="M2 5h15a1.001 1.001 0 0 0 1-1V2a1.001 1.001 0 0 0-1-1H2a1.001 1.001 0 0 0-1 1v2a1.001 1.001 0 0 0 1 1zm0-3h15l.001 2H2zm0 9h15a1.001 1.001 0 0 0 1-1V8a1.001 1.001 0 0 0-1-1H2a1.001 1.001 0 0 0-1 1v2a1.001 1.001 0 0 0 1 1zm0-3h15l.001 2H2zm3.943 9H2a1.001 1.001 0 0 1-1-1v-2a1.001 1.001 0 0 1 1-1h7.769a15.625 15.625 0 0 0-1.302 1H2v2h4.498l-.202.254a1.964 1.964 0 0 0-.353.746zm8.95 2.844l2.85-2.85a2.392 2.392 0 0 1-2.85 2.85zM23 17.5l-.234.305c-.132.171-3.242 4.195-7.308 4.195a6.92 6.92 0 0 1-2.303-.418l.715-.715a5.834 5.834 0 0 0 1.59.233c3.055 0 5.626-2.67 6.439-3.6a13.139 13.139 0 0 0-2.456-2.206l.644-.644a12.933 12.933 0 0 1 2.679 2.545zm-9.384 1.59l.002.003 3.375-3.374-.003-.002 1.164-1.165.004.001.668-.667-.004-.002 1.531-1.53-.707-.707-1.81 1.81A6.821 6.821 0 0 0 15.458 13c-4.06 0-7.072 4.017-7.209 4.188L8 17.5l.249.312a10.188 10.188 0 0 0 2.635 2.597l-1.238 1.237.707.707 1.405-1.404.002.002.663-.663-.003-.002zM9.121 17.5c.85-.937 3.293-3.6 6.339-3.6a5.778 5.778 0 0 1 1.668.265l-1.047 1.047a2.311 2.311 0 0 0-.682-.112 2.403 2.403 0 0 0-2.4 2.4 2.311 2.311 0 0 0 .112.681l-1.581 1.582A11.184 11.184 0 0 1 9.12 17.5z"/><path fill="none" d="M0 0h24v24H0z"/></svg>