<?xml version="1.0" encoding="UTF-8"?><svg id="icons" xmlns="http://www.w3.org/2000/svg" viewBox="0 0 24 24"><defs><style>.cls-1{fill:none;}</style></defs><path d="M15.92871,10.53125l-1.82965,1.83044-.59906-.59906c-.24414-.24414-.56348-.36621-.88379-.36621-.17279,0-.34247.04218-.50305.11322l-1.04187-1.04187,2.39648-2.39648,2.46094,2.45996ZM7.51587,12.80884l-2.30884-2.30884L13.5,2.20703l8.29297,8.29297-5.92877,5.92877c.2973.3045.52344.55914.67529.73877l6.66754-6.66754L13.5.79297,3.79297,10.5l2.54669,2.54669c.3819-.10425.77258-.18896,1.17621-.23785ZM2.61609,22.64642l1.23358-1.23358c-1.68939-1.14404-2.79291-2.50299-2.87122-2.60089l-.24902-.31201.24902-.31201c.13672-.1709,3.38867-4.18799,7.44928-4.18799.84094,0,1.63892.17798,2.38226.45264l1.80615-1.80615.70703.70703-1.5307,1.5307c.00104.00055.00189.0011.00293.00165l-.66779.66779c-.00104-.00049-.00195-.0011-.00299-.00159l-1.16461,1.16461c.00079.00073.0014.00165.0022.00238l-3.37402,3.37402c-.00073-.00079-.00165-.0014-.00238-.0022l-1.19562,1.19562c.00104.00055.00208.00092.00311.00146l-.6629.6629c-.00098-.00055-.00214-.00098-.00311-.00153l-1.40417,1.40417-.70703-.70703ZM4.49579,20.76672l1.58423-1.58417c-.06519-.21783-.1109-.44391-.1109-.68262,0-1.3233,1.07629-2.40002,2.40002-2.40002.23877,0,.46478.04572.68262.1109l1.05273-1.05273c-.53656-.16168-1.09784-.25818-1.67523-.25818-3.04553,0-5.72955,2.66284-6.57928,3.60004.44623.49213,1.40125,1.45837,2.64581,2.26678ZM15.76562,18.19525c-.0741-.09637-1.11108-1.40491-2.71735-2.53619l-.63391.63391c1.17767.79749,2.06702,1.73132,2.48462,2.20746-.81256.92914-3.41412,3.59949-6.46973,3.59949-.54462,0-1.0769-.08649-1.58942-.23242l-.70575.70575c.72253.25568,1.48834.4267,2.29364.4267,4.06543,0,7.20605-4.02393,7.33789-4.19531l.23438-.30469-.23438-.30469ZM8.36914,20.8999c1.32373,0,2.40002-1.07672,2.40002-2.39996,0-.17395-.02014-.3429-.05597-.5058l-2.84979,2.84979c.1629.03583.33179.05597.50574.05597Z"/><rect class="cls-1" width="24" height="24"/></svg>