<?xml version="1.0" encoding="UTF-8"?><svg id="icons" xmlns="http://www.w3.org/2000/svg" viewBox="0 0 16 16"><defs><style>.cls-1{fill:none;}</style></defs><path d="M4.63495,12.74396c-1.80023-.32422-2.63495-.91016-2.63495-1.26447v-3.57306c.88501.53986,2.3208.90076,4.12201,1.02332.435-.33734.93927-.67181,1.50098-.95428-.04352.00024-.07892.00403-.12299.00403-3.83887,0-5.5-.99316-5.5-1.5v-1.57306c1.10126.67175,3.04523,1.07306,5.5,1.07306s4.39874-.40131,5.5-1.07306v1.57306c0,.24768-.40405.61084-1.25787.91815.21014.04608.422.08911.62231.15393l.43829-.43829c.19531-.19531.45117-.29297.70703-.29297.172,0,.33661.06073.49023.14899v-3.48981c0-1.49512-2.6123-2.47438-6.5-2.47438S1,1.98438,1,3.47949v8c0,1.27112,1.89227,2.1853,4.84711,2.43146-.54401-.45209-.96143-.88464-1.21216-1.16699ZM7.5,1.97949c3.83887,0,5.5.99316,5.5,1.5s-1.66113,1.5-5.5,1.5-5.5-.99316-5.5-1.5,1.66113-1.5,5.5-1.5ZM16,11.43317v.20001l-.13818.17694c-.0957.12292-2.38086,3.00989-5.36182,3.00989-.3418,0-.67279-.04175-.99371-.10913l.71692-.71692c.09271.00684.18237.02777.27631.02777,2.10809,0,3.92688-1.77216,4.57538-2.48755-.25311-.27875-.6875-.71686-1.24304-1.14886l.56873-.56873c.87262.69965,1.41583,1.38129,1.46124,1.43964l.13818.17694ZM13.50964,7.82074l-.89447.89447c-.64386-.28082-1.35657-.46881-2.11517-.46881-2.98145,0-5.25098,2.88788-5.3457,3.01074l-.21387.27606.21387.276c.05841.07574.94476,1.20105,2.31299,2.05396l-.64648.64648.70703.70703,6.68884-6.6889-.70703-.70703ZM11.09387,10.23657c-.18005-.07196-.37787-.112-.58557-.112-.82715,0-1.5.63184-1.5,1.40863,0,.22583.06213.4364.16315.62579l-1.11511,1.11511c-.97772-.57306-1.74377-1.32953-2.11511-1.74091.6449-.71454,2.45795-2.48865,4.55829-2.48865.52203,0,1.02661.11017,1.50067.28564l-.90631.90637Z"/><rect class="cls-1" width="16" height="16"/></svg>