<svg xmlns="http://www.w3.org/2000/svg" viewBox="0 0 16 16"><path d="M10 0H1a1 1 0 0 0-1 1v1a1 1 0 0 0 1 1h9a1 1 0 0 0 1-1V1a1 1 0 0 0-1-1m0 2H1V1h9zm.5 4.747c.046 0 .092.005.137.006A.99.99 0 0 0 11 6V5a1 1 0 0 0-1-1H1a1 1 0 0 0-1 1v1a1 1 0 0 0 1 1h7.742a6.5 6.5 0 0 1 1.758-.253M1 5h9l.001 1H1zm15 6.433v.2l-.138.177c-.096.123-2.381 3.01-5.362 3.01-.033 0-.064-.005-.097-.006l.87-.87a7.7 7.7 0 0 0 3.802-2.41c-.163-.18-.4-.426-.698-.694l.562-.562a9 9 0 0 1 .923.978zm-1.335-3.768L13.28 9.052a5.64 5.64 0 0 0-2.779-.806c-2.981 0-5.191 2.888-5.286 3.011L5 11.533l.214.276a8.9 8.9 0 0 0 2.897 2.41l-1.047 1.047.707.707 7.601-7.6zm-2.992 2.992a1.53 1.53 0 0 0-1.165-.532 1.46 1.46 0 0 0-1.5 1.408 1.38 1.38 0 0 0 .64 1.15l-.928.928A8.4 8.4 0 0 1 6 11.533c.646-.714 2.4-2.488 4.5-2.488a4.74 4.74 0 0 1 2.19.595zM3.548 11H1a1 1 0 0 1-1-1V9a1 1 0 0 1 1-1h5.558a10.6 10.6 0 0 0-1.316 1H1v1h3.25c-.14.161-.24.284-.281.338l-.214.276a1.5 1.5 0 0 0-.207.386"/><path fill="none" d="M0 0h16v16H0z"/></svg>