<svg xmlns="http://www.w3.org/2000/svg" viewBox="0 0 32 32"><path d="M29 8H17V7h12.429a.571.571 0 0 1 .571.571v7.858a.556.556 0 0 1-.035.17 2.453 2.453 0 0 0-.343-.514L29 14.464zM11.992 28.473c-.196-.159-.377-.316-.558-.473H3v-7h6.39c.262-.293.583-.632.955-1H2.57a.571.571 0 0 0-.571.571v7.858A.571.571 0 0 0 2.57 29h8.894zM9.197 5.903L14.293 11H9v1h7V5h-1v5.293L9.904 5.197A7.45 7.45 0 0 0 4.6 3H0v1h4.6a6.458 6.458 0 0 1 4.597 1.904zM30.78 23.2a19.358 19.358 0 0 0-3.693-3.644l-.642.642a19.327 19.327 0 0 1 3.462 3.291l-.005.006.004.006c-.991 1.202-4.816 5.49-9.368 5.545h-.014a8.265 8.265 0 0 1-2.492-.435l-.704.704a9.359 9.359 0 0 0 3.192.632h.022c5.663-.063 10.047-5.895 10.234-6.147l.224-.3zm-2.573-6.7L13.5 31.208l-.707-.707 2.303-2.303a19.734 19.734 0 0 1-4.872-4.398L10 23.5l.22-.301c.185-.254 4.57-6.033 10.233-6.156h.155a10.067 10.067 0 0 1 4.419 1.223l2.473-2.473zM15.748 27.546l1.996-1.996a3.285 3.285 0 0 1-.693-1.993v-.076a3.44 3.44 0 0 1 3.413-3.43h.072a3.477 3.477 0 0 1 2.009.698l1.815-1.815a9.07 9.07 0 0 0-3.765-.99h-.128c-4.552.103-8.395 4.334-9.374 5.545l.005.006-.004.006a19.202 19.202 0 0 0 4.654 4.045zm8.129-4.78l-4.102 4.102a3.547 3.547 0 0 0 .724.083 3.441 3.441 0 0 0 3.45-3.394v-.076a3.305 3.305 0 0 0-.072-.715zM19 15H3V8h6.879l-1-1H2.57a.571.571 0 0 0-.57.571v7.858a.571.571 0 0 0 .571.571h13.574A12.473 12.473 0 0 1 19 15.182z"/><path fill="none" d="M0 0h32v32H0z"/></svg>