<?xml version="1.0" encoding="UTF-8"?><svg id="icons" xmlns="http://www.w3.org/2000/svg" viewBox="0 0 24 24"><defs><style>.cls-1{fill:none;}</style></defs><path d="M3,17.5791v-6.24854c1.64313,1.09882,5.08203,1.66943,8.5,1.66943.10242,0,.20428-.00537.3067-.00641,1.26166-.70715,2.74713-1.24359,4.37128-1.24359.70789,0,1.3844.11163,2.03076.28662l1.27393-1.27393c.24414-.24414.56348-.36621.88379-.36621.22333,0,.43634.08124.63354.19995v-5.59644c0-1.96973-4.7793-3-9.5-3S2,3.03027,2,5v12.5791c0,1.87134,3.47772,2.97827,7.42896,3.26453.02155-.02527.02985-.05707.05371-.08093l.21954-.21954c-.30908-.25934-.58301-.5105-.82623-.74493-3.69397-.35504-5.87598-1.41663-5.87598-2.21912ZM11.5,3c5.5,0,8.5,1.32129,8.5,2s-3,2-8.5,2S3,5.67871,3,5s3-2,8.5-2ZM3,6.41144c1.64313,1.04572,5.08203,1.58856,8.5,1.58856s6.85687-.54285,8.5-1.58856v3.43622c0,.87793-3.31152,2.15234-8.5,2.15234s-8.5-1.27441-8.5-2.15234v-3.43622ZM15.61359,19.84406l2.84991-2.84991c.03528.16339.05591.33209.05591.50586,0,1.32324-1.07629,2.39996-2.40002,2.39996-.17377,0-.34241-.02069-.5058-.05591ZM23.75024,17.5l-.23438.30469c-.13184.17139-3.27246,4.19531-7.33789,4.19531-.80621,0-1.57837-.16235-2.3028-.41754l.71533-.71533c.51276.14508,1.04468.23285,1.58899.23285,3.0556,0,5.65717-2.67035,6.46973-3.59949-.41754-.47601-1.30804-1.40906-2.48553-2.20654l.64355-.64355c1.60785,1.13269,2.63446,2.44849,2.70862,2.54492l.23438.30469ZM14.33612,19.09082c.00073.00079.00128.00183.00201.00262l3.37469-3.37469c-.00079-.00073-.00183-.00128-.00262-.00201l1.16443-1.16443c.00104.00049.00226.00085.0033.00134l.66791-.66791c-.00104-.00055-.00214-.00092-.00317-.00146l1.53076-1.53076-.70703-.70703-1.81024,1.81024c-.74225-.27521-1.53772-.45673-2.37817-.45673-4.06055,0-7.3125,4.01709-7.44922,4.18799l-.24902.31201.24902.31201c.07831.0979,1.18585,1.45361,2.87537,2.59674l-1.23773,1.23773.70703.70703,1.4043-1.4043c.00098.00055.00189.00122.00287.00177l.66296-.66296c-.00104-.00055-.00195-.0011-.00299-.00165l1.19556-1.19556ZM9.60028,17.5c.84973-.93719,3.53369-3.60004,6.57922-3.60004.57611,0,1.13324.10364,1.66864.26477l-1.04718,1.04718c-.2168-.06653-.44269-.11194-.68158-.11194-1.32373,0-2.40002,1.07672-2.40002,2.40002,0,.23883.04541.46478.11194.68158l-1.5813,1.5813c-1.245-.80762-2.20349-1.77081-2.64972-2.26288Z"/><rect class="cls-1" width="24" height="24"/></svg>