<svg xmlns="http://www.w3.org/2000/svg" viewBox="0 0 32 32"><path d="M30.5 14.492l-1.507.885-.538-.538c-.072-.072-.162-.11-.245-.163l.312-.183-1.792-1.05.989-.58 2.781 1.63zm-1.19 5.699l1.19-.699-2.129-1.247-.647.647c.242.178.468.358.69.538l.108.063-.015.01c.284.231.553.462.802.688zM5.27 18.444l-.989-.58L1.5 19.491l7.364 4.32a1 1 0 0 1 .142-.902l.089-.121-5.617-3.296 1.792-1.05zm9.965-.893L1.5 9.492 16 1l14.5 8.492-11.569 6.788c-1.33.216-2.572.681-3.696 1.27zM3.478 9.493L16 16.841l12.522-7.348L16 2.16 3.478 9.493zm8.708 10.11l-8.708-5.11 1.792-1.05-.989-.58-2.781 1.63 9.892 5.803c.247-.226.511-.458.794-.693zm8.307 7.308c2.518-.021 3.618-2.182 3.319-4.081l-4.009 4.008c.219.041.445.071.69.073zm6.55-7.312l-.634.634c1.367.952 2.59 2.11 3.507 3.255l-.005.006.005.006c-2.134 2.608-5.868 5.391-9.366 5.402-.797-.01-1.632-.207-2.38-.43l-.707.707c.997.35 2.074.613 3.083.624 3.89-.01 8.093-3.12 10.454-6.303-1.01-1.393-2.394-2.78-3.958-3.9zm1.164-3.1L13.5 31.208l-.707-.707 2.388-2.388c-2.08-1.205-3.925-2.92-5.181-4.612 2.258-3.112 6.471-6.314 10.468-6.401 1.501-.013 3.008.496 4.486 1.24l2.546-2.546.707.707zM15.833 27.46l1.934-1.933C16.391 23.528 17.27 20.06 20.46 20c.893-.01 1.594.27 2.134.7l1.698-1.698c-1.268-.597-2.54-1.012-3.81-1.003-4.511.103-8.427 4.278-9.397 5.49l.005.005-.005.006c.617.755 2.397 2.642 4.75 3.96z"/><path fill="none" d="M0 0h32v32H0z"/></svg>