<?xml version="1.0" encoding="UTF-8"?><svg id="icons" xmlns="http://www.w3.org/2000/svg" viewBox="0 0 32 32"><defs><style>.cls-1{fill:none;}</style></defs><rect class="cls-1" width="32" height="32"/><path d="M30.20703,13.5l-7.00977,7.00977c-.21368-.2215-.45056-.45667-.71057-.70349l6.30627-6.30627L18.5,3.20703l-10.29297,10.29297,1.94067,1.94067c-.37555.0871-.74237.1922-1.10229.31177l-2.25244-2.25244L18.5,1.79297l11.70703,11.70703ZM18.08594,14.37891c.375-.375.88379-.58594,1.41406-.58594.33777,0,.6626.09406.95392.25311l.54608-.54608-2.5-2.5-2.5,2.5,1.48242,1.48242.60352-.60352ZM15.84406,22.79755l-4.01965,4.01965c.22772.05054.46289.08057.70502.08264,1.86139-.01587,3.37061-1.53479,3.37061-3.39984,0-.0127-.00006-.02539-.00024-.03802.00031-.0127.00049-.02533.00061-.03802.00226-.21423-.02039-.42261-.05634-.6264ZM19.07495,19.56665l-.63702.63702c1.77496,1.23303,3.08289,2.65369,3.59265,3.28479-.00159.00189-.00323.00385-.00482.00574.00159.00195.00317.00385.00476.0058-.99164,1.20154-4.94037,5.29071-9.49268,5.34503h-.01428c-.80762-.00964-1.59467-.15088-2.35114-.37585l-.71741.71741c.96625.33563,1.99457.54718,3.06464.55902h.02209c5.66339-.06268,10.1712-5.69476,10.35864-5.94678l.22363-.29883-.22046-.30121c-.10413-.14313-1.56256-2.00873-3.82861-3.63214ZM20.2074,16.49957l-14.70782,14.70782-.70703-.70703,2.38611-2.38611c-2.92249-1.70361-4.89532-4.15094-5.01764-4.31543l-.22363-.29883.22046-.30121c.18475-.25397,4.63306-5.93317,10.29547-6.05548.02582-.00018.12897-.00018.15479,0,1.57666.03406,3.05029.50995,4.3725,1.16901l2.51978-2.51978.70703.70703ZM16.31311,18.9798c-1.15063-.53351-2.40515-.90649-3.71838-.93597-.02136-.00018-.04272-.00024-.06403-.00024s-.04266.00006-.06403.00024c-4.55145.10217-8.45691,4.23273-9.43585,5.44464.00159.00189.00323.00385.00482.00574-.00159.00195-.00317.00385-.00476.0058.62347.75537,2.42212,2.64575,4.7984,3.96362l1.99152-1.99152c-.40485-.55804-.65942-1.23126-.65942-1.97211,0-.0127.00006-.02539.00018-.03802-.00024-.0127-.00043-.02533-.00061-.03802-.01959-1.86499,1.47357-3.38386,3.33466-3.41926.01172-.00012.05847-.00012.07019,0,.76093.01447,1.44623.28047,2.00482.7176l1.74249-1.74249Z"/></svg>