<svg xmlns="http://www.w3.org/2000/svg" viewBox="0 0 16 16"><path d="M6.896 8.39L.023 4.522l8-4.5L16 4.523l-4.885 2.761a5.656 5.656 0 0 0-.615-.037 6.02 6.02 0 0 0-1.983.351l5.466-3.075-5.96-3.352-5.96 3.352L7.94 7.828a8.326 8.326 0 0 0-1.043.561zm-2.534 4.029l-.212-.273a.993.993 0 0 1-.201-.562L1.043 9.95l-1.02.573 5.458 3.07a10.196 10.196 0 0 1-1.12-1.174zm1.134-2.964L1.043 6.95l-1.02.573 4.735 2.663c.186-.203.433-.456.738-.731zm9.402.865l-.568.567c.24.222.454.436.616.611-.653.704-2.003 1.958-3.563 2.336l-.917.918.034.002c3.038 0 5.5-3.254 5.5-3.254s-.414-.541-1.102-1.18zm.474-1.948l-7.601 7.601-.707-.707 1.114-1.113C6.302 13.213 5 11.5 5 11.5s2.462-3.254 5.5-3.254c1.003 0 1.941.358 2.751.833l1.414-1.414.707.707zm-2.708 1.294c-.66-.36-1.394-.62-2.164-.62-1.938 0-3.679 1.62-4.447 2.454.53.575 1.528 1.515 2.73 2.048l.898-.898a1.385 1.385 0 0 1-.635-1.15c0-.777.67-1.409 1.492-1.409.473 0 .89.213 1.163.538l.963-.963z"/><path fill="none" d="M0 0h16v16H0z"/></svg>