<?xml version="1.0" encoding="UTF-8"?><svg id="icons" xmlns="http://www.w3.org/2000/svg" viewBox="0 0 24 24"><defs><style>.cls-1{fill:none;}</style></defs><path d="M7.3446,15.95728l-.60474.60529c-.45544-.32648-.99127-.52411-1.56409-.55768-.05963-.00385-.1167.00647-.17578.00616v-8.01105c1.30194,0,2.40161-.8385,2.81573-2h8.36859c.09369.26276.21655.50989.37573.73322l-2.08545,2.0874c.32233-.04211.64899-.07068.98352-.07068.15869,0,.31006.02417.46564.03485l1.34332-1.3446c.37701.26855.81708.45245,1.29382.52435l.2019-.2019c.24414-.24414.56348-.36621.88379-.36621.25732,0,.5036.10065.72119.25818.96454-.49939,1.6322-1.49548,1.6322-2.6546,0-1.6543-1.3457-3-3-3s-3,1.3457-3,3h-8c0-1.6543-1.3457-3-3-3s-3,1.3457-3,3c0,1.30194.8385,2.40155,2,2.81567v8.35272c-.36133.12836-.69751.32654-.99316.58942-.59961.53223-.95508,1.2666-1.00195,2.06641s.21973,1.57031.75293,2.16895c.53223.59961,1.2666.95508,2.06641,1.00195.06055.00391.12012.00586.17969.00586.73535,0,1.43555-.2666,1.98926-.75879.59961-.53223.95508-1.2666,1.00195-2.06641.04028-.68695-.16333-1.34515-.55579-1.89856l.59607-.59668c-.28784-.28326-.51965-.53088-.6908-.72327ZM19,3c1.10254,0,2,.89746,2,2s-.89746,2-2,2-2-.89746-2-2,.89746-2,2-2ZM14.89368,16.84406l2.84991-2.84991c.03522.16339.05591.33203.05591.5058,0,1.3233-1.07623,2.40002-2.39996,2.40002-.17383,0-.34247-.02069-.50586-.05591ZM23.0304,14.49994l-.23438.30469c-.13184.17139-3.27246,4.19531-7.33789,4.19531-.80621,0-1.57837-.16235-2.3028-.41754l.71533-.71533c.51282.14508,1.04468.23285,1.58899.23285,3.05554,0,5.6571-2.67035,6.46973-3.59949-.41754-.47601-1.30811-1.40906-2.4856-2.20648l.64362-.64362c1.60785,1.13269,2.63446,2.44849,2.70862,2.54492l.23438.30469ZM13.61627,16.0907c.00073.00079.00128.00183.00201.00262l3.37463-3.37463c-.00079-.00073-.00183-.00128-.00262-.00201l1.16443-1.16443c.00104.00049.00226.00085.0033.00134l.66791-.66791c-.00104-.00055-.00214-.00092-.00317-.00146l1.53076-1.53076-.70703-.70703-1.81024,1.81024c-.74225-.27521-1.53766-.45673-2.37811-.45673-4.06055,0-7.31256,4.01709-7.44928,4.18799l-.24902.31201.24902.31201c.07831.0979,1.18585,1.45361,2.87537,2.59674l-1.23773,1.23773.70703.70703,1.4043-1.4043c.00098.00055.00189.00122.00287.00177l.66296-.66296c-.00104-.00055-.00195-.0011-.00299-.00165l1.19562-1.19562ZM11.53009,16.76282c-1.245-.80762-2.20349-1.77081-2.64972-2.26288.84979-.93719,3.53369-3.60004,6.57928-3.60004.57611,0,1.13318.10364,1.66858.26477l-1.04718,1.04718c-.21674-.06653-.44269-.11194-.68152-.11194-1.32379,0-2.40002,1.07672-2.40002,2.40002,0,.23883.04541.46478.11194.68152l-1.58136,1.58136Z"/><rect class="cls-1" width="24" height="24"/></svg>