<svg xmlns="http://www.w3.org/2000/svg" viewBox="0 0 16 16"><path d="M4.635 12.744C2.835 12.42 2 11.834 2 11.479V7.906c.885.54 2.32.901 4.122 1.024.435-.338.94-.672 1.501-.955-.044 0-.079.005-.123.005-3.839 0-5.5-.994-5.5-1.5V4.906c1.101.672 3.045 1.074 5.5 1.074s4.399-.402 5.5-1.074V6.48c0 .247-.404.61-1.258.918.21.046.422.089.622.154l.439-.439a1 1 0 0 1 .707-.293c.172 0 .336.061.49.15V3.48c0-1.496-2.612-2.475-6.5-2.475S1 1.985 1 3.48v8c0 1.272 1.892 2.186 4.847 2.432a11.4 11.4 0 0 1-1.212-1.167zM7.5 1.979c3.839 0 5.5.994 5.5 1.5s-1.661 1.5-5.5 1.5S2 3.986 2 3.48s1.661-1.5 5.5-1.5zm8.5 9.454v.2l-.138.177c-.096.123-2.381 3.01-5.362 3.01-.342 0-.673-.042-.994-.11l.717-.716c.093.007.183.028.277.028 2.108 0 3.926-1.772 4.575-2.488a10 10 0 0 0-1.243-1.149l.569-.568a9.7 9.7 0 0 1 1.46 1.44zm-2.49-3.612-.895.894c-.644-.28-1.356-.469-2.115-.469-2.981 0-5.251 2.888-5.346 3.011l-.214.276.214.276a9.7 9.7 0 0 0 2.313 2.054l-.646.647.707.707 6.689-6.69zm-2.416 2.416a1.6 1.6 0 0 0-.586-.112c-.827 0-1.5.631-1.5 1.408 0 .226.062.437.163.626l-1.115 1.115c-.977-.573-1.743-1.33-2.115-1.74.645-.715 2.458-2.49 4.559-2.49.522 0 1.026.11 1.5.286z"/><path fill="none" d="M0 0h16v16H0z"/></svg>