<?xml version="1.0" encoding="UTF-8"?><svg id="icons" xmlns="http://www.w3.org/2000/svg" viewBox="0 0 16 16"><defs><style>.cls-1{fill:none;}</style></defs><path d="M4.7915,11.91553c-.25409-.2735-.40533-.46448-.4292-.49561l-.21289-.27441c-.00031-.00037-.00037-.00092-.00067-.00128l-.13928.13928c-.29749-.17572-.63977-.28351-1.00946-.28351v-6c1.10254,0,2-.89746,2-2h6c0,.36969.10779.71198.28351,1.00946l-2.50311,2.50311c.52808-.15967,1.08881-.25958,1.6781-.26404l1.53204-1.53204c.29749.17572.63977.28351,1.00946.28351,1.10254,0,2-.89746,2-2s-.89746-2-2-2c-.73669,0-1.37469.40521-1.72168,1h-6.55664c-.34698-.59479-.98499-1-1.72168-1-1.10254,0-1.99.89746-1.99,2,0,.73669.39521,1.37469.99,1.72168v6.55664c-.59479.34698-1,.98499-1,1.72168,0,1.10254.89746,2,2,2s2-.89746,2-2c0-.36969-.10779-.71198-.28351-1.00946l.07501-.07501ZM12,2.5c0-.27618.22388-.5.5-.5h1c.27612,0,.5.22382.5.5v1c0,.27612-.22388.5-.5.5h-1c-.27612,0-.5-.22388-.5-.5v-1ZM15.99994,10.43323v.20001l-.13818.17694c-.0957.12292-2.38086,3.00983-5.36182,3.00983-.3418,0-.67279-.04175-.99365-.10913l.71686-.71686c.09271.00684.18237.02777.27631.02777,2.10809,0,3.92688-1.77216,4.57538-2.48761-.25311-.27875-.6875-.7168-1.24304-1.1488l.56879-.56879c.87262.69965,1.41577,1.38135,1.46118,1.4397l.13818.17694ZM13.50964,6.8208l-.89447.89447c-.64386-.28082-1.35663-.46881-2.11523-.46881-2.98145,0-5.25092,2.88782-5.34564,3.01074l-.21387.276.21387.27606c.05841.07574.94464,1.20105,2.31293,2.05396l-.64648.64648.70703.70703,6.6889-6.6889-.70703-.70703ZM11.09381,9.23663c-.18005-.07196-.37787-.112-.58557-.112-.82715,0-1.5.63184-1.5,1.40857,0,.22589.06219.4364.16321.62579l-1.11517,1.11517c-.97772-.57306-1.74371-1.32959-2.11505-1.74097.6449-.71448,2.45789-2.48859,4.55823-2.48859.52209,0,1.02673.11017,1.50073.28564l-.90637.90637Z"/><rect class="cls-1" width="16" height="16"/></svg>