<svg xmlns="http://www.w3.org/2000/svg" viewBox="0 0 24 24"><path d="M7.804 22H1.431A.43.43 0 0 1 1 21.57v-6.14a.43.43 0 0 1 .43-.43h5.963a13.59 13.59 0 0 0-.848.941L6.498 16H2v5h6.162a2.323 2.323 0 0 0-.358 1zM7.591 4.325L11.251 8H7v1h6V3h-1v4.428L8.304 3.652A5.5 5.5 0 0 0 4.374 2H0v1h4.403a4.499 4.499 0 0 1 3.188 1.325zM15.4 19.9a2.391 2.391 0 0 0 2.343-2.906l-2.85 2.85a2.395 2.395 0 0 0 .507.056zm7.366-2.705a12.933 12.933 0 0 0-2.679-2.545l-.644.644A13.138 13.138 0 0 1 21.9 17.5c-.813.93-3.384 3.6-6.44 3.6a5.833 5.833 0 0 1-1.589-.233l-.715.715a6.921 6.921 0 0 0 2.303.418c4.066 0 7.176-4.024 7.308-4.195L23 17.5zM12.42 20.286l.003.002-.663.663-.003-.002-1.404 1.405-.707-.707 1.238-1.238a10.188 10.188 0 0 1-2.635-2.597L8 17.5l.249-.312c.137-.17 3.149-4.188 7.21-4.188a6.821 6.821 0 0 1 2.377.457l1.81-1.81.707.706-1.53 1.531.003.002-.668.667h-.004l-1.164 1.163.003.002-3.375 3.375-.002-.002zm-.89-.523l1.581-1.582A2.311 2.311 0 0 1 13 17.5a2.403 2.403 0 0 1 2.4-2.4 2.311 2.311 0 0 1 .68.112l1.048-1.047a5.778 5.778 0 0 0-1.668-.265c-3.046 0-5.49 2.663-6.34 3.6a16.587 16.587 0 0 0 2.41 2.263zM22.57 5H14v1h8v6h.57a.43.43 0 0 0 .43-.43V5.43a.43.43 0 0 0-.43-.43zM14 11H2V6h5.837l-.954-.954c-.017-.017-.038-.03-.056-.046H1.431A.43.43 0 0 0 1 5.43v6.14a.43.43 0 0 0 .43.43h10.046A10.154 10.154 0 0 1 14 11.164z"/><path fill="none" d="M0 0h24v24H0z"/></svg>