<svg xmlns="http://www.w3.org/2000/svg" viewBox="0 0 24 24"><path d="m7.345 15.957-.605.606a2.97 2.97 0 0 0-1.564-.558c-.06-.004-.117.006-.176.006V8a2.995 2.995 0 0 0 2.816-2h8.368q.14.397.376.733l-2.085 2.088a8 8 0 0 1 .983-.071c.159 0 .31.024.466.035l1.343-1.345c.377.269.817.453 1.294.525l.202-.202c.244-.244.563-.367.884-.367.257 0 .503.101.72.259A2.99 2.99 0 0 0 22 5c0-1.654-1.346-3-3-3s-3 1.346-3 3H8c0-1.654-1.346-3-3-3S2 3.346 2 5c0 1.302.838 2.402 2 2.816v8.352a3 3 0 0 0-.993.59c-.6.532-.955 1.266-1.002 2.066s.22 1.57.753 2.17A2.98 2.98 0 0 0 5.004 22c.735 0 1.435-.267 1.99-.759a2.98 2.98 0 0 0 1.001-2.066 2.97 2.97 0 0 0-.556-1.899l.596-.596a15 15 0 0 1-.69-.724zM19 3c1.103 0 2 .897 2 2s-.897 2-2 2-2-.897-2-2 .897-2 2-2m-4.106 13.844 2.85-2.85q.054.246.056.506c0 1.323-1.077 2.4-2.4 2.4q-.261-.001-.506-.056M23.03 14.5l-.234.305c-.132.171-3.272 4.195-7.338 4.195a6.9 6.9 0 0 1-2.303-.418l.716-.715a5.8 5.8 0 0 0 1.589.233c3.055 0 5.657-2.67 6.47-3.6a13.6 13.6 0 0 0-2.486-2.206l.643-.644a13.6 13.6 0 0 1 2.709 2.545zm-9.414 1.59.002.003 3.375-3.374-.003-.002 1.165-1.165.003.002.668-.668-.003-.002 1.53-1.53-.707-.708-1.81 1.81C17.094 10.182 16.3 10 15.458 10c-4.06 0-7.312 4.017-7.45 4.188l-.248.312.249.312a14.3 14.3 0 0 0 2.875 2.597l-1.237 1.237.707.707 1.404-1.404.003.002.663-.663-.003-.002 1.195-1.195zm-2.086.673A14 14 0 0 1 8.88 14.5c.85-.937 3.534-3.6 6.58-3.6.576 0 1.133.104 1.668.265l-1.047 1.047a2.3 2.3 0 0 0-.681-.112 2.403 2.403 0 0 0-2.4 2.4c0 .239.045.465.111.681z"/><path fill="none" d="M0 0h24v24H0z"/></svg>