<svg xmlns="http://www.w3.org/2000/svg" viewBox="0 0 16 16"><path d="M10 0H1a1.001 1.001 0 0 0-1 1v1a1.001 1.001 0 0 0 1 1h9a1.001 1.001 0 0 0 1-1V1a1.001 1.001 0 0 0-1-1zm0 2H1V1h9l.001 1zm.5 4.747c.046 0 .092.005.137.006A.985.985 0 0 0 11 6V5a1.001 1.001 0 0 0-1-1H1a1.001 1.001 0 0 0-1 1v1a1.001 1.001 0 0 0 1 1h7.742a6.461 6.461 0 0 1 1.758-.253zM1 5h9l.001 1H1zm15 6.433v.2l-.138.177c-.096.123-2.381 3.01-5.362 3.01-.033 0-.064-.005-.097-.006l.87-.87a7.7 7.7 0 0 0 3.802-2.41c-.163-.18-.4-.426-.698-.694l.562-.562a9.041 9.041 0 0 1 .923.978zm-1.335-3.768L13.28 9.052a5.642 5.642 0 0 0-2.779-.806c-2.981 0-5.191 2.888-5.286 3.011L5 11.533l.214.276a8.863 8.863 0 0 0 2.897 2.41l-1.047 1.047.707.707 7.601-7.6zm-2.992 2.992a1.528 1.528 0 0 0-1.165-.532 1.458 1.458 0 0 0-1.5 1.408 1.383 1.383 0 0 0 .64 1.15l-.928.928A8.37 8.37 0 0 1 6 11.533c.646-.714 2.4-2.488 4.5-2.488a4.743 4.743 0 0 1 2.19.595zM3.548 11H1a1.001 1.001 0 0 1-1-1V9a1.001 1.001 0 0 1 1-1h5.558a10.633 10.633 0 0 0-1.316 1H1v1h3.25c-.14.161-.24.284-.281.338l-.214.276a1.486 1.486 0 0 0-.207.386z"/><path fill="none" d="M0 0h16v16H0z"/></svg>