<?xml version="1.0" encoding="UTF-8"?><svg id="icons" xmlns="http://www.w3.org/2000/svg" viewBox="0 0 32 32"><defs><style>.cls-1{fill:none;}</style></defs><path d="M23.90045,23.42395c-.00018.0127-.00037.02533-.00061.03802.00012.01263.00018.02533.00018.03802,0,1.86505-1.50922,3.38397-3.37061,3.39984-.24213-.00208-.47729-.0321-.70502-.08264l4.01965-4.01965c.03595.2038.05865.41217.0564.6264ZM9.77026,26.36121c.34924.35962.76758.76251,1.25171,1.18958-4.38165-.55743-8.01197-1.94271-8.01197-4.06148l-.01-16.3936v-.0957c0-2.5332,6.44043-3.90039,12.5-3.90039s12.5,1.36719,12.5,3.90039v6.86151c-.16412-.04236-.3313-.06854-.5-.06854-.17047,0-.32386.02324-.49.06663.00067-.01129,0-.02317,0-.0344l-.01-5.22883c-2.03448,1.50452-6.87335,2.30402-11.5,2.30402s-9.46552-.7995-11.5-2.30402v5.22882c0,1.22949,3.95538,2.91681,10.4613,3.08221-.52039.29419-1.01282.6084-1.47614.93353-3.77124-.2464-7.31891-1.04327-8.98517-2.33813v7.98645c0,1.08014,2.2088,2.24341,5.77026,2.87195ZM4,7c0,1.21094,4.375,2.90039,11.5,2.90039s11.5-1.68945,11.5-2.90039-4.375-2.90039-11.5-2.90039-11.5,1.68945-11.5,2.90039ZM28.2074,16.49957l-14.70776,14.70782-.70703-.70703,2.38611-2.38611c-2.92249-1.70361-4.89539-4.15094-5.0177-4.31543l-.22363-.29883.22046-.30121c.18481-.25397,4.63306-5.93317,10.29547-6.05548.02582-.00018.12897-.00018.15479,0,1.57666.03406,3.05029.50995,4.3725,1.16901l2.51978-2.51978.70703.70703ZM15.82928,27.46368l1.99152-1.99152c-.40485-.55811-.65942-1.23132-.65942-1.97217,0-.0127.00006-.02539.00024-.03802-.00031-.0127-.00049-.02533-.00061-.03802-.01965-1.86499,1.47351-3.3709,3.33459-3.4063.01172-.00012.05847-.00012.07019,0,.76093.01447,1.44629.26751,2.00488.70464l1.74243-1.74249c-1.1507-.53351-2.40515-.90649-3.71838-.93597-.02136-.00018-.04272-.00024-.06403-.00024s-.04266.00006-.06403.00024c-4.55145.10217-8.45691,4.23273-9.43585,5.44464.00159.00189.00323.00385.00482.00574-.00159.00195-.00317.00385-.00476.0058.62347.75537,2.42206,2.64581,4.7984,3.96368ZM30.90356,23.19879c-.10413-.14313-1.5625-2.00873-3.82861-3.63214l-.63702.63702c1.77496,1.23303,3.08289,2.65369,3.59265,3.28479-.00159.00189-.00323.00385-.00482.00574.00159.00195.00317.00385.00476.0058-.99164,1.20154-4.94037,5.29071-9.49268,5.34503h-.01428c-.80762-.00964-1.59467-.15088-2.35114-.37585l-.71741.71741c.96625.33563,1.99457.54718,3.06464.55902h.02209c5.66339-.06268,10.1712-5.69476,10.35864-5.94678l.22363-.29883-.22046-.30121Z"/><rect class="cls-1" width="32" height="32"/></svg>