<?xml version="1.0" encoding="UTF-8"?><svg id="icons" xmlns="http://www.w3.org/2000/svg" viewBox="0 0 16 16"><defs><style>.cls-1{fill:none;}</style></defs><rect class="cls-1" width="16" height="16"/><path d="M8.50964,7.8208l-.89447.89447c-.64386-.28082-1.35663-.46881-2.11523-.46881-2.98145,0-5.15094,2.88782-5.24567,3.01074l-.21387.276.21387.27606c.05841.07574.84467,1.20105,2.21295,2.05396l-.64648.64648.70703.70703,6.6889-6.6889-.70703-.70703ZM6.09381,10.23663c-.18005-.07196-.37787-.112-.58557-.112-.82715,0-1.5.63184-1.5,1.40857,0,.22589.06219.4364.16321.62579l-1.11517,1.11517c-.97772-.57306-1.74371-1.32959-2.11505-1.74097.6449-.71448,2.45789-2.48859,4.55823-2.48859.52209,0,1.02673.11017,1.50073.28564l-.90637.90637ZM16,6.5l-4.25854,4.25854-.09308-.11981c-.04822-.06134-.18494-.22327-.36517-.42194l3.7168-3.7168L9.5,1l-5.5,5.5.79376.79376c-.28558.03583-.5614.09595-.83099.16901l-.96277-.96277L9.5,0l6.5,6.5ZM10.86176,11.25629l.13818.17694v.20001l-.13818.17694c-.0957.12292-2.38086,3.00983-5.36182,3.00983-.3418,0-.67279-.04175-.99365-.10913l.71686-.71686c.09271.00684.18237.02777.27631.02777,2.10809,0,3.92688-1.77216,4.57538-2.48761-.25311-.27875-.6875-.7168-1.24304-1.1488l.56879-.56879c.87262.69965,1.41577,1.38135,1.46118,1.4397ZM9.5,5l1.5,1.5-1.16858,1.16858-.5553-.5553c-.19531-.19531-.45117-.29297-.70703-.29297-.0708,0-.13873.02557-.20825.04053l-.36084-.36084,1.5-1.5Z"/></svg>