<svg xmlns="http://www.w3.org/2000/svg" viewBox="0 0 32 32"><path d="M3.5 8h17A1.5 1.5 0 0 0 22 6.5v-2A1.5 1.5 0 0 0 20.5 3h-17A1.5 1.5 0 0 0 2 4.5v2A1.5 1.5 0 0 0 3.5 8M3 4.5a.5.5 0 0 1 .5-.5h17a.5.5 0 0 1 .5.5v2a.5.5 0 0 1-.5.5h-17a.5.5 0 0 1-.5-.5zM3.5 15h17a1.5 1.5 0 0 0 1.5-1.5v-2a1.5 1.5 0 0 0-1.5-1.5h-17A1.5 1.5 0 0 0 2 11.5v2A1.5 1.5 0 0 0 3.5 15M3 11.5a.5.5 0 0 1 .5-.5h17a.5.5 0 0 1 .5.5v2a.5.5 0 0 1-.5.5h-17a.5.5 0 0 1-.5-.5zm.5 9.5h5.89c-.504.565-.793.946-.833 1H3.5A1.5 1.5 0 0 1 2 20.5v-2A1.5 1.5 0 0 1 3.5 17h10.67a19 19 0 0 0-1.503 1H3.5a.5.5 0 0 0-.5.5v2a.5.5 0 0 0 .5.5m20.45 2.48v.076a3.44 3.44 0 0 1-3.451 3.394 3.6 3.6 0 0 1-.724-.083l4.102-4.102a3.3 3.3 0 0 1 .073.715m7.05.02-.224.299c-.187.252-4.57 6.084-10.234 6.147h-.022a9.4 9.4 0 0 1-3.192-.633l.704-.703a8.3 8.3 0 0 0 2.492.435h.014c4.552-.054 8.377-4.343 9.368-5.545l-.004-.006.005-.006a19.3 19.3 0 0 0-3.462-3.291l.642-.642a19.4 19.4 0 0 1 3.693 3.644zm-3.5-7.707-2.473 2.473a10.1 10.1 0 0 0-4.419-1.223h-.155c-5.662.123-10.048 5.902-10.233 6.156L10 23.5l.224.299a19.7 19.7 0 0 0 4.872 4.398L12.793 30.5l.707.707L28.207 16.5zM11.094 23.5l.004-.006-.005-.006c.98-1.211 4.822-5.442 9.374-5.544h.128a9.1 9.1 0 0 1 3.765.989l-1.816 1.815a3.5 3.5 0 0 0-2.008-.698h-.072a3.44 3.44 0 0 0-3.414 3.43v.076a3.3 3.3 0 0 0 .694 1.993l-1.996 1.996a19.2 19.2 0 0 1-4.654-4.045"/><path fill="none" d="M0 0h32v32H0z"/></svg>