<?xml version="1.0" encoding="UTF-8"?><svg id="icons" xmlns="http://www.w3.org/2000/svg" viewBox="0 0 32 32"><defs><style>.cls-1{fill:none;}</style></defs><path d="M31.12402,19.49994l-.22363.29883c-.18744.25201-4.69525,5.88409-10.35864,5.94684-.00366,0-.00739,0-.01105-.00006-.00366.00006-.00739.00006-.01105.00006-1.07007-.01184-2.09839-.22345-3.06458-.55908l.71735-.71729c.75647.22498,1.54352.36615,2.35114.37579h.01428c4.55231-.05432,8.50098-4.14349,9.49268-5.34509-.00159-.00189-.00317-.00385-.00482-.00574.00165-.00195.00323-.00385.00488-.00574-.50983-.6311-1.81769-2.05176-3.59265-3.28479l.63702-.63702c2.26605,1.62341,3.72443,3.48901,3.82855,3.63214l.22052.30115ZM28.2074,12.49957l-14.70776,14.70782-.70703-.70703,2.38611-2.38611c-2.92255-1.70367-4.89539-4.151-5.0177-4.31549l-.22363-.29883.22052-.30115c.18475-.25397,4.633-5.93317,10.29541-6.05548.02582-.00024.12897-.00024.15479,0,1.57666.03406,3.05029.50995,4.3725,1.16901l2.51978-2.51978.70703.70703ZM15.82928,23.46362l1.99158-1.99152c-.40491-.55804-.65948-1.23126-.65948-1.97217,0-.01263.00006-.02533.00024-.03796-.00031-.0127-.00049-.02533-.00061-.03802-.01965-1.86499,1.47351-3.38615,3.33459-3.42161.01172-.00012.05847-.00012.07019,0,.76093.01447,1.44623.28276,2.00482.71995l1.74249-1.74249c-1.1507-.53357-2.40515-.90656-3.71838-.93604-.02136-.00012-.04272-.00018-.06403-.00018s-.04266.00006-.06403.00018c-4.55145.10223-8.45685,4.23279-9.43585,5.4447.00165.00189.00323.00378.00488.00574-.00165.00189-.00323.00385-.00482.00574.62347.75543,2.42212,2.64581,4.7984,3.96368ZM10.0556,22.65143l-.76227.76227c.43774.58435.69667,1.30176.69667,2.0863,0,1.92969-1.56031,3.5-3.49,3.5s-3.5-1.57031-3.5-3.5c0-1.75848,1.30835-3.20422,3-3.44946v-12.10107c-1.69165-.24524-3-1.69098-3-3.44946,0-1.92969,1.57031-3.5,3.5-3.5,1.75848,0,3.20422,1.30835,3.44946,3h12.10107c.24524-1.69165,1.69098-3,3.44946-3,1.92969,0,3.49,1.57031,3.49,3.5s-1.56031,3.5-3.49,3.5c-.78455,0-1.50195-.26892-2.0863-.70667l-1.90747,1.90747c-.27606-.02826-.55127-.05035-.82361-.05627,0,0-.25781-.00098-.27246-.00098-.09613.00208-.18817.01819-.28357.02283l2.58008-2.58008c-.34222-.45685-.57056-.99628-.65613-1.5863h-12.10107c-.22137,1.52692-1.42255,2.72809-2.94946,2.94946v12.10107c.59003.08557,1.12946.3139,1.5863.65613l.7757-.7757c.19885.21661.42627.45526.6936.72046ZM23,6.5c0,1.37891,1.12109,2.5,2.5,2.5s2.5-1.12109,2.5-2.5-1.12109-2.5-2.5-2.5-2.5,1.12109-2.5,2.5ZM23.84406,18.79755l-4.01959,4.01965c.22772.05054.46283.08051.70496.08258,1.86139-.01581,3.37061-1.53473,3.37061-3.39984,0-.01263-.00006-.02533-.00024-.03796.00031-.0127.00049-.02533.00061-.03802.00226-.21423-.02039-.42267-.05634-.6264Z"/><rect class="cls-1" width="32" height="32"/></svg>