<svg xmlns="http://www.w3.org/2000/svg" viewBox="0 0 24 24"><path d="m23 11.495-.978.578a10 10 0 0 0-.426-.367 2.6 2.6 0 0 0-.45-.273 1.5 1.5 0 0 0-.228-.064h-.099l-.712-.42.983-.582zM10.075 15.7l-7.11-4.205.928-.547-.983-.582L1 11.493l8.3 4.91q.342-.335.775-.704zm-1.847 3.738-.25-.313a1 1 0 0 1-.192-.78l-4.82-2.85.927-.547-.983-.582L1 15.493l7.843 4.64a12 12 0 0 1-.615-.696zM12.001 14 1 7.493 12 1l11 6.495zM2.966 7.494 12 12.838l9.033-5.342L12 2.161 2.965 7.494zm18.105 8.172-.628.628A13.6 13.6 0 0 1 22.93 18.5c-.812.93-3.414 3.6-6.47 3.6a5.7 5.7 0 0 1-1.587-.235l-.703.703c.734.27 1.499.432 2.29.432 2.948 0 5.735-2.152 7.541-4.5a14 14 0 0 0-2.93-2.834M16.399 20.9c1.324 0 2.4-1.077 2.4-2.4q-.001-.261-.056-.506l-2.85 2.85q.246.054.506.056m-5.046 2.454-.707-.708 1.305-1.305C10.836 20.54 9.832 19.543 9 18.5c1.843-2.309 4.48-4.5 7.458-4.5.81 0 1.605.174 2.373.461l1.815-1.815.707.708zm1.199-2.613 1.56-1.56a2.3 2.3 0 0 1-.113-.681c0-1.323 1.077-2.4 2.4-2.4.24 0 .465.045.682.112l1.047-1.047a5.8 5.8 0 0 0-1.668-.265c-3.046 0-5.61 2.663-6.46 3.6.442.487 1.355 1.438 2.552 2.24z"/><path fill="none" d="M0 0h24v24H0z"/></svg>