<svg xmlns="http://www.w3.org/2000/svg" viewBox="0 0 16 16"><path d="M3 4v3h5.742a8.147 8.147 0 0 0-2.184 1H2.5a.5.5 0 0 1-.5-.5v-4a.5.5 0 0 1 .5-.5h2.379l1 1zm12 2.23a1.458 1.458 0 0 1 .726.374L16 6.88V3.5a.5.5 0 0 0-.5-.5H11v1h4zM5.61 2.318L8.294 5H6v1h4V2H9v2.293L6.318 1.611A5.464 5.464 0 0 0 2.428 0H0v1h2.429A4.472 4.472 0 0 1 5.61 2.318zm.163 12.184c-.217-.17-.413-.338-.595-.502H3v-3h.548a1.486 1.486 0 0 1 .207-.386l.214-.276c.042-.054.14-.177.28-.338H2.5a.5.5 0 0 0-.5.5v4a.5.5 0 0 0 .5.5h3.094a1.48 1.48 0 0 1 .18-.498zm10.089-3.246a9.041 9.041 0 0 0-.923-.978l-.562.562c.297.268.535.514.698.694a7.7 7.7 0 0 1-3.802 2.41l-.87.87c.033.001.064.006.097.006 2.981 0 5.266-2.887 5.362-3.01l.138-.177v-.2zm-.49-2.884l-7.6 7.601-.708-.707 1.047-1.047a9.445 9.445 0 0 1-2.957-2.41l-.214-.276.214-.276c.095-.123 2.365-3.01 5.346-3.01a5.642 5.642 0 0 1 2.779.805l1.386-1.387zM12.691 9.64a4.743 4.743 0 0 0-2.191-.595c-2.1 0-3.914 1.774-4.559 2.488a8.742 8.742 0 0 0 2.779 2.078l.927-.928a1.383 1.383 0 0 1-.639-1.15 1.458 1.458 0 0 1 1.5-1.408 1.528 1.528 0 0 1 1.165.532z"/><path fill="none" d="M0 0h16v16H0z"/></svg>