<svg xmlns="http://www.w3.org/2000/svg" viewBox="0 0 24 24"><path d="M2 5h15a1 1 0 0 0 1-1V2a1 1 0 0 0-1-1H2a1 1 0 0 0-1 1v2a1 1 0 0 0 1 1m0-3h15l.001 2H2zm0 9h15a1 1 0 0 0 1-1V8a1 1 0 0 0-1-1H2a1 1 0 0 0-1 1v2a1 1 0 0 0 1 1m0-3h15l.001 2H2zm3.943 9H2a1 1 0 0 1-1-1v-2a1 1 0 0 1 1-1h7.769a16 16 0 0 0-1.302 1H2v2h4.498l-.202.254a2 2 0 0 0-.353.746m8.95 2.844 2.85-2.85a2.392 2.392 0 0 1-2.85 2.85M23 17.5l-.234.305c-.132.171-3.242 4.195-7.308 4.195a6.9 6.9 0 0 1-2.303-.418l.715-.715a5.8 5.8 0 0 0 1.59.233c3.055 0 5.626-2.67 6.439-3.6a13 13 0 0 0-2.456-2.206l.644-.644a13 13 0 0 1 2.679 2.545zm-9.384 1.59.002.003 3.375-3.374-.003-.002 1.164-1.165.004.001.668-.667-.004-.002 1.531-1.53-.707-.707-1.81 1.81A6.8 6.8 0 0 0 15.458 13c-4.06 0-7.072 4.017-7.209 4.188L8 17.5l.249.312a10.2 10.2 0 0 0 2.635 2.597l-1.238 1.237.707.707 1.405-1.404.002.002.663-.663-.003-.002zM9.121 17.5c.85-.937 3.293-3.6 6.339-3.6a5.8 5.8 0 0 1 1.668.265l-1.047 1.047a2.3 2.3 0 0 0-.682-.112 2.403 2.403 0 0 0-2.4 2.4 2.3 2.3 0 0 0 .112.681l-1.581 1.582A11.2 11.2 0 0 1 9.12 17.5z"/><path fill="none" d="M0 0h24v24H0z"/></svg>