<svg xmlns="http://www.w3.org/2000/svg" viewBox="0 0 24 24"><path d="M7.085 2H5v1h1.5A5.7 5.7 0 0 0 6 5.319c0 2.15 1.479 4.294 3.545 6.092a1.54 1.54 0 0 1 .62 1.089 1.54 1.54 0 0 1-.62 1.089C7.479 15.387 6 17.53 6 19.68A5.7 5.7 0 0 0 6.5 22H5v1h15v-1h-1.516A5.6 5.6 0 0 0 19 19.681c0-2.15-1.479-4.294-3.545-6.092a1.54 1.54 0 0 1-.62-1.089 1.54 1.54 0 0 1 .62-1.089C17.521 9.613 19 7.47 19 5.32A5.6 5.6 0 0 0 18.484 3H20V2zm10.292 1A4.65 4.65 0 0 1 18 5.32c0 1.645-1.137 3.54-3.201 5.337a2.43 2.43 0 0 0-.965 1.843 2.44 2.44 0 0 0 .965 1.844c2.064 1.796 3.2 3.691 3.2 5.337A4.65 4.65 0 0 1 17.378 22H7.624A4.7 4.7 0 0 1 7 19.68c0-1.645 1.137-3.54 3.201-5.337a2.43 2.43 0 0 0 .965-1.843 2.44 2.44 0 0 0-.965-1.844C8.137 8.86 7 6.965 7 5.32A4.7 4.7 0 0 1 7.623 3zM8.102 18.925a3.25 3.25 0 0 1 1.35-1.9l2.593-1.722a.82.82 0 0 1 .91 0l2.594 1.722a3.25 3.25 0 0 1 1.35 1.901 3 3 0 0 1 .1.755A3.7 3.7 0 0 1 16.75 21h-8.5A3.7 3.7 0 0 1 8 19.68a3 3 0 0 1 .102-.755"/><path fill="none" d="M0 0h24v24H0z"/></svg>