<svg xmlns="http://www.w3.org/2000/svg" viewBox="0 0 24 24"><path d="M4 10.697c-.346.09-.68.209-1 .356V2h20v17H10.942c.147-.32.266-.654.357-1H22v-2.519l-3.116-3.116-1.833 1.375a1.502 1.502 0 0 1-1.863-.048l-3.26-2.717-1.762 1.762a6.045 6.045 0 0 0-.693-.721l2.069-2.069a.503.503 0 0 1 .677-.03l3.609 3.006a.5.5 0 0 0 .623.016l2.178-1.633c.2-.15.48-.13.657.047L22 14.067V3H4v7.697zM15 6.5a1.5 1.5 0 1 1 3 0 1.5 1.5 0 0 1-3 0zm1 0a.5.5 0 1 0 1.001-.001A.5.5 0 0 0 16 6.5zm-3.989 15.814a.476.476 0 0 1 0 .674l-.017.017a.476.476 0 0 1-.673 0L8.237 19.92a4.359 4.359 0 0 1-2.737.98 4.4 4.4 0 1 1 4.4-4.4 4.358 4.358 0 0 1-.974 2.73l3.085 3.084zM5.501 19.9c1.874 0 3.4-1.525 3.4-3.4s-1.526-3.4-3.4-3.4-3.4 1.525-3.4 3.4 1.525 3.4 3.4 3.4z"/><path fill="none" d="M0 0h24v24H0z"/></svg>