<svg xmlns="http://www.w3.org/2000/svg" viewBox="0 0 24 24"><path fill="#6f6f6f" d="M18 5V3h-4v2zm-3 7a1 1 0 0 1-.293.707L13 14.414V16h4v-4zm-3-3V7H8v2z" opacity=".5"/><path d="M7 6v3h1V7h4v2h1V7h4v4h-2v1h2v4.001h-4v-1.587l-1 1v.587h-.586l-.471.47-.066.529H23V6zm15 10.001h-4V12h4zM22 11h-4V7h4zm-9.016-1H1v2l4 4 1 8h3l1-8 4-4v-2zM8.117 23H6.883l-.75-7h2.734zm1.469-8H5.414l-2-2h8.172zM13 11.586l-.414.414H2.414L2 11.586V11h11zM19 2v3h-1V3h-4v2h-1V3H9v2H8V3H4v4h2v1H4v1H3V2z"/><path fill="#6f6f6f" d="M6 7H4V3h4v2H6zm16 0h-4v4h4z" opacity=".25"/><path fill="none" d="M0 0h24v24H0z"/></svg>