<?xml version="1.0" encoding="UTF-8"?><svg id="icons" xmlns="http://www.w3.org/2000/svg" viewBox="0 0 32 32"><defs><style>.cls-1{fill:none;}</style></defs><rect class="cls-1" width="32" height="32"/><path d="M23,14c0-1.10303-.89703-2-2-2s-1.991.89697-1.991,2c0,1.10284.88803,2,1.991,2s2-.89716,2-2ZM20.009,14c0-.55127.43924-1,.991-1s1,.44873,1,1-.44824,1-1,1-.991-.44873-.991-1ZM17,7l.60272.60254c.11493.11493.20361.25067.26575.39746h11.13153v15.24658l-3.99664-3.66821c-.11804-.12805-.28229-.20361-.4563-.20984s-.34332.05737-.47021.17664l-3.07684,2.7478-4.55396-4.13141c-.24243-.21765-.60828-.22314-.85706-.01276l-5.13849,4.26782-.82697-.39062c-.24072-.11371-.52667-.06696-.71869.11743l-3.90485,3.1048v-9.24823l-1-1.00653v14.00653h26V7h-13ZM29,28H5v-1.47412l4.40137-3.49902,1.19727.56592,5.40234-4.48682,4.99902,4.53125,3.50586-3.12305,4.49414,4.06659v3.41925ZM4.3418,10.62695l-.70703.70703-2.84668-2.84766,2.84668-2.84668.70703.70703-1.65332,1.65332h5.31152V2.68848l-1.65137,1.65137-.70703-.70703,2.84668-2.84668,2.84766,2.84668-.70703.70703-1.62891-1.62817v5.28833h5.28882l-1.65405-1.65332.70703-.70703,2.84766,2.84668-2.84766,2.84766-.70703-.70703,1.62695-1.62695h-5.26172v5.26172l1.62891-1.62891.70703.70703-2.84766,2.84766-2.84668-2.84766.70703-.70703,1.65137,1.6521v-5.28491H2.71558l1.62622,1.62695Z"/></svg>