<svg xmlns="http://www.w3.org/2000/svg" viewBox="0 0 32 32"><path d="M31 28v2H2V1h2v1H3v3h1v1H3v3h1v1H3v3h1v1H3v3h1v1H3v3h1v1H3v3h1v1H3v3h3v-1h1v1h3v-1h1v1h3v-1h1v1h3v-1h1v1h3v-1h1v1h3v-1h1v1h3v-1zm-2-3H7V3h22zM8 18.242l2.68-2.13a.48.48 0 0 1 .538-.088l.62.293 3.855-3.201a.49.49 0 0 1 .643.01l4.413 3.098 2.308-2.061a.49.49 0 0 1 .695.025L28 18.087V4H8zm20 1.202-4.61-4.237-1.975 1.764a1 1 0 0 1-1.24.072l-4.143-2.91-3.554 2.954a1 1 0 0 1-.64.23 1 1 0 0 1-.428-.096l-.325-.154L8 19.52V24h20zM19 9a2 2 0 1 1 2 2 2 2 0 0 1-2-2m1 0a1 1 0 1 0 1-1 1 1 0 0 0-1 1"/><path fill="none" d="M0 0h32v32H0z"/></svg>