<svg xmlns="http://www.w3.org/2000/svg" viewBox="0 0 16 16"><path opacity=".25" d="M15 14h-1v-2h1v2zm-1 0h-2v1h2v-1zm-2-4h-2v1h2v-1z"/><path opacity=".5" d="M14 11h-2v-1h2v1zm-2 3h-2v1h2v-1z"/><path d="M3 3h1v1H3V3zm2 1h1V3H5v1zm2 0h1V3H7v1zm8-3v7h-1V6H2v3h6v1H1V1h14zm-1 1H2v3h12V2zM3 7v1h1V7H3zm2 0v1h1V7H5zm2 0v1h1V7H7zm9 2v7H9V9h7zm-5 5h-1v1h1v-1zm0-2h-1v1h1v-1zm0-2h-1v1h1v-1zm2 4h-1v1h1v-1zm0-2h-1v1h1v-1zm0-2h-1v1h1v-1zm2 4h-1v1h1v-1zm0-2h-1v1h1v-1zm0-2h-1v1h1v-1z"/><path fill="none" d="M0 0h16v16H0z"/></svg>