<svg xmlns="http://www.w3.org/2000/svg" viewBox="0 0 32 32"><path d="M23.463 23.2a26 26 0 0 0-3.463.224v-5.076a34 34 0 0 1 5.302-.251l.861 5.191c-.9-.059-1.804-.088-2.7-.088M13 8.705v4.258c.456-.124.916-.253 1.392-.389A46 46 0 0 1 19 11.432V7.347a17 17 0 0 0-2.396.56A23 23 0 0 1 13 8.705" opacity=".25"/><path d="M13 13.999a84 84 0 0 0 1.666-.464c1.323-.378 2.741-.78 4.334-1.08v5.03a32 32 0 0 0-4.714 1.202c-.435.137-.86.267-1.286.391zm-4.463 11.8A16.7 16.7 0 0 0 12 25.477v-5.1a15 15 0 0 1-3.463.395 21 21 0 0 1-2.259-.142l-.796 4.796a13 13 0 0 0 3.055.375z" opacity=".5"/><path d="M23.462 27.2A33.2 33.2 0 0 1 31 28L27 3.9a26.4 26.4 0 0 0-5.926-.689c-5.144 0-5.927 1.657-10.735 1.657A15 15 0 0 1 5 3.9L1 28a16.3 16.3 0 0 0 7.538 1.8c6.876 0 8.048-2.6 14.924-2.6m-21.355.234L5.795 5.217a15.6 15.6 0 0 0 4.544.651 17.4 17.4 0 0 0 5.445-.847 16.6 16.6 0 0 1 5.29-.81 26 26 0 0 1 5.05.518l3.651 21.999a37.3 37.3 0 0 0-6.313-.528 22.4 22.4 0 0 0-7.77 1.348A20.4 20.4 0 0 1 8.539 28.8a16 16 0 0 1-6.43-1.366zM24.384 6.456a24 24 0 0 0-3.31-.245 14.8 14.8 0 0 0-4.738.733 19.4 19.4 0 0 1-5.996.924 18 18 0 0 1-2.92-.228L4.349 26.146a14.1 14.1 0 0 0 4.188.654 18.5 18.5 0 0 0 6.541-1.154 24.4 24.4 0 0 1 8.385-1.446c1.448 0 2.763.078 3.896.188zM20 12.29a26 26 0 0 1 4.29-.29l.845 5.097a35.4 35.4 0 0 0-5.135.242zm3.519-4.935.604 3.643a27 27 0 0 0-4.123.276V7.246c.33-.02.68-.035 1.074-.035a22 22 0 0 1 2.445.143zm-6.915.553A17 17 0 0 1 19 7.347v4.085a46 46 0 0 0-4.608 1.142c-.475.136-.936.265-1.392.389V8.705a23 23 0 0 0 3.604-.798zM13 14a84 84 0 0 0 1.666-.464c1.323-.378 2.741-.78 4.334-1.08v5.03a32 32 0 0 0-4.714 1.202c-.435.137-.86.267-1.286.391zm-2.66-5.13c.603 0 1.146-.027 1.66-.065v4.414a13.8 13.8 0 0 1-4.56.414l.808-4.872a20 20 0 0 0 2.092.108zM12 19.344a15.3 15.3 0 0 1-5.558.299l.832-5.012c.407.04.808.066 1.198.066A15.5 15.5 0 0 0 12 14.241zm-6.518 6.08.796-4.796a21 21 0 0 0 2.26.143A15 15 0 0 0 12 20.376v5.1a16.7 16.7 0 0 1-3.463.324 13 13 0 0 1-3.055-.375zm9.289-.73a40 40 0 0 1-1.771.537V20.12a50 50 0 0 0 1.587-.48A32 32 0 0 1 19 18.5v5.077a30.4 30.4 0 0 0-4.23 1.117zM20 23.423v-5.076a34 34 0 0 1 5.302-.25l.861 5.19c-.9-.059-1.804-.088-2.7-.088a26 26 0 0 0-3.463.224"/><path fill="none" d="M0 0h32v32H0z"/></svg>