<svg xmlns="http://www.w3.org/2000/svg" viewBox="0 0 24 24"><path d="M10 10.478q.63-.168 1.27-.353A42 42 0 0 1 14 9.416v3.056a27 27 0 0 0-3.09.82q-.46.146-.91.28zM6.424 18.8A18 18 0 0 0 9 18.623v-3.759a11.7 11.7 0 0 1-2.501.263c-.448 0-.943-.032-1.466-.082l-.62 3.602a13 13 0 0 0 2.01.153z" opacity=".5"/><path d="M13.581 5.775q.218-.09.419-.168v2.792c-1.089.224-2.077.5-3.005.764q-.508.145-.995.28V6.724a11.8 11.8 0 0 0 3.581-.95zm6.594 11.466-.705-4.18a26 26 0 0 0-4.47.254v4.09a24 24 0 0 1 3.458-.239q.868 0 1.717.075" opacity=".25"/><path d="M16.31 2.2c-3.847 0-3.891 1.6-7.74 1.6a15 15 0 0 1-4.52-.722L1 20.783A13.1 13.1 0 0 0 6.424 21.8c5.242 0 6.792-1.634 12.034-1.634a13.1 13.1 0 0 1 5.423 1.017l-3.05-18.105a12.7 12.7 0 0 0-4.52-.878zm2.148 16.966a24 24 0 0 0-6.251.845 22 22 0 0 1-5.783.789 13.7 13.7 0 0 1-4.3-.65L4.848 4.343A16.2 16.2 0 0 0 8.57 4.8a9.8 9.8 0 0 0 4.25-.875 7.8 7.8 0 0 1 3.49-.725 11.9 11.9 0 0 1 3.63.615l2.674 15.872a16.3 16.3 0 0 0-4.157-.52zM16.31 4.2a6.9 6.9 0 0 0-3.11.65 10.8 10.8 0 0 1-4.63.95 16.7 16.7 0 0 1-2.914-.268L3.262 19.436a13.4 13.4 0 0 0 3.162.364 21.2 21.2 0 0 0 5.55-.761 25 25 0 0 1 6.484-.873 18 18 0 0 1 2.927.234L19.057 4.59a10.6 10.6 0 0 0-2.746-.39zM10 10.478q.63-.168 1.27-.353A42 42 0 0 1 14 9.416v3.056a27 27 0 0 0-3.09.82q-.46.146-.91.28zm-1 3.358a11.7 11.7 0 0 1-3.797.22l.53-3.077c.231.017.468.047.693.047A12 12 0 0 0 9 10.72zm6-4.611a20 20 0 0 1 3.776-.283l.526 3.118a27 27 0 0 0-4.302.244zm3.18-3.819.428 2.537A21.7 21.7 0 0 0 15 8.216V5.308a7 7 0 0 1 1.31-.108 9 9 0 0 1 1.87.206m-4.599.369q.218-.09.419-.168v2.792c-1.089.224-2.077.5-3.005.764q-.508.145-.995.28V6.724a11.8 11.8 0 0 0 3.581-.95zM8.571 6.8c.15 0 .286-.009.429-.013v2.91a10.6 10.6 0 0 1-3.099.31l.575-3.34A17 17 0 0 0 8.57 6.8zm-4.16 11.847.621-3.602a16 16 0 0 0 1.466.082A11.7 11.7 0 0 0 9 14.864v3.76a18 18 0 0 1-2.576.176 13 13 0 0 1-2.012-.153zm7.328-.58c-.577.138-1.143.274-1.74.39v-3.846c.402-.113.802-.236 1.21-.365a27 27 0 0 1 2.79-.754v4.075c-.803.15-1.538.325-2.26.5m6.718-.901a24 24 0 0 0-3.458.239v-4.09a26 26 0 0 1 4.47-.255l.705 4.18a20 20 0 0 0-1.717-.074"/><path fill="none" d="M0 0h24v24H0z"/></svg>