<svg xmlns="http://www.w3.org/2000/svg" viewBox="0 0 16 16"><path fill="none" d="M0 0h16v16H0z"/><path d="M10.5 6.5a1 1 0 1 1 2 0 1 1 0 0 1-2 0zM2 5h2v2H2.496l2 2 2-2H5V5h2v1.5l2-2-2-2V4H5V2h1.494L4.496.002 2.5 2H4v2H2V2.5l-2 2 2 2V5zm14-1v11H2V9h1v3.694l2.3-2.454c.11-.118.29-.118.4 0s.29.118.4 0l2.017-2.152a.27.27 0 0 1 .381-.018l2.03 1.804c.1.09.246.094.35.01l1.226-.824a.27.27 0 0 1 .37.028L15 11.524V5h-5V4h6zm-1 8.913l-2.809-2.709-.686.46a1.27 1.27 0 0 1-1.64-.041L8.362 9.287 6.83 10.924a1.28 1.28 0 0 1-1.16.383L3 14h12v-1.087z"/></svg>