<svg xmlns="http://www.w3.org/2000/svg" viewBox="0 0 32 32"><path fill="#6f6f6f" d="M12 8H7V3h5zm17 2h-5v5h5z" opacity=".25"/><path fill="#6f6f6f" d="M12 12v-2h5v2zm7-9v5h5V3zm-1 13.408V21h5v-5h-4.592z" opacity=".5"/><path d="M25 2v6h-1V3h-5v5h-1V3h-5v5h-1V3H7v5h3v1H7v3H6V2zm5 7v13H13.618l.123-.999H17v-3.594l1-1v4.594h5V16h-4.592l.36-.36a1 1 0 0 0 .15-.247l.007-.024a1 1 0 0 0 .066-.324c0-.016.009-.029.009-.045h4v-5h-5v2h-1v-2h-5v2h-1V9zm-1 7h-5v5.001h5zm0-6h-5v5h5zm-11 3v2l-5 5-1.5 11h-3L7 20l-5-5v-2zm-6.146 7H8.146l1.227 10h1.254zm4.01-4H4.136l3.333 3h5.064l3.333-3zM17 14H3v1h14z"/><path fill="none" d="M0 0h32v32H0z"/></svg>