<svg xmlns="http://www.w3.org/2000/svg" viewBox="0 0 24 24"><path d="M19 7h4v15H6v-4h1v3h15V8h-3zM1 17V2h17v15zm1-5.033 1.683-1.683a.41.41 0 0 1 .576-.002.4.4 0 0 0 .57.012L7.753 7.37a.41.41 0 0 1 .55-.025l2.932 2.443a.41.41 0 0 0 .507.013l1.769-1.327a.41.41 0 0 1 .534.038L17 11.467V3H2zM17 16v-3.119l-3.3-3.3-1.358 1.019a1.41 1.41 0 0 1-1.747-.044L8.078 8.459 5.536 11a1.38 1.38 0 0 1-.98.406 1.4 1.4 0 0 1-.492-.09L2 13.381V16zm-5.5-9.5a1 1 0 1 0-1-1 1 1 0 0 0 1 1"/><path fill="none" d="M0 0h24v24H0z"/></svg>