<svg xmlns="http://www.w3.org/2000/svg" viewBox="0 0 32 32"><path d="M21 21h-3v-3h3zm8 1h-3v3h3zm-4 4h-3v3h3z" opacity=".25"/><path d="M25 21h-3v-3h3zm-4 5h-3v3h3z" opacity=".5"/><path d="M8 13H6v-1h2zm3-1H9v1h2zm3 0h-2v1h2zm15-9v13H4v5h12v1H3V3zm-1 7H4v5h24zm0-6H4v5h24zM6 18v1h2v-1zm3 0v1h2v-1zm3 0v1h2v-1zM6 7h2V6H6zm3 0h2V6H9zm3 0h2V6h-2zm18 10v13H17V17zm-4 8h3v-3h-3zm-4-4h3v-3h-3zm0 4h3v-3h-3zm-4 0h3v-3h-3zm0-7v3h3v-3zm3 11v-3h-3v3zm4 0v-3h-3v3zm4 0v-3h-3v3zm0-11h-3v3h3z"/><path fill="none" d="M0 0h32v32H0z"/></svg>