<svg xmlns="http://www.w3.org/2000/svg" viewBox="0 0 24 24"><path d="M13.651 5l.434.454c.153.16.253.348.321.546H22v11.067l-2.714-2.714a.503.503 0 0 0-.657-.047L16.45 15.94a.503.503 0 0 1-.623-.016l-3.609-3.006a.503.503 0 0 0-.677.03l-3.627 3.628c-.194.193-.48.141-.678-.049a.503.503 0 0 0-.704.008L4 19.067v-6.368l-.936-.855c-.025-.023-.04-.053-.064-.077V22h20V5h-9.349zM22 21H4v-.519l2.947-2.947c.212.106.443.163.677.163.375 0 .73-.148.997-.415l3.307-3.307 3.26 2.716a1.502 1.502 0 0 0 1.863.049l1.833-1.375L22 18.481V21zM18 9.5a1.5 1.5 0 1 0-3 0 1.5 1.5 0 0 0 3 0zm-2 0a.5.5 0 1 1 1.001.001A.5.5 0 0 1 16 9.5zM1.777 7l1.217 1.274-.722.692L0 6.589l2.264-2.476.729.674L1.893 6H6V1.814L4.768 2.99l-.691-.722L6.454 0l2.475 2.26-.674.738L7 1.85V6h4.15l-1.142-1.195.723-.692L13 6.49l-2.262 2.476L10 8.292 11.181 7H7v4.188l1.238-1.182.691.723L6.552 13l-2.475-2.264.674-.729L6 11.14V7H1.777z"/><path fill="none" d="M0 0h24v24H0z"/></svg>