<svg xmlns="http://www.w3.org/2000/svg" viewBox="0 0 32 32"><path d="M12 8H7V3h5v5zm17 2h-5v5h5v-5z" fill="#6f6f6f" opacity=".25"/><path d="M12 12v-2h5v2h-5zm7-9v5h5V3h-5zm-1 13.408V21h5v-5h-4.592l-.408.408z" fill="#6f6f6f" opacity=".5"/><path d="M25 2v6h-1V3h-5v5h-1V3h-5v5h-1V3H7v5h3v1H7v3H6V2h19zm5 7v13H13.618l.123-.999H17v-3.594l1-1v4.594h5V16h-4.592l.36-.36a.995.995 0 0 0 .15-.247c.004-.008.004-.016.007-.024a.992.992 0 0 0 .066-.324c0-.016.009-.029.009-.045h4v-5h-5v2h-1v-2h-5v2h-1V9h19zm-1 7h-5v5.001h5V16zm0-6h-5v5h5v-5zm-11 3v2l-5 5-1.5 11h-3L7 20l-5-5v-2h16zm-6.146 7H8.146l1.227 10h1.254l1.227-10zm4.01-4H4.136l3.333 3h5.064l3.333-3zM17 14H3v1h14v-1z"/><path fill="none" d="M0 0h32v32H0z"/></svg>