<svg xmlns="http://www.w3.org/2000/svg" viewBox="0 0 32 32"><path fill="none" d="M0 0h32v32H0z"/><path d="M23 14a1.994 1.994 0 1 0-3.991 0c0 1.103.888 2 1.991 2s2-.897 2-2m-2.991 0c0-.551.44-1 .991-1s1 .449 1 1-.448 1-1 1-.991-.449-.991-1M17 7l.603.603c.115.114.203.25.265.397H29v15.247l-3.997-3.669a.65.65 0 0 0-.926-.033L21 22.293l-4.554-4.131a.65.65 0 0 0-.857-.013l-5.139 4.268-.826-.391a.64.64 0 0 0-.72.117L5 25.248V16l-1-1.007V29h26V7zm12 21H5v-1.474l4.401-3.5 1.198.567L16 19.106l5 4.531 3.506-3.123L29 24.581zM4.342 10.627l-.707.707L.788 8.486 3.635 5.64l.707.707L2.688 8H8V2.688L6.349 4.34l-.707-.707L8.488.786l2.848 2.847-.707.707L9 2.712V8h5.289l-1.654-1.653.707-.707 2.847 2.846-2.847 2.848-.707-.707L14.262 9H9v5.262l1.629-1.63.707.708-2.848 2.848-2.846-2.848.707-.707L8 14.285V9H2.716z"/></svg>