<svg xmlns="http://www.w3.org/2000/svg" viewBox="0 0 24 24"><path d="M5 4h1v1H5zm2 1h1V4H7zm15-3v10h-1v-1H3v3h9v1H2V2zm-1 5H3v3h18zm0-4H3v3h18zM6 8H5v1h1zm2 0H7v1h1zm-3 4v1h1v-1zm2 0v1h1v-1zm2-7h1V4H9zm1 3H9v1h1zm-1 4v1h1v-1zm14 1v10H13V13zm-3 1v2h2v-2zm0 5h2v-2h-2zm-3-5v2h2v-2zm0 5h2v-2h-2zm-3-5v2h2v-2zm2 3h-2v2h2zm0 5v-2h-2v2zm3 0v-2h-2v2zm3 0v-2h-2v2z"/><path d="M16 16h-2v-2h2zm6 1h-2v2h2zm-3 3h-2v2h2z" opacity=".25"/><path d="M16 22h-2v-2h2zm3-8h-2v2h2z" opacity=".5"/><path fill="none" d="M0 0h24v24H0z"/></svg>