<svg xmlns="http://www.w3.org/2000/svg" viewBox="0 0 16 16"><path d="M6 11H4.219l.194-2H6zm3-4H7v1h2z" opacity=".5"/><path d="M9 6H7V5h2zm2.781 5-.194-2H10v2z" opacity=".25"/><path d="M10.706 1.014c-2.69 0-2.724.986-5.412.986a10.4 10.4 0 0 1-3.161-.512L0 14.09a9.2 9.2 0 0 0 3.793.711c3.665 0 4.749-1.6 8.414-1.6A6.6 6.6 0 0 1 16 14.29L13.867 1.687a8.2 8.2 0 0 0-3.161-.674zM12.207 12.2a12.8 12.8 0 0 0-4.526.852 11 11 0 0 1-3.888.748 9.5 9.5 0 0 1-2.668-.363L2.935 2.74A11.4 11.4 0 0 0 5.294 3a7.8 7.8 0 0 0 3.045-.552 5.9 5.9 0 0 1 2.367-.434 7.2 7.2 0 0 1 2.27.399l1.72 10.163a8.3 8.3 0 0 0-2.489-.376M3.896 4l-.779 8h9.766l-.779-8zM10 5h1.197l.098 1H10zm0 2h1.392l.097 1H10zm-4 4H4.219l.194-2H6zm0-3H4.51l.098-1H6zm0-2H4.705l.098-1H6zm3 5H7V9h2zm0-3H7V7h2zm0-2H7V5h2zm1 5V9h1.587l.194 2z"/><path fill="none" d="M0 0h16v16H0z"/></svg>