<svg xmlns="http://www.w3.org/2000/svg" viewBox="0 0 32 32"><path d="M5 14.353a7.28 7.28 0 0 0-1 .548V3h26v22H14.818l-.447-.447c.1-.178.181-.367.266-.553H29v-3.42l-4.494-4.066L21 19.637l-4.999-4.531-2.04 1.694a7.338 7.338 0 0 0-.633-.773l2.261-1.878a.652.652 0 0 1 .857.013L21 18.293l3.077-2.748a.653.653 0 0 1 .926.033L29 19.247V4H5v10.353zM19.01 10c0-1.103.887-2 1.99-2s2 .897 2 2-.897 2-2 2-1.99-.897-1.99-2zm.99 0a1 1 0 1 0 1.998-.002A1 1 0 0 0 20 10zM2.2 21a5.8 5.8 0 1 1 10.233 3.736l4.561 4.561a.5.5 0 0 1 0 .708.476.476 0 0 1-.673 0l-4.578-4.579A5.773 5.773 0 0 1 8 26.8 5.8 5.8 0 0 1 2.2 21zM8 25.8c2.647 0 4.8-2.153 4.8-4.8s-2.153-4.8-4.8-4.8-4.8 2.153-4.8 4.8 2.153 4.8 4.8 4.8z"/><path fill="none" d="M0 0h32v32H0z"/></svg>