<?xml version="1.0" encoding="UTF-8"?><svg id="icons" xmlns="http://www.w3.org/2000/svg" viewBox="0 0 16 16"><defs><style>.cls-1{fill:none;}</style></defs><rect class="cls-1" width="16" height="16"/><path d="M10.5,6.5c0-.55231.44769-1,1-1s1,.44769,1,1-.44769,1-1,1-1-.44769-1-1ZM2,5h2v2h-1.50372l2,2,2-2h-1.49628v-2h2v1.5l2-2-2-2v1.5h-2v-2h1.49396L4.49628.00232l-1.99768,1.99768h1.5014v2h-2v-1.5L0,4.5l2,2v-1.5ZM16,4v11H2v-6h1v3.69354l2.30005-2.45337c.11041-.1178.28949-.1178.39996,0s.28955.1178.40002,0l2.01733-2.15179c.10339-.11035.26868-.11835.38104-.01849l2.02979,1.8042c.10071.0896.24585.09351.35071.00958l1.22485-.82336c.11261-.09009.2702-.07812.36969.02808l2.52655,2.43597v-6.52435h-5v-1h6ZM15,12.91309l-2.80859-2.70898-.68652.45898c-.22461.18115-.50781.28125-.79492.28125-.3125,0-.61328-.11523-.8457-.32275l-1.50098-1.3335-1.53418,1.63623c-.24121.25684-.58008.4043-.92871.4043-.07812,0-.1543-.00732-.23047-.02148l-2.66992,2.69287h12v-1.08691Z"/></svg>