<?xml version="1.0" encoding="UTF-8"?><svg id="icons" xmlns="http://www.w3.org/2000/svg" viewBox="0 0 32 32"><defs><style>.cls-1{fill:none;}</style></defs><path d="M24,32h-3v-11h3v1h-2v9h2v1ZM29,21v1h2v9h-2v1h3v-11h-3ZM14,10.5c0-.27539.22461-.5.5-.5h4c.27539,0,.5.22461.5.5v8.5h1v-8.5c0-.82715-.67285-1.5-1.5-1.5h-4c-.82715,0-1.5.67285-1.5,1.5v8.5h1v-8.5ZM11,18h-3v-9h-4v1h3v8h-3v1h7v-1ZM8,3h-1v4h1V3ZM24,17.5c0,.82715.67285,1.5,1.5,1.5h3.5v-1h-3.5c-.27539,0-.5-.22461-.5-.5v-7.5h4v-1h-4V2h-1v7h-2v1h2v7.5Z"/><rect class="cls-1" width="32" height="32"/></svg>