<?xml version="1.0" encoding="UTF-8"?><svg id="icons" xmlns="http://www.w3.org/2000/svg" viewBox="0 0 32 32"><defs><style>.cls-1{fill:none;}</style></defs><path d="M27,17.99994l1.00006.00006-.00012,11-1-.00006.00006-11ZM27.00006,16.99963h1v-.99963h-1v.99963ZM27.00006,14.99963h1v-.99963h-1v.99963ZM27.00006,12.99963h1v-.99963h-1v.99963ZM27.00006,10.99963h1v-.99963h-1v.99963ZM27.00006,8v.99976l1,.00006v-1l-1,.00018ZM4,6h11v-1H4v1ZM16,6h1v-1h-.99994l-.00006,1ZM18,6h1l.00006-1h-1l-.00006,1ZM20,6h1l.00006-1h-1l-.00006,1ZM22,6h1l.00006-1h-1l-.00006,1ZM24,6h1l.00006-1h-1l-.00006,1ZM26.00024,4.00098l-.00024,2.99902h3l.00006-2.9989-2.99982-.00012ZM28,6h-1v-1h1v1Z"/><rect class="cls-1" width="32" height="32"/></svg>