<?xml version="1.0" encoding="UTF-8"?><svg id="icons" xmlns="http://www.w3.org/2000/svg" viewBox="0 0 24 24"><defs><style>.cls-1{fill:none;}</style></defs><path d="M21.99902,2.00067l-2.99902-.00067.00098,2.99933,2.99902.00067-.00098-2.99933ZM20,4v-1h1v1h-1ZM2,3h8v1H2v-1ZM15,3h1v1h-1v-1ZM17,3h1v1h-1v-1ZM13,3h1v1h-1v-1ZM11,3h1v1h-1v-1ZM20,22v-8s1,0,1,0v8s-1,0-1,0ZM19.99999,9v-1s1,0,1,0v1s-1,0-1,0ZM19.99999,7v-1s1,0,1,0v1s-1,0-1,0ZM20,11v-1s1,0,1,0v1s-1,0-1,0ZM20,13v-1s1,0,1,0v1s-1,0-1,0Z"/><rect class="cls-1" width="24" height="24"/></svg>