<svg xmlns="http://www.w3.org/2000/svg" viewBox="0 0 32 32"><path d="M29 5h-7V4c0-1.103-.897-2-2-2h-8c-1.103 0-2 .897-2 2v1H3c-1.103 0-2 .897-2 2v20c0 1.103.897 2 2 2h26c1.103 0 2-.897 2-2V7c0-1.103-.897-2-2-2zm-.361 1a.998.998 0 0 1 .987 1.165l-.776 4.657a4.981 4.981 0 0 1-4.85 4.17V14h-4v2h-8v-2H8v1.993a4.981 4.981 0 0 1-4.85-4.17l-.776-4.658A1.002 1.002 0 0 1 3.361 6H28.64zM21 15h2v4h-2v-4zM9 15h2v4H9v-4zm2-11c0-.551.448-1 1-1h8c.552 0 1 .449 1 1v1H11V4zm18 24H3c-.552 0-1-.449-1-1V11.002l.164.985A5.977 5.977 0 0 0 8 16.993V20h4v-3h8v3h4v-3.007a5.977 5.977 0 0 0 5.836-5.007l.164-.984V27c0 .551-.448 1-1 1z"/><path fill="none" d="M0 0h32v32H0z"/></svg>