<svg xmlns="http://www.w3.org/2000/svg" viewBox="0 0 24 24"><path d="M1 20.56c0 .794.646 1.44 1.44 1.44h19.12c.795 0 1.44-.646 1.44-1.44V6.44C23 5.646 22.354 5 21.56 5H17V3.5A1.5 1.5 0 0 0 15.5 2h-7A1.5 1.5 0 0 0 7 3.5V5H2.44a1.44 1.44 0 0 0-1.436 1.401zM16 11h1v3h-1zM8 3.5a.5.5 0 0 1 .5-.5h7a.5.5 0 0 1 .5.5V5H8zM2.5 6h18.96a.5.5 0 0 1 .226.059c.07.036.123.08.154.116v.001h.001c.03.036.066.094.09.167a.43.43 0 0 1 .028.208l-.006.027v.005l-.582 2.493A3.485 3.485 0 0 1 18 11.993V10h-3v2H9v-2H6v1.996a3.49 3.49 0 0 1-3.41-2.92l-.583-2.493v-.004l-.006-.028a.4.4 0 0 1 .028-.21.5.5 0 0 1 .09-.164.5.5 0 0 1 .155-.118A.5.5 0 0 1 2.5 6M7 11h1v3H7zm14.56 10H2.44a.44.44 0 0 1-.44-.44V10.445a4.47 4.47 0 0 0 4 2.551V15h3v-2h6v2h3v-2.007a4.48 4.48 0 0 0 4-2.639V20.56a.44.44 0 0 1-.44.44m1.38-14.253v-.018z"/><path fill="none" d="M0 0h24v24H0z"/></svg>