<svg xmlns="http://www.w3.org/2000/svg" viewBox="0 0 24 24"><path d="M4.848 3.343L2.124 19.15c.478.16 1.202.356 2.124.492.056.353.128.7.232 1.035-2.2-.267-3.48-.894-3.48-.894L4.05 2.078s2.035.722 4.52.722c3.849 0 3.893-1.6 7.74-1.6 2.487 0 4.52.878 4.52.878l1.737 10.305a7.346 7.346 0 0 0-1.117-.61l-1.51-8.958c-.702-.235-2.079-.615-3.63-.615-1.726 0-2.543.336-3.49.725-.997.41-2.128.875-4.25.875-1.495 0-2.832-.242-3.722-.457zM24 18.5c0 3.032-2.468 5.5-5.5 5.5a5.474 5.474 0 0 1-3.5-1.261A5.474 5.474 0 0 1 11.5 24C8.468 24 6 21.532 6 18.5S8.468 13 11.5 13c1.328 0 2.548.474 3.5 1.261A5.474 5.474 0 0 1 18.5 13c3.032 0 5.5 2.468 5.5 5.5zm-9.725 3.515C13.48 21.061 13 19.835 13 18.5s.48-2.561 1.275-3.515A4.455 4.455 0 0 0 11.5 14C9.019 14 7 16.019 7 18.5S9.019 23 11.5 23a4.455 4.455 0 0 0 2.775-.985zm.725-.721c.616-.77 1-1.733 1-2.794s-.384-2.024-1-2.794c-.616.77-1 1.733-1 2.794s.384 2.024 1 2.794zm8-2.794c0-2.481-2.019-4.5-4.5-4.5a4.455 4.455 0 0 0-2.775.985C16.52 15.939 17 17.165 17 18.5s-.48 2.561-1.275 3.515A4.455 4.455 0 0 0 18.5 23c2.481 0 4.5-2.019 4.5-4.5z"/><path fill="none" d="M0 0h24v24H0z"/></svg>