<svg xmlns="http://www.w3.org/2000/svg" viewBox="0 0 16 16"><path d="M3.155 13.775c.084.353.202.692.35 1.015-2.19-.056-3.505-.7-3.505-.7L2.133 1.487S3.556 2 5.294 2c2.688 0 2.721-.986 5.412-.986 1.738 0 3.161.674 3.161.674l.99 5.85a5.447 5.447 0 0 0-1.079-.382l-.802-4.743c-.496-.17-1.337-.399-2.27-.399-1.17 0-1.725.201-2.367.434C7.623 2.707 6.813 3 5.294 3c-.908 0-1.736-.126-2.359-.26l-1.81 10.697a9.389 9.389 0 0 0 2.03.338zM16 12.5a3.5 3.5 0 0 1-3.5 3.5 3.477 3.477 0 0 1-2-.633 3.477 3.477 0 0 1-2 .633 3.5 3.5 0 0 1 0-7c.745 0 1.432.237 2 .633a3.477 3.477 0 0 1 2-.633 3.5 3.5 0 0 1 3.5 3.5zm-5 0c0-.558-.19-1.069-.5-1.485-.31.416-.5.927-.5 1.485s.19 1.069.5 1.485c.31-.416.5-.927.5-1.485zM8.5 15c.46 0 .886-.133 1.256-.351C9.29 14.054 9 13.314 9 12.5s.29-1.553.756-2.148A2.472 2.472 0 0 0 8.5 10C7.121 10 6 11.121 6 12.5S7.121 15 8.5 15zm6.5-2.5c0-1.379-1.121-2.5-2.5-2.5-.46 0-.886.134-1.256.351A3.47 3.47 0 0 1 12 12.5c0 .814-.29 1.554-.756 2.149.37.217.796.351 1.256.351 1.379 0 2.5-1.121 2.5-2.5z"/><path fill="none" d="M0 0h16v16H0z"/></svg>