<svg xmlns="http://www.w3.org/2000/svg" viewBox="0 0 16 16"><path d="M4.25 4h-2.5A.75.75 0 0 1 1 3.25v-1.5A.75.75 0 0 1 1.75 1h2.5a.75.75 0 0 1 .75.75v1.5a.75.75 0 0 1-.75.75M2 3h2V2H2zm7.25 1h-2.5A.75.75 0 0 1 6 3.25v-1.5A.75.75 0 0 1 6.75 1h2.5a.75.75 0 0 1 .75.75v1.5a.75.75 0 0 1-.75.75M7 3h2V2H7zm7.25 1h-2.5a.75.75 0 0 1-.75-.75v-1.5a.75.75 0 0 1 .75-.75h2.5a.75.75 0 0 1 .75.75v1.5a.75.75 0 0 1-.75.75M12 3h2V2h-2zM4.25 8h-2.5A.75.75 0 0 1 1 7.25v-1.5A.75.75 0 0 1 1.75 5h2.5a.75.75 0 0 1 .75.75v1.5a.75.75 0 0 1-.75.75M2 7h2V6H2zm7.25 1h-2.5A.75.75 0 0 1 6 7.25v-1.5A.75.75 0 0 1 6.75 5h2.5a.75.75 0 0 1 .75.75v1.5a.75.75 0 0 1-.75.75M7 7h2V6H7zm7.25 1h-2.5a.75.75 0 0 1-.75-.75v-1.5a.75.75 0 0 1 .75-.75h2.5a.75.75 0 0 1 .75.75v1.5a.75.75 0 0 1-.75.75M12 7h2V6h-2zm-7.75 5h-2.5a.75.75 0 0 1-.75-.75v-1.5A.75.75 0 0 1 1.75 9h2.5a.75.75 0 0 1 .75.75v1.5a.75.75 0 0 1-.75.75M2 11h2v-1H2zm7.25 1h-2.5a.75.75 0 0 1-.75-.75v-1.5A.75.75 0 0 1 6.75 9h2.5a.75.75 0 0 1 .75.75v1.5a.75.75 0 0 1-.75.75M7 11h2v-1H7zm7.25 1h-2.5a.75.75 0 0 1-.75-.75v-1.5a.75.75 0 0 1 .75-.75h2.5a.75.75 0 0 1 .75.75v1.5a.75.75 0 0 1-.75.75M12 11h2v-1h-2zm-2.75 5h-2.5a.75.75 0 0 1-.75-.75v-1.5a.75.75 0 0 1 .75-.75h2.5a.75.75 0 0 1 .75.75v1.5a.75.75 0 0 1-.75.75M7 15h2v-1H7z"/><path fill="none" d="M0 0h16v16H0z"/></svg>