<svg xmlns="http://www.w3.org/2000/svg" viewBox="0 0 24 24"><path d="M6.424 21.8A13.093 13.093 0 0 1 1 20.783L4.05 3.078a15.028 15.028 0 0 0 4.52.722c3.849 0 3.893-1.6 7.74-1.6a12.674 12.674 0 0 1 4.52.878l3.051 18.105a13.093 13.093 0 0 0-5.423-1.017l-.11.002a2.486 2.486 0 0 0 .546-.987 16.287 16.287 0 0 1 3.721.505L19.941 3.815a11.86 11.86 0 0 0-3.63-.615 7.792 7.792 0 0 0-3.49.725 9.805 9.805 0 0 1-4.25.875 16.193 16.193 0 0 1-3.723-.457L2.124 20.15a13.726 13.726 0 0 0 4.3.65 22.051 22.051 0 0 0 5.783-.79 51.633 51.633 0 0 1 1.646-.373l.459.065a2.473 2.473 0 0 0 .653.744c-2.813.466-4.674 1.354-8.541 1.354zm8.606-3.005l-4.208-.601a1.495 1.495 0 1 1-2.088-1.976l-.448-2.24a1.496 1.496 0 1 1 .856-2.828l2.008-2.007A1.483 1.483 0 0 1 11 8.5a1.5 1.5 0 1 1 2.97.299l2.581 1.549A1.486 1.486 0 0 1 17.5 10a1.5 1.5 0 0 1 .295 2.97l-.601 4.208a1.497 1.497 0 1 1-2.164 1.617zM10 18v-1H9v1zm-2-5h1v-1H8zm4-5v1h1V8zm5 3v1h1v-1zm-.795 6.03l.601-4.208a1.502 1.502 0 0 1-.344-.244l-1.48.74a1.347 1.347 0 0 1-.33 1.13l1.55 2.582zM14 14v-1h-1v1zm2-2.5a1.503 1.503 0 0 1 .03-.299l-2.58-1.549a1.494 1.494 0 0 1-.183.13l.448 2.24a1.492 1.492 0 0 1 .824.4l1.48-.74A1.476 1.476 0 0 1 16 11.5zm-4.143-1.65L9.85 11.858a1.481 1.481 0 0 1 .128.428l2.24.448a1.5 1.5 0 0 1 .516-.516l-.448-2.24a1.483 1.483 0 0 1-.429-.128zm-2.59 3.932l.447 2.24a1.478 1.478 0 0 1 .434.131l2.012-1.993a1.48 1.48 0 0 1-.138-.446l-2.24-.448a1.502 1.502 0 0 1-.516.516zm1.703 3.423l4.208.6a1.496 1.496 0 0 1 .174-.26l-1.532-2.581a1.444 1.444 0 0 1-.962-.114l-2.008 2.007a1.481 1.481 0 0 1 .12.348zM16 19h1v-1h-1z"/><path fill="none" d="M0 0h24v24H0z"/></svg>