<svg xmlns="http://www.w3.org/2000/svg" viewBox="0 0 24 24"><path d="M12 23.046a2.23 2.23 0 0 1-.893-.187L2 18.593V7.36c-.005-1.07.017-2.286 1.284-2.84l7.824-3.38a2.232 2.232 0 0 1 1.784 0L22 5.408V16.64c.005 1.072-.017 2.287-1.285 2.84l-7.821 3.38a2.229 2.229 0 0 1-.893.187zm-9-5.088l8.52 3.991c.3.13.66.132.973-.006h.002l7.82-3.38c.634-.278.69-.85.685-1.92v-10.6l-8.52-3.991c-.3-.13-.66-.132-.973.006l-7.823 3.38c-.633.277-.689.85-.684 1.918v10.603zM9 12c0-.457-.16-.873-.42-1.21.894-.82 2.042-1.583 3.538-2.001A2.96 2.96 0 0 1 12 8c0-.074.017-.143.022-.216-1.829.483-3.199 1.425-4.22 2.386a1.98 1.98 0 0 0-.41-.13C8.158 8.236 9.92 6.958 12 6.958c.065 0 .126.017.191.02a2.98 2.98 0 0 1 .517-.89A5.964 5.964 0 0 0 12 6.042c-2.622 0-4.83 1.711-5.625 4.068A1.996 1.996 0 0 0 5 12c0 1.103.897 2 2 2s2-.897 2-2zm-3 0a1.001 1.001 0 1 1 1 1c-.551 0-1-.448-1-1zm11.959 0c0-.824-.169-1.609-.473-2.323a3.019 3.019 0 0 1-.724.74c.167.5.28 1.026.28 1.583 0 1.437-.617 2.72-1.587 3.636a2.002 2.002 0 0 0-.424-.341c.789-1.73 1.083-3.292 1.152-4.54a2.982 2.982 0 0 1-1.016.228c-.094 1.123-.411 2.507-1.12 4.022-.016 0-.031-.005-.047-.005-1.103 0-2 .897-2 2 0 .014.004.027.004.042H12a5.035 5.035 0 0 1-4.143-2.181A2.968 2.968 0 0 1 7 15c-.05 0-.098-.013-.149-.015A5.957 5.957 0 0 0 12 17.958c.083 0 .163-.014.245-.019A1.994 1.994 0 0 0 14 19c1.103 0 2-.897 2-2 0-.185-.034-.361-.08-.531A5.93 5.93 0 0 0 17.957 12zM14 18a1.001 1.001 0 0 1 0-2 1.001 1.001 0 0 1 0 2zm1-8c1.103 0 2-.897 2-2s-.897-2-2-2-2 .897-2 2 .897 2 2 2zm0-3a1 1 0 1 1-.002 1.998A1 1 0 0 1 15 7z"/><path fill="none" d="M0 0h24v24H0z"/></svg>