<svg xmlns="http://www.w3.org/2000/svg" viewBox="0 0 24 24"><path stroke-width="0" fill="none" d="M0 0h24v24H0z"/><path d="M3 17.58v-6.25C4.643 12.43 8.082 13 11.5 13c.473 0 .945-.013 1.414-.035l.998-.965c-.75.066-1.552.072-2.412.072-5.188 0-8.5-1.346-8.5-2.224V6.41C4.643 7.457 8.082 8 11.5 8s6.857-.543 8.5-1.589v3.437c0 .297-.294.649-1 .983 0 .23-.014.27 0 .412l.55.338c.155-.082.317-.162.45-.25v.52l.25.149H21V5c0-1.97-4.78-3-9.5-3S2 3.03 2 5v12.58c0 2.116 4.448 3.328 9 3.411v-.91c-4.966-.095-8-1.556-8-2.502zm8.5-14.652C17 2.928 20 4.321 20 5s-3 2.063-8.5 2.063S3 5.679 3 5s3-2.072 8.5-2.072zM23 14.5c0-.827-.673-1.5-1.5-1.5-.362 0-.69.134-.949.348l-2.581-1.55A1.498 1.498 0 0 0 16.5 10c-.827 0-1.5.673-1.5 1.5 0 .23.057.447.15.643l-2.007 2.007A1.483 1.483 0 0 0 12.5 14a1.497 1.497 0 0 0-.214 2.978l.448 2.24a1.495 1.495 0 1 0 2.088 1.976l4.208.601a1.494 1.494 0 0 0 2.961-.295c0-.576-.32-1.07-.797-1.322l.601-4.208A1.502 1.502 0 0 0 23 14.5zm-5.552-1.848l2.582 1.55c-.02.096-.03.196-.03.298 0 .062.011.122.018.182l-1.48.74a1.491 1.491 0 0 0-.824-.4l-.448-2.24c.065-.038.125-.082.182-.13zM18 16v1h-1v-1h1zm-2-5h1v1h-1v-1zm-.143 1.85c.134.064.277.106.429.128l.448 2.24a1.5 1.5 0 0 0-.517.516l-2.239-.448a1.481 1.481 0 0 0-.128-.429l2.007-2.007zM12 16v-1h1v1h-1zm2 5h-1v-1h1v1zm.148-1.847a1.48 1.48 0 0 0-.434-.131l-.447-2.24a1.5 1.5 0 0 0 .516-.516l2.239.448c.023.158.07.307.138.446l-2.012 1.993zm5.03 1.653l-4.208-.601a1.476 1.476 0 0 0-.12-.348l2.007-2.007c.196.093.412.15.643.15.11 0 .217-.014.32-.036l1.533 2.582a1.48 1.48 0 0 0-.175.26zm-.526-3.357c.214-.26.348-.587.348-.949 0-.062-.011-.122-.018-.182l1.48-.74c.101.098.218.178.344.244l-.6 4.208H20.2l-1.549-2.581zM21 22h-1v-1h1v1zm0-7v-1h1v1h-1z" stroke-width="0"/></svg>