<svg xmlns="http://www.w3.org/2000/svg" viewBox="0 0 16 16"><path d="M8 16c-.225 0-.45-.047-.66-.138l-6.308-2.874V4.419c-.004-.724-.009-1.626.932-2.038L7.35.134c.41-.18.89-.18 1.31.004l6.308 2.874v8.569c.004.724.009 1.626-.932 2.038l-5.382 2.245A1.64 1.64 0 0 1 8 16zm-6-3.635l5.744 2.617c.16.072.352.072.517-.002l.01-.003 5.4-2.253c.29-.128.333-.355.329-1.122V3.635L8.256 1.018a.644.644 0 0 0-.517.002l-5.41 2.256c-.29.128-.333.355-.329 1.122v7.967zM12.5 8c0-.443-.084-.863-.204-1.268a2.503 2.503 0 0 1-.865.584 3.484 3.484 0 0 1-1.768 3.748 1.506 1.506 0 0 0-.248-.244c.864-1.597 1.092-3.24 1.128-4.324A1.5 1.5 0 0 0 12 5c0-.827-.673-1.5-1.5-1.5-.765 0-1.391.578-1.482 1.319a7.046 7.046 0 0 0-3.665 1.95 1.49 1.49 0 0 0-.508-.225C5.398 5.344 6.593 4.5 8 4.5c.017 0 .033.005.05.005a2.48 2.48 0 0 1 .423-.957C8.316 3.53 8.163 3.5 8 3.5c-2.037 0-3.74 1.368-4.288 3.23A1.496 1.496 0 0 0 4.5 9.5C5.327 9.5 6 8.827 6 8a1.48 1.48 0 0 0-.062-.404 5.987 5.987 0 0 1 3.294-1.802c.086.135.193.253.316.355.001.986-.17 2.72-1.112 4.357a1.496 1.496 0 0 0-1.289.857 3.462 3.462 0 0 1-1.744-1.038c-.28.11-.584.175-.903.175-.086 0-.168-.017-.252-.026a4.497 4.497 0 0 0 2.81 1.915c.172.638.75 1.111 1.442 1.111.827 0 1.499-.672 1.5-1.498 1.476-.737 2.5-2.243 2.5-4.002zm-2-3.5a.5.5 0 1 1-.001 1.001A.5.5 0 0 1 10.5 4.5zm-6 4a.5.5 0 1 1 .001-1.001A.5.5 0 0 1 4.5 8.5zm4 4a.5.5 0 1 1 .001-1.001A.5.5 0 0 1 8.5 12.5z"/><path fill="none" d="M0 0h16v16H0z"/></svg>