<svg xmlns="http://www.w3.org/2000/svg" viewBox="0 0 24 24"><path d="M9 6zm-5.5 6A2.503 2.503 0 0 1 1 9.5a2.467 2.467 0 0 1 .102-.666.985.985 0 0 0 .57.202.993.993 0 0 0 .334-.067C2.006 8.98 2 8.99 2 9v1a1 1 0 0 0 1 1h1a1 1 0 0 0 1-1 .986.986 0 0 0 .966-.833A2.458 2.458 0 0 1 6 9.5c0 .014-.004.028-.004.042l4.226.94a2.501 2.501 0 0 1 1.48-1.34l-.396-3.162a2.473 2.473 0 0 1-1.399-.57A.987.987 0 0 0 10 5V4a1 1 0 0 0 1 1h1a1 1 0 0 0 1-1V3a1 1 0 0 0-1-1h-1a1 1 0 0 0-1 1v1a.994.994 0 0 0-.95-.99 2.498 2.498 0 1 1 4.889 1.027L18.47 6.05A2.494 2.494 0 1 1 20.5 10c-.021 0-.041-.006-.062-.006l-1.901 8.239a2.496 2.496 0 1 1-3.528 2.359l-7.182-1.197a2.496 2.496 0 1 1-3.345-3.173l-.94-4.226c-.014 0-.027.004-.042.004zM7 19v-1a1 1 0 0 0-1-1H5a1 1 0 0 0-1 1v1a1 1 0 0 0 1 1h1a1 1 0 0 0 1-1zm.584-1.877a2.483 2.483 0 0 1 .407 1.285l7.182 1.197a2.494 2.494 0 0 1 .706-.993l-2.633-4.738a2.405 2.405 0 0 1-2.123-.29zM18 19h-1a1 1 0 0 0-1 1v1a1 1 0 0 0 1 1h1a1 1 0 0 0 1-1v-1a1 1 0 0 0-1-1zm1.463-9.232a2.502 2.502 0 0 1-.92-.73l-3.638 1.818a2.412 2.412 0 0 1-.784 2.532l2.633 4.738A2.465 2.465 0 0 1 17.5 18c.021 0 .04.006.062.006zM19 7v1a1 1 0 0 0 1 1h1a1 1 0 0 0 1-1V7a1 1 0 0 0-1-1h-1a1 1 0 0 0-1 1zm-6.702-1.143l.396 3.163a2.483 2.483 0 0 1 1.763.943l3.638-1.82a2.302 2.302 0 0 1-.034-1.18L13.53 4.95a2.5 2.5 0 0 1-1.23.908zM11 11v1a1 1 0 0 0 1 1h1a1 1 0 0 0 1-1v-1a1 1 0 0 0-1-1h-1a1 1 0 0 0-1 1zm-6.482.778l.94 4.226c.014 0 .027-.004.042-.004a2.483 2.483 0 0 1 1.377.416l3.54-3.54A2.484 2.484 0 0 1 10 11.5c0-.015.004-.028.004-.042l-4.226-.94a2.509 2.509 0 0 1-1.26 1.26zM1.672 8.036l-.708-.708 1.452-1.45A2.483 2.483 0 0 1 2.05 5H0V4h2.05a2.483 2.483 0 0 1 .366-.877L.964 1.672l.708-.708 1.45 1.452A2.483 2.483 0 0 1 4 2.05V0h1v2.05a2.483 2.483 0 0 1 .877.366L7.328.964l.708.708-1.452 1.45A2.483 2.483 0 0 1 6.95 4H9v1H6.95a2.483 2.483 0 0 1-.366.877l1.452 1.451-.708.708-1.45-1.452A2.482 2.482 0 0 1 5 6.95V9H4V6.95a2.482 2.482 0 0 1-.877-.366zM3 4.5A1.5 1.5 0 1 0 4.5 3 1.502 1.502 0 0 0 3 4.5z"/><path fill="none" d="M0 0h24v24H0z"/></svg>