<svg xmlns="http://www.w3.org/2000/svg" viewBox="0 0 16 16"><path d="M8.08 10.792l-4.11-.587a1.478 1.478 0 0 0-.12-.348L5.857 7.85c.196.093.412.15.643.15.11 0 .217-.014.32-.036l1.372 2.311c.099-.266.249-.511.456-.717l.169-.17-1.165-1.94A1.48 1.48 0 0 0 8 6.5c0-.062-.011-.122-.018-.182l1.48-.74c.101.098.218.178.344.244l-.43 3.007 1.179-1.178.24-1.68A1.502 1.502 0 0 0 12 4.5c0-.827-.673-1.5-1.5-1.5-.362 0-.69.134-.949.348L6.97 1.798A1.502 1.502 0 0 0 5.5 0C4.673.001 4 .674 4 1.501c0 .231.057.447.15.643L2.143 4.15A1.483 1.483 0 0 0 1.5 4a1.497 1.497 0 0 0-.214 2.978l.448 2.24a1.495 1.495 0 1 0 2.088 1.976l4.44.634a1.983 1.983 0 0 1-.2-.856c0-.061.012-.12.017-.18zM2 11v-1h1v1H2zM1 5h1v1H1V5zm5-4v1H5V1h1zm5 3v1h-1V4h1zm-1.982.682l-1.48.74a1.492 1.492 0 0 0-.824-.4l-.448-2.24a1.49 1.49 0 0 0 .183-.13l2.581 1.55c-.02.096-.03.196-.03.298 0 .062.011.122.018.182zM7 7H6V6h1v1zM5.286 2.978l.448 2.24a1.5 1.5 0 0 0-.517.516l-2.239-.448a1.482 1.482 0 0 0-.128-.429L4.857 2.85c.134.064.277.106.429.128zM2.783 6.266l2.239.448c.023.158.07.307.138.446L3.148 9.153a1.478 1.478 0 0 0-.434-.131l-.448-2.24a1.5 1.5 0 0 0 .517-.516zm9.735 1.543l2.808 2.809-.707.707L13 9.705V16h-1V9.74l-1.585 1.585-.707-.707 2.81-2.81z"/><path fill="none" d="M0 0h16v16H0z"/></svg>