<svg xmlns="http://www.w3.org/2000/svg" viewBox="0 0 24 24"><path d="M2 14V4h18v7.85l.565.34a2.47 2.47 0 0 1 .435-.135V1.875A.876.876 0 0 0 20.125 1H1.875A.876.876 0 0 0 1 1.875v12.25a.876.876 0 0 0 .875.875h8.176a2.477 2.477 0 0 1 .462-1zM2 2h18v1H2zm8 5h1v5H4V5h1v6h1V8h1v3h1V6h1v5h1zm3-1h1v1h-1zm6 0v1h-4V6zm-6 2h1v1h-1zm6 1h-4V8h4zm-6 1h1v1h-1zm6 1h-.061a2.484 2.484 0 0 0-.443-1H19zm2.5 2a1.486 1.486 0 0 0-.949.348l-2.581-1.549A1.5 1.5 0 1 0 15 11.5a1.483 1.483 0 0 0 .15.643l-2.008 2.007A1.483 1.483 0 0 0 12.5 14a1.497 1.497 0 0 0-.214 2.978l.448 2.24a1.495 1.495 0 1 0 2.088 1.976l4.208.601a1.499 1.499 0 1 0 2.164-1.617l.601-4.208A1.5 1.5 0 0 0 21.5 13zm-.5 9h-1v-1h1zm-8-1v-1h1v1zm-1-6h1v1h-1zm1.782 1.266l2.24.448a1.48 1.48 0 0 0 .138.446l-2.012 1.993a1.478 1.478 0 0 0-.434-.131l-.448-2.24a1.502 1.502 0 0 0 .516-.516zM17 11v1h-1v-1zm.266 1.782a1.494 1.494 0 0 0 .183-.13l2.581 1.55a1.503 1.503 0 0 0-.03.298 1.476 1.476 0 0 0 .018.182l-1.48.74a1.492 1.492 0 0 0-.824-.4zM17 17v-1h1v1zm-2.15 2.857l2.008-2.007a1.444 1.444 0 0 0 .962.114l1.532 2.582a1.496 1.496 0 0 0-.174.26l-4.208-.6a1.481 1.481 0 0 0-.12-.349zm5.351.173l-1.549-2.581a1.347 1.347 0 0 0 .33-1.13l1.48-.74a1.502 1.502 0 0 0 .344.243l-.601 4.208zM21 15v-1h1v1zm-5.143-2.15a1.483 1.483 0 0 0 .429.128l.448 2.24a1.5 1.5 0 0 0-.516.516l-2.24-.448a1.481 1.481 0 0 0-.128-.428z"/><path fill="none" d="M0 0h24v24H0z"/></svg>