<svg xmlns="http://www.w3.org/2000/svg" viewBox="0 0 16 16"><path d="M16 4.5c0-.827-.673-1.5-1.5-1.5-.362 0-.69.134-.949.348l-2.581-1.55A1.502 1.502 0 0 0 9.5 0C8.673.001 8 .674 8 1.501c0 .231.057.447.15.643L6.143 4.15A1.5 1.5 0 0 0 5.5 4c-.684 0-1.257.463-1.436 1.09.368.11.69.32.936.601V5h1v1h-.778c.172.295.278.634.278 1v1.05l.234 1.168q-.126.075-.234.172v.71a2 2 0 0 1 .493-.063H6V10h1v.321c.138.083.27.177.387.294.18.18.317.388.416.614l.019-.035 4.208.601A1.5 1.5 0 0 0 13.5 13c.827 0 1.5-.673 1.5-1.5 0-.576-.33-1.07-.806-1.322l.601-4.208A1.5 1.5 0 0 0 16 4.5M14 12h-1v-1h1zM7.85 9.857 9.857 7.85c.196.093.412.15.643.15q.165-.002.32-.036l1.532 2.582q-.1.12-.174.26l-4.208-.601a1.5 1.5 0 0 0-.12-.348m-.872-4.571a1.5 1.5 0 0 0-.128-.429L8.857 2.85q.201.096.429.128l.448 2.24a1.5 1.5 0 0 0-.517.516zM10 1v1H9V1zm5 3v1h-1V4zm-1.982.682-1.48.74a1.5 1.5 0 0 0-.824-.4l-.448-2.24a1.5 1.5 0 0 0 .183-.13l2.581 1.55Q13 4.346 13 4.5c0 .062.011.122.018.182M11 7h-1V6h1zm2.201 3.03-1.549-2.582c.214-.259.348-.586.348-.948 0-.062-.011-.122-.018-.182l1.48-.74q.153.146.344.244l-.6 4.208H13.2zM6.783 6.266l2.239.448q.035.237.138.446L7.148 9.153a1.5 1.5 0 0 0-.434-.131l-.448-2.24a1.5 1.5 0 0 0 .517-.516m-.457 6.116-2.808 2.81-2.81-2.81.707-.707L3 13.26V7h1v6.295l1.62-1.62z"/><path fill="none" d="M0 0h16v16H0z"/></svg>