<svg xmlns="http://www.w3.org/2000/svg" viewBox="0 0 32 32"><path d="M26.5 12.732l3.854 3.854-.708.707L27 14.646V30h-1V14.646l-2.646 2.647-.708-.707 3.854-3.854zM6.5 23A2.503 2.503 0 0 1 4 20.5a2.5 2.5 0 0 1 1.481-2.278l-.939-4.226c-.014 0-.027.004-.042.004C3.121 14 2 12.878 2 11.5S3.121 9 4.5 9c.62 0 1.18.235 1.617.61l5.15-4.007A2.47 2.47 0 0 1 11 4.5C11 3.122 12.121 2 13.5 2S16 3.122 16 4.5c0 .264-.052.514-.128.753l4.727 2.642A2.484 2.484 0 0 1 22.5 7C23.879 7 25 8.122 25 9.5S23.879 12 22.5 12c-.02 0-.038-.005-.057-.006l-1.905 8.238A2.499 2.499 0 0 1 22 22.5c0 1.378-1.121 2.5-2.5 2.5a2.497 2.497 0 0 1-2.488-2.377l-8.176-1.257A2.497 2.497 0 0 1 6.5 23zm7.5-8h1a1 1 0 0 0 1-1v-1a1 1 0 0 0-1-1h-1a1 1 0 0 0-1 1v1a1 1 0 0 0 1 1zm-1.804-2.47a2.504 2.504 0 0 1 1.538-1.397l-.462-4.156a2.474 2.474 0 0 1-1.389-.586l-5.15 4.006c.164.331.264.7.266 1.093l5.197 1.04zm-3.532 6.74c.188.33.304.704.324 1.106l8.176 1.258c.15-.404.4-.754.722-1.028l-2.611-4.742c-.246.08-.503.135-.775.135a2.475 2.475 0 0 1-1.506-.518l-4.33 3.79zM20 21h-1a1 1 0 0 0-1 1v1a1 1 0 0 0 1 1h1a1 1 0 0 0 1-1v-1a1 1 0 0 0-1-1zm1.469-9.229a2.501 2.501 0 0 1-.913-.718l-3.648 1.81c.054.205.092.416.092.637a2.48 2.48 0 0 1-.879 1.887l2.633 4.74c.237-.075.484-.127.746-.127.022 0 .042.006.063.006l1.906-8.235zM21 9v1a1 1 0 0 0 1 1h1a1 1 0 0 0 1-1V9a1 1 0 0 0-1-1h-1a1 1 0 0 0-1 1zm-5.616-2.874a2.49 2.49 0 0 1-1.118.741l.462 4.156c.704.065 1.32.418 1.733.946l3.64-1.806A2.466 2.466 0 0 1 20 9.5c0-.255.05-.495.12-.727l-4.736-2.647zM13 6h1a1 1 0 0 0 1-1V4a1 1 0 0 0-1-1h-1a1 1 0 0 0-1 1v1a1 1 0 0 0 1 1zm-8 7a1 1 0 0 0 1-1v-1a1 1 0 0 0-1-1H4a1 1 0 0 0-1 1v1a1 1 0 0 0 1 1h1zm1.458 5.004c.014 0 .028-.004.042-.004.57 0 1.088.199 1.51.52l4.332-3.78c-.21-.364-.34-.78-.341-1.23l-5.197-1.04a2.512 2.512 0 0 1-1.286 1.308l.94 4.226zM8 21v-1a1 1 0 0 0-1-1H6a1 1 0 0 0-1 1v1a1 1 0 0 0 1 1h1a1 1 0 0 0 1-1z"/><path fill="none" d="M0 0h32v32H0z"/></svg>