<svg xmlns="http://www.w3.org/2000/svg" viewBox="0 0 32 32"><path opacity=".5" d="M23 30c-1.654 0-3-1.346-3-3s1.346-3 3-3 2.99 1.346 2.99 3-1.336 3-2.99 3zm0-5c-1.103 0-2 .897-2 2s.897 2 2 2 2-.897 2-2-.897-2-2-2zM8 27c-1.654 0-3-1.346-3-3s1.346-3 3-3 3 1.346 3 3-1.346 3-3 3zm0-5c-1.103 0-2 .897-2 2s.897 2 2 2 2-.897 2-2-.897-2-2-2zm-3-7c-1.654 0-3-1.346-3-3s1.346-3 3-3 3 1.346 3 3-1.346 3-3 3zm0-5c-1.103 0-2 .897-2 2s.897 2 2 2 2-.897 2-2-.897-2-2-2zm11-2c-1.654 0-3-1.346-3-3s1.346-3 3-3 2.99 1.346 2.99 3S17.654 8 16 8zm0-5c-1.103 0-2 .897-2 2s.897 2 2 2 2-.897 2-2-.897-2-2-2zm11.004 11a3.005 3.005 0 0 1-2.778-1.858 3.003 3.003 0 0 1 1.632-3.916 2.992 2.992 0 0 1 3.906 1.632 2.999 2.999 0 0 1-1.622 3.916 2.983 2.983 0 0 1-1.138.226zm-.006-5a2.002 2.002 0 0 0-1.847 2.76 2.004 2.004 0 0 0 2.61 1.09 2.002 2.002 0 0 0 1.089-2.61A2.003 2.003 0 0 0 26.998 9zM17 19c-1.654 0-3-1.346-3-3s1.346-3 3-3 3 1.346 3 3-1.346 3-3 3zm0-5c-1.103 0-2 .897-2 2s.897 2 2 2 2-.897 2-2-.897-2-2-2z"/><path d="M15.98 4.42L4.428 11.77l3.164 12.657 15.778 3.156 4.209-16.838L15.98 4.42zm1.452 10.806l-.847-9.338 9.35 5.1-8.503 4.238zm-.998.062L6.089 11.9l9.489-6.039.856 9.427zm.428 1.502l5.192 9.51-12.998-2.599 7.806-6.91zm.826-.574l8.56-4.267-3.42 13.68-5.14-9.413zM5.723 12.832l10.31 3.377-7.754 6.846-2.556-10.223z"/><path fill="none" d="M0 0h32v32H0z"/></svg>