<svg xmlns="http://www.w3.org/2000/svg" viewBox="0 0 32 32"><path d="M16.303 3.22l-.016-.016C22.504 3.25 29 4.75 29 7.5V17a2.94 2.94 0 0 0-1 .18v-1.954c-.527.423-1.238.797-2.093 1.119a2.983 2.983 0 0 0-.384-.927C27.084 14.84 28 14.155 28 13.5V9.226c-2.09 1.68-7.156 2.574-12 2.574h-.037l1.472-.546c.264-.098.474-.283.618-.511C23.863 10.44 28 8.898 28 7.5c0-1.507-4.808-3.181-11.339-3.29.03-.36-.092-.725-.358-.99zm-.28 24.58H16c-7.072 0-12-1.845-12-3.5v-7.622a1.232 1.232 0 0 1-.726-.333L3 16.073V24.3c0 2.923 6.698 4.5 13 4.5l.121-.002A2.961 2.961 0 0 1 16 28c0-.07.018-.133.023-.2zm-4.377-11.25l-.337.887c-.011.028-.032.05-.044.077a39.083 39.083 0 0 0 8.808.072A2.725 2.725 0 0 1 20 17c0-.142.023-.278.042-.414A37.877 37.877 0 0 1 16 16.8c-1.556 0-3.016-.093-4.354-.25zM31 20c0 1.08-.86 1.956-1.93 1.993l-1.164 5.234A1.994 1.994 0 0 1 29 29c0 1.103-.897 2-2 2a1.996 1.996 0 0 1-1.974-1.743l-4.17-.521A2 2 0 0 1 19 30c-1.103 0-2-.897-2-2a2 2 0 0 1 1.186-1.823l-.37-2.195A1.995 1.995 0 0 1 16 22c0-1.103.897-2 2-2 .369 0 .71.107 1.007.282l2.279-2.268A1.978 1.978 0 0 1 21 17c0-1.103.897-2 2-2s2 .897 2 2c0 .147-.018.289-.048.426l2.546 1.268c.367-.422.9-.694 1.502-.694 1.103 0 2 .897 2 2zm-6.505-1.684c-.19.215-.42.391-.685.51l.366 2.192a1.99 1.99 0 0 1 1.225.558l1.69-1.013A1.974 1.974 0 0 1 27 20c0-.142.016-.28.045-.415l-2.55-1.27zM25 22.5a.5.5 0 0 0-.5-.5h-1a.5.5 0 0 0-.5.5v1a.5.5 0 0 0 .5.5h1a.5.5 0 0 0 .5-.5v-1zm.696 4.996l-1.263-2.546A1.99 1.99 0 0 1 24 25c-.37 0-.712-.108-1.01-.283l-2.273 2.273c.133.227.222.48.257.753l4.17.521c.12-.3.312-.56.552-.768zm-5.683-1.21l2.276-2.267a1.977 1.977 0 0 1-.271-.842l-2.194-.365a2.008 2.008 0 0 1-1.019 1.016l.369 2.19c.305.026.589.119.84.267zm-.03-4.461l2.192.365a2.007 2.007 0 0 1 1.013-1.014l-.366-2.194c-.3-.027-.58-.118-.827-.263l-2.28 2.27c.148.25.24.532.267.836zM22 16.499V17.5a.5.5 0 0 0 .5.5h1a.5.5 0 0 0 .5-.5v-1a.5.5 0 0 0-.5-.5h-1a.5.5 0 0 0-.5.5zm-3.5 6.502a.5.5 0 0 0 .5-.5V21.5a.5.5 0 0 0-.5-.5h-1a.5.5 0 0 0-.5.5v1a.5.5 0 0 0 .5.5h1zm1.5 5.5V27.5a.5.5 0 0 0-.5-.5h-1a.5.5 0 0 0-.5.5v1a.5.5 0 0 0 .5.5h1a.5.5 0 0 0 .5-.5zm7.5-.502h-1a.5.5 0 0 0-.5.5V29.5a.5.5 0 0 0 .5.5h1a.5.5 0 0 0 .5-.5v-1a.5.5 0 0 0-.5-.5zm.594-6.226a2.005 2.005 0 0 1-.495-.35l-1.69 1.014c.054.18.091.366.091.563 0 .6-.271 1.133-.691 1.5l1.273 2.546c.112-.025.23-.035.348-.039l1.164-5.234zM30 19.5a.5.5 0 0 0-.5-.5h-1a.5.5 0 0 0-.5.5v1a.5.5 0 0 0 .5.5h1a.5.5 0 0 0 .5-.5v-1zM2.579 13.893l.949-2.066-.318-.849-2.202-.838L1 7.92l2.13-.79.377-.826-.965-2.149 1.566-1.576 2.066.949.848-.318.838-2.202L10.08 1l.79 2.13.825.377 2.15-.965 1.576 1.566-.95 2.066.319.848 2.201.838.008 2.222-2.13.79-.377.824.965 2.15-1.565 1.576-2.066-.95-.849.319-.838 2.201L7.918 17l-.79-2.13-.824-.377-2.149.965-1.576-1.565zm1.42-3.654l.588 1.607-.83 1.81.635.63 1.945-.872 1.555.721.69 1.864.898-.003.758-1.994 1.608-.59 1.81.832.63-.635-.874-1.948.722-1.552L16 9.417l-.004-.896-1.995-.76-.588-1.607.831-1.808-.636-.633-1.945.874-1.555-.721L9.417 2l-.897.004-.758 1.994-1.608.59-1.81-.832-.63.636.873 1.945-.72 1.555L2 8.584l.004.896 1.995.76zM12 9a3 3 0 1 1-6 0 3 3 0 0 1 6 0zm-1 0a2 2 0 1 0-4 0 2 2 0 0 0 4 0z"/><path fill="none" d="M0 0h32v32H0z"/></svg>