<svg xmlns="http://www.w3.org/2000/svg" viewBox="0 0 32 32"><path d="M27 8c-.954 0-1.795.456-2.345 1.151l-5.83-3.18C18.93 5.665 19 5.341 19 5c0-1.654-1.346-3-3-3a3 3 0 0 0-2.916 2.322c.55.357.916.974.916 1.678v1c0 .07-.01.137-.018.205.48.44 1.1.718 1.788.772l.466 5.134a2.994 2.994 0 0 0-1.878 1.497l-5.527-1.81a2.01 2.01 0 0 1-.68.83l5.894 1.93c-.022.145-.045.29-.045.442 0 .586.175 1.13.467 1.592l-4.61 4.07A2.97 2.97 0 0 0 8 21c-.078 0-.152.017-.229.023l-1.57-6.278c.401-.176.75-.442 1.036-.766A1.697 1.697 0 0 1 7 14H6c-.174 0-.34-.03-.5-.07-.161.04-.327.07-.5.07-.85 0-1.572-.534-1.861-1.282-.059.005-.115.025-.174.025a1.99 1.99 0 0 1-.913-.231A2.999 2.999 0 0 0 5 15c.078 0 .152-.017.229-.023l1.57 6.278A2.993 2.993 0 0 0 5.01 24c0 1.654 1.336 3 2.99 3a2.998 2.998 0 0 0 2.794-1.931l9.215 1.843c-.001.03-.009.058-.009.088 0 1.654 1.346 3 3 3s2.99-1.346 2.99-3c0-1.227-.732-2.28-1.789-2.745l2.57-10.278c.077.006.15.023.229.023 1.654 0 2.99-1.346 2.99-3S28.654 8 27 8zm0 5c-1.103 0-2-.897-2-2s.897-2 2-2 2 .897 2 2-.897 2-2 2zm-2.825-2.971c-.105.306-.175.63-.175.971 0 .308.06.6.147.88l-4.731 2.358a2.985 2.985 0 0 0-2.184-1.215l-.466-5.135a2.989 2.989 0 0 0 1.579-1.04l5.83 3.18zM15 16c0-1.103.897-2 2-2s2 .897 2 2-.897 2-2 2-2-.897-2-2zM14 5c0-1.103.897-2 2-2s2 .897 2 2-.897 2-2 2-2-.897-2-2zm-4 19c0 1.103-.897 2-2 2s-2-.897-2-2 .897-2 2-2 2 .897 2 2zm.991.088c.001-.03.009-.058.009-.088 0-.59-.177-1.137-.473-1.602l4.6-4.073A2.97 2.97 0 0 0 17 19c.342 0 .666-.07.972-.176l3.183 5.829a2.996 2.996 0 0 0-.95 1.278l-9.214-1.843zM23 25c1.103 0 2 .897 2 2s-.897 2-2 2-2-.897-2-2 .897-2 2-2zm.229-.977c-.077-.006-.15-.023-.229-.023-.34 0-.662.07-.968.174l-3.183-5.83A2.984 2.984 0 0 0 20 16c0-.303-.059-.59-.143-.866l4.736-2.36a3 3 0 0 0 1.205.97l-2.569 10.28zM3.706 8.587l-1.449 1.449.707.707 1.449-1.449c.456.342.996.57 1.587.656V12h1V9.95a3.463 3.463 0 0 0 1.587-.656l1.449 1.449.707-.707-1.449-1.449c.342-.456.57-.996.656-1.587H12V6H9.95a3.463 3.463 0 0 0-.656-1.587l1.449-1.449-.707-.707-1.449 1.448A3.463 3.463 0 0 0 7 3.05V1H6v2.05c-.59.086-1.13.314-1.587.655L2.964 2.257l-.707.707 1.449 1.449c-.342.456-.57.996-.656 1.587H1v1h2.05c.086.59.314 1.13.656 1.587zM6.5 4a2.5 2.5 0 1 1-.001 5.001A2.5 2.5 0 0 1 6.5 4z"/><path fill="none" d="M0 0h32v32H0z"/></svg>