<svg xmlns="http://www.w3.org/2000/svg" viewBox="0 0 24 24"><path opacity=".5" d="M6 9.5A2.5 2.5 0 1 0 3.5 12 2.503 2.503 0 0 0 6 9.5zM2 10V9a1 1 0 0 1 1-1h1a1 1 0 0 1 1 1v1a1 1 0 0 1-1 1H3a1 1 0 0 1-1-1zm10.5-1a2.5 2.5 0 1 0 2.5 2.5A2.503 2.503 0 0 0 12.5 9zm1.5 3a1 1 0 0 1-1 1h-1a1 1 0 0 1-1-1v-1a1 1 0 0 1 1-1h1a1 1 0 0 1 1 1zm0-8.5A2.5 2.5 0 1 0 11.5 6 2.503 2.503 0 0 0 14 3.5zM10 4V3a1 1 0 0 1 1-1h1a1 1 0 0 1 1 1v1a1 1 0 0 1-1 1h-1a1 1 0 0 1-1-1zm10.5 1a2.5 2.5 0 1 0 2.49 2.5A2.503 2.503 0 0 0 20.5 5zM22 8a1 1 0 0 1-1 1h-1a1 1 0 0 1-1-1V7a1 1 0 0 1 1-1h1a1 1 0 0 1 1 1zM5.5 16A2.5 2.5 0 1 0 8 18.5 2.503 2.503 0 0 0 5.5 16zM7 19a1 1 0 0 1-1 1H5a1 1 0 0 1-1-1v-1a1 1 0 0 1 1-1h1a1 1 0 0 1 1 1zm10.5-1a2.5 2.5 0 1 0 2.49 2.5A2.503 2.503 0 0 0 17.5 18zm1.5 3a1 1 0 0 1-1 1h-1a1 1 0 0 1-1-1v-1a1 1 0 0 1 1-1h1a1 1 0 0 1 1 1z"/><path d="M17.881 21.07l3.2-13.86-9.646-4.286-8.493 6.37 2.143 9.643zm-4.69-9.356l6.583-3.292-2.469 10.698zm3.369 8.122l-10.02-1.67 5.845-5.844zm-3.652-9.1l-.802-6.42 7.222 3.21zm-.992.122L4.67 9.248l6.44-4.831zm-.413.932L5.79 17.502 4.159 10.16z"/><path fill="none" d="M0 0h24v24H0z"/></svg>