<svg xmlns="http://www.w3.org/2000/svg" viewBox="0 0 32 32"><path stroke-width="0" fill="none" d="M0 0h32v32H0z"/><path d="M28 17c-.601 0-1.135.272-1.502.694l-2.546-1.268A2 2 0 0 0 24 16a1.995 1.995 0 1 0-3.991 0c0 .37.107.712.281 1.01l-2.282 2.272A1.977 1.977 0 0 0 17 19a1.995 1.995 0 0 0-.183 3.982l.37 2.198A1.99 1.99 0 0 0 16.036 27c0 1.103.861 2 1.964 2a2 2 0 0 0 1.855-1.264l4.171.521c.128.98.96 1.743 1.974 1.743 1.103 0 2-.897 2-2 0-.775-.448-1.44-1.094-1.773l1.164-5.234A1.999 1.999 0 0 0 30 19c0-1.103-.897-2-2-2zm-4.505.315l2.55 1.27A1.995 1.995 0 0 0 26 19c0 .197.037.383.09.563l-1.689 1.013a1.99 1.99 0 0 0-1.225-.558l-.367-2.193a2 2 0 0 0 .686-.51zM24 21.2v1.6a.2.2 0 0 1-.2.2h-1.6a.2.2 0 0 1-.2-.2v-1.6c0-.11.09-.2.2-.2h1.6c.11 0 .2.09.2.2zm-3-4.7v-1.3c0-.11.09-.2.2-.2h1.6c.11 0 .2.09.2.2v1.6a.2.2 0 0 1-.2.2h-1.6a.2.2 0 0 1-.2-.2v-.3zm-.004 1.218c.246.146.526.237.826.264l.366 2.194c-.45.201-.812.563-1.013 1.013l-2.193-.364a1.976 1.976 0 0 0-.266-.836l2.28-2.27zM16.5 22h-.3a.2.2 0 0 1-.2-.2v-1.6c0-.11.09-.2.2-.2h1.6c.11 0 .2.09.2.2v1.6a.2.2 0 0 1-.2.2h-1.3zm2.5 4.5v1.3a.2.2 0 0 1-.2.2h-1.6a.2.2 0 0 1-.2-.2v-1.6c0-.11.09-.2.2-.2h1.6c.11 0 .2.09.2.2v.3zm.013-1.214a1.976 1.976 0 0 0-.839-.268l-.368-2.19a2.013 2.013 0 0 0 1.018-1.016l2.194.365c.027.306.12.591.27.842l-2.275 2.267zm5.132 1.978l-4.171-.521a1.974 1.974 0 0 0-.258-.752l2.275-2.275c.297.176.64.284 1.009.284.15 0 .293-.02.433-.05l1.263 2.546c-.24.209-.432.468-.551.768zM27 27.2v1.6a.2.2 0 0 1-.2.2h-1.6a.2.2 0 0 1-.2-.2v-1.6c0-.11.09-.2.2-.2h1.6c.11 0 .2.09.2.2zm-1.07-1.193a2.005 2.005 0 0 0-.348.039L24.309 23.5c.42-.367.691-.9.691-1.5a1.98 1.98 0 0 0-.09-.563l1.689-1.013c.144.142.313.255.495.349l-1.164 5.234zM29 18.5v1.3a.2.2 0 0 1-.2.2h-1.6a.2.2 0 0 1-.2-.2v-1.6c0-.11.09-.2.2-.2h1.6c.11 0 .2.09.2.2v.3zM4 23.49v-7.987c2.034 1.58 6.873 2.44 11.5 2.44a38 38 0 0 0 2.521-.085l.962-.858a35.372 35.372 0 0 1-3.483.169c-7.125 0-11.5-2.05-11.5-3.344V8.596C6.034 10.101 10.873 11 15.5 11s9.466-.9 11.5-2.404v5.23c0 .515-.71 1.135-2 1.694v.311l.34.169h.863c.294-.158.57-.32.797-.497V16h1V7c0-2.533-6.44-4-12.5-4S3.009 4.467 3.009 7L3 23.49c0 2.74 6.091 4.343 12 4.43v-.847c-6.505-.097-11-2.043-11-3.584zM15.5 3.918C22.625 3.919 27 5.789 27 7s-4.375 3.081-11.5 3.081S4 8.211 4 7s4.375-3.081 11.5-3.081z" stroke-width="0"/></svg>