<svg xmlns="http://www.w3.org/2000/svg" viewBox="0 0 32 32"><path d="M3 19V5h24v11.18c.314-.112.648-.18 1-.18V3c0-.551-.449-1-1-1H3c-.551 0-1 .449-1 1v16c0 .551.449 1 1 1h11.184c.133-.374.336-.711.596-1zM3 3h24v1H3zm10 12h1v1H6V7h1v8h1v-4h1v4h1V9h1v6h1v-5h1zm4-7h1v1h-1zm2 0h5v1h-5zm-2 3h1v1h-1zm2 0h5v1h-5zm-2 3h1v1h-1zm2 0h.78c-.26.289-.463.626-.596 1H19zm9 3c-.602 0-1.135.272-1.502.694l-2.546-1.268q.047-.206.048-.426c0-1.103-.897-2-2-2s-2 .897-2 2c0 .372.109.716.286 1.014l-2.278 2.268A2 2 0 0 0 17 19c-1.103 0-1.99.897-1.99 2 0 1.04.79 1.887 1.807 1.982l.37 2.195A2 2 0 0 0 16 27c0 1.103.897 2 2 2a2 2 0 0 0 1.856-1.264l4.17.521c.128.98.96 1.743 1.974 1.743 1.103 0 1.99-.897 1.99-2 0-.775-.438-1.44-1.084-1.773l1.163-5.234A2 2 0 0 0 30 19c0-1.103-.897-2-2-2m1 2.5a.5.5 0 0 1-.5.5h-1a.5.5 0 0 1-.5-.5v-1a.5.5 0 0 1 .5-.5h1a.5.5 0 0 1 .5.5zm-2 8v1a.5.5 0 0 1-.5.5h-1a.5.5 0 0 1-.5-.5v-1a.5.5 0 0 1 .5-.5h1a.5.5 0 0 1 .5.5m-8 0a.5.5 0 0 1-.5.5h-1a.5.5 0 0 1-.5-.5v-1a.5.5 0 0 1 .5-.5h1a.5.5 0 0 1 .5.5zm-3-6v-1a.5.5 0 0 1 .5-.5h1a.5.5 0 0 1 .5.5v1a.5.5 0 0 1-.5.5h-1a.5.5 0 0 1-.5-.5m2.824.312 2.194.365c.027.306.12.591.27.842l-2.275 2.266a2 2 0 0 0-.84-.267l-.368-2.19c.453-.2.817-.564 1.02-1.016zM21 15.5a.5.5 0 0 1 .5-.5h1a.5.5 0 0 1 .5.5v1a.5.5 0 0 1-.5.5h-1a.5.5 0 0 1-.5-.5zm1 6a.5.5 0 0 1 .5-.5h1a.5.5 0 0 1 .5.5v1a.5.5 0 0 1-.5.5h-1a.5.5 0 0 1-.5-.5zm-2.283 4.49 2.273-2.273c.298.175.64.283 1.01.283.149 0 .293-.02.433-.05l1.263 2.546c-.24.208-.432.468-.552.768l-4.17-.521a2 2 0 0 0-.257-.753m5.865.056L24.309 23.5c.42-.367.691-.9.691-1.5a2 2 0 0 0-.09-.563l1.689-1.013c.144.142.313.256.495.349l-1.164 5.234a2 2 0 0 0-.348.039m.463-7.46A2 2 0 0 0 26 19c0 .197.037.383.09.563l-1.689 1.013a2 2 0 0 0-1.225-.558l-.366-2.193c.265-.118.495-.294.685-.51l2.55 1.27zm-5.05-.867c.247.145.527.236.827.263l.366 2.194c-.45.201-.812.563-1.013 1.014l-2.193-.365a2 2 0 0 0-.266-.837l2.28-2.269z"/><path fill="none" d="M0 0h32v32H0z"/></svg>