<svg xmlns="http://www.w3.org/2000/svg" viewBox="0 0 24 24"><path d="M6.424 21.8A13.1 13.1 0 0 1 1 20.783L4.05 3.078a15 15 0 0 0 4.52.722c3.849 0 3.893-1.6 7.74-1.6a12.7 12.7 0 0 1 4.52.878l3.051 18.105a13.1 13.1 0 0 0-5.423-1.017l-.11.002a2.5 2.5 0 0 0 .546-.987 16.3 16.3 0 0 1 3.721.505L19.941 3.815a11.9 11.9 0 0 0-3.63-.615 7.8 7.8 0 0 0-3.49.725 9.8 9.8 0 0 1-4.25.875 16.2 16.2 0 0 1-3.723-.457L2.124 20.15a13.7 13.7 0 0 0 4.3.65 22 22 0 0 0 5.783-.79 52 52 0 0 1 1.646-.373l.459.065a2.5 2.5 0 0 0 .653.744c-2.813.466-4.674 1.354-8.541 1.354m8.606-3.005-4.208-.601a1.495 1.495 0 1 1-2.088-1.976l-.448-2.24a1.496 1.496 0 1 1 .856-2.828l2.008-2.007A1.5 1.5 0 0 1 11 8.5a1.5 1.5 0 1 1 2.97.299l2.581 1.549A1.5 1.5 0 0 1 17.5 10a1.5 1.5 0 0 1 .295 2.97l-.601 4.208a1.497 1.497 0 1 1-2.164 1.617M10 18v-1H9v1zm-2-5h1v-1H8zm4-5v1h1V8zm5 3v1h1v-1zm-.795 6.03.601-4.208a1.5 1.5 0 0 1-.344-.244l-1.48.74a1.35 1.35 0 0 1-.33 1.13l1.55 2.582zM14 14v-1h-1v1zm2-2.5a1.5 1.5 0 0 1 .03-.299l-2.58-1.549a1.5 1.5 0 0 1-.183.13l.448 2.24a1.5 1.5 0 0 1 .824.4l1.48-.74A2 2 0 0 1 16 11.5m-4.143-1.65L9.85 11.858a1.5 1.5 0 0 1 .128.428l2.24.448a1.5 1.5 0 0 1 .516-.516l-.448-2.24a1.5 1.5 0 0 1-.429-.128m-2.59 3.932.447 2.24a1.5 1.5 0 0 1 .434.131l2.012-1.993a1.5 1.5 0 0 1-.138-.446l-2.24-.448a1.5 1.5 0 0 1-.516.516zm1.703 3.423 4.208.6a1.5 1.5 0 0 1 .174-.26l-1.532-2.581a1.44 1.44 0 0 1-.962-.114l-2.008 2.007a1.5 1.5 0 0 1 .12.348M16 19h1v-1h-1z"/><path fill="none" d="M0 0h24v24H0z"/></svg>