<svg xmlns="http://www.w3.org/2000/svg" viewBox="0 0 16 16"><path d="M8 4c-1.103 0-2-.897-2-2s.897-2 2-2 2 .897 2 2-.897 2-2 2m0-3c-.551 0-1 .449-1 1s.449 1 1 1 1-.449 1-1-.449-1-1-1m6 6c-1.103 0-2-.897-2-2s.897-2 2-2 2 .897 2 2-.897 2-2 2m0-3c-.551 0-1 .449-1 1s.449 1 1 1 1-.449 1-1-.449-1-1-1M3 9c-1.103 0-2-.897-2-2s.897-2 2-2 2 .897 2 2-.897 2-2 2m0-3c-.551 0-1 .449-1 1s.449 1 1 1 1-.449 1-1-.449-1-1-1m6 4c-1.103 0-2-.897-2-2s.897-2 2-2 2 .897 2 2-.897 2-2 2m0-3c-.551 0-1 .449-1 1s.449 1 1 1 1-.449 1-1-.449-1-1-1m3 9c-1.103 0-2-.897-2-2s.897-2 2-2 2 .897 2 2-.897 2-2 2m0-3c-.551 0-1 .449-1 1s.449 1 1 1 1-.449 1-1-.449-1-1-1m-8 2c-1.103 0-2-.897-2-2s.897-2 2-2 2 .897 2 2-.897 2-2 2m0-3c-.551 0-1 .449-1 1s.449 1 1 1 1-.449 1-1-.449-1-1-1" opacity=".5"/><path d="m2.455 6.828 1.114 6.622 8.82 1.103 2.184-9.826L7.9 1.406zm5.52 1.508-3.642 3.627L3.6 7.608zm-3.94-1.67 3.631-3.615.725 4.34-4.357-.724zM8.876 8.83l2.261 4.558-6.061-.758zm.777-.64 3.606-2.163-1.443 6.49zm-.282-.997-.717-4.296 4.305 2.144z"/><path fill="none" d="M0 0h16v16H0z"/></svg>