<svg xmlns="http://www.w3.org/2000/svg" viewBox="0 0 24 24"><path d="M3.5 12c.015 0 .028-.004.042-.004l.94 4.226a2.497 2.497 0 1 0 3.345 3.173l7.182 1.197a2.491 2.491 0 1 0 3.527-2.36l1.902-8.238c.021 0 .04.006.062.006a2.5 2.5 0 1 0-2.03-3.95l-4.53-2.012a2.5 2.5 0 1 0-4.692.528L5.151 7.637A2.495 2.495 0 1 0 3.5 12m1.018-.222a2.5 2.5 0 0 0 1.26-1.26l4.226.94c0 .014-.004.027-.004.042a2.5 2.5 0 0 0 .416 1.377l-3.54 3.54A2.5 2.5 0 0 0 5.5 16l-.042.004zm7.184-2.635a2.5 2.5 0 0 0-1.48 1.339l-4.226-.94L6 9.5a2.5 2.5 0 0 0-.247-1.065l4.096-3.072a2.48 2.48 0 0 0 1.457.617zM14 11v1a1 1 0 0 1-1 1h-1a1 1 0 0 1-1-1v-1a1 1 0 0 1 1-1h1a1 1 0 0 1 1 1m1.173 8.605L7.99 18.408a2.5 2.5 0 0 0-.407-1.285l3.54-3.54a2.4 2.4 0 0 0 2.123.29l2.632 4.74a2.5 2.5 0 0 0-.706.992zM6 20H5a1 1 0 0 1-1-1v-1a1 1 0 0 1 1-1h1a1 1 0 0 1 1 1v1a1 1 0 0 1-1 1m13 0v1a1 1 0 0 1-1 1h-1a1 1 0 0 1-1-1v-1a1 1 0 0 1 1-1h1a1 1 0 0 1 1 1m-1.438-1.994c-.02 0-.04-.006-.062-.006a2.5 2.5 0 0 0-.747.127l-2.632-4.74a2.41 2.41 0 0 0 .784-2.53l3.638-1.82a2.5 2.5 0 0 0 .92.731zM20 6h1a1 1 0 0 1 1 1v1a1 1 0 0 1-1 1h-1a1 1 0 0 1-1-1V7a1 1 0 0 1 1-1m-1.939.963a2.3 2.3 0 0 0 .034 1.18l-3.638 1.82a2.48 2.48 0 0 0-1.763-.943l-.396-3.163a2.5 2.5 0 0 0 1.231-.908zM10 4V3a1 1 0 0 1 1-1h1a1 1 0 0 1 1 1v1a1 1 0 0 1-1 1h-1a1 1 0 0 1-1-1M2 9a1 1 0 0 1 1-1h1a1 1 0 0 1 1 1v1a1 1 0 0 1-1 1H3a1 1 0 0 1-1-1z"/><path fill="none" d="M0 0h24v24H0z"/></svg>