<svg xmlns="http://www.w3.org/2000/svg" viewBox="0 0 24 24"><path d="M6 5H5V4h1v1zm2-1H7v1h1V4zm2.001.001l-1-.001-.002 1 1 .001.002-1zM6 9H5V8h1v1zm2-1H7v1h1V8zm2.001.001l-1-.001-.002 1 1 .001.002-1zM9.999 13l-1-.001.002-1 1 .001-.002 1zM6 12H5v1h1v-1zm2 0H7v1h1v-1zM2 2v13h8.48c.07-.34.18-.68.31-1H3v-3h10.19c.66-.47 1.41-.81 2.22-1H3V7h18v3h-2.41c.81.19 1.56.53 2.22 1H22V2H2zm1 4V3h18v3H3zm19.34 9.19c-.25.27-.56.49-.9.62.327 1.802-.619 3.813-2.469 4.731 1.72-2.246 2.1-4.37 2.126-5.667.53-.231.903-.76.903-1.374 0-.827-.673-1.5-1.5-1.5-.6 0-1.116.357-1.355.867-2.813-.093-4.899 1.277-6.038 2.287-.115-.05-.229-.104-.357-.124.11-.33.26-.64.45-.93a4.496 4.496 0 0 1 5.16-1.89c.19-.32.45-.59.75-.79a5.503 5.503 0 0 0-7.47 3.86c-.39.26-.64.71-.64 1.22 0 .83.67 1.5 1.5 1.5s1.5-.67 1.5-1.5c0-.237-.07-.452-.17-.651 1.019-.886 2.822-2.032 5.22-1.984.131.52.533.928 1.047 1.073-.039 1.194-.423 3.13-2.056 5.173A1.492 1.492 0 0 0 17.5 20c-.62 0-1.15.37-1.37.91a4.422 4.422 0 0 1-2.93-2.01c-.36.115-.813.126-1.12.06a5.454 5.454 0 0 0 3.99 2.96c.17.62.75 1.08 1.43 1.08.79 0 1.43-.6 1.49-1.38 2.62-1.01 4.023-3.859 3.35-6.43zM13 17h-1v-1h1v1zm7-4h1v1h-1v-1zm-2 9h-1v-1h1v1z"/><path fill="none" d="M0 0h24v24H0z"/></svg>