<svg xmlns="http://www.w3.org/2000/svg" viewBox="0 0 24 24"><path d="m19.5 12.006 2.84 2.627-.68.734L20 13.831V23h-1v-9.17l-1.66 1.536-.68-.734zM15 17a1.995 1.995 0 0 1-3.971.284l-5.165-.574a1.997 1.997 0 1 1-2.6-2.566l-.521-4.17a1.995 1.995 0 1 1 1.42-3.594l3.034-2.53A2 2 0 0 1 7 3a2 2 0 0 1 4 0 2 2 0 0 1-.078.523l3.648 2.084A1.999 1.999 0 1 1 16 9c-.026 0-.05-.007-.076-.008l-1.89 6.304A2 2 0 0 1 15 17m-1-.5a.5.5 0 0 0-.5-.5h-1a.5.5 0 0 0-.5.5v1a.5.5 0 0 0 .5.5h1a.5.5 0 0 0 .5-.5zm-9-1a.5.5 0 0 0-.5-.5h-1a.5.5 0 0 0-.5.5v1a.5.5 0 0 0 .5.5h1a.5.5 0 0 0 .5-.5zM2.5 9h1a.5.5 0 0 0 .5-.5v-1a.5.5 0 0 0-.5-.5h-1a.5.5 0 0 0-.5.5v1a.5.5 0 0 0 .5.5M8 3.5a.5.5 0 0 0 .5.5h1a.5.5 0 0 0 .5-.5v-1a.5.5 0 0 0-.5-.5h-1a.5.5 0 0 0-.5.5zm-.163 1.12L4.803 7.15A2 2 0 0 1 5 8c0 .017-.005.033-.005.05l3.289.94a2 2 0 0 1 .947-.835l-.454-3.178a2 2 0 0 1-.94-.357M10.5 9h-1a.5.5 0 0 0-.5.5v1a.5.5 0 0 0 .5.5h1a.5.5 0 0 0 .5-.5v-1a.5.5 0 0 0-.5-.5m-6.764.856.521 4.17a2 2 0 0 1 .758.26l3.278-3.259A2 2 0 0 1 8 10c0-.017.005-.033.005-.05l-3.289-.94a2 2 0 0 1-.98.846m2.235 5.86 5.165.574a2 2 0 0 1 .649-.867l-1.472-3.455a1.84 1.84 0 0 1-1.323-.251L5.717 14.99a2 2 0 0 1 .254.726m8.996-7.012a2 2 0 0 1-.467-.395l-2.546 1.273a1.97 1.97 0 0 1-.735 1.992L12.7 15.03A2 2 0 0 1 13 15c.026 0 .05.007.075.008zM15 6.5v1a.5.5 0 0 0 .5.5h1a.5.5 0 0 0 .5-.5v-1a.5.5 0 0 0-.5-.5h-1a.5.5 0 0 0-.5.5m-4.57-2.107a2 2 0 0 1-.661.452l.453 3.178a2 2 0 0 1 1.278.668l2.546-1.273A2 2 0 0 1 14 7a2 2 0 0 1 .078-.523z"/><path fill="none" d="M0 0h24v24H0z"/></svg>