<svg xmlns="http://www.w3.org/2000/svg" viewBox="0 0 32 32"><path d="M27 3.9 31 28s-2.965-.764-7.256-.797a3 3 0 0 0 .235-.996 37 37 0 0 1 5.796.521L26.124 4.73a26.3 26.3 0 0 0-5.05-.518c-2.474 0-3.842.394-5.29.81-1.445.417-2.94.847-5.445.847a15.6 15.6 0 0 1-4.544-.65L2.108 27.433a16 16 0 0 0 6.43 1.366c3.28 0 5.162-.608 7.155-1.252a41 41 0 0 1 2.157-.648l.323.064c.097.283.236.545.407.784-3.176.762-5.194 2.052-10.042 2.052C4.093 29.8 1 28 1 28L5 3.9c.7.233 2.519.968 5.34.968 4.807 0 5.59-1.657 10.734-1.657 3.26 0 5.926.689 5.926.689M21 28a1.997 1.997 0 0 1-1.989-1.888l-6.218-1.243A2 2 0 0 1 11 26c-1.103 0-2-.897-2-2 0-.756.427-1.408 1.048-1.748l-1.064-4.254A2 2 0 0 1 7 16c0-1.103.897-2 2-2 .425 0 .818.135 1.142.362l4.068-3.487A2 2 0 0 1 14 10c0-1.103.897-2 2-2s2 .897 2 2c0 .21-.041.407-.101.597l4.728 2.955c.36-.34.84-.552 1.373-.552 1.103 0 2 .897 2 2s-.897 2-2 2l-.027-.003-1.984 7.275A1.99 1.99 0 0 1 22.99 26c0 1.103-.887 2-1.99 2m-.5-1h1a.5.5 0 0 0 .5-.5v-1a.5.5 0 0 0-.5-.5h-1a.5.5 0 0 0-.5.5v1a.5.5 0 0 0 .5.5M12 23.5a.5.5 0 0 0-.5-.5h-1a.5.5 0 0 0-.5.5v1a.5.5 0 0 0 .5.5h1a.5.5 0 0 0 .5-.5zM8.5 17h1a.5.5 0 0 0 .5-.5v-1a.5.5 0 0 0-.5-.5h-1a.5.5 0 0 0-.5.5v1a.5.5 0 0 0 .5.5m6.5-6.5a.5.5 0 0 0 .5.5h1a.5.5 0 0 0 .5-.5v-1a.5.5 0 0 0-.5-.5h-1a.5.5 0 0 0-.5.5zm8 4v1a.5.5 0 0 0 .5.5h1a.5.5 0 0 0 .5-.5v-1a.5.5 0 0 0-.5-.5h-1a.5.5 0 0 0-.5.5m-1 .5c0-.21.041-.407.101-.597l-4.728-2.955a2 2 0 0 1-.637.408l.521 4.17a2 2 0 0 1 1.318.755l3.455-1.48c-.015-.1-.03-.198-.03-.301m-4.5 2h-1a.5.5 0 0 0-.5.5v1a.5.5 0 0 0 .5.5h1a.5.5 0 0 0 .5-.5v-1a.5.5 0 0 0-.5-.5m-2.642-5.362-4.068 3.487c.128.26.206.55.208.86l4.254 1.063a2 2 0 0 1 1.012-.904l-.521-4.17a2 2 0 0 1-.885-.336m-4.906 6.11 1.064 4.254c.366.003.706.11 1.001.285l3.28-3.253a2 2 0 0 1-.295-1.019l-4.254-1.063a2 2 0 0 1-.796.796m3.037 6.14 6.218 1.243c.119-.244.285-.458.489-.635l-2.257-4.548A2 2 0 0 1 17 20c-.37 0-.712-.108-1.01-.283l-3.273 3.273c.157.267.253.571.272.898m10.022-7.16a2 2 0 0 1-.586-.51L18.97 17.7c.015.099.03.197.03.3 0 .6-.271 1.133-.691 1.5l2.273 4.546A2 2 0 0 1 21 24l.027.003z"/><path fill="none" d="M0 0h32v32H0z"/></svg>