<svg xmlns="http://www.w3.org/2000/svg" viewBox="0 0 32 32"><path d="M18.707 2.293a1 1 0 0 0-1.414 0l-14 14A1 1 0 0 0 3 17v7a1 1 0 0 0 .293.707l3.023 3.023c-.367.968-.812 1.52-1.275 1.52-.759 0-1.375-.938-1.549-1.299l-.903.43c.036.076.903 1.869 2.452 1.869.837 0 1.517-.596 2.041-1.754l.211.211A1 1 0 0 0 8 29h7a1 1 0 0 0 .707-.293l14-14a1 1 0 0 0 0-1.414zM15 28H8l-.54-.54c.117-.39.227-.807.321-1.278a3 3 0 0 1 .113-.398 3.049 3.049 0 1 0-.869-.542 4.4 4.4 0 0 0-.224.742q-.071.35-.15.667L4 24v-7L18 3l11 11zm-6.323-4.912a5 5 0 0 0-1.168 1.232 2.048 2.048 0 1 1 .83.56 4.1 4.1 0 0 1 .904-.968zm1.212-6.824 8.474-8.476.85.849-8.476 8.474zm2.5 2.549 8.475-8.477.85.85-8.476 8.476zm2.5 2.548 8.475-8.474.848.85-8.474 8.473z"/><path fill="none" d="M0 0h32v32H0z"/></svg>