<svg xmlns="http://www.w3.org/2000/svg" viewBox="0 0 24 24"><path d="m22.783 11.413-4.768 4.768-.707-.707 4.585-4.585-7.782-7.782-4.585 4.585-.707-.706 4.768-4.769a.74.74 0 0 1 1.048 0l8.148 8.148a.74.74 0 0 1 0 1.048m-3.57-.877-.706-.707-3.423 3.422.708.707zm-8.171-1.328.707.708 3.422-3.423-.707-.707zm2.021 2.022.707.707 3.422-3.422-.707-.707zM2.353 2.646l20 20-.706.707-5.403-5.402-3.831 3.832a.74.74 0 0 1-.524.217H6.704a.7.7 0 0 1-.315-.077 1.85 1.85 0 0 1-1.608 1.215c-1.292 0-1.991-1.455-2.02-1.517l-.085-.18 1.037-.494.086.18c.136.28.553.86.982.86.209 0 .475-.28.722-.881L3.217 18.82A.74.74 0 0 1 3 18.296v-5.185a.74.74 0 0 1 .217-.523l3.832-3.832-5.403-5.402zm13.184 14.598-1.516-1.516-.73.73-.707-.707.73-.73L12 13.707l-.73.73-.707-.707.73-.73-1.314-1.314-.73.73-.707-.708.73-.73-1.516-1.515L4 13.218v4.971l1.832 1.832c.024-.106.05-.207.072-.322.017-.083.044-.156.066-.235a2.483 2.483 0 1 1 1.056.488 10 10 0 0 1-.258 1.005l.043.043h4.97zM6.39 18.5a4 4 0 0 1 1.004-1.098l.165-.115.65.946-.161.114a2.9 2.9 0 0 0-.61.647c.021 0 .04.006.062.006a1.515 1.515 0 1 0-1.11-.5"/><path fill="none" d="M0 0h24v24H0z"/></svg>