<svg xmlns="http://www.w3.org/2000/svg" viewBox="0 0 16 16"><path d="M10.322 4.223l.567.566-2.142 2.142-.566-.566zm5.526 2.632l-5.704-5.703a.518.518 0 0 0-.733 0L6.19 4.373l.707.708 2.88-2.88L14.8 7.22l-2.88 2.882.706.707 3.222-3.222a.516.516 0 0 0 0-.733zm-2.95-.056l-.566-.567-2.14 2.143.565.565zM2.354 2.646l12 12-.707.707-2.782-2.781-2.276 2.276a.517.517 0 0 1-.366.152h-3.63a.519.519 0 0 1-.367-.152l-.2-.2c-.1.614-.315 1.274-1.153 1.274h-.025a1.826 1.826 0 0 1-1.657-1.59l.696-.102c.062.268.294.98.972.99.323-.001.414-.177.522-.993l.027-.197-1.256-1.257A.517.517 0 0 1 2 12.406V8.777a.517.517 0 0 1 .152-.367l2.276-2.275-2.782-2.781zm7.804 9.219L5.135 6.842 3 8.977v3.23l.71.71c.015-.028.024-.059.04-.087a5.596 5.596 0 0 1 .548-.792 2.03 2.03 0 1 1 .47.527 4.821 4.821 0 0 0-.407.605 1.714 1.714 0 0 0-.103.295l.534.535h3.23zm-4.416-.33a7.858 7.858 0 0 0-.296.275A.973.973 0 0 0 6 12a1 1 0 1 0-1-1 .959.959 0 0 0 .045.222c.106-.1.198-.182.256-.232z"/><path fill="none" d="M0 0h16v16H0z"/></svg>