<svg xmlns="http://www.w3.org/2000/svg" viewBox="0 0 32 32"><path d="M13 18H6.167A3.17 3.17 0 0 1 3 14.833V6.167A3.17 3.17 0 0 1 6.167 3h8.666A3.17 3.17 0 0 1 18 6.167V13h-1V6.167A2.17 2.17 0 0 0 14.833 4H6.167A2.17 2.17 0 0 0 4 6.167v8.666A2.17 2.17 0 0 0 6.167 17H13zm-.003-2.437a11.2 11.2 0 0 1-2.481-1.932 11.3 11.3 0 0 1-3.297 2.396l-.438-.9a10.3 10.3 0 0 0 3.067-2.267A12.5 12.5 0 0 1 7.552 8H6V7h4.292L8.978 5.685l.707-.707L11.706 7H15v1h-1.518a12.5 12.5 0 0 1-2.303 4.868 10.3 10.3 0 0 0 2.267 1.798 4.4 4.4 0 0 0-.45.897zM12.445 8H8.584a11.5 11.5 0 0 0 1.922 4.074A11.5 11.5 0 0 0 12.445 8M29 25.885v-8.77A3.12 3.12 0 0 0 25.885 14h-8.77A3.12 3.12 0 0 0 14 17.115v8.77A3.12 3.12 0 0 0 17.115 29h8.77A3.12 3.12 0 0 0 29 25.885M25.885 15A2.12 2.12 0 0 1 28 17.115v8.77A2.12 2.12 0 0 1 25.885 28h-8.77A2.12 2.12 0 0 1 15 25.885v-8.77A2.12 2.12 0 0 1 17.115 15zm-2.053 8h-4.664l-1.726 3.275-.884-.466 4.942-9.382 4.942 9.382-.884.466zm-.527-1L21.5 18.573 19.695 22z"/><path fill="none" d="M0 0h32v32H0z"/></svg>