<svg xmlns="http://www.w3.org/2000/svg" viewBox="0 0 16 16"><path d="M5 9H1.833A.834.834 0 0 1 1 8.167V1.833A.834.834 0 0 1 1.833 1h6.334A.834.834 0 0 1 9 1.833V5h1V1.833A1.835 1.835 0 0 0 8.167 0H1.833A1.835 1.835 0 0 0 0 1.833v6.334A1.835 1.835 0 0 0 1.833 10H5zm1.733-3.956A6.5 6.5 0 0 0 7.179 4H8V3H5.519l.128-.129L4.59 1.813l-.707.707.48.48H2v1h.768a6.2 6.2 0 0 0 1.418 2.414 5.8 5.8 0 0 1-1.79.768l.242.97A6.7 6.7 0 0 0 4.97 7.086l.036.022a2.17 2.17 0 0 1 1.727-2.064M3.83 4h2.284a5.1 5.1 0 0 1-1.148 1.777A5 5 0 0 1 3.83 4m10.362 12H7.808A1.81 1.81 0 0 1 6 14.192V7.808A1.81 1.81 0 0 1 7.808 6h6.384A1.81 1.81 0 0 1 16 7.808v6.384A1.81 1.81 0 0 1 14.192 16M7.808 7A.81.81 0 0 0 7 7.808v6.384a.81.81 0 0 0 .808.808h6.384a.81.81 0 0 0 .808-.808V7.808A.81.81 0 0 0 14.192 7zm5.342 6.94.899-.439L11 7.261l-3.049 6.24.899.44.46-.941h3.38zM9.798 12 11 9.54 12.202 12z"/><path fill="none" d="M0 0h16v16H0z"/></svg>