<?xml version="1.0" encoding="UTF-8"?><svg id="icons" xmlns="http://www.w3.org/2000/svg" viewBox="0 0 32 32"><defs><style>.cls-1{fill:none;}</style></defs><path d="M17.55859,17.97656l.35156-.93555c-2.20923-.82983-4.21948-2.17981-5.9054-3.71692,2.2569-2.4411,3.54688-5.25934,3.99524-7.3241h2v-1h-6.45571l-2.81773-2.98828-.72656.6875,2.16833,2.30078h-6.16833v1h2c.46454,1.9942,2.05255,4.81873,4.55469,7.33026-1.73438,1.65839-3.91901,3.03973-6.52832,3.69318l.24219.9707c2.87573-.72028,5.20557-2.19849,7.02606-3.95081,1.76074,1.61255,3.87799,3.03705,6.26398,3.93323ZM7.02887,5.999h7.94537c-.47784,1.98218-1.7171,4.46246-3.711,6.61243-2.242-2.24487-3.73297-4.75732-4.23438-6.61243ZM28.11328,29.95996l.88672-.46484-7-13.49512-7,13.43848.88281.46875,2.01465-3.90723h8.14325l2.07257,3.95996ZM18.42859,25l3.57141-7,3.51685,7h-7.08826Z"/><rect class="cls-1" width="32" height="32"/></svg>