<?xml version="1.0" encoding="UTF-8"?><svg id="icons" xmlns="http://www.w3.org/2000/svg" viewBox="0 0 16 16"><defs><style>.cls-1{fill:none;}</style></defs><path d="M8.7168,8.95898l.2832-.95898c-1.02936-.30469-2.19403-.84003-3.08368-1.5578,1.05872-1.12488,1.7312-2.39172,2.08368-3.4422h1v-1h-3.42798l-1.37378-1.44824-.72461.6875.72162.76074H1v1h1c.40399,1.03778,1.23175,2.33002,2.41791,3.47729-.841.69641-2.19101,1.21777-3.40891,1.52271l.24219.9707c1.42871-.35797,2.95633-.98706,3.92417-1.81842.99957.82275,2.31677,1.44446,3.54144,1.8067ZM3.08777,3h3.85242c-.34094.87573-.92029,1.8764-1.77551,2.77728-.95618-.91364-1.66461-1.922-2.0769-2.77728ZM14.01855,15.99512l.91016-.41602-3.92871-8.0791-4,8.07227.9043.42773.89838-2h4.30585l.91003,1.99512ZM9.2746,13l1.7254-3.5,1.65234,3.5h-3.37775Z"/><rect class="cls-1" width="16" height="16"/></svg>