<?xml version="1.0" encoding="UTF-8"?><svg id="icons" xmlns="http://www.w3.org/2000/svg" viewBox="0 0 24 24"><defs><style>.cls-1{fill:none;}</style></defs><path d="M13.57422,13.98633l.35156-.93555c-1.6167-.6062-3.15674-1.72058-4.45453-2.98828,1.40936-1.69379,2.19391-3.57825,2.52875-5.0625h2v-1h-4.54633l-1.70563-1.95703-.74805.66406,1.1156,1.29297H3v1h2c.37299,1.48761,1.51233,3.37207,3.09058,5.07428-1.27283,1.31769-2.93536,2.40594-5.01245,2.92572l.24219.9707c2.28406-.57202,4.09833-1.745,5.48297-3.16962,1.41724,1.37122,3.08014,2.55194,4.77094,3.18524ZM6.03009,4.991h4.94489c-.3291,1.26599-1.01868,2.87527-2.21436,4.33676-1.36639-1.49915-2.35083-3.12253-2.73053-4.33676ZM21.10059,22.97461l.88477-.4668-5.44238-10.50781-5.48438,10.53125.88281.46875,1.61243-3h5.95709l1.58966,2.97461ZM14.08527,19l2.45575-4.86523,2.44153,4.86523h-4.89728Z"/><rect class="cls-1" width="24" height="24"/></svg>