<svg xmlns="http://www.w3.org/2000/svg" viewBox="0 0 32 32"><path d="M27.745 14H26.71a18 18 0 0 0-1.041-2.415l.883-.444A19 19 0 0 1 27.745 14M14.097 4.312a8 8 0 0 1 1.338-.112 8.5 8.5 0 0 1 1.605.175l.351-.945a8.8 8.8 0 0 0-3.543-.094zm5.205-.282-.344.927a11.5 11.5 0 0 1 2.384 1.39l.62-.764a12.6 12.6 0 0 0-2.66-1.553m5.356 5.825.886-.446a16.4 16.4 0 0 0-2.063-2.524l-.624.77a15.3 15.3 0 0 1 1.801 2.2M9.86 6.72a6.54 6.54 0 0 1 2.325-1.82l-.253-.99a7.5 7.5 0 0 0-2.858 2.172zm-4.172 9.455.846.531a10.3 10.3 0 0 0 1.405-3.142l-.998-.149a9.4 9.4 0 0 1-1.253 2.76m.532 7.997a4.04 4.04 0 0 1-1.495-1.487l-1.053.14a5.04 5.04 0 0 0 2.348 2.381zm-2.008-3.436c-.002-.062-.01-.118-.01-.181 0-.776.393-1.325 1.13-2.241l-.853-.537A4.3 4.3 0 0 0 3.2 20.556c0 .11.013.208.019.313zm3.136-9.95c-.012.234-.041.44-.063.658l.989.148c.025-.25.06-.488.073-.757a7.5 7.5 0 0 1 .5-2.361l-.818-.665a8.5 8.5 0 0 0-.681 2.977M16 25.695a12 12 0 0 0-2.9-.87v1.014a11.8 11.8 0 0 1 2.9.942zm12.75-6.344A22.6 22.6 0 0 0 28.28 16h-1.017a22 22 0 0 1 .419 2.571zM24.798 23l2.54 5.363-3.232 1.626-2.649-5.511L18 29.215V13.983L30.358 23zm-1.62-1h4.114L19 15.951v10.196l2.611-3.58 2.936 6.08 1.448-.729zM11 24.726q-.624.03-1.18.087a12 12 0 0 1-1.195.088 3.4 3.4 0 0 1-.5-.046l-.191.985a4.5 4.5 0 0 0 .69.061 12 12 0 0 0 1.273-.09q.527-.056 1.103-.085z"/><path fill="none" d="M0 0h32v32H0z"/></svg>