<svg xmlns="http://www.w3.org/2000/svg" viewBox="0 0 32 32"><path d="M22.82 28.8a12.7 12.7 0 0 1-5.953-1.61 11.54 11.54 0 0 0-5.357-1.488 15 15 0 0 0-1.614.108 12 12 0 0 1-1.272.091c-1.508 0-5.424-1.124-5.424-5.345a4.63 4.63 0 0 1 1.437-2.975 10.37 10.37 0 0 0 2.71-6.794A7.76 7.76 0 0 1 15.435 3.2C21.89 3.2 28.8 10.256 28.8 20.76c0 2.418-.583 8.04-5.98 8.04m4.98-8.041C27.8 10.854 21.406 4.2 15.435 4.2a6.795 6.795 0 0 0-7.09 6.636 11.38 11.38 0 0 1-2.932 7.376c-.797.985-1.213 1.537-1.213 2.344 0 3.608 3.49 4.345 4.425 4.345a12 12 0 0 0 1.195-.087 16 16 0 0 1 1.69-.112 12.5 12.5 0 0 1 5.798 1.591A11.8 11.8 0 0 0 22.82 27.8c4.332 0 4.979-4.411 4.979-7.041z"/><path fill="none" d="M0 0h32v32H0z"/></svg>