<svg xmlns="http://www.w3.org/2000/svg" viewBox="0 0 24 24"><path d="M4.495 11.05a8.2 8.2 0 0 0 .695-3.067l.007-.078.965.41a9.3 9.3 0 0 1-.648 2.888zm14.087-5.128-.81.61a12.7 12.7 0 0 1 1.272 1.98l1-.307a13.6 13.6 0 0 0-1.462-2.283m-4.224-2.13a8.1 8.1 0 0 1 2.02 1.285l.825-.62a9.2 9.2 0 0 0-2.6-1.648zm-4.541-.355a6.6 6.6 0 0 1 1.748-.237 7 7 0 0 1 .864.063l.245-.985a8 8 0 0 0-1.109-.078 7.5 7.5 0 0 0-2.023.276zM5.873 18.574a3.68 3.68 0 0 1-2.13-1.012L2.66 17.8a4.5 4.5 0 0 0 3.103 1.776zm-2.861-2.9c-.003-.058-.012-.11-.012-.17 0-.594.314-1.01.917-1.756.168-.208.349-.438.53-.682l-1.13-.169A4.14 4.14 0 0 0 2 15.504c0 .136.012.261.022.389zM6.534 6.3a4.4 4.4 0 0 1 1.458-1.97l-.29-1.016a5.53 5.53 0 0 0-2.078 2.599zm15.084 7.022a17 17 0 0 0-.788-3.266l-.974.299a16 16 0 0 1 .587 2.11zM18.757 17l2.189 4.515-2.894 1.456-2.266-4.621L13 22.17V9.51L23.266 17zm-1.597-1h3.038L14 11.478v7.624l1.954-2.68 2.552 5.201 1.11-.559zM11 18.854a8 8 0 0 0-2.454-.391q-.342.002-.651.026l-.111 1.013c.243-.022.493-.039.763-.039a7.2 7.2 0 0 1 2.453.453z"/><path fill="none" d="M0 0h24v24H0z"/></svg>