<svg xmlns="http://www.w3.org/2000/svg" viewBox="0 0 16 16"><path d="m2.074 10.979-.835.634A2.9 2.9 0 0 1 1 10.453c0-.92.658-1.415 1.261-2.271l.958.363a11 11 0 0 1-.644.867C2.15 9.94 2 10.15 2 10.453a2 2 0 0 0 .074.526M9.538 2.59a5.7 5.7 0 0 1 1.782 1.26l.932-.469a6.57 6.57 0 0 0-2.766-1.875zM3.233 5.188a6.4 6.4 0 0 1-.207 1.359l.939.356a7.4 7.4 0 0 0 .267-1.667 3.6 3.6 0 0 1 .16-.89l-.775-.774a4.4 4.4 0 0 0-.384 1.616m4.485-2.986-.048-1a4.78 4.78 0 0 0-2.932.945l.707.707a3.9 3.9 0 0 1 2.25-.654zm6.757 5.664a11 11 0 0 0-1.157-3.006l-.882.444a9.3 9.3 0 0 1 .726 1.604zm-1.74 3.11 1.838 3.667-2.555 1.285-1.884-3.73L8.018 15.1V5.012L16 10.976zm-1.62-1h2.01L9 6.98v5.053l1.29-1.744 2.17 4.298.771-.388zM6 12.261c-.14-.011-.27-.037-.417-.037a9 9 0 0 0-.964.064 6 6 0 0 1-.59.044 2.8 2.8 0 0 1-.629-.1l-.92.7a3.55 3.55 0 0 0 1.549.4c.48 0 .963-.108 1.554-.108A4 4 0 0 1 6 13.25z"/><path fill="none" d="M0 0h16v16H0z"/></svg>