<svg xmlns="http://www.w3.org/2000/svg" viewBox="0 0 32 32"><path d="M21.074 1.211c-5.144 0-5.927 1.657-10.735 1.657A15 15 0 0 1 5 1.9L1 26a16.3 16.3 0 0 0 7.538 1.8A20.3 20.3 0 0 0 15 26.816V30H3v1h25v-1H16v-3.5a21.4 21.4 0 0 1 7.462-1.3A33.2 33.2 0 0 1 31 26L27 1.9a26.4 26.4 0 0 0-5.926-.689M23.462 24.2a22.4 22.4 0 0 0-7.77 1.348A20.4 20.4 0 0 1 8.539 26.8a16 16 0 0 1-6.43-1.366L5.795 3.217a15.6 15.6 0 0 0 4.544.651 17.4 17.4 0 0 0 5.445-.846 16.6 16.6 0 0 1 5.29-.81 26.3 26.3 0 0 1 5.05.517l3.651 22a37 37 0 0 0-6.313-.529M21.074 4.21a14.8 14.8 0 0 0-4.736.733 19.4 19.4 0 0 1-5.999.925 18 18 0 0 1-2.918-.231L4.348 24.148a14 14 0 0 0 4.19.652 18.5 18.5 0 0 0 6.54-1.155 24.4 24.4 0 0 1 8.384-1.445c1.444 0 2.76.079 3.898.19L24.383 4.458a24 24 0 0 0-3.309-.247zM10.34 6.869a20.2 20.2 0 0 0 6.276-.964 13.8 13.8 0 0 1 4.46-.693 22 22 0 0 1 2.443.143l1.935 11.658a3.7 3.7 0 0 1-.725.09 3.5 3.5 0 0 1-1.147-.2 6.5 6.5 0 0 1-2.827-2.344c-.649-.795-1.261-1.938-2.07-2.355a3.26 3.26 0 0 0-1.524-.242 3.23 3.23 0 0 1-1.828-.382 2.7 2.7 0 0 1-1.06-1.134 2.23 2.23 0 0 0-.97-1.137 2.7 2.7 0 0 0-1.224-.258 9.75 9.75 0 0 0-4.455 1.477l.626-3.77a20 20 0 0 0 2.09.111M23.462 21.2a25.3 25.3 0 0 0-8.693 1.494A17.5 17.5 0 0 1 8.538 23.8a12.8 12.8 0 0 1-3.057-.372l1.964-11.831.025.034a9.94 9.94 0 0 1 4.608-1.681 1.9 1.9 0 0 1 .812.05 2.1 2.1 0 0 1 .58.854 3.64 3.64 0 0 0 1.359 1.472 4.05 4.05 0 0 0 2.326.534 2.7 2.7 0 0 1 1.11.14c.648.334 1.202 1.405 1.79 2.126a7.2 7.2 0 0 0 3.235 2.628 4.4 4.4 0 0 0 1.448.246 3.3 3.3 0 0 0 .859-.125l.567 3.414c-.9-.059-1.805-.089-2.702-.089m-2.461-10.338a.933.933 0 0 1 .968-.775.89.89 0 0 1 .982.726.903.903 0 0 1-.972.854.863.863 0 0 1-.978-.805m-4-3.418a.933.933 0 0 1 .968-.775.89.89 0 0 1 .982.726.903.903 0 0 1-.972.854.863.863 0 0 1-.978-.805"/><path fill="none" d="M0 0h32v32H0z"/></svg>