<svg xmlns="http://www.w3.org/2000/svg" viewBox="0 0 16 16"><path d="M0 0h16v16H0z" style="fill:none"/><path d="M13.867 1.688s-1.423-.674-3.161-.674c-2.69 0-2.724.986-5.412.986-1.738 0-3.161-.512-3.161-.512L0 14.09s1.422.711 3.793.711c3.665 0 4.749-1.6 8.414-1.6 2.37 0 3.793 1.09 3.793 1.09zM7.681 13.052c-1.142.385-2.22.748-3.888.748a9.5 9.5 0 0 1-2.668-.363L2.935 2.74c.623.134 1.45.26 2.359.26 1.519 0 2.33-.293 3.045-.552.642-.233 1.197-.434 2.367-.434.933 0 1.774.23 2.27.399l1.72 10.163a8.3 8.3 0 0 0-2.489-.376c-1.996 0-3.283.433-4.526.852M13 4v7h-1V7.682l-2.646 2.646-.708-.707L10.268 8h-4.6L7.29 9.621l-.707.707L4 7.746V11H3V4h1v3.293L6.583 4.71l.707.707L5.707 7h4.522L8.646 5.417l.708-.707L12 7.357V4z"/></svg>