<?xml version="1.0" encoding="UTF-8"?><svg id="icons" xmlns="http://www.w3.org/2000/svg" viewBox="0 0 32 32"><defs><style>.cls-1{fill:none;}</style></defs><rect class="cls-1" x="0" y="0" width="32" height="32"/><path d="M20,27.46167c-4.08667.65826-5.93134,2.33832-11.46222,2.33832-4.44446,0-7.53778-1.79999-7.53778-1.79999L5,3.89996c.69922.23309,2.5188.96826,5.33917.96826,4.80804,0,5.59076-1.6571,10.73492-1.6571,3.25922,0,5.9259.68884,5.9259.68884l2.67218,16.10004h-1.01349l-2.53467-15.27148c-.9458-.19287-2.8623-.51758-5.0498-.51758-2.47461,0-3.84229.39355-5.29004.81055-1.44531.4165-2.94043.84668-5.44482.84668-2.00537,0-3.52783-.3457-4.54443-.65088l-3.6875,22.2168c1.06055.47949,3.42725,1.36572,6.43018,1.36572,3.28076,0,5.1626-.60791,7.15527-1.25146,1.29089-.41687,2.61115-.84216,4.30713-1.10077v1.0141ZM24,31h-2v-9h2v-1h-3v11h3v-1ZM29,21v1h2v9h-2v1h3v-11h-3Z"/></svg>