<?xml version="1.0" encoding="UTF-8"?><svg id="icons" xmlns="http://www.w3.org/2000/svg" viewBox="0 0 32 32"><defs><style>.cls-1{fill:none;}</style></defs><rect class="cls-1" width="32" height="32"/><path d="M27,4s-2.66675-.68884-5.92578-.68884c-5.14429,0-5.927,1.6571-10.73511,1.6571-2.82031,0-4.63989-.63513-5.33911-.86823L1,28.10004s3.09326,1.79999,7.53784,1.79999c6.87622,0,8.0481-2.59998,14.92432-2.59998,4.44458,0,7.53784.59998,7.53784.59998L27,4ZM15.69287,27.64838c-1.99268.64355-3.87451,1.25146-7.15527,1.25146-3.00293,0-5.36963-.88623-6.43018-1.36572L5.79492,5.31732c1.0166.30518,2.53906.65088,4.54443.65088,2.50439,0,3.99951-.43018,5.44482-.84668,1.44775-.41699,2.81543-.81055,5.29004-.81055,2.1875,0,4.104.32471,5.0498.51758l3.65137,21.99951c-1.36426-.23779-3.58691-.52783-6.31299-.52783-3.5957,0-5.71777.68555-7.76953,1.34814ZM16.24072,8l-6.13086,14h1.10986l1.72852-4h7.21338l1.72827,4h1.11011l-6.1311-14h-.62817ZM16.55493,9.75238l3.13135,7.24762h-6.26294l3.13159-7.24762Z"/></svg>