<svg xmlns="http://www.w3.org/2000/svg" viewBox="0 0 32 32"><path d="m19.075 26.612.122.994c-3.553.731-5.502 2.194-10.66 2.194A16.3 16.3 0 0 1 1 28L5 3.9a15 15 0 0 0 5.34.968c4.807 0 5.59-1.657 10.734-1.657A26.4 26.4 0 0 1 27 3.9l1.178 7.1h-1.013l-1.041-6.271a26 26 0 0 0-5.05-.518 16.6 16.6 0 0 0-5.29.81 17.4 17.4 0 0 1-5.445.847 15.6 15.6 0 0 1-4.544-.65L2.107 27.433a16 16 0 0 0 6.43 1.366 20.4 20.4 0 0 0 7.156-1.252 30 30 0 0 1 3.382-.936zm10.7.116a37 37 0 0 0-4.803-.495l-.122.994A32 32 0 0 1 31 28l-1.935-11.658-.87.868zM30 12v2l-5 5-1.5 11h-3L19 19l-5-5v-2zm-6.146 7h-3.709l1.228 10h1.254zm4.01-4H16.136l3.333 3h5.064zm1.335-2.2H14.801V14h14.398z"/><path fill="none" d="M0 0h32v32H0z"/></svg>