<svg xmlns="http://www.w3.org/2000/svg" viewBox="0 0 24 24"><path d="M16.31 3.2c1.551 0 2.928.38 3.63.615l2.675 15.872a16.3 16.3 0 0 0-4.157-.52c-2.74 0-4.525.429-6.251.844-1.687.406-3.28.789-5.783.789-1.999 0-3.493-.38-4.3-.65L4.848 4.343c.89.215 2.227.457 3.723.457 2.121 0 3.252-.465 4.25-.875.946-.39 1.763-.725 3.49-.725m0-1c-3.848 0-3.892 1.6-7.74 1.6-2.486 0-4.52-.722-4.52-.722L1 20.783S3.034 21.8 6.424 21.8c5.242 0 6.792-1.634 12.034-1.634 3.39 0 5.423 1.017 5.423 1.017l-3.05-18.105S18.797 2.2 16.31 2.2m.417 14.776h1.093L13.013 6.024h-.916L7.289 16.976H8.38L9.688 14h5.734zM10.127 13l2.428-5.53L14.983 13z"/><path d="M0 0h24v24H0z" style="fill:none"/></svg>