<?xml version="1.0" encoding="UTF-8"?><svg id="icons" xmlns="http://www.w3.org/2000/svg" viewBox="0 0 24 24"><defs><style>.cls-1{fill:none;}</style></defs><rect class="cls-1" x="0" width="24" height="24"/><path d="M21.65686,14l-1.71625-10.185c-.7027-.23492-2.07928-.61499-3.62988-.61499-1.7265,0-2.54364.33594-3.48981.72491-.9978.41016-2.12872.87506-4.25031.87506-1.49585,0-2.8324-.24225-3.72302-.45691l-2.72369,15.8067c.80682.26935,2.30121.65021,4.29987.65021,2.50244,0,4.09595-.38336,5.78302-.78918.26147-.06293.52594-.12561.79321-.18762v1.02637c-1.89612.44775-3.66821.95044-6.57623.95044-3.38983,0-5.42377-1.01691-5.42377-1.01691L4.05084,3.07794s2.03394.72205,4.51978.72205c3.84808,0,3.89209-1.59998,7.74011-1.59998,2.4859,0,4.51978.87793,4.51978.87793l1.84045,10.92206h-1.0141ZM14,24h3v-1h-2v-7h2v-1h-3v9ZM21,15v1h2v7h-2v1h3v-9h-3Z"/></svg>