<svg xmlns="http://www.w3.org/2000/svg" viewBox="0 0 16 16"><path stroke-width="0" fill="none" d="M0 0h16v16H0z"/><path d="M15.308 10.2L16 14.29s-1.422-1.09-3.793-1.09c-3.665 0-4.749 1.6-8.414 1.6-2.37 0-3.793-.711-3.793-.711l2.133-12.6S3.556 2 5.293 2c2.688 0 2.722-.986 5.413-.986 1.738 0 3.161.674 3.161.674l.838 4.949a2.201 2.201 0 0 0-1.143-.761l-.586-3.463c-.496-.17-1.337-.399-2.27-.399-1.17 0-1.725.201-2.368.434C7.623 2.707 6.813 3 5.294 3c-.908 0-1.736-.126-2.359-.26l-1.81 10.697a9.538 9.538 0 0 0 2.668.363c1.447 0 2.45-.276 3.435-.6h2.268a3.71 3.71 0 0 0 2.507-.994c.07-.002.133-.006.204-.006.974 0 1.813.164 2.489.376l-.318-1.879a2.2 2.2 0 0 0 .465-.497h.465zM16 8v1h-2a1 1 0 0 1-1 1h-1.051a2.508 2.508 0 0 1-2.453 2H6v-1H4v-1h2V7H4V6h2V5h3.496c1.208 0 2.22.86 2.453 2H13c.552 0 1 .449 1 1h2zM8 6H7v5h1V6zm3 1.504C11 6.674 10.325 6 9.496 6H9v5h.496c.83 0 1.504-.675 1.504-1.504V7.504zM13 9V8h-1v1h1z" stroke-width="0"/></svg>