<svg xmlns="http://www.w3.org/2000/svg" viewBox="0 0 24 24"><path d="M16.31 1.2a11.9 11.9 0 0 1 3.63.615l2.675 15.872a16.3 16.3 0 0 0-4.157-.52 23 23 0 0 0-5.688.71l-1.001.238a21.2 21.2 0 0 1-5.345.685 13.7 13.7 0 0 1-4.3-.65L4.848 2.343A16.2 16.2 0 0 0 8.57 2.8a9.8 9.8 0 0 0 4.25-.875 7.8 7.8 0 0 1 3.49-.725m0-1c-3.848 0-3.892 1.6-7.74 1.6a15 15 0 0 1-4.52-.722L1 18.783A13.1 13.1 0 0 0 6.424 19.8 22 22 0 0 0 12 19.088V23H4v1h17v-1h-8v-4.15a22 22 0 0 1 5.458-.684 13.1 13.1 0 0 1 5.423 1.017l-3.05-18.105A12.7 12.7 0 0 0 16.31.2"/><path fill="none" d="M0 0h24v24H0z"/></svg>