<svg xmlns="http://www.w3.org/2000/svg" viewBox="0 0 32 32"><path d="M0 0h32v32H0z" style="fill:none"/><path d="m24.695 13.687.005-.012-8.2-3.575-8.2 3.575.005.012c-.024.01-.052.01-.075.025a.5.5 0 0 0-.23.42v4.424c0 .194.113.371.291.452l8 3.668a.5.5 0 0 0 .418 0l8-3.668a.5.5 0 0 0 .291-.452V14.13a.5.5 0 0 0-.23-.42c-.023-.014-.05-.013-.075-.024m-8.195-2.5 6.78 2.956-6.78 3.108-6.78-3.108zM9 14.91l7 3.21v3.327l-7-3.21zm15 3.327-7 3.21V18.12l7-3.21zM27 4s-2.667-.689-5.926-.689c-5.144 0-5.927 1.657-10.735 1.657C7.52 4.968 5.7 4.333 5 4.1l-4 24s3.093 1.8 7.538 1.8c6.876 0 8.048-2.6 14.924-2.6 4.445 0 7.538.6 7.538.6zM15.693 27.648c-1.993.644-3.875 1.252-7.155 1.252-3.003 0-5.37-.886-6.43-1.366L5.794 5.317a15.6 15.6 0 0 0 4.544.651c2.505 0 4-.43 5.445-.846 1.448-.417 2.816-.811 5.29-.811 2.188 0 4.104.325 5.05.518l3.651 22a37.3 37.3 0 0 0-6.313-.529c-3.595 0-5.717.686-7.77 1.348"/></svg>