<svg xmlns="http://www.w3.org/2000/svg" viewBox="0 0 32 32"><path d="M28 18v-.75c0-.69-.56-1.25-1.25-1.25h-1.83a3.778 3.778 0 0 0-3.692-3H16v3h-4v1h4v4h-4v1h4v3h5.228A3.776 3.776 0 0 0 25 21.228V21h1.75c.69 0 1.25-.56 1.25-1.25V19h4v-1h-4zm-9 6h-2V14h2v10zm5-3v.228A2.776 2.776 0 0 1 21.228 24H20V14h1.228A2.776 2.776 0 0 1 24 16.772V21zm3-1.25a.25.25 0 0 1-.25.25H25v-3h1.75a.25.25 0 0 1 .25.25v2.5zm2.714.25L31 28s-3.093-.8-7.538-.8c-6.876 0-8.048 2.6-14.924 2.6C4.093 29.8 1 28 1 28L5 3.9c.7.233 2.519.968 5.34.968 4.807 0 5.59-1.657 10.734-1.657 3.26 0 5.926.689 5.926.689l1.958 12.396a2.507 2.507 0 0 0-1.229-1.29L26.124 4.728a26.165 26.165 0 0 0-5.05-.518c-2.474 0-3.842.393-5.29.81-1.445.417-2.94.847-5.445.847a15.6 15.6 0 0 1-4.544-.65L2.107 27.433a15.984 15.984 0 0 0 6.43 1.366c3.281 0 5.163-.608 7.156-1.252 2.052-.662 4.174-1.348 7.77-1.348 2.725 0 4.948.29 6.312.528l-.933-5.62c.168-.259.295-.796.358-1.108h.514z" stroke-width="0"/><path stroke-width="0" fill="none" d="M0 0h32v32H0z"/></svg>