<?xml version="1.0" encoding="UTF-8"?><svg id="icons" xmlns="http://www.w3.org/2000/svg" viewBox="0 0 24 24"><defs><style>.cls-1{fill:none;}.cls-1,.cls-2{stroke-width:0px;}</style></defs><rect class="cls-1" width="24" height="24"/><path class="cls-2" d="M22.70459,14l1.17676,7.18304s-2.03394-1.01697-5.42383-1.01697c-5.24194,0-6.79175,1.63391-12.03369,1.63391-3.38989,0-5.42383-1.01697-5.42383-1.01697L4.05078,3.07794s2.03394.72205,4.51978.72205c3.84814,0,3.89209-1.59998,7.74023-1.59998,2.48584,0,4.51978.87793,4.51978.87793l1.16943,7.13159c-.22559-.56024-.6333-1.01221-1.19116-1.24164l-.86816-5.15289c-.70264-.23492-2.07935-.61499-3.62988-.61499-1.72656,0-2.5437.33588-3.48999.72485-.9978.41022-2.12866.87512-4.25024.87512-1.49585,0-2.83252-.24231-3.72314-.45691l-2.72363,15.80664c.80688.26935,2.30127.65027,4.30005.65027,2.50244,0,4.09595-.38336,5.78296-.78918,1.72632-.41528,3.51123-.84473,6.25073-.84473,1.74097,0,3.15405.25397,4.15747.52045l-.76489-4.53943c.17773-.2818.302-.80054.33838-1.14709h.51611ZM24,12v1h-3v.5c0,.82715-.67285,1.5-1.5,1.5h-.66211c-.38672,1.15771-1.46875,2-2.75488,2h-4.08301v-2h-3v-1h3v-3h-3v-1h3v-2h4.08301c1.28613,0,2.36816.84229,2.75488,2h.66211c.82715,0,1.5.67285,1.5,1.5v.5h3ZM14,9h-1v7h1v-7ZM18,10.91699c0-1.05664-.86035-1.91699-1.91699-1.91699h-1.08301v7h1.08301c1.05664,0,1.91699-.86035,1.91699-1.91699v-3.16602ZM20,11.5c0-.27539-.22461-.5-.5-.5h-.5v3h.5c.27539,0,.5-.22461.5-.5v-2Z"/></svg>