<?xml version="1.0" encoding="UTF-8"?><svg id="icons" xmlns="http://www.w3.org/2000/svg" viewBox="0 0 24 24"><defs><style>.cls-1{fill:none;}</style></defs><rect class="cls-1" width="24" height="24"/><path d="M12.5,7.43652l-6.5,2.4375v3.95898l6.5,2.70898,6.5-2.70898v-3.95898l-6.5-2.4375ZM16.94116,10.17029l-4.43335,1.66272-.02734-.00879-.00586.00195-4.41571-1.65588,4.4411-1.66541,4.44116,1.66541ZM7,10.84058l5,1.87524v2.53394l-5-2.08276v-2.32642ZM13,15.24976v-2.53375l5-1.87537v2.32635l-5,2.08276ZM16.31073,3.2c1.55057,0,2.92719.38011,3.62987.61504l2.67448,15.87149c-1.00352-.26648-2.41653-.52042-4.15746-.52042-2.73964,0-4.52463.42941-6.25084.84468-1.68709.40587-3.28061.78922-5.78307.78922-1.99864,0-3.49304-.38091-4.29985-.65024l2.72371-15.80666c.89061.21461,2.2272.45689,3.72304.45689,2.12155,0,3.25249-.46492,4.25029-.87511.94618-.38896,1.76334-.7249,3.48982-.7249M16.31073,2.2c-3.84804,0-3.89206,1.60001-7.74011,1.60001-2.48587,0-4.51978-.72203-4.51978-.72203L1,20.78305s2.03391,1.01695,5.42372,1.01695c5.24208,0,6.79182-1.6339,12.03391-1.6339,3.38983,0,5.42374,1.01694,5.42374,1.01694l-3.05086-18.10507s-2.03389-.87798-4.51978-.87798h0Z"/></svg>