<svg xmlns="http://www.w3.org/2000/svg" viewBox="0 0 32 32"><path d="M21.074 3.211c-5.144 0-5.927 1.657-10.735 1.657A15 15 0 0 1 5 3.9L1 28a16.3 16.3 0 0 0 7.538 1.8c6.876 0 8.048-2.6 14.924-2.6A33.2 33.2 0 0 1 31 28L27 3.9a26.4 26.4 0 0 0-5.926-.689M23.462 26.2a22.4 22.4 0 0 0-7.77 1.348A20.4 20.4 0 0 1 8.539 28.8a16 16 0 0 1-6.43-1.366L5.795 5.217a15.6 15.6 0 0 0 4.544.651 17.4 17.4 0 0 0 5.445-.846 16.6 16.6 0 0 1 5.29-.81 26.3 26.3 0 0 1 5.05.517l3.651 22a37 37 0 0 0-6.313-.529M21.074 6.21a14.8 14.8 0 0 0-4.736.733 19.4 19.4 0 0 1-5.999.925 18 18 0 0 1-2.918-.231L4.348 26.148a14 14 0 0 0 4.19.652 18.5 18.5 0 0 0 6.54-1.155 24.4 24.4 0 0 1 8.384-1.445c1.444 0 2.76.079 3.898.19L24.383 6.458a24 24 0 0 0-3.309-.247zM8.25 8.757a20 20 0 0 0 2.09.112 20.2 20.2 0 0 0 6.276-.964 14.6 14.6 0 0 1 3.073-.638L14.997 15H7.212zm6.52 15.938A17.5 17.5 0 0 1 8.539 25.8a12.8 12.8 0 0 1-3.056-.372L7.046 16h7.98l5.915 7.316a26.4 26.4 0 0 0-6.171 1.378zm8.693-1.494c-.456 0-.886.013-1.304.032l-6.276-7.763 5.007-8.255c.064 0 .12-.003.185-.003a22 22 0 0 1 2.444.143l2.645 15.935c-.9-.059-1.804-.089-2.7-.089zM11.5 11.5a1 1 0 1 1 1 1 1 1 0 0 1-1-1m11 4a1 1 0 1 1-1-1 1 1 0 0 1 1 1m-10 5a1 1 0 1 1-1-1 1 1 0 0 1 1 1"/><path fill="none" d="M0 0h32v32H0z"/></svg>