<svg xmlns="http://www.w3.org/2000/svg" viewBox="0 0 32 32"><path d="M27.36 22.39 24.383 4.458a24 24 0 0 0-3.309-.247 14.8 14.8 0 0 0-4.736.732 19.4 19.4 0 0 1-5.999.925 18 18 0 0 1-2.918-.231L4.348 24.148a14 14 0 0 0 4.19.652 18.5 18.5 0 0 0 6.54-1.155 24.4 24.4 0 0 1 8.384-1.445c1.444 0 2.76.079 3.898.19m-1.196-1.101c-.9-.059-1.805-.089-2.702-.089-.423 0-.819.014-1.208.03l-6.248-7.73 5.029-8.29h.04a22 22 0 0 1 2.443.143zM8.249 6.756a20 20 0 0 0 2.09.112 20.2 20.2 0 0 0 6.276-.964 14.5 14.5 0 0 1 3.223-.648L15.14 13H7.212zm6.52 15.938a17.5 17.5 0 0 1-6.23 1.106 12.8 12.8 0 0 1-3.056-.372L7.046 14h8.077l5.91 7.31a26.4 26.4 0 0 0-6.263 1.384zM16 26.5a21.4 21.4 0 0 1 7.462-1.3A33.2 33.2 0 0 1 31 26L27 1.9a26.4 26.4 0 0 0-5.926-.689c-5.144 0-5.927 1.657-10.735 1.657A15 15 0 0 1 5 1.9L1 26a16.3 16.3 0 0 0 7.538 1.8A20.3 20.3 0 0 0 15 26.816V30H3v1h25v-1H16zM2.108 25.434 5.795 3.217a15.6 15.6 0 0 0 4.544.651 17.4 17.4 0 0 0 5.445-.846 16.6 16.6 0 0 1 5.29-.81 26.3 26.3 0 0 1 5.05.517l3.651 22a37 37 0 0 0-6.313-.529 22.4 22.4 0 0 0-7.77 1.348A20.4 20.4 0 0 1 8.539 26.8a16 16 0 0 1-6.43-1.366zM11.5 9.5a1 1 0 1 1 1 1 1 1 0 0 1-1-1m10 3a1 1 0 1 1-1 1 1 1 0 0 1 1-1m-9 6a1 1 0 1 1-1-1 1 1 0 0 1 1 1"/><path fill="none" d="M0 0h32v32H0z"/></svg>