<svg xmlns="http://www.w3.org/2000/svg" viewBox="0 0 32 32"><path d="M21.074 3.211c-5.144 0-5.927 1.657-10.735 1.657A15 15 0 0 1 5 3.9L1 28a16.3 16.3 0 0 0 7.538 1.8c6.876 0 8.048-2.6 14.924-2.6A33.2 33.2 0 0 1 31 28L27 3.9a26.4 26.4 0 0 0-5.926-.689M23.462 26.2a22.4 22.4 0 0 0-7.77 1.348A20.4 20.4 0 0 1 8.539 28.8a16 16 0 0 1-6.43-1.366L5.795 5.217a15.6 15.6 0 0 0 4.544.651 17.4 17.4 0 0 0 5.445-.846 16.6 16.6 0 0 1 5.29-.81 26.3 26.3 0 0 1 5.05.517l3.651 22a37 37 0 0 0-6.313-.529M21.074 6.21a14.8 14.8 0 0 0-4.736.733 19.4 19.4 0 0 1-5.999.925 18 18 0 0 1-2.918-.231L4.348 26.148a14 14 0 0 0 4.19.652 18.5 18.5 0 0 0 6.54-1.155 24.4 24.4 0 0 1 8.384-1.445c1.444 0 2.76.079 3.898.19L24.383 6.458a24 24 0 0 0-3.309-.247zM10.34 8.869a20.2 20.2 0 0 0 6.276-.964 13.8 13.8 0 0 1 4.46-.693 22 22 0 0 1 2.443.143l1.934 11.65a3.7 3.7 0 0 1-.723.09 3.5 3.5 0 0 1-1.148-.198 6.6 6.6 0 0 1-2.827-2.388c-.649-.796-1.261-1.888-2.07-2.305a3.26 3.26 0 0 0-1.524-.242 3.23 3.23 0 0 1-1.828-.382 2.57 2.57 0 0 1-1.06-1.076 2.54 2.54 0 0 0-.97-1.245A2.7 2.7 0 0 0 12.078 11a9.74 9.74 0 0 0-4.446 1.472l.617-3.716a20 20 0 0 0 2.09.112zM23.462 23.2a25.3 25.3 0 0 0-8.693 1.494A17.5 17.5 0 0 1 8.538 25.8a12.8 12.8 0 0 1-3.057-.372l1.971-11.872.018.025a9.94 9.94 0 0 1 4.608-1.682 1.8 1.8 0 0 1 .812.16 2.1 2.1 0 0 1 .58.853 3.53 3.53 0 0 0 1.359 1.414 4.05 4.05 0 0 0 2.326.534 2.7 2.7 0 0 1 1.11.14c.648.334 1.202 1.354 1.79 2.076a7.3 7.3 0 0 0 3.235 2.672 4.4 4.4 0 0 0 1.448.245 3.3 3.3 0 0 0 .858-.125l.567 3.421c-.9-.059-1.804-.089-2.7-.089zm-2.461-10.638a.933.933 0 0 1 .968-.775.89.89 0 0 1 .982.726.903.903 0 0 1-.972.854.863.863 0 0 1-.978-.805m-4-3.118a.933.933 0 0 1 .968-.775.89.89 0 0 1 .982.726.903.903 0 0 1-.972.854.863.863 0 0 1-.978-.805"/><path fill="none" d="M0 0h32v32H0z"/></svg>