<svg xmlns="http://www.w3.org/2000/svg" viewBox="0 0 24 24"><path d="M16.31 2.2c-3.847 0-3.891 1.6-7.74 1.6a15 15 0 0 1-4.52-.722L1 20.783A13.1 13.1 0 0 0 6.424 21.8c5.242 0 6.792-1.634 12.034-1.634a13.1 13.1 0 0 1 5.423 1.017l-3.05-18.105a12.7 12.7 0 0 0-4.52-.878zm2.148 16.966a24 24 0 0 0-6.251.845 22 22 0 0 1-5.783.789 13.7 13.7 0 0 1-4.3-.65L4.848 4.343A16.2 16.2 0 0 0 8.57 4.8a9.8 9.8 0 0 0 4.25-.875 7.8 7.8 0 0 1 3.49-.725 11.9 11.9 0 0 1 3.63.615l2.674 15.872a16.3 16.3 0 0 0-4.157-.52zM16.98 7.004C13.244 7.004 11.315 9 8.25 9a21 21 0 0 1-2.668-.174l.115-1.064A19.4 19.4 0 0 0 8.488 8c2.775 0 4.763-2 8.13-2 .84 0 2.755.278 2.755.278l.124.957a13 13 0 0 0-2.517-.231m1.026 4.007a16.8 16.8 0 0 0-4.946.781v5.219a16.9 16.9 0 0 1 4.946-.78 15 15 0 0 1 1.934.13l-.86-5.31a15 15 0 0 0-1.074-.04m0 4.22a17.3 17.3 0 0 0-3.945.474v-3.159a15.5 15.5 0 0 1 3.945-.535q.11 0 .217.002l.523 3.236q-.37-.018-.74-.018M5.01 14.211a2.475 2.475 0 0 0 0 3.579 3.656 3.656 0 0 0 4.98 0 2.466 2.466 0 0 0 0-3.58 3.65 3.65 0 0 0-4.98 0zm4.254 2.882a2.64 2.64 0 0 1-3.528 0 1.49 1.49 0 0 1-.001-2.186 2.64 2.64 0 0 1 3.53 0 1.487 1.487 0 0 1 0 2.186z"/><path fill="none" d="M0 0h24v24H0z"/></svg>