<svg xmlns="http://www.w3.org/2000/svg" viewBox="0 0 16 16"><path d="M5 13.728v1.008a11 11 0 0 1-1.207.064A9.2 9.2 0 0 1 0 14.089l2.133-12.6A10.4 10.4 0 0 0 5.294 2c2.688 0 2.721-.986 5.412-.986a8.2 8.2 0 0 1 3.161.674L14.597 6h-1.014l-.607-3.587a7.2 7.2 0 0 0-2.27-.399 5.9 5.9 0 0 0-2.367.434A7.8 7.8 0 0 1 5.294 3a11.4 11.4 0 0 1-2.359-.26l-1.81 10.697a9.5 9.5 0 0 0 2.668.363A10 10 0 0 0 5 13.728m-.06-2.195.06-.077.154-.199c.095-.123 2.365-3.01 5.346-3.01a5.3 5.3 0 0 1 2.115.468l.895-.894.707.707-6.69 6.689-.706-.707.646-.647a9.7 9.7 0 0 1-2.313-2.054L5 11.61zm1.001 0a9.4 9.4 0 0 0 2.115 1.741l1.115-1.115a1.3 1.3 0 0 1-.163-.626 1.46 1.46 0 0 1 1.5-1.408 1.6 1.6 0 0 1 .586.112L12 9.33a4.3 4.3 0 0 0-1.5-.285c-2.1 0-3.914 1.774-4.559 2.488m8.46-1.716-.57.568a10 10 0 0 1 1.244 1.15c-.649.715-2.467 2.487-4.576 2.487-.093 0-.183-.021-.276-.028l-.717.717a5 5 0 0 0 .994.109c2.981 0 5.266-2.887 5.362-3.01l.138-.177v-.2l-.138-.177a9.7 9.7 0 0 0-1.461-1.44z"/><path fill="none" d="M0 0h16v16H0z"/></svg>