<svg xmlns="http://www.w3.org/2000/svg" viewBox="0 0 32 32"><path d="M11.378 29.086a2 2 0 0 0-.401.589 23 23 0 0 1-2.44.125A16.3 16.3 0 0 1 1 28L5 3.9a15 15 0 0 0 5.34.968c4.807 0 5.59-1.657 10.734-1.657A26.4 26.4 0 0 1 27 3.9L28.676 14h-.288a2 2 0 0 0-.757-.192l-1.507-9.079a26.3 26.3 0 0 0-5.05-.518 16.6 16.6 0 0 0-5.29.81 17.4 17.4 0 0 1-5.445.847 15.6 15.6 0 0 1-4.544-.65L2.108 27.433a16 16 0 0 0 6.43 1.366 20.4 20.4 0 0 0 3.39-.264zM31 28l-.193-1.163c-.3.291-.627.596-.998.914C30.572 27.89 31 28 31 28m-7.1-4.5v-.076a3.4 3.4 0 0 0-.056-.626l-4.02 4.02A3.337 3.337 0 0 0 23.9 23.5m3.175-3.933-.637.637a18.6 18.6 0 0 1 3.593 3.284l-.005.006.005.006c-.992 1.202-4.94 5.29-9.493 5.345h-.014a8.6 8.6 0 0 1-2.352-.376l-.717.718a9.7 9.7 0 0 0 3.065.559h.022c5.663-.063 10.171-5.695 10.358-5.947l.224-.299-.22-.301a19.5 19.5 0 0 0-3.829-3.632M13.5 31.207l-.707-.707 2.382-2.382a19.5 19.5 0 0 1-5.014-4.32l-.224-.298.22-.301c.186-.254 4.634-5.933 10.296-6.056h.155a10.3 10.3 0 0 1 4.376 1.165l2.516-2.515.707.707-.146.146zm2.324-3.738 1.987-1.987a3.37 3.37 0 0 1-.65-1.982v-.076a3.404 3.404 0 0 1 3.335-3.435h.07a3.37 3.37 0 0 1 2.013.725l1.736-1.736a9.4 9.4 0 0 0-3.72-.934h-.128c-4.552.102-8.457 4.233-9.436 5.445l.005.005-.005.006a18.2 18.2 0 0 0 4.793 3.97z"/><path fill="none" d="M0 0h32v32H0z"/></svg>