<svg xmlns="http://www.w3.org/2000/svg" viewBox="0 0 16 16"><path d="M13.867 1.688a8.2 8.2 0 0 0-3.161-.674c-2.69 0-2.724.986-5.412.986a10.4 10.4 0 0 1-3.161-.512L0 14.09a9.2 9.2 0 0 0 3.793.711c3.665 0 4.749-1.6 8.414-1.6A6.6 6.6 0 0 1 16 14.29zM7.681 13.052a11 11 0 0 1-3.888.748 9.5 9.5 0 0 1-2.668-.363L2.935 2.74A11.4 11.4 0 0 0 5.294 3a7.8 7.8 0 0 0 3.045-.552 5.9 5.9 0 0 1 2.367-.434 7.2 7.2 0 0 1 2.27.399l1.72 10.163a8.3 8.3 0 0 0-2.489-.376 12.8 12.8 0 0 0-4.526.852M9 7v4h4V7zm3 3h-2V8h2zm0-5H4V4h8zM5.5 7A2.5 2.5 0 1 0 8 9.5 2.5 2.5 0 0 0 5.5 7m0 4A1.5 1.5 0 1 1 7 9.5 1.5 1.5 0 0 1 5.5 11"/><path fill="none" d="M0 0h16v16H0z"/></svg>