<?xml version="1.0" encoding="UTF-8"?><svg id="icons" xmlns="http://www.w3.org/2000/svg" viewBox="0 0 24 24"><defs><style>.cls-1{fill:none;}</style></defs><rect class="cls-1" width="24" height="24"/><path d="M8,10c0,.55228-.44772,1-1,1s-1-.44772-1-1,.44772-1,1-1,1,.44772,1,1ZM6,14c-.55228,0-1,.44772-1,1s.44772,1,1,1,1-.44772,1-1-.44772-1-1-1ZM11,6c-.55228,0-1,.44772-1,1s.44772,1,1,1,1-.44772,1-1-.44772-1-1-1ZM12,11c-.55228,0-1,.44772-1,1s.44772,1,1,1,1-.44772,1-1-.44772-1-1-1ZM18,9c-.55228,0-1,.44772-1,1s.44772,1,1,1,1-.44772,1-1-.44772-1-1-1ZM16,14c-.55228,0-1,.44772-1,1s.44772,1,1,1,1-.44772,1-1-.44772-1-1-1ZM10,16c-.55228,0-1,.44772-1,1s.44772,1,1,1,1-.44772,1-1-.44772-1-1-1ZM16.31073,3.2c-1.72649,0-2.54364.33593-3.48982.7249-.9978.41019-2.12874.87511-4.25029.87511-1.49583,0-2.83243-.24228-3.72304-.45691l-2.72371,15.80667c.80681.26933,2.30121.65024,4.29985.65024,2.50246,0,4.09598-.38335,5.78305-.78922,1.72623-.41528,3.51122-.84469,6.25085-.84469,1.74092,0,3.15393.25394,4.15746.52042l-2.67448-15.8715c-.70268-.23492-2.0793-.61503-3.62987-.61503M16.31073,2.2c2.48589,0,4.51978.87796,4.51978.87796l3.05086,18.10509s-2.03391-1.01695-5.42374-1.01695c-5.24208,0-6.79182,1.6339-12.03391,1.6339-3.38982,0-5.42372-1.01695-5.42372-1.01695L4.05084,3.07796s2.03391.72205,4.51978.72205c3.84805,0,3.89207-1.60001,7.74011-1.60001h0Z"/></svg>