<?xml version="1.0" encoding="UTF-8"?><svg id="icons" xmlns="http://www.w3.org/2000/svg" viewBox="0 0 32 32"><defs><style>.cls-1{fill:none;}</style></defs><rect class="cls-1" width="32" height="32"/><path d="M15.5,15c.82825,0,1.5.67202,1.5,1.5006s-.67175,1.4994-1.5,1.4994-1.5-.67082-1.5-1.4994.67175-1.5006,1.5-1.5006ZM13,9.50108c0,.82825.67067,1.49892,1.49892,1.49892s1.50108-.67067,1.50108-1.49892-.67284-1.5-1.50108-1.5-1.49892.67175-1.49892,1.5ZM7,12.4988c0,.82825.67175,1.5012,1.5,1.5012.82945,0,1.5-.67296,1.5-1.5012s-.67055-1.4988-1.5-1.4988c-.82825,0-1.5.67055-1.5,1.4988ZM6,20.5006c0,.82858.67079,1.4994,1.49934,1.4994s1.50066-.67082,1.50066-1.4994-.67212-1.5006-1.50066-1.5006-1.49934.67202-1.49934,1.5006ZM23,14.4994c0,.82858.67242,1.5006,1.5012,1.5006.82758,0,1.4988-.67202,1.4988-1.5006s-.67121-1.4994-1.4988-1.4994c-.82879,0-1.5012.67082-1.5012,1.4994ZM12,22.5012c0,.82825.66406,1.4988,1.48415,1.4988.82128,0,1.48642-.67055,1.48642-1.4988s-.66514-1.5012-1.48642-1.5012c-.82009,0-1.48415.67296-1.48415,1.5012ZM27,4.00004s-2.66667-.68889-5.92593-.68889c-5.14417,0-5.92685,1.65715-10.73492,1.65715-2.82033,0-4.63994-.63519-5.33915-.86826L1,28.10004s3.09333,1.8,7.53778,1.8c6.87635,0,8.04809-2.6,14.92445-2.6,4.44444,0,7.53778.6,7.53778.6l-4-23.9ZM8.5376,28.89985c-3.00293,0-5.36963-.88623-6.43018-1.36572L5.79492,5.31733c1.0166.30518,2.53906.65088,4.54443.65088,2.50439,0,3.99951-.43018,5.44482-.84668,1.44775-.41699,2.81543-.81055,5.29004-.81055,2.1875,0,4.104.32471,5.0498.51758l3.65137,21.99951c-1.36426-.23779-3.58691-.52783-6.31299-.52783-3.5957,0-5.71777.68555-7.76953,1.34814-1.99268.64355-3.87451,1.25146-7.15527,1.25146ZM22.5,19c-.82843,0-1.5.67157-1.5,1.5s.67157,1.5,1.5,1.5,1.5-.67157,1.5-1.5-.67157-1.5-1.5-1.5Z"/></svg>