<?xml version="1.0" encoding="UTF-8"?><svg id="icons" xmlns="http://www.w3.org/2000/svg" viewBox="0 0 16 16"><defs><style>.cls-1{fill:none;}</style></defs><rect class="cls-1" width="16" height="16"/><path d="M7.49121,4.46191l-4.5,1.78947v3.06989l4.5,1.67872,4.5-1.67872v-3.06989l-4.5-1.78947ZM10.10718,6.58478l-2.61597.98065-2.61597-.98065,2.61597-1.04669,2.61597,1.04669ZM3.99121,8.4502v-1.12933l3,1.12537v1.33209l-3-1.125v-.20312ZM10.99121,8.4502v.20312l-3,1.125v-1.33209l3-1.12537v1.12933ZM10.70601,2.01431c.93294,0,1.77417.22882,2.26958.39845l1.72021,10.16313c-.67596-.21161-1.51447-.3759-2.48848-.3759-1.99666,0-3.28281.4333-4.5266.85234-1.14127.38449-2.21924.74767-3.88805.74767-1.17722,0-2.09425-.19426-2.66814-.3627L2.93518,2.73993c.62262.13382,1.45067.26007,2.35881.26007,1.51878,0,2.32938-.29344,3.04456-.55234.64235-.23253,1.1971-.43335,2.36746-.43335M10.70601,1.01431c-2.69078,0-2.7245.98569-5.41202.98569-1.73843,0-3.16119-.51173-3.16119-.51173L0,14.08907s1.4223.71094,3.79268.71094c3.66547,0,4.74918-1.60001,8.41464-1.60001,2.37036,0,3.79268,1.08907,3.79268,1.08907L13.86719,1.68826s-1.42274-.67395-3.16118-.67395h0Z"/></svg>