<?xml version="1.0" encoding="UTF-8"?><svg id="icons" xmlns="http://www.w3.org/2000/svg" viewBox="0 0 32 32"><defs><style>.cls-1{fill:none;}</style></defs><rect class="cls-1" width="32" height="32"/><path d="M21.07422,4.21112c2.17896,0,4.10132.3252,5.0498.5181l3.65112,21.99887c-1.36377-.23785-3.58691-.52808-6.31299-.52808-3.5957,0-5.71753.68549-7.76953,1.34839-1.99243.64368-3.87427,1.25159-7.15479,1.25159-3.00415,0-5.27085-.88672-6.33018-1.36572L5.79492,5.31729c1.01636.30511,2.53931.65094,4.54419.65094,2.50464,0,3.99951-.53039,5.44531-.94659,1.44775-.41681,2.81519-.81052,5.28979-.81052M21.07422,3.21112c-5.14429,0-5.927,1.7571-10.73511,1.7571-2.82031,0-4.63989-.73517-5.33911-.96826L1.1,28s2.99326,1.79999,7.43784,1.79999c6.87622,0,8.0481-2.59998,14.92432-2.59998,4.44458,0,7.53784.79999,7.53784.79999L27,3.89996s-2.66675-.68884-5.92578-.68884h0ZM14,21h2v-1h-2v1ZM11,20.29297l-1.14648,1.14648.70703.70703,1.14648-1.14648h.29297v-1h-1v.29297ZM11,18h1v-2h-1v2ZM11.5,8l-4.5,4.41797v12.58203h12.69141l4.30859-4.28906V8h-12.5ZM11,9.87665v.12335h1v-1h10.29297l-3,3h-10.49756l2.20459-2.12335ZM8.70703,24l.43945-.43945-.70703-.70703-.43945.43945v-10.29297h3v1h1v-1h7v7h-1v1h1v3h-10.29297ZM23,20h-1v1h.28809l-2.28809,2.28442v-10.57739l3-2.95312v10.24609Z"/></svg>