<?xml version="1.0" encoding="UTF-8"?><svg id="icons" xmlns="http://www.w3.org/2000/svg" viewBox="0 0 16 16"><defs><style>.cls-1{fill:none;}</style></defs><rect class="cls-1" width="16" height="16"/><path d="M10.70605,2.01428c.93286,0,1.77417.22888,2.26953.3985l1.72021,10.16315c-.67603-.21161-1.5144-.37592-2.48853-.37592-1.99658,0-3.28271.43329-4.52661.85229-1.14111.38452-2.21899.74768-3.88794.74768-1.17725,0-2.09424-.19427-2.66821-.36273L2.9353,2.73993c.62256.13379,1.45068.26007,2.35864.26007,1.5188,0,2.32935-.29346,3.04443-.55231.64258-.2326,1.19727-.43341,2.36768-.43341M10.70605,1.01428c-2.69092,0-2.72461.98572-5.41211.98572-1.73828,0-3.16113-.51172-3.16113-.51172L0,14.08905s1.42236.71094,3.79272.71094c3.66553,0,4.74902-1.59998,8.41455-1.59998,2.37036,0,3.79272,1.08905,3.79272,1.08905L13.86719,1.68829s-1.42285-.67401-3.16113-.67401h0ZM6.29297,4l-2.29297,2.29297v5.70703h5.70703l2.29297-2.29297V4h-5.70703ZM6.70703,5h3.58594l-1,1h-3.58594l1-1ZM9,10v1h-3.29297l1-1h.29297v-1h-1v.29297l-1,1v-3.29297h1v1h1v-1h2v2h-1v1h1ZM10,10.29297v-3.58594l1-1v3.58594l-1,1Z"/></svg>