<svg xmlns="http://www.w3.org/2000/svg" viewBox="0 0 24 24"><path d="M16.31 2.2c-3.847 0-3.891 1.6-7.74 1.6a15 15 0 0 1-4.52-.722L1 20.783A13.1 13.1 0 0 0 6.424 21.8c5.242 0 6.792-1.634 12.034-1.634a13.1 13.1 0 0 1 5.423 1.017l-3.05-18.105a12.7 12.7 0 0 0-4.52-.878zm2.148 16.966a24 24 0 0 0-6.251.845 22 22 0 0 1-5.783.789 13.7 13.7 0 0 1-4.3-.65L4.848 4.343A16.2 16.2 0 0 0 8.57 4.8a9.8 9.8 0 0 0 4.25-.875 7.8 7.8 0 0 1 3.49-.725 11.9 11.9 0 0 1 3.63.615l2.674 15.872a16.3 16.3 0 0 0-4.157-.52zM9.5 8.5a1 1 0 1 1-1-1 1 1 0 0 1 1 1m8 3a1 1 0 1 1-1-1 1 1 0 0 1 1 1m-9 4a1 1 0 1 1-1-1 1 1 0 0 1 1 1"/><path fill="none" d="M0 0h24v24H0z"/></svg>