<?xml version="1.0" encoding="UTF-8"?><svg id="icons" xmlns="http://www.w3.org/2000/svg" viewBox="0 0 16 16"><defs><style>.cls-1{fill:none;}</style></defs><rect class="cls-1" x="0" y="0" width="16" height="16"/><path d="M8,14c-1.18732.40002-2.37457.79999-4.20728.79999C1.4223,14.79999,0,14.08905,0,14.08905L2.13281,1.48828s1.42273.51172,3.16119.51172c2.6875,0,2.72125-.98572,5.41205-.98572,1.7384,0,3.16113.67401,3.16113.67401l1.23761,7.31171h-1.01428l-1.11493-6.58722c-.49542-.16962-1.33667-.3985-2.26953-.3985-1.17041,0-1.72516.20081-2.36749.43335-.71515.25891-1.52576.55237-3.04456.55237-.90814,0-1.73621-.12622-2.35883-.26007l-1.81061,10.69733c.57385.16846,1.49091.36273,2.66815.36273,1.66876,0,2.74677-.36316,3.888-.74768.10565-.03558.21259-.07117.31927-.10669v1.05438ZM11,15h-1v-4h1v-1h-2v6h2v-1ZM14,10v1h1v4h-1v1h2v-6h-2Z"/></svg>