<svg xmlns="http://www.w3.org/2000/svg" viewBox="0 0 16 16"><path d="m13.5 7.104 2.523 1.42-8 4.5-8-4.5L2.68 7.03a4.6 4.6 0 0 0 .369.94l-.985.553 5.96 3.353 5.96-3.353-.61-.343a2 2 0 0 0 .127-.68zm-5.477 7.772-6.98-3.926-1.02.573 7.915 4.452a.18.18 0 0 0 .171 0l7.914-4.452-1.02-.573zM8 5V4H6v1zM4 7.333V1.5A1.5 1.5 0 0 1 5.5 0H12v8h-2v1H5.667A1.67 1.67 0 0 1 4 7.333M5 1.5a.5.5 0 0 0 .5.5H10v5h1V1H5.5a.5.5 0 0 0-.5.5m0 1.414v4.419A.667.667 0 0 0 5.667 8H9V3H5.498A1.5 1.5 0 0 1 5 2.914"/><path fill="none" d="M0 0h16v16H0z"/></svg>