<svg xmlns="http://www.w3.org/2000/svg" viewBox="0 0 24 24"><path d="M16.31 2.2c-3.847 0-3.891 1.6-7.74 1.6a15 15 0 0 1-4.52-.722L1 20.783A13.1 13.1 0 0 0 6.424 21.8c5.242 0 6.792-1.634 12.034-1.634a13.1 13.1 0 0 1 5.423 1.017l-3.05-18.105a12.7 12.7 0 0 0-4.52-.878zm2.148 16.966a24 24 0 0 0-6.251.845 22 22 0 0 1-5.783.789 13.7 13.7 0 0 1-4.3-.65L4.848 4.343A16.2 16.2 0 0 0 8.57 4.8a9.8 9.8 0 0 0 4.25-.875 7.8 7.8 0 0 1 3.49-.725 11.9 11.9 0 0 1 3.63.615l2.674 15.872a16.3 16.3 0 0 0-4.157-.52zM16.31 4.2a6.9 6.9 0 0 0-3.11.65 10.8 10.8 0 0 1-4.63.95 16.7 16.7 0 0 1-2.914-.268L3.262 19.436a13.4 13.4 0 0 0 3.162.364 21.2 21.2 0 0 0 5.55-.761 25 25 0 0 1 6.484-.873 18 18 0 0 1 2.927.234L19.057 4.59a10.6 10.6 0 0 0-2.746-.39zM4.412 18.647l2.064-11.98A17 17 0 0 0 8.57 6.8a11.8 11.8 0 0 0 5.011-1.025 5.85 5.85 0 0 1 2.322-.566 1.1 1.1 0 0 0-.186.32 1.1 1.1 0 0 0-.058.355 2.3 2.3 0 0 0 .05.394c.013.069.032.17.04.244a1 1 0 0 1-.122-.002 1.2 1.2 0 0 0-.87.447 1.01 1.01 0 0 0-.28.9c.148.719.151 1.15-.26 1.371a2.15 2.15 0 0 0-.823.93c-.212.379-.27.43-.391.43-.065 0-.128-.043-.266-.148a1.38 1.38 0 0 0-.869-.35 1.14 1.14 0 0 0-1.102 1.174c0 .286-.272.847-.6.847-.321 0-.38-.104-.425-.187a1.48 1.48 0 0 0-1.277-.983 1.354 1.354 0 0 0-1.316 1.387 2.1 2.1 0 0 0 .087.57 1.2 1.2 0 0 1 .055.317.86.86 0 0 1-.151.417 1.77 1.77 0 0 0-.274.896 1.04 1.04 0 0 0 1.103.995 1.8 1.8 0 0 0 .706-.15 1.2 1.2 0 0 1 .284-.09.46.46 0 0 1 .07.237c0 .159-.15.32-.394.563a1.564 1.564 0 0 0-.511 1.965 1.25 1.25 0 0 0 .906.561 18 18 0 0 1-2.605.18 13 13 0 0 1-2.012-.152m7.328-.58c-.379.09-.752.18-1.133.264a1.8 1.8 0 0 0-1.19-.645 2.5 2.5 0 0 0-.4-.076c-.148-.297-.077-.41.323-.809a1.8 1.8 0 0 0 .687-1.27 1.143 1.143 0 0 0-.91-1.208 1.6 1.6 0 0 0-.806.13.8.8 0 0 1-.343.08c-.057 0-.1-.02-.103 0a.9.9 0 0 1 .152-.413 1.77 1.77 0 0 0 .273-.895 2.2 2.2 0 0 0-.087-.57 1.2 1.2 0 0 1-.055-.317.36.36 0 0 1 .316-.387c.116 0 .191.088.413.488a1.36 1.36 0 0 0 1.289.682 1.82 1.82 0 0 0 1.6-1.847c0-.092.063-.173.102-.173.066 0 .128.042.266.147a1.38 1.38 0 0 0 .869.35 1.45 1.45 0 0 0 1.263-.938 1.3 1.3 0 0 1 .427-.542 2.046 2.046 0 0 0 .768-2.432c.043-.066.123-.155.095-.168a1.13 1.13 0 0 0 .97-.307 1.25 1.25 0 0 0 .165-1.12 1 1 0 0 1-.027-.243.9.9 0 0 1 .244-.26 2.6 2.6 0 0 0 .33-.33c.34.037.66.088.942.148l1.303 7.73-.032-.017a1 1 0 0 1-.168-.277 1.07 1.07 0 0 0-.955-.74 1.29 1.29 0 0 0-1.05.67c-.104.146-.188.256-.238.256a.4.4 0 0 1-.13-.05 1.24 1.24 0 0 0-.564-.149.943.943 0 0 0-.995.905v.645c0 .046-.079.12-.198.227a1.28 1.28 0 0 0-.529.971.85.85 0 0 0 .197.54 1.3 1.3 0 0 1-.379.232c-.375.183-.942.46-.942 1.144a1 1 0 0 0 .014.17c-.616.127-1.2.265-1.774.403zm6.718-.901a24 24 0 0 0-3.957.314 1.3 1.3 0 0 1 .379-.232c.376-.183.942-.459.942-1.143a.77.77 0 0 0-.198-.528c0-.047.078-.12.198-.228a1.28 1.28 0 0 0 .529-.97v-.55a.5.5 0 0 1 .125.05 1.24 1.24 0 0 0 .564.15 1.29 1.29 0 0 0 1.05-.67 1.1 1.1 0 0 0 .18-.282 1.2 1.2 0 0 1 .115.204 1.8 1.8 0 0 0 .406.589 1.74 1.74 0 0 0 .884.405l.5 2.966a20 20 0 0 0-1.717-.075"/><path fill="none" d="M0 0h24v24H0z"/></svg>