<svg xmlns="http://www.w3.org/2000/svg" viewBox="0 0 16 16"><path d="M3.793 14.8A9.2 9.2 0 0 1 0 14.089l2.133-12.6A10.4 10.4 0 0 0 5.294 2c2.688 0 2.721-.986 5.412-.986a8.2 8.2 0 0 1 3.161.674l1.748 10.324-1.181-.984-.436-2.578a5.5 5.5 0 0 0-.288-1.7l-.734-4.337a7.2 7.2 0 0 0-2.27-.399 5.9 5.9 0 0 0-2.367.434A7.8 7.8 0 0 1 5.294 3a11.4 11.4 0 0 1-2.359-.26l-1.81 10.697a9.5 9.5 0 0 0 2.668.363 9.6 9.6 0 0 0 2.073-.218l.691.865a10.5 10.5 0 0 1-2.764.353m10.126 1.003-2.067-2.067a.667.667 0 0 1 0-.943l.129-.13-.673-.672a4.55 4.55 0 1 1 .69-.691l.673.674.124-.124a.67.67 0 0 1 .943 0l2.067 2.068a.666.666 0 0 1 0 .943l-.943.942a.665.665 0 0 1-.943 0M8.5 12A3.5 3.5 0 1 0 5 8.5 3.504 3.504 0 0 0 8.5 12m4.294 1.265 1.597 1.595.471-.47-1.595-1.598zM9 9h2V8H9V6H8v2H6v1h2v2h1z"/><path fill="none" d="M0 0h16v16H0z"/></svg>