<svg xmlns="http://www.w3.org/2000/svg" viewBox="0 0 16 16"><path d="M10.706 1.014c-2.69 0-2.724.986-5.412.986a10.4 10.4 0 0 1-3.161-.512L0 14.09a9.2 9.2 0 0 0 3.793.711c3.665 0 4.749-1.6 8.414-1.6A6.6 6.6 0 0 1 16 14.29L13.867 1.687a8.2 8.2 0 0 0-3.161-.674zM12.207 12.2a12.8 12.8 0 0 0-4.526.852 11 11 0 0 1-3.888.748 9.5 9.5 0 0 1-2.668-.363L2.935 2.74A11.4 11.4 0 0 0 5.294 3a7.8 7.8 0 0 0 3.045-.552 5.9 5.9 0 0 1 2.367-.434 7.2 7.2 0 0 1 2.27.399l1.72 10.163a8.3 8.3 0 0 0-2.489-.376M4 4l-1 8h10l-1-8zm6.33 6.043a1.27 1.27 0 0 0 .488-.947 1 1 0 0 0 .226.022 1.1 1.1 0 0 0 .569-.152L11.867 11h-1.624a1.06 1.06 0 0 0 .164-.576 1 1 0 0 0-.077-.381M4.133 11l.37-2.965L4.883 5h5.38c.007.152-.019.218-.068.245a1.87 1.87 0 0 0-.732.807l-.035.06a1.27 1.27 0 0 0-.779-.281 1.165 1.165 0 0 0-1.137 1.188.5.5 0 0 1-.146.288 1.33 1.33 0 0 0-1.186-.859 1.32 1.32 0 0 0-1.291 1.343 2 2 0 0 0 .074.498.6.6 0 0 1 .028.145 1 1 0 0 1-.069.141 1.6 1.6 0 0 0-.24.812 1.1 1.1 0 0 0 1.138 1.06q.043 0 .083-.003a1.8 1.8 0 0 0-.351.556zm2.218 0c.231-.285.6-.516.6-.895 0-.16-.082-.488-.334-.513-.351-.035-.443.154-.797.154a.406.406 0 0 1-.437-.36c0-.386.308-.566.308-.952 0-.25-.102-.393-.102-.643a.62.62 0 0 1 .59-.643c.323 0 .464.264.618.54a.64.64 0 0 0 .617.308c.49 0 .798-.61.798-.977a.47.47 0 0 1 .437-.488c.347 0 .476.36.824.36.57 0 .55-.756 1.053-1.03A.865.865 0 0 0 10.97 5h.148l.389 3.11a.58.58 0 0 1-.462.308c-.219 0-.321-.154-.54-.154a.355.355 0 0 0-.386.314v.502c0 .424-.565.508-.565.934 0 .171.154.236.154.41 0 .316-.306.438-.584.576z"/><path fill="none" d="M0 0h16v16H0z"/></svg>