<svg xmlns="http://www.w3.org/2000/svg" viewBox="0 0 24 24"><path stroke-width="0" fill="none" d="M0 0h24v24H0z"/><path d="M22.705 14l1.176 7.183s-2.034-1.017-5.423-1.017c-5.242 0-6.792 1.634-12.034 1.634C3.034 21.8 1 20.783 1 20.783L4.05 3.078s2.035.722 4.52.722c3.849 0 3.893-1.6 7.74-1.6 2.487 0 4.52.878 4.52.878L22 10.21c-.226-.56-.633-1.013-1.191-1.242l-.868-5.153c-.703-.235-2.08-.615-3.63-.615-1.727 0-2.544.336-3.49.725-.998.41-2.129.875-4.25.875-1.496 0-2.833-.242-3.724-.457L2.124 20.15c.807.27 2.301.65 4.3.65 2.502 0 4.096-.383 5.783-.79 1.726-.414 3.511-.844 6.25-.844 1.742 0 3.155.254 4.158.52l-.765-4.539c.178-.282.302-.8.338-1.147h.517zM24 12v1h-3v.5c0 .827-.673 1.5-1.5 1.5h-.662a2.911 2.911 0 0 1-2.755 2H12v-2H9v-1h3v-3H9v-1h3V8h4.083c1.286 0 2.368.842 2.755 2h.662c.827 0 1.5.673 1.5 1.5v.5h3zM14 9h-1v7h1V9zm4 1.917A1.92 1.92 0 0 0 16.083 9H15v7h1.083A1.92 1.92 0 0 0 18 14.083v-3.166zm2 .583c0-.275-.225-.5-.5-.5H19v3h.5c.275 0 .5-.225.5-.5v-2z" stroke-width="0"/></svg>