<svg xmlns="http://www.w3.org/2000/svg" viewBox="0 0 32 32"><path d="M21.074 3.211c-5.144 0-5.927 1.657-10.735 1.657A15 15 0 0 1 5 3.9L1 28a16.3 16.3 0 0 0 7.538 1.8c6.876 0 8.048-2.6 14.924-2.6A33.2 33.2 0 0 1 31 28L27 3.9a26.4 26.4 0 0 0-5.926-.689m2.388 22.99a22.4 22.4 0 0 0-7.77 1.347A20.4 20.4 0 0 1 8.539 28.8a16 16 0 0 1-6.43-1.366L5.794 5.217a15.6 15.6 0 0 0 4.544.651 17.4 17.4 0 0 0 5.445-.847 16.6 16.6 0 0 1 5.29-.81 26 26 0 0 1 5.05.518l3.651 21.999a37.3 37.3 0 0 0-6.313-.528zM17.227 9.67a19.5 19.5 0 0 1-6.73 1.304 27 27 0 0 1-3.219-.201l.16-.961a23 23 0 0 0 3.488.273 16.7 16.7 0 0 0 6.188-1.303 10.6 10.6 0 0 1 3.96-.774 17.6 17.6 0 0 1 3.29.327l.132.79a20 20 0 0 0-2.964-.228 12.4 12.4 0 0 0-4.305.774zm6.41 4.33A26.7 26.7 0 0 0 16 15.172V23a26.8 26.8 0 0 1 7.637-1.17 24 24 0 0 1 2.985.195l-1.327-7.965a23 23 0 0 0-1.658-.06m0 6.83a27.2 27.2 0 0 0-6.637.858v-5.761A25.4 25.4 0 0 1 23.637 15q.411 0 .803.015l.98 5.883a24 24 0 0 0-1.783-.068M9 17.2a3.54 3.54 0 0 0-3.768 3.243A3.54 3.54 0 0 0 9 23.69a3.54 3.54 0 0 0 3.768-3.246A3.54 3.54 0 0 0 9 17.2m0 5.489a2.543 2.543 0 0 1-2.755-2.246A2.54 2.54 0 0 1 9 18.2a2.54 2.54 0 0 1 2.755 2.243A2.543 2.543 0 0 1 9 22.69z"/><path fill="none" d="M0 0h32v32H0z"/></svg>