<svg xmlns="http://www.w3.org/2000/svg" viewBox="0 0 16 16"><path d="M0 0h16v16H0z" style="fill:none"/><path d="M8.5 8a.5.5 0 1 1 0 1 .5.5 0 0 1 0-1m1.5 2.5a.5.5 0 1 0 .999 0 .5.5 0 0 0-.999 0m-3-5a.5.5 0 1 0 1 0 .5.5 0 0 0-1 0m-2 1a.5.5 0 1 0 1.001-.001.5.5 0 0 0-1.001 0m-1 3a.5.5 0 1 0 1 0 .5.5 0 0 0-1 0m7-2a.5.5 0 1 0 .999 0 .5.5 0 0 0-.999 0m-5 3a.5.5 0 1 0 1 0 .5.5 0 0 0-1 0m4.706-8.486c-1.17 0-1.725.201-2.367.434-.716.26-1.526.553-3.045.553-.908 0-1.736-.126-2.359-.26l-1.81 10.697c.573.169 1.49.363 2.668.363 1.668 0 2.746-.363 3.888-.748 1.244-.419 2.53-.852 4.526-.852.974 0 1.813.164 2.489.376l-1.72-10.163c-.496-.17-1.337-.399-2.27-.399m0-1c1.738 0 3.161.674 3.161.674L16 14.29s-1.422-1.09-3.793-1.09c-3.665 0-4.749 1.6-8.414 1.6-2.37 0-3.793-.71-3.793-.71L2.133 1.487S3.556 2 5.294 2c2.688 0 2.721-.986 5.412-.986"/></svg>