<svg xmlns="http://www.w3.org/2000/svg" viewBox="0 0 16 16"><path d="M7.57 13.7l.146.054-.075.172a1.218 1.218 0 0 0-.058.213 11.197 11.197 0 0 1-3.79.661A9.158 9.158 0 0 1 0 14.089l2.133-12.6A10.39 10.39 0 0 0 5.294 2c2.688 0 2.721-.986 5.412-.986a8.204 8.204 0 0 1 3.161.674l1.003 5.927a1.205 1.205 0 0 0-.94.021l-.065.029-.89-5.252a7.212 7.212 0 0 0-2.269-.399 5.895 5.895 0 0 0-2.368.434A7.833 7.833 0 0 1 5.294 3a11.376 11.376 0 0 1-2.359-.26l-1.81 10.697a9.54 9.54 0 0 0 2.668.363 9.93 9.93 0 0 0 3.214-.527 1.243 1.243 0 0 0 .563.428zm7.213-.67q-.05.134-.112.262l.535 1.163-.771.765-1.194-.527q-.13.06-.265.107l-.444 1.2h-1.087l-.47-1.22q-.135-.05-.264-.113l-1.163.535-.764-.771.527-1.194q-.06-.13-.107-.265l-1.2-.444v-1.056l1.2-.444q.047-.136.107-.265l-.527-1.194.764-.771 1.163.535q.129-.062.263-.113L11.445 8h1.087l.444 1.2q.136.047.265.107l1.194-.527.77.765-.534 1.163q.062.128.112.262l1.217.471v1.117zm.215-.906v-.248l-.815-.27a2.206 2.206 0 0 0-.355-.862l.365-.793-.161-.16-.768.387a2.206 2.206 0 0 0-.86-.36L12.101 9h-.226l-.27.817a2.206 2.206 0 0 0-.861.354l-.793-.364-.159.16.385.768a2.206 2.206 0 0 0-.358.86L9 11.897v.204l.818.304a2.205 2.205 0 0 0 .358.859l-.385.768.16.16.792-.364a2.205 2.205 0 0 0 .862.354l.27.817h.226l.302-.819a2.207 2.207 0 0 0 .86-.359l.768.386.161-.16-.365-.792a2.205 2.205 0 0 0 .355-.862zM12 11a1 1 0 1 0 1 1 1 1 0 0 0-1-1z"/><path fill="none" d="M0 0h16v16H0z"/></svg>