<?xml version="1.0" encoding="UTF-8"?><svg id="icons" xmlns="http://www.w3.org/2000/svg" viewBox="0 0 16 16"><defs><style>.cls-1{fill:none;}.cls-1,.cls-2{stroke-width:0px;}</style></defs><rect class="cls-1" y="0" width="16" height="16"/><path class="cls-2" d="M15.30786,10.2002l.69214,4.08887s-1.42236-1.08905-3.79272-1.08905c-3.66553,0-4.74902,1.59998-8.41455,1.59998C1.42236,14.79999,0,14.08905,0,14.08905L2.13281,1.48828s1.42285.51172,3.16113.51172c2.6875,0,2.72119-.98572,5.41211-.98572,1.73828,0,3.16113.67395,3.16113.67395l.83765,4.94879c-.29541-.36823-.69092-.64081-1.14307-.76141l-.58618-3.46283c-.49536-.16968-1.33667-.3985-2.26953-.3985-1.17041,0-1.72534.20087-2.36768.43335-.71509.25891-1.52563.55237-3.04443.55237-.90796,0-1.73608-.12628-2.35864-.26007l-1.81079,10.69733c.57397.16846,1.49097.36273,2.66821.36273,1.44775,0,2.44995-.27631,3.4353-.59979h2.26807c.94214,0,1.83203-.3725,2.50684-.99463.06934-.0011.1333-.00555.20435-.00555.97412,0,1.8125.16431,2.48853.37592l-.31787-1.87872c.17627-.14282.33838-.3031.46484-.49701h.46509ZM16,8v1h-2c0,.55176-.44824,1-1,1h-1.05103c-.23364,1.14008-1.24463,2-2.45288,2h-3.49609v-1h-2v-1h2v-3h-2v-1h2v-1h3.49609c1.20825,0,2.21924.85992,2.45288,2h1.05103c.55176,0,1,.44873,1,1h2ZM8,6h-1v5h1v-5ZM11,7.50391c0-.8291-.6748-1.50391-1.50391-1.50391h-.49609v5h.49609c.8291,0,1.50391-.6748,1.50391-1.50391v-1.99219ZM13,9v-1h-1v1h1Z"/></svg>