<svg xmlns="http://www.w3.org/2000/svg" viewBox="0 0 32 32"><path d="M0 0h32v32H0z" style="fill:none"/><path d="M27 4s-2.667-.689-5.926-.689c-5.144 0-5.927 1.657-10.735 1.657C7.52 4.968 5.7 4.333 5 4.1l-4 24s3.093 1.8 7.538 1.8c6.876 0 8.048-2.6 14.924-2.6 4.445 0 7.538.6 7.538.6zM15.693 27.648c-1.993.644-3.875 1.252-7.155 1.252-3.003 0-5.37-.886-6.43-1.366L5.794 5.317a15.6 15.6 0 0 0 4.544.651c2.505 0 4-.43 5.445-.846 1.448-.417 2.816-.811 5.29-.811 2.188 0 4.104.325 5.05.518l3.651 22a37.3 37.3 0 0 0-6.313-.529c-3.595 0-5.717.686-7.77 1.348M16.24 8l-6.13 14h1.11l1.728-4h7.214l1.728 4H23L16.869 8zm.314 1.752L19.686 17h-6.263z"/></svg>