<svg xmlns="http://www.w3.org/2000/svg" viewBox="0 0 32 32"><path d="M23.462 27.2A33.2 33.2 0 0 1 31 28L27 3.9a26.4 26.4 0 0 0-5.926-.689c-5.144 0-5.927 1.657-10.735 1.657A15 15 0 0 1 5 3.9L1 28a16.3 16.3 0 0 0 7.538 1.8c6.876 0 8.048-2.6 14.924-2.6m-21.355.234L5.795 5.217a15.6 15.6 0 0 0 4.544.651 17.4 17.4 0 0 0 5.445-.847 16.6 16.6 0 0 1 5.29-.81 26 26 0 0 1 5.05.518l3.651 21.999a37.3 37.3 0 0 0-6.313-.528 22.4 22.4 0 0 0-7.77 1.348A20.4 20.4 0 0 1 8.539 28.8a16 16 0 0 1-6.43-1.366z"/><path fill="none" d="M0 0h32v32H0z"/></svg>