<svg xmlns="http://www.w3.org/2000/svg" viewBox="0 0 32 32"><path d="M0 0h32v32H0z" style="fill:none"/><path d="M15.5 15a1.5 1.5 0 1 1-.001 3.001A1.5 1.5 0 0 1 15.5 15M13 9.501a1.5 1.5 0 1 0 3-.002 1.5 1.5 0 0 0-3 .002M7 12.5a1.5 1.5 0 1 0 2.999.001A1.5 1.5 0 0 0 7 12.5m-1 8c0 .829.67 1.5 1.5 1.5a1.499 1.499 0 1 0 0-3A1.5 1.5 0 0 0 6 20.5m17-6.002a1.501 1.501 0 1 0 3.002 0 1.501 1.501 0 0 0-3.002 0M12 22.5c0 .828.664 1.499 1.484 1.499.821 0 1.487-.67 1.487-1.499s-.666-1.5-1.487-1.5c-.82 0-1.484.673-1.484 1.501M27 4s-2.667-.689-5.926-.689c-5.144 0-5.927 1.657-10.735 1.657C7.52 4.968 5.7 4.333 5 4.1l-4 24s3.093 1.8 7.538 1.8c6.876 0 8.048-2.6 14.924-2.6 4.445 0 7.538.6 7.538.6zM8.538 28.9c-3.003 0-5.37-.886-6.43-1.366L5.794 5.317a15.6 15.6 0 0 0 4.544.651c2.505 0 4-.43 5.445-.846 1.448-.417 2.816-.811 5.29-.811 2.188 0 4.104.325 5.05.518l3.651 22a37.3 37.3 0 0 0-6.313-.529c-3.595 0-5.717.686-7.77 1.348-1.992.644-3.874 1.252-7.154 1.252M22.5 19a1.5 1.5 0 1 0 0 3 1.5 1.5 0 0 0 0-3"/></svg>