<svg xmlns="http://www.w3.org/2000/svg" viewBox="0 0 16 16"><path d="M12.207 13.2A6.6 6.6 0 0 1 16 14.29L13.867 1.687a8.2 8.2 0 0 0-3.161-.674c-2.69 0-2.724.986-5.412.986a10.4 10.4 0 0 1-3.161-.512L0 14.09a9.2 9.2 0 0 0 3.793.711c3.665 0 4.749-1.6 8.414-1.6zM2.935 2.74A11.4 11.4 0 0 0 5.294 3a7.8 7.8 0 0 0 3.045-.552 5.9 5.9 0 0 1 2.367-.434 7.2 7.2 0 0 1 2.27.399l1.72 10.163a8.3 8.3 0 0 0-2.489-.376 12.8 12.8 0 0 0-4.526.852 11 11 0 0 1-3.888.748 9.5 9.5 0 0 1-2.668-.363zM12 4H4l-1 8h10zM7.95 5a.74.74 0 0 0-.2.5.75.75 0 0 0 1.5 0 .74.74 0 0 0-.2-.5h2.067l.523 4.18a3 3 0 0 1-.988-.173 4.3 4.3 0 0 1-1.23-.911l-.108-.107a1.1 1.1 0 0 0-.743-.292 2.53 2.53 0 0 1-1.475-.324 2 2 0 0 1-.368-.38 2.33 2.33 0 0 0-1.174-.88 1.8 1.8 0 0 0-.806-.038L4.883 5zm-3.817 6 .507-4.054a1.14 1.14 0 0 1 .698-.064 1.6 1.6 0 0 1 .772.618 2.6 2.6 0 0 0 .539.537 3.26 3.26 0 0 0 1.918.46.3.3 0 0 1 .195.07l.099.099a5 5 0 0 0 1.475 1.077 3.8 3.8 0 0 0 1.404.242L11.867 11zM9.75 6.5a.75.75 0 1 1 .75.75.75.75 0 0 1-.75-.75"/><path fill="none" d="M0 0h16v16H0z"/></svg>