<svg xmlns="http://www.w3.org/2000/svg" viewBox="0 0 24 24"><path d="M21.384 16.4 19.057 2.59a10.6 10.6 0 0 0-2.746-.39 6.9 6.9 0 0 0-3.11.65 10.8 10.8 0 0 1-4.63.95 16.7 16.7 0 0 1-2.914-.268L3.262 17.436a13.4 13.4 0 0 0 3.162.364 21.2 21.2 0 0 0 5.549-.761 25 25 0 0 1 6.485-.873 18 18 0 0 1 2.926.234M8.571 4.8a11.8 11.8 0 0 0 5.01-1.025 5.9 5.9 0 0 1 2.73-.575 9 9 0 0 1 1.87.206l1.468 8.715a4 4 0 0 1-.738.13 2.3 2.3 0 0 1-.803-.145 4.74 4.74 0 0 1-2.007-1.795 5.5 5.5 0 0 0-1.563-1.556 2.4 2.4 0 0 0-1.182-.205 2.17 2.17 0 0 1-1.262-.268 2.53 2.53 0 0 1-.73-1.037 2.1 2.1 0 0 0-.774-1.029A2 2 0 0 0 9.627 6a7.5 7.5 0 0 0-3.603 1.293l.452-2.626a17 17 0 0 0 2.095.133m3.168 11.266a20.4 20.4 0 0 1-5.315.734 13 13 0 0 1-2.012-.153l1.37-7.951c.093-.076.18-.159.276-.231 1.387-1.036 3.423-1.715 4.097-1.36a1.7 1.7 0 0 1 .363.592 3.4 3.4 0 0 0 1.045 1.414 2.97 2.97 0 0 0 1.786.44 1.9 1.9 0 0 1 .748.09 4.8 4.8 0 0 1 1.268 1.302 5.6 5.6 0 0 0 2.436 2.11 3.2 3.2 0 0 0 1.11.198 4.3 4.3 0 0 0 .904-.144l.36 2.134a20 20 0 0 0-1.718-.075 25.7 25.7 0 0 0-6.718.9M12.5 5.5a1 1 0 1 1 1 1 1 1 0 0 1-1-1m3 2a1 1 0 1 1 1 1 1 1 0 0 1-1-1M13 18.85a22 22 0 0 1 5.458-.684 13.1 13.1 0 0 1 5.423 1.017l-3.05-18.105A12.7 12.7 0 0 0 16.31.2c-3.848 0-3.892 1.6-7.74 1.6a15 15 0 0 1-4.52-.722L1 18.783A13.1 13.1 0 0 0 6.424 19.8 22 22 0 0 0 12 19.088V23H4v1h17v-1h-8zm-10.876-.7L4.848 2.343A16.2 16.2 0 0 0 8.57 2.8a9.8 9.8 0 0 0 4.25-.875 7.8 7.8 0 0 1 3.49-.725 11.9 11.9 0 0 1 3.63.615l2.674 15.872a16.3 16.3 0 0 0-4.157-.52 24 24 0 0 0-6.251.844 22 22 0 0 1-5.783.789 13.7 13.7 0 0 1-4.3-.65z"/><path fill="none" d="M0 0h24v24H0z"/></svg>