<svg xmlns="http://www.w3.org/2000/svg" viewBox="0 0 16 16"><path d="M12.207 12.2A6.6 6.6 0 0 1 16 13.29L13.867.687a8.2 8.2 0 0 0-3.161-.674C8.016.014 7.982 1 5.294 1A10.4 10.4 0 0 1 2.133.488L0 13.09a9.2 9.2 0 0 0 3.793.711A10.7 10.7 0 0 0 7 13.322V15H2v1h11v-1H8v-2a11.9 11.9 0 0 1 4.207-.8m-11.082.237L2.935 1.74A11.4 11.4 0 0 0 5.294 2a7.8 7.8 0 0 0 3.045-.552 5.9 5.9 0 0 1 2.367-.434 7.2 7.2 0 0 1 2.27.399l1.72 10.163a8.3 8.3 0 0 0-2.489-.376 12.8 12.8 0 0 0-4.526.852 11 11 0 0 1-3.888.748 9.5 9.5 0 0 1-2.668-.363M12.105 3h-8.21L3 11h10zM7.948 4a.74.74 0 0 0-.199.5.75.75 0 0 0 1.5 0 .74.74 0 0 0-.2-.5h2.16l.468 4.182a3 3 0 0 1-1.026-.175 4.3 4.3 0 0 1-1.23-.911l-.108-.107a1.1 1.1 0 0 0-.743-.292 2.53 2.53 0 0 1-1.475-.324 2 2 0 0 1-.368-.38 2.33 2.33 0 0 0-1.174-.88 1.8 1.8 0 0 0-.887-.018L4.79 4zm-3.83 6 .45-4.028a1.17 1.17 0 0 1 .769-.09 1.6 1.6 0 0 1 .772.619 2.6 2.6 0 0 0 .539.536 3.26 3.26 0 0 0 1.918.46.3.3 0 0 1 .195.07l.099.099a5 5 0 0 0 1.475 1.077 3.8 3.8 0 0 0 1.432.244L11.882 10zM9.75 5.5a.75.75 0 1 1 .75.75.75.75 0 0 1-.75-.75"/><path fill="none" d="M0 0h16v16H0z"/></svg>