<svg xmlns="http://www.w3.org/2000/svg" viewBox="0 0 24 24"><path d="M16.31 2.2c-3.847 0-3.891 1.6-7.74 1.6a15 15 0 0 1-4.52-.722L1 20.783A13.1 13.1 0 0 0 6.424 21.8c5.242 0 6.792-1.634 12.034-1.634a13.1 13.1 0 0 1 5.423 1.017l-3.05-18.105a12.7 12.7 0 0 0-4.52-.878zm2.148 16.966a24 24 0 0 0-6.251.845 22 22 0 0 1-5.783.789 13.7 13.7 0 0 1-4.3-.65L4.848 4.343A16.2 16.2 0 0 0 8.57 4.8a9.8 9.8 0 0 0 4.25-.875 7.8 7.8 0 0 1 3.49-.725 11.9 11.9 0 0 1 3.63.615l2.674 15.872a16.3 16.3 0 0 0-4.157-.52zM16.31 4.2a6.9 6.9 0 0 0-3.11.65 10.8 10.8 0 0 1-4.63.95 16.7 16.7 0 0 1-2.914-.268L3.262 19.436a13.4 13.4 0 0 0 3.162.364 21.2 21.2 0 0 0 5.549-.761 25 25 0 0 1 6.485-.873 18 18 0 0 1 2.926.234L19.057 4.59a10.6 10.6 0 0 0-2.746-.39zM6.476 6.667a17 17 0 0 0 2.095.133 11.8 11.8 0 0 0 5.01-1.025 5.8 5.8 0 0 1 2.331-.566L11.793 12H5.558zm5.263 11.4a20.4 20.4 0 0 1-5.315.733 13 13 0 0 1-2.012-.153L5.385 13h6.268l3.54 4.378a33 33 0 0 0-3.454.688zm6.719-.901c-.76 0-1.448.03-2.085.082l-3.767-4.66 4.454-7.342a10 10 0 0 1 1.12.16l1.995 11.835q-.85-.075-1.717-.075M7.5 8.5a1 1 0 1 1 1 1 1 1 0 0 1-1-1m10 2.9a1 1 0 1 1-1-1 1 1 0 0 1 1 1m-9 4.1a1 1 0 1 1-1-1 1 1 0 0 1 1 1"/><path fill="none" d="M0 0h24v24H0z"/></svg>