<svg xmlns="http://www.w3.org/2000/svg" viewBox="0 0 24 24"><path d="M0 0h24v24H0z" style="fill:none"/><path d="M8 10a1 1 0 1 1-2 0 1 1 0 0 1 2 0m-2 4a1 1 0 1 0 0 2 1 1 0 0 0 0-2m5-8a1 1 0 1 0 0 2 1 1 0 0 0 0-2m1 5a1 1 0 1 0 0 2 1 1 0 0 0 0-2m6-2a1 1 0 1 0 0 2 1 1 0 0 0 0-2m-2 5a1 1 0 1 0 0 2 1 1 0 0 0 0-2m-6 2a1 1 0 1 0 0 2 1 1 0 0 0 0-2m6.31-12.8c-1.726 0-2.543.336-3.49.725-.997.41-2.128.875-4.25.875-1.495 0-2.832-.242-3.722-.457L2.124 20.15c.807.27 2.301.65 4.3.65 2.502 0 4.096-.383 5.783-.79 1.726-.414 3.511-.844 6.25-.844 1.742 0 3.155.254 4.158.52l-2.674-15.87c-.703-.235-2.08-.615-3.63-.615m0-1c2.486 0 4.52.878 4.52.878l3.05 18.105s-2.034-1.017-5.423-1.017c-5.242 0-6.792 1.634-12.034 1.634C3.034 21.8 1 20.783 1 20.783L4.05 3.078s2.035.722 4.52.722c3.849 0 3.893-1.6 7.74-1.6"/></svg>