<?xml version="1.0" encoding="UTF-8"?><svg id="icons" xmlns="http://www.w3.org/2000/svg" viewBox="0 0 24 24"><defs><style>.cls-1{fill:none;}</style></defs><rect class="cls-1" width="24" height="24"/><path d="M16.31074,3.2c1.55054,0,2.92717.38011,3.62987.61504l2.67447,15.87149c-1.00352-.26648-2.41653-.52042-4.15745-.52042-2.73963,0-4.52462.42941-6.25084.84468-1.68708.40587-3.2806.78922-5.78305.78922-1.99866,0-3.49306-.38091-4.29987-.65024l2.72372-15.80666c.8906.21461,2.22719.45689,3.72301.45689,2.12155,0,3.25249-.46492,4.25028-.87511.94619-.38896,1.76335-.7249,3.48985-.7249M16.31074,2.2c-3.84805,0-3.89207,1.60001-7.74013,1.60001-2.48586,0-4.51975-.72203-4.51975-.72203L1.00001,20.78305s2.03389,1.01695,5.42373,1.01695c5.24208,0,6.79181-1.6339,12.03389-1.6339,3.38982,0,5.42373,1.01694,5.42373,1.01694l-3.05085-18.10507s-2.03391-.87798-4.51977-.87798h0ZM5,9v7h1v-7h-1ZM19,9v7h1v-7h-1ZM14.35352,8.64648l-.70703.70703,2.64648,2.64648h-7.58594l2.64648-2.64648-.70703-.70703-3.85352,3.85352,3.85352,3.85352.70703-.70703-2.64648-2.64648h7.58594l-2.64648,2.64648.70703.70703,3.85352-3.85352-3.85352-3.85352Z"/></svg>