<svg xmlns="http://www.w3.org/2000/svg" viewBox="0 0 32 32"><path d="m21.823 26.938.299.3c-5.72.31-7.182 2.562-13.584 2.562A16.3 16.3 0 0 1 1 28L5 3.9a15 15 0 0 0 5.34.968c4.807 0 5.59-1.657 10.734-1.657A26.4 26.4 0 0 1 27 3.9l3.579 21.563-1.215-1.215-3.24-19.519a26.3 26.3 0 0 0-5.05-.518 16.6 16.6 0 0 0-5.29.81 17.4 17.4 0 0 1-5.445.847 15.6 15.6 0 0 1-4.544-.65L2.108 27.433a16 16 0 0 0 6.43 1.366 20.4 20.4 0 0 0 7.155-1.252 23.5 23.5 0 0 1 5.666-1.256 2.7 2.7 0 0 0 .464.646zM24.8 18.5a6.32 6.32 0 0 1-1.51 4.082l.872.873.218-.218a.81.81 0 0 1 1.144 0l4.24 4.238a.81.81 0 0 1 0 1.145l-1.145 1.143a.81.81 0 0 1-1.143 0l-4.24-4.239a.81.81 0 0 1 0-1.144l.219-.218-.873-.873A6.294 6.294 0 1 1 24.8 18.5m-.722 6.453 3.97 3.968.874-.873-3.97-3.968zM18.5 23.8a5.3 5.3 0 1 0-5.3-5.3 5.25 5.25 0 0 0 5.3 5.3M22 19v-1h-3v-3h-1v3h-3v1h3v3h1v-3z"/><path fill="none" d="M0 0h32v32H0z"/></svg>