<?xml version="1.0" encoding="UTF-8"?><svg id="icons" xmlns="http://www.w3.org/2000/svg" viewBox="0 0 16 16"><defs><style>.cls-1{fill:none;}</style></defs><rect class="cls-1" width="16" height="16"/><path d="M13.86719,1.68823s-1.42273-.67395-3.16119-.67395c-2.69073,0-2.72449.98572-5.41199.98572-1.73846,0-3.16119-.51172-3.16119-.51172L0,14.08905s1.4223.71094,3.79266.71094c3.66547,0,4.74921-1.59998,8.41467-1.59998,2.37036,0,3.79266,1.08905,3.79266,1.08905L13.86719,1.68823ZM7.68073,13.05231c-1.14124.38452-2.21924.74768-3.88806.74768-1.17719,0-2.09424-.19427-2.66809-.36267L2.93518,2.73993c.62262.13379,1.45068.26007,2.35883.26007,1.51874,0,2.32935-.29346,3.04456-.55237.64233-.23248,1.19708-.43335,2.36743-.43335.93298,0,1.77417.22882,2.26959.3985l1.72021,10.16309c-.67596-.21161-1.51447-.37585-2.48846-.37585-1.99664,0-3.28284.43329-4.52661.85229ZM13,4v7h-1v-3.31836l-2.64648,2.64648-.70703-.70703,1.62109-1.62109h-4.59937l1.62183,1.62109-.70703.70703-2.58301-2.58209v3.25397h-1v-7h1v3.29297l2.58301-2.58301.70703.70703-1.58301,1.58301h4.52173l-1.58228-1.58301.70703-.70703,2.64648,2.6474v-3.35736h1Z"/></svg>