<svg xmlns="http://www.w3.org/2000/svg" viewBox="0 0 32 32"><path d="M0 0h32v32H0z" style="fill:none"/><path d="M31 27.915s-3.093-.794-7.538-.794c-6.876 0-8.048 2.779-14.924 2.779C4.093 29.9 1 27.915 1 27.915l4-23.82c.7.23 2.519.86 5.34.86 4.807 0 5.59-1.644 10.734-1.644 3.26 0 5.926.684 5.926.684zm-15.307-.448c2.052-.658 4.174-1.338 7.77-1.338 2.725 0 4.948.287 6.312.523L26.124 4.817a26.4 26.4 0 0 0-5.05-.514c-2.474 0-3.842.391-5.29.805-1.445.413-2.94.84-5.445.84-2.005 0-3.527-.343-4.544-.646L2.107 27.353c1.061.476 3.428 1.547 6.43 1.547 3.281 0 5.163-.795 7.156-1.433M6 21.96h1V11.042H6zm19-10.918V21.96h1V11.042zm-5.354 2.336 2.647 2.627H9.707l2.646-2.627-.707-.702L8 16.501l3.646 3.825.708-.702-2.647-2.627h12.586l-2.647 2.627.708.702L24 16.5l-3.646-3.825z"/></svg>