<?xml version="1.0" encoding="UTF-8"?><svg id="icons" xmlns="http://www.w3.org/2000/svg" viewBox="0 0 24 24"><defs><style>.cls-1{fill:none;}</style></defs><rect class="cls-1" width="24" height="24"/><path d="M20.83057,3.07794s-2.03394-.87793-4.51978-.87793c-3.84814,0-3.89209,1.59998-7.74023,1.59998-2.48584,0-4.51978-.72205-4.51978-.72205L1,20.78302s2.03394,1.01697,5.42383,1.01697c5.24194,0,6.79175-1.63391,12.03369-1.63391,3.38989,0,5.42383,1.01697,5.42383,1.01697l-3.05078-18.1051ZM12.20679,20.01074c-1.68701.40588-3.28052.78925-5.78296.78925-1.99878,0-3.49316-.38092-4.30005-.65027l2.72363-15.80664c.89062.21466,2.22729.45691,3.72314.45691,2.12158,0,3.25244-.4649,4.25024-.87506.94629-.38898,1.76343-.72491,3.48999-.72491,1.55054,0,2.92725.38007,3.62988.61499l2.67432,15.87152c-1.00342-.26648-2.4165-.52045-4.15747-.52045-2.7395,0-4.52441.42944-6.25073.84467ZM9,14h1v1h-.29297l-1.14648,1.14648-.70703-.70703,1.14648-1.14648v-.29297ZM9.28809,6l-3.28809,3.42383v8.57617h8.57324l3.42676-3.28613V6h-8.71191ZM14.29297,9h-6.48438l1.19141-1.22321v.22321h1v-1h6.28589l-1.99292,2ZM7,10h2v2h1v-2h4v4h-2v1h2v2h-7v-7ZM16,14v1h.25195l-1.25195,1.19495v-6.48792l2-2v6.29297h-1Z"/></svg>