<svg xmlns="http://www.w3.org/2000/svg" viewBox="0 0 24 24"><path d="M9.277 20.442a7.3 7.3 0 0 0 1.304.744 21.5 21.5 0 0 1-5.157.614A13.1 13.1 0 0 1 0 20.783L3.05 3.078a15 15 0 0 0 4.52.722c3.849 0 3.893-1.6 7.74-1.6a12.7 12.7 0 0 1 4.52.878l2.642 15.678-1.113-1.114c-.031-.031-.07-.052-.102-.081L18.94 3.815a11.9 11.9 0 0 0-3.63-.615 7.8 7.8 0 0 0-3.49.725 9.8 9.8 0 0 1-4.25.875 16.2 16.2 0 0 1-3.723-.457L1.124 20.15a13.7 13.7 0 0 0 4.3.65 20 20 0 0 0 3.853-.358m13.519 1.467a.68.68 0 0 1 0 .962l-.934.932a.666.666 0 0 1-.943 0l-2.855-2.855a.67.67 0 0 1 0-.943l.129-.13-1.32-1.318a5.362 5.362 0 1 1 .69-.69l1.32 1.319.124-.124a.67.67 0 0 1 .943 0zm-4.994-7.41a4.3 4.3 0 1 0-4.3 4.3 4.304 4.304 0 0 0 4.3-4.3m4.06 7.89-2.383-2.385-.473.473 2.385 2.383zM14 12h-1v2h-2v1h2v2h1v-2h2v-1h-2z"/><path fill="none" d="M0 0h24v24H0z"/></svg>