<?xml version="1.0" encoding="UTF-8"?><svg id="icons" xmlns="http://www.w3.org/2000/svg" viewBox="0 0 16 16"><defs><style>.cls-1{fill:none;}</style></defs><rect class="cls-1" width="16" height="16"/><path d="M8.4996,8c.27682,0,.5004.22416.5004.5,0,.27592-.22358.5-.5004.5-.27602,0-.4996-.22408-.4996-.5,0-.27584.22358-.5.4996-.5ZM10,10.5004c0,.27602.22352.4996.49964.4996.27604,0,.50036-.22358.50036-.4996,0-.2761-.22432-.5004-.50036-.5004-.27612,0-.49964.2243-.49964.5004ZM7,5.50004c0,.27582.22352.49996.49956.49996.27612,0,.50044-.22414.50044-.49996,0-.2759-.22432-.50004-.50044-.50004-.27604,0-.49956.22414-.49956.50004ZM5,6.49964c0,.27604.22432.50036.50036.50036.27612,0,.49964-.22432.49964-.50036,0-.27612-.22352-.49964-.49964-.49964-.27604,0-.50036.22352-.50036.49964ZM4,9.49996c0,.27634.2237.50004.49996.50004.27634,0,.50004-.2237.50004-.50004,0-.27626-.2237-.50004-.50004-.50004-.27626,0-.49996.22378-.49996.50004ZM11,7.49964c0,.27612.22352.49964.49956.49964.27612,0,.50044-.22352.50044-.49964,0-.27604-.22432-.49964-.50044-.49964-.27604,0-.49956.2236-.49956.49964ZM6,10.50036c0,.27612.2243.49964.5004.49964.27602,0,.4996-.22352.4996-.49964,0-.27604-.22358-.50036-.4996-.50036-.2761,0-.5004.22432-.5004.50036ZM10.70601,2.01431c-1.17036,0-1.72511.20082-2.36746.43335-.71518.2589-1.52577.55234-3.04456.55234-.90814,0-1.73619-.12625-2.35881-.26007l-1.81064,10.69737c.57388.16844,1.49092.3627,2.66814.3627,1.66881,0,2.74678-.36317,3.88805-.74766,1.24379-.41904,2.52994-.85234,4.5266-.85234.97401,0,1.81252.1643,2.48848.3759l-1.72021-10.16314c-.49541-.16963-1.33664-.39846-2.26958-.39846M10.70601,1.01431c1.73843,0,3.16118.67396,3.16118.67396l2.13281,12.6008s-1.42232-1.08907-3.79268-1.08907c-3.66547,0-4.74918,1.6-8.41464,1.6-2.37038,0-3.79268-.71093-3.79268-.71093L2.1328,1.48827s1.42276.51173,3.16119.51173c2.68752,0,2.72124-.98569,5.41202-.98569h0Z"/></svg>