<svg xmlns="http://www.w3.org/2000/svg" viewBox="0 0 24 24"><path d="M0 0h24v24H0z" style="fill:none"/><path d="M20.83 3.078S18.798 2.2 16.31 2.2c-3.847 0-3.891 1.6-7.74 1.6-2.485 0-4.52-.722-4.52-.722L1 20.783S3.034 21.8 6.424 21.8c5.242 0 6.792-1.634 12.034-1.634 3.39 0 5.423 1.017 5.423 1.017zM12.208 20.01c-1.687.406-3.28.789-5.783.789-1.999 0-3.493-.38-4.3-.65L4.847 4.343c.891.215 2.228.457 3.724.457 2.121 0 3.252-.465 4.25-.875.946-.39 1.763-.725 3.49-.725 1.55 0 2.927.38 3.63.615l2.674 15.872a16.3 16.3 0 0 0-4.157-.52c-2.74 0-4.525.429-6.251.844M9 14h1v1h-.293l-1.146 1.146-.707-.707L9 14.293zm.288-8L6 9.424V18h8.573L18 14.714V6zm5.005 3H7.809L9 7.777V8h1V7h6.286zM7 10h2v2h1v-2h4v4h-2v1h2v2H7zm9 4v1h.252L15 16.195V9.707l2-2V14z"/></svg>