<svg xmlns="http://www.w3.org/2000/svg" viewBox="0 0 32 32"><path d="M23.462 27.2A33.2 33.2 0 0 1 31 28L27 3.9a26.4 26.4 0 0 0-5.926-.689c-5.144 0-5.927 1.657-10.735 1.657A15 15 0 0 1 5 3.9L1 28a16.3 16.3 0 0 0 7.538 1.8c6.876 0 8.048-2.6 14.924-2.6M5.795 5.217a15.6 15.6 0 0 0 4.544.651 17.4 17.4 0 0 0 5.445-.846 16.6 16.6 0 0 1 5.29-.81 26.3 26.3 0 0 1 5.05.517l3.651 22a37 37 0 0 0-6.313-.529 22.4 22.4 0 0 0-7.77 1.348A20.4 20.4 0 0 1 8.539 28.8a16 16 0 0 1-6.43-1.366zm9.283 20.428a24.4 24.4 0 0 1 8.384-1.445c1.444 0 2.76.079 3.897.19L24.384 6.458a24 24 0 0 0-2.668-.233c-.212-.006-.424-.014-.642-.014a14.8 14.8 0 0 0-4.736.732 29 29 0 0 1-2.018.523 17.2 17.2 0 0 1-4.359.602 15 15 0 0 1-2.574-.229l-2.952 17.79-.087.525a14 14 0 0 0 4.19.646 18.5 18.5 0 0 0 6.54-1.155m11.085-2.356a41 41 0 0 0-2.701-.089 25 25 0 0 0-4.599.395l-.013-.059c.089-.052.214-.113.308-.16a2.09 2.09 0 0 0 1.452-1.832 1.5 1.5 0 0 0-.18-.71l.072-.066a2.03 2.03 0 0 0 .82-1.55v-.25a1.8 1.8 0 0 0 .602.105 2 2 0 0 0 1.63-.97 2.4 2.4 0 0 0 .514.676 2.6 2.6 0 0 0 .995.543l.464.138zM20.628 7.777a.8.8 0 0 1 .042-.263 1 1 0 0 1 .176-.299c.078 0 .148-.004.228-.004a22 22 0 0 1 2.445.143l1.827 11.01a1.6 1.6 0 0 1-.617-.337c-.456-.4-.446-1.2-1.069-1.2-.835 0-.9 1.246-1.736 1.246-.378 0-.557-.268-.934-.268a.616.616 0 0 0-.668.546v.868c0 .733-.978.879-.978 1.614 0 .299.267.41.267.71 0 1.002-1.78.868-1.78 1.87a1.6 1.6 0 0 0 .054.39c-1.162.267-2.171.586-3.115.89-.737.239-1.416.457-2.132.636.004-.04.013-.075.013-.118 0-1.016-1.94-.732-2.245-1.339-.755-1.509 1.29-1.896 1.29-3.103 0-.3-.154-.909-.621-.956-.653-.067-.823.287-1.48.287a.75.75 0 0 1-.812-.667c0-.718.572-1.052.572-1.769 0-.466-.19-.728-.19-1.193a1.15 1.15 0 0 1 1.098-1.196c.598 0 .86.49 1.146 1.004a1.19 1.19 0 0 0 1.147.573c.907 0 1.48-1.133 1.48-1.815a.875.875 0 0 1 .813-.907c.644 0 .883.669 1.528.669 1.062 0 1.022-1.405 1.957-1.912 1.146-.62.813-1.956.669-2.672-.062-.318.54-.932.861-.91 1.337.097.764-1 .764-1.528M8.214 8.967a15 15 0 0 0 1.747.101 18.3 18.3 0 0 0 4.612-.635 29 29 0 0 0 2.041-.529 14.6 14.6 0 0 1 3.086-.64 2 2 0 0 0-.072.513 3 3 0 0 0 .064.549 2.14 2.14 0 0 0-1.254.76 1.6 1.6 0 0 0-.417 1.319l.023.112c.196.96.153 1.307-.186 1.49a3.2 3.2 0 0 0-1.239 1.38 2.4 2.4 0 0 1-.276.43c.032-.03-.06-.1-.128-.15a2.2 2.2 0 0 0-1.366-.537 1.864 1.864 0 0 0-1.813 1.907c0 .32-.32.815-.48.815a.56.56 0 0 1-.26-.038 2.36 2.36 0 0 0-2.032-1.539 2.15 2.15 0 0 0-2.099 2.196 3.2 3.2 0 0 0 .128.849 1.3 1.3 0 0 1 .062.344.94.94 0 0 1-.164.406 2.7 2.7 0 0 0-.408 1.363A1.746 1.746 0 0 0 9.595 21.1a2.7 2.7 0 0 0 1.043-.213 4 4 0 0 1-.377.41 2.41 2.41 0 0 0-.75 3.023 2.2 2.2 0 0 0 1.654.982c.132.031.324.076.464.121l-.009.127a17 17 0 0 1-3.082.25 13 13 0 0 1-3.057-.368z"/><path fill="none" d="M0 0h32v32H0z"/></svg>