<?xml version="1.0" encoding="UTF-8"?><svg id="icons" xmlns="http://www.w3.org/2000/svg" viewBox="0 0 32 32"><defs><style>.cls-1{fill:none;}</style></defs><rect class="cls-1" width="32" height="32"/><path d="M31,27.91494s-3.09333-.79403-7.53778-.79403c-6.87635,0-8.04809,2.7791-14.92445,2.7791-4.44444,0-7.53778-1.98507-7.53778-1.98507L5,4.09411c.69921.23133,2.51883.86178,5.33915.86178,4.80807,0,5.59075-1.64478,10.73492-1.64478,3.25926,0,5.92593.68375,5.92593.68375l4,23.92008ZM15.69287,27.46665c2.05176-.65765,4.17383-1.33808,7.76953-1.33808,2.72607,0,4.94873.28787,6.31299.52389l-3.65137-21.83528c-.9458-.19143-2.8623-.51371-5.0498-.51371-2.47461,0-3.84229.39062-5.29004.8045-1.44531.41339-2.94043.84036-5.44482.84036-2.00537,0-3.52783-.34312-4.54443-.64602l-3.6875,22.05094c1.06055.47591,3.42725,1.54666,6.43018,1.54666,3.28076,0,5.1626-.7945,7.15527-1.43325ZM6,21.95973h1v-10.91788h-1v10.91788ZM25,11.04185v10.91788h1v-10.91788h-1ZM19.64648,13.37779l2.64648,2.62673h-12.58594l2.64648-2.62673-.70703-.70175-3.64648,3.82475,3.64648,3.82475.70703-.70175-2.64648-2.62673h12.58594l-2.64648,2.62673.70703.70175,3.64648-3.82475-3.64648-3.82475-.70703.70175Z"/></svg>