<?xml version="1.0" encoding="UTF-8"?><svg id="icons" xmlns="http://www.w3.org/2000/svg" viewBox="0 0 32 32"><defs><style>.cls-1{fill:none;}</style></defs><rect class="cls-1" width="32" height="32"/><path d="M24.69476,13.68734l.00543-.01241-8.2002-3.57489-8.2002,3.57489.00543.01241c-.02448.01052-.05188.00991-.07477.02457-.14355.09146-.23047.24909-.23047.41937v4.42434c0,.1946.11328.3717.29102.45246l8,3.6683c.06641.03016.1377.04573.20898.04573s.14258-.01557.20898-.04573l8-3.6683c.17773-.08076.29102-.25785.29102-.45246v-4.42434c0-.17028-.08691-.32791-.23047-.41937-.02295-.01466-.05029-.01399-.07477-.02457ZM16.5,11.18789l6.77911,2.95489-6.77911,3.10802-6.77911-3.10802,6.77911-2.95489ZM9,14.90873l7,3.20989v3.32726l-7-3.2094v-3.32774ZM24,18.23647l-7,3.2094v-3.32726l7-3.20989v3.32774ZM27,4.00001s-2.66669-.68884-5.9259-.68884c-5.14417,0-5.92688,1.6571-10.73492,1.6571-2.82037,0-4.63995-.63513-5.33917-.86823L1,28.10005s3.09332,1.79999,7.53778,1.79999c6.87634,0,8.0481-2.59998,14.92444-2.59998,4.44446,0,7.53778.59998,7.53778.59998l-4-23.90002ZM15.69287,27.64839c-1.99268.64355-3.87451,1.25146-7.15527,1.25146-3.00293,0-5.36963-.88623-6.43018-1.36572L5.79492,5.31733c1.0166.30518,2.53906.65088,4.54443.65088,2.50439,0,3.99951-.43018,5.44482-.84668,1.44775-.41699,2.81543-.81055,5.29004-.81055,2.1875,0,4.104.32471,5.0498.51758l3.65137,21.99951c-1.36426-.23779-3.58691-.52783-6.31299-.52783-3.5957,0-5.71777.68555-7.76953,1.34814Z"/></svg>