<svg xmlns="http://www.w3.org/2000/svg" viewBox="0 0 16 16"><path d="M12.207 13.2A6.6 6.6 0 0 1 16 14.29L13.867 1.687a8.2 8.2 0 0 0-3.161-.674c-2.69 0-2.724.986-5.412.986a10.4 10.4 0 0 1-3.161-.512L0 14.09a9.2 9.2 0 0 0 3.793.711c3.665 0 4.749-1.6 8.414-1.6zM2.935 2.74A11.4 11.4 0 0 0 5.294 3a7.8 7.8 0 0 0 3.045-.552 5.9 5.9 0 0 1 2.367-.434 7.2 7.2 0 0 1 2.27.399l1.72 10.163a8.3 8.3 0 0 0-2.489-.376 12.8 12.8 0 0 0-4.526.852 11 11 0 0 1-3.888.748 9.5 9.5 0 0 1-2.668-.363zm3.56 7.784v-.048a1 1 0 0 1 2 0v.048a1 1 0 0 1-2 0M7.995 8h-.977V4h.977z"/><path fill="none" d="M0 0h16v16H0z"/></svg>