<svg xmlns="http://www.w3.org/2000/svg" viewBox="0 0 32 32"><path d="M0 0h32v32H0z" style="fill:none"/><path d="M21.074 4.211c2.18 0 4.102.325 5.05.518l3.651 22a37 37 0 0 0-6.313-.529c-3.596 0-5.717.686-7.77 1.348-1.992.644-3.874 1.252-7.154 1.252a15.4 15.4 0 0 1-6.33-1.366L5.795 5.317c1.016.305 2.54.651 4.544.651 2.505 0 4-.53 5.445-.946 1.448-.417 2.816-.81 5.29-.81m0-1c-5.144 0-5.927 1.756-10.735 1.756C7.52 4.968 5.7 4.233 5 4L1.1 28s2.993 1.8 7.438 1.8c6.876 0 8.048-2.6 14.924-2.6 4.445 0 7.538.8 7.538.8L27 3.9s-2.667-.689-5.926-.689M14 21h2v-1h-2zm-3-.707-1.146 1.146.707.707L11.707 21H12v-1h-1zM11 18h1v-2h-1zm.5-10L7 12.418V25h12.691L24 20.71V8zM11 9.877V10h1V9h10.293l-3 3H8.795zM8.707 24l.44-.44-.708-.706-.439.439V13h3v1h1v-1h7v7h-1v1h1v3zM23 20h-1v1h.288L20 23.284V12.707l3-2.953z"/></svg>