<svg xmlns="http://www.w3.org/2000/svg" viewBox="0 0 16 16"><path d="M14.731 8.682a1 1 0 0 0 .235-.502L16 14.29a6.6 6.6 0 0 0-3.793-1.09l-.116.003.05-1.001.066-.002a8.3 8.3 0 0 1 2.489.376l-.553-3.264zm-7.05 4.37a11 11 0 0 1-3.888.748 9.5 9.5 0 0 1-2.668-.363L2.935 2.74A11.4 11.4 0 0 0 5.294 3a7.8 7.8 0 0 0 3.045-.552 5.9 5.9 0 0 1 2.367-.434 7.2 7.2 0 0 1 2.27.399L13.414 5H14a1 1 0 0 1 .448.118l-.58-3.43a8.2 8.2 0 0 0-3.162-.674c-2.69 0-2.724.986-5.412.986a10.4 10.4 0 0 1-3.161-.512L0 14.09a9.2 9.2 0 0 0 3.793.711 14.9 14.9 0 0 0 5.14-1.103l-.05-1.026c-.418.12-.814.25-1.202.381zM14 8l-2.8 3h-.006l-.24 1-.13 3h-.649l-.13-3-.24-1H9.8L7 8V6h7zm-1.84.8H8.84l1.307 1.4h.706zM13.2 8V6.8H7.8V8z"/><path fill="none" d="M0 0h16v16H0z"/></svg>