<svg xmlns="http://www.w3.org/2000/svg" viewBox="0 0 16 16"><path d="M0 0h16v16H0z" style="fill:none"/><path d="M10.706 2.014c.933 0 1.774.23 2.27.399l1.72 10.163a8.3 8.3 0 0 0-2.489-.376c-1.996 0-3.282.433-4.526.852-1.141.385-2.22.748-3.888.748a9.5 9.5 0 0 1-2.669-.363L2.935 2.74c.623.134 1.451.26 2.359.26 1.519 0 2.33-.293 3.044-.552.643-.233 1.198-.434 2.368-.434m0-1c-2.69 0-2.725.986-5.412.986-1.738 0-3.161-.512-3.161-.512L0 14.09s1.422.711 3.793.711c3.665 0 4.749-1.6 8.414-1.6 2.37 0 3.793 1.09 3.793 1.09L13.867 1.687s-1.423-.674-3.16-.674M6.293 4 4 6.293V12h5.707L12 9.707V4zm.414 1h3.586l-1 1H5.707zM9 10v1H5.707l1-1H7V9H6v.293l-1 1V7h1v1h1V7h2v2H8v1zm1 .293V6.707l1-1v3.586z"/></svg>