<svg xmlns="http://www.w3.org/2000/svg" viewBox="0 0 16 16"><path d="M12.207 12.2A6.6 6.6 0 0 1 16 13.29L13.867.687a8.2 8.2 0 0 0-3.161-.674C8.016.014 7.982 1 5.294 1A10.4 10.4 0 0 1 2.133.488L0 13.09a9.2 9.2 0 0 0 3.793.711A10.7 10.7 0 0 0 7 13.322V15H2v1h11v-1H8v-2a11.9 11.9 0 0 1 4.207-.8m-11.082.237L2.935 1.74A11.4 11.4 0 0 0 5.294 2a7.8 7.8 0 0 0 3.045-.552 5.9 5.9 0 0 1 2.367-.434 7.2 7.2 0 0 1 2.27.399l1.72 10.163a8.3 8.3 0 0 0-2.489-.376 12.8 12.8 0 0 0-4.526.852 11 11 0 0 1-3.888.748 9.5 9.5 0 0 1-2.668-.363M7 9H4V8h3V3h1v2h4v1H8v5H7z"/><path fill="none" d="M0 0h16v16H0z"/></svg>