<svg xmlns="http://www.w3.org/2000/svg" viewBox="0 0 24 24"><path d="M9.36 20.682a3.7 3.7 0 0 0-.412.833 21 21 0 0 1-3.524.285A13.1 13.1 0 0 1 0 20.783L3.05 3.078a15 15 0 0 0 4.52.722c3.849 0 3.893-1.6 7.74-1.6a12.7 12.7 0 0 1 4.52.878l1.112 6.597a1.8 1.8 0 0 0-.997.103l-1.004-5.963a11.9 11.9 0 0 0-3.63-.615 7.8 7.8 0 0 0-3.49.725 9.8 9.8 0 0 1-4.25.875 16.2 16.2 0 0 1-3.723-.457L1.124 20.15a13.7 13.7 0 0 0 4.3.65 19.7 19.7 0 0 0 3.702-.331q.119.106.234.213m11.891-5.91-.638.638a13.7 13.7 0 0 1 2.316 2.09c-.812.93-3.414 3.6-6.47 3.6a5.7 5.7 0 0 1-1.36-.176l-.73.73a6.8 6.8 0 0 0 2.09.346c4.064 0 7.205-4.024 7.337-4.195l.234-.305-.234-.305a13.7 13.7 0 0 0-2.545-2.423M18.8 17.5a2.4 2.4 0 0 0-.055-.506l-2.85 2.85A2.392 2.392 0 0 0 18.8 17.5m-7.446 4.854-.707-.707 1.234-1.234a14.2 14.2 0 0 1-2.871-2.601l-.25-.312.25-.312c.137-.17 3.389-4.188 7.45-4.188a6.9 6.9 0 0 1 2.381.453l1.806-1.807.707.707-1.53 1.531.003.002-.668.668-.003-.002-1.165 1.165.003.002-3.375 3.374-.002-.002-1.195 1.195.003.002-.663.663-.003-.002zm1.173-2.587 1.584-1.584A2.4 2.4 0 0 1 14 17.5a2.403 2.403 0 0 1 2.4-2.4 2.4 2.4 0 0 1 .682.11l1.053-1.052a5.8 5.8 0 0 0-1.675-.258c-3.046 0-5.73 2.663-6.58 3.6a14 14 0 0 0 2.646 2.267z"/><path fill="none" d="M0 0h24v24H0z"/></svg>