<svg xmlns="http://www.w3.org/2000/svg" viewBox="0 0 24 24"><path d="m11.797 20.109.625.24-.33.717a22.3 22.3 0 0 1-5.668.734A13.1 13.1 0 0 1 1 20.783L4.05 3.078a15 15 0 0 0 4.52.722c3.849 0 3.893-1.6 7.74-1.6a12.7 12.7 0 0 1 4.52.878l1.532 9.086a1.24 1.24 0 0 0-.718-.256 1.3 1.3 0 0 0-.328.07l-1.375-8.163a11.9 11.9 0 0 0-3.63-.615 7.8 7.8 0 0 0-3.49.725 9.8 9.8 0 0 1-4.25.875 16.2 16.2 0 0 1-3.723-.457L2.124 20.15a13.7 13.7 0 0 0 4.3.65 21 21 0 0 0 5.373-.691M20 18a2 2 0 1 1-2-2 2 2 0 0 1 2 2m-1 0a1 1 0 1 0-1 1 1 1 0 0 0 1-1m3.414 1.392-.296.628.724 1.624-1.162 1.17-1.543-.71-.653.236-.636 1.66h-1.65l-.59-1.586-.628-.295-1.627.727-1.167-1.166.71-1.543-.236-.653-1.66-.636v-1.65l1.586-.59.295-.628-.727-1.627 1.166-1.167 1.543.71.653-.236.636-1.66h1.65l.59 1.586.628.296 1.624-.724 1.166 1.167-.705 1.538.235.653 1.66.636v1.65zm-1.277.523.544-1.158 1.319-.49v-.582l-1.427-.548-.434-1.204.585-1.28-.412-.412-1.397.622-1.158-.544-.49-1.319h-.582l-.548 1.427-1.206.434-1.283-.59-.41.411.626 1.4-.545 1.161-1.319.49v.582l1.427.548.434 1.206-.59 1.283.411.41 1.4-.626 1.161.545.49 1.319h.582l.548-1.427 1.206-.434 1.28.588.411-.413z"/><path fill="none" d="M0 0h24v24H0z"/></svg>