<svg xmlns="http://www.w3.org/2000/svg" viewBox="0 0 16 16"><path d="M0 0h16v16H0z" style="fill:none"/><path d="m7.491 4.462-4.5 1.79v3.07L7.491 11l4.5-1.679v-3.07zm2.616 2.123-2.616.98-2.616-.98 2.616-1.047zM3.991 8.45V7.32l3 1.126v1.332l-3-1.125zm7 0v.203l-3 1.125V8.446l3-1.125zm-.285-6.436c.933 0 1.774.23 2.27.399l1.72 10.163a8.3 8.3 0 0 0-2.489-.376c-1.996 0-3.282.433-4.526.852-1.142.385-2.22.748-3.888.748a9.5 9.5 0 0 1-2.668-.363L2.935 2.74c.623.134 1.45.26 2.359.26 1.519 0 2.33-.293 3.045-.552.642-.233 1.197-.434 2.367-.434m0-1c-2.69 0-2.724.986-5.412.986a10.4 10.4 0 0 1-3.161-.512L0 14.09s1.422.711 3.793.711c3.665 0 4.749-1.6 8.414-1.6 2.37 0 3.793 1.09 3.793 1.09L13.867 1.687s-1.423-.674-3.161-.674"/></svg>