<svg xmlns="http://www.w3.org/2000/svg" viewBox="0 0 32 32"><path d="M21.074 2.211a26.3 26.3 0 0 1 5.05.518l3.651 22a37 37 0 0 0-6.313-.529 22.4 22.4 0 0 0-7.769 1.348l-.988.313a19.3 19.3 0 0 1-6.167.939 16 16 0 0 1-6.43-1.366L5.795 3.217a15.6 15.6 0 0 0 4.544.651 17.4 17.4 0 0 0 5.445-.846 16.6 16.6 0 0 1 5.29-.81zm0-1c-5.144 0-5.927 1.657-10.735 1.657A15 15 0 0 1 5 1.9L1 26a16.3 16.3 0 0 0 7.538 1.8A20.3 20.3 0 0 0 15 26.816V30H3v1h25v-1H16v-3.5a21.4 21.4 0 0 1 7.462-1.3A33.2 33.2 0 0 1 31 26L27 1.9a26.4 26.4 0 0 0-5.926-.689"/><path fill="none" d="M0 0h32v32H0z"/></svg>