<?xml version="1.0" encoding="UTF-8"?><svg id="icons" xmlns="http://www.w3.org/2000/svg" viewBox="0 0 16 16"><defs><style>.cls-1{fill:none;}</style></defs><path d="M8.06519,5.76965c-.29584.16638-.57666.3559-.83875.5683-.07483-.09393-.14264-.19385-.22644-.27966v-1.29651c.409.27441.76569.61816,1.06519,1.00787ZM11,10h1v1h1v-2h-2v1ZM14,1v1h2v-1h-2ZM14,4h2v-1h-2v1ZM3.5,7c.82843,0,1.5.67157,1.5,1.5s-.67157,1.5-1.5,1.5-1.5-.67157-1.5-1.5.67157-1.5,1.5-1.5ZM4,8h-1v1h1v-1ZM16,11c0,2.75684-2.24316,5-5,5-1.62689,0-3.06079-.79303-3.97443-2h1.35645c.70343.61462,1.61243,1,2.61798,1,.37946,0,.73938-.07007,1.0874-.16919-.01776-.06396-.10724-.36823-.57275-.83374-.65859-.65491-1.2688-.50341-1.59375-2.45312-.0625-.37207-.24023-.71484-.51465-.99121-.29154-.29701-1.34256-.28057-2.23468-.63739-.00824.02899-.02203.05542-.0296.08466h-1.04089c.46466-2.2793,2.4845-4,4.89893-4,2.75684,0,5,2.24316,5,5ZM15,11c0-2.20605-1.79395-4-4-4-1.47229,0-2.74231.80908-3.43311,1.99799.83836.32952,1.94662.23855,2.55127.8526.41797.42188.69141.95117.78906,1.52832.25132,1.51356.50787,1.10792,1.31445,1.91113.47791.47791.68201.87164.77997,1.15283,1.18896-.69403,1.99835-1.96936,1.99835-3.44287ZM5.4707,10.42773l-.66797.74414.92084.82812s-1.0246.018-1.22357.018c-1.92969,0-3.5-1.58831-3.5-3.518,0-.94995.38336-1.81042,1-2.44171v-1.29651C.79529,5.57007.009,6.9433.009,8.5.009,10.98145,2.01855,12.973,4.5,12.973l1.19666.027-.89978.83301.67969.73438,2.26562-2.09668-2.27148-2.04297ZM4.5293,6.24219l-2.09668-2.26562.73438-.67969.83301.89978v-.19666C4,1.79395,5.79395,0,8,0c1.10016,0,2.0918.45148,2.81506,1.17273.20618-.10669.43677-.17273.68494-.17273.82843,0,1.5.67157,1.5,1.5,0,.65546-.42316,1.20685-1.00903,1.41095.03658.31058-.05428.78638-.13293,1.08905h-1.0423c.11346-.31827.21777-.78782.17468-1.09479-.57635-.20929-.99042-.75659-.99042-1.40521,0-.21143.04468-.41205.1236-.59448-.49896-.50677-1.17072-.8288-1.92371-.88-.18268.78418-.21014,1.42603-.2243,1.99304-.01068.40118-.02423.62036-.09772.98145-.28552-.22955-.54993-.42358-.87787-.59326.01227-.17151.01819-.19891.02368-.41455.01379-.51263-.01794-1.12024.12195-1.85321-1.23639.37067-2.14563,1.50555-2.14563,2.86102v.22357l.82812-.92084.74414.66797-2.04297,2.27148ZM11,3h1v-1h-1v1Z"/><rect class="cls-1" width="16" height="16"/></svg>