<?xml version="1.0" encoding="UTF-8"?><svg id="icons" xmlns="http://www.w3.org/2000/svg" viewBox="0 0 32 32"><defs><style>.cls-1{fill:none;}</style></defs><rect class="cls-1" width="32" height="32"/><path d="M29.76007,19h-1.00848c-.93561,4.66309-4.49408,8.3916-9.05151,9.60828-.27344-.36725-.70703-.60828-1.20007-.60828-.82843,0-1.5.67157-1.5,1.5s.67157,1.5,1.5,1.5c.80951,0,1.46478-.64258,1.49445-1.44482,4.96228-1.34222,8.81804-5.44617,9.76562-10.55518ZM19,30h-1v-1h1v1ZM25.64081,4.7749c-1.78674-1.39093-3.89417-2.29254-6.18634-2.75812v-1.01678c2.56586.487,4.91656,1.50677,6.89569,3.07269-.23645.23407-.47253.46851-.70935.70221ZM31.47351,22c-1.02051,2.80463-2.80902,5.17529-5.11035,7.00342-.23773-.23645-.47528-.47314-.71313-.70941,2.10687-1.64679,3.75555-3.77173,4.745-6.29401h1.07849ZM2.22382,21c.60748,1.98761,1.61865,3.6745,2.94177,5.21991-.2345.23651-.46997.47217-.70447.70868-1.5022-1.73682-2.63367-3.66821-3.27808-5.92859h1.04077ZM4.09605,14.75879c.08667-.60504.26211-1.18884.4363-1.76202.81305-.01764,1.46765-.67944,1.46765-1.49677,0-.82843-.67157-1.5-1.5-1.5s-1.5.67157-1.5,1.5c0,.48584.23474.91321.59283,1.18732-.19354.62744-.35699,1.2674-.45221,1.93085-.18262,1.27051-.18262,2.56055,0,3.83105.43677,3.04395,1.90875,5.76526,4.03644,7.80725l.63031-.76544c-1.94238-1.88605-3.311-4.38806-3.71133-7.18243-.16895-1.17773-.16895-2.37207,0-3.5498ZM4,11h1v1h-1v-1ZM18.27539,4.08425c2.22235.31842,4.24829,1.31809,5.93726,2.65733-.13184.22327-.21265.48035-.21265.75842,0,.82843.67157,1.5,1.5,1.5s1.5-.67157,1.5-1.5-.67157-1.5-1.5-1.5c-.17584,0-.34204.03583-.49884.09143-1.85681-1.51794-4.11182-2.56305-6.58514-2.9176-1.27148-.18164-2.56055-.18164-3.83203,0-1.63782.2348-3.17828.77686-4.5752,1.55084v1.13507c1.41461-.86621,3.01166-1.53129,4.71582-1.77549,1.17773-.16797,2.37305-.16797,3.55078,0ZM26,7v1h-1v-1h1ZM13.99588,28.75586c0,.70703-.27909,1.29395-.82498,1.69824-.44434.33008-1.04102.51172-1.67871.51172-1.19531,0-2.46484-.68066-2.46484-1.94043h1.01367c0,.95703,1.80664,1.14844,2.52637.61426.28125-.20801.41483-.50586.41483-.88379,0-1.52441-1.89041-1.65234-1.97147-1.65723l.02832-1.0127c.84961,0,1.30469-.21191,1.53711-.38867.23535-.18066.42383-.41406.42383-.6748,0-.48926-.48926-1.02246-1.20117-1.02246-1.36426,0-1.46777.80762-1.47461.96484l-1.01367-.01855c.00684-.66797.53613-1.93164,2.48828-1.93164,1.32812,0,2.15137,1.04199,2.15137,2.00781,0,.58105-.26953,1.10645-.75879,1.47949-.08887.06836-.18359.12988-.28418.18652.6123.41113,1.08866,1.06738,1.08866,2.06738ZM18.95801,21h-4.91602c-1.12598,0-2.04199-.91602-2.04199-2.04199v-4.91602c0-1.12598.91602-2.04199,2.04199-2.04199h4.91602c.35938,0,.69232.10138.98596.26501l-.77722.77722c-.06964-.01477-.13477-.04224-.20874-.04224h-4.91602c-.57422,0-1.04199.46777-1.04199,1.04199v4.91602c0,.57422.46777,1.04199,1.04199,1.04199h4.91602c.57422,0,1.04199-.46777,1.04199-1.04199v-1.16699l1-1v2.16699c0,1.12598-.91602,2.04199-2.04199,2.04199ZM16.49805,17.83203l4.86719-4.86719.66992.66992-5.5332,5.5332-2.53516-2.5.66602-.67578,1.86523,1.83984ZM28.6084,10.03809c.94043,0,1.73828.4834,2.08301,1.26172.38574.86914.13867,1.88477-.67871,2.78613l-2.5625,2.91406h3.4707v.98242h-4.87695v-.96875l3.21191-3.6084c.53711-.59277.71973-1.20898.50488-1.69336-.17969-.4043-.62109-.65625-1.15234-.65625-1.19727,0-1.69922.9043-1.71973.94238l-.88867-.47168c.03125-.06055.77734-1.48828,2.6084-1.48828ZM5.75391,4.31641l3.24609-1.30176v7.94336h-.99121v-6.4668l-1.88379.75293-.37109-.92773Z"/></svg>