<svg xmlns="http://www.w3.org/2000/svg" viewBox="0 0 32 32"><path fill="none" d="M0 0h32v32H0z"/><path d="M31 13v16a1 1 0 0 1-1 1H12v-1h1V17H9v-1h20v1H14v12h16V13l-23-.001v7.532l-1-.77V13a1 1 0 0 1 1-1h23a1 1 0 0 1 1 1M10.906 24.797c.405.312.346.645.302.774s-.201.429-.71.429H9.103l1.708 3.037a.735.735 0 0 1-.315 1.023l-1.55.776a.77.77 0 0 1-1.005-.307L6.182 27.4l-.979 1.26c-.312.402-.645.345-.775.298-.13-.044-.428-.202-.428-.71L4.009 21c0-.33.136-.589.387-.713.252-.123.544-.078.806.122zM9.53 25 5 21.516v5.776L6.317 25.6l2.385 4.24 1.105-.553L7.396 25zM5 16.76c-2.26-.286-4.019-2.2-4.019-4.536A4.6 4.6 0 0 1 3.747 8.01l.294-.128.007-.32c.04-1.932 1.641-3.504 3.57-3.504.332 0 .671.058 1.067.182l.397.126.195-.369A5.6 5.6 0 0 1 14.244 1c2.908 0 5.365 2.272 5.594 5.17l.033.424.422.036c2.373.204 4.263 2.066 4.595 4.371h1.003c-.323-2.685-2.41-4.9-5.102-5.317C20.331 2.463 17.532 0 14.244 0a6.6 6.6 0 0 0-5.651 3.178 4.2 4.2 0 0 0-.976-.12c-2.362 0-4.34 1.842-4.552 4.168A5.58 5.58 0 0 0 0 12.223a5.59 5.59 0 0 0 5 5.566v-1.028zM24 14v1h1v-1zm3 5h-6v1h6zm-8.5 2a1.5 1.5 0 1 1 0-3 1.5 1.5 0 0 1 0 3m-.5-1h1v-1h-1zm6 3h-5v-1h-1v2h6zm3-9v1h1v-1zm-3 12h-5v-1h-1v2h6z"/></svg>