<?xml version="1.0" encoding="UTF-8"?><svg id="icons" xmlns="http://www.w3.org/2000/svg" viewBox="0 0 24 24"><defs><style>.cls-1{fill:none;}</style></defs><rect class="cls-1" width="24" height="24"/><path d="M9,9.66699v4.66602c0,.36816.29883.66699.66699.66699h4.66602c.36816,0,.66699-.29883.66699-.66699v-.50488l1-1v1.50488c0,.91895-.74805,1.66699-1.66699,1.66699h-4.66602c-.91895,0-1.66699-.74805-1.66699-1.66699v-4.66602c0-.91895.74805-1.66699,1.66699-1.66699h4.66602c.24536,0,.47668.05646.68671.15216l-.84784.84784h-4.50488c-.36816,0-.66699.29883-.66699.66699ZM16.29297,9l-3.79297,3.79297-1.84668-1.84668-.70703.70703,2.55371,2.55371,4.5-4.5-.70703-.70703ZM21,14h2v-1h-2v-1h1c.55267,0,1-.44733,1-1l-.00897-1c0-.27637-.11182-.52637-.29272-.70728s-.42194-.29272-.6983-.29272h-1c-.55267,0-1,.44733-1,1h2v1h-1c-.55267,0-1,.44727-1,1v1c0,.55267.44733,1,1,1ZM12.0166,2.92755c-2.31848,0-4.42651.98444-6.0166,2.43683v-1.30029c1.67249-1.27802,3.75409-2.04651,6.0166-2.04651,2.27075,0,4.35175.78009,6.02325,2.06989.1524-.05219.31311-.08661.48322-.08661.82843,0,1.46399.67157,1.46399,1.5s-.63556,1.49097-1.46399,1.49097-1.5-.66254-1.5-1.49097c0-.28345.08319-.54559.21985-.77173-1.47046-1.07104-3.27155-1.80157-5.22632-1.80157ZM18,5.99994h1v-1h-1v1ZM18.76965,1.54034c-1.021-.66302-2.12933-1.18433-3.30042-1.52667-.14874.3028-.29694.60602-.44562.90881,1.17761.32501,2.2912.84357,3.30719,1.51733.14624-.2998.29254-.59967.43884-.89948ZM.37323,16.56549c.58502,1.47595,1.44037,2.81647,2.5094,3.95679.23865-.23859.47949-.47504.71814-.71356-.8833-.94659-1.60236-2.04419-2.13074-3.24323H.37323ZM4,3.85156v4.14844h1V2.3125l-2.45312,1.09082.40625.91406,1.04688-.46582ZM22.61353,16.3783c-.66113,1.58685-1.6568,3.00116-2.91388,4.13873l.70691.70691c1.4483-1.32111,2.57465-2.98108,3.28003-4.84564h-1.07306ZM21.4743,15c-.88818,2.75397-2.95502,4.96863-5.59546,6.08997-.22925.53497-.76001.91003-1.37885.91003-.82843,0-1.5-.67157-1.5-1.5s.67157-1.5,1.5-1.5c.6405,0,1.18323.40326,1.39832.96826,2.07684-1.00916,3.71527-2.7782,4.51202-4.96826h1.06396ZM15,20h-1v1h1v-1ZM10,18h-1c-.55273,0-1,0-1,1h2v1h-.5c-.27643,0-.5.22461-.5.5,0,.27728.22357.5.5.5h.5v1h-2c0,1,.44727,1,1,1h1c.55267,0,1-.44733,1-1v-1c0-.18549-.06451-.34961-.15332-.5.08881-.14844.15332-.3125.15332-.5v-1c0-.55084-.44733-1-1-1ZM7.0694,19.39587l-.55438.83154c-2.67242-1.78326-4.43787-4.82349-4.43787-8.27039,0-.0083.00098-.0163.00122-.02454-.6217-.18311-1.07837-.75153-1.07837-1.4325,0-.82843.67157-1.5,1.5-1.5s1.5.67157,1.5,1.5c0,.62225-.44202,1.15582-.98175,1.38293-.00165.0246-.08508.04907-.08508.0741,0,3.10034,1.73199,5.83502,4.13623,7.43884ZM3,11v-1h-1v1h1Z"/></svg>