<?xml version="1.0" encoding="UTF-8"?><svg id="icons" xmlns="http://www.w3.org/2000/svg" viewBox="0 0 32 32"><defs><style>.cls-1{fill:none;}</style></defs><rect class="cls-1" width="32" height="32"/><path d="M29,7h-4v-1h4v1ZM22.5,3c.82843,0,1.5.67157,1.5,1.5s-.67157,1.5-1.5,1.5-1.5-.67157-1.5-1.5.67157-1.5,1.5-1.5ZM22,5h1v-1h-1v1ZM23.76471,9.33282c.15002-.59686.23334-1.21173.23334-1.83282,0-.16876-.01428-.33398-.02533-.5h-.784c.0127.16559.02533.33124.02533.5,0,.55878-.07416,1.11237-.21405,1.64758.33014.0495.44397.10944.76471.18524ZM30,4h-5v1h5v-1ZM17,14h9v6h-2v4h-4v-2h-1v-2h-2v-6ZM18,19h2v2h1v2h2v-4h2v-4h-7v4ZM20,17.5c0-.82843.67157-1.5,1.5-1.5s1.5.67157,1.5,1.5-.67157,1.5-1.5,1.5-1.5-.67157-1.5-1.5ZM21,18h1v-1h-1v1ZM31.90039,21c0,6.01074-4.88965,10.90039-10.90039,10.90039-3.34698,0-6.34332-1.51886-8.34442-3.90039h1.35004c1.79248,1.79108,4.2663,2.90039,6.99438,2.90039.09692,0,.19086-.01172.28711-.01453v-.09778c-.01074-.08887-.11426-.87695-1.30859-2.07129-.37012-.37012-.69531-.59473-1.00879-.81152-.98242-.67871-1.60645-1.22656-2.04004-3.82324-.14258-.84766-.54492-1.62695-1.16504-2.25098-.6416-.6543-1.49023-1.12305-2.45605-1.36035-.16016-.03906-.2959-.06641-.42773-.09277-.38477-.07617-.7832-.15527-1.57812-.49512-.04291-.01855-.08386-.0401-.12659-.05902-.04602.38647-.07654.77753-.07654,1.17621,0,.33752.01752.67108.05066,1h-1c-.03015-.32977-.05066-.66248-.05066-1,0-6.01074,4.88965-10.90039,10.90039-10.90039s10.90039,4.88965,10.90039,10.90039ZM30.90039,21c0-5.45898-4.44141-9.90039-9.90039-9.90039-4.70331,0-8.64349,3.29993-9.64642,7.70398.11456.05316.22675.10974.34369.1593.69727.2998,1.0127.3623,1.37891.43457.14551.0293.2959.05859.47168.10254,1.14551.28125,2.15918.84375,2.92773,1.62793.76465.77051,1.26367,1.73535,1.44043,2.78906.38672,2.31152.85156,2.63281,1.62207,3.16504.33398.23145.71387.49414,1.14746.92773,1.37793,1.37695,1.56836,2.40234,1.59473,2.68359l.00116.11438c4.85437-.63165,8.61896-4.784,8.61896-9.80774ZM6,15.5c0-.82843.67157-1.5,1.5-1.5.20758,0,.40521.04224.58496.11847.26691-.38184.60583-.76709,1.03223-1.15558.76172-.69141,1.46289-1.31348,2.10156-1.87988.62085-.55151,1.16858-1.04028,1.66931-1.49976-.25092-.09753-.49719-.20703-.75726-.27942l.57904-.86859c1.14575.3642,2.19696.97186,3.11658,1.74988-.32831.15735-.64789.32819-.9588.51373-.31946-.2392-.64954-.46356-.99854-.65619-.57434.5351-1.23785,1.12378-1.98724,1.78839-.63574.56445-1.33398,1.18359-2.0918,1.87207-.42798.38971-.73657.76117-.95923,1.11841.10461.20459.16919.43292.16919.67847,0,.42261-.17609.80292-.45728,1.0755.17487.41101.51318.78003.9339,1.10059-.09833.34149-.18536.68744-.25348,1.04071-.78735-.52466-1.31036-1.10419-1.58307-1.7309-.04681.00439-.0921.0141-.14008.0141-.82843,0-1.5-.67157-1.5-1.5ZM7,16h1v-1h-1v1ZM12,7.72266l-.64062-.72266-1.35938,1.13287c-.01929-.19806,0-.65619,0-.65619.01074-2.92633,1.98859-5.43823,4.70465-6.22198-.34155.74365-.45276,1.86438.34906,3.46796.59918,1.20044.52051,2.09015-.51068,3.38.29785.15271.58704.31879.86676.49957,1.09247-1.42126,1.35712-2.67957.5365-4.32489-1.07184-2.14368-.17084-3.02539.17157-3.26562.12659-.00739.25366-.01367.38214-.01367,1.26874,0,2.45001.37091,3.45172,1.00195h1.62732C20.2417.7641,18.46039.00195,16.5.00195c-.17969,0-.3584.00586-.53516.01855-3.73639.26447-6.71698,3.28632-6.96484,6.97949v1.16144l-1.35938-1.16144-.64062.72266,2.5,2.17285,2.5-2.17285ZM11.74609,23l-.74609.66602,1.15009,1.33398s-2.14838.02602-2.15009.02602c-4.41113,0-8.09802-3.61489-8.09802-8.02602,0-2.95319,1.71136-5.53101,4.09802-6.91663v-1.08337c-2.95886,1.47632-4.992,4.47491-4.992,8,0,4.93488,3.98462,8.95148,8.909,8.99677v.00323h2.18292l-1.09991,1.34961.75977.65039,2.13281-2.55273-2.14648-2.44727Z"/></svg>