<?xml version="1.0" encoding="UTF-8"?><svg id="icons" xmlns="http://www.w3.org/2000/svg" viewBox="0 0 32 32"><defs><style>.cls-1{fill:none;}</style></defs><rect class="cls-1" width="32" height="32"/><path d="M31,13v16c0,.55176-.44824,1-1,1H12v-1h1v-12h-4v-1h20v1h-15v12h16V13l-23-.00104v7.53186l-1-.7691v-6.76172c0-.55176.44824-1,1-1h23c.55176,0,1,.44824,1,1ZM10.90625,24.79688c.4043.3125.3457.64551.30176.77441s-.20117.42871-.71094.42871h-1.39258l1.70799,3.03711c.09963.17383.12307.38574.0635.5791-.05859.19238-.19727.35449-.37891.44336l-1.5498.77637c-.10938.05371-.22559.0791-.33984.0791-.26758,0-.52539-.13965-.66504-.38574l-1.75977-3.12891-.97949,1.25977c-.3125.40234-.64551.34473-.77539.29785-.12891-.04395-.42773-.20215-.42773-.71094l.00897-7.24707c0-.3291.13556-.58887.38751-.71289.25195-.12305.54395-.07812.80566.12207l5.7041,4.3877ZM9.5293,25l-4.5293-3.48438v5.77637l1.31738-1.69238,2.38477,4.24023,1.10449-.55273-2.41113-4.28711h2.13379ZM5,16.76086c-2.25934-.28815-4.01855-2.20197-4.01855-4.53821,0-1.82715,1.08594-3.48047,2.76562-4.21289l.29395-.12793.00684-.31934c.04004-1.93262,1.6416-3.50488,3.56934-3.50488.33301,0,.67188.05859,1.06738.18262l.39746.12598.19531-.36914c.97656-1.84961,2.87988-2.99805,4.9668-2.99805,2.9082,0,5.36523,2.27148,5.59375,5.1709l.0332.42285.42188.03613c2.37329.20386,4.26257,2.06647,4.59515,4.37109h1.00305c-.3233-2.68542-2.40924-4.89911-5.10211-5.31738-.45801-3.21875-3.25684-5.68262-6.54492-5.68262-2.32324,0-4.45312,1.20703-5.65137,3.17773-.33984-.08105-.66211-.12012-.97559-.12012-2.3623,0-4.34082,1.84277-4.55176,4.16797-1.88379.94727-3.06543,2.87598-3.06543,4.99707,0,2.89075,2.18469,5.27643,5,5.56671v-1.0285ZM24,14v1h1v-1h-1ZM27,19h-6v1h6v-1ZM18.5,21c-.82843,0-1.5-.67157-1.5-1.5s.67157-1.5,1.5-1.5,1.5.67157,1.5,1.5-.67157,1.5-1.5,1.5ZM18,20h1v-1h-1v1ZM24,23h-5v-1h-1v2h6v-1ZM27,14v1h1v-1h-1ZM24,26h-5v-1h-1v2h6v-1Z"/></svg>