<?xml version="1.0" encoding="UTF-8"?><svg id="icons" xmlns="http://www.w3.org/2000/svg" viewBox="0 0 16 16"><defs><style>.cls-1{fill:none;}</style></defs><rect class="cls-1" width="16" height="16"/><path d="M14,8v1h2v1h-2c-.55267,0-1-.44733-1-1v-1c0-.55273.44733-1,1-1h1v-1h-2c0-.55267.44733-1,1-1h1c.27637,0,.52637.11182.70728.29272s.28372.43091.28372.70728l.009,1c0,.55267-.44733,1-1,1h-1ZM1.9429,7.89795c-.00916.31848-.00452.63715.04034.95361.07092.49408.2204.96057.40546,1.40912l-.80374.44684c-.23138-.54382-.41553-1.11212-.50195-1.71436-.05072-.35742-.06036-.7168-.05377-1.07593-.59631-.1983-1.02924-.75433-1.02924-1.41724,0-.82843.67157-1.5,1.5-1.5s1.5.67157,1.5,1.5c0,.64008-.49265,1.18256-1.0571,1.39795ZM1,7h1v-1h-1v1ZM7.16113,1.97955c-.40125.05743-.78406.16742-1.15625.30109v-.97784c.32953-.09961.6662-.18262,1.01367-.23248.66016-.09375,1.32812-.09375,1.98828,0,.49457.0708.96283.21454,1.4176.38708.27264-.28125.65289-.4574,1.07556-.4574.82843,0,1.5.67157,1.5,1.5s-.67157,1.5-1.5,1.5-1.5-.75257-1.5-1.581c0-.04419.00928-.08575.013-.12897-.36884-.13776-.74805-.25317-1.14874-.31049-.28223-.04102-.56738-.06055-.85156-.06055s-.56934.01953-.85156.06055ZM11,2v1h1v-1h-1ZM13.18201,11h1.13843c-.69751,1.45319-1.88446,2.62482-3.33899,3.3161.00757.06097.01855.12091.01855.1839,0,.82843-.67157,1.5-1.5,1.5s-1.5-.67157-1.5-1.5.67157-1.5,1.5-1.5c.39301,0,.7478.15448,1.01526.40186,1.11041-.51923,2.04932-1.3465,2.66675-2.40186ZM10,14h-1v1h1v-1ZM11,9.55566v-.8399l-1.35364,1.28424h-3.20203c-.24512,0-.44434-.19922-.44434-.44434v-3.11133c0-.24512.19922-.44434.44434-.44434h1.55566l1-1h-2.55566c-.79688,0-1.44434.64746-1.44434,1.44434v3.11133c0,.79688.64746,1.44434,1.44434,1.44434h3.11133c.79688,0,1.44434-.64746,1.44434-1.44434ZM8.49609,7.7959l-.80273-.78711-.69922.71484,1.50977,1.48047,3.34961-3.35059-.70703-.70703-2.65039,2.64941ZM5,11h-1c-.55273,0-1,0-1,1h2v1h-.5c-.27643,0-.5.22461-.5.5,0,.27728.22357.5.5.5h.5v1h-2c0,1,.44727,1,1,1h1c.55267,0,1-.44733,1-1v-1c0-.18549-.06451-.34961-.15332-.5.08881-.14844.15332-.3125.15332-.5v-1c0-.55084-.44733-1-1-1ZM4.00488,1.53418v3.39941h.991V.05762l-1.9617.78809.37109.92773.59961-.23926Z"/></svg>