<?xml version="1.0" encoding="UTF-8"?><svg id="icons" xmlns="http://www.w3.org/2000/svg" viewBox="0 0 16 16"><defs><style>.cls-1{fill:none;}</style></defs><rect class="cls-1" width="16" height="16"/><path d="M6.28711,11.10059l-.28711-.21301v-1.91394h-1v-.94727h9v.94727h-7v3.02637h-.08331c-.0882-.31329-.27942-.63129-.62958-.89941ZM5.69141,11.90332c.36816.28223.29297.60742.26074.7002-.03125.09277-.16992.39648-.625.39648h-.57422l.83203,1.45898c.08887.16113.1084.34766.05566.51758-.05273.16895-.17383.31055-.33301.38965l-.98828.49414c-.09668.04785-.19824.07031-.29883.07031-.23438,0-.45996-.12305-.58203-.33887l-.88574-1.55664-.46094.5918c-.27832.35742-.60352.28223-.69629.25098s-.39551-.1709-.39551-.625v-4.52344c0-.27734.13184-.50781.35352-.61719.21875-.10645.48145-.07324.7002.09277l3.6377,2.69824ZM4.53418,14.63477l-1.50195-2.63477h1.11133l-2.14355-1.58984v2.70703l.68164-.87695,1.47168,2.58496.38086-.19043ZM2,7.922v-.07855c-.59503-.32837-1.00391-.95422-1.00391-1.68036,0-.76562.45508-1.45898,1.16016-1.7666l.29395-.12695.00684-.32129c.01562-.77832.66113-1.41211,1.4375-1.41211.13281,0,.27246.02441.44043.07812l.39746.12598.19531-.36816c.42285-.79688,1.23535-1.29199,2.12207-1.29199,1.24609,0,2.29688.97949,2.3916,2.23047l.0332.4248.42383.03516c.80334.06702,1.45935.55298,1.77863,1.22949h1.06805c-.32812-1.08698-1.21515-1.92682-2.36133-2.16699C10.07324,1.26074,8.67969.08008,7.0498.08008c-1.12695,0-2.16797.56055-2.80176,1.48633-1.38574-.23633-2.57129.7666-2.76465,2.0498C.57129,4.13184.00507,5.10156.00507,6.16309c0,.66632.22858,1.27008.60449,1.75891h1.39044ZM9,10v1h1v-1h-1ZM14,11v-1h-3v1h3ZM15.5,6H3.5c-.27612,0-.5.22382-.5.5v2.1618l1,.74194v-2.40424l11,.00049v7H7v-1h-.13934c-.09845.24872-.27386.51196-.55304.70703,0,0,.19177.3902.21796.4563.04279.10699.14679.66681.12469.83667h8.84973c.27612,0,.5-.22388.5-.5V6.5c0-.27618-.22388-.5-.5-.5ZM9,13h2v-1h-2v1Z"/></svg>