<svg xmlns="http://www.w3.org/2000/svg" viewBox="0 0 16 16"><path d="M8.065 5.77a6.01 6.01 0 0 0-.839.568c-.074-.094-.142-.194-.226-.28V4.762c.409.274.766.618 1.065 1.008zM11 10h1v1h1V9h-2v1zm3-9v1h2V1h-2zm0 3h2V3h-2v1zM3.5 7a1.5 1.5 0 1 1 0 3 1.5 1.5 0 0 1 0-3zM4 8H3v1h1V8zm12 3c0 2.757-2.243 5-5 5-1.627 0-3.06-.793-3.974-2h1.356c.703.615 1.612 1 2.618 1 .38 0 .74-.07 1.087-.17-.017-.063-.107-.367-.572-.833-.659-.655-1.27-.503-1.594-2.453a1.834 1.834 0 0 0-.515-.991c-.291-.297-1.342-.28-2.234-.638-.009.03-.022.056-.03.085h-1.04C6.565 7.72 8.585 6 11 6c2.757 0 5 2.243 5 5zm-1 0c0-2.206-1.794-4-4-4-1.472 0-2.742.81-3.433 1.998.838.33 1.947.239 2.551.853.418.421.692.95.79 1.528.25 1.513.507 1.108 1.314 1.911.478.478.682.872.78 1.153C14.19 13.749 15 12.473 15 11zm-9.53-.572l-.667.744.92.828s-1.024.018-1.223.018C2.57 12.018 1 10.43 1 8.5c0-.95.383-1.81 1-2.442V4.762A4.49 4.49 0 0 0 .009 8.5 4.474 4.474 0 0 0 4.5 12.973L5.697 13l-.9.833.68.734 2.265-2.096-2.271-2.043zm-.94-4.186L2.432 3.977l.734-.68.833.9V4c0-2.206 1.794-4 4-4 1.1 0 2.092.451 2.815 1.173A1.48 1.48 0 0 1 11.499 1a1.495 1.495 0 0 1 .491 2.91c.037.312-.054.787-.133 1.09h-1.042c.113-.318.218-.788.174-1.095a1.496 1.496 0 0 1-.866-2 2.966 2.966 0 0 0-1.924-.88c-.183.785-.21 1.427-.224 1.994-.011.4-.025.62-.098.981A5.115 5.115 0 0 0 7 3.407c.012-.172.018-.2.024-.415.013-.512-.018-1.12.122-1.853A2.994 2.994 0 0 0 5 4v.224l.828-.921.744.668L4.53 6.242zM11 3h1V2h-1v1z"/><path fill="none" d="M0 0h16v16H0z"/></svg>