<?xml version="1.0" encoding="UTF-8"?><svg id="icons" xmlns="http://www.w3.org/2000/svg" viewBox="0 0 24 24"><defs><style>.cls-1{fill:none;}</style></defs><rect class="cls-1" width="24" height="24"/><path d="M23,3h-4v-1h4v1ZM8.65332,16.94629l-.70703.70703,1.34668,1.34668h-2.23859c-3.29492,0-6.03583-2.66211-6.03583-5.95703,0-2.59485,1.66559-4.80249,3.98145-5.6261v-1.05548C2.12274,7.22168.01855,9.88947.01855,13.04297c0,3.83844,3.14594,6.9425,6.98145,6.95581v.00122h2.29297l-1.34668,1.34668.70703.70703,2.55371-2.55371-2.55371-2.55371ZM13.00098,10h6.99902v5h-1v3h-3v-2h-1v-1h-1.99902v-5ZM14,14h2v1h1v2h1v-3h1v-3h-5v3ZM23.99567,15c0,4.41895-3.57672,7.98663-7.99567,7.98663-2.03015,0-3.88068-.73785-5.29425-1.98663h1.73419c.7467.44482,1.58313.75037,2.47339.89264.13678.0213.27686.03174.41553.047.09833.00958.19769.01526.29718.02069-.24567-.29529-.51733-.53363-.8194-.69861-1.26855-.69043-1.59082-1.89551-1.87598-2.95898-.15332-.57129-.29785-1.11133-.57129-1.50977-.67773-.98535-1.28418-1.16504-3.08203-1.69629l-.26215-.078c.00122.3338.03204.65991.07849.98132h-1.01111c-.04114-.32837-.06927-.66064-.06927-1,0-.07849.00952-.1546.01178-.23254-1.41364-.47784-2.3197-1.06567-2.6817-1.78589-.75519-.07782-1.34338-.70575-1.34338-1.48157,0-.82843.66742-1.5,1.49585-1.5.22406,0,.43469.05249.62567.14056.56982-.67102,1.31091-1.33325,2.06012-1.98431.45605-.39648.90625-.78711,1.2959-1.16699,1.65527-1.61133,2.52148-2.66309,2.0498-3.27051-.55536-.71289-.83563-1.50488-.82886-2.24762-1.59863.69653-2.65314,2.24304-2.6908,4.01434l1.33899-1.33899.70703.70703-2.55371,2.55371-2.55371-2.55371.70703-.70703,1.35327,1.35327c.03528-2.38062,1.56659-4.44989,3.84314-5.16443l-.00012-.00037c.53125-.16797,1.08691-.25293,1.65039-.25293,1.23163,0,2.35419.42694,3.2713,1.11444.21661-.12146.46271-.19647.7287-.19647.82843,0,1.5.67157,1.5,1.5,0,.3974-.15735.75616-.40955,1.02454.25952.6366.40955,1.10956.40955,1.83832,0,.21429-.02045.42621-.04498.63715-.32373-.07184-.6524-.12976-.98822-.16565.01642-.15643.0332-.31287.0332-.4715,0-.5672-.11676-.88422-.3139-1.38159-.06165.00769-.12238.01874-.1861.01874-.82843,0-1.5-.67157-1.5-1.5,0-.19336.03961-.37677.10626-.54651-.73718-.53577-1.62689-.87146-2.60626-.87146-.26099,0-.51807.02789-.77173.07178-.14264.68738.19055,1.44098.58813,1.95166.97784,1.25635-.29303,2.76288-1.59888,4.06732.43109.2699.83252.58533,1.19745.94531,1.198-.71387,2.59198-1.08679,4.08502-1.08679,4.41895,0,7.99567,3.54974,7.99567,7.96869ZM16.00006,2.99988h.99988v-.99982h-.99988v.99982ZM6,11h-1v1h1v-1ZM11.07007,8.69525c-.33759-.30939-.70502-.57739-1.0979-.8017-.35406.33301-.73761.67181-1.13428,1.0166-.72107.62701-1.47382,1.29504-2.00311,1.92633.09979.20081.16107.42407.16107.66351,0,.50305-.24976.94574-.62976,1.21783.07709.0976.59583.50073.72479.5741.27631.15723.63525.30878,1.03076.45276.32336-2.04169,1.38831-3.82684,2.94843-5.04944ZM22.98633,15c0-3.85156-3.13477-6.98633-6.98633-6.98633-3.51099,0-6.41809,2.60748-6.90619,5.98572l.46674.13831c1.88379.55664,2.74414.81055,3.62305,2.08887.37109.54004.54492,1.18945.71289,1.81738.25586.9541.49707,1.85449,1.38867,2.33984.61108.33337,1.12329.85974,1.53961,1.54932,3.46381-.41016,6.16156-3.36102,6.16156-6.93311ZM17.25,12.5c0-.41425-.33582-.75-.75-.75s-.75.33575-.75.75c0,.41418.33582.75.75.75s.75-.33582.75-.75Z"/></svg>