<?xml version="1.0" encoding="UTF-8"?><svg id="icons" xmlns="http://www.w3.org/2000/svg" viewBox="0 0 24 24"><defs><style>.cls-1{fill:none;}</style></defs><rect class="cls-1" width="24" height="24"/><path d="M23,8.84961v12.30078c0,.46875-.38086.84961-.84961.84961h-13.00763c-.02869-.10419-.46552-1-.46552-1h1.32275v-8.01953h-4v-.96094h15v.96094h-10v8.01953h11v-12H5v6l-.30469-.22852c-.20752-.15594-.4469-.23962-.69531-.28772v-5.63416c0-.46875.38086-.84961.84961-.84961h17.30078c.46875,0,.84961.38086.84961.84961ZM16,10v1h1v-1h-1ZM8.18066,20h-1.12207l1.07227,2.14355c.07812.15332.09082.33008.03516.49609-.05469.16211-.16992.29492-.32324.37305l-1.23633.61816c-.09277.04688-.19141.06934-.28809.06934-.23633,0-.46582-.13086-.58105-.35742l-1.06348-2.12598-.57422.80469c-.15234.21387-.42871.30371-.67676.22461-.25293-.08008-.42285-.3125-.42285-.57812v-5.55078c0-.26074.14453-.49512.37793-.61133.23242-.11719.50684-.09277.71582.06445l4.4541,3.33984c.20703.1582.29102.42969.20801.67676s-.31445.41309-.5752.41309ZM5.44141,19h1.55859l-3-2.25v3.68945l.82617-1.15625,1.64746,3.2959.60547-.30273-1.6377-3.27637ZM3,11.82507c-.34204-.12323-.6629-.30548-.94434-.54285-.69336-.58984-1.09082-1.44629-1.09082-2.34961,0-1.26465.75879-2.38477,1.93359-2.85547l.34668-.13867s-.04492-.51172-.04492-.58301c0-1.20312.97852-2.18164,2.18164-2.18164.26367,0,.52441.04883.77344.14355l.41602.15918.20605-.39551c.64941-1.24902,1.9668-1.99414,3.52246-1.99414,2.10156,0,3.76367,1.44824,3.95117,3.44434l.03906.40723.40625.04297c1.26752.13373,2.30371.92969,2.81042,2.01855h1.08563c-.51752-1.49561-1.79102-2.64301-3.39801-2.9541C14.78906,1.72949,12.79004.08691,10.2998.08691c-1.7832,0-3.32324.80371-4.19922,2.16992-.23535-.05469-.47559-.08301-.71875-.08301-1.73438,0-3.14941,1.39551-3.18066,3.12207C.83105,5.98633.00983,7.37695.00983,8.93262c0,1.19727.48041,2.33203,1.39935,3.1123.46484.39215,1.01227.65802,1.59082.81201v-1.03186ZM20,15h-4v1h4v-1ZM13.5,17c-.82843,0-1.5-.67157-1.5-1.5s.67157-1.5,1.5-1.5,1.5.67157,1.5,1.5-.67157,1.5-1.5,1.5ZM13,16h1v-1h-1v1ZM19,10v1h1v-1h-1ZM18,19h-4v-1h-1v2h5v-1Z"/></svg>