<svg xmlns="http://www.w3.org/2000/svg" viewBox="0 0 16 16"><path fill="none" d="M0 0h16v16H0z"/><path d="M14 8v1h2v1h-2a1 1 0 0 1-1-1V8a1 1 0 0 1 1-1h1V6h-2a1 1 0 0 1 1-1h1a.99.99 0 0 1 .991 1L16 7a1 1 0 0 1-1 1zM1.943 7.898c-.01.318-.005.637.04.954.071.494.22.96.406 1.409l-.804.447a7 7 0 0 1-.502-1.715 7 7 0 0 1-.054-1.076A1.495 1.495 0 0 1 1.5 5 1.5 1.5 0 0 1 3 6.5c0 .64-.493 1.183-1.057 1.398M1 7h1V6H1zm6.161-5.02a6 6 0 0 0-1.156.3v-.977c.33-.1.666-.183 1.014-.233a7 7 0 0 1 1.988 0c.494.071.963.215 1.417.387A1.5 1.5 0 1 1 11.5 4c-.828 0-1.5-.753-1.5-1.581 0-.044.01-.086.013-.129a5.5 5.5 0 0 0-1.149-.31 6 6 0 0 0-1.703 0M11 2v1h1V2zm2.182 9h1.138a7.07 7.07 0 0 1-3.339 3.316c.008.061.019.121.019.184A1.5 1.5 0 1 1 9.5 13c.393 0 .748.154 1.015.402A6.03 6.03 0 0 0 13.182 11M10 14H9v1h1zm1-4.444v-.84L9.646 10H6.444A.445.445 0 0 1 6 9.556V6.444C6 6.2 6.2 6 6.444 6H8l1-1H6.444C5.647 5 5 5.647 5 6.444v3.112C5 10.353 5.647 11 6.444 11h3.112C10.353 11 11 10.353 11 9.556m-2.504-1.76-.803-.787-.699.715 1.51 1.48 3.35-3.35-.708-.708zM5 11H4c-.553 0-1 0-1 1h2v1h-.5a.5.5 0 0 0 0 1H5v1H3c0 1 .447 1 1 1h1a1 1 0 0 0 1-1v-1a1 1 0 0 0-.153-.5A.96.96 0 0 0 6 13v-1a1 1 0 0 0-1-1m-.995-9.466v3.4h.99V.058l-1.96.788.37.927z"/></svg>