<svg xmlns="http://www.w3.org/2000/svg" viewBox="0 0 32 32"><path d="M22.65 4.72a8.33 8.33 0 0 0-6.16-2.52 8.32 8.32 0 0 0-6.14 2.519 8.45 8.45 0 0 0-2.093 6.329 11.33 11.33 0 0 0 2.71 6.473 3.62 3.62 0 0 1 1.038 2.702L12 20.5a3.24 3.24 0 0 0 .446 1.728l-.227.295A1.32 1.32 0 0 0 12.5 24.4l.14.1-.272.193a.992.992 0 0 0 .002 1.615l.27.192-.272.193a.992.992 0 0 0 .012 1.621l1.17.792a5.24 5.24 0 0 0 5.9 0l1.182-.8a.992.992 0 0 0-.002-1.614l-.27-.192.272-.193a.992.992 0 0 0-.002-1.615l-.27-.192.138-.099a1.32 1.32 0 0 0 .282-1.88l-.226-.294A3.24 3.24 0 0 0 21 20.5l-.005-.277a3.63 3.63 0 0 1 1.04-2.703 11.32 11.32 0 0 0 2.708-6.472A8.45 8.45 0 0 0 22.65 4.72m-3.76 23.558a4.24 4.24 0 0 1-4.78 0l-1.159-.771 1.41-1.007-1.41-.993 1.41-1.007-1.28-.915a.32.32 0 0 1-.068-.454l.15-.197a.6.6 0 0 0 .225.066h6.224a.6.6 0 0 0 .225-.066l.15.195a.33.33 0 0 1 .063.243.32.32 0 0 1-.132.214l-1.278.914 1.409.993-1.41 1.007 1.42.986zM17 22h-1v-4h1zm6.745-11.01a10.46 10.46 0 0 1-2.513 5.932 4.54 4.54 0 0 0-1.237 3.328l.005.25a1.83 1.83 0 0 1-.536 1.5H18v-4.421l1.075-3.325-.951-.309L17.136 17h-1.272l-.988-3.055-.951.309L15 17.579V22h-1.464A1.83 1.83 0 0 1 13 20.5l.005-.25a4.54 4.54 0 0 0-1.24-3.33 10.46 10.46 0 0 1-2.51-5.93 7.46 7.46 0 0 1 1.829-5.593A7.33 7.33 0 0 1 16.49 3.2a7.34 7.34 0 0 1 5.426 2.198 7.46 7.46 0 0 1 1.83 5.591z"/><path fill="none" d="M0 0h32v32H0z"/></svg>