<svg xmlns="http://www.w3.org/2000/svg" viewBox="0 0 16 16"><path d="M11.01 11.035a3.8 3.8 0 0 1 .135-.904 3.2 3.2 0 0 1 .426-.657 6.33 6.33 0 0 0 1.479-3.576 4.57 4.57 0 0 0-1.555-3.72 4.5 4.5 0 0 0-5.9-.075A4.56 4.56 0 0 0 3.95 5.897a6.33 6.33 0 0 0 1.48 3.577 3.2 3.2 0 0 1 .426.658 3.8 3.8 0 0 1 .134.903 5 5 0 0 0 .1.817c.013.059.036.095.051.148h-.312l.45 1.5-.365 1.215 1.487.967a2.02 2.02 0 0 0 2.2-.001l1.487-.966-.364-1.215.449-1.5h-.312c.015-.053.038-.09.051-.148a5 5 0 0 0 .1-.817zm-1.953 3.807a1.04 1.04 0 0 1-1.113 0l-.857-.557.235-.785-.15-.5h2.656l-.15.5.235.785zM9 12V9H8v3h-.79a1 1 0 0 1-.145-.365 4 4 0 0 1-.078-.66 4.7 4.7 0 0 0-.17-1.118 3.3 3.3 0 0 0-.586-.981 5.38 5.38 0 0 1-1.283-3.038 3.57 3.57 0 0 1 1.29-2.97 3.504 3.504 0 0 1 4.595.06 3.58 3.58 0 0 1 1.219 2.91 5.38 5.38 0 0 1-1.283 3.038 3.3 3.3 0 0 0-.585.98 4.7 4.7 0 0 0-.171 1.119 4 4 0 0 1-.078.66 1.1 1.1 0 0 1-.14.365zm1-4H7V7h3z"/><path fill="none" d="M0 0h16v16H0z"/></svg>