<?xml version="1.0" encoding="UTF-8"?><svg id="icons" xmlns="http://www.w3.org/2000/svg" viewBox="0 0 16 16"><defs><style>.cls-1{fill:none;}</style></defs><path d="M14,1.29645L15.28418.01074l.70703.70703-1.99121,1.99353v-1.41486ZM14,4.12817v1.57092c.62982.94702,1,2.08014,1,3.3009,0,3.30859-2.69141,6-6,6-1.97974,0-3.73315-.96783-4.8266-2.45068l6.54175-6.54932h-1.41327l-5.66595,5.67255c-.40326-.80603-.63593-1.71161-.63593-2.67255,0-3.30859,2.69141-6,6-6v-1c-3.85938,0-7,3.14062-7,7,0,1.23969.32733,2.40308.89514,3.41418l-1.86096,1.86316.70703.70703,1.71948-1.7215c1.28119,1.66077,3.28473,2.73712,5.53931,2.73712,3.85938,0,6.99-3.14062,6.99-7,0-1.89734-.75862-3.61096-1.99-4.87183ZM13,2v3h-3v-3h3ZM12,3h-1v1h1v-1Z"/><rect class="cls-1" width="16" height="16"/></svg>