<svg xmlns="http://www.w3.org/2000/svg" viewBox="0 0 32 32"><path d="M0 0h32v32H0z" style="fill:none"/><path d="M30.99 17.5c0 7.444-6.046 13.5-13.49 13.5-5.081 0-9.511-2.824-11.815-6.982L1.72 27.982l-.707-.707 4.206-4.203A13.4 13.4 0 0 1 4 17.5C4 10.056 10.056 4 17.5 4c.857 0 1.689.097 2.5.253v1A12.5 12.5 0 0 0 17.5 5C10.607 5 5 10.607 5 17.5c0 1.708.346 3.336.97 4.82L20.645 7.647l.707.707L6.426 23.278C8.516 27.268 12.692 30 17.5 30 24.393 30 30 24.393 30 17.5c0-3.447-1.41-6.564-3.674-8.826l.709-.709A13.43 13.43 0 0 1 30.99 17.5M26.352 3.352 28.974.728l-.707-.707-2.622 2.624zM25 4v3h-3V4zm-1 1h-1v1h1z"/></svg>