<?xml version="1.0" encoding="UTF-8"?><svg id="icons" xmlns="http://www.w3.org/2000/svg" viewBox="0 0 32 32"><defs><style>.cls-1{fill:none;}</style></defs><rect class="cls-1" x="0" width="32" height="32"/><path d="M30.99,17.5c0,7.44434-6.04566,13.5-13.49,13.5-5.08105,0-9.51135-2.82367-11.81458-6.98187l-3.96655,3.96405-.70703-.70703,4.20593-4.20337c-.77484-1.70105-1.21777-3.5838-1.21777-5.57178,0-7.44434,6.05566-13.5,13.5-13.5.85663,0,1.6886.09723,2.5.25281v.99957c-.80792-.16516-1.64386-.25238-2.5-.25238-6.89258,0-12.5,5.60742-12.5,12.5,0,1.70801.34619,3.33612.96906,4.8205l14.67651-14.67493.70703.70703-14.92651,14.92499c2.09021,3.98993,6.26593,6.72241,11.07391,6.72241,6.89258,0,12.5-5.60742,12.5-12.5,0-3.4469-1.40924-6.56396-3.6745-8.8255l.70941-.70941c2.4455,2.44336,3.95509,5.81244,3.95509,9.53491ZM26.35199,3.35199l2.62213-2.62378-.70703-.70703-2.62213,2.62378.70703.70703ZM25,4v3h-3v-3h3ZM24,5h-1v1h1v-1Z"/></svg>