<svg xmlns="http://www.w3.org/2000/svg" viewBox="0 0 24 24"><path d="M0 0h24v24H0z" style="fill:none"/><path d="M18.444 1.844 20.276.01l.707.707-1.832 1.833zm.718 2.83-.08 1.158C21.451 7.56 23 10.35 23 13.5c0 5.238-4.262 9.5-9.5 9.5-3.994 0-7.413-2.48-8.816-5.979l9.967-9.97-.707-.707-9.61 9.614A9.5 9.5 0 0 1 4 13.5C4 8.262 8.262 4 13.5 4c.137 0 .268.022.403.028l.048-1.01C13.801 3.012 13.652 3 13.5 3 7.71 3 3.01 7.71 3.01 13.5c0 1.14.179 2.236.516 3.265L1.01 19.282l.707.707 2.206-2.206C5.566 21.442 9.236 24 13.5 24 19.29 24 24 19.29 24 13.5c0-3.704-1.932-6.959-4.838-8.827M18 3v3h-3V3zm-1 1h-1v1h1z"/></svg>