<?xml version="1.0" encoding="UTF-8"?><svg id="icons" xmlns="http://www.w3.org/2000/svg" viewBox="0 0 24 24"><defs><style>.cls-1{fill:none;}</style></defs><path d="M21.35352,6.35352l-2.84766,2.84766-2.84668-2.84766.70703-.70703,1.63379,1.63452v-2.28101c0-1.10254-.89746-2-2-2h-2v-1h2c1.6543,0,2.99,1.3457,2.99,3l.01,2.29297,1.64648-1.64648.70703.70703ZM11,11c0,1.10254-.89746,2-2,2s-2-.89746-2-2c0-.2312.0473-.44983.11981-.65662l-2.79102-1.86005c-.35419.31757-.81696.51666-1.3288.51666-1.10254,0-1.97998-.89746-1.97998-2s.87744-2,1.97998-2c.51184,0,.97461.1991,1.3288.51666l2.79102-1.86005c-.07251-.20679-.11981-.42542-.11981-.65662,0-1.10254.89746-2,2-2s2,.89746,2,2-.89746,2-2,2c-.5097,0-.97046-.19763-1.3241-.51282l-2.79382,1.8623c.07117.20502.11792.42157.11792.65051s-.04675.4455-.11792.65051l2.79382,1.8623c.35364-.31519.81439-.51282,1.3241-.51282,1.10254,0,2,.89746,2,2ZM8,3.5c0,.27612.22388.5.5.5h1c.27612,0,.5-.22388.5-.5v-1c0-.27618-.22388-.5-.5-.5h-1c-.27612,0-.5.22382-.5.5v1ZM10,10.5c0-.27618-.22388-.5-.5-.5h-1c-.27612,0-.5.22382-.5.5v1c0,.27612.22388.5.5.5h1c.27612,0,.5-.22388.5-.5v-1ZM23,21c0,1.10254-.89746,2-2,2s-2-.89746-2-2c0-.2312.0473-.44983.11981-.65662l-2.79102-1.86005c-.35419.31757-.81696.51666-1.3288.51666-1.10254,0-1.97998-.89746-1.97998-2s.87744-2,1.97998-2c.51184,0,.97461.1991,1.3288.51666l2.79102-1.86005c-.07251-.20679-.11981-.42542-.11981-.65662,0-1.10254.89746-2,2-2s2,.89746,2,2c0,.73669-.40521,1.37469-1,1.72168v4.55664c.59479.34698,1,.98499,1,1.72168ZM20,13.5c0,.27612.22388.5.5.5h1c.27612,0,.5-.22388.5-.5v-1c0-.27618-.22388-.5-.5-.5h-1c-.27612,0-.5.22382-.5.5v1ZM19.6759,19.51282c.35364-.31519.81439-.51282,1.3241-.51282v-4c-.5097,0-.97046-.19763-1.3241-.51282l-2.79382,1.8623c.07117.20502.0979.42157.0979.65051s-.02673.4455-.0979.65051l2.79382,1.8623ZM22,20.5c0-.27618-.22388-.5-.5-.5h-1c-.27612,0-.5.22382-.5.5v1c0,.27612.22388.5.5.5h1c.27612,0,.5-.22388.5-.5v-1Z"/><rect class="cls-1" width="24" height="24"/></svg>