<svg xmlns="http://www.w3.org/2000/svg" viewBox="0 0 16 16"><path d="M5 9.5a5 5 0 0 0 .048.493l-.023-.018-3-3a3.5 3.5 0 1 1 4.95-4.95l3 3a3.486 3.486 0 0 1-1.31 5.76l-.226-.225a1.5 1.5 0 0 1-.37-.631 2.495 2.495 0 0 0 1.199-4.197l-3-3a2.5 2.5 0 1 0-3.536 3.536L5.09 8.625A4.5 4.5 0 0 0 5 9.5m11 3a3.48 3.48 0 0 0-1.025-2.475l-3-3-.023-.018A5 5 0 0 1 12 7.5a4.5 4.5 0 0 1-.089.876l2.357 2.356a2.5 2.5 0 0 1-.009 3.544 2.56 2.56 0 0 1-3.527-.008l-3-3a2.5 2.5 0 0 1-.094-3.436 2.43 2.43 0 0 1 1.3-.74 1.5 1.5 0 0 0-.377-.652l-.222-.222a3.482 3.482 0 0 0-1.314 5.757l3 3a3.5 3.5 0 0 0 4.937.012l-.351-.355.352.355A3.48 3.48 0 0 0 16 12.5"/><path fill="none" d="M0 0h16v16H0z"/></svg>