<?xml version="1.0" encoding="UTF-8"?><svg id="icons" xmlns="http://www.w3.org/2000/svg" viewBox="0 0 16 16"><defs><style>.cls-1{fill:none;}</style></defs><path d="M11.5,0c-2.31024,0-4.19702,1.75616-4.44946,4H2v1h5.05054c.25244,2.24384,2.13922,4,4.44946,4,2.48145,0,4.5-2.01855,4.5-4.5S13.98145,0,11.5,0ZM11.5,8c-1.75848,0-3.20422-1.30835-3.44946-3h1c.23224,1.13995,1.24182,2,2.44946,2,1.37891,0,2.5-1.12109,2.5-2.5s-1.12109-2.5-2.5-2.5c-1.20764,0-2.21722.86005-2.44946,2h-1c.24524-1.69165,1.69098-3,3.44946-3,1.92969,0,3.5,1.57031,3.5,3.5s-1.57031,3.5-3.5,3.5ZM10,5v-1c0-.55231.44769-1,1-1h1c.55231,0,1,.44769,1,1v1c0,.55225-.44769,1-1,1h-1c-.55231,0-1-.44775-1-1ZM4.20715,12.5l2.27496,2.27502-.70715.70709-2.27496-2.27502-2.27502,2.27496-.70715-.70709,2.27502-2.27496-2.27496-2.27502.70715-.70715,2.27496,2.27502,2.27502-2.27496.70715.70715-2.27502,2.27496Z"/><rect class="cls-1" width="16" height="16"/></svg>