<?xml version="1.0" encoding="UTF-8"?><svg id="icons" xmlns="http://www.w3.org/2000/svg" viewBox="0 0 16 16"><defs><style>.cls-1{fill:none;}</style></defs><path d="M14.17603,4l-1.67603,2.05817-1.67603-2.05817h1.17603v-.5c0-.82715-.67285-1.5-1.5-1.5h-.5v-1h.5c1.37842,0,2.5,1.12109,2.5,2.5v.5h1.17603ZM1.5,5c-.82715,0-1.5.67285-1.5,1.5s.67285,1.5,1.5,1.5,1.5-.67285,1.5-1.5-.67285-1.5-1.5-1.5ZM6.5,0c-.82715,0-1.5.67285-1.5,1.5s.67285,1.5,1.5,1.5,1.5-.67285,1.5-1.5-.67285-1.5-1.5-1.5ZM16,14.5c0,.82715-.67285,1.5-1.5,1.5-.65192,0-1.20239-.42047-1.40869-1.00256.00031.00079.00018.00177.00049.00256h-3.1839c-.20709.58075-.7569,1-1.4079,1-.82715,0-1.5-.67285-1.5-1.5s.67285-1.5,1.5-1.5c.2309,0,.44708.05676.64264.15033l1.00732-1.00732c.00055.00122.00171.00201.00226.00323-.09467-.19647-.15222-.41394-.15222-.64624,0-.82715.67285-1.5,1.5-1.5.2323,0,.44977.05756.64624.15222-.00122-.00055-.00201-.00171-.00323-.00226l1.00732-1.00732c-.09357-.19556-.15033-.41174-.15033-.64264,0-.82715.67285-1.5,1.5-1.5s1.5.67285,1.5,1.5c0,.651-.41925,1.20081-1,1.4079v3.1839c-.00079-.00031-.00177-.00018-.00256-.00049.58209.2063,1.00256.75677,1.00256,1.40869ZM11,12h1v-1h-1v1ZM14.00256,13.09131c-.00079.00031-.00177.00018-.00256.00049v-3.1839c-.04883-.0174-.09631-.03607-.14264-.05823l-1.00732,1.00732c-.00055-.00122-.00171-.00201-.00226-.00323.09467.19647.15222.41394.15222.64624,0,.82715-.67285,1.5-1.5,1.5-.2323,0-.44977-.05756-.64624-.15222.00122.00055.00201.00171.00323.00226l-1.00732,1.00732c.02216.04633.04083.09381.05823.14264h3.1839c-.00031.00079-.00018.00177-.00049.00256.15082-.42566.4856-.76044.91125-.91125ZM15,14h-1v1h1v-1Z"/><rect class="cls-1" width="16" height="16"/></svg>