<?xml version="1.0" encoding="UTF-8"?><svg id="icons" xmlns="http://www.w3.org/2000/svg" viewBox="0 0 24 24"><defs><style>.cls-1{fill:none;}</style></defs><path d="M12.5,6c-1.20764,0-2.21722.86005-2.44946,2h-4.10107c-.04456-.21857-.12634-.42151-.22394-.61542l2.24866-1.91833c.42352.32947.94873.53375,1.52582.53375,1.37891,0,2.49-1.12109,2.49-2.5s-1.11109-2.5-2.49-2.5-2.49,1.12109-2.49,2.5c0,.4397.11384.84698.31379,1.20624l-2.21875,1.89294c-.43555-.36835-.99103-.59918-1.60504-.59918-1.37891,0-2.49,1.12109-2.49,2.5s1.11109,2.5,2.49,2.5c.57288,0,1.09485-.20123,1.51685-.52637l2.25208,1.92108c-.16656.33472-.25892.7066-.25892,1.10529,0,1.37891,1.11109,2.5,2.49,2.5s2.49-1.12109,2.49-2.5-1.11109-2.5-2.49-2.5c-.6181,0-1.17712.2337-1.61389.60645l-2.21558-1.88977c.125-.22217.2265-.45929.27893-.71667h4.10107c.23224,1.13995,1.24182,2,2.44946,2,1.37891,0,2.49-1.12109,2.49-2.5s-1.11109-2.5-2.49-2.5ZM8,3c0-.55231.44769-1,1-1h1c.55231,0,1,.44769,1,1v1c0,.55225-.44769,1-1,1h-1c-.55231,0-1-.44775-1-1v-1ZM8,13c0-.55231.44769-1,1-1h1c.55231,0,1,.44769,1,1v1c0,.55225-.44769,1-1,1h-1c-.55231,0-1-.44775-1-1v-1ZM14,9c0,.55225-.44769,1-1,1h-1c-.55231,0-1-.44775-1-1v-1c0-.55231.44769-1,1-1h1c.55231,0,1,.44769,1,1v1ZM11.20117,20.50586l-2.84766,2.84766-.70703-.70703,1.64648-1.64648h-2.29297c-1.6543,0-3-1.3457-3-3v-2h1v2c0,1.10254.89746,2,2,2h2.28101l-1.63452-1.63379.70703-.70703,2.84766,2.84668ZM23.99,15.5c0-.82715-.66285-1.5-1.49-1.5-.36163,0-.68927.13385-.94855.34772l-2.5816-1.54926c.01959-.0965.02015-.19623.02015-.29846,0-.82715-.66285-1.5-1.49-1.5s-1.49.67285-1.49,1.5c0,.2309.04676.44708.14033.64264l-2.00769,2.00769c-.19556-.09357-.41174-.15033-.64264-.15033-.82715,0-1.5.67285-1.5,1.5,0,.75372.56049,1.37317,1.28558,1.47833l.44794,2.23932c-.43726.26239-.72352.73633-.72352,1.28235,0,.82715.66285,1.5,1.49,1.5.57538,0,1.07019-.32928,1.32172-.80585l4.20807.60083c.13751.68628.74408,1.20502,1.47021,1.20502.82715,0,1.49-.67285,1.49-1.5,0-.57562-.31947-1.07062-.7964-1.32202l.60138-4.20782c.68628-.13751,1.19502-.74402,1.19502-1.47015ZM18.44836,13.65247l2.58185,1.54877c-.01959.09662-.03021.19647-.03021.29877,0,.06226.01099.12152.01837.18176l-1.48004.73999c-.2207-.21259-.50653-.35413-.82391-.40009l-.44806-2.2392c.06439-.03864.12433-.08246.18201-.13ZM19,17v1h-1v-1h1ZM16.85736,13.84967c.13348.06384.27692.10669.42853.12866l.44781,2.23914c-.21234.12732-.38892.30389-.51624.51624l-2.23914-.44781c-.02197-.15161-.06482-.29504-.12866-.42853l2.00769-2.00769ZM13,17v-1h1v1h-1ZM15.14832,20.15338c-.13501-.06531-.28027-.10944-.43396-.13171l-.44775-2.23932c.21216-.12732.38867-.30383.51593-.51605l2.23914.44781c.02295.15826.06958.30731.13794.44562l-2.01129,1.99365ZM20.1781,21.80621l-4.20795-.60156c-.0246-.12262-.06787-.23737-.12048-.34729l2.00769-2.00769c.19556.09357.41174.15033.64264.15033.11017,0,.21698-.01361.32043-.03625l1.5321,2.58185c-.06702.08044-.12524.16724-.17444.26062ZM19.65228,18.44861c.21393-.25928.34772-.58698.34772-.94861,0-.06226-.01099-.12152-.01837-.18176l1.48004-.73999c.1015.09772.21869.17731.34442.24359l-.60077,4.20795c-.0014.00024-.00287.00012-.00427.00043l-1.54877-2.5816ZM22,23h-1v-1h1v1Z"/><rect class="cls-1" width="24" height="24"/></svg>