<svg xmlns="http://www.w3.org/2000/svg" viewBox="0 0 32 32"><path d="M26.5 12c-1.758 0-3.204 1.308-3.45 3H8.95a3.47 3.47 0 0 0-.252-.91l10.144-6.34A3.478 3.478 0 0 0 21.5 9c1.93 0 3.49-1.57 3.49-3.5S23.43 2 21.5 2 18 3.57 18 5.5c0 .502.11.977.302 1.41L8.158 13.25A3.478 3.478 0 0 0 5.5 12c-1.93 0-3.49 1.57-3.49 3.5S3.57 19 5.5 19c1.043 0 1.97-.468 2.612-1.194l11.214 7.24A3.464 3.464 0 0 0 19 26.5c0 1.93 1.57 3.5 3.5 3.5s3.49-1.57 3.49-3.5S24.43 23 22.5 23c-1.05 0-1.983.475-2.625 1.21L8.664 16.973c.142-.304.236-.63.285-.973h14.102c.245 1.692 1.69 3 3.449 3 1.93 0 3.49-1.57 3.49-3.5S28.43 12 26.5 12zm0 6c-1.378 0-2.5-1.122-2.5-2.5s1.122-2.5 2.5-2.5 2.5 1.122 2.5 2.5-1.122 2.5-2.5 2.5zM19 5.5C19 4.122 20.122 3 21.5 3S24 4.122 24 5.5 22.878 8 21.5 8 19 6.878 19 5.5zM22.5 24c1.378 0 2.5 1.122 2.5 2.5S23.878 29 22.5 29 20 27.878 20 26.5s1.122-2.5 2.5-2.5z"/><path fill="none" d="M0 0h32v32H0z"/></svg>