<?xml version="1.0" encoding="UTF-8"?><svg id="icons" xmlns="http://www.w3.org/2000/svg" viewBox="0 0 32 32"><defs><style>.cls-1{fill:none;}</style></defs><path d="M12.64911,16.914l-2.30005,7.4212c.97485.49591,1.64094,1.49811,1.64094,2.66479,0,1.6543-1.3357,3-2.99,3s-3-1.3457-3-3,1.3457-3,3-3c.13477,0,.26343.02252.39355.03979l2.30096-7.42413c-1.58344-.69757-2.69452-2.2771-2.69452-4.11566,0-.95844.30634-1.84351.81897-2.57416l-2.94373-2.60315c-.51532.41693-1.16223.67731-1.87524.67731-1.6543,0-3-1.3457-3-3s1.3457-3,3-3,3,1.3457,3,3c0,.57977-.17273,1.11688-.45868,1.57623l2.94574,2.60492c.79944-.72632,1.85022-1.18115,3.01294-1.18115,1.43433,0,2.69922.68695,3.5238,1.73535l4.20038-2.60724c-.14227-.34888-.22418-.7287-.22418-1.12811,0-1.6543,1.3457-3,3-3s2.99,1.3457,2.99,3-1.3357,3-2.99,3c-.89557,0-1.69153-.40234-2.24164-1.02655l-4.20349,2.60919c.2774.58386.43513,1.22906.43513,1.91736,0,.1712-.0218.33368-.04054.5h-1c.02386-.16473.05054-.3288.05054-.5,0-1.92969-1.57031-3.5-3.5-3.5s-3.5,1.57031-3.5,3.5c0,1.75848,1.30835,3.20422,3,3.44946v1c-.11639-.0141-.23706-.01355-.35089-.03546ZM30,15.5v13c0,.82715-.67285,1.5-1.5,1.5h-13c-.82715,0-1.5-.67285-1.5-1.5v-13c0-.82715.67285-1.5,1.5-1.5h13c.82715,0,1.5.67285,1.5,1.5ZM29,15.5c0-.27539-.22461-.5-.5-.5h-13c-.27539,0-.5.22461-.5.5v13c0,.27539.22461.5.5.5h13c.27539,0,.5-.22461.5-.5v-13ZM28,22v5c0,.55225-.44769,1-1,1h-2c-.55231,0-1-.44775-1-1v-5c0-.55231.44769-1,1-1h2c.55231,0,1,.44769,1,1ZM27,22h-2v5h2v-5ZM23,26v1c0,.55225-.44769,1-1,1h-1c-.55231,0-1-.44775-1-1v-1c0-.55231.44769-1,1-1h1c.55231,0,1,.44769,1,1ZM22,26h-1v1h1v-1ZM19,26v1c0,.55225-.44769,1-1,1h-1c-.55231,0-1-.44775-1-1v-1c0-.55231.44769-1,1-1h1c.55231,0,1,.44769,1,1ZM18,26h-1v1h1v-1ZM23,22v1c0,.55225-.44769,1-1,1h-1c-.55231,0-1-.44775-1-1v-1c0-.55231.44769-1,1-1h1c.55231,0,1,.44769,1,1ZM22,22h-1v1h1v-1ZM19,22v1c0,.55225-.44769,1-1,1h-1c-.55231,0-1-.44775-1-1v-1c0-.55231.44769-1,1-1h1c.55231,0,1,.44769,1,1ZM18,22h-1v1h1v-1ZM16,16h12v4h-12v-4ZM17,19h10v-2h-10v2Z"/><rect class="cls-1" width="32" height="32"/></svg>