<svg xmlns="http://www.w3.org/2000/svg" viewBox="0 0 16 16"><path d="M15 13.092V9.908c.58-.207 1-.757 1-1.408 0-.827-.673-1.5-1.5-1.5S13 7.673 13 8.5c0 .155.03.302.075.444l-1.745 1.308A1.502 1.502 0 0 0 9 11.5c0 .827.673 1.5 1.5 1.5s1.5-.673 1.5-1.5c0-.155-.03-.302-.075-.444l1.745-1.308q.153.099.33.16v3.184a1.49 1.49 0 0 0-.99 1.408c0 .827.663 1.5 1.49 1.5s1.49-.673 1.49-1.5c0-.651-.41-1.2-.99-1.408M15 15h-1v-1h1zM9.5 2H9V1h.5C10.878 1 12 2.121 12 3.5V4h1.176L11.5 6.058 9.824 4H11v-.5c0-.827-.673-1.5-1.5-1.5M3 4.5C3 5.327 2.327 6 1.5 6S0 5.327 0 4.5.673 3 1.5 3 3 3.673 3 4.5m4-3C7 .673 6.327 0 5.5 0S4 .673 4 1.5c0 .651.42 1.2 1 1.408v3.184A1.49 1.49 0 0 0 4.01 7.5c0 .827.663 1.5 1.49 1.5s1.49-.673 1.49-1.5c0-.651-.41-1.2-.99-1.408V2.908A1.5 1.5 0 0 0 7 1.5M6 8H5V7h1z"/><path fill="none" d="M0 0h16v16H0z"/></svg>