<?xml version="1.0" encoding="UTF-8"?><svg id="icons" xmlns="http://www.w3.org/2000/svg" viewBox="0 0 16 16"><defs><style>.cls-1{fill:none;}</style></defs><path d="M15,13.0921v-3.1842c.58075-.20709,1-.7569,1-1.4079,0-.82715-.67285-1.5-1.5-1.5s-1.5.67285-1.5,1.5c0,.15546.03052.30249.07458.4436l-1.74438,1.30865c-.23798-.15887-.52319-.25226-.8302-.25226-.82715,0-1.5.67285-1.5,1.5s.67285,1.5,1.5,1.5,1.5-.67285,1.5-1.5c0-.15546-.03052-.30249-.07458-.4436l1.74438-1.30865c.10144.06769.2135.11853.3302.16016v3.1842c-.58075.20709-.99.7569-.99,1.4079,0,.82715.66285,1.5,1.49,1.5s1.49-.67285,1.49-1.5c0-.651-.40925-1.20081-.99-1.4079ZM15,15h-1v-1h1v1ZM9.5,2h-.5v-1h.5c1.37842,0,2.5,1.12109,2.5,2.5v.5h1.17603l-1.67603,2.05817-1.67603-2.05817h1.17603v-.5c0-.82715-.67285-1.5-1.5-1.5ZM3,4.5c0,.82715-.67285,1.5-1.5,1.5s-1.5-.67285-1.5-1.5.67285-1.5,1.5-1.5,1.5.67285,1.5,1.5ZM7,1.5c0-.82715-.67285-1.5-1.5-1.5s-1.5.67285-1.5,1.5c0,.651.41925,1.20081,1,1.4079v3.1842c-.58075.20709-.99.7569-.99,1.4079,0,.82715.66285,1.5,1.49,1.5s1.49-.67285,1.49-1.5c0-.651-.40925-1.20081-.99-1.4079v-3.1842c.58075-.20709,1-.7569,1-1.4079ZM6,8h-1v-1h1v1Z"/><rect class="cls-1" width="16" height="16"/></svg>