<?xml version="1.0" encoding="UTF-8"?><svg id="icons" xmlns="http://www.w3.org/2000/svg" viewBox="0 0 16 16"><defs><style>.cls-1{fill:none;}</style></defs><rect class="cls-1" width="16" height="16"/><path d="M13,9.05054V3.9079c.58075-.20709,1-.7569,1-1.4079,0-.82715-.67285-1.5-1.5-1.5s-1.5.67285-1.5,1.5c0,.2309.05676.44708.15033.64264l-1.56403,1.56403c-.58435-.43774-1.30176-.70667-2.0863-.70667-1.92969,0-3.5,1.57031-3.5,3.5,0,.78455.26892,1.50195.70667,2.0863l-1.56403,1.56403c-.19556-.09357-.41174-.15033-.64264-.15033-.82715,0-1.5.67285-1.5,1.5s.67285,1.5,1.5,1.5c.651,0,1.20081-.41925,1.4079-1h5.14264c.24524,1.69165,1.69098,3,3.44946,3,1.92969,0,3.48999-1.57031,3.48999-3.5,0-1.75848-1.29834-3.20422-2.98999-3.44946ZM13,12v1h-1v-1h1ZM11.0921,12h-1.04156c.19934-.97833.97113-1.75012,1.94946-1.94946v1.04156c-.42358.15106-.75684.48431-.9079.9079ZM10,7.5c0,1.37891-1.12109,2.5-2.5,2.5-.50885,0-.98132-.15442-1.37659-.41638l.73395-.73395c.19556.09357.41174.15033.64264.15033.82715,0,1.5-.67285,1.5-1.5,0-.2309-.05676-.44708-.15033-.64264l.73395-.73395c.26196.39526.41638.86774.41638,1.37659ZM7,8v-1h1v1h-1ZM7.5,5c.50885,0,.98132.15442,1.37659.41638l-.73395.73395c-.19556-.09357-.41174-.15033-.64264-.15033-.82715,0-1.5.67285-1.5,1.5,0,.2309.05676.44708.15033.64264l-.73395.73395c-.26196-.39526-.41638-.86774-.41638-1.37659,0-1.37891,1.12109-2.5,2.5-2.5ZM9.05054,12H3.9079c-.0174-.04883-.03607-.09631-.05823-.14264l1.56403-1.56403c.58435.43774,1.30176.70667,2.0863.70667,1.92969,0,3.48999-1.57031,3.48999-3.5,0-.78455-.25891-1.50195-.69666-2.0863l1.56403-1.56403c.04633.02216.09381.04083.14264.05823v5.14264c-1.52692.22137-2.72809,1.42255-2.94946,2.94946ZM12.5,15c-1.20764,0-2.21722-.86005-2.44946-2h1.04156c.20709.58075.7569,1,1.4079,1,.82715,0,1.5-.67285,1.5-1.5,0-.651-.41925-1.20081-1-1.4079v-1.04156c1.13995.23224,2,1.24182,2,2.44946,0,1.37891-1.12109,2.5-2.5,2.5Z"/></svg>