<?xml version="1.0" encoding="UTF-8"?><svg id="icons" xmlns="http://www.w3.org/2000/svg" viewBox="0 0 24 24"><defs><style>.cls-1{fill:none;}</style></defs><path d="M11,3c0-1.10254-.89746-2-2-2s-1.99.89746-1.99,2,.88746,2,1.99,2v4c-1.10254,0-1.99.89746-1.99,2s.88746,2,1.99,2,2-.89746,2-2c0-.73669-.40521-1.37469-1-1.72168v-4.55664c.59479-.34698,1-.98499,1-1.72168ZM10,11.5c0,.27612-.22388.5-.5.5h-1c-.27612,0-.5-.22388-.5-.5v-1c0-.27618.22388-.5.5-.5h1c.27612,0,.5.22382.5.5v1ZM22,19.27832v-4.55664c.59479-.34698,1-.98499,1-1.72168,0-1.10254-.89746-2-2-2s-2,.89746-2,2c0,.2312.0473.44983.11981.65662l-2.79102,1.86005c-.35419-.31757-.81696-.51666-1.3288-.51666-1.10254,0-1.99.89746-1.99,2s.88746,2,1.99,2,2-.89746,2-2c0-.22894-.04675-.4455-.11792-.65051l2.79382-1.8623c.35364.31519.81439.51282,1.3241.51282v4c-1.10254,0-1.99.89746-1.99,2s.88746,2,1.99,2,2-.89746,2-2c0-.73669-.40521-1.37469-1-1.72168ZM22,21.5c0,.27612-.22388.5-.5.5h-1c-.27612,0-.5-.22388-.5-.5v-1c0-.27618.22388-.5.5-.5h1c.27612,0,.5.22382.5.5v1ZM16,3h-2v-1h2c1.6543,0,2.99,1.3457,2.99,3l.01,2.29297,1.64648-1.64648.70703.70703-2.84766,2.84766-2.84668-2.84766.70703-.70703,1.63379,1.63452v-2.28101c0-1.10254-.89746-2-2-2ZM5,7c0,1.10254-.89746,2-2,2s-1.99-.89746-1.99-2,.88746-2,1.99-2,2,.89746,2,2Z"/><rect class="cls-1" width="24" height="24"/></svg>