<?xml version="1.0" encoding="UTF-8"?><svg id="icons" xmlns="http://www.w3.org/2000/svg" viewBox="0 0 32 32"><defs><style>.cls-1{fill:none;}</style></defs><path d="M6.97998,14.5c0,1.37891-1.10107,2.5-2.47998,2.5s-2.5-1.12109-2.5-2.5,1.12109-2.5,2.5-2.5,2.47998,1.12109,2.47998,2.5ZM16.97998,4.5c0-1.37891-1.10107-2.5-2.47998-2.5s-2.5,1.12109-2.5,2.5,1.12109,2.5,2.5,2.5,2.47998-1.12109,2.47998-2.5ZM25,8v3.2793l-2.64648-2.64648-.70703.70703,3.85352,3.85352,3.85352-3.85352-.70703-.70703-2.64648,2.64648v-3.2793c0-2.20605-1.79395-4-4-4h-2v1h2c1.6543,0,3,1.3457,3,3ZM29.97998,27.5c0,1.37891-1.10107,2.5-2.47998,2.5-.81384,0-1.53082-.39642-1.98755-1h-6.0249c-.45673.60358-1.17371,1-1.98755,1-1.37891,0-2.5-1.12109-2.5-2.5s1.12109-2.5,2.5-2.5c.50885,0,.98132.15442,1.37659.41638l1.53979-1.53979c-.26196-.39526-.41638-.86774-.41638-1.37659,0-1.37891,1.12109-2.5,2.5-2.5.50885,0,.98132.15442,1.37659.41638l1.53979-1.53979c-.26196-.39526-.41638-.86774-.41638-1.37659,0-1.37891,1.12109-2.5,2.5-2.5s2.48,1.12109,2.48,2.5c0,1.20764-.84005,2.21722-1.98,2.44946v5.10107c1.13995.23224,1.97998,1.24182,1.97998,2.44946ZM21,22.5c0,.82715.67285,1.5,1.5,1.5s1.5-.67285,1.5-1.5-.67285-1.5-1.5-1.5-1.5.67285-1.5,1.5ZM27,25.05054v-5.10107c-.31866-.06494-.61432-.19202-.87659-.36584l-1.53979,1.53979c.26196.39526.39636.86774.39636,1.37659,0,1.37891-1.10107,2.5-2.47998,2.5-.50885,0-.98132-.15442-1.37659-.41638l-1.53979,1.53979c.26196.39526.41638.86774.41638,1.37659,0,.17126-.01764.33838-.05054.5h5.10107c-.0329-.16162-.05054-.32874-.05054-.5,0-1.20764.86005-2.21722,2-2.44946ZM29,27.5c0-.82715-.67285-1.5-1.5-1.5s-1.5.67285-1.5,1.5.67285,1.5,1.5,1.5,1.5-.67285,1.5-1.5Z"/><rect class="cls-1" width="32" height="32"/></svg>