<?xml version="1.0" encoding="UTF-8"?><svg id="icons" xmlns="http://www.w3.org/2000/svg" viewBox="0 0 32 32"><defs><style>.cls-1{fill:none;}</style></defs><path d="M25.5,3c-1.75848,0-3.20422,1.30835-3.44946,3h-12.10107c-.24524-1.69165-1.69098-3-3.44946-3-1.92969,0-3.5,1.57031-3.5,3.5,0,1.75848,1.30835,3.20422,3,3.44946v12.10107c-1.69165.24524-3,1.69098-3,3.44946,0,1.92969,1.57031,3.5,3.5,3.5s3.49-1.57031,3.49-3.5c0-.78455-.25892-1.50195-.69667-2.0863l14.12036-14.12036c.58435.43774,1.30176.70667,2.0863.70667,1.92969,0,3.49-1.57031,3.49-3.5s-1.56031-3.5-3.49-3.5ZM7,22.05054v-12.10107c1.52692-.22137,2.72809-1.42255,2.94946-2.94946h12.10107c.08557.59003.3139,1.12946.65613,1.5863l-14.12036,14.12036c-.45685-.34222-.99628-.57056-1.5863-.65613ZM25.5,9c-1.37891,0-2.5-1.12109-2.5-2.5s1.12109-2.5,2.5-2.5,2.5,1.12109,2.5,2.5-1.12109,2.5-2.5,2.5ZM30,19v4h-4v-1h2.34399c-.76099-1.64691-2.41431-2.79999-4.34399-2.79999-2.64612,0-4.79999,2.15308-4.79999,4.79999h-1c0-3.19806,2.6012-5.79999,5.79999-5.79999,2.13232,0,3.9939,1.15875,5,2.87756v-2.07758h1ZM28.79999,24h1c0,3.19806-2.6012,5.79999-5.79999,5.79999-2.13232,0-3.9939-1.15875-5-2.87756v2.07758h-1v-4h4v1h-2.34399c.76099,1.64691,2.41431,2.79999,4.34399,2.79999,2.64612,0,4.79999-2.15314,4.79999-4.79999Z"/><rect class="cls-1" width="32" height="32"/></svg>