<svg xmlns="http://www.w3.org/2000/svg" viewBox="0 0 24 24"><path d="M13 6H9V5h4v1zm-.477 14.25c-.467 0-.908-.095-1.32-.25H2.788A.789.789 0 0 1 2 19.211V2.79A.79.79 0 0 1 2.79 2h11.42c.436 0 .789.353.789.789V10h.098c.215-.485.512-.923.902-1.274V2.58A1.582 1.582 0 0 0 14.42 1H2.585C1.71 1 1 1.71 1 2.585v16.838C1 20.293 1.706 21 2.577 21H14.42c.097 0 .191-.012.284-.029l-1.027-.91c-.37.123-.759.187-1.153.189zM9 11h4v-1H9v1zm-5 3h4v4H4v-4zm1 3h2v-2H5v2zm18.991-.5a2.495 2.495 0 0 1-4.94.5h-4.102a2.478 2.478 0 0 1-.512 1.061l2.12 1.884A2.486 2.486 0 0 1 18.5 19a2.495 2.495 0 0 1 2.491 2.5 2.495 2.495 0 1 1-4.991 0c0-.316.065-.616.173-.895l-2.286-2.029c-.393.264-.864.42-1.372.424a2.495 2.495 0 0 1-2.506-2.485 2.495 2.495 0 0 1 3.88-2.092l2.284-2.028A2.477 2.477 0 0 1 16 11.5a2.495 2.495 0 1 1 4.991 0c0 1.379-1.112 2.5-2.491 2.5a2.486 2.486 0 0 1-1.942-.945l-2.121 1.883c.247.305.43.663.51 1.062h4.104a2.495 2.495 0 0 1 4.94.5zM17 12a1 1 0 0 0 1 1h1a1 1 0 0 0 1-1v-1a1 1 0 0 0-1-1h-1a1 1 0 0 0-1 1v1zm0 10a1 1 0 0 0 1 1h1a1 1 0 0 0 1-1v-1a1 1 0 0 0-1-1h-1a1 1 0 0 0-1 1v1zm-2.997-5.01l-.006-1a1 1 0 0 0-1.006-.993l-1 .006a1 1 0 0 0-.994 1.006l.006 1a1 1 0 0 0 1.006.994l1-.006a1 1 0 0 0 .994-1.006zM23 16a1 1 0 0 0-1-1h-1a1 1 0 0 0-1 1v1a1 1 0 0 0 1 1h1a1 1 0 0 0 1-1v-1zM8 13H4V9h4v4zm-1-3H5v2h2v-2zm1-2H4V4h4v4zM7 5H5v2h2V5z" stroke-width="0"/><path stroke-width="0" fill="none" d="M0 0h24v24H0z"/></svg>