<?xml version="1.0" encoding="UTF-8"?><svg id="icons" xmlns="http://www.w3.org/2000/svg" viewBox="0 0 24 24"><defs><style>.cls-1{fill:none;}</style></defs><path d="M12.98999,14.5c0-1.37891-1.11108-2.5-2.48999-2.5-.56891,0-1.08777.19824-1.5083.51929l-3.32013-2.8045c.12451-.22168.22559-.45813.27789-.71478h5.10107c.23224,1.13995,1.24182,2,2.44946,2,1.37891,0,2.48999-1.12109,2.48999-2.5s-1.11108-2.5-2.48999-2.5c-1.20764,0-2.21722.86005-2.44946,2h-5.10107c-.04779-.23444-.13782-.45105-.24634-.65674l3.27985-2.86975c.422.32526.94403.52649,1.51703.52649,1.37891,0,2.48999-1.12109,2.48999-2.5s-1.11108-2.5-2.48999-2.5-2.5,1.12109-2.5,2.5c0,.44409.12598.85541.32971,1.21716l-3.26019,2.85266c-.43042-.35071-.97211-.56982-1.56952-.56982-1.37891,0-2.5,1.12109-2.5,2.5s1.12109,2.5,2.5,2.5c.57385,0,1.09656-.2019,1.51886-.52802l3.31628,2.80096c-.20715.36401-.33514.77893-.33514,1.22705,0,1.37891,1.12109,2.5,2.5,2.5s2.48999-1.12109,2.48999-2.5ZM12,8c0-.55231.44769-1,1-1h1c.55231,0,1,.44769,1,1v1c0,.55225-.44769,1-1,1h-1c-.55231,0-1-.44775-1-1v-1ZM9,2c0-.55231.44769-1,1-1h1c.55225,0,1,.44769,1,1v1c0,.55231-.44775,1-1,1h-1c-.55231,0-1-.44769-1-1v-1ZM9,15v-1c0-.55231.44769-1,1-1h1c.55225,0,1,.44769,1,1v1c0,.55225-.44775,1-1,1h-1c-.55231,0-1-.44775-1-1ZM23.70605,12.29199c-.2041-.11523-.45117-.09375-.65234.05762l-1.70996,1.3291-.62988-.46973-.30859-.78711,1.6377-1.28125c.21484-.1123.3418-.36035.31055-.60254-.03223-.24316-.21777-.4375-.50879-.50098-1.02344-.14453-2.10156.11035-2.82227.66797-.95898.74414-1.27832,2.1084-.80859,3.31836-1.2041,1.0293-7.63672,6.52637-7.66309,6.55078-.77539.77637-.77441,2.03906.00098,2.81445.37598.37598.87598.58301,1.40723.58301s1.03125-.20703,1.42676-.60449c0,0,5.84863-6.5752,6.66113-7.4873.01758.00391.03613.00781.05762.01172,1.01074.24609,1.85059.11816,2.49414-.38379.72461-.56055,1.27344-1.58789,1.40137-2.62207.02246-.19922-.05957-.45996-.29395-.59375ZM21.98633,14.71777c-.39258.30566-.94336.375-1.65527.2002l-.13574-.0332c-.19434-.07812-.48828-.10156-.78516.20605q-.01367.01367-6.75195,7.59082c-.37402.375-1.02539.37402-1.39941,0-.38574-.38574-.38672-1.01465-.0293-1.37402,7.81348-6.67578,7.83398-6.69531,7.85547-6.71387.20215-.19922.25684-.50488.13379-.7666-.40918-.84668-.23438-1.82715.41699-2.33203.23242-.17969.52832-.31641.84961-.40039l-.86328.6709c-.24707.19141-.3418.52734-.22852.81738l.43457,1.10547c.01953.04199.04395.08594.08789.14551l1.00879.7793c.25.19141.60156.18945.85547-.00781l.82422-.64062c-.17188.30762-.38574.57324-.61816.75293ZM12,21h1v1h-1v-1Z"/><rect class="cls-1" width="24" height="24"/></svg>