<?xml version="1.0" encoding="UTF-8"?><svg id="icons" xmlns="http://www.w3.org/2000/svg" viewBox="0 0 16 16"><defs><style>.cls-1{fill:none;}</style></defs><rect class="cls-1" width="16" height="16"/><path d="M15.98181,7.23859c-.00598-.00879-.01556-.01758-.02679-.02277-.03278-.01929-.07159-.0141-.10095.00867l-1.86151,1.44586c-.07336.05701-.17102.05963-.24091.0061l-.87292-.64966c-.01721-.01233-.02844-.02368-.03967-.03772-.01123-.01489-.01813-.02979-.02502-.04468l-.41705-1.06439c-.03278-.08331-.00525-.1806.06824-.23761l1.86145-1.44574c.02936-.02283.04401-.06232.03369-.0965-.00171-.01227-.00604-.02283-.01379-.03333-.01471-.01752-.03369-.0307-.05786-.03333-.86255-.12531-1.85114.10785-2.46063.58044-.84265.65417-1.05273,1.89142-.55835,2.9137.03088.06378.01715.14032-.034.18933-.72058.69055-5.82275,4.90875-5.82275,4.90875-.54321.54407-.54321,1.42603.00085,1.96997.54395.54413,1.42596.54413,1.96918,0l4.72919-5.48273c.1839-.16315.40552-.31555.64404-.26038.71826.1662,1.45941.16626,2.04706-.29059.60693-.47089,1.08789-1.38007,1.19574-2.25861.00348-.02448-.00256-.04559-.01721-.06482ZM7,15h-1v-1h1v1ZM6.5,11.00098c.07727,0,.15143-.01154.22559-.02283.42926-.3584.83099-.69434,1.18732-.99329.05249-.15265.0871-.31366.0871-.48389,0-.82715-.67285-1.5-1.5-1.5-.29291,0-.56433.08765-.79547.2334l-2.80286-2.21448c.00238-.00653.00385-.01337.00616-.0199h4.18396c.20679.58124.7569,1.00098,1.4082,1.00098.82715,0,1.5-.67285,1.5-1.5s-.67285-1.5-1.5-1.5c-.65063,0-1.20026.41876-1.40759.99902H2.95239l2.76282-2.22565c.229.14178.49622.2276.78479.2276.82715,0,1.5-.67285,1.5-1.5S7.32715.00195,6.5.00195s-1.5.67285-1.5,1.5c0,.17328.0354.3371.08966.49207l-2.78552,2.24414c-.23285-.14874-.50781-.23767-.80463-.23767C.67108,4.00049-.00049,4.67206-.00049,5.50049s.67157,1.5,1.5,1.5c.27863,0,.53632-.08105.75989-.21338l2.82672,2.23309c-.05182.15179-.08612.31165-.08612.48077,0,.82715.67285,1.5,1.5,1.5ZM6,9h1v1h-1v-1ZM8,5h1v1h-1v-1ZM6,1h1v1h-1v-1Z"/></svg>