<svg xmlns="http://www.w3.org/2000/svg" viewBox="0 0 32 32"><path d="M17 9h-5V8h5v1zm0 5h-5v1h5v-1zm-6-3H6V6h5v5zm-1-4H7v3h3V7zm1 10H6v-5h5v5zm-1-4H7v3h3v-3zm-4 5h5v5H6v-5zm1 4h3v-3H7v3zm23.991-.5a2.495 2.495 0 0 1-4.94.5h-6.102c-.077.381-.25.725-.48 1.022l3.175 2.819A2.484 2.484 0 0 1 24.5 25a2.495 2.495 0 0 1 2.491 2.5 2.495 2.495 0 1 1-4.764-1.028l-3.297-2.927A2.481 2.481 0 0 1 17.5 24c-1.379 0-2.5-1.121-2.5-2.5s1.121-2.5 2.5-2.5c.533 0 1.024.17 1.43.455l3.297-2.927A2.477 2.477 0 0 1 22 15.5a2.495 2.495 0 1 1 4.991 0c0 1.379-1.112 2.5-2.491 2.5-.74 0-1.398-.329-1.856-.84l-3.174 2.818c.23.297.402.64.48 1.022h6.1a2.495 2.495 0 0 1 4.94.5zM23 16a1 1 0 0 0 1 1h1a1 1 0 0 0 1-1v-1a1 1 0 0 0-1-1h-1a1 1 0 0 0-1 1v1zm0 12a1 1 0 0 0 1 1h1a1 1 0 0 0 1-1v-1a1 1 0 0 0-1-1h-1a1 1 0 0 0-1 1v1zm-4-7a1 1 0 0 0-1-1h-1a1 1 0 0 0-1 1v1a1 1 0 0 0 1 1h1a1 1 0 0 0 1-1v-1zm11 0a1 1 0 0 0-1-1h-1a1 1 0 0 0-1 1v1a1 1 0 0 0 1 1h1a1 1 0 0 0 1-1v-1zm-10.999 5H3.999A.999.999 0 0 1 3 25.002V4a1 1 0 0 1 .999-1h15.002A1 1 0 0 1 20 4v12.833l.803-.713a3.649 3.649 0 0 1-.053-.62c0-.464.095-.903.25-1.313V4.007A2.01 2.01 0 0 0 18.999 2H3.998a2.001 2.001 0 0 0-1.989 2.008L2 24.998C2 26.102 2.896 27 3.998 27h15.001c.519 0 .988-.204 1.344-.529l-.763-.677A.975.975 0 0 1 19 26zm-.27-8.041l.269-.238V4H4v21h12c-.567-.213-.876-.558-1.274-1H5V5h13v12.792c.25.034.495.084.732.167zM12 21h1.8c.038-.279.108-.546.2-.803V20h-2v1z" stroke-width="0"/><path stroke-width="0" fill="none" d="M0 0h32v32H0z"/></svg>