<svg xmlns="http://www.w3.org/2000/svg" viewBox="0 0 32 32"><path d="M29.354 9.34 25.5 13.193 21.646 9.34l.708-.707L25 11.279V8c0-1.654-1.346-3-3-3h-2V4h2c2.206 0 4 1.794 4 4v3.28l2.646-2.647zM15.98 14.5c0 1.379-1.101 2.5-2.48 2.5S11 15.879 11 14.5c0-.261.051-.508.126-.745l-4.737-2.636A2.48 2.48 0 0 1 4.5 12C3.121 12 2 10.879 2 9.5S3.121 7 4.5 7c.758 0 1.43.346 1.89.88l4.736-2.635A2.5 2.5 0 0 1 11 4.5C11 3.121 12.121 2 13.5 2s2.48 1.121 2.48 2.5S14.879 7 13.5 7a2.49 2.49 0 0 1-1.89-.88L6.875 8.754c.075.237.126.484.126.745s-.051.508-.126.745l4.737 2.636A2.48 2.48 0 0 1 13.5 12a2.485 2.485 0 0 1 2.48 2.5M12 4.5c0 .827.673 1.5 1.5 1.5S15 5.327 15 4.5 14.327 3 13.5 3 12 3.673 12 4.5m3 10c0-.827-.673-1.5-1.5-1.5s-1.5.673-1.5 1.5.673 1.5 1.5 1.5 1.5-.673 1.5-1.5m14.98 13c0 1.379-1.101 2.5-2.48 2.5S25 28.879 25 27.5c0-.261.051-.508.126-.745l-4.737-2.636A2.48 2.48 0 0 1 18.5 25c-1.379 0-2.5-1.121-2.5-2.5s1.121-2.5 2.5-2.5c.758 0 1.43.346 1.89.88l4.736-2.635A2.5 2.5 0 0 1 25 17.5c0-1.379 1.121-2.5 2.5-2.5s2.48 1.121 2.48 2.5A2.49 2.49 0 0 1 28 19.95v5.1a2.49 2.49 0 0 1 1.98 2.45M26 17.5c0 .827.673 1.5 1.5 1.5s1.5-.673 1.5-1.5-.673-1.5-1.5-1.5-1.5.673-1.5 1.5m-.39 8.38a2.5 2.5 0 0 1 1.39-.83v-5.1a2.5 2.5 0 0 1-1.39-.83l-4.736 2.635c.075.237.126.484.126.745s-.051.508-.126.745l4.737 2.636zM29 27.5c0-.827-.673-1.5-1.5-1.5s-1.5.673-1.5 1.5.673 1.5 1.5 1.5 1.5-.673 1.5-1.5"/><path fill="none" d="M0 0h32v32H0z"/></svg>