<svg xmlns="http://www.w3.org/2000/svg" viewBox="0 0 24 24"><path d="M12.99 14.5c0-1.379-1.111-2.5-2.49-2.5-.569 0-1.088.198-1.508.52l-3.32-2.805c.124-.222.225-.458.277-.715h5.102a2.494 2.494 0 0 0 4.94-.5 2.494 2.494 0 0 0-4.94-.5H5.949a2.5 2.5 0 0 0-.246-.657l3.28-2.87C9.405 4.8 9.927 5 10.5 5c1.379 0 2.49-1.121 2.49-2.5S11.879 0 10.5 0 8 1.121 8 2.5c0 .444.126.855.33 1.217L5.07 6.57C4.64 6.22 4.097 6 3.5 6 2.121 6 1 7.121 1 8.5S2.121 11 3.5 11c.574 0 1.097-.202 1.519-.528l3.316 2.801A2.47 2.47 0 0 0 8 14.5c0 1.379 1.121 2.5 2.5 2.5s2.49-1.121 2.49-2.5M12 8a1 1 0 0 1 1-1h1a1 1 0 0 1 1 1v1a1 1 0 0 1-1 1h-1a1 1 0 0 1-1-1zM9 2a1 1 0 0 1 1-1h1a1 1 0 0 1 1 1v1a1 1 0 0 1-1 1h-1a1 1 0 0 1-1-1zm0 13v-1a1 1 0 0 1 1-1h1a1 1 0 0 1 1 1v1a1 1 0 0 1-1 1h-1a1 1 0 0 1-1-1m14.706-2.708a.59.59 0 0 0-.652.058l-1.71 1.329-.63-.47-.309-.787 1.638-1.281a.6.6 0 0 0 .31-.603c-.032-.243-.217-.437-.508-.5-1.024-.145-2.102.11-2.823.667-.959.744-1.278 2.108-.808 3.318-1.204 1.03-7.637 6.527-7.663 6.551a1.993 1.993 0 0 0 0 2.815 1.99 1.99 0 0 0 2.834-.021l6.662-7.488.058.012c1.01.246 1.85.118 2.494-.384.724-.56 1.273-1.588 1.401-2.622a.61.61 0 0 0-.294-.594m-1.72 2.426c-.392.305-.943.375-1.655.2l-.136-.033c-.194-.078-.488-.102-.785.206q-.014.013-6.752 7.59a1.01 1.01 0 0 1-1.4 0c-.385-.385-.386-1.014-.029-1.373 7.814-6.676 7.834-6.696 7.856-6.714a.67.67 0 0 0 .134-.767c-.41-.847-.235-1.827.417-2.332a2.4 2.4 0 0 1 .85-.4l-.864.67a.71.71 0 0 0-.228.818l.434 1.105a1 1 0 0 0 .088.146l1.009.78a.7.7 0 0 0 .855-.009l.825-.64a2.5 2.5 0 0 1-.619.753M12 21h1v1h-1z"/><path fill="none" d="M0 0h24v24H0z"/></svg>