<?xml version="1.0" encoding="UTF-8"?><svg id="icons" xmlns="http://www.w3.org/2000/svg" viewBox="0 0 32 32"><defs><style>.cls-1{fill:none;}</style></defs><path d="M6.99,9.5c0,1.37891-1.11109,2.5-2.49,2.5s-2.5-1.12109-2.5-2.5,1.12109-2.5,2.5-2.5,2.49,1.12109,2.49,2.5ZM29.99,27.5c0,1.37891-1.11109,2.5-2.49,2.5s-2.5-1.12109-2.5-2.5c0-.26123.05145-.5083.12604-.74512l-4.73676-2.6358c-.4588.53461-1.13092.88092-1.88928.88092-1.37891,0-2.5-1.12109-2.5-2.5s1.12109-2.5,2.5-2.5c.75836,0,1.43048.34631,1.88928.88092l4.73676-2.6358c-.07458-.23682-.12604-.48389-.12604-.74512,0-1.37891,1.12109-2.5,2.5-2.5s2.49,1.12109,2.49,2.5c0,1.20764-.85005,2.21722-1.99,2.44946v5.10107c1.13995.23224,1.99,1.24182,1.99,2.44946ZM26,17.5c0,.82715.67285,1.5,1.5,1.5s1.5-.67285,1.5-1.5-.67285-1.5-1.5-1.5-1.5.67285-1.5,1.5ZM25.61072,25.88092c.35522-.41388.83502-.71747,1.38928-.83038v-5.10107c-.55426-.11292-1.03406-.4165-1.38928-.83038l-4.73676,2.6358c.07458.23682.12604.48389.12604.74512s-.05145.5083-.12604.74512l4.73676,2.6358ZM29,27.5c0-.82715-.67285-1.5-1.5-1.5s-1.5.67285-1.5,1.5.67285,1.5,1.5,1.5,1.5-.67285,1.5-1.5ZM15.99,14.5c0,1.37891-1.11109,2.5-2.49,2.5s-2.49-1.12109-2.49-2.5c0-1.20764.85005-2.21722,1.99-2.44946v-5.10107c-1.13995-.23224-2-1.24182-2-2.44946,0-1.37891,1.12109-2.5,2.5-2.5s2.49,1.12109,2.49,2.5c0,1.20764-.85005,2.21722-1.99,2.44946v5.10107c1.13995.23224,1.99,1.24182,1.99,2.44946ZM13.5,6c.82715,0,1.5-.67285,1.5-1.5s-.67285-1.5-1.5-1.5-1.5.67285-1.5,1.5.67285,1.5,1.5,1.5ZM15,14.5c0-.82715-.67285-1.5-1.5-1.5s-1.5.67285-1.5,1.5.67285,1.5,1.5,1.5,1.5-.67285,1.5-1.5ZM25,8v3.2793l-2.64648-2.64648-.70703.70703,3.85352,3.85352,3.85352-3.85352-.70703-.70703-2.64648,2.64648v-3.2793c0-2.20605-1.79395-4-4-4h-2v1h2c1.6543,0,3,1.3457,3,3Z"/><rect class="cls-1" width="32" height="32"/></svg>