<?xml version="1.0" encoding="UTF-8"?><svg id="icons" xmlns="http://www.w3.org/2000/svg" viewBox="0 0 24 24"><defs><style>.cls-1{fill:none;}</style></defs><path d="M19,2c-1.6543,0-3,1.3457-3,3h-8c0-1.6543-1.3457-3-3-3s-3,1.3457-3,3c0,1.30194.8385,2.40155,2,2.81567v8.35345c-.36133.12836-.69751.32629-.99316.58868-.59961.53223-.95508,1.2666-1.00195,2.06641s.21973,1.57031.75293,2.16895c.53223.59961,1.2666.95508,2.06641,1.00195.06055.00391.12012.00488.17969.00488.73535,0,1.43555-.26562,1.98926-.75781.59961-.53223.95508-1.2666,1.00195-2.06641.04028-.68695-.16333-1.34515-.55579-1.89856l9.82776-9.83704c.49048.34937,1.08618.55981,1.73291.55981,1.6543,0,2.99-1.3457,2.99-3s-1.3357-3-2.99-3ZM6.73987,16.56256c-.45544-.32648-.99127-.52411-1.56409-.55768-.05963-.00372-.1167.00659-.17578.00635v-8.01123c1.30194,0,2.40161-.8385,2.81573-2h8.36859c.09369.26276.21655.50989.37573.73322l-9.82019,9.82935ZM19,7c-1.10254,0-2-.89746-2-2s.89746-2,2-2,2,.89746,2,2-.89746,2-2,2ZM23,14v3h-3v-1h1.1897c-.66608-1.07385-1.83405-1.7998-3.1897-1.7998-2.0957,0-3.7998,1.70459-3.7998,3.7998h-1.00018c0-2.64679,2.15271-4.79999,4.79999-4.79999,1.68414,0,3.14722.88361,4,2.20099v-1.401h1ZM18,21.7998c-1.35651,0-2.52826-.72583-3.19629-1.7998h1.19629v-1h-3v3h1v-1.38367c.85516,1.30994,2.32147,2.18365,4,2.18365,2.64728,0,4.79999-2.15326,4.79999-4.79999h-1.00018c0,2.09521-1.7041,3.7998-3.7998,3.7998Z"/><rect class="cls-1" width="24" height="24"/></svg>