<svg xmlns="http://www.w3.org/2000/svg" viewBox="0 0 16 16"><path d="M14.176 4 12.5 6.058 10.824 4H12v-.5c0-.827-.673-1.5-1.5-1.5H10V1h.5C11.878 1 13 2.121 13 3.5V4zM1.5 5C.673 5 0 5.673 0 6.5S.673 8 1.5 8 3 7.327 3 6.5 2.327 5 1.5 5m5-5C5.673 0 5 .673 5 1.5S5.673 3 6.5 3 8 2.327 8 1.5 7.327 0 6.5 0M16 14.5c0 .827-.673 1.5-1.5 1.5-.652 0-1.202-.42-1.409-1.003V15H9.909c-.207.58-.757 1-1.408 1a1.501 1.501 0 0 1-.001-3c.23 0 .447.057.643.15l1.007-1.007.002.003A1.5 1.5 0 0 1 10 11.5c0-.827.673-1.5 1.5-1.5.232 0 .45.058.646.152l-.003-.002 1.007-1.007A1.5 1.5 0 0 1 13 8.5c0-.827.673-1.5 1.5-1.5s1.5.673 1.5 1.5a1.5 1.5 0 0 1-1 1.408v3.184h-.003A1.5 1.5 0 0 1 16 14.5M11 12h1v-1h-1zm3.003 1.091H14V9.909a2 2 0 0 1-.143-.058l-1.007 1.007-.002-.003c.094.196.152.414.152.646 0 .827-.673 1.5-1.5 1.5a1.5 1.5 0 0 1-.646-.152l.003.002-1.007 1.007q.032.07.058.143h3.184v.003c.15-.426.485-.76.91-.912zM15 14h-1v1h1z"/><path fill="none" d="M0 0h16v16H0z"/></svg>