<svg xmlns="http://www.w3.org/2000/svg" viewBox="0 0 24 24"><path d="M3 6.9C1.4 6.9.1 5.6.1 4S1.4 1.1 3 1.1 5.9 2.4 5.9 4 4.6 6.9 3 6.9zM3 2c-1.103 0-2 .897-2 2s.897 2 2 2 2-.897 2-2-.897-2-2-2zm18.5 12.1a2.402 2.402 0 0 0-2.346 1.9h-4.308a2.38 2.38 0 0 0-.484-.995l2.27-2.016c.44.55 1.11.911 1.868.911 1.324 0 2.4-1.076 2.4-2.4s-1.076-2.4-2.4-2.4-2.4 1.076-2.4 2.4c0 .29.06.565.154.822l-2.445 2.171A2.383 2.383 0 0 0 12.5 14.1c-1.324 0-2.4 1.076-2.4 2.4s1.076 2.4 2.4 2.4c.483 0 .932-.146 1.31-.393l2.444 2.17a2.375 2.375 0 0 0-.154.823c0 1.324 1.076 2.4 2.4 2.4s2.4-1.076 2.4-2.4-1.076-2.4-2.4-2.4c-.759 0-1.428.36-1.868.911l-2.27-2.016c.231-.287.404-.622.484-.995h4.308a2.402 2.402 0 0 0 2.346 1.9c1.324 0 2.4-1.076 2.4-2.4s-1.076-2.4-2.4-2.4zM17 11a1 1 0 0 1 1-1h1a1 1 0 0 1 1 1v1a1 1 0 0 1-1 1h-1a1 1 0 0 1-1-1v-1zm0 10a1 1 0 0 1 1-1h1a1 1 0 0 1 1 1v1a1 1 0 0 1-1 1h-1a1 1 0 0 1-1-1v-1zm-5-3a1 1 0 0 1-1-1v-1a1 1 0 0 1 1-1h1a1 1 0 0 1 1 1v1a1 1 0 0 1-1 1h-1zm11-1a1 1 0 0 1-1 1h-1a1 1 0 0 1-1-1v-1a1 1 0 0 1 1-1h1a1 1 0 0 1 1 1v1zm-8.354-9.354L13 9.293V7c0-1.654-1.346-3-3-3H8v1h2c1.103 0 2 .897 2 2v2.281l-1.634-1.635-.707.708 2.847 2.847 2.848-2.847-.708-.708z"/><path fill="none" d="M0 0h24v24H0z"/></svg>