<svg xmlns="http://www.w3.org/2000/svg" viewBox="0 0 24 24"><path d="M19 14.05V5c1.103 0 2-.897 2-2s-.897-2-2-2-1.99.897-1.99 2c0 .37.098.712.274 1.01l-3.471 3.47A4.47 4.47 0 0 0 10.5 6a4.496 4.496 0 0 0-4.49 4.5c0 1.315.567 2.49 1.47 3.313l-3.47 3.47A2 2 0 0 0 3 17c-1.103 0-1.99.897-1.99 2s.887 2 1.99 2 2-.897 2-2h9.05c.253 2.244 2.14 4 4.45 4 2.481 0 4.5-2.019 4.5-4.5 0-2.31-1.756-4.197-4-4.45M17 18a1 1 0 0 1 1-1h1a1 1 0 0 1 1 1v1a1 1 0 0 1-1 1h-1a1 1 0 0 1-1-1zm-.95 0h-1A3.49 3.49 0 0 1 18 15.05v1A2.51 2.51 0 0 0 16.05 18M14 10.5c0 1.93-1.57 3.5-3.5 3.5a3.5 3.5 0 0 1-1.462-.33l.777-.777c.219.063.446.107.685.107 1.379 0 2.5-1.121 2.5-2.5 0-.24-.044-.466-.107-.685l.776-.777c.207.446.331.938.331 1.462M9 11v-1a1 1 0 0 1 1-1h1a1 1 0 0 1 1 1v1a1 1 0 0 1-1 1h-1a1 1 0 0 1-1-1m-2-.5C7 8.57 8.57 7 10.5 7c1.04 0 1.964.465 2.606 1.187l-.706.706A2.48 2.48 0 0 0 10.5 8 2.5 2.5 0 0 0 8 10.5c0 .764.352 1.44.893 1.9l-.706.706A3.48 3.48 0 0 1 7 10.5M4.722 18l-.006-.01 3.588-3.587A4.45 4.45 0 0 0 10.5 15a4.496 4.496 0 0 0 4.49-4.5c0-.801-.218-1.544-.587-2.196l3.588-3.588.009.006v9.329A4.48 4.48 0 0 0 14.05 18zM18.5 22c-1.758 0-3.204-1.308-3.45-3h1a2.494 2.494 0 0 0 4.94-.5c0-1.208-.85-2.217-1.99-2.45v-1c1.692.246 3 1.692 3 3.45 0 1.93-1.57 3.5-3.5 3.5"/><path fill="none" d="M0 0h24v24H0z"/></svg>