<?xml version="1.0" encoding="UTF-8"?><svg id="icons" xmlns="http://www.w3.org/2000/svg" viewBox="0 0 24 24"><defs><style>.cls-1{fill:none;}</style></defs><path d="M19,14.05054V5c1.10254,0,2-.89746,2-2s-.89746-2-2-2-1.99.89746-1.99,2c0,.36969.09779.71198.27351,1.00946l-3.47052,3.47052c-.82355-.90277-1.99756-1.47998-3.31299-1.47998-2.48145,0-4.48999,2.01855-4.48999,4.5,0,1.31543.5672,2.48944,1.46997,3.31299l-3.47052,3.47052c-.29749-.17572-.63977-.28351-1.00946-.28351-1.10254,0-1.99.89746-1.99,2s.88746,2,1.99,2,2-.89746,2-2h9.05054c.25244,2.24384,2.13922,4,4.44946,4,2.48145,0,4.5-2.01855,4.5-4.5,0-2.31024-1.75616-4.19702-4-4.44946ZM17,18c0-.55231.44769-1,1-1h1c.55231,0,1,.44769,1,1v1c0,.55225-.44769,1-1,1h-1c-.55231,0-1-.44775-1-1v-1ZM16.05054,18h-1c.22137-1.52692,1.42255-2.72809,2.94946-2.94946v1c-.97833.19934-1.75012.97113-1.94946,1.94946ZM14,10.5c0,1.92969-1.57031,3.5-3.5,3.5-.52356,0-1.01587-.12366-1.46234-.33063l.77686-.77686c.21924.06305.44617.10748.68549.10748,1.37891,0,2.5-1.12109,2.5-2.5,0-.23932-.04443-.46625-.10748-.68549l.77686-.77686c.20697.44647.33063.93878.33063,1.46234ZM9,11v-1c0-.55231.44769-1,1-1h1c.55231,0,1,.44769,1,1v1c0,.55225-.44769,1-1,1h-1c-.55231,0-1-.44775-1-1ZM7,10.5c0-1.92969,1.57031-3.5,3.5-3.5,1.03955,0,1.96448.46478,2.60608,1.18689l-.70654.70654c-.45886-.54175-1.13531-.89343-1.89954-.89343-1.37891,0-2.5,1.12109-2.5,2.5,0,.76422.35168,1.44067.89343,1.89954l-.70654.70654c-.72211-.6416-1.18689-1.56653-1.18689-2.60608ZM4.72168,18c-.00177-.00311-.00336-.00635-.00519-.00946l3.58722-3.58722c.65253.36871,1.39484.59668,2.19629.59668,2.48145,0,4.48999-2.01855,4.48999-4.5,0-.80145-.21796-1.54376-.58667-2.19629l3.58722-3.58722c.00311.00183.00635.00342.00946.00519v9.32886c-2.07751.2337-3.71576,1.87195-3.94946,3.94946H4.72168ZM18.5,22c-1.75848,0-3.20422-1.30835-3.44946-3h1c.23224,1.13995,1.24182,2,2.44946,2,1.37891,0,2.49-1.12109,2.49-2.5,0-1.20764-.85005-2.21722-1.99-2.44946v-1c1.69165.24524,3,1.69098,3,3.44946,0,1.92969-1.57031,3.5-3.5,3.5Z"/><rect class="cls-1" width="24" height="24"/></svg>