<svg xmlns="http://www.w3.org/2000/svg" viewBox="0 0 32 32"><path d="M5 2.1C3.4 2.1 2.1 3.4 2.1 5S3.4 7.9 5 7.9 7.9 6.6 7.9 5 6.6 2.1 5 2.1zM5 7c-1.103 0-2-.897-2-2s.897-2 2-2 2 .897 2 2-.897 2-2 2zm23.5 12.1a2.402 2.402 0 0 0-2.346 1.9h-6.308a2.378 2.378 0 0 0-.45-.956l3.322-2.95a2.39 2.39 0 0 0 1.782.806c1.324 0 2.4-1.076 2.4-2.4s-1.076-2.4-2.4-2.4-2.4 1.076-2.4 2.4c0 .342.074.665.203.96l-3.448 3.062A2.385 2.385 0 0 0 17.5 19.1c-1.324 0-2.4 1.076-2.4 2.4s1.076 2.4 2.4 2.4c.503 0 .969-.157 1.355-.422l3.448 3.062a2.386 2.386 0 0 0-.203.96c0 1.324 1.076 2.4 2.4 2.4s2.4-1.076 2.4-2.4-1.076-2.4-2.4-2.4c-.71 0-1.342.315-1.782.807l-3.323-2.951c.215-.279.375-.6.45-.956h6.309a2.402 2.402 0 0 0 2.346 1.9c1.324 0 2.4-1.076 2.4-2.4s-1.076-2.4-2.4-2.4zM23 15a1 1 0 0 1 1-1h1a1 1 0 0 1 1 1v1a1 1 0 0 1-1 1h-1a1 1 0 0 1-1-1v-1zm1 11h1a1 1 0 0 1 1 1v1a1 1 0 0 1-1 1h-1a1 1 0 0 1-1-1v-1a1 1 0 0 1 1-1zm-7-3a1 1 0 0 1-1-1v-1a1 1 0 0 1 1-1h1a1 1 0 0 1 1 1v1a1 1 0 0 1-1 1h-1zm13-1a1 1 0 0 1-1 1h-1a1 1 0 0 1-1-1v-1a1 1 0 0 1 1-1h1a1 1 0 0 1 1 1v1zm-15-7.72V11c0-1.654-1.346-3-3-3h-2V7h2c2.206 0 4 1.794 4 4v3.28l2.646-2.647.708.707-3.854 3.853-3.854-3.853.708-.707L15 14.279z"/><path fill="none" d="M0 0h32v32H0z"/></svg>