<?xml version="1.0" encoding="UTF-8"?><svg id="icons" xmlns="http://www.w3.org/2000/svg" viewBox="0 0 24 24"><defs><style>.cls-1{fill:none;}</style></defs><path d="M17.5,1c-2.86346,0-5.22083,2.20142-5.47467,5H3v1h9.02533c.25385,2.79858,2.61121,5,5.47467,5,3.03223,0,5.5-2.46777,5.5-5.5s-2.46777-5.5-5.5-5.5ZM17.5,11c-2.31024,0-4.19702-1.75616-4.44946-4h2c.23224,1.13995,1.24182,2,2.44946,2,1.37891,0,2.49-1.12109,2.49-2.5s-1.11109-2.5-2.49-2.5c-1.20764,0-2.21722.86005-2.44946,2h-2c.25244-2.24384,2.13922-4,4.44946-4,2.48145,0,4.5,2.01855,4.5,4.5s-2.01855,4.5-4.5,4.5ZM16,7v-1c0-.55231.44769-1,1-1h1c.55231,0,1,.44769,1,1v1c0,.55225-.44769,1-1,1h-1c-.55231,0-1-.44775-1-1ZM10.85358,13.85358l-4.14642,4.14642,4.14642,4.14648-.70715.70709-4.14642-4.14648-4.14648,4.14642-.70715-.70709,4.14648-4.14642L1.14642,13.85352l.70715-.70715,4.14642,4.14648,4.14648-4.14642.70709.70715Z"/><rect class="cls-1" width="24" height="24"/></svg>