<?xml version="1.0" encoding="UTF-8"?><svg id="icons" xmlns="http://www.w3.org/2000/svg" viewBox="0 0 24 24"><defs><style>.cls-1{fill:none;}</style></defs><path d="M11.94586,8l3.41382-2.60602c-.22198-.41846-.35968-.88818-.35968-1.39398,0-1.6543,1.3457-3,3-3s2.98999,1.3457,2.98999,3-1.33569,3-2.98999,3c-.78754,0-1.49945-.31134-2.03522-.80939l-2.37018,1.80939h-1.64874ZM9.5,8c.35596,0,.6933.07715,1,.21173.3067-.13458.64404-.21173,1-.21173h.44171c-.63135-.61664-1.4917-1-2.44171-1-.68121,0-1.31252.20367-1.85089.54181l-1.3689-1.61505c.44244-.52283.71979-1.18976.71979-1.92676,0-1.6543-1.3457-3-3-3s-3,1.3457-3,3,1.3457,3,3,3c.55566,0,1.07013-.16205,1.51685-.42639l1.37225,1.61908c-.54645.61768-.8891,1.41986-.8891,2.30731,0,1.04919.47375,1.98114,1.20758,2.62323l-2.02032,3.12402c-.36456-.15784-.76532-.24725-1.18726-.24725-1.6543,0-3,1.3457-3,3s1.3457,3,3,3,2.98999-1.3457,2.98999-3c0-.87299-.37103-1.65295-.96814-2.20166l2.02148-3.12585c.29797.13751.62225.21899.95667.2702v-.99323c-1.13995-.23224-2-1.24182-2-2.44946,0-1.37891,1.12109-2.5,2.5-2.5ZM23,10.5v11c0,.82715-.67285,1.5-1.5,1.5h-10c-.82715,0-1.5-.67285-1.5-1.5v-11c0-.82715.67285-1.5,1.5-1.5h10c.82715,0,1.5.67285,1.5,1.5ZM22,10.5c0-.27539-.22461-.5-.5-.5h-10c-.27539,0-.5.22461-.5.5v11c0,.27539.22461.5.5.5h10c.27539,0,.5-.22461.5-.5v-11ZM21,17v3c0,.55225-.44769,1-1,1h-1c-.55231,0-1-.44775-1-1v-3c0-.55231.44769-1,1-1h1c.55231,0,1,.44769,1,1ZM20,17h-1v3h1v-3ZM12,11h9v4h-9v-4ZM13,14h7v-2h-7v2ZM16.27271,16h-.54541c-.40167,0-.72729.32562-.72729.72723v.54547c0,.40167.32562.72729.72729.72729h.54541c.40167,0,.72729-.32562.72729-.72729v-.54547c0-.40161-.32562-.72723-.72729-.72723ZM16.27271,19h-.54541c-.40167,0-.72729.32562-.72729.72723v.54547c0,.40167.32562.72729.72729.72729h.54541c.40167,0,.72729-.32562.72729-.72729v-.54547c0-.40161-.32562-.72723-.72729-.72723ZM13.27271,16h-.54541c-.40167,0-.72729.32562-.72729.72723v.54547c0,.40167.32562.72729.72729.72729h.54541c.40167,0,.72729-.32562.72729-.72729v-.54547c0-.40161-.32562-.72723-.72729-.72723ZM13.27271,19h-.54541c-.40167,0-.72729.32562-.72729.72723v.54547c0,.40167.32562.72729.72729.72729h.54541c.40167,0,.72729-.32562.72729-.72729v-.54547c0-.40161-.32562-.72723-.72729-.72723Z"/><rect class="cls-1" width="24" height="24"/></svg>