<?xml version="1.0" encoding="UTF-8"?><svg id="icons" xmlns="http://www.w3.org/2000/svg" viewBox="0 0 16 16"><defs><style>.cls-1{fill:none;}</style></defs><path d="M11.99054,4.71649c.29749.17572.63977.28351,1.00946.28351,1.10254,0,2-.89746,2-2s-.89746-2-2-2c-.73669,0-1.37469.40521-1.72168,1h-6.55664c-.34698-.59479-.98499-1-1.72168-1-1.10254,0-1.98999.89746-1.98999,2,0,.73669.3952,1.37469.98999,1.72168v6.55664c-.59479.34698-1,.98499-1,1.72168,0,1.10254.89746,2,2,2s2-.89746,2-2c0-.36969-.10779-.71198-.28351-1.00946l7.27405-7.27405ZM12,2.5c0-.27618.22388-.5.5-.5h1c.27612,0,.5.22382.5.5v1c0,.27612-.22388.5-.5.5h-1c-.27612,0-.5-.22388-.5-.5v-1ZM4.00946,11.28351c-.29749-.17572-.63977-.28351-1.00946-.28351v-6c1.10254,0,2-.89746,2-2h6c0,.36969.10779.71198.28351,1.00946l-7.27405,7.27405ZM16,6.89996v3.10004h-3.09998l1.15729-1.15729c-.40887-.38934-.94806-.64203-1.55731-.64203-1.09631,0-2.01208.77161-2.24146,1.79932h-1.008c.24329-1.58112,1.60101-2.7995,3.24945-2.7995.88647,0,1.68042.35858,2.26752.93195l1.23248-1.23248ZM14.74146,11h1.008c-.24329,1.58105-1.60101,2.7995-3.24945,2.7995-.88635,0-1.67896-.36011-2.26642-.93311l-1.23358,1.23358v-3.09998h3.09998l-1.16412,1.16412c.40948.3894.95477.63519,1.56415.63519,1.09631,0,2.01208-.77161,2.24146-1.79932Z"/><rect class="cls-1" width="16" height="16"/></svg>