<?xml version="1.0" encoding="UTF-8"?><svg id="icons" xmlns="http://www.w3.org/2000/svg" viewBox="0 0 32 32"><defs><style>.cls-1{fill:none;}</style></defs><path d="M8.33984,21.64648l3.85352,3.85352-3.85352,3.85352-.70703-.70703,2.64648-2.64648h-3.2793c-2.20605,0-4-1.79395-4-4v-2h1v2c0,1.6543,1.3457,3,3,3h3.2793l-2.64648-2.64648.70703-.70703ZM30,19c0,1.07874-.86066,1.95538-1.93042,1.99298l-1.16321,5.23444c.64594.33203,1.09363.99792,1.09363,1.77258,0,1.10254-.89746,2-2,2-1.0144,0-1.84607-.76251-1.974-1.74268l-4.17053-.5213c-.29425.73871-1.01331,1.26398-1.85547,1.26398-1.10254,0-2-.89746-2-2,0-.81226.48883-1.51007,1.18622-1.82288l-.36914-2.19562c-1.01587-.09406-1.81708-.94159-1.81708-1.98151,0-1.10254.89746-2,2-2,.3689,0,.71045.10742,1.00751.28241l2.27832-2.26855c-.17725-.2984-.28583-.6424-.28583-1.01385,0-1.10254.89746-2,2-2s2,.89746,2,2c0,.14648-.01794.28845-.04803.42609l2.5462,1.26752c.367-.42133.90076-.6936,1.50183-.6936,1.10254,0,2,.89746,2,2ZM22.80951,17.8252l.36609,2.19257c.47473.04218.90417.24225,1.22565.55872l1.68939-1.01367c-.05322-.17975-.09064-.36609-.09064-.56281,0-.1424.01611-.28082.04456-.41486l-2.55005-1.2699c-.18951.21509-.41986.39178-.685.50995ZM22.5,21c-.27612,0-.5.22382-.5.5v1c0,.27612.22388.5.5.5h1c.27612,0,.5-.22388.5-.5v-1c0-.27618-.22388-.5-.5-.5h-1ZM18.71552,19.98871c.14771.24951.23975.53235.26672.83582l2.19305.36499c.20105-.45044.56287-.81232,1.01318-1.01361l-.36646-2.19391c-.30005-.02704-.57959-.11774-.82697-.263l-2.27954,2.26971ZM17.5,22c.27612,0,.5-.22388.5-.5v-1c0-.27618-.22388-.5-.5-.5h-1c-.27612,0-.5.22382-.5.5v1c0,.27612.22388.5.5.5h1ZM21.28888,23.01941c-.15021-.25104-.24359-.53638-.271-.84247l-2.19391-.36511c-.20209.4519-.56555.81494-1.01825,1.01544l.36829,2.19031c.30481.02686.58875.11932.83917.26794l2.2757-2.26611ZM24.69604,26.49622l-1.26294-2.54645c-.13983.03113-.284.05023-.43311.05023-.36969,0-.71198-.10779-1.00946-.28351l-2.27405,2.27405c.13385.22656.22192.47998.25745.75208l4.17059.52142c.11945-.29993.31158-.55945.55151-.76782ZM26.5,27h-1c-.27612,0-.5.22382-.5.5v1c0,.27612.22388.5.5.5h1c.27612,0,.5-.22388.5-.5v-1c0-.27618-.22388-.5-.5-.5ZM27.09363,20.77258c-.18152-.09326-.35065-.20703-.49475-.34894l-1.68939,1.01373c.05316.17969.09052.36597.09052.56262,0,.60004-.27124,1.133-.69128,1.49994l1.27301,2.54565c.11273-.02411.22992-.03442.34869-.03857l1.16321-5.23444ZM5.94946,11c-.05145.25244-.15051.48511-.27191.70374l3.26508,2.85608c.42859-.34473.96558-.55981,1.55737-.55981,1.37891,0,2.48999,1.12109,2.48999,2.5s-1.11108,2.5-2.48999,2.5-2.5-1.12109-2.5-2.5c0-.42517.11652-.8197.30438-1.17053l-3.27606-2.8653c-.42389.33063-.95007.53583-1.52832.53583-1.37891,0-2.5-1.12109-2.5-2.5s1.12109-2.5,2.5-2.5c.5744,0,1.09753.20239,1.52008.52905l3.28845-2.85095c-.19043-.35266-.30853-.74982-.30853-1.1781,0-1.37891,1.12109-2.5,2.5-2.5s2.48999,1.12109,2.48999,2.5-1.11108,2.5-2.48999,2.5c-.58856,0-1.12292-.21271-1.55042-.55408l-3.27679,2.84155c.1239.22107.22455.45673.27667.71252h6.10107c.23224-1.13995,1.24182-2,2.44946-2,1.37891,0,2.48999,1.12109,2.48999,2.5s-1.11108,2.5-2.48999,2.5c-1.20764,0-2.21722-.86005-2.44946-2h-6.10107ZM13,11c0,.55225.44769,1,1,1h1c.55231,0,1-.44775,1-1v-1c0-.55231-.44769-1-1-1h-1c-.55231,0-1,.44769-1,1v1ZM9,5c0,.55225.44769,1,1,1h1c.55231,0,1-.44775,1-1v-1c0-.55231-.44769-1-1-1h-1c-.55231,0-1,.44769-1,1v1ZM9,17c0,.55225.44769,1,1,1h1c.55231,0,1-.44775,1-1v-1c0-.55231-.44769-1-1-1h-1c-.55231,0-1,.44769-1,1v1Z"/><rect class="cls-1" width="32" height="32"/></svg>