<svg xmlns="http://www.w3.org/2000/svg" viewBox="0 0 24 24"><path d="m11.946 8 3.414-2.606A2.96 2.96 0 0 1 15 4c0-1.654 1.346-3 3-3s2.99 1.346 2.99 3S19.654 7 18 7a2.98 2.98 0 0 1-2.035-.81L13.595 8zM9.5 8c.356 0 .693.077 1 .212a2.5 2.5 0 0 1 1-.212h.442A3.5 3.5 0 0 0 9.5 7c-.681 0-1.313.204-1.85.542L6.28 5.927A2.97 2.97 0 0 0 7 4c0-1.654-1.346-3-3-3S1 2.346 1 4s1.346 3 3 3a2.97 2.97 0 0 0 1.517-.426l1.372 1.619A3.47 3.47 0 0 0 6 10.5c0 1.05.474 1.981 1.208 2.623l-2.02 3.124A3 3 0 0 0 4 16c-1.654 0-3 1.346-3 3s1.346 3 3 3 2.99-1.346 2.99-3c0-.873-.371-1.653-.968-2.202l2.021-3.126c.298.138.623.22.957.27v-.993A2.5 2.5 0 0 1 7 10.5C7 9.121 8.121 8 9.5 8M23 10.5v11c0 .827-.673 1.5-1.5 1.5h-10c-.827 0-1.5-.673-1.5-1.5v-11c0-.827.673-1.5 1.5-1.5h10c.827 0 1.5.673 1.5 1.5m-1 0c0-.275-.225-.5-.5-.5h-10c-.275 0-.5.225-.5.5v11c0 .275.225.5.5.5h10c.275 0 .5-.225.5-.5zM21 17v3a1 1 0 0 1-1 1h-1a1 1 0 0 1-1-1v-3a1 1 0 0 1 1-1h1a1 1 0 0 1 1 1m-1 0h-1v3h1zm-8-6h9v4h-9zm1 3h7v-2h-7zm3.273 2h-.546a.727.727 0 0 0-.727.727v.546c0 .401.326.727.727.727h.546a.727.727 0 0 0 .727-.727v-.546a.727.727 0 0 0-.727-.727m0 3h-.546a.727.727 0 0 0-.727.727v.546c0 .401.326.727.727.727h.546a.727.727 0 0 0 .727-.727v-.546a.727.727 0 0 0-.727-.727m-3-3h-.546a.727.727 0 0 0-.727.727v.546c0 .401.326.727.727.727h.546a.727.727 0 0 0 .727-.727v-.546a.727.727 0 0 0-.727-.727m0 3h-.546a.727.727 0 0 0-.727.727v.546c0 .401.326.727.727.727h.546a.727.727 0 0 0 .727-.727v-.546a.727.727 0 0 0-.727-.727"/><path fill="none" d="M0 0h24v24H0z"/></svg>