<?xml version="1.0" encoding="UTF-8"?><svg id="icons" xmlns="http://www.w3.org/2000/svg" viewBox="0 0 24 24"><defs><style>.cls-1{fill:none;}</style></defs><path d="M21.35352,6.35352l-2.84766,2.84766-2.84668-2.84766.70703-.70703,1.63379,1.63452v-2.28101c0-1.10254-.89746-2-2-2h-2v-1h2c1.6543,0,2.99,1.3457,2.99,3l.01,2.29297,1.64648-1.64648.70703.70703ZM3,8c-1.10254,0-1.98.89746-1.98,2s.87746,2,1.98,2,2-.89746,2-2-.89746-2-2-2ZM10,1c-1.10254,0-1.98.89746-1.98,2s.87746,2,1.98,2,2-.89746,2-2-.89746-2-2-2ZM23,21c0,1.10254-.89746,2-2,2-.73669,0-1.37469-.40521-1.72168-1h-4.55664c-.34698.59479-.98499,1-1.72168,1-1.10254,0-1.98-.89746-1.98-2s.87746-2,1.98-2c.36969,0,.71198.10779,1.00946.28351l1.27405-1.27405c-.17572-.29749-.26351-.63977-.26351-1.00946,0-1.10254.87746-2,1.98-2,.36969,0,.71198.10779,1.00946.28351l1.27405-1.27405c-.17572-.29749-.26351-.63977-.26351-1.00946,0-1.10254.87746-2,1.98-2s2,.89746,2,2c0,.73669-.40521,1.37469-1,1.72168v4.55664c.59479.34698,1,.98499,1,1.72168ZM16,17.5c0,.27612.22388.5.5.5h1c.27612,0,.5-.22388.5-.5v-1c0-.27618-.22388-.5-.5-.5h-1c-.27612,0-.5.22382-.5.5v1ZM21,19v-4c-.36969,0-.71198-.10779-1.00946-.28351l-1.27405,1.27405c.17572.29749.28351.63977.28351,1.00946,0,1.10254-.89746,2-2,2-.36969,0-.71198-.10779-1.00946-.28351l-1.27405,1.27405c.17572.29749.28351.63977.28351,1.00946h4c0-1.10254.89746-2,2-2ZM22,20.5c0-.27618-.22388-.5-.5-.5h-1c-.27612,0-.5.22382-.5.5v1c0,.27612.22388.5.5.5h1c.27612,0,.5-.22388.5-.5v-1Z"/><rect class="cls-1" width="24" height="24"/></svg>