<?xml version="1.0" encoding="UTF-8"?><svg id="icons" xmlns="http://www.w3.org/2000/svg" viewBox="0 0 32 32"><defs><style>.cls-1{fill:none;}</style></defs><path d="M22.5,2c-3.96698,0-7.21552,3.0976-7.47467,7H5v1h10.02533c.25916,3.9024,3.50769,7,7.47467,7,4.13574,0,7.5-3.36426,7.5-7.5s-3.36426-7.5-7.5-7.5ZM22.5,16c-3.41522,0-6.21771-2.64948-6.47467-6h3.02521c.24524,1.69165,1.69098,3,3.44946,3,1.92969,0,3.49-1.57031,3.49-3.5s-1.56031-3.5-3.49-3.5c-1.75848,0-3.20422,1.30835-3.44946,3h-3.02521c.25696-3.35052,3.05945-6,6.47467-6,3.58398,0,6.5,2.91602,6.5,6.5s-2.91602,6.5-6.5,6.5ZM20,9.5c0-1.37891,1.12109-2.5,2.5-2.5s2.5,1.12109,2.5,2.5-1.12109,2.5-2.5,2.5-2.5-1.12109-2.5-2.5ZM13.8432,17.86377l-5.63605,5.63605.00018.00018-.00018.00018,5.63605,5.63605-.70709.70709-5.63605-5.63605-.00006.00006-.00006-.00006-5.63605,5.63605-.70709-.70709,5.63605-5.63605-.00018-.00018.00018-.00018-5.63605-5.63605.70709-.70715,5.63605,5.63611.00006-.00006.00006.00006,5.63605-5.63611.70709.70715Z"/><rect class="cls-1" width="32" height="32"/></svg>