<svg xmlns="http://www.w3.org/2000/svg" viewBox="0 0 16 16"><path d="M2 0C.897 0 0 .897 0 2s.897 2 2 2 2-.897 2-2-.897-2-2-2m1 2.5a.5.5 0 0 1-.5.5h-1a.5.5 0 0 1-.5-.5v-1a.5.5 0 0 1 .5-.5h1a.5.5 0 0 1 .5.5zM14.5 10a1.5 1.5 0 0 0-1.408 1h-3.066l1.572-1.31c.251.192.562.31.902.31.827 0 1.5-.673 1.5-1.5S13.327 7 12.5 7 11 7.673 11 8.5c0 .215.047.419.13.604l-1.587 1.322A1.5 1.5 0 0 0 8.5 10c-.827 0-1.5.673-1.5 1.5S7.673 13 8.5 13a1.5 1.5 0 0 0 1.043-.426l1.586 1.322A1.5 1.5 0 0 0 11 14.5c0 .827.673 1.5 1.5 1.5s1.5-.673 1.5-1.5-.673-1.5-1.5-1.5c-.34 0-.65.118-.902.31l-1.572-1.311h3.066A1.5 1.5 0 0 0 14.5 13c.827 0 1.5-.673 1.5-1.5s-.673-1.5-1.5-1.5M12 8.25a.25.25 0 0 1 .25-.25h.487c.145 0 .263.118.263.263v.487a.25.25 0 0 1-.25.25h-.5a.25.25 0 0 1-.25-.25zm.25 5.75h.487c.145 0 .263.118.263.263v.487a.25.25 0 0 1-.25.25h-.5a.25.25 0 0 1-.25-.25v-.5a.25.25 0 0 1 .25-.25M9 11.75a.25.25 0 0 1-.25.25h-.5a.25.25 0 0 1-.25-.25v-.5a.25.25 0 0 1 .25-.25h.487c.145 0 .263.118.263.263zm6 0a.25.25 0 0 1-.25.25h-.5a.25.25 0 0 1-.25-.25v-.5a.25.25 0 0 1 .25-.25h.487c.145 0 .263.118.263.263zM10.176 5 8.5 7.058 6.824 5H8v-.5C8 3.673 7.327 3 6.5 3H6V2h.5C7.878 2 9 3.121 9 4.5V5z"/><path fill="none" d="M0 0h16v16H0z"/></svg>