<?xml version="1.0" encoding="UTF-8"?><svg id="icons" xmlns="http://www.w3.org/2000/svg" viewBox="0 0 32 32"><defs><style>.cls-1{fill:none;}</style></defs><path d="M26,21.05054V7.94946c1.13995-.23224,2-1.24182,2-2.44946,0-1.37891-1.12109-2.5-2.5-2.5s-2.5,1.12109-2.5,2.5c0,.50885.15442.98132.41638,1.37659l-5.12317,5.12317c-.7699-.61584-1.73279-.99976-2.79321-.99976-2.48145,0-4.49,2.01855-4.49,4.5,0,1.06042.37391,2.02332.98976,2.79321l-5.12317,5.12317c-.39526-.26196-.86774-.41638-1.37659-.41638-1.37891,0-2.5,1.12109-2.5,2.5s1.12109,2.5,2.5,2.5c1.20764,0,2.21722-.86005,2.44946-2h13.10107c.25244,2.24384,2.13922,4,4.44946,4,2.48145,0,4.5-2.01855,4.5-4.5,0-2.31024-1.75616-4.19702-4-4.44946ZM26,24c.55231,0,1,.44769,1,1v1c0,.55225-.44769,1-1,1h-1c-.55231,0-1-.44775-1-1v-1c0-.55231.44769-1,1-1h1ZM23.05054,25h-1c.22137-1.52692,1.42255-2.72809,2.94946-2.94946v1c-.97833.19934-1.75012.97113-1.94946,1.94946ZM18.29333,13.4137c.43774.58435.70667,1.30176.70667,2.0863,0,1.92969-1.57031,3.5-3.5,3.5-.78455,0-1.50195-.26892-2.0863-.70667l.70972-.70972c.39526.26196.86774.41638,1.37659.41638,1.37891,0,2.5-1.12109,2.5-2.5,0-.50885-.15442-.98132-.41638-1.37659l.70972-.70972ZM14,16v-1c0-.55231.44769-1,1-1h1c.55231,0,1,.44769,1,1v1c0,.55225-.44769,1-1,1h-1c-.55231,0-1-.44775-1-1ZM15.5,12c.78455,0,1.50195.26892,2.0863.70667l-.70972.70972c-.39526-.26196-.86774-.41638-1.37659-.41638-1.37891,0-2.5,1.12109-2.5,2.5,0,.50885.15442.98132.41638,1.37659l-.70972.70972c-.43774-.58435-.70667-1.30176-.70667-2.0863,0-1.92969,1.57031-3.5,3.5-3.5ZM7.94946,25c-.06494-.31866-.19202-.61432-.36584-.87659l5.12317-5.12317c.7699.61584,1.73279.99976,2.79321.99976,2.48145,0,4.5-2.01855,4.5-4.5,0-1.06042-.38391-2.02332-.99976-2.79321l5.12317-5.12317c.26227.17383.55792.3009.87659.36584v13.10107c-2.07751.2337-3.71576,1.87195-3.94946,3.94946H7.94946ZM25.5,29c-1.75848,0-3.20422-1.30835-3.44946-3h1c.23224,1.13995,1.24182,2,2.44946,2,1.37891,0,2.49-1.12109,2.49-2.5,0-1.20764-.85005-2.21722-1.99-2.44946v-1c1.69165.24524,3,1.69098,3,3.44946,0,1.92969-1.57031,3.5-3.5,3.5Z"/><rect class="cls-1" width="32" height="32"/></svg>