<?xml version="1.0" encoding="UTF-8"?><svg id="icons" xmlns="http://www.w3.org/2000/svg" viewBox="0 0 16 16"><defs><style>.cls-1{fill:none;}</style></defs><path d="M13.17603,4l-1.67603,2.05817-1.67603-2.05817h1.17603v-.5c0-.82715-.67285-1.5-1.5-1.5h-.5v-1h.5c1.37842,0,2.5,1.12109,2.5,2.5v.5h1.17603ZM7,7.5c0,.82715-.67285,1.5-1.5,1.5s-1.5-.67285-1.5-1.5c0-.15546.03052-.30249.07458-.4436l-1.74701-1.31061c-.23517.16028-.5191.25421-.82758.25421-.82715,0-1.5-.67285-1.5-1.5s.67285-1.5,1.5-1.5c.30847,0,.59241.09393.82758.25421l1.74701-1.31061c-.04407-.14111-.07458-.28815-.07458-.4436,0-.82715.67285-1.5,1.5-1.5s1.5.67285,1.5,1.5-.67285,1.5-1.5,1.5c-.30701,0-.59222-.09338-.8302-.25226l-1.75909,1.31964c.04083.13788.06927.28119.06927.43262s-.02844.29474-.06927.43262l1.75909,1.31964c.23798-.15887.52319-.25226.8302-.25226.82715,0,1.5.67285,1.5,1.5ZM5,2h1v-1h-1v1ZM6,7h-1v1h1v-1ZM15.98,14.5c0,.82715-.65285,1.5-1.48,1.5s-1.5-.67285-1.5-1.5c0-.15546.03052-.30249.07458-.4436l-1.74438-1.30865c-.23798.15887-.52319.25226-.8302.25226-.82715,0-1.5-.67285-1.5-1.5s.67285-1.5,1.5-1.5c.30701,0,.59222.09338.8302.25226l1.74438-1.30865c-.04407-.14111-.07458-.28815-.07458-.4436,0-.82715.67285-1.5,1.5-1.5s1.5.67285,1.5,1.5c0,.651-.41925,1.20081-1,1.4079v3.1842c.58075.20709.98.7569.98,1.4079ZM14,9h1v-1h-1v1ZM13.6698,13.25226c.10144-.06769.2135-.11853.3302-.16016v-3.1842c-.1167-.04163-.22876-.09247-.3302-.16016l-1.74438,1.30865c.04407.14111.07458.28815.07458.4436s-.03052.30249-.07458.4436l1.74438,1.30865ZM15,14h-1v1h1v-1Z"/><rect class="cls-1" width="16" height="16"/></svg>