<?xml version="1.0" encoding="UTF-8"?><svg id="icons" xmlns="http://www.w3.org/2000/svg" viewBox="0 0 32 32"><defs><style>.cls-1{fill:none;}</style></defs><path d="M20,9.00098c-1.30164,0-2.40106.83801-2.81543,1.99902H6.81543c-.02649-.07428-.04938-.14935-.08142-.22076l7.08923-4.7262c.54742.58044,1.31781.94696,2.17676.94696,1.6543,0,2.99-1.3457,2.99-3s-1.3357-2.99902-2.99-2.99902-3,1.3457-3,3c0,.43591.09814.8476.26605,1.22168l-7.08929,4.72626c-.54736-.58044-1.31781-.94794-2.17676-.94794-1.6543,0-3,1.3457-3,3s1.3457,2.99902,3,2.99902c.85895,0,1.62939-.36652,2.17676-.94696l7.08929,4.7262c-.16791.37408-.26605.78583-.26605,1.22174,0,1.6543,1.3457,2.99902,3,2.99902s2.99-1.3457,2.99-3-1.3357-2.99902-2.99-2.99902c-.85895,0-1.62939.36749-2.17676.94794l-7.08929-4.7262c.16791-.37408.26605-.78583.26605-1.22174,0-.00031-.00012-.00067-.00012-.00098h10.00024c0,.00031-.00012.00067-.00012.00098,0,1.6543,1.3457,2.99902,3,2.99902s2.99-1.3457,2.99-3-1.3357-2.99902-2.99-2.99902ZM16,2.00098c1.10254,0,2,.89746,2,2s-.89746,2-2,2-2-.89746-2-2,.89746-2,2-2ZM16,18.00098c1.10254,0,2,.89746,2,2s-.89746,2-2,2-2-.89746-2-2,.89746-2,2-2ZM20,14.00098c-1.10254,0-2-.89746-2-2s.89746-2,2-2,2,.89746,2,2-.89746,2-2,2ZM16.30112,30.95083c-.60254,0-1.16699-.2334-1.59375-.66113-.4375-.4375-.67773-1.04395-.65723-1.66504.01953-.62598.30078-1.2207.77051-1.63281,6.52637-5.72363,8.27896-7.24283,8.77603-7.68033l.18164-.16699c-.62598-1.50879-.2334-3.28613.95703-4.20996.90625-.70312,2.31055-1.03613,3.58203-.85547.23145.02148.48438.26562.5166.51953.05664.15723-.03027.42578-.23535.58398l-2.28711,1.77637.45117,1.15039.93164.69336,2.28125-1.77148c.20508-.15918.47754-.17578.69629-.04395h0c.19531.12207.32812.39062.29297.61816-.1543,1.25293-.85547,2.56836-1.74414,3.25781-.7793.60449-1.81836.76074-3.08301.4707-.03418-.00684-.13281.00098-.36816.2041l-7.79263,8.66958c-.41895.46387-.99414.72754-1.61816.74219-.01953.00098-.03906.00098-.05762.00098ZM24.13574,20.15332c-.25684.24219-.62988.56934-1.15332,1.02832l-7.50162,6.56216c-.2666.2334-.41992.55762-.43164.91309-.01074.35059.11816.67969.36523.92578.24609.24707.57812.3623.91992.36816.34766-.00879.66699-.15527.90039-.41309l7.83658-8.71255c.32227-.28516.75586-.58984,1.29199-.46582.97461.22559,1.70703.13086,2.24414-.28613.44531-.3457.83984-.92383,1.09473-1.56348l-1.53613,1.19238c-.26953.21191-.65039.21387-.92578.00977l-1.28418-.99414c-.03418-.0459-.06055-.09375-.08301-.14062l-.55664-1.41699c-.12207-.31934-.02539-.67188.24023-.88086l1.56445-1.21582c-.67773.08105-1.32812.31543-1.77246.66113-.87793.68164-1.12793,2.04785-.58301,3.18066.13379.27637.0752.60645-.14453.82031l-.16504.1543-.02637-.01953c-.0127.01367-.02539.02734-.03906.04199l.01953.02344-.27441.22754ZM27.55273,18.91309q-.00098,0-.00098.00098l.00098-.00098ZM26.78711,18.17285l.00977.0127-.00977-.0127ZM29.97461,17.46777c-.00195.00977-.00293.01953-.00391.0293.00098-.00977.00293-.01953.00391-.0293ZM28.14844,15.06543c.0166.00293.03418.00488.0498.00684-.0166-.00293-.0332-.00488-.0498-.00684ZM27.9873,14.3916c-.00098,0-.00195.00098-.00293.00195l.00293-.00195ZM17,29h-1v-1h1v1Z"/><rect class="cls-1" width="32" height="32"/></svg>