<?xml version="1.0" encoding="UTF-8"?><svg id="icons" xmlns="http://www.w3.org/2000/svg" viewBox="0 0 16 16"><defs><style>.cls-1{fill:none;}</style></defs><path d="M8.94775,4l.25952-.13074c-.12866-.26398-.19728-.55646-.19728-.86926,0-1.10254.88746-2,1.99-2s2,.89746,2,2c0,.36584-.10596.70459-.27832,1h-3.77393ZM4.5,5c-.19165,0-.3764.02618-.55573.06714l-.69409-1.51892c.45349-.367.74982-.92096.74982-1.54822,0-1.10254-.89746-2-2-2S.01.89746.01,2s.88746,2,1.99,2c.11707,0,.23029-.0152.34192-.03461l.6936,1.51776c-.62457.45483-1.02552,1.18646-1.02552,2.01685,0,.97205.55274,1.8067,1.36457,2.22009l-.35071,1.28235c-.00818-.00012-.01569-.00244-.02386-.00244-1.10254,0-1.99.89746-1.99,2s.88746,2,1.99,2,2-.89746,2-2c0-.74188-.41107-1.38342-1.01282-1.72864l.35199-1.2876c.0542.00354.10577.01624.16083.01624.56506,0,1.08093-.19537,1.5-.51245v-1.48755c0,.55225-.44769,1-1,1h-1c-.55231,0-1-.44775-1-1v-1c0-.55231.44769-1,1-1h1c.55231,0,1,.44769,1,1v-.5c0-.42389.11584-.81726.30267-1.16736l-.32324.16284c-.41534-.30743-.92395-.49548-1.47943-.49548ZM9,12h1v-1h-1v1ZM9,14h1v-1h-1v1ZM11,12h1v-1h-1v1ZM13,14h1v-3h-1v3ZM11,14h1v-1h-1v1ZM16,6.5v8c0,.82715-.67285,1.5-1.5,1.5h-6c-.82715,0-1.5-.67285-1.5-1.5V6.5c0-.82715.67285-1.5,1.5-1.5h6c.82715,0,1.5.67285,1.5,1.5ZM15,6.5c0-.27539-.22461-.5-.5-.5h-6c-.27539,0-.5.22461-.5.5v8c0,.27539.22461.5.5.5h6c.27539,0,.5-.22461.5-.5V6.5ZM9,7h5v3h-5v-3ZM10,9h3v-1h-3v1Z"/><path class="cls-1" d="M16,16H0V0h16v16Z"/></svg>