<svg xmlns="http://www.w3.org/2000/svg" viewBox="0 0 16 16"><path d="M13.5 6c-1.207 0-2.217.86-2.45 2h-6.1a2.47 2.47 0 0 0-.17-.514l3.024-2.16A2.49 2.49 0 0 0 9.5 6c1.378 0 2.49-1.122 2.49-2.5S10.878 1 9.5 1 7 2.122 7 3.5c0 .362.08.704.22 1.015l-3.024 2.16A2.484 2.484 0 0 0 2.5 6C1.122 6 0 7.122 0 8.5S1.122 11 2.5 11c.656 0 1.25-.259 1.696-.674l3.024 2.16c-.14.31-.22.652-.22 1.014C7 14.878 8.122 16 9.5 16s2.49-1.122 2.49-2.5S10.878 11 9.5 11c-.656 0-1.25.26-1.696.675L4.78 9.515c.073-.164.133-.335.17-.515h6.1c.233 1.14 1.243 2 2.45 2 1.378 0 2.49-1.122 2.49-2.5S14.878 6 13.5 6zM15 9a1 1 0 0 1-1 1h-1a1 1 0 0 1-1-1V8a1 1 0 0 1 1-1h1a1 1 0 0 1 1 1v1zM8 4V3a1 1 0 0 1 1-1h1a1 1 0 0 1 1 1v1a1 1 0 0 1-1 1H9a1 1 0 0 1-1-1zm1 8h1a1 1 0 0 1 1 1v1a1 1 0 0 1-1 1H9a1 1 0 0 1-1-1v-1a1 1 0 0 1 1-1z"/><path fill="none" d="M0 0h16v16H0z"/></svg>