<svg xmlns="http://www.w3.org/2000/svg" viewBox="0 0 24 24"><path d="M0 0h24v24H0z" style="fill:none"/><path d="m16.408 6.68.646-.76a7.83 7.83 0 0 1 2.796 5.996 7.83 7.83 0 0 1-2.773 5.977l-.64-.767a6.83 6.83 0 0 0 2.413-5.21 6.83 6.83 0 0 0-2.442-5.235m4.442 5.236a8.83 8.83 0 0 1-3.133 6.744l.641.767a9.83 9.83 0 0 0 3.492-7.51 9.83 9.83 0 0 0-3.503-7.522l-.647.762a8.83 8.83 0 0 1 3.15 6.76m2 0c0 3.316-1.5 6.286-3.851 8.278l.64.766c2.572-2.175 4.211-5.42 4.211-9.044s-1.64-6.869-4.21-9.044l-.647.762c2.355 1.992 3.857 4.963 3.857 8.282M7.02 17.98l.64-.768A6.838 6.838 0 0 1 7.69 6.6l-.647-.763A7.837 7.837 0 0 0 7.02 17.98m-4.87-6.063a9.83 9.83 0 0 0 3.587 7.597l.641-.767a8.836 8.836 0 0 1 .018-13.673l-.647-.763a9.83 9.83 0 0 0-3.599 7.606m2.947 8.364a10.833 10.833 0 0 1 .005-16.732l-.647-.762a11.83 11.83 0 0 0-4.305 9.13 11.83 11.83 0 0 0 4.306 9.13zM17 11.958c0 2.734-2.243 4.958-5 4.958s-5-2.224-5-4.958S9.243 7 12 7s5 2.224 5 4.958m-1 0c0-2.187-1.795-3.966-4-3.966S8 9.77 8 11.958s1.795 3.967 4 3.967 4-1.78 4-3.967m-5 2 2.976-2-2.976-2z" style="fill:#231f20"/></svg>