<?xml version="1.0" encoding="UTF-8"?><svg id="icons" xmlns="http://www.w3.org/2000/svg" viewBox="0 0 24 24"><defs><style>.cls-1{fill:none;}.cls-2{fill:#231f20;}</style></defs><rect class="cls-1" width="24" height="24"/><path class="cls-2" d="M16.4079,6.68073l.646-.76154c1.70734,1.44122,2.79608,3.59351,2.79608,5.99719,0,2.39264-1.07953,4.53546-2.77344,5.97656l-.64044-.7666c1.47449-1.25739,2.41388-3.12469,2.41388-5.20996,0-2.099-.95081-3.97815-2.44208-5.23566ZM20.84998,11.91638c0,2.70062-1.21936,5.11896-3.13263,6.74359l.64081.76703c2.13263-1.80817,3.49182-4.50195,3.49182-7.51062,0-3.01422-1.36389-5.71289-3.5033-7.52112l-.64636.76196c1.9234,1.62469,3.14966,4.05023,3.14966,6.75916ZM22.84998,11.91638c0,3.31604-1.49945,6.28534-3.85144,8.27722l.64062.76685c2.57147-2.17542,4.21082-5.42035,4.21082-9.04443s-1.63928-6.86902-4.21075-9.04443l-.64655.76215c2.35553,1.99188,3.8573,4.96375,3.8573,8.28265ZM7.01923,17.97852l.64087-.76715c-1.53119-1.25726-2.51007-3.16357-2.51007-5.29498,0-2.14478.99219-4.06049,2.53998-5.31744l-.64691-.76257c-1.76379,1.4408-2.89307,3.63055-2.89307,6.08002,0,2.43872,1.11859,4.62115,2.8692,6.06213ZM2.15002,11.91638c0,3.05475,1.39758,5.78894,3.58691,7.59705l.64111-.76746c-1.96997-1.62457-3.22803-4.08282-3.22803-6.82959,0-2.75476,1.26593-5.21863,3.24579-6.84302l-.64728-.763c-2.1958,1.80798-3.59851,4.54596-3.59851,7.60602ZM5.0965,20.28003c-2.40869-1.99182-3.94647-5.00153-3.94647-8.36365,0-3.36469,1.53986-6.37677,3.95172-8.36847l-.64655-.76215C1.82739,4.96106.15002,8.24615.15002,11.91602c0,3.67023,1.67767,6.95551,4.30585,9.1308l.64062-.76678ZM17,11.95819c0,2.73378-2.24316,4.95819-5,4.95819s-5-2.22441-5-4.95819,2.24316-4.95819,5-4.95819,5,2.22441,5,4.95819ZM16,11.95819c0-2.18761-1.79492-3.96655-4-3.96655s-4,1.77894-4,3.96655,1.79492,3.96655,4,3.96655,4-1.77894,4-3.96655ZM11,13.95819l2.97577-2-2.97577-2v4Z"/></svg>