<svg xmlns="http://www.w3.org/2000/svg" viewBox="0 0 32 32"><path stroke-width="0" fill="none" d="M0 0h32v32H0z"/><path d="M22.8 16c0 3.76-3.04 6.8-6.8 6.8S9.2 19.76 9.2 16s3.04-6.8 6.8-6.8 6.8 3.04 6.8 6.8zm-1 0c0-3.2-2.6-5.8-5.8-5.8s-5.8 2.6-5.8 5.8 2.6 5.8 5.8 5.8 5.8-2.6 5.8-5.8zM14 12v8l6-4-6-4zm1 1.868L18.197 16 15 18.132v-4.264zm4.032 12.752c-1.25.255-2.304.594-3.34.928-1.992.644-3.874 1.252-7.154 1.252-3.003 0-5.37-.886-6.43-1.366L5.794 5.217a15.6 15.6 0 0 0 4.544.651c2.505 0 4-.43 5.445-.847 1.448-.417 2.816-.81 5.29-.81 2.188 0 4.104.325 5.05.518l2.775 16.72c.5.43.927.94 1.264 1.51L27 3.9s-2.667-.689-5.926-.689c-5.144 0-5.927 1.657-10.735 1.657C7.52 4.868 5.7 4.133 5 3.9L1 28s3.093 1.8 7.538 1.8c5.17 0 7.116-1.47 10.686-2.199a5.93 5.93 0 0 1-.192-.981zM25 21a5 5 0 1 0 0 10 5 5 0 0 0 0-10z" stroke-width="0"/></svg>