<svg xmlns="http://www.w3.org/2000/svg" viewBox="0 0 16 16"><path stroke-width="0" fill="none" d="M0 0h16v16H0z"/><path d="M8.063 4.006C5.825 4.006 4.011 5.794 4.011 8c0 2.206 1.814 3.994 4.052 3.994S12 10.206 12 8c0-2.206-1.698-3.994-3.937-3.994zM8 11c-1.654 0-3-1.346-3-3s1.346-3 3-3 3 1.346 3 3-1.346 3-3 3zM7 6l3 2-3 2V6zm3.008 7.421C7.902 13.86 6.606 14.8 3.793 14.8 1.423 14.8 0 14.089 0 14.089l2.133-12.6S3.556 2 5.293 2c2.688 0 2.722-.986 5.413-.986 1.738 0 3.161.674 3.161.674l1.5 8.863a3.471 3.471 0 0 0-1.091-.458l-1.3-7.68c-.496-.17-1.337-.399-2.27-.399-1.17 0-1.725.201-2.368.434C7.623 2.707 6.813 3 5.294 3c-.908 0-1.736-.126-2.359-.26l-1.81 10.697a9.538 9.538 0 0 0 2.668.363c1.669 0 2.747-.363 3.888-.748.772-.26 1.56-.525 2.525-.689a3.46 3.46 0 0 0-.198 1.058zm5.987.079a2.495 2.495 0 1 1-4.99 0 2.495 2.495 0 0 1 4.99 0z" stroke-width="0"/></svg>