<svg xmlns="http://www.w3.org/2000/svg" viewBox="0 0 32 32"><path d="M0 0h32v32H0z" style="fill:none"/><path d="M25.9 16.5a9.36 9.36 0 0 1-2.607 6.479l-.692-.797A8.3 8.3 0 0 0 24.85 16.5a8.33 8.33 0 0 0-3.216-6.571l.69-.793c2.174 1.723 3.576 4.38 3.576 7.364m-1.638-9.593-.656.756C26.19 9.745 27.85 12.93 27.85 16.5a11.3 11.3 0 0 1-3.27 7.958l.66.758a12.3 12.3 0 0 0 3.61-8.716c0-3.87-1.793-7.326-4.588-9.593m1.972-2.266-.657.755C28.793 8.03 30.85 12.028 30.85 16.5c0 4-1.649 7.62-4.298 10.225l.655.753c2.86-2.79 4.643-6.677 4.643-10.978 0-4.772-2.19-9.041-5.616-11.859m-16.73 2.94-.657-.755a12.31 12.31 0 0 0-.987 18.483l.655-.753A11.3 11.3 0 0 1 5.15 16.5c0-3.619 1.708-6.84 4.354-8.92M7.532 5.315l-.657-.755C3.388 7.376 1.15 11.68 1.15 16.5c0 4.35 1.827 8.274 4.744 11.07l.655-.754C3.842 24.205 2.15 20.55 2.15 16.5c0-4.52 2.106-8.553 5.382-11.185m3.943 4.532-.69-.793C8.55 10.774 7.1 13.468 7.1 16.5a9.37 9.37 0 0 0 2.699 6.58l.692-.796A8.32 8.32 0 0 1 8.15 16.5c0-2.717 1.31-5.127 3.325-6.653M22 16.5c0 3.034-2.466 5.5-5.5 5.5S11 19.534 11 16.5s2.466-5.5 5.5-5.5 5.5 2.465 5.5 5.5m-1 0c0-2.481-2.019-4.5-4.5-4.5S12 14.019 12 16.5s2.019 4.5 4.5 4.5 4.5-2.019 4.5-4.5M15 19l4-2.5-4-2.5z" style="fill:#231f20"/></svg>