<svg xmlns="http://www.w3.org/2000/svg" viewBox="0 0 16 16"><path d="M0 0h16v16H0z" style="fill:none"/><path d="m3.632 13.46-.625.78C1.177 12.774 0 10.524 0 8s1.177-4.773 3.007-6.24l.625.78C2.03 3.824 1 5.793 1 8s1.03 4.177 2.632 5.46M3 8c0-1.577.748-2.968 1.892-3.885l-.636-.796A5.99 5.99 0 0 0 2 8c0 1.892.883 3.58 2.256 4.68l.636-.795C3.748 10.968 3 9.577 3 8m9.993-6.24-.625.78C13.97 3.824 15 5.793 15 8s-1.03 4.176-2.632 5.46l.625.78C14.823 12.774 16 10.524 16 8s-1.177-4.773-3.007-6.24m-1.249 1.56-.636.795C12.252 5.032 13 6.423 13 8s-.748 2.968-1.892 3.885l.636.796C13.117 11.58 14 9.892 14 8s-.883-3.58-2.256-4.68M12 8c0 2.206-1.794 4-4 4s-4-1.794-4-4 1.794-4 4-4 4 1.794 4 4m-1 0c0-1.654-1.346-3-3-3S5 6.346 5 8s1.346 3 3 3 3-1.346 3-3M7 6v4l3-2z" style="fill:#231f20"/></svg>