<?xml version="1.0" encoding="UTF-8"?><svg id="icons" xmlns="http://www.w3.org/2000/svg" viewBox="0 0 16 16"><defs><style>.cls-1{fill:none;}.cls-2{fill:#231f20;}</style></defs><rect class="cls-1" width="16" height="16"/><path class="cls-2" d="M3.63165,13.46045l-.62421.78021c-1.83044-1.46735-3.00745-3.71765-3.00745-6.24066S1.177,3.22668,3.00745,1.75934l.62421.78021c-1.60162,1.284-2.63165,3.25305-2.63165,5.46045s1.02997,4.17651,2.63165,5.46045ZM3,8c0-1.57654.74811-2.96808,1.89185-3.88519l-.63629-.79541c-1.37286,1.10046-2.25555,2.78821-2.25555,4.6806s.88269,3.58014,2.25555,4.6806l.63629-.79541c-1.14374-.91711-1.89185-2.30865-1.89185-3.88519ZM12.99255,1.75934l-.62421.78021c1.60168,1.284,2.63165,3.25305,2.63165,5.46045s-1.02997,4.17645-2.63165,5.46045l.62421.78021c1.83044-1.46735,3.00745-3.71765,3.00745-6.24066s-1.177-4.77332-3.00745-6.24066ZM11.74445,3.3194l-.63629.79541c1.14374.91711,1.89185,2.30865,1.89185,3.88519s-.74811,2.96808-1.89185,3.88519l.63629.79541c1.37286-1.10046,2.25555-2.78821,2.25555-4.6806s-.88269-3.58014-2.25555-4.6806ZM12,8c0,2.20605-1.79395,4-4,4s-4-1.79395-4-4,1.79395-4,4-4,4,1.79395,4,4ZM11,8c0-1.65411-1.34589-3-3-3s-3,1.34589-3,3,1.34589,3,3,3,3-1.34589,3-3ZM7,6v4l3-2-3-2Z"/></svg>