<?xml version="1.0" encoding="UTF-8"?><svg id="icons" xmlns="http://www.w3.org/2000/svg" viewBox="0 0 32 32"><defs><style>.cls-1{fill:none;}</style></defs><path d="M31,10v17H1V10h3v1h-2v15h28v-15h-15v-1h16ZM9.5,21.20703l-4.5-4.5v-8.0791c0-2,1.62793-3.62793,3.62793-3.62793h1.74414c2,0,3.62793,1.62793,3.62793,3.62793v8.0791l-4.5,4.5ZM6,16.29297l3.5,3.5,3.5-3.5.0077-7.66504c0-1.44922-1.18641-2.62793-2.63563-2.62793h-1.74414c-1.44922,0-2.62793,1.17871-2.62793,2.62793v7.66504ZM9.5,13c-1.37891,0-2.5-1.12109-2.5-2.5s1.12109-2.5,2.5-2.5,2.499,1.12109,2.499,2.5-1.12009,2.5-2.499,2.5ZM9.5,12c.82715,0,1.5-.67285,1.5-1.5s-.67285-1.5-1.5-1.5-1.5.67285-1.5,1.5.67285,1.5,1.5,1.5ZM28,18h-13v1h13v-1Z"/><rect class="cls-1" width="32" height="32"/></svg>