<svg xmlns="http://www.w3.org/2000/svg" viewBox="0 0 32 32"><path d="M0 0h32v32H0z" style="fill:none"/><path d="M18.5 3a2.5 2.5 0 0 0-.5 4.95V13H6v9.05a2.5 2.5 0 1 0 1 0V14h12V7.95A2.5 2.5 0 0 0 18.5 3M8 24.5c0 .827-.673 1.5-1.5 1.5S5 25.327 5 24.5 5.673 23 6.5 23s1.5.673 1.5 1.5M18.5 7c-.827 0-1.5-.673-1.5-1.5S17.673 4 18.5 4s1.5.673 1.5 1.5S19.327 7 18.5 7M26 24.117V17.95a2.5 2.5 0 1 0-1 0v6.145a2.448 2.448 0 0 0 .45 4.855 2.447 2.447 0 0 0 .55-4.833M24 15.5c0-.827.673-1.5 1.5-1.5s1.5.673 1.5 1.5-.673 1.5-1.5 1.5-1.5-.673-1.5-1.5m1.45 12.47c-.81 0-1.47-.66-1.47-1.47s.66-1.47 1.47-1.47 1.47.66 1.47 1.47-.66 1.47-1.47 1.47"/><path d="M1 1v30h30V1zm1 1h4v6H2zm18 28h-8v-6h8zm0-7h-8v-4h8zm10-10h-2.058c.293.286.528.627.707 1H30v4h-2.077a3.6 3.6 0 0 1-.923.649V19h3v4h-3v.351c.344.165.652.388.923.649H30v6h-4v-.05c-.467.067-.533.067-1 0V30h-4v-6h2.077a3.6 3.6 0 0 1 .923-.649V23h-3v-4h3v-.351a3.6 3.6 0 0 1-.923-.649H12v-3h-1v3H8v1h3v11H7v-2.05c-.165.023-.329.05-.5.05s-.335-.027-.5-.05V30H2V19h3v-1H2v-4h3v-1H2V9h4v3h1V9h4v3h1V9h5v-.351A3.5 3.5 0 0 1 16.058 8H7V2h18v6h-4.058a3.5 3.5 0 0 1-.942.649V9h5v3.05c.165-.023.329-.05.5-.05s.335.027.5.05V9h4zm0-5h-4V2h4zm-10 5h3.058a3.5 3.5 0 0 0-.707 1H20z" style="opacity:.25"/></svg>