<svg xmlns="http://www.w3.org/2000/svg" viewBox="0 0 16 16"><path d="M14.984 11.483c0 .585-.228 1.135-.642 1.548l-2.684 2.684-.707-.707 2.684-2.684a1.183 1.183 0 0 0 0-1.682 1.218 1.218 0 0 0-1.681 0L7.837 14.76a2.193 2.193 0 0 1-3.097 0 2.192 2.192 0 0 1 0-3.096l6.809-6.808a1.192 1.192 0 0 0 0-1.682c-.45-.45-1.234-.449-1.682 0l-4.77 4.769c-.901.902-2.478.903-3.381 0a2.375 2.375 0 0 1-.701-1.692c0-.638.249-1.239.701-1.691L5.274 1H4V0h3v3H6V1.689L2.423 5.266a1.385 1.385 0 0 0-.408.984c0 .372.145.721.408.985.526.526 1.443.524 1.968 0l4.77-4.77c.824-.825 2.266-.827 3.095 0a2.192 2.192 0 0 1 0 3.097L5.447 12.37a1.192 1.192 0 0 0 0 1.682 1.191 1.191 0 0 0 1.683 0l4.117-4.116c.826-.828 2.27-.828 3.095 0 .414.413.642.962.642 1.547z"/><path fill="none" d="M0 0h16v16H0z"/></svg>