<svg xmlns="http://www.w3.org/2000/svg" viewBox="0 0 16 16"><path d="m11.731 14.205.707.707-1.086 1.087-.707-.707zm-4.626-.153c-.449.45-1.232.45-1.681 0a1.18 1.18 0 0 1-.349-.841c0-.317.124-.616.349-.84l2.236-2.237-.707-.707-2.236 2.236a2.17 2.17 0 0 0-.642 1.548c0 .585.228 1.135.642 1.548.826.827 2.27.827 3.096 0l2.236-2.236-.707-.707zM5.271 7.745l-.707-.707-.096.096a1.395 1.395 0 0 1-1.969 0 1.38 1.38 0 0 1-.408-.985c0-.371.146-.72.408-.984l.096-.096-.707-.707-.096.096a2.38 2.38 0 0 0-.7 1.691c0 .64.248 1.24.7 1.692.934.933 2.45.933 3.383 0zm10.663 7.506-.707.707L.118.85.825.142l2.642 2.642L5.25 1H4V0h3v3H6V1.665L4.174 3.491 6.142 5.46l2.994-2.994c.829-.828 2.27-.826 3.095 0 .414.413.642.963.642 1.548a2.17 2.17 0 0 1-.642 1.548L9.238 8.555l1.682 1.683.605-.605a2.193 2.193 0 0 1 3.096 0 2.193 2.193 0 0 1 0 3.096l-.605.605zm-4.307-4.306 1.682 1.682.605-.605a1.19 1.19 0 0 0 0-1.682 1.19 1.19 0 0 0-1.682 0zM6.85 6.167l1.682 1.681 2.993-2.993a1.18 1.18 0 0 0 0-1.682c-.449-.449-1.232-.45-1.681 0z"/><path fill="none" d="M0 0h16v16H0z"/></svg>