<svg xmlns="http://www.w3.org/2000/svg" viewBox="0 0 24 24"><path d="M20.972 19.062l-4.309 4.308-.707-.707 4.309-4.309a1.94 1.94 0 0 0 0-2.74 1.94 1.94 0 0 0-2.74 0l-6.377 6.377a2.94 2.94 0 0 1-4.154 0 2.918 2.918 0 0 1-.86-2.077c0-.785.305-1.522.86-2.077L17.221 7.61c.366-.366.567-.853.567-1.37 0-.517-.201-1.004-.567-1.37a1.94 1.94 0 0 0-2.74 0l-7.866 7.866c-1.22 1.22-3.347 1.22-4.567 0-.61-.61-.946-1.421-.946-2.284s.336-1.674.946-2.284L8.216 2H6V1h4v4H9V2.63L2.755 8.875c-.421.422-.653.981-.653 1.577s.232 1.155.653 1.577c.842.842 2.311.842 3.153 0l7.865-7.866a2.942 2.942 0 0 1 4.155 0 2.92 2.92 0 0 1 .86 2.077 2.92 2.92 0 0 1-.86 2.077L7.7 18.544a1.923 1.923 0 0 0-.567 1.37c0 .517.201 1.004.567 1.37a1.94 1.94 0 0 0 2.74 0l6.376-6.377a2.942 2.942 0 0 1 4.155 0 2.942 2.942 0 0 1 0 4.155z"/><path fill="none" d="M0 0h24v24H0z"/></svg>