<?xml version="1.0" encoding="UTF-8"?><svg id="icons" xmlns="http://www.w3.org/2000/svg" viewBox="0 0 16 16"><defs><style>.cls-1{opacity:.25;}</style></defs><path class="cls-1" d="M16,0v16H0V0h8c-.73669,0-1.37469.40521-1.72168,1h-.27832v4h-1V1H1v5h1v1h-1v2h1v1h-1v5h8v-2h-3v-1h3v-2h-4v-1h5.27399c.17584.29785.42645.54694.72601.72168v.27832h-1v5h5v-5h-1v-.27832c.29956-.17474.55017-.42383.72601-.72168h.27399V1h-2v4h-1V1h-1.27832c-.34698-.59479-.98499-1-1.72168-1h7Z"/><path d="M14,8v-1c0-.55231-.44769-1-1-1h-1c-.55231,0-1,.44769-1,1v1c0,.55225.44769,1,1,1v2c-.55231,0-1,.44769-1,1v1c0,.55225.44769,1,1,1h1c.55231,0,1-.44775,1-1v-1c0-.55231-.44769-1-1-1v-2c.55231,0,1-.44775,1-1ZM13,13h-1v-1h1v1ZM12,7h1v1h-1v-1ZM9,1h-1c-.55231,0-1,.44769-1,1v1c0,.55225.44769,1,1,1v2H3v5c-.55231,0-1,.44769-1,1v1c0,.55225.44769,1,1,1h1c.55231,0,1-.44775,1-1v-1c0-.55231-.44769-1-1-1v-4h5v-3c.55231,0,1-.44775,1-1v-1c0-.55231-.44769-1-1-1ZM4,13h-1v-1h1v1ZM9,3h-1v-1h1v1Z"/></svg>