<svg xmlns="http://www.w3.org/2000/svg" viewBox="0 0 32 32"><path d="M23.007 26.252l.707.707-1.884 1.884-.707-.707 1.884-1.884zM11.714 14.958l-.707-.707-1.444 1.443c-1.007 1.008-2.764 1.008-3.772 0a2.672 2.672 0 0 1 0-3.772l1.443-1.443-.707-.707-1.443 1.443a3.673 3.673 0 0 0 0 5.186c1.387 1.386 3.802 1.386 5.186 0l1.444-1.443zm3.311 11.274a2.33 2.33 0 0 1-3.293 0 2.33 2.33 0 0 1 0-3.293l3.982-3.98-.707-.708-3.982 3.981c-.629.629-.974 1.465-.974 2.354s.345 1.725.974 2.353c1.258 1.257 3.45 1.257 4.707 0l3.982-3.98-.707-.708-3.982 3.981zm14.93 3.028l-.707.708L2.074 2.794l.707-.707 5.716 5.715L12.31 3.99H9V3h5v5h-1V4.713L9.204 8.509l3.772 3.773 5.146-5.146a3.333 3.333 0 0 1 4.707 0c.629.628.976 1.464.976 2.353s-.347 1.725-.976 2.354l-5.146 5.146 3.293 3.293 1.248-1.247c1.257-1.257 3.449-1.257 4.707 0 .629.628.974 1.464.974 2.353s-.345 1.725-.974 2.354l-1.248 1.247 4.272 4.272zm-8.272-8.271l3.293 3.293 1.248-1.247a2.33 2.33 0 0 0 0-3.293 2.33 2.33 0 0 0-3.293 0l-1.248 1.247zm-8-8l3.293 3.293 5.146-5.146c.44-.44.683-1.025.683-1.647s-.243-1.206-.683-1.646a2.332 2.332 0 0 0-3.293 0l-5.146 5.146z"/><path fill="none" d="M0 0h32v32H0z"/></svg>