<?xml version="1.0" encoding="UTF-8"?><svg id="icons" xmlns="http://www.w3.org/2000/svg" viewBox="0 0 24 24"><defs><style>.cls-1{opacity:.25;}</style></defs><path class="cls-1" d="M15,10h1.55054c-.02771.16345-.05054.3288-.05054.5,0,.17114.01929.33704.04718.5h-1.54718v-1ZM24,0v24H0V0h24ZM1,6h3V1H1v5ZM15,20h-6v3h6v-3ZM15,15h-6v4h6v-4ZM23,7h-3v.55054c-.16345-.02771-.3288-.05054-.5-.05054s-.33655.02283-.5.05054v-.55054h-3.87659c.39392-.25604.72815-.59558.96674-1h2.90985V1H5v5h5.90991c.23859.40442.57275.74396.96667,1h-2.87659v2h-1v-2h-3v2h-1v-2H1v3h2v1H1v3h2v.91724c-.04291.02502-.08185.05573-.12341.08276h-1.87659v8h3v-2.55054c.16345.02771.3288.05054.5.05054s.33655-.02283.5-.05054v2.55054h3v-8h-1.87659c-.04156-.02704-.08051-.05774-.12341-.08276v-.91724h2v-2h1v2h9v1h-2v4h.55054c.06104.36053.18896.69513.3667,1h-.91724v3h3v-1.55054c.16345.02771.3288.05054.5.05054s.33655-.02283.5-.05054v1.55054h3v-3h-.91724c.17773-.30487.30566-.63947.3667-1h.55054v-4h-2v-1h2v-3h-.54718c.02789-.16296.04718-.32886.04718-.5,0-.1712-.02283-.33655-.05054-.5h.55054v-3ZM23,1h-3v5h3V1Z"/><path d="M15.5,4.5c0-1.10254-.89746-2-2-2s-2,.89746-2,2c0,.92889.64001,1.70526,1.5,1.92896v3.57104H4v5.57104c-.85999.22369-1.5,1.00006-1.5,1.92896,0,1.10254.89746,2,2,2s2-.89746,2-2c0-.92889-.64001-1.70526-1.5-1.92896v-4.57104h9v-4.57104c.85999-.22369,1.5-1.00006,1.5-1.92896ZM5.5,17.5c0,.55176-.44824,1-1,1s-1-.44824-1-1,.44824-1,1-1,1,.44824,1,1ZM13.5,5.5c-.55176,0-1-.44824-1-1s.44824-1,1-1,1,.44824,1,1-.44824,1-1,1ZM20,16.57104v-4.14209c.85999-.22369,1.5-1.00006,1.5-1.92896,0-1.10254-.89746-2-2-2s-2,.89746-2,2c0,.92889.64001,1.70526,1.5,1.92896v4.14209c-.85999.22369-1.5,1.00006-1.5,1.92896,0,1.10254.89746,2,2,2s2-.89746,2-2c0-.92889-.64001-1.70526-1.5-1.92896ZM18.5,10.5c0-.55176.44824-1,1-1s1,.44824,1,1-.44824,1-1,1-1-.44824-1-1ZM19.5,19.5c-.55176,0-1-.44824-1-1s.44824-1,1-1,1,.44824,1,1-.44824,1-1,1Z"/></svg>