<svg xmlns="http://www.w3.org/2000/svg" viewBox="0 0 24 24"><path d="M15 10h1.55c-.027.163-.05.329-.05.5s.02.337.047.5H15zm9-10v24H0V0zM1 6h3V1H1zm14 14H9v3h6zm0-5H9v4h6zm8-8h-3v.55c-.163-.027-.329-.05-.5-.05s-.337.023-.5.05V7h-3.877a3.04 3.04 0 0 0 .967-1H19V1H5v5h5.91c.238.404.573.744.967 1H9v2H8V7H5v2H4V7H1v3h2v1H1v3h2v.917c-.043.025-.082.056-.123.083H1v8h3v-2.55c.163.027.329.05.5.05s.337-.023.5-.05V23h3v-8H6.123c-.041-.027-.08-.058-.123-.083V14h2v-2h1v2h9v1h-2v4h.55c.062.36.19.695.367 1H16v3h3v-1.55c.163.027.329.05.5.05s.337-.023.5-.05V23h3v-3h-.917a3 3 0 0 0 .366-1H23v-4h-2v-1h2v-3h-.547c.028-.163.047-.329.047-.5s-.023-.337-.05-.5H23zm0-6h-3v5h3z" style="opacity:.25"/><path d="M15.5 4.5c0-1.103-.897-2-2-2s-2 .897-2 2c0 .929.64 1.705 1.5 1.929V10H4v5.571c-.86.224-1.5 1-1.5 1.929 0 1.103.897 2 2 2s2-.897 2-2c0-.929-.64-1.705-1.5-1.929V11h9V6.429c.86-.224 1.5-1 1.5-1.929m-10 13a1 1 0 1 1-2.001-.001A1 1 0 0 1 5.5 17.5m8-12a1 1 0 1 1 .001-2.001A1 1 0 0 1 13.5 5.5M20 16.571v-4.142c.86-.224 1.5-1 1.5-1.929 0-1.103-.897-2-2-2s-2 .897-2 2c0 .929.64 1.705 1.5 1.929v4.142c-.86.224-1.5 1-1.5 1.929 0 1.103.897 2 2 2s2-.897 2-2c0-.929-.64-1.705-1.5-1.929M18.5 10.5a1 1 0 1 1 2.001.001A1 1 0 0 1 18.5 10.5m1 9a1 1 0 1 1 .001-2.001A1 1 0 0 1 19.5 19.5"/></svg>