<svg xmlns="http://www.w3.org/2000/svg" viewBox="0 0 32 32"><path d="M28.587 25.284L25.33 28.54l-.822-.82a1.303 1.303 0 0 1 0-1.84l2.487-2.485a1.922 1.922 0 0 0-1.358-3.277c-.513 0-.995.2-1.357.562l-7.87 7.87a4.355 4.355 0 0 1-3.097 1.283 4.358 4.358 0 0 1-3.099-1.283 4.351 4.351 0 0 1-1.283-3.097c0-1.17.456-2.27 1.283-3.098L22.54 10.03a1.921 1.921 0 0 0-1.357-3.276c-.514 0-.996.2-1.358.562l-8.994 8.995a4.88 4.88 0 0 1-3.47 1.437 4.888 4.888 0 0 1-3.348-1.32c-.968-.903-1.536-2.18-1.559-3.502s.5-2.619 1.437-3.555L9.261 4H7V2h6v6h-2V5.743l-5.443 5.444a2.453 2.453 0 0 0-.715 1.77 2.45 2.45 0 0 0 2.444 2.404 2.43 2.43 0 0 0 1.73-.716l8.92-8.921a4.355 4.355 0 0 1 3.099-1.283c1.169 0 2.27.456 3.097 1.283a4.387 4.387 0 0 1 0 6.195L11.806 24.244c-.362.363-.562.844-.562 1.357s.2.995.562 1.357c.364.363.846.563 1.358.563.513 0 .995-.2 1.357-.563l7.87-7.87a4.355 4.355 0 0 1 3.098-1.283c1.17 0 2.27.456 3.098 1.283a4.387 4.387 0 0 1 0 6.196z"/><path fill="none" d="M0 0h32v32H0z"/></svg>