<svg xmlns="http://www.w3.org/2000/svg" viewBox="0 0 16 16"><path d="M16 0v16H0V0h8c-.737 0-1.375.405-1.722 1H6v4H5V1H1v5h1v1H1v2h1v1H1v5h8v-2H6v-1h3v-2H5V9h5.274c.176.298.426.547.726.722V10h-1v5h5v-5h-1v-.278c.3-.175.55-.424.726-.722H15V1h-2v4h-1V1h-1.278C10.375.405 9.737 0 9 0z" style="opacity:.25"/><path d="M14 8V7a1 1 0 0 0-1-1h-1a1 1 0 0 0-1 1v1a1 1 0 0 0 1 1v2a1 1 0 0 0-1 1v1a1 1 0 0 0 1 1h1a1 1 0 0 0 1-1v-1a1 1 0 0 0-1-1V9a1 1 0 0 0 1-1m-1 5h-1v-1h1zm-1-6h1v1h-1zM9 1H8a1 1 0 0 0-1 1v1a1 1 0 0 0 1 1v2H3v5a1 1 0 0 0-1 1v1a1 1 0 0 0 1 1h1a1 1 0 0 0 1-1v-1a1 1 0 0 0-1-1V7h5V4a1 1 0 0 0 1-1V2a1 1 0 0 0-1-1M4 13H3v-1h1zM9 3H8V2h1z"/></svg>