<svg xmlns="http://www.w3.org/2000/svg" viewBox="0 0 16 16"><path d="M14.997 11.643c0 .63-.246 1.222-.691 1.668L11.616 16l-.975-.974 2.69-2.69a.97.97 0 0 0 .286-.693.98.98 0 0 0-.285-.693 1 1 0 0 0-.694-.276c-.265 0-.518.1-.693.276l-3.968 3.967a2.34 2.34 0 0 1-1.669.69c-.63 0-1.222-.245-1.667-.69a2.36 2.36 0 0 1 0-3.334l6.527-6.527a.986.986 0 0 0 0-1.387 1 1 0 0 0-.693-.276.98.98 0 0 0-.693.276l-4.41 4.41a2.57 2.57 0 0 1-1.81.727 2.56 2.56 0 0 1-1.809-.727 2.54 2.54 0 0 1-.75-1.809c0-.682.266-1.324.75-1.808l2.854-3.085h-.982V0h3.354v3.354H5.601v-1.02L2.728 5.435a1.18 1.18 0 0 0 0 1.671c.21.21.515.332.834.332s.623-.121.834-.332l4.41-4.41a2.37 2.37 0 0 1 1.669-.671c.632 0 1.24.244 1.667.67.445.445.69 1.037.69 1.668 0 .63-.245 1.222-.69 1.667l-6.527 6.526a.986.986 0 0 0 0 1.388.98.98 0 0 0 .694.286.98.98 0 0 0 .694-.287l3.967-3.967c.426-.426 1.033-.67 1.668-.67s1.241.244 1.668.67c.445.445.69 1.037.69 1.667z"/><path fill="none" d="M0 0h16v16H0z"/></svg>