<?xml version="1.0" encoding="UTF-8"?><svg id="icons" xmlns="http://www.w3.org/2000/svg" viewBox="0 0 32 32"><defs><style>.cls-1{fill:none;}</style></defs><rect class="cls-1" width="32" height="32"/><path d="M28.28998,12.38l-2.54999-2.63,1.60999-3.29004c.20001-.40997-.00995-.65997-.07996-.72998s-.32001-.27997-.73004-.08002l-3.28998,1.61005-2.63-2.55005c-.33002-.31995-.64001-.19-.71997-.14996-.09003.04999-.37.22998-.31.66998l.51996,3.63-3.23999,1.71002c-.40002.21997-.38.54999-.35999.63995.01001.10004.09998.42004.53998.5l3.60999.63.63,3.61005c.08002.44.40002.52997.5.53998.02002.01001.04004.01001.08002.01001.14001,0,.39001-.04999.56-.37l1.71002-3.23999,3.63.51996c.44995.04999.62-.21997.66998-.31.03998-.08002.15997-.39001-.15002-.71997ZM23.59003,11.79999l-1.51001,2.84998-.56-3.16998-3.17004-.56,2.85004-1.51001-.45001-3.17999,2.31,2.23999,2.89001-1.41998-1.41998,2.89001,2.23999,2.31-3.17999-.45001ZM19.85999,13.58997l-13.88,15.67999-1.76001-1.75995,15.26001-14.36005-1.22998-.21997L3.39001,26.91998c-.16003.15002-.25.35999-.26001.58002,0,.20996.08002.41998.23999.57996l2.04999,2.05005c.15002.14996.36005.23999.57001.23999q.01001,0,.02002-.01001c.21997,0,.42999-.09998.57001-.27002l13.5-15.23999-.22003-1.26001ZM28.5,21.95996l-1.06-.39996-.40002-1.06c-.22998-.58002-.84998-.58002-1.07996,0l-.40002,1.06-1.06.39996c-.28998.12-.39001.36005-.39001.54004s.10004.41998.39001.53998l1.06.40002.40002,1.06c.12.28998.35999.39001.53998.39001s.41998-.10004.53998-.39001l.40002-1.06,1.06-.40002c.28998-.12.39001-.35999.39001-.53998s-.10004-.42004-.39001-.54004ZM27,23h-1v-1h1v1ZM11.5,10.95996l-1.06-.39996-.40002-1.06c-.22998-.58002-.84998-.58002-1.07996,0l-.40002,1.06-1.06.39996c-.28998.12-.39001.36005-.39001.54004s.10004.41998.39001.53998l1.06.40002.40002,1.06c.12.28998.35999.39001.53998.39001s.41998-.10004.53998-.39001l.40002-1.06,1.06-.40002c.28998-.12.39001-.35999.39001-.53998s-.10004-.42004-.39001-.54004ZM10,12h-1v-1h1v1ZM15.5,3.95996l-1.06-.39996-.40002-1.06c-.22998-.58002-.84998-.58002-1.07996,0l-.40002,1.06-1.06.39996c-.28998.12-.39001.36005-.39001.54004s.10004.41998.39001.53998l1.06.40002.40002,1.06c.12.28998.35999.39001.53998.39001s.41998-.10004.53998-.39001l.40002-1.06,1.06-.40002c.28998-.12.39001-.35999.39001-.53998s-.10004-.42004-.39001-.54004ZM14,5h-1v-1h1v1Z"/></svg>