<svg xmlns="http://www.w3.org/2000/svg" viewBox="0 0 24 24"><path d="m14.225 11.151.215 1.245L5.113 22.57a.85.85 0 0 1-.606.276H4.49a.85.85 0 0 1-.6-.25L2.403 21.11a.85.85 0 0 1-.249-.616.86.86 0 0 1 .275-.606l10.176-9.327 1.245.215-10.626 9.74 1.261 1.262zm6.682-.709c-.044.088-.227.377-.695.308l-2.441-.353-1.15 2.183c-.178.334-.432.388-.575.388l-.083-.006c-.099-.016-.428-.103-.508-.566l-.42-2.431-2.43-.42c-.464-.08-.551-.41-.567-.508s-.034-.437.382-.657l2.183-1.15-.353-2.442c-.066-.466.219-.65.308-.695.09-.046.404-.17.744.16l1.767 1.72 2.213-1.09c.421-.206.687.007.757.078s.285.334.077.757L19.027 7.93l1.72 1.767c.328.338.206.655.16.744m-1.65-.84-1.439-1.48.912-1.852-1.852.912-1.48-1.44.294 2.042-1.827.964L15.9 9.1l.352 2.035.964-1.827zM10.97 2.76l-.53-.2-.2-.53c-.21-.55-.59-.61-.74-.61s-.53.06-.74.61l-.2.53-.53.2c-.55.21-.61.59-.61.74s.06.53.61.74l.53.2.2.53c.21.55.59.61.74.61s.53-.06.74-.61l.2-.53.53-.2c.55-.21.61-.59.61-.74s-.06-.53-.61-.74M10 4H9V3h1zM6.97 8.76l-.53-.2-.2-.53c-.21-.55-.59-.61-.74-.61s-.53.06-.74.61l-.2.53-.53.2c-.55.21-.61.59-.61.74s.06.53.61.74l.53.2.2.53c.21.55.59.61.74.61s.53-.06.74-.61l.2-.53.53-.2c.55-.21.61-.59.61-.74s-.06-.53-.61-.74M6 10H5V9h1zm13.97 6.76-.53-.2-.2-.53c-.21-.55-.59-.61-.74-.61s-.53.06-.74.61l-.2.53-.53.2c-.55.21-.61.59-.61.74s.06.53.61.74l.53.2.2.53c.21.55.59.61.74.61s.53-.06.74-.61l.2-.53.53-.2c.55-.21.61-.59.61-.74s-.06-.53-.61-.74M19 18h-1v-1h1z"/><path d="M0 0h24v24H0z" style="fill:none"/></svg>