<?xml version="1.0" encoding="UTF-8"?><svg id="icons" xmlns="http://www.w3.org/2000/svg" viewBox="0 0 16 16"><defs><style>.cls-1{fill:none;}</style></defs><rect class="cls-1" width="16" height="16"/><path d="M9.43359,7.06641l-1.2002-.20703c-.00195-.00031-.00354-.00153-.00549-.00189L.72656,13.57617c-.23633.23633-.23633.62109,0,.85742l1.33984,1.33984c.11621.11621.26758.1748.42188.1748.16016,0,.32421-.06348.4541-.19434l6.70209-7.48376c-.00104-.00574-.00482-.0105-.0058-.01624l-.20508-1.1875ZM2.47949,14.77246l-.75195-.75195,7.19531-6.44336-6.44336,7.19531ZM14.18164,6.79297c.46973.06836.65039-.21973.69629-.30859.04492-.08887.16797-.40625-.16016-.74316l-1.16504-1.19824.7373-1.49902c.20801-.42285-.00684-.68555-.07715-.75684s-.33594-.28418-.75684-.07715l-1.49902.7373-1.19824-1.16504c-.33789-.3291-.6543-.20605-.74316-.16016-.08984.0459-.375.22949-.30859.69629l.23926,1.6543-1.47754.77832c-.41699.21875-.39844.55762-.38379.65723.01562.09863.10253.42773.56738.50879l1.64648.28418.28516,1.64746c.08008.46387.40918.55078.50781.56641.01953.00293.04785.00586.08301.00586.14355,0,.39844-.05371.57422-.38867l.77832-1.47852,1.6543.23926ZM11.37988,6.58691l-.21582-1.25098-1.25098-.21582,1.12305-.59277-.18066-1.25684.91016.88574,1.13867-.56055-.56055,1.13867.88574.91016-1.25684-.18066-.59277,1.12305ZM14.93799,11.5c0,.23682-.15625.43701-.39844.51025l-.40625.12305-.12305.40625c-.07324.24219-.27344.39844-.51025.39844s-.43701-.15625-.51025-.39844l-.12305-.40625-.40625-.12305c-.24219-.07324-.39844-.27344-.39844-.51025s.15625-.43701.39844-.51025l.40625-.12305.12305-.40625c.07324-.24219.27344-.39844.51025-.39844s.43701.15625.51025.39844l.12305.40625.40625.12305c.24219.07324.39844.27344.39844.51025ZM3.06201,5.5c0-.23682.15625-.43701.39844-.51025l.40625-.12305.12305-.40625c.07324-.24219.27344-.39844.51025-.39844s.43701.15625.51025.39844l.12305.40625.40625.12305c.24219.07324.39844.27344.39844.51025s-.15625.43701-.39844.51025l-.40625.12305-.12305.40625c-.07324.24219-.27344.39844-.51025.39844s-.43701-.15625-.51025-.39844l-.12305-.40625-.40625-.12305c-.24219-.07324-.39844-.27344-.39844-.51025ZM5.06201,1.5c0-.23682.15625-.43701.39844-.51025l.40625-.12305.12305-.40625c.07324-.24219.27344-.39844.51025-.39844s.43701.15625.51025.39844l.12305.40625.40625.12305c.24219.07324.39844.27344.39844.51025s-.15625.43701-.39844.51025l-.40625.12305-.12305.40625c-.07324.24219-.27344.39844-.51025.39844s-.43701-.15625-.51025-.39844l-.12305-.40625-.40625-.12305c-.24219-.07324-.39844-.27344-.39844-.51025Z"/></svg>