<svg xmlns="http://www.w3.org/2000/svg" viewBox="0 0 32 32"><path d="M0 0h32v32H0z" style="fill:none"/><path d="m28.29 12.38-2.55-2.63 1.61-3.29c.2-.41-.01-.66-.08-.73s-.32-.28-.73-.08l-3.29 1.61-2.63-2.55c-.33-.32-.64-.19-.72-.15-.09.05-.37.23-.31.67l.52 3.63-3.24 1.71c-.4.22-.38.55-.36.64.01.1.1.42.54.5l3.61.63.63 3.61c.08.44.4.53.5.54.02.01.04.01.08.01.14 0 .39-.05.56-.37l1.71-3.24 3.63.52c.45.05.62-.22.67-.31.04-.08.16-.39-.15-.72m-4.7-.58-1.51 2.85-.56-3.17-3.17-.56 2.85-1.51-.45-3.18 2.31 2.24 2.89-1.42-1.42 2.89 2.24 2.31zm-3.73 1.79L5.98 29.27l-1.76-1.76 15.26-14.36-1.23-.22L3.39 26.92c-.16.15-.25.36-.26.58 0 .21.08.42.24.58l2.05 2.05c.15.15.36.24.57.24q.01 0 .02-.01c.22 0 .43-.1.57-.27l13.5-15.24zm8.64 8.37-1.06-.4-.4-1.06c-.23-.58-.85-.58-1.08 0l-.4 1.06-1.06.4c-.29.12-.39.36-.39.54s.1.42.39.54l1.06.4.4 1.06c.12.29.36.39.54.39s.42-.1.54-.39l.4-1.06 1.06-.4c.29-.12.39-.36.39-.54s-.1-.42-.39-.54M27 23h-1v-1h1zM11.5 10.96l-1.06-.4-.4-1.06c-.23-.58-.85-.58-1.08 0l-.4 1.06-1.06.4c-.29.12-.39.36-.39.54s.1.42.39.54l1.06.4.4 1.06c.12.29.36.39.54.39s.42-.1.54-.39l.4-1.06 1.06-.4c.29-.12.39-.36.39-.54s-.1-.42-.39-.54M10 12H9v-1h1zm5.5-8.04-1.06-.4-.4-1.06c-.23-.58-.85-.58-1.08 0l-.4 1.06-1.06.4c-.29.12-.39.36-.39.54s.1.42.39.54l1.06.4.4 1.06c.12.29.36.39.54.39s.42-.1.54-.39l.4-1.06 1.06-.4c.29-.12.39-.36.39-.54s-.1-.42-.39-.54M14 5h-1V4h1z"/></svg>