<?xml version="1.0" encoding="UTF-8"?><svg id="icons" xmlns="http://www.w3.org/2000/svg" viewBox="0 0 24 24"><defs><style>.cls-1{fill:none;}</style></defs><path d="M14.22534,11.151l.2149,1.24469-9.32697,10.1756c-.15625.16992-.37695.27051-.60645.27539h-.0166c-.22363,0-.44141-.08984-.59961-.24902l-1.48828-1.48828c-.16309-.16309-.25391-.3877-.24902-.61621.00488-.22949.10547-.4502.27441-.60645l10.1759-9.32648,1.24524.21454L3.22266,20.51562l1.26172,1.26172,9.74097-10.62634ZM20.90723,10.44238c-.04395.08789-.22754.37695-.69531.30762l-2.44141-.35254-1.15039,2.18262c-.17676.33398-.43066.3877-.57422.3877-.03516,0-.06348-.00293-.08301-.00586-.09863-.01562-.42773-.10254-.50781-.56641l-.41992-2.43066-2.42969-.41895c-.46484-.08105-.55176-.41016-.56738-.50879s-.03418-.4375.38184-.65723l2.18262-1.15039-.35254-2.44141c-.06641-.46582.21875-.65039.30762-.69531.08984-.0459.4043-.16992.74414.16016l1.76758,1.71973,2.21289-1.08887c.4209-.20703.68652.00586.75684.07715s.28516.33398.07715.75684l-1.08887,2.21289,1.71973,1.76758c.32812.33789.20605.6543.16016.74414ZM19.25781,9.60156l-1.43945-1.47949.91211-1.85254-1.85254.91211-1.47949-1.43945.29395,2.04199-1.82715.96387,2.03516.35156.35156,2.03516.96387-1.82715,2.04199.29395ZM10.96997,2.76001l-.52997-.20001-.20001-.53003c-.20996-.54999-.58997-.60999-.73999-.60999s-.53003.06-.73999.60999l-.20001.53003-.52997.20001c-.55005.20996-.61005.58997-.61005.73999,0,.14996.06.52997.61005.73999l.52997.20001.20001.52997c.20996.54999.58997.60999.73999.60999s.53003-.06.73999-.60999l.20001-.52997.52997-.20001c.55005-.21002.61005-.59003.61005-.73999,0-.15002-.06-.53003-.61005-.73999ZM10,4h-1v-1h1v1ZM6.96997,8.76001l-.52997-.20001-.20001-.53003c-.20996-.54999-.58997-.60999-.73999-.60999s-.53003.06-.73999.60999l-.20001.53003-.52997.20001c-.55005.20996-.61005.58997-.61005.73999,0,.14996.06.52997.61005.73999l.52997.20001.20001.52997c.20996.54999.58997.60999.73999.60999s.53003-.06.73999-.60999l.20001-.52997.52997-.20001c.55005-.21002.61005-.59003.61005-.73999,0-.15002-.06-.53003-.61005-.73999ZM6,10h-1v-1h1v1ZM19.96997,16.76001l-.52997-.20001-.20001-.53003c-.20996-.54999-.58997-.60999-.73999-.60999s-.53003.06-.73999.60999l-.20001.53003-.52997.20001c-.55005.20996-.61005.58997-.61005.73999,0,.14996.06.52997.61005.73999l.52997.20001.20001.52997c.20996.54999.58997.60999.73999.60999s.53003-.06.73999-.60999l.20001-.52997.52997-.20001c.55005-.21002.61005-.59003.61005-.73999,0-.15002-.06-.53003-.61005-.73999ZM19,18h-1v-1h1v1Z"/><rect class="cls-1" width="24" height="24"/></svg>