<svg xmlns="http://www.w3.org/2000/svg" viewBox="0 0 16 16"><path d="M0 0h16v16H0z" style="fill:none"/><path d="m9.434 7.066-1.2-.207-.006-.002-7.501 6.72a.607.607 0 0 0 0 .857l1.34 1.34a.6.6 0 0 0 .421.174.64.64 0 0 0 .454-.194L9.644 8.27l-.005-.016zm-6.955 7.706-.751-.751 7.195-6.444zm11.703-7.979c.47.068.65-.22.696-.309.045-.088.168-.406-.16-.743l-1.165-1.198.737-1.499c.208-.423-.007-.686-.077-.757s-.336-.284-.757-.077l-1.499.737-1.198-1.165c-.338-.329-.655-.206-.743-.16-.09.046-.375.23-.309.696l.24 1.655-1.478.778c-.417.219-.399.558-.384.657s.102.428.567.509l1.647.284.285 1.648c.08.464.41.55.508.566q.03.005.083.006c.143 0 .398-.054.574-.389l.778-1.478zm-2.802-.206-.216-1.251-1.25-.216 1.122-.593-.18-1.257.91.886 1.138-.56-.56 1.138.885.91-1.256-.18zm3.558 4.913a.534.534 0 0 1-.398.51l-.407.123-.123.407c-.073.242-.273.398-.51.398s-.437-.156-.51-.398l-.123-.407-.407-.123c-.242-.073-.398-.273-.398-.51s.156-.437.398-.51l.407-.123.123-.407c.073-.242.273-.398.51-.398s.437.156.51.398l.123.407.407.123a.534.534 0 0 1 .398.51m-11.876-6c0-.237.156-.437.398-.51l.407-.123.123-.407c.073-.242.273-.398.51-.398s.437.156.51.398l.123.407.407.123c.242.073.398.273.398.51s-.156.437-.398.51l-.407.123-.123.407c-.073.242-.273.398-.51.398s-.437-.156-.51-.398l-.123-.407-.407-.123a.534.534 0 0 1-.398-.51m2-4c0-.237.156-.437.398-.51l.407-.123L5.99.46c.073-.242.273-.398.51-.398s.437.156.51.398l.123.407.407.123c.242.073.398.273.398.51s-.156.437-.398.51l-.407.123-.123.407c-.073.242-.273.398-.51.398s-.437-.156-.51-.398l-.123-.407-.407-.123a.534.534 0 0 1-.398-.51"/></svg>