<svg xmlns="http://www.w3.org/2000/svg" viewBox="0 0 32 32"><path d="M31 28v2H2V1h2v1H3v3h1v1H3v3h1v1H3v3h1v1H3v3h1v1H3v3h1v1H3v3h1v1H3v3h3v-1h1v1h3v-1h1v1h3v-1h1v1h3v-1h1v1h3v-1h1v1h3v-1h1v1h3v-1zm-15.66-3H7V3h22v22zM28 18.202a2.3 2.3 0 0 1-.785.22l-1.355.005a2 2 0 0 1-1.415-.461 2.2 2.2 0 0 1-.493-.681l-.088.124a1.64 1.64 0 0 1-1.347.863 1.9 1.9 0 0 1-.71-.157 1 1 0 0 0-.11-.038v.478a1.67 1.67 0 0 1-.59 1.212 3 3 0 0 0-.117.122 1.14 1.14 0 0 1 .227.672 1.66 1.66 0 0 1-1.037 1.443 10 10 0 0 0-.29.168 1 1 0 0 1-.007.108l.326.148v.512a4.5 4.5 0 0 1-.236 1.06H28zM28 4h-3.628a.84.84 0 0 1-.43.595l-.172.09c-.528.276-1.177.614-1.25.903a3 3 0 0 0 .271.35 2.6 2.6 0 0 1 .27.36 1.3 1.3 0 0 1 .173.421.85.85 0 0 1-.359.844l-.09.076a4 4 0 0 1-.264.204 1.6 1.6 0 0 0-.334.29.5.5 0 0 0-.024.162 1.7 1.7 0 0 0 .041.298.87.87 0 0 1-.15.678.86.86 0 0 1-.593.347.78.78 0 0 0-.447.288.44.44 0 0 0-.137.292l.017.082c.117.572.338 1.644-.603 2.15a1.8 1.8 0 0 0-.523.705l-.098.182a1.7 1.7 0 0 1-.502.645.84.84 0 0 1-.878.038 3 3 0 0 1-.245-.17 4 4 0 0 1-.214-.175c-.11-.097-.262-.23-.345-.23a.57.57 0 0 0-.529.603c0 .616-.511 1.547-1.282 1.547a1.04 1.04 0 0 1-1.013-.53c-.294-.522-.461-.715-.798-.715a.797.797 0 0 0-.754.831 1.6 1.6 0 0 0 .07.437 2 2 0 0 1 .08.506 1.5 1.5 0 0 1-.242.754 1.3 1.3 0 0 0-.21.642.49.49 0 0 0 .528.415 1.3 1.3 0 0 0 .517-.115l.134-.05a.9.9 0 0 1 .276-.046.846.846 0 0 1 .846.846 1.53 1.53 0 0 1-.597 1.05l-.152.148c-.523.497-.643.706-.428 1.134.017.033.136.208.85.375a5 5 0 0 1 .518.143.846.846 0 0 1 .552.878 2.7 2.7 0 0 1-.152.64l-.05.143a2.6 2.6 0 0 0-.2.926l-.002.013h3.645a6.5 6.5 0 0 0 .27-1.053.85.85 0 0 1-.32-.766.86.86 0 0 1 .36-.701c.027-.02.227-.137.36-.212.413-.232.608-.397.608-.707a.3.3 0 0 0-.07-.18.846.846 0 0 1 .06-1.06c.042-.045.097-.102.14-.145a.86.86 0 0 0 .35-.62v-.479a.847.847 0 0 1 1.067-.817 2 2 0 0 1 .2.068 1.1 1.1 0 0 0 .399.098c.257 0 .41-.155.654-.503l.09-.125a.86.86 0 0 1 .69-.354l.06.002a.85.85 0 0 1 .691.449 1.5 1.5 0 0 0 .301.435 1.18 1.18 0 0 0 .858.25l1.354-.005a2.7 2.7 0 0 0 .456-.152l.185-.071a1 1 0 0 1 .144-.026zM14.615 24a3.5 3.5 0 0 1 .238-1.222l.048-.137a2 2 0 0 0 .11-.446 4 4 0 0 0-.421-.114 2.07 2.07 0 0 1-1.415-.82c-.582-1.162.321-1.843.728-2.248.16-.16.36-.36.36-.457v-.006l-.102.038a2.1 2.1 0 0 1-.825.173 1.323 1.323 0 0 1-1.374-1.26 2.1 2.1 0 0 1 .315-1.05.76.76 0 0 0 .137-.347 1 1 0 0 0-.052-.286 2.5 2.5 0 0 1-.098-.656 1.64 1.64 0 0 1 1.6-1.678 1.78 1.78 0 0 1 1.547 1.17c.014.026.042.075.264.075.184 0 .436-.447.436-.7a1.415 1.415 0 0 1 1.375-1.45 1.72 1.72 0 0 1 1.045.56c.057.042.141.107.167.12a1.7 1.7 0 0 0 .235-.358 2.8 2.8 0 0 1 .957-1.215c.292-.157.334-.459.174-1.24l-.017-.086a1.2 1.2 0 0 1 .316-.994 1.6 1.6 0 0 1 1.015-.59l-.005-.024a2.6 2.6 0 0 1-.057-.457 1.4 1.4 0 0 1 .072-.441c.136-.404.605-.652.817-.833a3 3 0 0 1 .195-.158 1 1 0 0 0-.076-.15c-.105-.187-.657-.674-.657-1.073 0-.773.764-1.208 1.59-1.64H8v20z"/><path fill="none" d="M0 0h32v32H0z"/></svg>