<svg xmlns="http://www.w3.org/2000/svg" viewBox="0 0 32 32"><path d="M24 21a3 3 0 1 0 3 3 3 3 0 0 0-3-3m0 5a2 2 0 1 1 2-2 2 2 0 0 1-2 2m-11.015 1.803a3.1 3.1 0 0 1 .238-1.095l.06-.168a3.2 3.2 0 0 0 .179-.756 1 1 0 0 0-.653-1.039 6 6 0 0 0-.612-.168c-.844-.198-.985-.404-1.005-.443-.254-.506-.112-.753.506-1.341l.18-.174a1.8 1.8 0 0 0 .705-1.241 1 1 0 0 0-1.325-.946l-.16.06a1.5 1.5 0 0 1-.61.134.577.577 0 0 1-.624-.49 1.53 1.53 0 0 1 .248-.758 1.75 1.75 0 0 0 .286-.892 2.3 2.3 0 0 0-.094-.597 2 2 0 0 1-.083-.516.94.94 0 0 1 .891-.982c.398 0 .596.227.943.845a1.23 1.23 0 0 0 1.197.625c.911 0 1.516-1.1 1.516-1.827a.674.674 0 0 1 .625-.713c.098 0 .277.157.407.27.083.073.158.138.253.21a4 4 0 0 0 .29.2 1 1 0 0 0 1.037-.045 2 2 0 0 0 .594-.764l.116-.214a2.14 2.14 0 0 1 .618-.832c1.111-.6.85-1.866.712-2.542l-.02-.098a.52.52 0 0 1 .162-.344.92.92 0 0 1 .528-.34 1 1 0 0 0 .7-.41 1.03 1.03 0 0 0 .179-.802 2 2 0 0 1-.05-.352.6.6 0 0 1 .03-.193 2 2 0 0 1 .394-.34c.105-.077.2-.147.312-.243l.107-.089a1 1 0 0 0 .423-.997 1.5 1.5 0 0 0-.204-.499 3 3 0 0 0-.319-.424 4 4 0 0 1-.321-.415c.087-.34.854-.74 1.478-1.066l.204-.107A.99.99 0 0 0 23.547 4H28v12.551l.332-.15h.003a.85.85 0 0 1 .665-.079V3H3v26h13.345v-.006a1.2 1.2 0 0 1 .007-.303 1.1 1.1 0 0 1 .09-.32l.17-.371h-3.646a1 1 0 0 0 .02-.197zm-.647-1.59-.058.162a4 4 0 0 0-.295 1.428l-.012.063-.015.134H4V3.991h18.559c-1.098.577-2.226 1.107-2.226 2.129 0 .471.653 1.047.777 1.268a1 1 0 0 1 .09.177 3 3 0 0 0-.23.187c-.252.214-.805.507-.966.985a1.6 1.6 0 0 0-.085.52 3 3 0 0 0 .067.54l.006.03a1.9 1.9 0 0 0-1.2.696 1.42 1.42 0 0 0-.373 1.175l.02.102c.19.923.14 1.28-.206 1.465a3.3 3.3 0 0 0-1.13 1.437 2 2 0 0 1-.279.423c-.03-.016-.13-.093-.196-.143a2.03 2.03 0 0 0-1.236-.661 1.67 1.67 0 0 0-1.625 1.713c0 .3-.298.828-.515.828-.263 0-.295-.058-.312-.09a2.11 2.11 0 0 0-1.828-1.381 1.94 1.94 0 0 0-1.891 1.982 3 3 0 0 0 .116.775 1.3 1.3 0 0 1 .061.339.9.9 0 0 1-.161.41 2.5 2.5 0 0 0-.373 1.24 1.563 1.563 0 0 0 1.625 1.49 2.5 2.5 0 0 0 .974-.204l.12-.045v.006c0 .116-.236.35-.425.54-.48.48-1.548 1.284-.86 2.658a2.45 2.45 0 0 0 1.672.968 5 5 0 0 1 .496.135 2.3 2.3 0 0 1-.128.527zm17.532-.342 2.13-.789-.008-2.222-2.201-.838-.319-.848.95-2.066-1.577-1.566-2.149.965-.826-.376-.789-2.13-2.221.007-.838 2.202-.848.318-2.066-.95-1.566 1.577.965 2.15-.376.825-2.13.79.007 2.22 2.202.838.318.849-.95 2.066 1.577 1.565 2.15-.965.824.377.79 2.13 2.221-.008.838-2.201.849-.319 2.066.95 1.565-1.577-.965-2.149zm-1.214 3.373-1.81-.831-1.608.59-.758 1.993-.897.003-.691-1.864-1.555-.721-1.945.873-.636-.631.831-1.81L19 25.24l-1.995-.76-.004-.895 1.866-.692.721-1.555-.874-1.945.632-.636 1.809.832 1.608-.59.758-1.994.897-.004.69 1.866 1.556.72 1.945-.873.636.633-.831 1.808.588 1.607 1.995.76.003.896-1.865.692-.722 1.552.875 1.948z"/><path fill="none" d="M0 0h32v32H0z"/></svg>