<svg xmlns="http://www.w3.org/2000/svg" viewBox="0 0 16 16"><path d="M1 1v14h14V1zm9.082 13c-.005-.037-.113-.274-.122-.309a1.5 1.5 0 0 0 .718-1.267 1.2 1.2 0 0 0-.053-.358 1.6 1.6 0 0 0 .326-.607q.046.003.093.003a1.4 1.4 0 0 0 .836-.266 2 2 0 0 0 .126.124 2.38 2.38 0 0 0 1.564.68H14v2zM14 11h-.43a1.46 1.46 0 0 1-.906-.433c-.264-.23-.258-.782-.617-.782-.482 0-.52.677-1.003.677-.219 0-.38-.177-.599-.177-.193 0-.445.102-.445.293v.502c0 .424-.506.508-.506.934 0 .171.184.236.184.41 0 .58-.893.502-.893 1.08 0 .191.215.305.215.486V14H6.375a1.6 1.6 0 0 0 .09-.502c0-.547-1.043-.393-1.207-.72-.407-.813.693-1.022.693-1.673 0-.16-.082-.488-.334-.513-.351-.035-.443.154-.797.154a.406.406 0 0 1-.437-.36c0-.386.308-.566.308-.952 0-.25-.102-.393-.102-.643a.62.62 0 0 1 .59-.643c.323 0 .464.264.618.54a.64.64 0 0 0 .617.308c.49 0 .798-.61.798-.977a.47.47 0 0 1 .437-.488c.347 0 .476.36.824.36.57 0 .55-.756 1.053-1.03.618-.332.438-1.052.36-1.44-.032-.169.29-.5.464-.487.72.05.412-.54.412-.823a.4.4 0 0 1 .022-.142c.111-.332.595-.438.595-.836 0-.281-.233-.41-.233-.693a.65.65 0 0 1 .22-.44H14zM2 14V2h8.278c-.013.077-.132.356-.132.44a1.5 1.5 0 0 0 .112.567 1.6 1.6 0 0 0-.422.643 1.4 1.4 0 0 0-.074.442 1.7 1.7 0 0 0-.536.43 1.32 1.32 0 0 0-.32 1.091 3 3 0 0 1 .066.414 2 2 0 0 0-.649.67 1.46 1.46 0 0 0-.674-.166 1.45 1.45 0 0 0-1.383 1.086 1.44 1.44 0 0 0-1.086-.469 1.62 1.62 0 0 0-1.591 1.643c0 .254.113.293.084.574s-.29.535-.29 1.022a1.37 1.37 0 0 0 .984 1.29 1.58 1.58 0 0 0-.003 1.549c.143.286.636.774.534.774z"/><path fill="none" d="M0 0h16v16H0z"/></svg>