<svg xmlns="http://www.w3.org/2000/svg" viewBox="0 0 24 24"><path d="M5 19h17V2H5zm10.16-1 .035-.08c.233-.536.263-.609.263-.758a.92.92 0 0 0-.244-.556c-.032-.043-.074-.112-.092-.1a1.2 1.2 0 0 1 .36-.135c.326-.09.933-.257.933-.899a.9.9 0 0 0-.282-.578c-.037-.042-.091-.103-.092-.063 0-.078.04-.129.184-.275a1.14 1.14 0 0 0 .413-.826v-.518a.4.4 0 0 1 .32.041 1.2 1.2 0 0 0 .517.14 1.25 1.25 0 0 0 .836-.325.6.6 0 0 1 .314-.17 1 1 0 0 1 .13.251 1.55 1.55 0 0 0 .372.586 2.18 2.18 0 0 0 1.328.687 3 3 0 0 0 .434-.044c.037-.006.074-.007.111-.012V18zM21 13.573c-.095.012-.184.02-.234.028a2 2 0 0 1-.31.035c-.252 0-.587-.296-.81-.492a1 1 0 0 1-.169-.306c-.114-.266-.307-.713-.818-.713a1.25 1.25 0 0 0-.835.325.5.5 0 0 1-.349.158.6.6 0 0 1-.186-.068 1.2 1.2 0 0 0-.52-.14.84.84 0 0 0-.917.738v.592c0 .077-.04.127-.184.272a1.14 1.14 0 0 0-.413.83.9.9 0 0 0 .28.574c.029.033.068.079.087.083a1.5 1.5 0 0 1-.35.125c-.348.096-.932.256-.932.896a.96.96 0 0 0 .25.575l.07.09c-.04.098-.11.258-.186.43l-.17.395h-2.15a2.2 2.2 0 0 1 .127-.514l.042-.12a2.3 2.3 0 0 0 .146-.784c0-.685-.688-.846-1.1-.942l-.365-.085c-.137-.271-.07-.381.28-.73a1.5 1.5 0 0 0 .579-1.065.94.94 0 0 0-.748-.996 1.3 1.3 0 0 0-.673.108.75.75 0 0 1-.306.071.2.2 0 0 1-.123-.03.77.77 0 0 1 .135-.374 1.5 1.5 0 0 0 .23-.75 1.8 1.8 0 0 0-.074-.479 1 1 0 0 1-.047-.28.34.34 0 0 1 .303-.364c.123 0 .193.093.384.433a1.13 1.13 0 0 0 1.072.567c.814 0 1.333-.915 1.333-1.545 0-.09.063-.183.123-.183.066 0 .124.039.248.133a1.15 1.15 0 0 0 .723.291 1.2 1.2 0 0 0 1.05-.784 1.17 1.17 0 0 1 .38-.477 1.71 1.71 0 0 0 .637-2.057c.038-.063.126-.156.12-.17a.93.93 0 0 0 .802-.253 1.04 1.04 0 0 0 .132-.927.8.8 0 0 1-.023-.224.8.8 0 0 1 .222-.237 1.14 1.14 0 0 0 .5-.875 1.17 1.17 0 0 0-.186-.601.46.46 0 0 1-.087-.217c0-.037.066-.244.522-.54H21zM6 3h11.377a1 1 0 0 0-.173.54 1.17 1.17 0 0 0 .188.604.46.46 0 0 1 .086.214c0 .072-.054.13-.226.277a1.34 1.34 0 0 0-.456.584 1 1 0 0 0-.046.293 2 2 0 0 0 .042.33c.015.083.046.237.077.237a.4.4 0 0 1-.185.01.98.98 0 0 0-.716.373.83.83 0 0 0-.23.738c.13.631.13 1.01-.239 1.21a1.8 1.8 0 0 0-.69.782c-.183.323-.241.384-.366.384-.066 0-.124-.039-.249-.133a1.15 1.15 0 0 0-.722-.291.94.94 0 0 0-.909.969c0 .253-.236.758-.547.758-.295 0-.353-.105-.396-.183a1.23 1.23 0 0 0-1.06-.816 1.123 1.123 0 0 0-1.09 1.15 1.8 1.8 0 0 0 .073.479 1 1 0 0 1 .048.28.77.77 0 0 1-.134.374 1.5 1.5 0 0 0-.23.75.867.867 0 0 0 .91.817 1.5 1.5 0 0 0 .59-.125.7.7 0 0 1 .275-.071h.006a.4.4 0 0 1 .069.226c0 .15-.132.292-.347.508a1.29 1.29 0 0 0-.43 1.64 1.2 1.2 0 0 0 .89.497c.155.036.446.104.493.177a1.5 1.5 0 0 1-.103.528l-.04.11a2.8 2.8 0 0 0-.174.78H6zm15 19h2v1H1V1h1v2h1v1H2v3h1v1H2v3h1v1H2v3h1v1H2v3h1v1H2v2h2v-1h1v1h3v-1h1v1h3v-1h1v1h3v-1h1v1h3v-1h1z"/><path fill="none" d="M0 0h24v24H0z"/></svg>