<?xml version="1.0" encoding="UTF-8"?><svg id="icons" xmlns="http://www.w3.org/2000/svg" viewBox="0 0 16 16"><defs><style>.cls-1{fill:none;}</style></defs><rect class="cls-1" width="16" height="16"/><path d="M5.25781,12.77728c-.29517-.58899.19952-.86176.49536-1.21448-.00024-.02118-.00317-.04163-.00317-.06281,0-.26947.02509-.53253.06116-.79224-.04962-.05908-.10925-.10742-.19397-.11597-.35162-.03522-.44342.1543-.79688.1543-.21875,0-.4375-.14264-.4375-.35944,0-.38666.30859-.56635.30859-.95306,0-.25-.10254-.39264-.10254-.64264,0-.33978.25092-.64258.59082-.64258.32233,0,.46289.26373.61719.53912.11554.20819.30994.28717.53839.30212.71606-1.46625,2.03448-2.5824,3.63403-3.02539-.00995-.20245-.05341-.39624-.08258-.54236-.0332-.16986.2901-.5.46289-.48828.7207.05078.41211-.53912.41211-.82233,0-.05267.00775-.09961.02246-.14246.11133-.33215.59473-.4375.59473-.836,0-.28125-.23242-.4101-.23242-.6933,0-.15253.08386-.29938.22003-.43951h2.63348v4.33099c.35535.17255.68994.37939,1,.61835V1H1v14h5.94818c-.4386-.56921-.77295-1.2207-.97467-1.92938-.29517-.07935-.6286-.11914-.7157-.29333ZM2,14V2h8.27777c-.0127.07715-.13129.35645-.13129.43945,0,.22852.05078.41797.11133.56738-.15137.14648-.32422.35254-.42188.64355-.04688.1377-.07227.28711-.07422.44141-.27051.13477-.44924.3252-.53613.43066-.27832.33789-.3916.72559-.32031,1.09082.02734.13672.0625.30859.06641.41406-.31543.19336-.51074.44824-.64844.66895-.18262-.09277-.4043-.16504-.67383-.16504-.6582,0-1.21484.45996-1.38379,1.08594-.24121-.25293-.58398-.46875-1.08594-.46875-.87695,0-1.59082.7373-1.59082,1.64258,0,.25391.11346.29291.08398.57422s-.29004.53479-.29004,1.02148c0,.59961.41309,1.11035.98438,1.29004-.20996.38379-.32422.9082-.00293,1.54883.14258.28613.63574.77441.53351.77441h-2.89777ZM11.5,7.00604c-2.48212,0-4.49432,2.01221-4.49432,4.49432s2.01221,4.49432,4.49432,4.49432,4.49432-2.01221,4.49432-4.49432-2.01221-4.49432-4.49432-4.49432ZM11.5,14.98926c-1.9303,0-3.5-1.56543-3.5-3.48926s1.5697-3.48828,3.5-3.48828,3.5,1.56445,3.5,3.48828-1.5697,3.48926-3.5,3.48926ZM12,10h-1v-1h1v1ZM12,13h1v1h-3v-1h1v-2h1v2Z"/></svg>