<svg xmlns="http://www.w3.org/2000/svg" viewBox="0 0 16 16"><path d="M15 1H3v12h12zm-4.32 10.878a1.28 1.28 0 0 0 .615-1.086 1 1 0 0 0-.045-.307 1.4 1.4 0 0 0 .28-.52l.08.002a1.2 1.2 0 0 0 .716-.227 1 1 0 0 0 .108.106 2.04 2.04 0 0 0 1.34.583H14V12h-3.27a2 2 0 0 1-.05-.122M14 9.571h-.225a1.25 1.25 0 0 1-.777-.37c-.226-.198-.221-.67-.53-.67-.413 0-.445.58-.859.58-.187 0-.325-.152-.513-.152-.166 0-.382.087-.382.25v.431c0 .363-.433.435-.433.8 0 .148.157.203.157.352 0 .497-.765.43-.765.926 0 .111.084.193.138.282H7.648a1.2 1.2 0 0 0 .037-.287c0-.47-.895-.337-1.035-.618-.35-.697.594-.876.594-1.433 0-.138-.07-.419-.286-.44-.302-.03-.38.132-.683.132a.35.35 0 0 1-.375-.308c0-.332.264-.486.264-.817 0-.215-.088-.337-.088-.551a.53.53 0 0 1 .507-.55c.276 0 .396.225.529.461a.55.55 0 0 0 .529.265c.419 0 .683-.523.683-.837a.404.404 0 0 1 .375-.419c.298 0 .408.308.706.308.49 0 .472-.648.903-.882.53-.285.375-.902.31-1.234-.03-.145.248-.428.396-.418.618.043.353-.462.353-.705a.4.4 0 0 1 .02-.122c.095-.285.51-.375.51-.717 0-.24-.2-.351-.2-.594A.45.45 0 0 1 11.779 2H14zM4 12V1.99h6.907a1.2 1.2 0 0 0-.067.244 1.3 1.3 0 0 0 .095.486 1.4 1.4 0 0 0-.361.552 1.2 1.2 0 0 0-.064.378 1.4 1.4 0 0 0-.46.37 1.13 1.13 0 0 0-.274.934 3 3 0 0 1 .057.355 1.7 1.7 0 0 0-.556.574A1.25 1.25 0 0 0 8.7 5.74a1.24 1.24 0 0 0-1.187.93 1.24 1.24 0 0 0-.93-.401 1.39 1.39 0 0 0-1.364 1.408c0 .218.097.251.072.492s-.249.459-.249.876a1.175 1.175 0 0 0 .844 1.106 1.36 1.36 0 0 0-.002 1.327 4 4 0 0 0 .382.521zm11 2h1v2H0V0h2v1H1v2h1v1H1v2h1v1H1v2h1v1H1v2h1v1H1v2h2v-1h1v1h2v-1h1v1h2v-1h1v1h2v-1h1v1h2z"/><path fill="none" d="M0 0h16v16H0z"/></svg>