<svg xmlns="http://www.w3.org/2000/svg" viewBox="0 0 16 16"><path d="M7.62 14H6.376a1.545 1.545 0 0 0 .09-.502c0-.547-1.043-.393-1.207-.72-.407-.813.693-1.022.693-1.673 0-.16-.082-.488-.334-.513-.351-.035-.443.154-.797.154a.406.406 0 0 1-.437-.36c0-.386.308-.566.308-.952 0-.25-.102-.393-.102-.643a.619.619 0 0 1 .59-.643c.323 0 .464.264.618.54a.642.642 0 0 0 .617.308c.49 0 .798-.61.798-.977a.471.471 0 0 1 .437-.488c.347 0 .476.36.824.36.57 0 .55-.756 1.053-1.03.618-.332.438-1.052.36-1.44-.032-.169.29-.5.464-.487.72.05.412-.54.412-.823a.434.434 0 0 1 .022-.142c.111-.332.595-.438.595-.836 0-.281-.233-.41-.233-.693a.653.653 0 0 1 .22-.44H14v5.621a1.253 1.253 0 0 1 .435-.091 1.236 1.236 0 0 1 .565.154V1H1v14h6.672a1.242 1.242 0 0 1-.051-1zM2 14V2h8.278c-.013.077-.132.356-.132.44a1.496 1.496 0 0 0 .112.567 1.6 1.6 0 0 0-.422.643 1.428 1.428 0 0 0-.074.442 1.676 1.676 0 0 0-.536.43 1.317 1.317 0 0 0-.32 1.091 3.213 3.213 0 0 1 .066.414 1.987 1.987 0 0 0-.649.67 1.462 1.462 0 0 0-.674-.166 1.447 1.447 0 0 0-1.383 1.086 1.443 1.443 0 0 0-1.086-.469 1.62 1.62 0 0 0-1.591 1.643c0 .254.113.293.084.574s-.29.535-.29 1.022a1.371 1.371 0 0 0 .984 1.29 1.583 1.583 0 0 0-.003 1.549c.143.286.636.774.534.774zm14-1.442v-1.117l-1.217-.47q-.05-.135-.112-.263l.535-1.163-.771-.765-1.194.527q-.13-.06-.265-.107L12.532 8h-1.087l-.47 1.22q-.135.05-.264.113l-1.163-.535-.764.771.526 1.194q-.06.13-.106.265l-1.2.444v1.056l1.2.444q.047.136.106.265l-.526 1.194.764.771 1.163-.535q.129.063.263.113l.471 1.22h1.087l.444-1.2q.136-.047.265-.107l1.194.527.77-.765-.534-1.163q.062-.128.112-.262zm-1.817-.164a2.205 2.205 0 0 1-.355.862l.365.793-.161.159-.768-.386a2.207 2.207 0 0 1-.86.36l-.303.818h-.226l-.27-.817a2.205 2.205 0 0 1-.861-.354l-.793.364-.159-.16.385-.768a2.205 2.205 0 0 1-.358-.86L9 12.103v-.204l.818-.304a2.206 2.206 0 0 1 .358-.859l-.385-.768.16-.16.792.364a2.206 2.206 0 0 1 .862-.354l.27-.817h.226l.302.819a2.206 2.206 0 0 1 .86.359l.768-.386.161.16-.365.792a2.206 2.206 0 0 1 .355.862l.815.27v.248zM13 12a1 1 0 1 1-1-1 1 1 0 0 1 1 1z"/><path fill="none" d="M0 0h16v16H0z"/></svg>