<svg xmlns="http://www.w3.org/2000/svg" viewBox="0 0 24 24"><path d="M10.407 20.976a2.118 2.118 0 0 1 .17-.755l.048-.14a2.707 2.707 0 0 0 .173-.922 1.235 1.235 0 0 1-.046-.296c-.173-.557-.83-.714-1.248-.811l-.429-.1c-.16-.319-.081-.448.33-.859a1.78 1.78 0 0 0 .68-1.25 1.107 1.107 0 0 0-.88-1.172 1.502 1.502 0 0 0-.79.128.878.878 0 0 1-.36.083.258.258 0 0 1-.144-.036.9.9 0 0 1 .158-.44 1.755 1.755 0 0 0 .27-.88 2.126 2.126 0 0 0-.086-.563 1.236 1.236 0 0 1-.056-.329.4.4 0 0 1 .356-.428c.145 0 .228.109.452.509a1.33 1.33 0 0 0 1.26.666c.956 0 1.567-1.076 1.567-1.816 0-.105.074-.215.144-.215.078 0 .146.045.292.156a1.356 1.356 0 0 0 .85.342 1.408 1.408 0 0 0 1.234-.921 1.372 1.372 0 0 1 .446-.56 2.01 2.01 0 0 0 .748-2.418c.046-.075.15-.184.141-.2a1.091 1.091 0 0 0 .943-.297 1.224 1.224 0 0 0 .156-1.09.946.946 0 0 1-.027-.264.925.925 0 0 1 .26-.278 1.34 1.34 0 0 0 .59-1.029 1.374 1.374 0 0 0-.22-.706.54.54 0 0 1-.103-.255c0-.051.101-.373.921-.818L18.231 3H21v9.077l.135-.06a1.076 1.076 0 0 1 .846-.042V2.02H2.021v19.96h9.961a1.237 1.237 0 0 1 .068-.823l.072-.157h-1.715zm-.655-1.196l-.046.13a2.985 2.985 0 0 0-.223 1.066V21H3V3h13.709a1.277 1.277 0 0 0-.347.83 1.375 1.375 0 0 0 .221.71.538.538 0 0 1 .102.251c0 .085-.064.153-.266.326a1.578 1.578 0 0 0-.536.687 1.085 1.085 0 0 0-.054.343 2.152 2.152 0 0 0 .05.388c.018.098.054.28.09.28a.496.496 0 0 1-.218.011 1.15 1.15 0 0 0-.84.438.972.972 0 0 0-.27.868c.151.742.151 1.188-.282 1.421a2.138 2.138 0 0 0-.812.92c-.214.38-.283.451-.429.451-.079 0-.146-.045-.293-.156a1.35 1.35 0 0 0-.849-.342 1.106 1.106 0 0 0-1.068 1.139c0 .298-.278.892-.644.892-.346 0-.414-.124-.465-.216a1.45 1.45 0 0 0-1.246-.96 1.32 1.32 0 0 0-1.28 1.353 2.126 2.126 0 0 0 .086.563 1.234 1.234 0 0 1 .056.328.9.9 0 0 1-.158.44 1.754 1.754 0 0 0-.27.881 1.02 1.02 0 0 0 1.068.96 1.788 1.788 0 0 0 .695-.146.808.808 0 0 1 .323-.084h.007a.496.496 0 0 1 .08.267c0 .176-.154.343-.407.596a1.52 1.52 0 0 0-.505 1.928 1.413 1.413 0 0 0 1.045.585c.184.042.525.121.58.207a1.807 1.807 0 0 1-.121.621zM18 16a2 2 0 1 0 2 2 2 2 0 0 0-2-2zm0 3a1 1 0 1 1 1-1 1 1 0 0 1-1 1zm6-.198v-1.65l-1.66-.636-.235-.653.705-1.538-1.166-1.167-1.624.724-.628-.296-.59-1.586h-1.65l-.636 1.66-.653.235-1.543-.71-1.166 1.168.727 1.627-.295.628-1.586.59v1.65l1.66.636.235.653-.71 1.543 1.168 1.166 1.627-.727.628.295.59 1.586h1.65l.636-1.66.653-.235 1.543.71 1.162-1.171-.724-1.624.296-.628zm-2.24 2.512l-.41.413-1.28-.588-1.207.434L18.315 23h-.581l-.491-1.32-1.16-.544-1.4.627-.412-.411.59-1.283-.434-1.206L13 18.315v-.581l1.32-.491.544-1.16-.627-1.4.411-.412 1.283.59 1.206-.434.548-1.427h.581l.491 1.32 1.158.543 1.397-.622.412.412-.585 1.28.434 1.204 1.427.548v.581l-1.32.49-.543 1.16z"/><path fill="none" d="M0 0h24v24H0z"/></svg>