<?xml version="1.0" encoding="UTF-8"?><svg id="icons" xmlns="http://www.w3.org/2000/svg" viewBox="0 0 24 24"><defs><style>.cls-1{fill:none;}</style></defs><rect class="cls-1" width="24" height="24"/><path d="M10.40723,21l-.00018-.02417c0-.2807.07849-.50085.16968-.75446l.04871-.13989c.08936-.25897.17236-.55048.17236-.9223,0-.80499-.80951-.99451-1.29413-1.1073-.15881-.03705-.39886-.09387-.42865-.0993-.16064-.31946-.08124-.44849.33032-.85913.30322-.30231.6795-.67865.6795-1.25079,0-.52521-.30774-1.11456-.87897-1.17139-.36731-.0415-.60284.05414-.79053.12726-.13.05054-.2157.08392-.36011.08392-.08575,0-.14441-.03253-.14441-.03613,0-.14349.05688-.25446.15796-.43945.12-.22113.26984-.4964.26984-.88171,0-.23285-.04785-.41516-.08575-.56226-.03156-.12-.05597-.21478-.05597-.32849,0-.20575.13629-.42865.35651-.42865.14441,0,.22742.10919.45123.50897.16876.30414.52429.66602,1.25983.66602.9566,0,1.56757-1.07574,1.56757-1.81573,0-.10468.07397-.21478.14441-.21478.07758,0,.14526.0451.29144.15613.19226.14441.45398.34204.85016.34204.71381,0,1.01434-.53247,1.23364-.92145.13263-.23553.25897-.45844.44672-.56042,1.07935-.58118.8844-1.74261.74811-2.41766.04517-.07489.14893-.18408.14081-.20032.42505.03064.74182-.07043.94305-.29694.29962-.33661.21301-.78967.15613-1.09015-.01532-.07941-.03339-.15344-.02704-.26355.02704-.07941.14526-.18048.25989-.27795.23462-.20123.58929-.50354.58929-1.02881,0-.31586-.12726-.54144-.22021-.7066-.06854-.12091-.10199-.18231-.10199-.25452,0-.05139.10065-.37354.92053-.81763.00928-.005.01477-.00757.0238-.01239h2.76923v9.02258c.34094.13214.6684.28943.98102.47137V2.01971H2.02051v19.96051h10.47296c-.18176-.31238-.33881-.63959-.47083-.98022h-1.61542ZM9.75183,19.78009l-.04602.12994c-.10468.29327-.2229.62537-.2229,1.0658l.00018.02417H3V3h13.70892c-.20551.24066-.34656.51544-.34656.83002,0,.3186.12811.54419.22107.70935.0686.12091.10107.18231.10107.25177,0,.08484-.06317.15253-.26532.32581-.19043.16248-.42682.36371-.53607.68677-.03607.10828-.05414.22382-.05414.34381,0,.10925.02167.24457.04968.38721.01801.09833.05414.27972.09021.27972,0,0-.05957.02618-.21747.01172-.38177-.02887-.71655.29694-.84113.43774-.23193.26349-.33386.54327-.26984.86816.15161.74182.15161,1.18762-.28156,1.42133-.42322.23016-.63892.61188-.81219.91962-.21387.37994-.28247.45123-.42865.45123-.07855,0-.14624-.0451-.29333-.15613-.19128-.14441-.453-.34204-.84827-.34204-.58936,0-1.06854.5108-1.06854,1.13892,0,.29779-.27795.8916-.64343.8916-.34656,0-.41425-.1236-.4657-.21564-.2265-.40521-.53693-.95935-1.24536-.95935-.70575,0-1.28058.60645-1.28058,1.35278,0,.23285.04779.41516.08569.56226.03162.12.05597.21478.05597.32849,0,.14349-.05682.25446-.1579.43951-.12006.22107-.26984.49634-.26984.88165,0,.52979.47919.96021,1.06848.96021.31769,0,.53607-.08478.69489-.14618.14166-.05597.21387-.08392.32306-.08392h.00635c.0343.03162.08124.16876.08124.26624,0,.17596-.15436.34296-.40796.5965-.39075.38989-.98004.97919-.50446,1.92767.19312.38538.64618.49091,1.04504.58478.18323.04242.52435.12183.58026.20758,0,.2229-.04688.40247-.12183.62091ZM18.5,13c-3.03754,0-5.48999,2.4624-5.48999,5.5s2.45245,5.5,5.48999,5.5,5.48999-2.46246,5.48999-5.5-2.45245-5.5-5.48999-5.5ZM18.5,23c-2.48145,0-4.5-2.01855-4.5-4.5s2.01855-4.5,4.5-4.5,4.5,2.01855,4.5,4.5-2.01855,4.5-4.5,4.5ZM17.68561,16.5c0-.44867.36572-.81445.81439-.81445s.81439.36578.81439.81445-.36572.81439-.81439.81439-.81439-.36572-.81439-.81439ZM18.99982,21h1.00018v1h-3v-1h1v-3h.99988l-.00006,3Z"/></svg>