<svg xmlns="http://www.w3.org/2000/svg" viewBox="0 0 16 16"><path d="M2 9h2v2H2V9zm2-3H2v2h2V6zm0-3H2v2h2V3zm4 0H5v1h3V3zm-7 9.09V1.91c0-.503.373-.91.833-.91h6.334c.46 0 .833.407.833.91V5h1V1.795C10 .806 9.253 0 8.333 0H1.667C.747 0 0 .806 0 1.795v10.41C0 13.195.747 14 1.667 14H5v-1H1.833c-.46 0-.833-.407-.833-.91zM16 6v10H6V6h10zm-7.038 9v-.11c0-.085.006-.165.017-.24a1.127 1.127 0 0 1-.439-.47 1.327 1.327 0 0 1-.13-.87 1.19 1.19 0 0 1-.475-.947c0-.26.071-.467.143-.62a1.493 1.493 0 0 1-.028-.29c0-.754.6-1.367 1.339-1.367.178 0 .333.033.468.086a1.237 1.237 0 0 1 1.174-.418l.06-.062c-.055-.33.045-.67.284-.957.072-.087.15-.163.237-.228a1.272 1.272 0 0 1 .206-.466A1.276 1.276 0 0 1 12.098 7H7v8h1.962zM15 13.46a4.651 4.651 0 0 1-.456.054h-.36c-.166 0-.566 0-.954-.23-.05.022-.105.04-.163.056-.028.055-.06.104-.092.15v.04c0 .407-.174.744-.545 1.017-.003.1-.007.265-.014.453H15v-1.54zm0-1.011V7h-1.421a.528.528 0 0 1-.178.253c-.37.176-.602.331-.602.57 0 .161.132.237.132.396 0 .228-.277.289-.34.478a.197.197 0 0 0-.013.082c0 .16.175.5-.236.469-.099-.006-.282.182-.264.281.045.219.148.631-.205.823-.288.154-.277.585-.604.585-.198 0-.271-.205-.47-.205-.143 0-.25.137-.25.282 0 .207-.176.556-.455.556-.15 0-.28-.045-.353-.177-.088-.157-.169-.307-.352-.307-.195 0-.34.172-.34.367 0 .143.06.223.06.367 0 .221-.174.323-.174.543 0 .125.125.207.25.207.2 0 .252-.11.454-.088.144.016.191.203.191.293 0 .371-.629.49-.395.957.093.188.688.098.688.41a.923.923 0 0 1-.06.319c-.045.133-.101.256-.101.43V15h1.451c.012-.274.019-.51.019-.56l-.001-.016c-.003-.104-.043-.17-.043-.277 0-.332.588-.288.588-.618 0-.1-.088-.136-.088-.234 0-.244.323-.293.323-.535v-.285c0-.112.11-.18.22-.18.125 0 .184.088.31.088.275 0 .296-.412.571-.412.206 0 .202.265.353.396.15.131.33.147.52.147h.359c.022 0 .216-.028.456-.065z" stroke-width="0"/><path stroke-width="0" fill="none" d="M0 0h16v16H0z"/></svg>