<svg xmlns="http://www.w3.org/2000/svg" viewBox="0 0 32 32"><path d="M15.687 2 2 15.687v-1.414L14.273 2zM8.273 2 2 8.273v1.414L9.687 2zm3 0L2 11.273v1.414L12.687 2zM2.271 2 2 2.271v1.414L3.685 2zm3 0L2 5.271v1.415L6.686 2H5.27zM30 2.687l-9.025 9.025.993.613L30 4.293v1.414l-7.158 7.158.98.606L30 7.293v1.414l-5.305 5.305.957.592L30 10.256v1.414l-4.297 4.297-.707 2.355L30 13.318v1.414l-5.61 5.611-.665 2.212L30 16.281v1.414L17.695 30H16.28l6-6h-1.549l-6 6h-1.414l6-6H17.67l-6 6h-1.414l6-6h-1.549l-6 6H7.293l6-6h-1.586l-6 6H4.293l6-6H8.687l-6 6H2v-.727l5.92-5.92-.256-1.33L2 27.687v-1.414l5.436-5.436-.256-1.33L2 24.687v-1.414l4.951-4.951-.256-1.33L2 21.687v-1.414l4.467-4.467-.256-1.33L2 18.687v-1.414L12.686 6.587h.001L17.273 2h1.414l-5.126 5.126.98.606L20.273 2h1.414l-6.273 6.273.98.606L23.273 2h1.414l-7.419 7.419.98.606L26.273 2h1.414l-8.565 8.565.98.606L29.273 2H30zM12.837 7.854l-5.763 5.817L8.87 23h13.676l2.315-7.709zM20.657 30 30 20.657v-1.414L19.243 30zm9.072 0 .271-.271v-1.414L28.315 30zm-3.01 0L30 26.72v-1.415L25.305 30zm-3 0L30 23.72v-1.415L22.305 30z"/><path fill="none" d="M0 0h32v32H0z"/><path fill="none" d="M0 0h32v32H0z"/></svg>