<svg xmlns="http://www.w3.org/2000/svg" viewBox="0 0 16 16"><path d="M7.687 0L0 7.687V6.273L6.273 0h1.414zM3.273 0L0 3.273v1.414L4.687 0H3.273zm-3 0L0 .273v1.414L1.687 0H.273zm12.46 16L16 12.732v-1.414L11.318 16h1.414zM16 .687l-4.57 4.57 1.116.49L16 2.293v1.414l-2.962 2.962-.239 1.825L16 5.293v1.414l-3.413 3.413-.232 1.781L16 8.256V9.67L9.67 16H8.256l3-3H9.707l-3 3H5.293l3-3H6.707l-3 3H2.293l3-3H3.687l-3 3H0v-.727l3.143-3.143-.173-1.413L0 13.687v-1.414l2.815-2.815-.174-1.412L0 10.687V9.273L9.273 0h1.414l-3.43 3.43 1.103.483L12.273 0h1.414L9.343 4.344l1.103.483L15.273 0H16v.687zM6.478 4.181l-2.94 2.965L4.135 12h7.198l.703-5.385-5.558-2.434zM15.695 16l.305-.305V14.28L14.28 16h1.415z"/><path fill="none" d="M0 0h16v16H0z"/></svg>