<svg xmlns="http://www.w3.org/2000/svg" viewBox="0 0 24 24"><path d="M1 1h1v1H1zm4 0H4v1h1zm3 0H7v1h1zm3 0h-1v1h1zm3 0h-1v1h1zm3 0h-1v1h1zM1 5h1V4H1zm0 3h1V7H1zm0 3h1v-1H1zm0 3h1v-1H1zm0 3h1v-1H1zm0 3h1v-1H1zM22 5h1V4h-1zm0 3h1V7h-1zm0 3h1v-1h-1zm0 3h1v-1h-1zm0 3h1v-1h-1zm0 3h1v-1h-1zM19 2h1V1h-1zm3-1v1h1V1zM1 23h1v-1H1zm3 0h1v-1H4zm3 0h1v-1H7zm3 0h1v-1h-1zm3 0h1v-1h-1zm3 0h1v-1h-1zm3 0h1v-1h-1zm3 0h1v-1h-1zm-2.688-12.27L17.514 18H5.983L4.43 9.979 9.494 4.87l9.819 5.86zm-13.564.795 4.838-4.838-.934-.557-4.14 4.178zm.487 2.513 6.23-6.23-.993-.593-5.495 5.495zm.486 2.514 7.623-7.623-.994-.592-6.886 6.886zM9.293 17l6.942-6.942-1.006-.6L7.687 17zm3 0 5.82-5.82-.992-.594L10.707 17zm5.432-4.018L13.707 17h1.549l1.96-1.96.51-2.058z"/><path fill="none" d="M0 0h24v24H0z"/><path fill="none" d="M0 0h24v24H0z"/></svg>