<svg xmlns="http://www.w3.org/2000/svg" viewBox="0 0 32 32"><path d="M31 30v1H1V1h1v29z"/><path d="M9 24h4v4H9zm5-1h4v-4h-4zm10-4v4h4v-4zM4 18h4v-4H4zm15 0h4v-4h-4zM9 13h4V9H9z" opacity=".25"/><path d="M4 24h4v4H4zm10 4h4v-4h-4zm10 0h4v-4h-4zM4 23h4v-4H4zm5 0h4v-4H9zm10 0h4v-4h-4zM9 18h4v-4H9zm5 0h4v-4h-4zm10 0h4v-4h-4zM4 13h4V9H4zm10 0h4V9h-4zm10-4v4h4V9zM9 8h4V4H9zm5 0h4V4h-4zm5 0h4V4h-4z" opacity=".75"/><path d="M19 24h4v4h-4zm0-11h4V9h-4zM4 8h4V4H4zm20-4v4h4V4z" opacity=".5"/><path fill="none" d="M0 0h32v32H0z"/></svg>