<svg xmlns="http://www.w3.org/2000/svg" viewBox="0 0 24 24"><path d="M23 22v1H1V1h1v21z"/><path d="M8 17h3v3H8zm4-1h3v-3h-3zm8-3v3h3v-3zM4 12h3V9H4zm12 0h3V9h-3zM8 8h3V5H8z" opacity=".25"/><path d="M4 17h3v3H4zm8 3h3v-3h-3zm8 0h3v-3h-3zM4 16h3v-3H4zm4 0h3v-3H8zm8 0h3v-3h-3zm-8-4h3V9H8zm4 0h3V9h-3zm8 0h3V9h-3zM4 8h3V5H4zm8 0h3V5h-3zm8-3v3h3V5zM8 4h3V1H8zm4 0h3V1h-3zm4 0h3V1h-3z" opacity=".75"/><path d="M16 17h3v3h-3zm0-9h3V5h-3zM4 4h3V1H4zm16-3v3h3V1z" opacity=".5"/><path fill="none" d="M0 0h24v24H0z"/></svg>