<svg xmlns="http://www.w3.org/2000/svg" viewBox="0 0 24 24"><path d="M20.83 3.08s-2.03-.88-4.52-.88c-3.85 0-3.89 1.6-7.74 1.6-2.49 0-4.52-.72-4.52-.72L1 20.78c.926.463 3.013 1.02 5.42 1.02 5.193 0 6.81-1.63 12.04-1.63 2.07 0 3.64.38 4.54.67.57.19.88.34.88.34l-3.05-18.1zM4.85 4.34c.89.22 2.22.46 3.72.46 4.016 0 4.202-1.6 7.74-1.6 1.55 0 2.93.38 3.63.62l1.86 11.05-4.51-4.52a.515.515 0 0 0-.66-.04l-2.18 1.63c-.19.14-.44.13-.62-.02l-3.61-3a.496.496 0 0 0-.68.03l-3.63 3.62c-.19.2-.48.15-.67-.04a.513.513 0 0 0-.71 0l-1.32 1.32 1.64-9.51zm17.18 15.21c-.1-.1-2.13-.38-3.57-.38-5.426 0-6.918 1.63-12.04 1.63-2 0-3.48-.38-4.3-.65l.8-4.59 2.03-2.03a1.4 1.4 0 0 0 1.67-.25l3.31-3.3 3.26 2.71c.27.23.61.35.96.35.33 0 .64-.1.9-.3l1.83-1.37 5.17 4.96.56 3.36c-.18-.05-.37-.1-.58-.14zM14.5 6c-.83 0-1.5.67-1.5 1.5S13.67 9 14.5 9 16 8.33 16 7.5 15.33 6 14.5 6zm0 2c-.28 0-.5-.22-.5-.5s.22-.5.5-.5.5.22.5.5-.22.5-.5.5z"/><path fill="none" d="M0 0h24v24H0z"/></svg>