<svg xmlns="http://www.w3.org/2000/svg" viewBox="0 0 32 32"><path d="M27 3.9s-2.67-.69-5.93-.69c-5.14 0-5.92 1.66-10.73 1.66-2.82 0-4.64-.74-5.34-.97L1 28s3.09 1.8 7.54 1.8c6.87 0 8.05-2.6 14.92-2.6 4.45 0 7.54.8 7.54.8L27 3.9zM5.8 5.22c1.01.3 2.53.65 4.54.65 5.007 0 5.73-1.66 10.73-1.66 2.18 0 4.11.33 5.05.52l2.3 13.82L23 13.58a.601.601 0 0 0-.45-.21.618.618 0 0 0-.47.18L19 16.29l-4.55-4.13a.654.654 0 0 0-.86-.01l-5.14 4.27-.83-.39a.641.641 0 0 0-.72.11l-3.36 2.67L5.8 5.22zM23.46 26.2c-7.016 0-8.285 2.6-14.92 2.6-3.01 0-5.37-.89-6.43-1.37L3.3 20.3l4.1-3.27 1.2.56 5.4-4.48 5 4.53 3.51-3.13 6.17 5.59 1.1 6.63c-1.37-.24-3.59-.53-6.32-.53zM19 8c-1.1 0-2 .9-2 2s.9 2 2 2 2-.9 2-2-.9-2-2-2zm0 3c-.55 0-1-.45-1-1s.45-1 1-1 1 .45 1 1-.45 1-1 1z"/><path fill="none" d="M0 0h32v32H0z"/></svg>