<svg xmlns="http://www.w3.org/2000/svg" viewBox="0 0 16 16"><path d="M9.5 4.5a1 1 0 1 1 2 0 1 1 0 0 1-2 0zm6.5 9.79s-.36-.27-1-.55a7.47 7.47 0 0 0-2.79-.54c-1.83 0-3.02.4-4.21.8s-2.38.8-4.21.8c-2.37 0-3.79-.71-3.79-.71l2.13-12.6S3.56 2 5.29 2c2.69 0 2.73-.99 5.42-.99 1.73 0 3.16.68 3.16.68L16 14.29zM1.81 9.39l.59-.59c.15-.15.39-.15.53 0 .15.15.39.15.54 0l2.69-2.69a.36.36 0 0 1 .5-.02l2.71 2.25c.14.11.33.12.47.01l1.63-1.22c.15-.11.36-.1.49.03l2.19 2.19-1.17-6.94c-.5-.17-1.34-.4-2.27-.4-2.386 0-2.556.99-5.42.99-.91 0-1.73-.13-2.36-.26L1.81 9.39zm12.88 3.18l-.26-1.53-2.79-2.79-1.2.9c-.24.18-.53.28-.83.28-.32 0-.63-.11-.88-.32L6.46 7.22 4.17 9.51c-.26.26-.6.4-.97.4-.15 0-.29-.02-.43-.07l-1.24 1.24-.41 2.36c.58.17 1.49.36 2.67.36 1.67 0 2.75-.36 3.89-.75 1.25-.42 2.54-.85 4.53-.85.84 0 1.68.13 2.48.37z"/><path fill="none" d="M0 0h16v16H0z"/></svg>