<svg xmlns="http://www.w3.org/2000/svg" viewBox="0 0 32 32"><path d="M4 28h6v1H3v-7h1zm24-18h1V3h-7v1h6zM4 4h6V3H3v7h1zm24 18v6h-6v1h7v-7zm-15-8a3.9 3.9 0 0 0 1.323-.243 5 5 0 0 1-.251-.964A3 3 0 0 1 13 13c-1.654 0-3-1.346-3-3s1.346-3 3-3c1.069 0 2.003.566 2.534 1.41.242-.234.51-.44.795-.621A4 4 0 0 0 13 6c-2.206 0-3.95 1.794-3.95 4s1.744 4 3.95 4m-6 5.5c0-1.93 1.57-3.5 3.5-3.5h5c.15 0 .291.026.436.044.041-.004.08-.018.122-.022A5.1 5.1 0 0 1 15.026 15H10.5c-2.481 0-4.45 2.019-4.45 4.5L6 24h5v-1H7zM19 8c2.206 0 4 1.794 4 4s-1.794 4-4 4-3.95-1.794-3.95-4S16.794 8 19 8m-3 4c0 1.654 1.346 3 3 3s3-1.346 3-3-1.346-3-3-3-3 1.346-3 3m10 14H12l.05-4.5c0-2.481 1.969-4.5 4.45-4.5h5c2.481 0 4.5 2.019 4.5 4.5zm-1-4.5c0-1.93-1.57-3.5-3.5-3.5h-5c-1.93 0-3.5 1.57-3.5 3.5V25h12z"/><path fill="none" d="M0 0h32v32H0z"/></svg>