<svg xmlns="http://www.w3.org/2000/svg" viewBox="0 0 32 32"><path d="M4 28h6v1H3v-7h1v6zm24-18h1V3h-7v1h6v6zM4 4h6V3H3v7h1V4zm24 18v6h-6v1h7v-7h-1zm-15-8a3.93 3.93 0 0 0 1.323-.243 4.913 4.913 0 0 1-.251-.964A2.972 2.972 0 0 1 13 13c-1.654 0-3-1.346-3-3s1.346-3 3-3c1.069 0 2.003.566 2.534 1.41.242-.234.51-.44.795-.621A3.997 3.997 0 0 0 13 6c-2.206 0-3.95 1.794-3.95 4s1.744 4 3.95 4zm-6 5.5c0-1.93 1.57-3.5 3.5-3.5h5c.15 0 .291.026.436.044.041-.004.08-.018.122-.022A5.108 5.108 0 0 1 15.026 15H10.5c-2.481 0-4.45 2.019-4.45 4.5L6 24h5v-1H7v-3.5zM19 8c2.206 0 4 1.794 4 4s-1.794 4-4 4-3.95-1.794-3.95-4S16.794 8 19 8zm-3 4c0 1.654 1.346 3 3 3s3-1.346 3-3-1.346-3-3-3-3 1.346-3 3zm10 14H12l.05-4.5c0-2.481 1.969-4.5 4.45-4.5h5c2.481 0 4.5 2.019 4.5 4.5V26zm-1-4.5c0-1.93-1.57-3.5-3.5-3.5h-5c-1.93 0-3.5 1.57-3.5 3.5V25h12v-3.5z" stroke-width="0"/><path stroke-width="0" fill="none" d="M0 0h32v32H0z"/></svg>