<svg xmlns="http://www.w3.org/2000/svg" viewBox="0 0 24 24"><path d="M21 16h1v6h-6v-1h5zM3 16H2v6h6v-1H3zM3 3h5V2H2v6h1zm13-1v1h5v5h1V2zm2.95 17H9v-2.5c0-1.93 1.57-3.5 3.5-3.5h3c1.93 0 3.45 1.57 3.45 3.5zM18 16.5c0-1.379-1.121-2.5-2.5-2.5h-3a2.5 2.5 0 0 0-2.5 2.5V18h8zM7 8c0 1.654 1.346 3 3 3 .184 0 .363-.022.538-.054a4 4 0 0 1-.404-.96c-.045.003-.088.014-.134.014-1.103 0-2-.897-2-2s.897-2 2-2c.39 0 .751.117 1.06.31.23-.252.488-.478.776-.665A2.97 2.97 0 0 0 10 5C8.346 5 7 6.346 7 8m1.5 5h1.203a4.5 4.5 0 0 1 1.818-.886c-.043-.034-.075-.078-.116-.114H8.5C6.57 12 5 13.57 5 15.5V18h3v-1H6v-1.5C6 14.121 7.121 13 8.5 13M11 9c0-1.654 1.346-3 3-3s2.95 1.346 2.95 3-1.296 3-2.95 3-3-1.346-3-3m1 0c0 1.103.897 2 2 2s2-.897 2-2-.897-2-2-2-2 .897-2 2"/><path fill="none" d="M0 0h24v24H0z"/></svg>