<svg xmlns="http://www.w3.org/2000/svg" viewBox="0 0 16 16"><path d="m15.494 14.168.46.794a6.86 6.86 0 0 1-6.577.156 8 8 0 0 0 .705-.676 5.94 5.94 0 0 0 5.412-.274m-2.98-12.133a5.96 5.96 0 0 1 2.98.797l.46-.794a6.86 6.86 0 0 0-6.577-.156 8 8 0 0 1 .705.676 5.9 5.9 0 0 1 2.432-.523M0 7v3h3V7zm2 2H1V8h1zm11-2v3h3V7zm2 2h-1V8h1zm-3-.5L10 7v1H6V7L4 8.5 6 10V9h4v1zM3.581 2.12a6.19 6.19 0 0 1 5.704 3.803h1.012a7.125 7.125 0 0 0-10.282-3.8l.476.823a6.2 6.2 0 0 1 3.09-.827zm5.704 8.957a6.182 6.182 0 0 1-8.794 2.977l-.476.823a7.125 7.125 0 0 0 10.282-3.8z"/><path fill="none" d="M0 0h16v16H0z"/></svg>