<svg xmlns="http://www.w3.org/2000/svg" viewBox="0 0 32 32"><path d="m28.513 28.154.348.938a13.92 13.92 0 0 1-11.285-.719c.285-.226.557-.465.826-.71a12.9 12.9 0 0 0 10.111.491M18.403 4.337a12.9 12.9 0 0 1 10.11-.491l.348-.938a13.92 13.92 0 0 0-11.285.719c.285.226.557.465.826.71zM6 15v3H3v-3zm-1 1H4v1h1zm24-1v3h-3v-3zm-1 1h-1v1h1zm-2.942.5L22 13.81V16H10v-2.19L6.942 16.5 10 19.19V17h12v2.19zM7.994 3.042A12.98 12.98 0 0 1 20.313 12h1.048A13.96 13.96 0 0 0 3.319 2.845l.335.941a13 13 0 0 1 4.34-.744M19.946 21a12.97 12.97 0 0 1-16.291 7.214l-.335.943A13.956 13.956 0 0 0 21.01 21z"/><path fill="none" d="M0 0h32v32H0z"/></svg>