<?xml version="1.0" encoding="UTF-8"?><svg id="icons" xmlns="http://www.w3.org/2000/svg" viewBox="0 0 24 24"><defs><style>.cls-1{fill:none;}</style></defs><rect class="cls-1" width="24" height="24"/><path d="M20,7H4v-1h16v1ZM4,10h9v-1H4v1ZM4,13h6v-1h-6v1ZM22,1H2c-.55225,0-1,.44775-1,1v15c0,.55225.44775,1,1,1h7v-1H2V2h20v11h1V2c0-.55225-.44775-1-1-1ZM21.62384,14.75745c-.29034-.0752-.58887-.0752-.87286-.00543l-2.50299-2.50299c.03442-.13861.05164-.28088.05164-.42401,0-.99286-.80719-1.80005-1.79962-1.80005s-1.79962.80719-1.79962,1.80005c0,.14313.01721.2854.05164.42401l-2.06769,2.06818.65588.65588,2.80383-2.83331c.19586-.19794.51575-.19769.71136.00061l5.57178,5.64899c.33679-.32727.54779-.78308.54779-1.28894,0-.82074-.5553-1.53821-1.35114-1.74298ZM16.5,18.85046l-2.34998-2.35004,2.34998-2.35004,2.34998,2.35004-2.34998,2.35004ZM15.56396,16.5l.93604.93652.93604-.93652-.93604-.93555-.93604.93555ZM19.88269,17.80493l-3.0307,2.99915c-.19495.19293-.50891.19275-.70367-.00037l-3.67462-3.64288-1.90088-1.94934c-.33679.32727-.54779.78314-.54779,1.28894,0,.99292.80713,1.80005,1.79956,1.80005.14362,0,.28534-.01721.42444-.05164l2.50299,2.50305c-.03442.13861-.05164.28082-.05164.42395,0,.99286.80719,1.80005,1.79962,1.80005s1.79962-.80719,1.79962-1.80005c0-.14313-.01721-.28534-.05164-.42395l2.29059-2.29108-.65588-.65588Z"/></svg>