<?xml version="1.0" encoding="UTF-8"?><svg id="icons" xmlns="http://www.w3.org/2000/svg" viewBox="0 0 32 32"><defs><style>.cls-1{fill:none;}</style></defs><rect class="cls-1" width="32" height="32"/><path d="M25,10H5v-1h20v1ZM5,14h11v-1H5v1ZM5,18h7v-1h-7v1ZM22.5,26l-3.5-3.5,3.5-3.5,3.5,3.5-3.5,3.5ZM20.41406,22.5l2.08594,2.08594,2.08594-2.08594-2.08594-2.08594-2.08594,2.08594ZM28.5,20c-.21948,0-.42859.03723-.63141.09039l-2.95898-2.95898c.05316-.20288.09039-.41193.09039-.63141,0-1.38074-1.11926-2.5-2.5-2.5s-2.5,1.11926-2.5,2.5c0,.21948.03723.42853.09039.63141l-2.95898,2.95898-.02051.02051.70697.70697,3.45728-3.45728c-.70184-.99567.02002-2.3606,1.22485-2.3606,1.20355,0,1.92761,1.36365,1.22485,2.3606l3.91455,3.91455c.33533-.23639.75073-.3313,1.17236-.24158.97125.20624,1.50311,1.30463.98743,2.2066l.75201.68408c.28149-.40448.44879-.8941.44879-1.42426,0-1.38074-1.11926-2.5-2.5-2.5ZM26.93182,24.43243l-3.20697,3.20697c.23639.33533.33124.75067.24158,1.1723-.14661.68994-.76111,1.18829-1.46643,1.18829-1.21313,0-1.92383-1.36908-1.22485-2.3606l-3.91455-3.91455c-1.34143.94562-3.05566-.6828-2.07629-2.07629l-.71674-.71674c-.34943.42999-.56757.97089-.56757,1.56818,0,1.38068,1.11926,2.5,2.5,2.5.21954,0,.42859-.03723.63141-.09039l2.95898,2.95892c-.05316.20288-.09039.41193-.09039.63147,0,1.38068,1.11926,2.5,2.5,2.5s2.5-1.11932,2.5-2.5c0-.21954-.03723-.42859-.09039-.63147l2.95898-2.95892.02051-.02051-.70697-.70697-.25031.25031ZM2,22V5c0-.55182.44818-1,1-1h24c.55182,0,1,.44818,1,1v13h1V5c0-1.10162-.89648-2-2-2H3c-1.10352,0-2,.89838-2,2v17c0,1.10345.89648,2,2,2h9v-1H3c-.55182,0-1-.44824-1-1Z"/></svg>