<?xml version="1.0" encoding="UTF-8"?><svg id="icons" xmlns="http://www.w3.org/2000/svg" viewBox="0 0 16 16"><defs><style>.cls-1{fill:none;}</style></defs><rect class="cls-1" width="16" height="16"/><path d="M14,4H2v-1h12v1ZM2,7h5v-1H2v1ZM2,10h2v-1h-2v1ZM15,0H1C.44775,0,0,.44775,0,1v11c0,.55225.44775,1,1,1h3v-1H1V1h14v7h1V1c0-.55225-.44775-1-1-1ZM11.70001,10.5l-1.20001-1.20001-1.20001,1.20001,1.20001,1.20001,1.20001-1.20001ZM13.12268,11.48053l-2.53479,2.51947h-.17383l-3.41406-3.41406-1.17188-1.17194c-.36896.22937-.62811.61957-.62811,1.086,0,.71796.58203,1.29999,1.29999,1.29999.09302,0,.18274-.01141.26929-.0307l2.46143,2.46143c-.01929.08655-.0307.17627-.0307.26929,0,.71796.58203,1.29999,1.29999,1.29999s1.29999-.58203,1.29999-1.29999c0-.09137-.01141-.1795-.03003-.26471l2.05969-2.04779-.70697-.70697ZM14.5,9.20001c-.09302,0-.18274.01141-.26929.0307l-2.46143-2.46143c.01929-.08655.0307-.17627.0307-.26929,0-.71796-.58203-1.29999-1.29999-1.29999s-1.29999.58203-1.29999,1.29999c0,.09302.01141.18274.0307.26929l-2.05176,2.0517.70703.70703,2.52808-2.52802h.17188l3.06384,3.06378,1.52216,1.52222c.36896-.22931.62805-.61957.62805-1.086,0-.71796-.58203-1.29999-1.29999-1.29999Z"/></svg>