<?xml version="1.0" encoding="UTF-8"?><svg id="icons" xmlns="http://www.w3.org/2000/svg" viewBox="0 0 24 24"><defs><style>.cls-1{fill:none;}.cls-1,.cls-2{stroke-width:0px;}</style></defs><path class="cls-2" d="M19.77985,10.0282c-.83905.63232-1.8382,1.05878-2.92731,1.20715-.41656.49158-.70551,1.09534-.80212,1.76465h-2.05042v-2h-4.29785l-2.41302-2.41302c.43524-.58405.70184-1.30139.70184-2.08698,0-1.93304-1.55798-3.5-3.49097-3.5s-3.5,1.56696-3.5,3.5,1.56702,3.5,3.5,3.5c.78534,0,1.5011-.26794,2.08331-.70477l2.41669,2.41669v3.73242l-2.33118,2.33118c-.59656-.47791-1.34344-.77551-2.16882-.77551-1.93298,0-3.5,1.56702-3.5,3.5s1.56702,3.5,3.5,3.5,3.49097-1.56702,3.49097-3.5c0-.74554-.23566-1.43347-.63135-2.00122l2.49878-2.49878h4.1416v-2h2.05042c.24451,1.69403,1.68787,3,3.44958,3,1.93298,0,3.49103-1.56702,3.49103-3.5,0-1.8371-1.41217-3.32678-3.21118-3.4718ZM4.5,9c-1.38074,0-2.5-1.11932-2.5-2.5s1.11926-2.5,2.5-2.5,2.5,1.11926,2.5,2.5-1.11932,2.5-2.5,2.5ZM4.5,23c-1.38074,0-2.5-1.11932-2.5-2.5s1.11926-2.5,2.5-2.5,2.5,1.11926,2.5,2.5-1.11932,2.5-2.5,2.5ZM13,15h-3v-3h3v3ZM19.5,16c-1.38074,0-2.5-1.11932-2.5-2.5s1.11926-2.5,2.5-2.5,2.5,1.11926,2.5,2.5-1.11926,2.5-2.5,2.5ZM16,10c2.75702,0,5-2.24298,5-5S18.75702,0,16,0s-4.991,2.24298-4.991,5,2.23398,5,4.991,5ZM16,1c2.20538,0,4,1.79462,4,4s-1.79462,4-4,4-4-1.79468-4-4,1.79462-4,4-4ZM18,6h-3V2h1v3h2v1Z"/><rect class="cls-1" width="24" height="24"/></svg>