<svg xmlns="http://www.w3.org/2000/svg" viewBox="0 0 16 16"><path d="M14.991 7.507a5.12 5.12 0 0 1-.742.7c.448.26.752.739.752 1.293a1.5 1.5 0 1 1-2.971-.296 5.37 5.37 0 0 1-.969.096c-.599 0-1.165-.12-1.704-.3H9v-.11A5.353 5.353 0 0 1 7.583 8H6.578L5.526 6.947c.269-.38.432-.837.455-1.334a5.185 5.185 0 0 1-.237-1.18A2.479 2.479 0 0 0 3.5 3a2.5 2.5 0 1 0 0 5c.476 0 .915-.14 1.293-.371L6 8.836v1.457l-1.124 1.124A2.472 2.472 0 0 0 3.5 11a2.5 2.5 0 1 0 0 5c1.38 0 2.49-1.12 2.49-2.5a2.5 2.5 0 0 0-.41-1.373L6.707 11H9v-1h2.05a2.5 2.5 0 0 0 2.45 2c1.38 0 2.49-1.12 2.49-2.5a2.49 2.49 0 0 0-.999-1.993zM3.501 7a1.5 1.5 0 1 1-.002-3A1.5 1.5 0 0 1 3.5 7zm0 8a1.5 1.5 0 1 1-.001-3 1.5 1.5 0 0 1 0 3zM8 10H7V9h1v1zm3.058-2C13.299 8 15 6.209 15 4c0-2.21-1.7-4-3.942-4S7 1.79 7 4c0 2.209 1.817 4 4.058 4zM11 1c1.654 0 3 1.346 3 3s-1.346 3-3 3-3-1.346-3-3 1.346-3 3-3zm2 4h-3V2h1v2h2v1z" stroke-width="0"/><path stroke-width="0" fill="none" d="M0 0h16v16H0z"/></svg>