<?xml version="1.0" encoding="UTF-8"?><svg id="icons" xmlns="http://www.w3.org/2000/svg" viewBox="0 0 32 32"><defs><style>.cls-1{fill:none;}.cls-1,.cls-2{stroke-width:0px;}</style></defs><path class="cls-2" d="M26.49982,14c-.0871,0-.16864.0191-.25446.02399-.93152.81195-2.05072,1.40839-3.28473,1.72101-.49097.6377-.81573,1.4115-.91022,2.255h-3.05042v-2.26514c-.65594-.16974-1.28168-.41388-1.86139-.73486h-4.59955l-2.6134-2.6134c.66071-.78326,1.0744-1.78192,1.07434-2.88684-.00012-2.48523-2.01489-4.49988-4.50018-4.49976s-4.49097,2.01471-4.49084,4.5,2.00598,4.50012,4.49121,4.5c1.01892-.00006,1.94806-.35156,2.70233-.92249l2.79749,2.79749v5.41797l-2.70544,2.70544c-.76965-.61523-1.73273-.99847-2.79474-.99841-2.48529.00012-4.49097,2.01495-4.49084,4.50024.00012,2.48523,2.00598,4.49988,4.49121,4.49976,2.48529-.00012,4.49994-2.01489,4.49982-4.50018-.00006-1.06189-.38318-2.02484-.99835-2.79443l2.70538-2.70538h6.29297v-3h3.05042c.25177,2.24683,2.13574,4.00012,4.44983,4,2.48523-.00012,4.49988-2.01495,4.49976-4.50018-.00012-2.48529-2.01489-4.49994-4.50018-4.49982ZM6.50031,13c-1.92999,0-3.5-1.56927-3.5-3.5,0-1.92932,1.57001-3.5,3.5-3.5,1.92926,0,3.5,1.57068,3.5,3.5,0,1.93073-1.57074,3.5-3.5,3.5ZM6.50031,31c-1.92999,0-3.5-1.56921-3.5-3.5,0-1.92926,1.57001-3.5,3.5-3.5,1.92926,0,3.5,1.57074,3.5,3.5,0,1.93079-1.57074,3.5-3.5,3.5ZM18,21h-5v-5h5v5ZM26.50031,22c-1.92999,0-3.5-1.56927-3.5-3.5,0-1.92926,1.57001-3.5,3.5-3.5,1.92926,0,3.5,1.57074,3.5,3.5,0,1.93073-1.57074,3.5-3.5,3.5ZM21,14.79816c3.75629,0,6.79999-3.04443,6.79999-6.79993,0-3.75635-3.0437-6.79999-6.79999-6.79999-3.75537,0-6.79999,3.04364-6.79999,6.79999,0,3.75549,3.04462,6.79993,6.79999,6.79993ZM21,2.19824c3.19873,0,5.79999,2.60168,5.79999,5.80023s-2.60126,5.79974-5.79999,5.79974-5.79999-2.6012-5.79999-5.79974,2.60132-5.80023,5.79999-5.80023ZM24,9h-4v-5h1v4h3v1Z"/><rect class="cls-1" width="32" height="32"/></svg>