<svg xmlns="http://www.w3.org/2000/svg" viewBox="0 0 24 24"><path d="M19.78 10.028a6.259 6.259 0 0 1-2.927 1.207A3.501 3.501 0 0 0 16.05 13H14v-2H9.702L7.29 8.587A3.478 3.478 0 0 0 7.991 6.5C7.991 4.567 6.433 3 4.5 3a3.5 3.5 0 1 0 0 7c.785 0 1.501-.268 2.083-.705L9 11.712v3.732l-2.331 2.332A3.453 3.453 0 0 0 4.5 17a3.5 3.5 0 0 0 0 7 3.492 3.492 0 0 0 3.491-3.5 3.49 3.49 0 0 0-.631-2.001L9.858 16H14v-2h2.05a3.49 3.49 0 0 0 3.45 3 3.492 3.492 0 0 0 3.491-3.5 3.482 3.482 0 0 0-3.211-3.472zM4.5 9a2.5 2.5 0 1 1 0-5 2.5 2.5 0 0 1 0 5zm0 14a2.5 2.5 0 1 1 0-5 2.5 2.5 0 0 1 0 5zm8.5-8h-3v-3h3v3zm6.5 1a2.5 2.5 0 1 1 0-5 2.5 2.5 0 0 1 0 5zM16 10c2.757 0 5-2.243 5-5s-2.243-5-5-5-4.991 2.243-4.991 5 2.234 5 4.991 5zm0-9c2.205 0 4 1.795 4 4s-1.795 4-4 4-4-1.795-4-4 1.795-4 4-4zm2 5h-3V2h1v3h2v1z" stroke-width="0"/><path stroke-width="0" fill="none" d="M0 0h24v24H0z"/></svg>