<svg xmlns="http://www.w3.org/2000/svg" viewBox="0 0 32 32"><path d="M26.5 12.1c-2.255 0-4.098 1.711-4.35 3.9H19v-3h-6.293L9.93 10.223c.598-.752.97-1.69.97-2.723 0-2.426-1.974-4.4-4.4-4.4S2.1 5.074 2.1 7.5s1.974 4.4 4.4 4.4a4.356 4.356 0 0 0 2.723-.97L12 13.707v5.555l-2.795 2.794A4.356 4.356 0 0 0 6.5 21.1c-2.426 0-4.4 1.974-4.4 4.4s1.974 4.4 4.4 4.4 4.4-1.974 4.4-4.4c0-1.04-.378-1.986-.985-2.74l2.76-2.76H19v-3h3.15a4.405 4.405 0 0 0 2.595 3.518l.598-.597c.024-.024.056-.034.082-.055-1.43-.459-2.475-1.786-2.475-3.366 0-1.957 1.593-3.55 3.55-3.55s3.55 1.593 3.55 3.55c0 .572-.15 1.106-.39 1.585l.623.624A4.35 4.35 0 0 0 30.9 16.5c0-2.426-1.974-4.4-4.4-4.4zm-20-1.05c-1.957 0-3.55-1.593-3.55-3.55S4.543 3.95 6.5 3.95s3.55 1.593 3.55 3.55-1.593 3.55-3.55 3.55zm3.55 14.45c0 1.957-1.593 3.55-3.55 3.55s-3.55-1.593-3.55-3.55 1.593-3.55 3.55-3.55 3.55 1.593 3.55 3.55zM18 19h-5v-5h5v5zm1.125 8.714l1.808 1.808-3.151 1.349 1.343-3.157zm6.925-7.086l1.92 1.922-5.762 5.764-1.922-1.922 5.764-5.764zm4.078-.66c.117.117.12.304.008.417l-1.028 1.028-1.921-1.921 1.027-1.028a.284.284 0 0 1 .207-.083.306.306 0 0 1 .21.09l1.497 1.497z" stroke-width="0"/><path stroke-width="0" fill="none" d="M0 0h32v32H0z"/></svg>