<svg xmlns="http://www.w3.org/2000/svg" viewBox="0 0 16 16"><path d="m6.5 8.793.707.707-.707.707-.707-.707zM9.207 7.5 8.5 6.793l-.707.707.707.707zm.579-1.993.707.707.707-.707-.707-.707zM3 9h1V8H3zm1-3H3v1h1zm11 1h1V4h-1zM1 4H0v3h1zm0 5H0v3h1zm14-7h1V0h-2v1h1zm-3-2H9v1h3zM4 16h3v-1H4zM7 0H4v1h3zM1 14H0v2h2v-1H1zM1 1h1V0H0v2h1zm11 1h1a1 1 0 0 1 1 1v1a1 1 0 0 1-1 1h-1a1 1 0 0 1-1-1V3a1 1 0 0 1 1-1m1 1h-1v1h1zM2 3a1 1 0 0 1 1-1h1a1 1 0 0 1 1 1v1a1 1 0 0 1-1 1H3a1 1 0 0 1-1-1zm1 1h1V3H3zm1.5 10h-1A1.5 1.5 0 0 1 2 12.5v-1A1.5 1.5 0 0 1 3.5 10h1A1.5 1.5 0 0 1 6 11.5v1A1.5 1.5 0 0 1 4.5 14m-1-1h1c.275 0 .5-.225.5-.5v-1c0-.275-.225-.5-.5-.5h-1c-.275 0-.5.225-.5.5v1c0 .275.225.5.5.5m11.283.03q-.05.135-.112.262l.535 1.163-.771.765-1.194-.527q-.13.06-.265.107l-.444 1.2h-1.087l-.47-1.22a3 3 0 0 1-.264-.113l-1.163.535-.764-.771.526-1.194a3 3 0 0 1-.106-.265l-1.2-.444v-1.056l1.2-.444q.047-.136.106-.265l-.526-1.194.764-.771 1.163.535q.13-.063.263-.113L11.445 8h1.087l.444 1.2q.136.047.265.107l1.194-.527.77.765-.534 1.163q.063.128.112.262l1.217.471v1.117zm.215-.906v-.248l-.815-.27a2.2 2.2 0 0 0-.355-.862l.365-.793-.161-.16-.768.387a2.2 2.2 0 0 0-.86-.36L12.102 9h-.227l-.27.817c-.315.056-.607.18-.861.354l-.793-.364-.159.16.385.768c-.176.253-.3.544-.358.86L9 11.897v.204l.818.304c.058.315.182.606.358.859l-.385.768.16.16.792-.364c.254.174.546.298.862.354l.27.817h.226l.302-.819c.315-.058.607-.183.86-.359l.768.386.161-.16-.365-.792c.175-.254.298-.546.355-.862l.815-.27zM12 11a1 1 0 1 0 0 2 1 1 0 0 0 0-2"/><path fill="none" d="M0 0h16v16H0z"/></svg>