<svg xmlns="http://www.w3.org/2000/svg" viewBox="0 0 24 24"><path d="M6 21h2v1H6v-1zM22 6h-1v2h1V6zm-9-4h-2v1h2V2zm5 0h-2v1h2V2zM8 2H6v1h2V2zM3 16H2v2h1v-2zm0-5H2v2h1v-2zm0-5H2v2h1V6zM2 4h1V3h1V2H2v2zm19 0h1V2h-2v1h1v1zM3 20H2v2h2v-1H3v-1zm4-7h1v-1H7v1zm1-4H7v1h1V9zm2.5 3.793l-.707.707.707.707.707-.707-.707-.707zm1.293-1.293l.707.707.707-.707-.707-.707-.707.707zM15.2 9.507l-.707-.707-.707.707.707.707.707-.707zM6 7V6a1 1 0 0 1 1-1h1a1 1 0 0 1 1 1v1a1 1 0 0 1-1 1H7a1 1 0 0 1-1-1zm1 0h1V6H7v1zm9 0V6a1 1 0 0 1 1-1h1a1 1 0 0 1 1 1v1a1 1 0 0 1-1 1h-1a1 1 0 0 1-1-1zm1 0h1V6h-1v1zm-7 8.8v1.4A1.8 1.8 0 0 1 8.2 19H6.8A1.8 1.8 0 0 1 5 17.2v-1.4A1.8 1.8 0 0 1 6.8 14h1.4a1.8 1.8 0 0 1 1.8 1.8zm-1 0a.8.8 0 0 0-.8-.8H6.8a.8.8 0 0 0-.8.8v1.4a.8.8 0 0 0 .8.8h1.4a.8.8 0 0 0 .8-.8v-1.4zM20 18a2 2 0 1 1-4 0 2 2 0 0 1 4 0zm-1 0a1 1 0 1 0-2 0 1 1 0 0 0 2 0zm3.414 1.392l-.296.628.724 1.624-1.162 1.17-1.543-.71-.653.236-.636 1.66h-1.65l-.59-1.586-.628-.295-1.627.727-1.167-1.166.71-1.543-.236-.653-1.66-.636v-1.65l1.586-.59.295-.628-.727-1.627 1.166-1.167 1.543.71.653-.236.636-1.66h1.65l.59 1.586.628.296 1.624-.724 1.166 1.167-.705 1.538.235.653 1.66.636v1.65l-1.586.59zm-1.277.523l.544-1.158 1.319-.49v-.582l-1.427-.548-.434-1.204.585-1.28-.412-.412-1.397.622-1.158-.544-.49-1.319h-.582l-.548 1.427-1.206.434-1.283-.59-.41.411.626 1.4-.545 1.161-1.319.49v.582l1.427.548.434 1.206-.59 1.283.411.41 1.4-.626 1.161.545.49 1.319h.582l.548-1.428 1.206-.433 1.28.588.411-.413-.623-1.399zM21 12h1v-1h-1v1zM11 22h1v-1h-1v1z" stroke-width="0"/><path stroke-width="0" fill="none" d="M0 0h24v24H0z"/></svg>