<?xml version="1.0" encoding="UTF-8"?><svg id="icons" xmlns="http://www.w3.org/2000/svg" viewBox="0 0 32 32"><defs><style>.cls-1{fill:none;}</style></defs><path d="M17,15.2981V5.49188c2.80896.11725,4.1571,1.06812,5.23828,1.85089l.58594-.81055c-1.41016-1.02051-2.94177-1.93286-5.82422-2.04193v-2.4903h-1v2.48694c-3.47968.18665-5.47717,2.5614-5.86719,4.78064-.39453,2.24609.62891,5.09766,4.68652,6.36621.39282.12274.78802.25092,1.18066.38464v10.44067c-2.07092-.17053-4.56104-1.26221-6.08789-2.75403l-.69922.71484c1.72339,1.68353,4.46503,2.87317,6.78711,3.03809v2.54199h1v-2.52863c.03497-.0025.07184-.00146.10645-.00458,3.48633-.31055,5.66602-2.49609,5.83008-5.84863.17639-3.58691-3.09106-5.29938-5.93652-6.32007ZM15.11816,14.67871c-2.9209-.91211-4.41699-2.87012-4.00098-5.2373.31964-1.82025,1.98779-3.75159,4.88281-3.93683v9.45447c-.30603-.09918-.60455-.19366-.88184-.28033ZM17.01855,26.4707c-.00592.00049-.01263-.00031-.01855.00018v-10.09143c2.73346,1.0448,5.0694,2.51428,4.93848,5.18988-.19238,3.90039-3.16504,4.74512-4.91992,4.90137Z"/><rect class="cls-1" width="32" height="32"/></svg>