<svg xmlns="http://www.w3.org/2000/svg" viewBox="0 0 16 16"><path fill-rule="evenodd" d="M10.315 8.043A7.7 7.7 0 0 0 9 7.458v-4.44c1.163.09 1.8.489 2.146.836l.708-.708C11.309 2.602 10.419 2.11 9 2.016V1H8v1.029C6.045 2.259 5 3.82 5 5c0 .584.147 1.19.53 1.728.385.539.98.97 1.812 1.246q.273.09.557.178L8 8.183v4.785a4.6 4.6 0 0 1-2.646-1.322l-.708.708c.958.957 2.171 1.5 3.354 1.62V15h1v-1.033c1.522-.2 2.9-1.307 2.9-3.167 0-1.383-.674-2.224-1.585-2.757M8 7.093l-.342-.11c-.669-.222-1.073-.542-1.314-.878A1.94 1.94 0 0 1 6 4.958c0-.65.625-1.745 2-1.962zm1 5.823V8.48c.281.11.555.234.81.383.714.418 1.19.977 1.19 1.894 0 1.165-.896 1.97-2 2.158z"/><path fill="none" d="M0 0h16v16H0z"/></svg>