<svg xmlns="http://www.w3.org/2000/svg" viewBox="0 0 32 32"><path d="M17 15.298V5.492c2.809.117 4.157 1.068 5.238 1.85l.586-.81C21.414 5.512 19.882 4.6 17 4.49V2h-1v2.487c-3.48.187-5.477 2.561-5.867 4.78-.395 2.247.629 5.098 4.686 6.367q.59.184 1.181.384V26.46c-2.07-.17-4.561-1.262-6.088-2.754l-.7.715c1.724 1.683 4.466 2.873 6.788 3.038V30h1v-2.529q.054-.001.106-.004c3.487-.31 5.666-2.496 5.83-5.849.177-3.587-3.09-5.3-5.936-6.32m-1.882-.62c-2.92-.911-4.417-2.87-4-5.237.319-1.82 1.987-3.751 4.882-3.936v9.454c-.306-.1-.605-.194-.882-.28zm1.9 11.793H17V16.379c2.733 1.045 5.07 2.515 4.938 5.19-.192 3.9-3.165 4.745-4.92 4.902"/><path fill="none" d="M0 0h32v32H0z"/></svg>