<?xml version="1.0" encoding="UTF-8"?><svg id="icons" xmlns="http://www.w3.org/2000/svg" viewBox="0 0 24 24"><defs><style>.cls-1{fill:none;}</style></defs><path d="M16.91406,16.54297c0-2.3219-1.44922-3.92743-3.91406-4.42139v-7.07465c1.06805.10901,1.99176.53851,2.51562,1.23138l.79686-.60352c-.70793-.93756-1.92363-1.53357-3.31248-1.65027v-2.02454h-1v2.04626c-2.30841.23132-4,2.0097-4,4.34534,0,3.27679,2.50732,4.40662,4,4.58325v6.92926c-1.14624-.14294-2.53406-.83002-3.10156-1.58087l-.79688.60352c.74969.99188,2.45471,1.83563,3.89844,1.97839v2.09485h1v-2.11963c2.2644-.26666,3.91406-2.0307,3.91406-4.3374ZM9,8.3916c0-1.76648,1.2616-3.12213,3-3.3457v6.91534c-.828-.13995-3-.77258-3-3.56964ZM13,19.8808v-6.75159c1.86121.43219,2.91406,1.6441,2.91406,3.41376,0,1.73779-1.21954,3.08148-2.91406,3.33783Z"/><rect class="cls-1" width="24" height="24"/></svg>