<?xml version="1.0" encoding="UTF-8"?><svg id="icons" xmlns="http://www.w3.org/2000/svg" viewBox="0 0 16 16"><defs><style>.cls-1{fill:none;}.cls-2{fill-rule:evenodd;}</style></defs><path class="cls-2" d="M10.31488,8.0434c-.41138-.2406-.87109-.42902-1.31488-.58533V3.01862c1.16333.08978,1.79962.4881,2.14648.83496l.70709-.70721c-.54498-.54486-1.435-1.03625-2.85358-1.13025v-1.01611h-1v1.02881c-1.9549.23029-3,1.79187-3,2.97119,0,.58411.14679,1.1908.53058,1.72809.3847.53851.9801.96918,1.81134,1.24622.1814.06049.36829.11865.5575.17767.03351.0105.06702.02094.10059.03143v4.78455c-.92181-.11676-1.87921-.55426-2.64642-1.32159l-.70709.70721c.95709.95709,2.17053,1.50073,3.35352,1.62091v1.02551h1v-1.03314c1.52191-.2005,2.9-1.30737,2.9-3.16687,0-1.38318-.67411-2.22412-1.58512-2.75659ZM8,7.09277c-.12158-.0379-.23633-.0741-.34192-.10931-.66876-.22296-1.07336-.5423-1.31366-.87878-.24121-.33771-.34442-.73102-.34442-1.14691,0-.64966.62531-1.74438,2-1.96179v4.0968ZM9,12.91577v-4.43469c.28137.10968.55487.23413.81018.3833.71405.41748,1.18982.97662,1.18982,1.89343,0,1.16486-.89612,1.97015-2,2.15796Z"/><rect class="cls-1" width="16" height="16"/></svg>