<?xml version="1.0" encoding="UTF-8"?><svg id="icons" xmlns="http://www.w3.org/2000/svg" viewBox="0 0 24 24"><defs><style>.cls-1{fill:none;}</style></defs><rect class="cls-1" width="24" height="24"/><path d="M17.64746,7.07617l2.22253-2.21906c.19214.08942.40417.14288.63.14288.82843,0,1.5-.67157,1.5-1.5s-.67157-1.5-1.5-1.5-1.5.67157-1.5,1.5c0,.23645.05957.45709.15704.65601l-2.21661,2.21313.70703.70703ZM20,3h1v1h-1v-1ZM20.5,19c-.23694,0-.45807.05988-.65729.15771l-2.18451-2.18799-.70703.70703,2.19104,2.19452c-.08905.19177-.13321.40338-.13321.62872,0,.82843.66257,1.5,1.491,1.5s1.5-.67157,1.5-1.5-.67157-1.5-1.5-1.5ZM21,21h-1v-1h1v1ZM3.5,5c.22601,0,.43811-.05353.63031-.14307l2.20563,2.22021.70898-.70508-2.20178-2.21637c.09735-.19879.15686-.41937.15686-.6557,0-.82843-.67157-1.5-1.5-1.5s-1.5.67157-1.5,1.5.67157,1.5,1.5,1.5ZM3,3h1v1h-1v-1ZM17,12.05365l2.91504-1.44818-7.41504-3.85547-7.41504,3.85547.95117.46674v5.9278h.92773l.02954-5.45801,1.00659.51166v2.60944c0,1.18652,4.28027,2.97363,4.32324,2.99121l.17676.07324.17773-.07324c.04297-.01855,4.32227-1.82812,4.32227-2.99121v-2.60944ZM12.49902,16.72168c-1.28027-.55664-3.31934-1.7207-3.49902-2.05859v-2.15417l3.5,1.73523,3.52581-1.73645.01019,2.08118c-.21094.44336-2.47057,1.66113-3.53698,2.13281ZM12.5,13.25586l-3.83301-1.8811,4.14062-.41382-.0918-.92188-5.66406.54297,5.44824-2.83203,5.44824,2.83203-5.44824,2.67383ZM5.29102,18.01855l-1.14471,1.13318c-.19641-.09436-.41382-.15173-.6463-.15173-.82843,0-1.5.67157-1.5,1.5s.67157,1.5,1.5,1.5,1.5-.67157,1.5-1.5c0-.2298-.05585-.44507-.14819-.63977l1.14624-1.13464-.70703-.70703ZM4,21h-1v-1h1v1ZM2.90601,12.99792l1.08789-.00696-.00586-.99097-1.0777.0069c-.20465-.58484-.75562-1.0069-1.41034-1.0069-.82843,0-1.5.67157-1.5,1.5s.67157,1.5,1.5,1.5c.6496,0,1.19745-.42438,1.40601-1.00208ZM2.00897,13h-1.00897v-1h1.00897v1ZM12.99799,21.09119l.00201-2.08923-.99799-.00195-.00201,2.09247c-.58026.20721-1,.7561-1,1.40753,0,.82843.67157,1.5,1.5,1.5s1.5-.67157,1.5-1.5c0-.65289-.41974-1.20276-1.00201-1.40881ZM13,22v1h-1v-1.00903h1v.00903ZM12.00806,2.9079l-.00201,2.09015.99103.00195.00201-2.09155c.58167-.20642,1.00092-.75598,1.00092-1.40845,0-.82843-.67157-1.5-1.5-1.5s-1.5.67157-1.5,1.5c0,.65186.42719,1.20105,1.00806,1.4079ZM12,1.99902v-.99902h1v1.00897h-1v-.00995ZM22.5,11c-.65149,0-1.2005.42175-1.40765,1.00214l-1.09039-.00214-.00195.99609,1.09125.00214c.20612.58215.75592,1.00177,1.40875,1.00177.82843,0,1.5-.67157,1.5-1.5s-.67157-1.5-1.5-1.5ZM23,13h-1.00897v-1h1.00897v1Z"/></svg>