<?xml version="1.0" encoding="UTF-8"?><svg id="icons" xmlns="http://www.w3.org/2000/svg" viewBox="0 0 32 32"><defs><style>.cls-1{fill:none;}</style></defs><rect class="cls-1" width="32" height="32"/><path d="M16.33301,8.18848l-10.77441,5.60156,2.44141,1.19824v8.01172h1v-7.52094l1,.49084v3.84259c0,1.59766,6.24609,4.0777,6.30859,4.10406l.19141.0791.19141-.0791c.0625-.02637,6.28156-2.53571,6.28156-4.10406l.02704-4.00592,3.99957-2.01654-10.66656-5.60156ZM16.49902,22.91168c-2.01758-.86523-5.30469-2.52203-5.49902-3.09918v-3.35181l5.33301,2.5166,5.66772-2.68036.00415,3.47748c-.21973.66992-3.85938,2.42242-5.50586,3.13727ZM16.33301,17.86401l-6.09711-2.89172,5.66992-.87854-.04767-.98828-7.20074,1.0921-.88202-.43292,8.55762-4.44922,8.45776,4.44922-8.45776,4.09937ZM4.5,6c.21991,0,.42719-.04999.61542-.13501l3.45001,3.45337.70898-.70508-3.43933-3.44269c.10205-.20258.16492-.42822.16492-.67059,0-.82843-.67157-1.5-1.5-1.5s-1.5.67157-1.5,1.5.67157,1.5,1.5,1.5ZM4,4h1v1h-1v-1ZM16.99115,29.08911l.00378-3.08716-.99005-.00195-.00378,3.09149c-.58185.2063-1.0011.75592-1.0011,1.40851,0,.82843.67157,1.5,1.5,1.5s1.5-.67157,1.5-1.5c0-.6554-.42303-1.20673-1.00885-1.41089ZM17,31h-1v-1h1v1ZM30.5,15c-.6554,0-1.20673.4231-1.41089,1.00885l-2.08716-.00275-.00195.98999,2.09149.00275c.20624.58185.75592,1.00116,1.40851,1.00116.82843,0,1.5-.67157,1.5-1.5s-.67157-1.5-1.5-1.5ZM31,17h-1v-1h1v1ZM7.52734,23.67188l-2.45544,2.44226c-.17639-.07288-.3692-.11414-.5719-.11414-.82843,0-1.5.67157-1.5,1.5s.67157,1.5,1.5,1.5,1.5-.67157,1.5-1.5c0-.25928-.07172-.49945-.1875-.71222l2.42188-2.40887-.70703-.70703ZM5,28h-1v-1h1v1ZM28.5,26c-.2428,0-.46875.06317-.67163.16553l-3.38403-3.45068-.70898.70508,3.39899,3.46588c-.08466.18787-.13434.39478-.13434.6142,0,.82843.67157,1.5,1.5,1.5s1.5-.67157,1.5-1.5-.67157-1.5-1.5-1.5ZM29,28h-1v-1h1v1ZM3.9082,17h3.0918v-1h-3.0918c-.2066-.58124-.75604-1-1.4082-1-.82843,0-1.5.67157-1.5,1.5s.67157,1.5,1.5,1.5c.65216,0,1.2016-.41876,1.4082-1ZM3,17h-1v-1h1v1ZM23.45996,9.31641l3.44373-3.44104c.18292.07947.38416.12463.59631.12463.82843,0,1.5-.67157,1.5-1.5s-.67157-1.5-1.5-1.5-1.5.67157-1.5,1.5c0,.25012.06702.48236.17529.6897l-3.42236,3.41968.70703.70703ZM27,4h1v1h-1v-1ZM16.00885,2.91089l-.00378,3.08008.99005.00195.00378-3.08441c.58185-.2063,1.0011-.75592,1.0011-1.40851,0-.82843-.67157-1.5-1.5-1.5s-1.5.67157-1.5,1.5c0,.6554.42303,1.20673,1.00885,1.41089ZM16,1h1v1h-1v-1Z"/></svg>