<svg xmlns="http://www.w3.org/2000/svg" viewBox="0 0 16 16"><path fill="none" d="M0 0h16v16H0z"/><path d="M9 13.092V12H8v1.092a1.49 1.49 0 0 0-.991 1.408c0 .828.663 1.5 1.491 1.5s1.491-.672 1.491-1.5c0-.652-.41-1.202-.991-1.408M9 15H8v-1h1zm5.5-7c-.652 0-1.202.419-1.408 1H12v1h1.092A1.496 1.496 0 0 0 16 9.5 1.5 1.5 0 0 0 14.5 8m.5 2h-1V9h1zM3 9.5a1.5 1.5 0 1 0-3 0 1.5 1.5 0 0 0 3 0M1 9h1v1H1zm13.5 4c-.231 0-.447.057-.643.15l-1.503-1.504-.708.708 1.504 1.503c-.093.196-.15.412-.15.643a1.5 1.5 0 1 0 1.5-1.5m.5 2h-1v-1h1zM2.5 4c.231 0 .447-.057.643-.15l1.003 1.004.708-.708L3.85 3.143c.093-.196.15-.412.15-.643A1.5 1.5 0 1 0 2.5 4M2 2h1v1H2zm2.646 9.646L3.143 13.15A1.5 1.5 0 0 0 2.5 13 1.5 1.5 0 1 0 4 14.5c0-.231-.057-.447-.15-.643l1.504-1.503zM3 15H2v-1h1zM9 4.232V2.908A1.496 1.496 0 0 0 8.5 0 1.496 1.496 0 0 0 8 2.908v1.323L3.432 6.516 4 6.78V10h1V7.244l1 .464v1.664c0 .24 0 .738 2.327 1.597l.17.063.171-.061C11 10.138 11 9.62 11 9.372V7.724l2.56-1.212zM8 1h1v1H8zm2 8.244c-.206.17-.842.476-1.497.723-.655-.254-1.29-.564-1.503-.732V8.173l1.542.716L10 8.198zm-1.462-1.38-2.97-1.38L8.5 5.02l2.94 1.47zm4.316-3.01 1.003-1.004c.196.093.412.15.643.15A1.5 1.5 0 1 0 13 2.5c0 .231.057.447.15.643l-1.004 1.003zM14 2h1v1h-1z"/></svg>