<?xml version="1.0" encoding="UTF-8"?><svg id="icons" xmlns="http://www.w3.org/2000/svg" viewBox="0 0 32 32"><defs><style>.cls-1{fill:none;}.cls-2{opacity:.5;}.cls-3{opacity:.25;}</style></defs><path class="cls-3" d="M7,12.99896h4v4h-4v-4ZM2,7h4V3H2v4ZM12,12h4v-4h-4v4ZM7,12h4v-4h-4v4ZM17,8v4h4v-4h-4Z"/><path d="M12,13h4v3h1v-3h4v3h1V2H1v16h12v-1h-1v-4ZM17,3h4v4h-4V3ZM17,8h4v4h-4v-4ZM12,3h4v4h-4V3ZM12,8h4v4h-4v-4ZM6,17H2v-4h4v4ZM6,12H2v-4h4v4ZM6,7H2V3h4v4ZM11,17h-4v-4h4v4ZM11,12h-4v-4h4v4ZM11,7h-4V3h4v4ZM14,17v14h17v-14H14ZM18,30h-3v-2h3v2ZM18,27h-3v-2h3v2ZM18,24h-3v-2h3v2ZM24,30h-5v-2h5v2ZM24,27h-5v-2h5v2ZM24,24h-5v-2h5v2ZM30,30h-5v-2h5v2ZM30,27h-5v-2h5v2ZM30,24h-5v-2h5v2ZM30,21h-15v-3h15v3Z"/><path class="cls-2" d="M21,3v3.99896h-4v-3.99896h4ZM2,12h4v-4H2v4ZM12,16.99896h1.00018c.00061-.55225.44745-.99896.99982-.99896h2v-3.00104h-4v4ZM7,6.99896h4v-3.99896h-4v3.99896Z"/><rect class="cls-1" width="32" height="32"/></svg>