<svg xmlns="http://www.w3.org/2000/svg" viewBox="0 0 32 32"><path d="M7 12.999h4v4H7zM2 7h4V3H2zm10 5h4V8h-4zm-5 0h4V8H7zm10-4v4h4V8z" opacity=".25"/><path d="M12 17v-4h4v2.388a10 10 0 0 1 1-.807V13h3.858A10 10 0 0 1 22 12.875V2H1v16h12.97q.276-.52.61-1zm5-14h4v4h-4zm0 5h4v4h-4zm-5-5h4v4h-4zm0 5h4v4h-4zm-6 9H2v-4h4zm0-5H2V8h4zm0-5H2V3h4zm5 10H7v-4h4zm0-5H7V8h4zm0-5H7V3h4zm11.5 7.2a8.3 8.3 0 1 0 0 16.6 8.3 8.3 0 0 0 0-16.6M22 29.775A7.3 7.3 0 0 1 15.225 23H22zM22 22h-6.775A7.3 7.3 0 0 1 22 15.225zm1-6.775A7.3 7.3 0 0 1 29.775 22H23zm0 14.55V22.99h6.775c-.248 3.626-3.15 6.536-6.775 6.784z"/><path d="M2 8h4v4H2zm15-5v3.999h4V3zM7 6.999h4V3H7zm5 10h2.582c.41-.59.889-1.127 1.418-1.611v-2.389h-4z" opacity=".5"/><path fill="none" d="M0 0h32v32H0z"/></svg>