<svg xmlns="http://www.w3.org/2000/svg" viewBox="0 0 16 16"><path fill="#6f6f6f" d="M1 1h2v2H1zm3 3v2h2V4z" opacity=".25"/><path d="M7 6V4h2v.832a4.3 4.3 0 0 1 1-.628V0H0v7h7.813a3.3 3.3 0 0 1 .282-1zm0-5h2v2H7zM3 6H1V4h2zm0-3H1V1h2zm3 3H4V4h2zm0-3H4V1h2zm8.975 6V7.426c0-1.341-1.337-2.425-2.98-2.425S9.012 6.084 9.012 7.425v1.578A1.03 1.03 0 0 0 8 10.03v4.942C8 15.537 8.463 16 9.03 16h5.94c.567 0 1.03-.463 1.03-1.03v-4.94c0-.565-.46-1.027-1.025-1.03M9.971 7.208C9.971 6.537 11.178 6 12 6s2.03.537 2.03 1.207V9H13v-.886a.27.27 0 0 0-.087-.196c-.786-.698-1.554-.21-1.818-.001a.25.25 0 0 0-.095.197V9H9.971V7.207zM15 15H9v-5h6zm-3-1h-1v-3h1v1h1v1h-1z"/><path d="M4 1h2v2H4zM1 6h2V4H1zm6-2v2h1.095c.214-.44.523-.835.905-1.168V4z" opacity=".5"/><path fill="none" d="M0 0h16v16H0z"/></svg>