<svg xmlns="http://www.w3.org/2000/svg" viewBox="0 0 24 24"><path d="M2 5h2v2H2zm3 5h2V8H5zm2-7h2V1H7zm3 1v2h2V4zm5 15h4v-4h-4z" opacity=".25"/><path d="M10 9V8h1v1zm14 5v10H14V14zm-1 1h-8v8h8zm-12-4h8v2h1v-3H10v10h3v-1h-2zm5-4H6V0h10zM9 4H7v2h2zm0-3H7v2h2zm3 3h-2v2h2zm0-3h-2v2h2zm3 3h-2v2h2zm0-3h-2v2h2zm-7 9h1v1H1V4h4v3a1 1 0 0 0 1 1H5v2h2V8h1zM4 8H2v2h2zm0-3H2v2h2z"/><path d="M20 15v5h-5v-1h4v-4zM15 4h-2v2h2zm-7 6h1a1 1 0 0 1 1-1V8H8zm4-9h-2v2h2zm7 10h-8v8h2v-6h6z" opacity=".5"/><path fill="none" d="M0 0h24v24H0z"/></svg>