<?xml version="1.0" encoding="UTF-8"?><svg id="icons" xmlns="http://www.w3.org/2000/svg" viewBox="0 0 24 24"><defs><style>.cls-1{fill:none;}</style></defs><path d="M17,1H1v14h16V1ZM2,6h2v2h-2v-2ZM10,8h-5v-2h5v2ZM10,9v2h-5v-2h5ZM2,9h2v2h-2v-2ZM2,14v-2h2v2h-2ZM5,14v-2h5v2h-5ZM16,14h-5v-2h5v2ZM16,11h-5v-2h5v2ZM16,8h-5v-2h5v2ZM16,5H2v-3h14v3ZM23.35352,18.35352l-3.85352,3.85352-3.85352-3.85352.70703-.70703,2.64648,2.64648V7h1v13.29297l2.64648-2.64648.70703.70703Z"/><rect class="cls-1" width="24" height="24"/></svg>