<svg xmlns="http://www.w3.org/2000/svg" viewBox="0 0 24 24"><path d="M3 16h2v2H3zm3 5h2v-2H6zm2-9h2v-2H8zm3 3h2v-2h-2zm2-9h2V4h-2zm3 1v2h2V7z" opacity=".25"/><path d="M9 19h2v2H9zm-3-3v2h2v-1H7a1 1 0 0 1-1-1m8-1h2v-2h-2zm-3-5v2h2v-1h-1a1 1 0 0 1-1-1m5-4h2V4h-2zm3 1v2h2V7z" opacity=".5"/><path d="M17 19h5v1h-5v1l-2-1.5 2-1.5zm0-3H7V9h4v3h2v-1h1v1h2v-1h1zm-7-3H8v2h2zm0-3H8v2h2zm3 3h-2v2h2zm3 0h-2v2h2zm6-10v7H12V3zm-7 4h-2v2h2zm0-3h-2v2h2zm3 3h-2v2h2zm0-3h-2v2h2zm3 3h-2v2h2zm0-3h-2v2h2zM11 17h1v5H2v-7h4v3h2v-1h1v1h2zm-6 2H3v2h2zm0-3H3v2h2zm3 3H6v2h2zm3 0H9v2h2z"/><path fill="none" d="M0 0h24v24H0z"/></svg>