<svg xmlns="http://www.w3.org/2000/svg" viewBox="0 0 16 16"><path d="M4 14h1v1H4zm-2-2v1h1v-1zm2 0v1h1v-1zm2-5v1h1V7zm2 0v1h1V7zm0 3h1V9H8zm4-5h1V4h-1zm0-3v1h1V2zm-2 0v1h1V2z" opacity=".25"/><path d="M5 4H2V3h3V2l2 1.5L5 5zm2 8h1v4H1v-5h3v2h1v-1h1v1h1zm-4 2H2v1h1zm0-2H2v1h1zm2 2H4v1h1zm2 0H6v1h1zm4-7h1v4H5V6h3v2h1V7h1v1h1zM7 9H6v1h1zm0-2H6v1h1zm2 2H8v1h1zm2 0h-1v1h1zm5-8v5H9V1zm-5 3h-1v1h1zm0-2h-1v1h1zm2 2h-1v1h1zm0-2h-1v1h1zm2 2h-1v1h1zm0-2h-1v1h1z"/><path d="M6 14h1v1H6zm4-4h1V9h-1zm4-6v1h1V4z" opacity=".5"/><path fill="none" d="M0 0h16v16H0z"/></svg>