<svg xmlns="http://www.w3.org/2000/svg" viewBox="0 0 24 24"><path fill="#6f6f6f" d="M1 2h4v4H1zm5 5v4h4V7z" opacity=".25"/><path d="M13.736 11H11V7h4v2.707a4.8 4.8 0 0 1 1-.551V1H0v11h13.21a5.6 5.6 0 0 1 .526-1M11 2h4v4h-4zm-6 9H1V7h4zm0-5H1V2h4zm5 5H6V7h4zm0-5H6V2h4zm12.052 9h-.056l-.005-.864c0-2.737-2.565-4.815-5.353-3.854-1.593.55-2.638 2.177-2.638 4V15h-.052a.95.95 0 0 0-.948.948v6.104a.95.95 0 0 0 .948.948h8.104a.95.95 0 0 0 .948-.948v-6.104a.95.95 0 0 0-.948-.948M15 14.282c0-1.427.808-2.837 1.964-3.236a3.2 3.2 0 0 1 1.042-.181c1.65 0 2.994 1.542 2.994 3.272l.005.863h-1.009v-1c-.066-1.114-.933-1.973-1.99-1.973q-.353 0-.716.126c-.67.232-1.194.978-1.29 1.847v1h-1zM19 14v1h-2v-1c.081-.5.383-.849.616-.929q.206-.071.39-.071c.503 0 .933.435.994 1m3 8h-8v-6h8zm-4-1h-1v-4h1v1h1v1h-1v1h1v1z"/><path d="M6 2h4v4H6zm5 5v4h2.736A5.2 5.2 0 0 1 15 9.707V7z" opacity=".5"/><path fill="none" d="M0 0h24v24H0z"/></svg>