<?xml version="1.0" encoding="UTF-8"?><svg id="icons" xmlns="http://www.w3.org/2000/svg" viewBox="0 0 32 32"><defs><style>.cls-1{fill:none;}.cls-2{opacity:.5;}.cls-3{opacity:.25;}</style></defs><path class="cls-2" d="M21,3v3.99896h-4v-3.99896h4ZM7,6.99896h4v-3.99896h-4v3.99896ZM2,12h4v-4H2v4ZM12,16.99896h4v-4h-4v4Z"/><path class="cls-3" d="M7,12.99896h4v4h-4v-4ZM2,7h4V3H2v4ZM12,12h4v-4h-4v4ZM7,12h4v-4h-4v4ZM17,8v4h4v-4h-4Z"/><path d="M17,13h2.69043c.68445-.45453,1.46802-.76758,2.30957-.90967V2H1v16h16v-5ZM17,3h4v4h-4V3ZM17,8h4v4h-4v-4ZM6,17H2v-4h4v4ZM6,12H2v-4h4v4ZM6,7H2V3h4v4ZM11,17h-4v-4h4v4ZM11,12h-4v-4h4v4ZM11,7h-4V3h4v4ZM16,17h-4v-4h4v4ZM16,12h-4v-4h4v4ZM16,7h-4V3h4v4ZM28.79999,20h-.79999v-2.00024c0-2.74988-2.24988-4.99976-4.99982-4.99976s-4.99118,2.24988-4.99118,4.99976l-.00857,2.00024h-.80042c-.66003,0-1.20001.53998-1.20001,1.20001v8.59998c0,.65997.53998,1.20001,1.20001,1.20001h11.59998c.66003,0,1.20001-.54004,1.20001-1.20001v-8.59998c0-.66003-.53998-1.20001-1.20001-1.20001ZM19,18c0-2.20605,1.79395-4,4-4s4,1.79395,4,4v2h-2v-1.75c0-1.3252-.82227-2.25-2-2.25s-1.991.9248-1.991,2.25l-.009,1.75h-2v-2ZM24,18.24994v1.75006h-2v-1.75006c0-.68909.31091-1.24994,1-1.24994s1,.56085,1,1.24994ZM29,29.7998c0,.1084-.0918.2002-.2002.2002h-11.59961c-.1084,0-.2002-.0918-.2002-.2002v-8.59961c0-.1084.0918-.2002.2002-.2002h11.59961c.1084,0,.2002.0918.2002.2002v8.59961ZM23,24h1v1h-1v1h1v1h-1v1h-1v-5h1v1Z"/><rect class="cls-1" width="32" height="32"/></svg>