<svg xmlns="http://www.w3.org/2000/svg" viewBox="0 0 32 32"><path d="M7 2h4v4H7zm5 5v4h4V7zM2 11h3V7H2zm5 5h4v-3H7z" opacity=".25"/><path d="M21 7v4h-4V7zm-9-1h4V2h-4zm0 10h1v-1a1 1 0 0 1 1-1h1a1 1 0 0 1 1 1v-2h-4zm-5-5h4V7H7z" opacity=".5"/><path fill="none" d="M0 0h32v32H0z"/><path d="M21 23h1v1h-1zm2 1h1v-1h-1zm-7-7h1v-4h-1zm12 6h-1v1h1zm-3 1h1v-1h-1zm5-1h-1v1h1zm-8-11H6V1h16zM11 7H7v4h4zm0-5H7v4h4zm5 5h-4v4h4zm0-5h-4v4h4zm5 5h-4v4h4zm0-5h-4v4h4zm-4 22h1v-1h-1zm3-1h-1v1h1zm-8-10h-1v3H7v-3H6v3H2v-4h3v-1H2V7h3V6H1v11h12v-1h-1zm9 17h-6V15h-1v16h18v-1zm.44-8c.516-1.918 1.193-4.14 2.06-4.14s1.544 2.222 2.06 4.14h.724c-.654-2.455-1.369-4.84-2.784-4.84s-2.13 2.385-2.784 4.84h.725zm9.45 6.832.11.037v-.74c-.526-.196-2.864-1.14-3.687-2.785-.048-.097-.096-.225-.144-.344h-.753c.088.245.177.47.27.656 1.053 2.106 4.075 3.133 4.204 3.176m-10.577-3.176c.094-.186.183-.41.271-.656h-.753c-.048.12-.096.247-.144.344-.792 1.583-2.995 2.52-3.624 2.76v.744l.047-.016c.13-.043 3.15-1.07 4.203-3.176"/></svg>