<svg xmlns="http://www.w3.org/2000/svg" viewBox="0 0 24 24"><path fill="#6f6f6f" d="M1 2h4v4H1zm5 5v4h4V7z" opacity=".25"/><path d="M11.466 11H11V7h4v2.237c.326-.063.66-.099 1-.117V1H0v11h10.539a7.5 7.5 0 0 1 .927-1M11 2h4v4h-4zm-6 9H1V7h4zm0-5H1V2h4zm5 5H6V7h4zm0-5H6V2h4zm6.4 4.1a6.396 6.396 0 0 0-6.375 5.9H10v1h.025a6.396 6.396 0 0 0 12.775-.5 6.4 6.4 0 0 0-6.4-6.4M16 21.88A5.404 5.404 0 0 1 11.025 17H16zM16 16h-4.975A5.404 5.404 0 0 1 16 11.12zm1-4.865A5.41 5.41 0 0 1 21.774 16H17zm0 10.73v-4.874h4.774A5.416 5.416 0 0 1 17 21.865"/><path d="M6 2h4v4H6zm5 5v4h.466A7.37 7.37 0 0 1 15 9.237V7z" opacity=".5"/><path fill="none" d="M0 0h24v24H0z"/></svg>