<?xml version="1.0" encoding="UTF-8"?><svg id="icons" xmlns="http://www.w3.org/2000/svg" viewBox="0 0 24 24"><defs><style>.cls-1{fill:none;}.cls-2{opacity:.5;}.cls-3{opacity:.25;}</style></defs><path class="cls-3" d="M2,5h2v2h-2v-2ZM5,10h2v-2h-2v2ZM7,3h2V1h-2v2ZM10,4v2h2v-2h-2Z"/><path class="cls-2" d="M8,8h2v2h-2v-2ZM10,3h2V1h-2v2ZM13,4v2h2v-2h-2Z"/><path d="M16,0H6v7h10V0ZM9,6h-2v-2h2v2ZM9,3h-2V1h2v2ZM12,6h-2v-2h2v2ZM12,3h-2V1h2v2ZM15,6h-2v-2h2v2ZM15,3h-2V1h2v2ZM8,10v-2h-1v2h-2v-2h1c-.55273,0-1-.44727-1-1v-3H1v7h8c0-.55273.44727-1,1-1h-2ZM4,10h-2v-2h2v2ZM4,7h-2v-2h2v2ZM11,10h-1v-2h1v2ZM24,23v1h-14v-13h1v12h13ZM23,13h-1v-1h1v1ZM21,13h-1v-1h1v1ZM19,13h-1v-1h1v1ZM16,12h1v1h-1v-1ZM15,13h-1v-1h1v1ZM13,12v1h-1v-1h1ZM17.5498,13.1123c1.2168,0,1.76758,1.85938,2.2998,3.87207.21875.83301.44531,1.69434.67969,2.16016.61133,1.22461,2.05469,1.93164,2.40527,2.06055l.06543.02441v.77051l-.13281-.04492c-.25586-.08496-2.19043-.87891-2.99219-2.4834-.26172-.52344-.48535-1.37109-.72266-2.26758-.48242-1.82715-.99805-3.36133-1.60254-3.36133-.60547,0-1.12012,1.53418-1.59473,3.33398-.24414.92383-.46777,1.77148-.73047,2.29492-.83203,1.66699-3.05078,2.44727-3.07422,2.4541l-.15039.0498v-.78809c.34473-.13184,1.97363-.8457,2.57227-2.04297.23047-.45996.44727-1.28223.67676-2.15332.53223-2.01758,1.08203-3.87891,2.30078-3.87891Z"/><rect class="cls-1" width="24" height="24"/></svg>