<?xml version="1.0" encoding="UTF-8"?><svg id="icons" xmlns="http://www.w3.org/2000/svg" viewBox="0 0 32 32"><defs><style>.cls-1{fill:none;}.cls-2{opacity:.5;}.cls-3{opacity:.25;}</style></defs><path class="cls-3" d="M7,2h4v4h-4V2ZM12,7v4h4v-4h-4ZM2,11h3v-4h-3v4ZM7,16h4v-3h-4v3Z"/><path class="cls-2" d="M21,7v4h-4v-4h4ZM12,6h4V2h-4v4ZM12,16h1v-1c0-.55273.44727-1,1-1h1c.55273,0,1,.44727,1,1v-2h-4v3ZM7,11h4v-4h-4v4Z"/><rect class="cls-1" width="32" height="32"/><path d="M21,23h1v1h-1v-1ZM23,24h1v-1h-1v1ZM16,17h1v-4h-1v4ZM28,23h-1v1h1v-1ZM25,24h1v-1h-1v1ZM30,23h-1v1h1v-1ZM22,12H6V1h16v11ZM11,7h-4v4h4v-4ZM11,2h-4v4h4V2ZM16,7h-4v4h4v-4ZM16,2h-4v4h4V2ZM21,7h-4v4h4v-4ZM21,2h-4v4h4V2ZM17,24h1v-1h-1v1ZM20,23h-1v1h1v-1ZM12,13h-1v3h-4v-3h-1v3H2v-4h3v-1h-3v-4h3v-1H1v11h12v-1h-1v-3ZM21,30h-6v-15h-1v16h18v-1h-11ZM21.44067,22c.51569-1.91797,1.19244-4.14062,2.05933-4.14062s1.54364,2.22266,2.05933,4.14062h.72485c-.65381-2.45538-1.36871-4.83984-2.78418-4.83984s-2.13037,2.38446-2.78418,4.83984h.72485ZM30.88965,28.83203l.11035.03668v-.7406c-.52582-.19519-2.86438-1.13916-3.68652-2.78436-.04871-.09723-.09619-.22461-.14404-.34375h-.75348c.08789.24512.17743.46973.27057.65625,1.05273,2.10547,4.07422,3.13281,4.20312,3.17578ZM20.31348,25.65625c.09314-.18652.18268-.41113.27057-.65625h-.75348c-.04785.11914-.09534.24652-.14404.34375-.79114,1.58307-2.99487,2.51953-3.62402,2.76013v.7442l.04785-.01605c.12891-.04297,3.15039-1.07031,4.20312-3.17578Z"/></svg>