<?xml version="1.0" encoding="UTF-8"?><svg id="icons" xmlns="http://www.w3.org/2000/svg" viewBox="0 0 24 24"><defs><style>.cls-1{fill:none;}.cls-2{fill:#6f6f6f;opacity:.25;}.cls-3{opacity:.5;}</style></defs><path class="cls-2" d="M1,2h4v4H1V2ZM6,7v4h4v-4h-4Z"/><path d="M13.73596,11h-2.73596v-4h4v2.70715c.30896-.22211.64319-.40649,1-.55139V1H0v11h13.21039c.14618-.35297.31628-.69092.52557-1ZM11,2h4v4h-4V2ZM5,11H1v-4h4v4ZM5,6H1V2h4v4ZM10,11h-4v-4h4v4ZM10,6h-4V2h4v4ZM22.05206,15h-.05627l-.00476-.86365c0-2.73749-2.56543-4.81573-5.35309-3.854-1.59308.54962-2.63794,2.17682-2.63794,3.99957v.71808h-.05206c-.52136,0-.94794.42657-.94794.94788v6.10419c0,.52136.42657.94794.94794.94794h8.10413c.52136,0,.94794-.42657.94794-.94794v-6.10419c0-.5213-.42657-.94788-.94794-.94788ZM15,14.28223c0-1.42676.80762-2.83716,1.96387-3.23657.34668-.12012.69727-.18066,1.04199-.18066,1.65039,0,2.99414,1.54224,2.99414,3.27173l.00488.86328h-1.00879v-1c-.06641-1.11426-.93359-1.97302-1.99023-1.97302-.2334,0-.47461.04199-.71582.12598-.67072.23163-1.19366.97839-1.29004,1.84705v1h-1v-.71777ZM19,14v1h-2v-1c.08105-.5.38281-.84863.61621-.92871.13672-.04785.2666-.07129.38965-.07129.50293,0,.93359.43457.99414,1ZM22,22h-8v-6h8v6ZM18,21h-1v-4h1v1h1v1h-1v1h1v1h-1Z"/><path class="cls-3" d="M6,2h4v4h-4V2ZM11,7v4h2.73596c.34406-.50812.77423-.94073,1.26404-1.29285v-2.70715h-4Z"/><rect class="cls-1" width="24" height="24"/></svg>