<svg xmlns="http://www.w3.org/2000/svg" viewBox="0 0 32 32"><path fill="none" d="M0 0h32v32H0z"/><path d="M21 3v3.999h-4V3zM7 6.999h4V3H7zM2 12h4V8H2zm10 4.999h4v-4h-4z" opacity=".5"/><path d="M7 12.999h4v4H7zM2 7h4V3H2zm10 5h4V8h-4zm-5 0h4V8H7zm10-4v4h4V8z" opacity=".25"/><path d="M32 22v1h-9.512c-.457.604-1.174 1-1.988 1a2.49 2.49 0 0 1-1.989-1H9v-1h9.05a2.5 2.5 0 0 1 0-1H15v-1h3.511c.36-.477.881-.826 1.489-.95V14h1v5.05a2.5 2.5 0 0 1 1.488.95H26v1h-3.05a2.5 2.5 0 0 1 0 1zm-11 4h-1v4h-1l1.5 2 1.5-2h-1zm-3-8H1V2h21v10h-1V8h-4v4h2a1 1 0 0 0-1 1h-1v4h1zM17 7h4V3h-4zM6 13H2v4h4zm0-5H2v4h4zm0-5H2v4h4zm5 10H7v4h4zm0-5H7v4h4zm0-5H7v4h4zm5 10h-4v4h4zm0-5h-4v4h4zm0-5h-4v4h4z"/></svg>