<?xml version="1.0" encoding="UTF-8"?><svg id="icons" xmlns="http://www.w3.org/2000/svg" viewBox="0 0 24 24"><defs><style>.cls-1{fill:none;}.cls-2{fill:#6f6f6f;opacity:.25;}.cls-3{opacity:.5;}</style></defs><path class="cls-3" d="M15,7v3h-4v-3h4ZM6,6h4V2h-4v4Z"/><rect class="cls-1" width="24" height="24"/><path d="M23.35352,22.64642l-.70703.70703-10.64648-10.64642v3.29297h-1v-5h5v1h-3.29297l10.64648,10.64642ZM11,10h-.00006c-.05365,0-.10608.01166-.15741.03174-.47455.07819-.83356.47144-.83356.96826l-.00897-4h-4v4l4,.00006v1l-10-.00006V1h16v9h-1v-3h-4v3ZM11,6h4V2h-4v4ZM5,7H1v4h4v-4ZM5,2H1v4h4V2ZM10,2h-4v4h4V2Z"/><path class="cls-2" d="M1,2h4v4H1V2ZM6,7v4h4v-4h-4Z"/></svg>