<?xml version="1.0" encoding="UTF-8"?><svg id="icons" xmlns="http://www.w3.org/2000/svg" viewBox="0 0 32 32"><defs><style>.cls-1{fill:none;}.cls-2{opacity:.5;}.cls-3{opacity:.25;}</style></defs><path class="cls-3" d="M7,2h4v4h-4V2ZM12,7v4h4v-4h-4ZM2,11h3v-4h-3v4ZM7,16h4v-3h-4v3Z"/><path d="M12,16h1v1H1V6h4v1h-3v4h3v1h-3v4h4v-3h1v3h4v-3h1v3ZM16.42871,15.21973c.07617.02545.28534.09918.57129.21802v-2.43774h-1v2.13086c.10742,0,.21484.01758.31836.05176l.11035.03711ZM22,12H6V1h16v11ZM11,7h-4v4h4v-4ZM11,2h-4v4h4V2ZM16,7h-4v4h4v-4ZM16,2h-4v4h4V2ZM21,7h-4v4h4v-4ZM21,2h-4v4h4V2ZM21,30h-6v-15h-1v16h18v-1h-11ZM20.31348,19.21246c-1.05273-2.10547-4.07422-3.13281-4.20312-3.17578l-.11035-.03668v.7406c.52582.19519,2.86438,1.13916,3.68652,2.78436.30957.61816.59863,1.71094.90332,2.86816.69043,2.61328,1.40332,5.31543,2.91016,5.31543s2.21973-2.70215,2.91016-5.31543c.30469-1.15723.59375-2.25.90332-2.86816.79114-1.58307,2.99487-2.51953,3.62402-2.76013v-.7442l-.04785.01605c-.12891.04297-3.15039,1.07031-4.20312,3.17578-.34082.68262-.63867,1.80957-.95312,3.00195-.53418,2.02344-1.26562,4.79492-2.2334,4.79492s-1.69922-2.77148-2.2334-4.79492c-.31445-1.19238-.6123-2.31934-.95312-3.00195ZM23,29h1v-1h-1v1ZM22,29v-1h-1v1h1ZM19,29h1v-1h-1v1ZM18,29v-1h-1v1h1ZM26,29v-1h-1v1h1ZM27,29h1v-1h-1v1ZM30,29v-1h-1v1h1Z"/><path class="cls-2" d="M21,7v4h-4v-4h4ZM12,6h4V2h-4v4ZM12,16h1v-1c0-.55273.44727-1,1-1h1c.55273,0,1,.44727,1,1v-2h-4v3ZM7,11h4v-4h-4v4Z"/><rect class="cls-1" width="32" height="32"/></svg>