<svg xmlns="http://www.w3.org/2000/svg" viewBox="0 0 16 16"><path d="M4 6V4h2v1.752a6.6 6.6 0 0 1 1-.78V4h2v.13a6.5 6.5 0 0 1 1-.155V0H0v7h4.973q.341-.539.78-1zm3-5h2v2H7zM4 1h2v2H4zM3 6H1V4h2zm0-3H1V1h2zm7.495 2.2C7.565 5.2 5.2 7.573 5.2 10.5s2.365 5.3 5.295 5.3 5.305-2.373 5.305-5.3-2.375-5.3-5.305-5.3M10 14.75A4.276 4.276 0 0 1 6.25 11H10zM10 10H6.25A4.276 4.276 0 0 1 10 6.25zm1-3.749A4.28 4.28 0 0 1 14.75 10H11zm0 8.498V10.99h3.75A4.29 4.29 0 0 1 11 14.749"/><path d="M9 4v.13a6.5 6.5 0 0 0-2 .842V4zM4 3h2V1H4zM1 6h2V4H1z" opacity=".5"/><path fill="#6f6f6f" d="M6 4v1.752q-.127.12-.248.248H4V4zM1 1v2h2V1z" opacity=".25"/><path fill="none" d="M0 0h16v16H0z"/></svg>