<?xml version="1.0" encoding="UTF-8"?><svg id="icons" xmlns="http://www.w3.org/2000/svg" viewBox="0 0 16 16"><defs><style>.cls-1{fill:none;}.cls-2{fill:#6f6f6f;opacity:.25;}.cls-3{opacity:.5;}</style></defs><path d="M4,4h2v1h1v-1h2v1h1V0H0v7h5v-1h-1v-2ZM7,1h2v2h-2V1ZM4,1h2v2h-2V1ZM3,6H1v-2h2v2ZM3,3H1V1h2v2ZM15.35358,14.64648l-.70703.70703-7.64655-7.64648v2.29297h-1v-4h4v1h-2.29297l7.64655,7.64648Z"/><path class="cls-3" d="M9,4v1h-2v-1h2ZM1,6h2v-2H1v2ZM4,3h2V1h-2v2Z"/><rect class="cls-1" width="16" height="16"/><path class="cls-2" d="M1,1h2v2H1V1ZM4,4v2h1c0-.55273.44727-1,1-1v-1h-2Z"/></svg>