<svg xmlns="http://www.w3.org/2000/svg" viewBox="0 0 24 24"><path fill="none" d="M0 0h24v24H0z"/><path d="M2 12h3v3H2zm4-1h2V8H6zm13 1v3h3v-3zm-4 7h3v-3h-3z" opacity=".5"/><path d="M2 8h3v3H2zm4 11h2v-3H6zm7 0h1v-3h-1zm6-11v3h3V8zm-3 7h2v-3h-2z" opacity=".25"/><path d="M14 2h-1V1h1zm-4 21h1v-1h-1zm4-14h-1v2h1zm0-3h-1v2h1zm0-3h-1v2h1zm-2 10v1h2v-2h-1v1zm11-6v13H12v-5h3V7zm-9 9h-1v3h1zm4 0h-3v3h3zm0-4h-2v3h2zm0-4h-2v3h2zm4 8h-3v3h3zm0-4h-3v3h3zm0-4h-3v3h3zm-10 4H9v8H1V7h11zm-7 4H2v3h3zm0-4H2v3h3zm0-4H2v3h3zm3 8H6v3h2zm0-4H6v3h2zm0-4H6v3h2zm3 0H9v3h2zm-1 7h1v-2h-1zm0 3h1v-2h-1zm0 3h1v-2h-1zm0-15 2-1.5L10 3v1H5v1h5zm7-1h5V4h-5V3l-2 1.5L17 6z"/></svg>