<svg xmlns="http://www.w3.org/2000/svg" viewBox="0 0 32 32"><path d="M2 21h4v4H2zm5 9h4v-4H7zm2-14h4v-4H9zm5 5h4v-4h-4zm2-14h4V3h-4zm5 1v4h4V8z" opacity=".25"/><path d="M24 27h6v1h-6v2l-2.842-2.5L24 25zm7-25v11H15V2zM20 8h-4v4h4zm0-5h-4v4h4zm5 5h-4v4h4zm0-5h-4v4h4zm5 5h-4v4h4zm0-5h-4v4h4zM16 23h1v8H1V20h6v5h4v-2h1v2h4zM6 26H2v4h4zm0-5H2v4h4zm5 5H7v4h4zm5 0h-4v4h4zm8-4H8V11h6v5h4v-2h1v2h4v-2h1zm-11-5H9v4h4zm0-5H9v4h4zm5 5h-4v4h4zm5 0h-4v4h4z"/><path d="M12 26h4v4h-4zm7-5h4v-4h-4zm2-14h4V3h-4zm5 1v4h4V8zM7 22v3h4v-2H8a1 1 0 0 1-1-1m7-9v3h4v-2h-3a1 1 0 0 1-1-1" opacity=".5"/><path fill="none" d="M0 0h32v32H0z"/></svg>