<?xml version="1.0" encoding="UTF-8"?><svg id="icons" xmlns="http://www.w3.org/2000/svg" viewBox="0 0 16 16"><defs><style>.cls-1{fill:none;}.cls-2{opacity:.5;}.cls-3{opacity:.25;}</style></defs><path class="cls-2" d="M9,3v1h1v-1h-1Z"/><path d="M16,6.15039v.69958c-.0271.00183-.78638.03943-1.76758.91174-.44434.39551-.77539,1.48633-1.06641,2.44922-.42969,1.41602-.7998,2.63867-1.66602,2.63867s-1.23633-1.22266-1.66602-2.63867c-.29102-.96289-.62207-2.05371-1.06641-2.44922-.9812-.87231-1.74048-.90991-1.76758-.91174v-.69958c.04102,0,1.02246.01172,2.23242,1.08789.59277.52637.9375,1.66699,1.27148,2.76953.25879.85254.64941,2.14258.99609,2.14258s.7373-1.29004.99609-2.14258c.33398-1.10254.67871-2.24316,1.27148-2.76953,1.20996-1.07617,2.19141-1.08789,2.23242-1.08789ZM13,13v1h1v-1h-1ZM11,13v1h1v-1h-1ZM9,13v1h1v-1h-1ZM8,13h-1v1h1v-1ZM15,14h1v-1h-1v1ZM6,6h-1v10h11v-1H6V6ZM11,5h-7V0h7v5ZM6,3h-1v1h1v-1ZM6,1h-1v1h1v-1ZM8,3h-1v1h1v-1ZM8,1h-1v1h1v-1ZM10,3h-1v1h1v-1ZM10,1h-1v1h1v-1ZM3,7h1v1H0V3h3v4ZM2,6h-1v1h1v-1ZM2,4h-1v1h1v-1Z"/><path class="cls-3" d="M5.00043,1h.99957v1h-.99957c-.00018-.00031-.00024-.00043-.00043-.00067v-.99866c.00018-.00031.00024-.00043.00043-.00067ZM7.00043,1c-.00018.00024-.00024.00037-.00043.00067v.99866c.00018.00024.00024.00037.00043.00067h.99957v-1h-.99957ZM7,4h1v-1h-1v1ZM3,7h1v-1h-1v1ZM1,5h1v-1h-1v1Z"/><rect class="cls-1" width="16" height="16"/></svg>