<svg xmlns="http://www.w3.org/2000/svg" viewBox="0 0 32 32"><path d="M19 19v12h12V19zm11 11H20V20h10zM12 16h2v1H1V6h4v1H2v4h3v1H2v4h4v-3h1v3h4v-3h1zm4-2v-1h1v1zm6-13H6v11h16zM11 11H7V7h4zm0-5H7V2h4zm5 5h-4V7h4zm0-5h-4V2h4zm5 5h-4V7h4zm0-5h-4V2h4zm-5 20h2v1h-3V15h12v3h-1v-2H16z"/><path d="M7 13h4v3H7zm0-7h4V2H7zm-5 5h3V7H2zm10 0h4V7h-4zm8 9v6h6v-6z" opacity=".25"/><path d="M27 20v7h-7v-1h6v-6zM16 2h-4v4h4zm5 5h-4v4h4zM7 11h4V7H7zm19 5H16v10h2v-8h8zm-10-3h-4v3h2v-1a1 1 0 0 1 1-1h1z" opacity=".5"/><path fill="none" d="M0 0h32v32H0z"/></svg>