<svg xmlns="http://www.w3.org/2000/svg" viewBox="0 0 24 24"><path d="M2 5h2v2H2zm3 5h2V8H5zm2-7h2V1H7zm3 1v2h2V4z" opacity=".25"/><path d="M8 8h2v2H8zm2-5h2V1h-2zm3 1v2h2V4z" opacity=".5"/><path d="M10 10H8V8H7v2H5V8h1a1 1 0 0 1-1-1V4H1v7h10V8h-1zm-6 0H2V8h2zm0-3H2V5h2zm12-7H6v7h10zM9 6H7V4h2zm0-3H7V1h2zm3 3h-2V4h2zm0-3h-2V1h2zm3 3h-2V4h2zm0-3h-2V1h2zm8.99 18.453L22.77 24H12.499l5.201-7.477L12.405 10h10.55v3H22v-2h-7.495l4.444 5.477L14.412 23h7.728l.947-1.979z"/><path fill="none" d="M0 0h24v24H0z"/></svg>