<svg xmlns="http://www.w3.org/2000/svg" viewBox="0 0 32 32"><path d="M7 12.999h4v4H7zM2 7h4V3H2zm10 5h4V8h-4zm-5 0h4V8H7zm10-4v4h4V8z" opacity=".25"/><path d="M12 13h4v3h1v-3h4v3h1V2H1v16h12v-1h-1zm5-10h4v4h-4zm0 5h4v4h-4zm-5-5h4v4h-4zm0 5h4v4h-4zm-6 9H2v-4h4zm0-5H2V8h4zm0-5H2V3h4zm5 10H7v-4h4zm0-5H7V8h4zm0-5H7V3h4zm3 10v14h17V17zm4 13h-3v-2h3zm0-3h-3v-2h3zm0-3h-3v-2h3zm6 6h-5v-2h5zm0-3h-5v-2h5zm0-3h-5v-2h5zm6 6h-5v-2h5zm0-3h-5v-2h5zm0-3h-5v-2h5zm0-3H15v-3h15z"/><path d="M21 3v3.999h-4V3zM2 12h4V8H2zm10 4.999h1A1 1 0 0 1 14 16h2v-3.001h-4zm-5-10h4V3H7z" opacity=".5"/><path fill="none" d="M0 0h32v32H0z"/></svg>