<?xml version="1.0" encoding="UTF-8"?><svg id="icons" xmlns="http://www.w3.org/2000/svg" viewBox="0 0 24 24"><defs><style>.cls-1{fill:none;}.cls-2{opacity:.5;}.cls-3{opacity:.25;}</style></defs><rect class="cls-1" width="24" height="24"/><path class="cls-2" d="M2,12h3v3h-3v-3ZM6,11h2v-3h-2v3ZM19,12v3h3v-3h-3ZM15,19h3v-3h-3v3Z"/><path class="cls-3" d="M2,8h3v3h-3v-3ZM6,19h2v-3h-2v3ZM13,19h1v-3h-1v3ZM19,8v3h3v-3h-3ZM16,15h2v-3h-2v3Z"/><path d="M14,2h-1v-1h1v1ZM10,23h1v-1h-1v1ZM14,9h-1v2h1v-2ZM14,6h-1v2h1v-2ZM14,3h-1v2h1v-2ZM12,13v1h2v-2h-1v1h-1ZM23,7v13h-11v-5h3V7h8ZM14,16h-1v3h1v-3ZM18,16h-3v3h3v-3ZM18,12h-2v3h2v-3ZM18,8h-2v3h2v-3ZM22,16h-3v3h3v-3ZM22,12h-3v3h3v-3ZM22,8h-3v3h3v-3ZM12,12h-3v8H1V7h11v5ZM5,16h-3v3h3v-3ZM5,12h-3v3h3v-3ZM5,8h-3v3h3v-3ZM8,16h-2v3h2v-3ZM8,12h-2v3h2v-3ZM8,8h-2v3h2v-3ZM11,8h-2v3h2v-3ZM10,15h1v-2h-1v2ZM10,18h1v-2h-1v2ZM10,21h1v-2h-1v2ZM10,6l2-1.5-2-1.5v1h-5v1h5v1ZM17,5h5v-1h-5v-1l-2,1.5,2,1.5v-1Z"/></svg>