<?xml version="1.0" encoding="UTF-8"?><svg id="icons" xmlns="http://www.w3.org/2000/svg" viewBox="0 0 24 24"><defs><style>.cls-1{fill:none;}.cls-2{fill:#6f6f6f;opacity:.25;}.cls-3{opacity:.5;}</style></defs><path d="M6,7h4v2h1v-2h4v2h1V1H0v11h7v-1h-1v-4ZM11,2h4v4h-4V2ZM6,2h4v4h-4V2ZM5,11H1v-4h4v4ZM5,6H1V2h4v4ZM8,10v13h15v-13h-15ZM11,22h-2v-2h2v2ZM11,19h-2v-2h2v2ZM11,16h-2v-2h2v2ZM16,22h-4v-2h4v2ZM16,19h-4v-2h4v2ZM16,16h-4v-2h4v2ZM22,22h-5v-2h5v2ZM22,19h-5v-2h5v2ZM22,16h-5v-2h5v2ZM22,13h-13v-2h13v2Z"/><path class="cls-3" d="M15,7v2h-4v-2h4ZM6,6h4V2h-4v4Z"/><path class="cls-2" d="M1,2h4v4H1V2ZM6,7v4h1v-1c0-.55273.44727-1,1-1h2v-2h-4Z"/><rect class="cls-1" width="24" height="24"/></svg>