<?xml version="1.0" encoding="UTF-8"?><svg id="icons" xmlns="http://www.w3.org/2000/svg" viewBox="0 0 16 16"><defs><style>.cls-1{fill:none;}.cls-2{opacity:.5;}.cls-3{opacity:.25;}</style></defs><path class="cls-2" d="M9,3v1h1v-1h-1Z"/><path class="cls-3" d="M7,3h1v1h-1v-1ZM5,1.00067v.99866c.00018.00024.00024.00037.00043.00067h.99957v-1h-.99957c-.00018.00024-.00024.00037-.00043.00067ZM7.00043,1c-.00018.00024-.00024.00037-.00043.00067v.99866c.00018.00024.00024.00037.00043.00067h.99957v-1h-.99957ZM3,7h1v-1h-1v1ZM1,5h1v-1h-1v1Z"/><path d="M11,0h-7v5h7V0ZM6,4h-1v-1h1v1ZM6,2h-1v-1h1v1ZM8,4h-1v-1h1v1ZM8,2h-1v-1h1v1ZM10,4h-1v-1h1v1ZM10,2h-1v-1h1v1ZM3,3H0v5h4v-1h-1V3ZM2,7h-1v-1h1v1ZM2,5h-1v-1h1v1ZM6,15h10v1H5V6h1v9ZM9,7v-1h1v1h-1ZM11,6h1v1h-1v-1ZM14,7h-1v-1h1v1ZM16,6v1h-1v-1h1ZM7,7v-1h1v1h-1ZM14.23242,12.23828c.9812.87231,1.74048.90991,1.76758.91174v.69958c-.04102,0-1.02246-.01172-2.23242-1.08789-.59277-.52637-.9375-1.66699-1.27148-2.76953-.25879-.85254-.64941-2.14258-.99609-2.14258s-.7373,1.29004-.99609,2.14258c-.33398,1.10254-.67871,2.24316-1.27148,2.76953-1.20996,1.07617-2.19141,1.08789-2.23242,1.08789v-.69958c.0271-.00183.78638-.03943,1.76758-.91174.44434-.39551.77539-1.48633,1.06641-2.44922.42969-1.41602.7998-2.63867,1.66602-2.63867s1.23633,1.22266,1.66602,2.63867c.29102.96289.62207,2.05371,1.06641,2.44922Z"/><rect class="cls-1" width="16" height="16"/></svg>