<svg xmlns="http://www.w3.org/2000/svg" viewBox="0 0 24 24"><path fill="none" d="M0 0h24v24H0z"/><path fill="#6f6f6f" d="M1 2h4v4H1zm5 5v4h4V7z" opacity=".25"/><path d="M12 7v4h-1V7zM6 6h4V2H6z" opacity=".5"/><path d="M24 15v1h-7.512c-.457.604-1.174 1-1.988 1a2.49 2.49 0 0 1-1.989-1H5v-1h7.05a2.5 2.5 0 0 1 0-1H9v-1h3.511c.36-.477.881-.826 1.489-.95V8h1v4.05a2.5 2.5 0 0 1 1.488.95H20v1h-3.05a2.5 2.5 0 0 1 0 1zM8 12H0V1h16v5h-1V2h-4v4h1.407v.216A.98.98 0 0 0 12 7h-1v4h-1V7H6v4h3a1 1 0 0 0-1 1M6 6h4V2H6zM5 7H1v4h4zm0-5H1v4h4zm10 17h-1v3h-1l1.5 2 1.5-2h-1z"/></svg>