<?xml version="1.0" encoding="UTF-8"?><svg id="icons" xmlns="http://www.w3.org/2000/svg" viewBox="0 0 16 16"><defs><style>.cls-1{fill:none;}.cls-2{fill:#6f6f6f;opacity:.25;}.cls-3{opacity:.5;}</style></defs><rect class="cls-1" width="16" height="16"/><path class="cls-2" d="M1.00049,1h1.99951v2h-1.99951c-.00018-.00031-.00031-.00049-.00049-.00079v-1.99841c.00018-.00031.00031-.00049.00049-.00079ZM4.00049,4c-.00018.00031-.00031.00049-.00049.00079v1.99841c.00018.00031.00031.00049.00049.00079h1.99951v-2h-1.99951Z"/><path class="cls-3" d="M4,1h2v2h-2V1ZM1,6h2v-2H1v2Z"/><path d="M5,6h-1v-2h2v2h1V1h2v1h1V0H0v7h4c0-.55273.44727-1,1-1ZM4,1h2v2h-2V1ZM3,6H1v-2h2v2ZM3,3H1V1h2v2ZM9,14h1l-1.5,2-1.5-2h1v-2h1v2ZM16,9v1h-5.77771c-.34674.59534-.98486,1-1.72229,1-.73853,0-1.37628-.40466-1.72266-1H1v-1h5.5c0-.36621.10559-.70483.27734-1h-1.77734v-1h3V3h1v4h3v1h-1.77771c.17194.29517.27771.63379.27771,1h5.5Z"/></svg>