<svg xmlns="http://www.w3.org/2000/svg" viewBox="0 0 32 32"><path fill="none" d="M0 0h32v32H0z"/><path d="M4 16h4v4H4zm5-1h4v-4H9zm15 1v4h4v-4zm-3 6h-2v3h4v-4h-2z" opacity=".5"/><path d="M4 11h4v4H4zm5 14h2v-4H9zm7 0h2v-3h-2zm8-14v4h4v-4zm-3 9h2v-4h-2zm-5-4h-2v1h2z" opacity=".25"/><path d="M13 28h1v2h-1zm0-1h1v-2h-1zm0-3h1v-2h-1zm6-9h-1v2h1zm0-3h-1v2h1zm0-3h-1v2h1zm0-3h-1v2h1zm0-3h-1v2h1zm-3 17h3v-2h-1v1h-2zm-1-1h-2v2h1v-1h1zm8-14V3l-2.842 2.5L23 8V6h6V5zm-9 3 2.842-2.5L14 3v2H8v1h6zm6 2h9v16H15v-5h5zm-2 12h-2v3h2zm6-7h4v-4h-4zm0 5h4v-4h-4zm0 5h4v-4h-4zm-3-10h2v-4h-2zm0 5h2v-4h-2zm0 2h-2v3h4v-4h-2zm-9-4v8H3V10h14v8zm2-3h2v-4h-2zm0 2h2v-1h-2zm-6 4H4v4h4zm0-5H4v4h4zm0-5H4v4h4zm1 4h4v-4H9zm2 6H9v4h2zm2-4v-1H9v4h2v-3zm0 15h1v-1h-1zm6-31h-1v1h1z"/></svg>