<?xml version="1.0" encoding="UTF-8"?><svg id="icons" xmlns="http://www.w3.org/2000/svg" viewBox="0 0 32 32"><defs><style>.cls-1{fill:none;}.cls-2{opacity:.5;}.cls-3{opacity:.25;}</style></defs><rect class="cls-1" width="32" height="32"/><path class="cls-2" d="M21,3v3.99896h-4v-3.99896h4ZM7,6.99896h4v-3.99896h-4v3.99896ZM2,12h4v-4H2v4ZM12,16.99896h4v-4h-4v4Z"/><path class="cls-3" d="M7,12.99896h4v4h-4v-4ZM2,7h4V3H2v4ZM12,12h4v-4h-4v4ZM7,12h4v-4h-4v4ZM17,8v4h4v-4h-4Z"/><path d="M32,22v1h-9.51178c-.45673.60388-1.17401,1-1.98822,1-.81543,0-1.53247-.39612-1.98883-1h-9.51117v-1h9.05042c-.03278-.16156-.05042-.32874-.05042-.5s.01764-.33844.05042-.5h-3.05042v-1h3.51117c.36047-.47705.8811-.82623,1.48883-.94958v-5.05042h1v5.05048c.60693.12341,1.12756.47266,1.48822.94952h3.51178v1h-3.05048c.03284.16156.05048.32874.05048.5s-.01764.33844-.05048.5h9.05048ZM21,26h-1v4h-1l1.5,2,1.5-2h-1v-4ZM18,18H1V2h21v10h-1v-4h-4v4h2c-.55273,0-1,.44727-1,1h-1v4h1v1ZM17,7h4V3h-4v4ZM6,13H2v4h4v-4ZM6,8H2v4h4v-4ZM6,3H2v4h4V3ZM11,13h-4v4h4v-4ZM11,8h-4v4h4v-4ZM11,3h-4v4h4V3ZM16,13h-4v4h4v-4ZM16,8h-4v4h4v-4ZM16,3h-4v4h4V3Z"/></svg>