<svg xmlns="http://www.w3.org/2000/svg" viewBox="0 0 32 32"><path d="M21 3v3.999h-4V3zM7 6.999h4V3H7zM2 12h4V8H2zm10 4.999h4v-4h-4z" opacity=".5"/><path d="M7 12.999h4v4H7zM2 7h4V3H2zm10 5h4V8h-4zm-5 0h4V8H7zm10-4v4h4V8z" opacity=".25"/><path d="M17 13h2.69a6 6 0 0 1 2.31-.91V2H1v16h16zm0-10h4v4h-4zm0 5h4v4h-4zM6 17H2v-4h4zm0-5H2V8h4zm0-5H2V3h4zm5 10H7v-4h4zm0-5H7V8h4zm0-5H7V3h4zm5 10h-4v-4h4zm0-5h-4V8h4zm0-5h-4V3h4zm12.8 13H28v-2c0-2.75-2.25-5-5-5s-4.991 2.25-4.991 5L18 20h-.8c-.66 0-1.2.54-1.2 1.2v8.6c0 .66.54 1.2 1.2 1.2h11.6c.66 0 1.2-.54 1.2-1.2v-8.6c0-.66-.54-1.2-1.2-1.2M19 18c0-2.206 1.794-4 4-4s4 1.794 4 4v2h-2v-1.75c0-1.325-.822-2.25-2-2.25s-1.991.925-1.991 2.25L21 20h-2zm5 .25V20h-2v-1.75c0-.69.31-1.25 1-1.25s1 .56 1 1.25m5 11.55c0 .108-.092.2-.2.2H17.2a.203.203 0 0 1-.2-.2v-8.6c0-.108.092-.2.2-.2h11.6c.108 0 .2.092.2.2zM23 24h1v1h-1v1h1v1h-1v1h-1v-5h1z"/><path fill="none" d="M0 0h32v32H0z"/></svg>