<?xml version="1.0" encoding="UTF-8"?><svg id="icons" xmlns="http://www.w3.org/2000/svg" viewBox="0 0 16 16"><defs><style>.cls-1{fill:none;}.cls-2{fill:#6f6f6f;opacity:.25;}.cls-3{opacity:.5;}</style></defs><path d="M4,6v-2h2v1.75214c.30688-.2912.64142-.55219,1-.78003v-.97211h2v.12939c.32495-.07642.65851-.12836,1-.15411V0H0v7h4.97272c.22778-.35858.48859-.69305.77948-1h-1.7522ZM7,1h2v2h-2V1ZM4,1h2v2h-2V1ZM3,6H1v-2h2v2ZM3,3H1V1h2v2ZM10.49469,5.20001c-2.92999,0-5.29468,2.3728-5.29468,5.29999s2.36469,5.29999,5.29468,5.29999,5.3053-2.37292,5.3053-5.29999-2.37524-5.29999-5.3053-5.29999ZM10,14.74969c-1.96692-.22992-3.5177-1.78082-3.74933-3.74969h3.74933v3.74969ZM10,10h-3.74933c.23163-1.96887,1.78241-3.51978,3.74933-3.74969v3.74969ZM11,6.25116c1.96777.2334,3.51746,1.78284,3.74921,3.74884h-3.74921v-3.74884ZM11,14.74884v-3.75784h3.74921c-.23175,1.966-1.78143,3.52444-3.74921,3.75784Z"/><path class="cls-3" d="M9,4v.12939c-.71979.16931-1.39307.45691-2,.84271v-.97211h2ZM4,3h2V1h-2v2ZM1,6h2v-2H1v2Z"/><path class="cls-2" d="M6,4v1.75214c-.0849.08051-.1673.16296-.2478.24786h-1.75171c-.00018-.00031-.00031-.00049-.00049-.00079v-1.99841c.00018-.00031.00031-.00049.00049-.00079h1.99951ZM1,1.00079v1.99841c.00018.00031.00031.00049.00049.00079h1.99951V1h-1.99951c-.00018.00031-.00031.00049-.00049.00079Z"/><rect class="cls-1" width="16" height="16"/></svg>