<svg xmlns="http://www.w3.org/2000/svg" viewBox="0 0 24 24"><path d="M3 16h2v2H3zm3 5h2v-2H6zm2-9h2v-2H8zm3 3h2v-2h-2zm2-9h2V4h-2zm3 1v2h2V7z" opacity=".25"/><path d="M9 19h2v2H9zm-3-3v2h2v-1H7a1 1 0 0 1-1-1m8-1h2v-2h-2zm-3-5v2h2v-1h-1a1 1 0 0 1-1-1m5-4h2V4h-2zm3 1v2h2V7z" opacity=".5"/><path d="M11 18H9v-1H8v1H6v-3H2v7h10v-5h-1zm-6 3H3v-2h2zm0-3H3v-2h2zm3 3H6v-2h2zm3 0H9v-2h2zM7 6H2V5h5V4l2 1.5L7 7zm9 6h-2v-1h-1v1h-2V9H7v7h10v-5h-1zm-6 3H8v-2h2zm0-3H8v-2h2zm3 3h-2v-2h2zm3 0h-2v-2h2zM12 3v7h10V3zm3 6h-2V7h2zm0-3h-2V4h2zm3 3h-2V7h2zm0-3h-2V4h2zm3 3h-2V7h2zm0-3h-2V4h2z"/><path fill="none" d="M0 0h24v24H0z"/></svg>