<?xml version="1.0" encoding="UTF-8"?><svg id="icons" xmlns="http://www.w3.org/2000/svg" viewBox="0 0 24 24"><defs><style>.cls-1{fill:none;}.cls-2{fill:#6f6f6f;opacity:.25;}.cls-3{opacity:.5;}</style></defs><rect class="cls-1" width="24" height="24"/><path class="cls-2" d="M1,2h4v4H1V2ZM6,7v4h4v-4h-4Z"/><path class="cls-3" d="M12,7v4h-1v-4h1ZM6,6h4V2h-4v4Z"/><path d="M24,15v1h-7.51178c-.45673.60388-1.17401,1-1.98822,1-.81543,0-1.53247-.39612-1.98883-1h-7.51117v-1h7.05042c-.03278-.16156-.05042-.32874-.05042-.5s.01764-.33844.05042-.5h-3.05042v-1h3.51117c.36047-.47705.8811-.82623,1.48883-.94958v-4.05042h1v4.05048c.60693.12341,1.12756.47266,1.48822.94952h3.51178v1h-3.05048c.03284.16156.05048.32874.05048.5s-.01764.33844-.05048.5h7.05048ZM8,12H0V1h16v5h-1V2h-4v4h1.40729v.21552c-.24127.1825-.40729.45831-.40729.78448h-1v4h-1v-4h-4v4h3c-.55273,0-1,.44727-1,1ZM6,6h4V2h-4v4ZM5,7H1v4h4v-4ZM5,2H1v4h4V2ZM15,19h-1v3h-1l1.5,2,1.5-2h-1v-3Z"/></svg>