<?xml version="1.0" encoding="UTF-8"?><svg id="icons" xmlns="http://www.w3.org/2000/svg" viewBox="0 0 24 24"><defs><style>.cls-1{fill:none;}.cls-2{opacity:.5;}.cls-3{opacity:.25;}</style></defs><path class="cls-3" d="M3,16h2v2h-2v-2ZM6,21h2v-2h-2v2ZM8,12h2v-2h-2v2ZM11,15h2v-2h-2v2ZM13,6h2v-2h-2v2ZM16,7v2h2v-2h-2Z"/><path class="cls-2" d="M9,19h2v2h-2v-2ZM6,16v2h2v-1h-1c-.55273,0-1-.44727-1-1ZM14,15h2v-2h-2v2ZM11,10v2h2v-1h-1c-.55273,0-1-.44727-1-1ZM16,6h2v-2h-2v2ZM19,7v2h2v-2h-2Z"/><path d="M11,18h-2v-1h-1v1h-2v-3H2v7h10v-5h-1v1ZM5,21h-2v-2h2v2ZM5,18h-2v-2h2v2ZM8,21h-2v-2h2v2ZM11,21h-2v-2h2v2ZM7,6H2v-1h5v-1l2,1.5-2,1.5v-1ZM16,12h-2v-1h-1v1h-2v-3h-4v7h10v-5h-1v1ZM10,15h-2v-2h2v2ZM10,12h-2v-2h2v2ZM13,15h-2v-2h2v2ZM16,15h-2v-2h2v2ZM12,3v7h10V3h-10ZM15,9h-2v-2h2v2ZM15,6h-2v-2h2v2ZM18,9h-2v-2h2v2ZM18,6h-2v-2h2v2ZM21,9h-2v-2h2v2ZM21,6h-2v-2h2v2Z"/><rect class="cls-1" width="24" height="24"/></svg>