<?xml version="1.0" encoding="UTF-8"?><svg id="icons" xmlns="http://www.w3.org/2000/svg" viewBox="0 0 32 32"><defs><style>.cls-1{fill:none;}.cls-2{opacity:.5;}.cls-3{opacity:.25;}</style></defs><path class="cls-3" d="M7,12.99896h4v4h-4v-4ZM2,7h4V3H2v4ZM12,12h4v-4h-4v4ZM7,12h4v-4h-4v4ZM17,8v4h4v-4h-4Z"/><path d="M12,13h4v2h1v-2h4v2h1V2H1v16h14v-1h-3v-4ZM17,3h4v4h-4V3ZM17,8h4v4h-4v-4ZM12,3h4v4h-4V3ZM12,8h4v4h-4v-4ZM6,17H2v-4h4v4ZM6,12H2v-4h4v4ZM6,7H2V3h4v4ZM11,17h-4v-4h4v4ZM11,12h-4v-4h4v4ZM11,7h-4V3h4v4ZM30.35352,29.64648l-.70703.70703-12.64648-12.64648v4.29297h-1v-6h6v1h-4.29297l12.64648,12.64648Z"/><rect class="cls-1" width="32" height="32"/><path class="cls-2" d="M7,3h4v3.99896h-4v-3.99896ZM2,12h4v-4H2v4ZM17,3v3.99896h4v-3.99896h-4ZM12,17h3v-1c0-.55273.44727-1,1-1v-2h-4v4Z"/><polygon points="16 16 16 17 16 22 17 22 17 17 22 17 22 16 16 16"/></svg>