<?xml version="1.0" encoding="UTF-8"?><svg id="icons" xmlns="http://www.w3.org/2000/svg" viewBox="0 0 32 32"><defs><style>.cls-1{fill:none;}</style></defs><path d="M22,2H1v17h21V2ZM2,8h4v3H2v-3ZM14,11h-7v-3h7v3ZM14,12v3h-7v-3h7ZM2,12h4v3H2v-3ZM2,18v-2h4v2H2ZM7,18v-2h7v2h-7ZM21,18h-6v-2h6v2ZM21,15h-6v-3h6v3ZM21,11h-6v-3h6v3ZM21,7H2V3h19v4ZM30.35352,25.35352l-4.85352,4.85352-4.85352-4.85352.70703-.70703,3.64648,3.64648V12h1v16.29297l3.64648-3.64648.70703.70703Z"/><rect class="cls-1" width="32" height="32"/></svg>