<?xml version="1.0" encoding="UTF-8"?><svg id="icons" xmlns="http://www.w3.org/2000/svg" viewBox="0 0 32 32"><defs><style>.cls-1{fill:none;}.cls-2{opacity:.5;}.cls-3{opacity:.25;}</style></defs><path class="cls-2" d="M12,13h4v3h-4v-3ZM7,11h4v-4h-4v4ZM12,6h4V2h-4v4ZM17,7v4h4v-4h-4Z"/><path class="cls-3" d="M7,2h4v4h-4V2ZM12,7v4h4v-4h-4ZM2,11h3v-4h-3v4ZM7,16h4v-3h-4v3Z"/><path d="M16,13h1v4H1V6h4v1h-3v4h3v1h-3v4h4v-3h1v3h4v-3h1v3h4v-3ZM22,12H6V1h16v11ZM11,7h-4v4h4v-4ZM11,2h-4v4h4V2ZM16,7h-4v4h4v-4ZM16,2h-4v4h4V2ZM21,7h-4v4h4v-4ZM21,2h-4v4h4V2ZM30.06543,28.03906l-.8877,1.96094h-9.05078l5.8125-7.60156-5.70801-6.39844h8.76855v2h1v-3h-12l6.64258,7.44727-6.64258,8.55273h11.82227l1.15332-2.54883-.91016-.41211Z"/><rect class="cls-1" width="32" height="32"/></svg>