<?xml version="1.0" encoding="UTF-8"?><svg id="icons" xmlns="http://www.w3.org/2000/svg" viewBox="0 0 16 16"><defs><style>.cls-1{fill:none;}.cls-2{opacity:.5;}.cls-3{opacity:.25;}</style></defs><path d="M6.41309,6h-.41309v1h-1v-1h-1v1h-1V3H0v5h7v-.9682l-.32617-.34821c-.17688-.1889-.26031-.43481-.26074-.68359ZM2,7h-1v-1h1v1ZM2,5h-1v-1h1v1ZM15.97168,14.54102l-.90625,1.45898h-7.50879l4.09668-5.46387-4.25-4.53613h7.5957v1.97266h-.991v-.97266h-4.29806l3.24609,3.46387-3.39941,4.53613h4.95215l.61328-.98633.84961.52734ZM11,0h-7v5h7V0ZM6,4h-1v-1h1v1ZM6,2h-1v-1h1v1ZM8,4h-1v-1h1v1ZM8,2h-1v-1h1v1ZM10,4h-1v-1h1v1ZM10,2h-1v-1h1v1Z"/><path class="cls-2" d="M10,3v1h-1v-1h1ZM5,7h1v-1h-1v1Z"/><path class="cls-3" d="M7,3h1v1h-1v-1ZM5,1.00067v.99866c.00018.00024.00024.00037.00043.00067h.99957v-1h-.99957c-.00018.00024-.00024.00037-.00043.00067ZM7.00043,1c-.00018.00024-.00024.00037-.00043.00067v.99866c.00018.00024.00024.00037.00043.00067h.99957v-1h-.99957ZM3,7h1v-1h-1v1ZM1,5h1v-1h-1v1Z"/><rect class="cls-1" width="16" height="16"/></svg>