<?xml version="1.0" encoding="UTF-8"?><svg id="icons" xmlns="http://www.w3.org/2000/svg" viewBox="0 0 24 24"><defs><style>.cls-1{fill:none;}.cls-2{opacity:.5;}.cls-3{opacity:.25;}</style></defs><path class="cls-3" d="M3,16h2v2h-2v-2ZM6,21h2v-2h-2v2ZM8,12h2v-2h-2v2ZM11,15h2v-2h-2v2ZM13,6h2v-2h-2v2ZM16,7v2h2v-2h-2Z"/><path class="cls-2" d="M9,19h2v2h-2v-2ZM6,16v2h2v-1h-1c-.55273,0-1-.44727-1-1ZM14,15h2v-2h-2v2ZM11,10v2h2v-1h-1c-.55273,0-1-.44727-1-1ZM16,6h2v-2h-2v2ZM19,7v2h2v-2h-2Z"/><path d="M17,19h5v1h-5v1l-2-1.5,2-1.5v1ZM17,16H7v-7h4v3h2v-1h1v1h2v-1h1v5ZM10,13h-2v2h2v-2ZM10,10h-2v2h2v-2ZM13,13h-2v2h2v-2ZM16,13h-2v2h2v-2ZM22,3v7h-10V3h10ZM15,7h-2v2h2v-2ZM15,4h-2v2h2v-2ZM18,7h-2v2h2v-2ZM18,4h-2v2h2v-2ZM21,7h-2v2h2v-2ZM21,4h-2v2h2v-2ZM11,17h1v5H2v-7h4v3h2v-1h1v1h2v-1ZM5,19h-2v2h2v-2ZM5,16h-2v2h2v-2ZM8,19h-2v2h2v-2ZM11,19h-2v2h2v-2Z"/><rect class="cls-1" width="24" height="24"/></svg>