<?xml version="1.0" encoding="UTF-8"?><svg id="icons" xmlns="http://www.w3.org/2000/svg" viewBox="0 0 16 16"><defs><style>.cls-1{fill:none;}.cls-2{opacity:.5;}.cls-3{opacity:.25;}</style></defs><path class="cls-2" d="M9,3v1h1v-1h-1Z"/><path class="cls-3" d="M8,1v1h-.99957c-.00018-.00031-.00024-.00043-.00043-.00067v-.99866c.00018-.00031.00024-.00043.00043-.00067h.99957ZM5,1.00067v.99866c.00018.00024.00024.00037.00043.00067h.99957v-1h-.99957c-.00018.00024-.00024.00037-.00043.00067ZM7,4h1v-1h-1v1ZM3,7h1v-1h-1v1ZM1,5h1v-1h-1v1Z"/><path d="M11,0h-7v5h7V0ZM6,4h-1v-1h1v1ZM6,2h-1v-1h1v1ZM8,4h-1v-1h1v1ZM8,2h-1v-1h1v1ZM10,4h-1v-1h1v1ZM10,2h-1v-1h1v1ZM3,3H0v5h4v-1h-1V3ZM2,7h-1v-1h1v1ZM2,5h-1v-1h1v1ZM10,11h-1v-1h1v1ZM11,10h1v1h-1v-1ZM14,11h-1v-1h1v1ZM16,10v1h-1v-1h1ZM8,10v1h-1v-1h1ZM6,15h10v1H5V6h1v9ZM7,13.15002c.0271-.00183.78638-.03943,1.76758-.91174.06952-.06183.13531-.14557.19952-.23828h.81c-.15796.31049-.33527.57581-.54468.76172-1.20996,1.07617-2.19141,1.08789-2.23242,1.08789v-.69958ZM11.5,7.15039c.69843,0,1.07385.79938,1.41852,1.84961h-.73944c-.21326-.61108-.45508-1.15039-.67908-1.15039s-.46582.53931-.67908,1.15039h-.73944c.34467-1.05023.72009-1.84961,1.41852-1.84961ZM14.23242,12.23828c.9812.87231,1.74048.90991,1.76758.91174v.69958c-.04102,0-1.02246-.01172-2.23242-1.08789-.20941-.18591-.38672-.45123-.54468-.76172h.81c.06421.09271.13.17645.19952.23828Z"/><rect class="cls-1" width="16" height="16"/></svg>