<?xml version="1.0" encoding="UTF-8"?><svg id="icons" xmlns="http://www.w3.org/2000/svg" viewBox="0 0 24 24"><defs><style>.cls-1{fill:none;}.cls-2{opacity:.5;}.cls-3{opacity:.25;}</style></defs><path class="cls-3" d="M2,5h2v2h-2v-2ZM5,10h2v-2h-2v2ZM7,3h2V1h-2v2ZM10,4v2h2v-2h-2Z"/><path class="cls-2" d="M8,8h2v2h-2v-2ZM10,3h2V1h-2v2ZM13,4v2h2v-2h-2Z"/><path d="M8,10v-2h-1v2h-2v-2h1c-.55273,0-1-.44727-1-1v-3H1v7h8c0-.55273.44727-1,1-1h-2ZM4,10h-2v-2h2v2ZM4,7h-2v-2h2v2ZM11,10h-1v-2h1v2ZM16,0H6v7h10V0ZM9,6h-2v-2h2v2ZM9,3h-2V1h2v2ZM12,6h-2v-2h2v2ZM12,3h-2V1h2v2ZM15,6h-2v-2h2v2ZM15,3h-2V1h2v2ZM24,23v1h-14v-13h1v12h13ZM12,21.1875c.34473-.13184,1.97363-.8457,2.57227-2.04297.02039-.04071.04028-.09833.06049-.14453h.78979c-.06409.17566-.12958.33551-.19794.47168-.83203,1.66699-3.05078,2.44727-3.07422,2.4541l-.15039.0498v-.78809ZM15.52344,16c.46295-1.59467,1.01251-2.8877,2.02637-2.8877,1.01324,0,1.56317,1.29413,2.02667,2.8877h-.76569c-.38477-1.24835-.79657-2.15723-1.26099-2.15723-.46674,0-.87921.91504-1.26123,2.15723h-.76514ZM19.875,19.47168c-.06812-.13629-.13354-.29633-.19745-.47168h.79132c.0202.04602.0401.10419.06042.14453.61133,1.22461,2.05469,1.93164,2.40527,2.06055l.06543.02441v.77051l-.13281-.04492c-.25586-.08496-2.19043-.87891-2.99219-2.4834ZM23,18h-1v-1h1v1ZM21,18h-1v-1h1v1ZM18,17h1v1h-1v-1ZM16,17h1v1h-1v-1ZM15,18h-1v-1h1v1ZM13,17v1h-1v-1h1Z"/><rect class="cls-1" width="24" height="24"/></svg>