<?xml version="1.0" encoding="UTF-8"?><svg id="icons" xmlns="http://www.w3.org/2000/svg" viewBox="0 0 24 24"><defs><style>.cls-1{fill:none;}.cls-2{fill:#595959;}.cls-3{opacity:.5;}.cls-4{opacity:.25;}</style></defs><path class="cls-4" d="M2,5h2v2h-2v-2ZM5,10h2v-2h-2v2ZM7,3h2V1h-2v2ZM10,4v2h2v-2h-2ZM15,19h4v-4h-4v4Z"/><path d="M10,9v-1h1v1h-1ZM24,14v10h-10v-10h10ZM23,15h-8v8h8v-8ZM11,11h8v2h1v-3h-10v10h3v-1h-2v-8ZM16,7H6V0h10v7ZM9,4h-2v2h2v-2ZM9,1h-2v2h2V1ZM12,4h-2v2h2v-2ZM12,1h-2v2h2V1ZM15,4h-2v2h2v-2ZM15,1h-2v2h2V1ZM8,10h1v1H1v-7h4v3c0,.55273.44727,1,1,1h-1v2h2v-2h1v2ZM4,8h-2v2h2v-2ZM4,5h-2v2h2v-2Z"/><polygon class="cls-2" points="19 15 19 19 15 19 15 20 20 20 20 15 19 15"/><path class="cls-3" d="M19,11v2h-6v6h-2v-8h8ZM15,4h-2v2h2v-2ZM8,10h1c0-.55273.44727-1,1-1v-1h-2v2ZM12,1h-2v2h2V1Z"/><rect class="cls-1" width="24" height="24"/></svg>