<?xml version="1.0" encoding="UTF-8"?><svg id="icons" xmlns="http://www.w3.org/2000/svg" viewBox="0 0 16 16"><defs><style>.cls-1{fill:none;}.cls-2{fill:#6f6f6f;opacity:.25;}.cls-3{opacity:.5;}</style></defs><path d="M6,5h1v-1h2v1h1V0H0v7h4v-3h2v1ZM7,1h2v2h-2V1ZM3,6H1v-2h2v2ZM3,3H1V1h2v2ZM4,3V1h2v2h-2ZM5,6v10h11V6H5ZM8,15h-2v-2h2v2ZM8,12h-2v-2h2v2ZM11,15h-2v-2h2v2ZM11,12h-2v-2h2v2ZM15,15h-3v-2h3v2ZM15,12h-3v-2h3v2ZM15,9H6v-2h9v2Z"/><path class="cls-3" d="M9,4v1h-2v-1h2ZM1,6h2v-2H1v2ZM4,3h2V1h-2v2Z"/><path class="cls-2" d="M1.00049,1h1.99951v2h-1.99951c-.00018-.00031-.00031-.00049-.00049-.00079v-1.99841c.00018-.00031.00031-.00049.00049-.00079ZM4.00049,4c-.00018.00031-.00031.00049-.00049.00079v1.99841c.00006.00006.00006.00012.00012.00018.00037-.55255.44733-.99939.99988-.99939h1v-1h-1.99951Z"/><rect class="cls-1" width="16" height="16"/></svg>