<?xml version="1.0" encoding="UTF-8"?><svg id="icons" xmlns="http://www.w3.org/2000/svg" viewBox="0 0 32 32"><defs><style>.cls-1{fill:none;}.cls-2{opacity:.5;}.cls-3{opacity:.25;}</style></defs><path class="cls-3" d="M7,2h4v4h-4V2ZM12,7v4h4v-4h-4ZM2,11h3v-4h-3v4ZM7,16h4v-3h-4v3Z"/><path d="M16,13h1v2h-1v-2ZM22,12H6V1h16v11ZM11,7h-4v4h4v-4ZM11,2h-4v4h4V2ZM16,7h-4v4h4v-4ZM16,2h-4v4h4V2ZM21,7h-4v4h4v-4ZM21,2h-4v4h4V2ZM12,13h-1v3h-4v-3h-1v3H2v-4h3v-1h-3v-4h3v-1H1v11h12v-1h-1v-3ZM21,30h-6v-15h-1v16h18v-1h-11ZM19.68652,25.34375c-.79114,1.58307-2.99487,2.51953-3.62402,2.76013v.7442l.04785-.01605c.12891-.04297,3.15039-1.07031,4.20312-3.17578.34082-.68262.63867-1.80957.95312-3.00195.53418-2.02344,1.26562-4.79492,2.2334-4.79492s1.69922,2.77148,2.2334,4.79492c.31445,1.19238.6123,2.31934.95312,3.00195,1.05273,2.10547,4.07422,3.13281,4.20312,3.17578l.11035.03668v-.7406c-.52582-.19519-2.86438-1.13916-3.68652-2.78436-.30957-.61816-.59863-1.71094-.90332-2.86816-.69043-2.61328-1.40332-5.31543-2.91016-5.31543s-2.21973,2.70215-2.91016,5.31543c-.30469,1.15723-.59375,2.25-.90332,2.86816ZM24,16h-1v1h1v-1ZM26,16h-1v1h1v-1ZM28,16h-1v1h1v-1ZM30,16h-1v1h1v-1ZM21,16v1h1v-1h-1ZM20,16h-1v1h1v-1ZM17,17h1v-1h-1v1Z"/><path class="cls-2" d="M21,7v4h-4v-4h4ZM12,6h4V2h-4v4ZM12,16h1v-1c0-.55273.44727-1,1-1h1c.55273,0,1,.44727,1,1v-2h-4v3ZM7,11h4v-4h-4v4Z"/><rect class="cls-1" width="32" height="32"/></svg>