<?xml version="1.0" encoding="UTF-8"?><svg id="icons" xmlns="http://www.w3.org/2000/svg" viewBox="0 0 32 32"><defs><style>.cls-1{fill:none;}.cls-2{fill:#595959;}.cls-3{opacity:.5;}.cls-4{opacity:.25;}</style></defs><path d="M19,19v12h12v-12h-12ZM30,30h-10v-10h10v10ZM12,16h2v1H1V6h4v1h-3v4h3v1h-3v4h4v-3h1v3h4v-3h1v3ZM16,14v-1h1v1h-1ZM22,1H6v11h16V1ZM11,11h-4v-4h4v4ZM11,6h-4V2h4v4ZM16,11h-4v-4h4v4ZM16,6h-4V2h4v4ZM21,11h-4v-4h4v4ZM21,6h-4V2h4v4ZM16,26h2v1h-3v-12h12v3h-1v-2h-10v10Z"/><path class="cls-4" d="M7,13h4v3h-4v-3ZM7,6h4V2h-4v4ZM2,11h3v-4h-3v4ZM12,11h4v-4h-4v4ZM20,20v6h6v-6h-6Z"/><path class="cls-2" d="M27,20v7h-7v-1h6v-6h1Z"/><path class="cls-3" d="M26,16v2h-8v8h-2v-10h10ZM21,7h-4v4h4v-4ZM16,2h-4v4h4V2ZM7,11h4v-4h-4v4ZM16,13h-4v3h2v-1c0-.55273.44727-1,1-1h1v-1Z"/><rect class="cls-1" width="32" height="32"/></svg>