<?xml version="1.0" encoding="UTF-8"?><svg id="icons" xmlns="http://www.w3.org/2000/svg" viewBox="0 0 32 32"><defs><style>.cls-1{fill:none;}.cls-2{opacity:.5;}.cls-3{opacity:.25;}</style></defs><path class="cls-3" d="M7,12.99896h4v4h-4v-4ZM2,7h4V3H2v4ZM12,12h4v-4h-4v4ZM7,12h4v-4h-4v4ZM17,8v4h4v-4h-4Z"/><path d="M12,17v-4h4v2.38782c.31616-.28918.64746-.5614,1-.80695v-1.58087h3.85828c.37378-.06445.7547-.1051,1.14172-.12506V2H1v16h12.96967c.18359-.34668.38812-.67987.61121-1h-2.58087ZM17,3h4v4h-4V3ZM17,8h4v4h-4v-4ZM12,3h4v4h-4V3ZM12,8h4v4h-4v-4ZM6,17H2v-4h4v4ZM6,12H2v-4h4v4ZM6,7H2V3h4v4ZM11,17h-4v-4h4v4ZM11,12h-4v-4h4v4ZM11,7h-4V3h4v4ZM22.5,14.20001c-4.58398,0-8.29999,3.71594-8.29999,8.29999s3.716,8.29999,8.29999,8.29999,8.29999-3.71613,8.29999-8.29999-3.716-8.29999-8.29999-8.29999ZM22,29.77466c-3.62585-.2475-6.52716-3.14886-6.77466-6.77466h6.77466v6.77466ZM22,22h-6.77466c.2475-3.62585,3.1488-6.52716,6.77466-6.77466v6.77466ZM23,15.22534c3.62585.2475,6.52716,3.1488,6.77466,6.77466h-6.77466v-6.77466ZM23,29.77466v-6.78366h6.77466c-.2475,3.62579-3.1488,6.53616-6.77466,6.78366Z"/><path class="cls-2" d="M2,8h4v4H2v-4ZM17,3v3.99896h4v-3.99896h-4ZM7,6.99896h4v-3.99896h-4v3.99896ZM12,16.99896h2.58167c.41107-.58984.88928-1.1272,1.41833-1.61115v-2.38885h-4v4Z"/><rect class="cls-1" width="32" height="32"/></svg>