<svg xmlns="http://www.w3.org/2000/svg" viewBox="0 0 16 16"><path fill="none" stroke-width="0" d="M0 0h16v16H0z"/><path d="M13 7v2H7V3h2v1H8v4h4V7h1zM15.882.825l-.707-.707L11 4.293V2h-1v4h4V5h-2.293L15.882.825zM6 10v6H0v-6h6zm-5 1v1.925c.432-.504.882-.862 1.483-.862.704 0 1.195.452 1.457.694l.096.087c.288.247.726.26.964.22V11H1zm4 4v-.932c-.51.047-1.145-.063-1.615-.465l-.122-.11c-.207-.192-.466-.43-.78-.43-.374 0-.795.57-1.28 1.23L1 14.567V15h4zm8-5v6H7v-6h6zm-3 5v-2H8v2h2zm2-2h-1v2h1v-2zm0-2H8v1h4v-1zM6 3v6H0V3h6zM5 4H3v.33C3 4.72 3.12 6 4.67 6H5V4zM2 8v-.561A.44.44 0 0 0 1.56 7H1v1h1zm3 0V7h-.33C2.827 7 2 5.659 2 4.33V4H1v2h.56C2.356 6 3 6.646 3 7.439V8h2z" stroke-width="0"/></svg>