<svg xmlns="http://www.w3.org/2000/svg" viewBox="0 0 32 32"><path fill="none" d="M0 0h32v32H0z"/><path d="M28 9v7H16V4h7v1h-6v10h10V9zm-2 3v-1h-4.293l8.288-8.28-.707-.707L21 10.293V6h-1v6zm2 5v12H16V17zm-4 11v-3h-3v-1h3v-3h-7.01v7zm3-7h-2v7h2zm0-1v-2H16.99v2zM15 4v12H3V4zm-1 1-5.683-.001c.494 1.665 1.976 5.213 5.683 6.103zM4 15h3.509c-.9-1.849-2.832-2.843-3.509-3.143zm10 0v-2.84C9.354 11.198 7.703 6.71 7.241 5H4v5.743l.122.046c.146.054 3.395 1.313 4.513 4.211zm1 2v12H3V17zM4 18v6.081l.063.012c.48.092 1.176.265 1.4-.093.457-.731.36-1.466.641-1.88.68-1.002 1.67-1.002 2.175-.992.749.015 1.164.125 2.04.978.7.681.841 1.255 1.3 1.11.324-.103.968-.206 1.358-.264.207-.03.65-.075 1.023-.11V18zm10 10v-4.169l-1.075.094c-.373.06-.947.14-1.03.166-.678.214-1.26-.148-2.002-1.164-.098-.134-.608-.894-1.65-.92-.93-.022-1.365.34-1.601 1.44-.177.821-.358 1.225-.732 1.523-.284.227-1.311.229-1.73.164L4 25.107V28z"/></svg>