<?xml version="1.0" encoding="UTF-8"?><svg id="icons" xmlns="http://www.w3.org/2000/svg" viewBox="0 0 16 16"><defs><style>.cls-1{fill:none;}</style></defs><path d="M13,4h-1v-2h1v.99994h1v1h-1v.00006ZM9.04999,3.5C9.04999,1.59412,10.5946.04999,12.5.04999s3.45001,1.54413,3.45001,3.45001c0,1.90491-1.54462,3.45001-3.45001,3.45001s-3.45001-1.5451-3.45001-3.45001ZM10,3.5c0,1.37909,1.12134,2.50043,2.5,2.50043s2.5-1.12134,2.5-2.50043-1.12134-2.50049-2.5-2.50049-2.5,1.1214-2.5,2.50049ZM7,8h8v1h-4v1.0921c.58075.20709.98999.7569.98999,1.4079s-.40924,1.20081-.98999,1.4079v1.0921h4v1H2.9079c-.20709.58075-.7569,1-1.4079,1-.82715,0-1.5-.67285-1.5-1.5s.67285-1.5,1.5-1.5c.651,0,1.20081.41925,1.4079,1h7.0921v-1.0921c-.58075-.20709-.98999-.7569-.98999-1.4079s.40924-1.20081.98999-1.4079v-1.0921H2.9079c-.20709.58075-.7569,1-1.4079,1-.82715,0-1.5-.67285-1.5-1.5s.67285-1.5,1.5-1.5c.651,0,1.20081.41925,1.4079,1h3.0921v-1.0921c-.58075-.20709-.98999-.7569-.98999-1.4079s.40924-1.20081.98999-1.4079v-1.0921h-3.0921c-.20709.58075-.7569,1-1.4079,1-.82715,0-1.5-.67285-1.5-1.5s.67285-1.5,1.5-1.5c.651,0,1.20081.41925,1.4079,1h5.0921v1h-1v1.0921c.58075.20709,1,.7569,1,1.4079s-.41925,1.20081-1,1.4079v1.0921ZM2,2h-1v1h1v-1ZM2,8h-1v1h1v-1ZM2,14h-1v1h1v-1Z"/><rect class="cls-1" width="16" height="16"/></svg>