<svg xmlns="http://www.w3.org/2000/svg" viewBox="0 0 32 32"><path d="M22 .219c-3.188 0-5.781 2.593-5.781 5.781s2.593 5.781 5.781 5.781S27.781 9.188 27.781 6 25.188.219 22 .219m0 10.6c-2.656 0-4.818-2.163-4.818-4.819S19.344 1.182 22 1.182 26.818 3.344 26.818 6 24.656 10.818 22 10.818zm-20.977.308L3.626 20h9.634l2.72-8.87L8.5 5.37zM12.521 19H4.374l-2.198-7.498L8.5 6.631l6.32 4.868L12.52 19zm8.979-4.765L27 18.31 26.442 20H21a1 1 0 0 0-1 1v4h-1.601L16 18.31zM21 21h3v1h-2v9h2v1h-3zm11 0v11h-3v-1h2v-9h-2v-1z"/><path fill="none" d="M0 0h32v32H0z"/></svg>