<?xml version="1.0" encoding="UTF-8"?><svg id="icons" xmlns="http://www.w3.org/2000/svg" viewBox="0 0 24 24"><defs><style>.cls-1{fill:none;}</style></defs><path d="M9,11c1.10254,0,2-.89746,2-2s-.89746-2-2-2v-1h2.9c0-.34137.03528-.67401.09033-1h-7.26865c-.34698-.59479-.98499-1-1.72168-1-1.10254,0-1.99.89746-1.99,2s.88746,2,1.99,2,2-.89746,2-2h3v1.27832c-.59479.34698-1,.98499-1,1.72168s.40521,1.37469,1,1.72168v1.27832h-3.27832c-.34698-.59479-.98499-1-1.72168-1-1.10254,0-1.99.89746-1.99,2s.88746,2,1.99,2,2-.89746,2-2h8v2.27832c-.59479.34698-1,.98499-1,1.72168s.40521,1.37469,1,1.72168v1.27832H5c0-1.10254-.89746-2-2-2s-1.99.89746-1.99,2,.88746,2,1.99,2c.73669,0,1.37469-.40521,1.72168-1h18.27832v-1h-9v-1c1.10254,0,2-.89746,2-2s-.89746-2-2-2v-2h9v-1h-14v-1ZM4,6.5c0,.27612-.22388.5-.5.5h-1c-.27612,0-.5-.22388-.5-.5v-1c0-.27618.22388-.5.5-.5h1c.27612,0,.5.22382.5.5v1ZM4,13.5c0,.27612-.22388.5-.5.5h-1c-.27612,0-.5-.22388-.5-.5v-1c0-.27618.22388-.5.5-.5h1c.27612,0,.5.22382.5.5v1ZM4,20.5c0,.27612-.22388.5-.5.5h-1c-.27612,0-.5-.22388-.5-.5v-1c0-.27618.22388-.5.5-.5h1c.27612,0,.5.22382.5.5v1ZM18,11c2.76141,0,5-2.23859,5-5s-2.23859-5-5-5-4.99,2.23859-4.99,5,2.22859,5,4.99,5ZM18,2c2.20917,0,4,1.79083,4,4s-1.79083,4-4,4-4-1.79089-4-4,1.79083-4,4-4ZM20,7h-3V3h1v3h2v1Z"/><rect class="cls-1" width="24" height="24"/></svg>