<?xml version="1.0" encoding="UTF-8"?><svg id="icons" xmlns="http://www.w3.org/2000/svg" viewBox="0 0 24 24"><path d="M19.86924,7.33691c.01562.85156-.29736,3.5166-1.40918,12.70996l1.43994-.04688v1h-1.48242c-.27588,0-.5376-.11816-.71826-.3252-.17969-.20117-.26514-.47461-.23242-.74707.35547-2.93652,1.44727-12.63574,1.4541-12.69727.14355-1.19629-.05176-2.01172-.57959-2.43262-1.48096-1.17969-5.45176.27637-9.04453,1.56348l-.97021.3457-2.18994,14.26953-.98828-.15234L7.78271,3.6582l-2.68271.31593v-1.00104l2.56504-.25239c.2998-.05176.61475.04688.83252.2627.21631.21289.31934.52246.27393.8252l-.27234,1.77472.46082-.16437c4.0249-1.44043,8.08604-2.93262,10.00498-1.40332.81689.65137,1.13623,1.77051.94971,3.32715l-.04541-.00586Z"/><rect width="24" height="24" style="fill:none;"/></svg>