<?xml version="1.0" encoding="UTF-8"?><svg id="icons" xmlns="http://www.w3.org/2000/svg" viewBox="0 0 16 16"><rect x="0" width="16" height="16" style="fill:none;"/><path d="M12.11826,2.70312c-1.61377-1.20996-4.85996.22266-6.65781.99219-.00153.00067-.00256.0011-.00409.00177l.13641-.89337c.03467-.22656-.04541-.45312-.22119-.61328-.16846-.14844-.39844-.20508-.62305-.15039l-1.65507.45422v.49921h-.02338l.00134.00513,1.48258-.00116-.02863.13397.00586-.00153-1.50645,10.52148.98828.15039,1.26633-8.94623c.16278-.06555.35089-.14435.57507-.2403,1.37988-.59082,4.51133-1.97363,5.66416-1.1123.38672.29004.5293.87793.42578,1.74219l-.91025,7.64648c-.04248.27734.03809.55957.22119.77246.18262.21387.44922.33594.73047.33594h1.01416v-1l-.97607.0332.9127-7.66309c.1499-1.25098-.125-2.14844-.81836-2.66699Z"/></svg>