<?xml version="1.0" encoding="UTF-8"?><svg id="icons" xmlns="http://www.w3.org/2000/svg" viewBox="0 0 32 32"><path d="M23.1167,27.04688l1.67432-16.94824c.3335-2.72168-1.52051-5.22754-4.2207-5.7041-3.10059-.5459-6.18457.97754-9.16504,2.45508-.65033.32214-1.27344.62286-1.89148.90863l.42664-2.62699c.05322-.33398-.07617-.67383-.33496-.88672-.26123-.2168-.62012-.28027-.9375-.16211l-2.7833.94785.3418.93945,2.72617-.99473-3.59033,22.84824.98828.1543,2.97833-19.03735c.8374-.36627,1.69086-.78369,2.52069-1.19507,2.83398-1.4043,5.76465-2.85449,8.54688-2.36621,2.17627.38477,3.6709,2.4043,3.40088,4.61035l-1.67578,16.95898c-.02686.26855.06201.53809.24268.73633.18115.2002.43994.31543.70996.31543h1.92578v-1l-1.8833.04688Z"/><rect x="0" width="32" height="32" style="fill:none;"/></svg>