<svg xmlns="http://www.w3.org/2000/svg" viewBox="0 0 32 32"><path d="M0 0h32v32H0z" style="fill:none"/><path d="M12.608 28H5v-1H4v-7h1v-1h11l.001 1H17v1.824l1-1V20h.825l.175-.175V17h-3v1H5v-1H2v3h1v7H2v3h3v-1h7.18zM17 18h1v1h-1zM3 18h1v1H3zm1 11H3v-1h1zm26.645-14.118-1.763-1.762c-.488-.487-1.239-.524-1.726-.037L14.79 25.449l-2.342 5.465a.306.306 0 0 0 .402.402l5.465-2.342 10.566-10.567v-.001l1.8-1.798c.488-.487.45-1.238-.036-1.726M14.05 29.714l1.403-3.274 1.87 1.87zm4.101-1.99-2.112-2.111 9.758-9.757 2.111 2.11zm11.824-11.823-1.36 1.359-2.11-2.111 1.358-1.36a.16.16 0 0 1 .121-.053c.064 0 .134.033.193.092l1.76 1.761c.018.018.171.179.038.312"/><path d="M19 4V1h-3v2.138L4.48 12H2v3h3v-1h11v1h3v-3h-1V4zM4 14H3v-1h1zm12-1H5v-.138L16.52 4H17v8h-1zm2 1h-1v-1h1zM17 3V2h1v1z" style="fill:#6f6f6f;opacity:.5"/></svg>