<svg xmlns="http://www.w3.org/2000/svg" viewBox="0 0 24 24"><path d="M8 13H4v-2.5h1V12h2v-2h-.91c.187-.204.334-.447.386-.73A1.48 1.48 0 0 0 8 9.369V13zm15.52 3H22l-1.833 2.206L18.846 16h-1.632l1.915 2.973L15.5 23h1.55l2.781-3.229L21.75 23h1.646l-2.526-4.027L23.52 16zm-9.687 0l.244-1.621c.189-1.283.362-2.216 1.645-2.216.286 0 .555.062.809.158l.331-1.108c-.22-.126-.6-.19-.918-.19-1.993 0-2.802 1.282-3.053 3.086L12.597 16h-1.614l-.143.935h1.613L11.671 23h1.236l.782-6.065h1.804l.144-.935h-1.804zM9.49 2h4.721c.436 0 .789.353.789.789v7.365a4.858 4.858 0 0 1 1-.103V2.58C16 1.71 15.29 1 14.42 1H9.366c.157.313.199.664.124 1zM4 14h4v4H4v-4zm1 3h2v-2H5v2zm4-6h4v-1H9v1zm-7 8.211V9.485c-.108.025-.215.05-.328.05A1.48 1.48 0 0 1 1 9.369v10.054C1 20.293 1.706 21 2.577 21h8.385l.129-1H2.789A.789.789 0 0 1 2 19.211zM13 5h-2.5c0 .387-.152.734-.393 1H13V5zM.964 7.328l1.452-1.45A2.483 2.483 0 0 1 2.05 5H0V4h2.05a2.48 2.48 0 0 1 .366-.877L.964 1.672l.708-.708 1.45 1.452c.263-.174.559-.3.878-.366V0h1v2.05c.319.065.615.192.877.366L7.328.964l.708.708-1.452 1.45c.174.263.3.559.366.878H9v1H6.95a2.483 2.483 0 0 1-.366.877l1.452 1.451-.708.708-1.45-1.452A2.51 2.51 0 0 1 5 6.95V9H4V6.95a2.482 2.482 0 0 1-.877-.366L1.672 8.036l-.708-.708zM3 4.5C3 5.327 3.673 6 4.5 6S6 5.327 6 4.5 5.327 3 4.5 3 3 3.673 3 4.5z"/><path fill="none" d="M0 0h24v24H0z"/></svg>