<?xml version="1.0" encoding="UTF-8"?><svg id="icons" xmlns="http://www.w3.org/2000/svg" viewBox="0 0 32 32"><defs><style>.cls-1{fill:none;}.cls-2{fill:#6f6f6f;opacity:.5;}</style></defs><rect class="cls-1" width="32" height="32"/><path d="M12.60828,28h-7.60828v-1h-1v-7h1v-1h11.00067l.00031,1h.99902v1.82446l1-.99994v-.82452h.82458l.17542-.17542v-2.82458h-3l.00031,1H5v-1h-3v3h1v7h-1v3h3v-1h7.17957l.42871-1ZM17,18h1v1h-1v-1ZM3,18h1v1h-1v-1ZM4,29h-1v-1h1v1ZM30.64478,14.88196l-1.76233-1.76233c-.4881-.48688-1.23938-.5238-1.7262-.03699-5.91418,5.91418-6.03998,6.03998-12.36597,12.36603l-2.34259,5.46527c-.04932.11517-.02362.24878.065.3374.08856.08856.22217.11432.33734.06494l5.46533-2.34253,10.56531-10.56647s-.00024-.00098-.00031-.00153l1.80139-1.79761c.48682-.48682.44989-1.2381-.03699-1.7262ZM14.05011,29.71417l1.40265-3.2738,1.87115,1.87054-3.2738,1.40326ZM18.15112,27.724l-2.11169-2.11096,9.75763-9.7572,2.11127,2.11096-9.7572,9.7572ZM29.97455,15.90057l-1.35919,1.35919-2.11127-2.11096,1.35913-1.35907c.03809-.0376.0752-.0542.12109-.0542.06348,0,.13379.03369.19238.09229l1.76074,1.76123c.01758.01758.1709.17871.03711.31152Z"/><path class="cls-2" d="M19,4V1h-3v2.13837L4.47986,12h-2.47986v3h3v-1h11v1h3v-3h-1V4h1ZM4,14h-1v-1h1v1ZM16,13H5v-.13837l11.52014-8.86163h.47986v8h-1v1ZM18,14h-1v-1h1v1ZM17,3v-1h1v1h-1Z"/></svg>