<svg xmlns="http://www.w3.org/2000/svg" viewBox="0 0 16 16"><path d="M7 8h1.657L10 6.657V5H9V3h1V0H7v1.94L2.882 5H0v3h3V7h4zM2 7H1V6h1zm7 0H8V6h1zM8 1h1v1H8zM7 6H3.119l4-3H8v2H7z" style="fill:#6f6f6f;opacity:.5"/><path d="M4.169 14.929 4.567 14H3v-1H2v-1h1v-1h2.852l.07-.163a1 1 0 0 1 .212-.314L6.657 10H3V9H0v3h1v1H0v3h3v-1h1.15c.009-.023.009-.048.019-.071M1 10h1v1H1zm1 5H1v-1h1zm13.692-8.378-1.414-1.414c-.392-.39-.994-.42-1.385-.03L6.841 11.23l-1.756 4.097a.371.371 0 0 0 .488.487l4.096-1.755 4.607-4.609 1.445-1.443c.391-.39.361-.993-.03-1.385m-9.068 7.654.554-1.294.74.74zm2.338-.924L7.55 11.937l4.007-4.008 1.414 1.415zm5.806-5.806-1.09 1.09-1.414-1.414 1.09-1.09c.12-.12.314-.12.433 0l.981.98a.307.307 0 0 1 0 .434"/><path d="M0 0h16v16H0z" style="fill:none"/></svg>