<svg xmlns="http://www.w3.org/2000/svg" viewBox="0 0 24 24"><path d="M8.771 21H4v-1H3v-4h1v-1h7l.001 1h1.502L14 14.503V13h-3v1H4v-1H1v3h1v4H1v3h3v-1h4.343zM12 14h1v1h-1zM2 14h1v1H2zm1 8H2v-1h1zm20.69-11.53-1.428-1.428a.98.98 0 0 0-1.386 0L10.566 19.35l-1.755 4.097a.371.371 0 0 0 .488.487l4.096-1.755L23.72 11.855c.39-.391.36-.994-.03-1.385M10.35 22.396l.96-2.24 1.28 1.28zm3.014-1.6-1.413-1.415 7.469-7.47 1.414 1.415zm9.328-9.329-1.151 1.152-1.414-1.415 1.168-1.168a.42.42 0 0 1 .6.006l.803.838a.42.42 0 0 1-.006.587"/><path d="M0 0h24v24H0z" style="fill:none"/><path d="M14 4V1h-3v2.066L3.599 8H1v3h3v-1h7v1h3V8h-1V4zM3 10H2V9h1zm8-1H4v-.066L11.401 4H12v4h-1zm2 1h-1V9h1zm-1-7V2h1v1z" style="fill:#6f6f6f;opacity:.5"/></svg>