<svg xmlns="http://www.w3.org/2000/svg" viewBox="0 0 16 16"><path d="M4 8H2V6.5h1c.361 0 .704-.136.977-.38.008 0 .015-.005.023-.005zm1 2h2.398l.011-.074c.05-.352.13-.653.225-.926H5zm1.103-9h2.064c.46 0 .833.407.833.91v5.448a3 3 0 0 1 1-.302V1.795C10 .806 9.253 0 8.333 0H5.656l.026.025c.259.26.405.605.421.975M8 6H5v1h3zm-6 5h2V9H2zm14 .013h-1.012l-1.502 1.79-1.066-1.79h-1.088l1.462 2.302L10.374 16h1.033l1.855-2.153L14.54 16h1.097l-1.684-2.685zm-5.715-2.225c.19 0 .37.042.538.106l.221-.74c-.146-.083-.4-.126-.612-.126-1.328 0-1.868.855-2.035 2.058l-.15.927H7.17L6.997 12h1.075l-.523 4h.824l.523-4H10.1l.173-.987H9.07l.117-.747c.127-.856.242-1.478 1.098-1.478M8 3H6.5c0 .368-.142.719-.396.993L6.103 4H8zM1.833 13c-.46 0-.833-.407-.833-.91V6.116a1.5 1.5 0 0 1-.975-.433L0 5.656v6.55C0 13.195.747 14 1.667 14h5.135l.13-1H1.834zm-.74-10H0V2h1.092q.026-.073.058-.143l-.77-.771.707-.707.771.771q.07-.032.143-.058V0h1v1.092q.073.026.143.058l.77-.77.707.707-.771.771q.032.07.058.143H5v1H3.908a2 2 0 0 1-.058.143l.771.771-.707.707-.771-.771q-.07.032-.143.058V5H2V3.908a2 2 0 0 1-.143-.058l-.771.771-.707-.707.771-.771A2 2 0 0 1 1.092 3zM2 3h1V2H2z"/><path fill="none" d="M0 0h16v16H0z"/></svg>