<svg xmlns="http://www.w3.org/2000/svg" viewBox="0 0 32 32"><path d="M6 23h5v-5H6zm1-4h3v3H7zm4-7H7.11a1.5 1.5 0 0 1-1.11.5V17h5zm-1 4H7v-3h3zm9.001-13H10.82c.269-.28.407-.638.415-1H19a2.01 2.01 0 0 1 2 2.008v11.994a5 5 0 0 0-1 .106V4a1 1 0 0 0-.999-1M18 17.238V5h-5.5c0-.386-.15-.734-.39-1H19v12.462a3.5 3.5 0 0 0-1 .776m8.519 8.455L29.22 30h-1.76l-2.052-3.453L22.434 30h-1.658l3.881-4.307L22.314 22h1.745l1.71 2.873L28.178 22H29.8zM14.489 24h1.743l-.137 1H4V12.11c.266.24.614.39 1 .39V24zm6.295-2-.153 1H18.7l-.964 7h-1.321l.964-7h-1.726l.154-1h1.726c.363-2.426.47-5 3.52-5 .339 0 .747.068.981.203l-.354 1.186a2.4 2.4 0 0 0-.865-.17c-1.66 0-1.628 1.448-1.96 3.781zM4 26h11.958l-.138 1H3.998A2.003 2.003 0 0 1 2 24.998V11.235c.362-.008.72-.146 1-.415v14.182a1 1 0 0 0 .999.998zM17 9h-5V8h5zm0 6h-5v-1h5zm-5 5h4.826c-.008.052-.02.1-.027.153l-.126.847H12zM5 8.95V11h1V8.95a3.46 3.46 0 0 0 1.587-.656l1.449 1.449.707-.707-1.449-1.449c.342-.456.57-.996.656-1.587H11V5H8.95a3.46 3.46 0 0 0-.656-1.587l1.449-1.449-.707-.707-1.449 1.448A3.46 3.46 0 0 0 6 2.05V0H5v2.05c-.59.086-1.13.314-1.587.655L1.964 1.257l-.707.707 1.449 1.449c-.342.456-.57.996-.656 1.587H0v1h2.05c.086.59.314 1.13.656 1.587L1.257 9.036l.707.707 1.449-1.449c.456.342.996.57 1.587.656M5.5 3a2.5 2.5 0 1 1-.001 5.001A2.5 2.5 0 0 1 5.5 3"/><path fill="none" d="M0 0h32v32H0z"/></svg>