<?xml version="1.0" encoding="UTF-8"?><svg id="icons" xmlns="http://www.w3.org/2000/svg" viewBox="0 0 16 16"><defs><style>.cls-1{fill:none;}.cls-2{fill:#6f6f6f;opacity:.5;}</style></defs><path class="cls-2" d="M7.00049,8h1.65674l1.34277-1.34277v-1.65723h-1v-2h1V0h-3v1.94092l-4.11774,3.05908H0v3h3v-1h4.00031l.00018,1ZM2.00049,7h-1v-1h1v1ZM9,7h-.99951v-1h.99951v1ZM8,1h1v1h-1v-1ZM7,6h-3.88141l3.99963-3h.88177v2h-1l.00018,1h-.00018Z"/><path d="M4.16895,14.92871l.39789-.92871h-1.56683v-1h-1v-1h1v-1h2.85199l.06989-.16309c.0498-.11719.12207-.22363.21191-.31348l.52344-.52344h-3.65723v-1H0v3h1v1H0v3h3v-1h1.1499c.00873-.02344.00897-.0481.01904-.07129ZM1,10h1v1h-1v-1ZM2,15h-1v-1h1v1ZM15.69177,6.62207l-1.41388-1.41388c-.3916-.39062-.99432-.42023-1.38489-.02966l-6.05188,6.05194-1.75568,4.09613c-.05988.13959-.02869.30151.07874.40894.10736.10736.26929.13855.40887.07874l4.09619-1.75574,4.60724-4.60815c-.00018-.00061-.00055-.0011-.00055-.0011l1.4455-1.44232c.39056-.39056.36096-.99329-.02966-1.38489ZM6.62433,14.2757l.55414-1.2937.7392.7392-1.29333.5545ZM8.96246,13.35175l-1.41394-1.41449,4.00793-4.00793,1.41333,1.41461-4.00732,4.00781ZM14.76825,7.54602l-1.09052,1.09045-1.41418-1.41425,1.09045-1.09045c.11963-.11963.31366-.11963.43329,0l.98096.9809c.05743.0575.08972.13544.08972.21667s-.03229.15918-.08972.21667Z"/><rect class="cls-1" width="16" height="16"/></svg>