<svg xmlns="http://www.w3.org/2000/svg" viewBox="0 0 32 32"><path d="M5.828 3H29v23.172l-1-1v-4.274c-.07.026-.142.053-.207.079a2.6 2.6 0 0 1-.902.248l-1.601.007a2.37 2.37 0 0 1-1.674-.545 2.6 2.6 0 0 1-.582-.805l-.104.147c-.008.012-.023.028-.032.04l-.715-.714.034-.048a1.01 1.01 0 0 1 .815-.419l.072.003a1 1 0 0 1 .817.53 1.7 1.7 0 0 0 .355.515 1.4 1.4 0 0 0 1.014.296l1.6-.006a3 3 0 0 0 .54-.181l.218-.084a1 1 0 0 1 .352-.063V4h-4.453a.99.99 0 0 1-.524.885l-.204.107c-.624.325-1.391.725-1.478 1.066a4 4 0 0 0 .321.415 3 3 0 0 1 .32.424 1.5 1.5 0 0 1 .204.498 1 1 0 0 1-.424.998l-.107.09a5 5 0 0 1-.312.241 2 2 0 0 0-.395.341.6.6 0 0 0-.028.193 2 2 0 0 0 .049.352 1.03 1.03 0 0 1-.179.801 1 1 0 0 1-.7.41.92.92 0 0 0-.528.34.52.52 0 0 0-.162.345l.02.098c.139.676.4 1.942-.712 2.541a2.14 2.14 0 0 0-.618.832l-.1.185-.738-.738a2.67 2.67 0 0 1 .981-1.159c.346-.186.396-.542.206-1.465l-.02-.102a1.42 1.42 0 0 1 .374-1.175 1.9 1.9 0 0 1 1.2-.696l-.007-.03a3 3 0 0 1-.067-.54 1.6 1.6 0 0 1 .085-.52c.16-.478.714-.77.966-.985a3 3 0 0 1 .23-.187 1 1 0 0 0-.09-.178c-.124-.22-.777-.796-.777-1.267 0-1.022 1.128-1.543 2.226-2.12H6.829zm19.344 25H18.28a6 6 0 0 0 .33-1.434v-.606l-.384-.175a1 1 0 0 0 .007-.127c.026-.019.217-.127.343-.198a1.96 1.96 0 0 0 1.226-1.707 1.35 1.35 0 0 0-.268-.794c.04-.045.096-.101.138-.143.046-.046.1-.106.152-.164l-.714-.714c-.05.059-.09.115-.154.179-.05.051-.116.118-.165.172a1 1 0 0 0-.071 1.251.35.35 0 0 1 .082.213c0 .368-.23.562-.718.836a12 12 0 0 0-.427.25 1.02 1.02 0 0 0-.425.83 1 1 0 0 0 .378.905 8 8 0 0 1-.286 1.133 1 1 0 0 0-.018.293h-4.34a1 1 0 0 0 .02-.197 3.1 3.1 0 0 1 .237-1.095l.06-.168a3.2 3.2 0 0 0 .179-.756 1 1 0 0 0-.653-1.039 6 6 0 0 0-.612-.168c-.844-.198-.985-.404-1.005-.443-.254-.506-.112-.753.506-1.341l.18-.174a1.8 1.8 0 0 0 .705-1.241 1 1 0 0 0-1.325-.946l-.16.06a1.5 1.5 0 0 1-.61.134.577.577 0 0 1-.624-.49 1.53 1.53 0 0 1 .248-.758 1.75 1.75 0 0 0 .286-.892 2.3 2.3 0 0 0-.094-.597 2 2 0 0 1-.083-.516.94.94 0 0 1 .891-.982c.398 0 .596.227.943.845a1.23 1.23 0 0 0 1.197.625 1.39 1.39 0 0 0 1.11-.671l-.726-.726c-.107.212-.256.398-.384.398-.263 0-.295-.058-.312-.09a2.11 2.11 0 0 0-1.828-1.381 1.94 1.94 0 0 0-1.891 1.982 3 3 0 0 0 .116.775 1.3 1.3 0 0 1 .061.339.9.9 0 0 1-.161.41 2.5 2.5 0 0 0-.373 1.24 1.563 1.563 0 0 0 1.625 1.49 2.5 2.5 0 0 0 .974-.204l.12-.045v.006c0 .116-.236.35-.425.54-.48.48-1.548 1.284-.86 2.658a2.45 2.45 0 0 0 1.672.968 5 5 0 0 1 .496.135 2.3 2.3 0 0 1-.128.527l-.058.163a4 4 0 0 0-.295 1.428l-.012.063-.015.134H4V6.828l-1-1V29h23.172zm5.474 3.354-30-30 .707-.707 30 30z"/><path fill="none" d="M0 0h32v32H0z"/></svg>