<svg xmlns="http://www.w3.org/2000/svg" viewBox="0 0 24 24"><path d="M19.152 21.98H2.021V4.85L3 5.83V21h6.483v-.024a3 3 0 0 1 .223-1.066l.046-.13a1.8 1.8 0 0 0 .122-.62c-.056-.087-.397-.166-.58-.208a1.41 1.41 0 0 1-1.046-.585 1.52 1.52 0 0 1 .505-1.928c.253-.253.408-.42.408-.596a.5.5 0 0 0-.081-.267h-.007a.8.8 0 0 0-.323.084 1.8 1.8 0 0 1-.695.147 1.02 1.02 0 0 1-1.068-.96 1.75 1.75 0 0 1 .27-.882.9.9 0 0 0 .157-.44 1.2 1.2 0 0 0-.056-.328 2 2 0 0 1-.085-.563 1.32 1.32 0 0 1 1.19-1.343l2.047 2.047a1 1 0 0 1-.245.043 1.33 1.33 0 0 1-1.26-.666c-.224-.4-.307-.51-.452-.51a.4.4 0 0 0-.356.43 1.2 1.2 0 0 0 .056.328 2 2 0 0 1 .086.562 1.76 1.76 0 0 1-.27.882.9.9 0 0 0-.158.44.26.26 0 0 0 .144.035.9.9 0 0 0 .36-.083 1.5 1.5 0 0 1 .79-.128 1.11 1.11 0 0 1 .88 1.172 1.78 1.78 0 0 1-.68 1.25c-.411.411-.49.54-.33.86.03.005.27.062.429.099.484.113 1.294.302 1.294 1.107a2.7 2.7 0 0 1-.173.922l-.048.14a2.1 2.1 0 0 0-.17.755V21h2.477c.076-.188.442-1.029.488-1.143l-.08-.107a1.12 1.12 0 0 1-.295-.675c0-.752.686-.941 1.096-1.054a1.7 1.7 0 0 0 .41-.147c-.022-.004-.068-.059-.102-.097a1.06 1.06 0 0 1-.33-.675 1 1 0 0 1 .032-.171l1.267 1.267a1.4 1.4 0 0 1-1.032.714 1.4 1.4 0 0 0-.422.158c.02-.014.07.067.108.117a1.1 1.1 0 0 1 .287.655c0 .175-.035.26-.31.89l-.116.268h4.287zM4.848 2.02l.98.98h10.88a1.28 1.28 0 0 0-.346.83 1.4 1.4 0 0 0 .221.71.54.54 0 0 1 .102.251c0 .085-.064.153-.266.326a1.6 1.6 0 0 0-.536.687 1.1 1.1 0 0 0-.054.343 2 2 0 0 0 .05.388c.018.098.053.28.089.28a.5.5 0 0 1-.217.011 1.15 1.15 0 0 0-.84.438.97.97 0 0 0-.27.868c.151.742.151 1.188-.282 1.421a2.14 2.14 0 0 0-.812.92l-.092.154.662.662a3 3 0 0 0 .235-.362 1.4 1.4 0 0 1 .446-.56 2.01 2.01 0 0 0 .749-2.418c.045-.075.148-.184.14-.2a1.09 1.09 0 0 0 .943-.297 1.22 1.22 0 0 0 .156-1.09 1 1 0 0 1-.027-.264.9.9 0 0 1 .26-.278 1.34 1.34 0 0 0 .59-1.029 1.4 1.4 0 0 0-.22-.706.54.54 0 0 1-.103-.255c0-.051.101-.373.921-.818L18.231 3H21v12.596c-.171.03-.36.046-.45.06a2.3 2.3 0 0 1-.366.04c-.295 0-.69-.347-.952-.577a1.2 1.2 0 0 1-.197-.36c-.135-.313-.361-.839-.962-.839a1.44 1.44 0 0 0-.959.366l.662.662a.55.55 0 0 1 .257-.12 1.3 1.3 0 0 1 .153.296 2.1 2.1 0 0 0 .366.6l.193.193a2.34 2.34 0 0 0 1.44.704 3.4 3.4 0 0 0 .51-.052 3 3 0 0 1 .305-.034v1.637l.981.98v-3.436l.019-.024-.019-.015V2.02zm17.798 21.334-22-22 .707-.707 22 22z"/><path fill="none" d="M0 0h24v24H0z"/></svg>