<svg xmlns="http://www.w3.org/2000/svg" viewBox="0 0 16 16"><path d="m5.852 3.731-.748-.748a5.77 5.77 0 0 1 6.625.58L15.246.047l.707.707-3.517 3.518a5.77 5.77 0 0 1 .581 6.625l-.748-.748A4.74 4.74 0 0 0 12.8 8 4.805 4.805 0 0 0 8 3.2a4.74 4.74 0 0 0-2.148.531M8 12.8A4.805 4.805 0 0 1 3.2 8a4.74 4.74 0 0 1 .53-2.148l-.747-.748a5.77 5.77 0 0 0 .581 6.625L.046 15.246l.707.707 3.518-3.517a5.77 5.77 0 0 0 6.625.581l-.748-.748a4.74 4.74 0 0 1-2.148.53zM5 8a3 3 0 0 1 .112-.767 3 3 0 0 1 2.12-2.121A3 3 0 0 1 8 5a3.003 3.003 0 0 1 3 3 3 3 0 0 1-.112.767 3 3 0 0 1-2.12 2.121A3 3 0 0 1 8 11a3.003 3.003 0 0 1-3-3m1 0c0 .046.01.09.014.135a1.99 1.99 0 0 0 1.851 1.851c.046.003.089.014.135.014a2 2 0 0 0 2-2c0-.046-.01-.09-.014-.135a1.99 1.99 0 0 0-1.851-1.851C8.089 6.01 8.046 6 8 6a2 2 0 0 0-2 2"/><path fill="none" d="M0 0h16v16H0z"/></svg>