<svg xmlns="http://www.w3.org/2000/svg" viewBox="0 0 24 24"><path d="m9.104 6.983-.727-.727a6.755 6.755 0 0 1 8.059.602l5.81-5.811.707.707-5.81 5.81a6.76 6.76 0 0 1 .601 8.059l-.727-.727a5.79 5.79 0 0 0-7.913-7.913M12 17.8a5.79 5.79 0 0 1-5.017-8.696l-.727-.727a6.76 6.76 0 0 0 .601 8.058l-5.81 5.811.706.707 5.811-5.81a6.755 6.755 0 0 0 8.059.601l-.727-.727A5.76 5.76 0 0 1 12 17.8m4-5.8a4 4 0 0 1-.318 1.561 4.02 4.02 0 0 1-2.12 2.121 3.999 3.999 0 0 1-5.244-5.243 4.02 4.02 0 0 1 2.12-2.121A4 4 0 0 1 16 12m-1.112.767A3 3 0 0 0 15 12a3.003 3.003 0 0 0-3-3 3 3 0 0 0-.767.112 3 3 0 0 0-2.121 2.12A3 3 0 0 0 9 12a3.003 3.003 0 0 0 3 3 3 3 0 0 0 .767-.112 3 3 0 0 0 2.121-2.12z"/><path fill="none" d="M0 0h24v24H0z"/></svg>