<svg xmlns="http://www.w3.org/2000/svg" viewBox="0 0 16 16"><path fill="none" stroke-width="0" d="M0 0h16v16H0z"/><path d="M12 6H3V5h9v1zm-1 2H3v1h8V8zm-3 3H3v1h5v-1zm6-10v6.72c-.15.05-.29.13-.4.24l-.6.61V2h-1V1h2zM2 15h5.39l-.28.55c-.07.15-.11.3-.11.45H1V1h2v1H2v13zm12-2.55V16h-3.77l.22-.11c.09-.04.18-.1.25-.18l.72-.71H13v-1.56l1-.99zM5 2.5v-2c0-.275-.225-.5-.5-.5S4 .225 4 .5v2c0 .275.225.5.5.5s.5-.225.5-.5zm2 0v-2c0-.275-.225-.5-.5-.5S6 .225 6 .5v2c0 .275.225.5.5.5s.5-.225.5-.5zm2 0v-2c0-.275-.225-.5-.5-.5S8 .225 8 .5v2c0 .275.225.5.5.5s.5-.225.5-.5zm2 0v-2c0-.275-.225-.5-.5-.5s-.5.225-.5.5v2c0 .275.225.5.5.5s.5-.225.5-.5zM9 14l-1 2 2-1 4-3.95L12.937 10 9 14zm5.312-5.33l-.645.647.997.997.645-.647-.997-.998z" stroke-width="0"/></svg>