<svg xmlns="http://www.w3.org/2000/svg" viewBox="0 0 24 24"><path fill="none" d="M0 0h24v24H0z"/><path d="M18 10H7V9h11zm0 2H7v1h11zm-1 3H7v1h10zm-4 3H7v1h6zm8-15v10h-1V4h-1V3zM5 22h12v1H4V3h2v1H5zM8.5 5.25v-3.5A.75.75 0 0 0 7.75 1a.75.75 0 0 0-.75.75v3.5c0 .412.338.75.75.75s.75-.338.75-.75m3 0v-3.5a.75.75 0 0 0-.75-.75.75.75 0 0 0-.75.75v3.5c0 .412.338.75.75.75s.75-.338.75-.75m3.5 0v-3.5a.75.75 0 0 0-.75-.75.75.75 0 0 0-.75.75v3.5c0 .412.338.75.75.75s.75-.338.75-.75m3 0v-3.5a.75.75 0 0 0-.75-.75.75.75 0 0 0-.75.75v3.5c0 .412.338.75.75.75s.75-.338.75-.75M20 24v-4.001h4V19h-4v-4h-1v4h-4v.999h4V24z"/></svg>