<svg xmlns="http://www.w3.org/2000/svg" viewBox="0 0 32 32"><path fill="none" d="M0 0h32v32H0z"/><path d="M24 10H8V9h16zm0 3H8v1h16zm0 4H8v1h16zm0 4H8v1h16zm-8 4H8v1h8zM27 3v16h-1V4h-1V3zM6 29h18v1H5V3h2v1H6zm5-23V2c0-.55-.45-1-1-1s-1 .45-1 1v4c0 .55.45 1 1 1s1-.45 1-1m4 0V2c0-.55-.45-1-1-1s-1 .45-1 1v4c0 .55.45 1 1 1s1-.45 1-1m4 0V2c0-.55-.45-1-1-1s-1 .45-1 1v4c0 .55.45 1 1 1s1-.45 1-1m4 0V2c0-.55-.45-1-1-1s-1 .45-1 1v4c0 .55.45 1 1 1s1-.45 1-1m4 26v-5.001h5V26h-5v-5h-1v5h-5v.999h5V32z"/></svg>