<svg xmlns="http://www.w3.org/2000/svg" viewBox="0 0 24 24"><path fill="none" d="M0 0h24v24H0z"/><path d="M7.75 6A.75.75 0 0 1 7 5.25v-3.5c0-.412.338-.75.75-.75s.75.338.75.75v3.5c0 .412-.338.75-.75.75m3.75-.75v-3.5a.75.75 0 0 0-.75-.75.75.75 0 0 0-.75.75v3.5c0 .412.338.75.75.75s.75-.338.75-.75M18 9H7v1h11zm0 4H7v-1h11zm0 3H7v-1h11zm-5 3H7v-1h6zm6-16v1h1v18H5V4h1V3H4v20h17V3zm-4.75 3a.75.75 0 0 1-.75-.75v-3.5c0-.412.338-.75.75-.75s.75.338.75.75v3.5c0 .412-.338.75-.75.75m3 0a.75.75 0 0 1-.75-.75v-3.5c0-.412.338-.75.75-.75s.75.338.75.75v3.5c0 .412-.338.75-.75.75"/></svg>