<svg xmlns="http://www.w3.org/2000/svg" viewBox="0 0 24 24"><path fill="none" stroke-width="0" d="M0 0h24v24H0z"/><path d="M7.75 6A.752.752 0 0 1 7 5.25v-3.5c0-.412.338-.75.75-.75s.75.338.75.75v3.5c0 .412-.338.75-.75.75zm3.75-.75v-3.5a.752.752 0 0 0-.75-.75.752.752 0 0 0-.75.75v3.5c0 .412.338.75.75.75s.75-.338.75-.75zM18 9H7v1h11V9zm0 4H7v-1h11v1zm0 3H7v-1h11v1zm-5 3H7v-1h6v1zm6-16v1h1v18H5V4h1V3H4v20h17V3h-2zm-4.75 3a.752.752 0 0 1-.75-.75v-3.5c0-.412.338-.75.75-.75s.75.338.75.75v3.5c0 .412-.338.75-.75.75zm3 0a.752.752 0 0 1-.75-.75v-3.5c0-.412.338-.75.75-.75s.75.338.75.75v3.5c0 .412-.338.75-.75.75z" stroke-width="0"/></svg>