<svg xmlns="http://www.w3.org/2000/svg" viewBox="0 0 16 16"><path fill="none" d="M0 0h16v16H0z"/><path d="M12 6H3V5h9zM3 8v1h7V8zm0 3v1h4v-1zM14 1v6h-1V2h-1V1zM2 15h8v1H1V1h2v1H2zM5 2.5v-2c0-.275-.225-.5-.5-.5S4 .225 4 .5v2c0 .275.225.5.5.5s.5-.225.5-.5m2 0v-2c0-.275-.225-.5-.5-.5S6 .225 6 .5v2c0 .275.225.5.5.5s.5-.225.5-.5m2 0v-2c0-.275-.225-.5-.5-.5S8 .225 8 .5v2c0 .275.225.5.5.5s.5-.225.5-.5m2 0v-2c0-.275-.225-.5-.5-.5s-.5.225-.5.5v2c0 .275.225.5.5.5s.5-.225.5-.5m5 9.5h-3V9h-1v3H9v1h3v3h1v-3h3z"/></svg>