<svg xmlns="http://www.w3.org/2000/svg" viewBox="0 0 32 32"><path fill="none" d="M0 0h32v32H0z"/><path d="M24 10H8V9h16zm0 3H8v1h16zm0 4H8v1h16zm-1 4H8v1h15zm-7 4H8v1h8zM27 3v16.26l-1 1V4h-1V3zM6 29h11.91l-.42 1H5V3h2v1H6zm21-3.06V30h-4.07l1-1H26v-2.07zM11 6V2c0-.55-.45-1-1-1s-1 .45-1 1v4c0 .55.45 1 1 1s1-.45 1-1m4 0V2c0-.55-.45-1-1-1s-1 .45-1 1v4c0 .55.45 1 1 1s1-.45 1-1m4 0V2c0-.55-.45-1-1-1s-1 .45-1 1v4c0 .55.45 1 1 1s1-.45 1-1m4 0V2c0-.55-.45-1-1-1s-1 .45-1 1v4c0 .55.45 1 1 1s1-.45 1-1m-3.875 22.714-1.343 3.157 3.15-1.35zm9.846-6.164-1.921-1.922-6.764 6.764 1.922 1.922zm2.157-2.582-1.497-1.497a.3.3 0 0 0-.21-.09.28.28 0 0 0-.207.083l-1.027 1.028 1.921 1.921 1.027-1.028a.295.295 0 0 0-.007-.417"/></svg>