<svg xmlns="http://www.w3.org/2000/svg" viewBox="0 0 32 32"><path d="m30.354 2.354-.707-.707-5.385 5.384A9.97 9.97 0 0 0 16 2.201C9.944 2.2 5.2 8.26 5.2 16a16.6 16.6 0 0 0 2.006 8.086l-5.56 5.56.707.707 5.385-5.384A9.97 9.97 0 0 0 16 29.799c6.056 0 10.8-6.06 10.8-13.799a16.6 16.6 0 0 0-2.006-8.086zM6.2 16c0-7.178 4.305-12.8 9.8-12.8a9.03 9.03 0 0 1 7.544 4.549L7.938 23.355A15.7 15.7 0 0 1 6.2 16m19.6 0c0 7.178-4.305 12.8-9.8 12.8a9.03 9.03 0 0 1-7.544-4.549L24.062 8.645A15.7 15.7 0 0 1 25.8 16"/><path fill="none" d="M0 0h32v32H0z"/></svg>