<svg xmlns="http://www.w3.org/2000/svg" viewBox="0 0 16 16"><path d="m14.854 1.854-.707-.707-2.44 2.439A4.35 4.35 0 0 0 8 1.2C5.264 1.2 3.2 4.123 3.2 8a9.3 9.3 0 0 0 .632 3.461l-2.686 2.685.707.707 2.44-2.439A4.35 4.35 0 0 0 8 14.8c2.736 0 4.8-2.923 4.8-6.8a9.3 9.3 0 0 0-.632-3.461zM4.2 8c0-3.307 1.634-5.8 3.8-5.8a3.47 3.47 0 0 1 2.977 2.116l-6.37 6.37A8.7 8.7 0 0 1 4.2 8m7.6 0c0 3.307-1.634 5.8-3.8 5.8a3.47 3.47 0 0 1-2.977-2.116l6.37-6.37A8.7 8.7 0 0 1 11.8 8"/><path fill="none" d="M0 0h16v16H0z"/></svg>