<svg xmlns="http://www.w3.org/2000/svg" viewBox="0 0 32 32"><path d="M16.5 3.2a13.3 13.3 0 1 0 13.3 13.3A13.3 13.3 0 0 0 16.5 3.2m0 25.6a12.3 12.3 0 1 1 12.3-12.3 12.314 12.314 0 0 1-12.3 12.3m1.494-12.568a3.33 3.33 0 0 1 1.845 1.25 3.84 3.84 0 0 1 .342 3.673 3.3 3.3 0 0 1-.864 1.143 4 4 0 0 1-1.278.729 4.66 4.66 0 0 1-3.078 0 4 4 0 0 1-1.278-.73 3.3 3.3 0 0 1-.864-1.142 3.8 3.8 0 0 1 .36-3.68 3.3 3.3 0 0 1 1.827-1.243v-.036a2.8 2.8 0 0 1-.837-.46 3.1 3.1 0 0 1-.63-.683 3.3 3.3 0 0 1-.405-.837 3 3 0 0 1-.144-.936 3.3 3.3 0 0 1 .279-1.368 3.2 3.2 0 0 1 .756-1.044 3.4 3.4 0 0 1 1.116-.666 4.06 4.06 0 0 1 2.718 0 3.4 3.4 0 0 1 1.116.666 3.2 3.2 0 0 1 .756 1.044 3.3 3.3 0 0 1 .279 1.368 3 3 0 0 1-.144.936 3.3 3.3 0 0 1-.405.837 3 3 0 0 1-.639.684 3 3 0 0 1-.828.459zm-4.464 3.312a3 3 0 0 0 .216 1.152 2.8 2.8 0 0 0 .603.909 2.7 2.7 0 0 0 .936.603 3.53 3.53 0 0 0 2.43 0 2.7 2.7 0 0 0 .936-.603 2.8 2.8 0 0 0 .603-.91 3 3 0 0 0 .216-1.151 2.9 2.9 0 0 0-.225-1.143 2.7 2.7 0 0 0-1.548-1.503 3.43 3.43 0 0 0-2.394 0 2.7 2.7 0 0 0-1.548 1.503 2.9 2.9 0 0 0-.225 1.143m.468-6.21a2.5 2.5 0 0 0 .189.972 2.3 2.3 0 0 0 .53.774 2.6 2.6 0 0 0 .793.513 2.68 2.68 0 0 0 1.98 0 2.6 2.6 0 0 0 .792-.513 2.3 2.3 0 0 0 .53-.774 2.5 2.5 0 0 0 .19-.972 2.6 2.6 0 0 0-.19-.999 2.3 2.3 0 0 0-.53-.792 2.563 2.563 0 0 0-3.564 0 2.3 2.3 0 0 0-.531.792 2.6 2.6 0 0 0-.189.999"/><path fill="none" d="M0 0h32v32H0z"/></svg>