<svg xmlns="http://www.w3.org/2000/svg" viewBox="0 0 32 32"><path d="M16.5 3.2a13.3 13.3 0 1 0 13.3 13.3A13.3 13.3 0 0 0 16.5 3.2m0 25.6a12.3 12.3 0 1 1 12.3-12.3 12.314 12.314 0 0 1-12.3 12.3m2.344-11.654-.036-.036a2.4 2.4 0 0 1-.934.512 3.9 3.9 0 0 1-1.185.188 4 4 0 0 1-1.508-.278 3.55 3.55 0 0 1-1.212-.79 3.6 3.6 0 0 1-.8-1.23 4.2 4.2 0 0 1-.287-1.58 4.1 4.1 0 0 1 .306-1.589 3.7 3.7 0 0 1 .843-1.248 3.8 3.8 0 0 1 1.276-.808A4.4 4.4 0 0 1 16.923 10a4.4 4.4 0 0 1 1.607.287 3.65 3.65 0 0 1 2.083 2.047 4.2 4.2 0 0 1 .296 1.598 5.1 5.1 0 0 1-.287 1.724 9.3 9.3 0 0 1-.809 1.67L16.366 23h-1.185zm1.059-3.214a3.2 3.2 0 0 0-.224-1.221 3 3 0 0 0-.62-.97 2.8 2.8 0 0 0-.942-.646 3.26 3.26 0 0 0-2.425 0 2.8 2.8 0 0 0-.942.646 3 3 0 0 0-.62.97 3.2 3.2 0 0 0-.224 1.221 3.4 3.4 0 0 0 .216 1.212 2.8 2.8 0 0 0 .6.97 2.8 2.8 0 0 0 .935.637 3.34 3.34 0 0 0 2.45 0 2.9 2.9 0 0 0 .952-.637 2.9 2.9 0 0 0 .62-.97 3.3 3.3 0 0 0 .224-1.212"/><path fill="none" d="M0 0h32v32H0z"/></svg>