<svg xmlns="http://www.w3.org/2000/svg" viewBox="0 0 16 16"><path d="M8.5 1.2a7.3 7.3 0 1 0 7.3 7.3 7.3 7.3 0 0 0-7.3-7.3m0 13.6a6.3 6.3 0 1 1 6.3-6.3 6.307 6.307 0 0 1-6.3 6.3M11 5H7v3.68a3.5 3.5 0 0 1 .73-.28 3.2 3.2 0 0 1 .82-.11 2.2 2.2 0 0 1 .63.09 1.5 1.5 0 0 1 .53.281 1.35 1.35 0 0 1 .365.487 1.7 1.7 0 0 1 .135.697 1.6 1.6 0 0 1-.115.622 1.5 1.5 0 0 1-.315.482 1.4 1.4 0 0 1-.47.31 1.5 1.5 0 0 1-.58.111 1.42 1.42 0 0 1-.845-.26 1.5 1.5 0 0 1-.535-.69l-.88.35a2.37 2.37 0 0 0 .86 1.03 2.47 2.47 0 0 0 1.4.38 2.7 2.7 0 0 0 .98-.175 2.4 2.4 0 0 0 .78-.49 2.3 2.3 0 0 0 .52-.765 2.6 2.6 0 0 0 .19-1.01 2.3 2.3 0 0 0-.18-.925 2.05 2.05 0 0 0-.495-.705 2.2 2.2 0 0 0-.75-.445 2.8 2.8 0 0 0-.945-.155 4 4 0 0 0-.465.03 1.4 1.4 0 0 0-.365.1L7.98 6H11z"/><path fill="none" d="M0 0h16v16H0z"/></svg>