<svg xmlns="http://www.w3.org/2000/svg" viewBox="0 0 16 16"><path d="M8.5 15.8a7.3 7.3 0 1 0 0-14.6 7.3 7.3 0 0 0 0 14.6m1.394-6.569a1.17 1.17 0 0 0-.771-.659 2 2 0 0 0-.573-.082 3 3 0 0 0-.768.104 3.3 3.3 0 0 0-.69.263l-.292.15V4.8h4.4v1.4H8.183l.013 1.167q.064-.015.145-.025a4 4 0 0 1 .49-.032c.36 0 .701.056 1.012.167q.474.17.818.485.345.32.542.773c.197.453.197.64.197 1.005 0 .399-.069.765-.206 1.088a2.5 2.5 0 0 1-.565.832 2.6 2.6 0 0 1-.847.531 2.9 2.9 0 0 1-1.052.189c-.59 0-1.1-.14-1.511-.413a2.6 2.6 0 0 1-.932-1.116l-.085-.19 1.26-.5.074.186c.099.252.251.448.465.6.21.15.45.223.73.223.18 0 .35-.032.502-.095.157-.064.29-.152.407-.267a1.3 1.3 0 0 0 .27-.416q.1-.245.1-.546-.001-.359-.116-.615"/><path fill="none" d="M0 0h16v16H0z"/></svg>