<svg xmlns="http://www.w3.org/2000/svg" viewBox="0 0 24 24"><path d="M12.5 2.2C6.81 2.2 2.2 6.81 2.2 12.5c0 5.692 4.61 10.3 10.3 10.3s10.3-4.608 10.3-10.3c0-5.69-4.61-10.3-10.3-10.3zm3.097 13.468a2.958 2.958 0 0 1-.74.959 3.325 3.325 0 0 1-1.08.61c-.408.143-.838.215-1.277.215s-.87-.072-1.276-.215a3.309 3.309 0 0 1-1.08-.611 2.853 2.853 0 0 1-1.021-2.23c0-.355.05-.69.15-.994.096-.3.238-.578.42-.825a2.777 2.777 0 0 1 1.028-.853 2.35 2.35 0 0 1-.77-.74 2.917 2.917 0 0 1-.33-.708 2.64 2.64 0 0 1-.122-.794c0-.425.082-.82.243-1.174.16-.352.381-.655.658-.9.274-.245.594-.437.953-.57.353-.134.74-.202 1.147-.202.397 0 .781.068 1.14.202.362.132.685.324.96.57a2.719 2.719 0 0 1 .9 2.074c0 .267-.04.534-.121.794a2.933 2.933 0 0 1-.33.707 2.36 2.36 0 0 1-.764.738c.396.19.737.473 1.02.845.38.501.573 1.118.573 1.83 0 .468-.095.896-.281 1.272zm-1.266-2.134c.092.225.139.478.139.75 0 .275-.047.532-.14.768-.09.231-.224.433-.395.6a1.88 1.88 0 0 1-.622.399c-.242.097-.515.147-.813.147s-.571-.05-.814-.147a1.856 1.856 0 0 1-.62-.399 1.681 1.681 0 0 1-.396-.602 2.065 2.065 0 0 1-.14-.766c0-.272.047-.525.14-.75.09-.224.223-.423.396-.592.167-.165.375-.296.618-.39s.516-.14.816-.14.574.047.816.14a1.732 1.732 0 0 1 1.015.982zm-3.327-3.362a1.578 1.578 0 0 1-.124-.634c0-.234.042-.456.125-.66.085-.206.197-.377.342-.523A1.61 1.61 0 0 1 12.5 7.89c.233 0 .45.042.642.124a1.56 1.56 0 0 1 .854.865c.082.203.124.425.124.66a1.505 1.505 0 0 1-.47 1.129c-.148.139-.323.25-.517.33-.196.078-.41.118-.633.118s-.437-.04-.63-.117a1.685 1.685 0 0 1-.52-.333 1.446 1.446 0 0 1-.346-.494z"/><path fill="none" d="M0 0h24v24H0z"/></svg>