<svg id="icons" xmlns="http://www.w3.org/2000/svg" viewBox="0 0 16 16"><path d="M8.5 15.8a7.3 7.3 0 1 0 0-14.6 7.3 7.3 0 0 0 0 14.6zM6.061 6.057c.136-.318.325-.59.563-.813.237-.223.522-.4.845-.521.323-.121.673-.183 1.042-.183s.72.064 1.042.189c.322.125.606.302.841.527.235.225.422.496.555.806s.201.649.201 1.008a3 3 0 0 1-.204 1.124c-.132.326-.301.66-.505.99L8.53 12.2H6.897l1.807-2.719a2.6 2.6 0 0 1-.433.04 2.45 2.45 0 0 1-.948-.182 2.36 2.36 0 0 1-.763-.501 2.33 2.33 0 0 1-.514-.772A2.504 2.504 0 0 1 5.86 7.1c0-.38.068-.73.201-1.043zm1.227 1.529a1.378 1.378 0 0 1-.092-.516c0-.2.03-.376.094-.539.06-.159.148-.297.26-.409.115-.116.25-.205.41-.272.158-.067.337-.1.536-.1.195 0 .375.034.532.104a1.243 1.243 0 0 1 .674.693c.062.161.093.334.093.514 0 .192-.03.369-.092.525a1.175 1.175 0 0 1-.674.668 1.478 1.478 0 0 1-.544.096 1.43 1.43 0 0 1-.54-.096 1.13 1.13 0 0 1-.398-.263 1.233 1.233 0 0 1-.259-.405z"/><path fill="none" d="M0 0h16v16H0z"/></svg>