<svg xmlns="http://www.w3.org/2000/svg" viewBox="0 0 16 16"><path d="M8.5 1.2a7.3 7.3 0 1 0 7.3 7.3 7.3 7.3 0 0 0-7.3-7.3m0 13.6a6.3 6.3 0 1 1 6.3-6.3 6.307 6.307 0 0 1-6.3 6.3m.67-5.66-.01-.01a1.4 1.4 0 0 1-.41.14 2.5 2.5 0 0 1-.48.05 2.3 2.3 0 0 1-.87-.165 2.2 2.2 0 0 1-.7-.46 2.1 2.1 0 0 1-.47-.705 2.3 2.3 0 0 1-.17-.89 2.45 2.45 0 0 1 .185-.965 2.2 2.2 0 0 1 .516-.745 2.3 2.3 0 0 1 .779-.48 2.7 2.7 0 0 1 .97-.17 2.7 2.7 0 0 1 .97.175 2.3 2.3 0 0 1 .776.485 2.3 2.3 0 0 1 .51.74 2.3 2.3 0 0 1 .184.93 2.8 2.8 0 0 1-.19 1.05 6.5 6.5 0 0 1-.49.96L8.42 12H7.27zm.825-2.08a1.6 1.6 0 0 0-.107-.585 1.4 1.4 0 0 0-.306-.48 1.5 1.5 0 0 0-.475-.325 1.5 1.5 0 0 0-.612-.12 1.6 1.6 0 0 0-.612.115 1.5 1.5 0 0 0-.475.315 1.35 1.35 0 0 0-.306.48 1.7 1.7 0 0 0-.107.61 1.6 1.6 0 0 0 .107.59 1.4 1.4 0 0 0 .301.47 1.3 1.3 0 0 0 .47.31 1.6 1.6 0 0 0 .612.11 1.7 1.7 0 0 0 .617-.11 1.4 1.4 0 0 0 .48-.31 1.4 1.4 0 0 0 .306-.47 1.6 1.6 0 0 0 .107-.6"/><path fill="none" d="M0 0h16v16H0z"/></svg>