<svg xmlns="http://www.w3.org/2000/svg" viewBox="0 0 24 24"><path d="M12.5 2.2C6.81 2.2 2.2 6.81 2.2 12.5c0 5.692 4.61 10.3 10.3 10.3s10.3-4.608 10.3-10.3c0-5.69-4.61-10.3-10.3-10.3m3.7 6h-5v2.435a5.6 5.6 0 0 1 1.295-.157c.519 0 1.005.078 1.445.232q.666.233 1.163.665c.33.289.59.639.77 1.039.18.401.273.846.273 1.321a3.5 3.5 0 0 1-.272 1.38c-.18.424-.437.794-.767 1.102a3.6 3.6 0 0 1-1.183.722 4.2 4.2 0 0 1-1.504.261c-.804 0-1.494-.17-2.052-.504a3.5 3.5 0 0 1-1.305-1.364l-.104-.195 1.356-.556.081.172c.173.365.439.661.79.879.353.218.75.328 1.181.328.335 0 .649-.054.93-.16a2.04 2.04 0 0 0 1.195-1.115c.115-.258.173-.543.173-.846a2.1 2.1 0 0 0-.185-.889 2 2 0 0 0-.504-.673 2.3 2.3 0 0 0-.77-.431 3 3 0 0 0-.99-.156c-.363 0-.729.046-1.085.138a5.5 5.5 0 0 0-1.038.379l-.286.14L9.8 6.8h6.4z"/><path fill="none" d="M0 0h24v24H0z"/></svg>