<svg id="icons" xmlns="http://www.w3.org/2000/svg" viewBox="0 0 16 16"><path d="M8.5 15.8a7.3 7.3 0 1 0 0-14.6 7.3 7.3 0 0 0 0 14.6zm1.394-6.569a1.173 1.173 0 0 0-.771-.659 1.975 1.975 0 0 0-.573-.082 3.01 3.01 0 0 0-.768.104 3.253 3.253 0 0 0-.69.263l-.292.15V4.8h4.4v1.4H8.183l.013 1.167c.044-.01.09-.018.145-.025a3.94 3.94 0 0 1 .49-.032c.36 0 .701.056 1.012.167.315.112.59.276.818.485.23.212.411.472.542.773s.197.64.197 1.005c0 .399-.069.765-.206 1.088a2.497 2.497 0 0 1-.565.832 2.585 2.585 0 0 1-.847.531 2.895 2.895 0 0 1-1.052.189c-.59 0-1.1-.14-1.511-.413a2.577 2.577 0 0 1-.932-1.116l-.085-.19 1.26-.5.074.186c.099.252.251.448.465.6.21.15.45.223.73.223.18 0 .35-.032.502-.095.157-.064.29-.152.407-.267.113-.117.205-.256.27-.416.067-.163.1-.346.1-.546 0-.238-.04-.445-.116-.615z"/><path fill="none" d="M0 0h16v16H0z"/></svg>