<svg xmlns="http://www.w3.org/2000/svg" viewBox="0 0 32 32"><path d="M10 19H3v-1h3V6H3V5h4v13h3zm3.5 0H19v-1h-5.5a.5.5 0 0 1-.5-.5v-5c0-.275.225-.5.5-.5h4c.827 0 1.5-.673 1.5-1.5v-4c0-.827-.673-1.5-1.5-1.5H12v1h5.5c.275 0 .5.225.5.5v4c0 .275-.225.5-.5.5h-4c-.827 0-1.5.673-1.5 1.5v5c0 .827.673 1.5 1.5 1.5m13-14H21v1h5.5c.275 0 .5.225.5.5V11h-6v1h6v5.5c0 .275-.225.5-.5.5H21v1h5.5c.827 0 1.5-.673 1.5-1.5v-11c0-.827-.673-1.5-1.5-1.5M24 31h-2v-9h2v-1h-3v11h3zm5-9h2v9h-2v1h3V21h-3z"/><path d="M0 0h32v32H0z" style="fill:none"/></svg>