<svg xmlns="http://www.w3.org/2000/svg" viewBox="0 0 32 32"><path d="M16.5 3.2a13.3 13.3 0 1 0 13.3 13.3A13.3 13.3 0 0 0 16.5 3.2m0 25.6a12.3 12.3 0 1 1 12.3-12.3 12.314 12.314 0 0 1-12.3 12.3m.026-5.8a4.69 4.69 0 0 1-4.466-2.3l.9-.4a3.78 3.78 0 0 0 3.566 1.774c.74 0 3.501-.548 3.501-3.23a3.22 3.22 0 0 0-3.378-3.288 7.3 7.3 0 0 0-2.897.592l-.732.355L13.019 10h6.975v.926H14v4.119a8.8 8.8 0 0 1 2.65-.415 4.187 4.187 0 0 1 4.377 4.214c0 3.14-3.032 4.156-4.5 4.156z"/><path fill="none" d="M0 0h32v32H0z"/></svg>