<svg xmlns="http://www.w3.org/2000/svg" viewBox="0 0 24 24"><path d="M12.5 2.2a10.3 10.3 0 1 0 10.3 10.3A10.3 10.3 0 0 0 12.5 2.2m0 19.6a9.3 9.3 0 1 1 9.3-9.3 9.31 9.31 0 0 1-9.3 9.3M16 8h-5v2.898a5 5 0 0 1 .753-.165 5 5 0 0 1 .742-.055 4.2 4.2 0 0 1 1.38.22 3.3 3.3 0 0 1 1.096.627 2.8 2.8 0 0 1 .72.971 3 3 0 0 1 .254 1.24 3.3 3.3 0 0 1-.255 1.301 3 3 0 0 1-.72 1.033 3.4 3.4 0 0 1-1.117.682A4 4 0 0 1 12.42 17a3.73 3.73 0 0 1-1.95-.475 3.27 3.27 0 0 1-1.23-1.288l.976-.4a2.23 2.23 0 0 0 .865.965 2.4 2.4 0 0 0 1.286.358 2.8 2.8 0 0 0 1.001-.173 2.4 2.4 0 0 0 .79-.483 2.2 2.2 0 0 0 .519-.74 2.4 2.4 0 0 0-.015-1.899 2.2 2.2 0 0 0-.557-.74 2.5 2.5 0 0 0-.835-.469 3.2 3.2 0 0 0-1.053-.166 4.5 4.5 0 0 0-1.136.145 5.7 5.7 0 0 0-1.075.393L10 7h6z"/><path fill="none" d="M0 0h24v24H0z"/></svg>