<svg id="icons" xmlns="http://www.w3.org/2000/svg" viewBox="0 0 32 32"><path d="M16.5 3.2C9.154 3.2 3.2 9.154 3.2 16.5s5.954 13.3 13.3 13.3 13.3-5.954 13.3-13.3S23.846 3.2 16.5 3.2zm.026 20c-2.188 0-3.838-.854-4.643-2.407l-.098-.188 1.267-.566.087.168c.715 1.378 2.237 1.667 3.387 1.667.698 0 3.301-.514 3.301-3.03 0-2.443-2.078-3.088-3.178-3.088-1.609 0-2.797.565-2.81.571l-1.02.495V9.8h7.375v1.326H14.2v3.65a9.127 9.127 0 0 1 2.45-.346c1.84 0 4.578 1.175 4.578 4.414 0 3.29-3.167 4.356-4.702 4.356z"/><path fill="none" d="M0 0h32v32H0z"/></svg>