<?xml version="1.0" encoding="UTF-8"?><svg id="icons" xmlns="http://www.w3.org/2000/svg" viewBox="0 0 24 24"><defs><style>.cls-1{fill:none;}</style></defs><path d="M5,12h2v1H2v-1h2V3h-2v-1h3v10ZM14,12h-3.75c-.1377,0-.25-.1123-.25-.25v-3.5c0-.1377.1123-.25.25-.25h2.5c.68945,0,1.25-.56055,1.25-1.25v-3.5c0-.68945-.56055-1.25-1.25-1.25h-3.75v1h3.75c.1377,0,.25.1123.25.25v3.5c0,.1377-.1123.25-.25.25h-2.5c-.68945,0-1.25.56055-1.25,1.25v3.5c0,.68945.56055,1.25,1.25,1.25h3.75v-1ZM21,3.25c0-.68945-.56055-1.25-1.25-1.25h-3.75v1h3.75c.1377,0,.25.1123.25.25v3.75h-4v1h4v3.75c0,.1377-.1123.25-.25.25h-3.75v1h3.75c.68945,0,1.25-.56055,1.25-1.25V3.25ZM14,24h3v-1h-2v-7h2v-1h-3v9ZM21,15v1h2v7h-2v1h3v-9h-3Z"/><rect class="cls-1" width="24" height="24"/></svg>