<svg xmlns="http://www.w3.org/2000/svg" viewBox="0 0 24 24"><path d="M14.552 9.134q.148.385.148.824c0 .293-.048.57-.14.82a1.78 1.78 0 0 1-1.03 1.067q-.376.152-.842.153c-.466.001-.593-.052-.842-.154a1.8 1.8 0 0 1-.63-.422 1.9 1.9 0 0 1-.399-.645 2.3 2.3 0 0 1-.14-.819q0-.439.147-.824a1.9 1.9 0 0 1 .41-.654 2 2 0 0 1 .638-.431c.244-.106.519-.16.816-.16a2 2 0 0 1 1.453.591q.264.272.411.654M22.8 12.5c0 5.692-4.61 10.3-10.3 10.3S2.2 18.192 2.2 12.5c0-5.69 4.61-10.3 10.3-10.3s10.3 4.61 10.3 10.3m-6.692-2.542c0-.481-.085-.934-.253-1.343a3 3 0 0 0-.72-1.057 3.4 3.4 0 0 0-1.086-.678 3.7 3.7 0 0 0-1.361-.244c-.488 0-.946.082-1.361.244a3.4 3.4 0 0 0-1.085.678c-.31.289-.552.644-.72 1.057a3.5 3.5 0 0 0-.254 1.343c0 .47.083.912.246 1.314s.393.75.682 1.034a3.1 3.1 0 0 0 1.024.666c.39.158.818.238 1.272.238a3.6 3.6 0 0 0 .945-.133L10.78 17.2h1.64l2.763-4.45c.246-.41.462-.843.644-1.29.186-.461.28-.967.28-1.502z"/><path fill="none" d="M0 0h24v24H0z"/></svg>