<svg xmlns="http://www.w3.org/2000/svg" viewBox="0 0 32 32"><path d="M16.5 3.2C9.154 3.2 3.2 9.154 3.2 16.5s5.954 13.3 13.3 13.3 13.3-5.954 13.3-13.3S23.846 3.2 16.5 3.2m4.08 17.536q-.332.767-.934 1.316c-.397.364-.873.65-1.414.848-.539.2-1.137.3-1.779.3s-1.24-.1-1.78-.3a4.2 4.2 0 0 1-1.405-.85 3.9 3.9 0 0 1-.922-1.314 4.2 4.2 0 0 1-.33-1.686c0-.632.11-1.24.327-1.804.213-.556.51-1.133.882-1.715l3.69-5.731h1.735l-3.634 5.481a4.4 4.4 0 0 1 1.665-.328c.592 0 1.154.102 1.669.3.515.2.97.487 1.348.851.378.363.678.798.89 1.295s.321 1.052.321 1.65c0 .612-.111 1.18-.33 1.687zm-1.367-2.824q.212.532.213 1.138c0 .414-.074.802-.222 1.152-.148.353-.354.66-.611.913a2.8 2.8 0 0 1-.932.604 3.2 3.2 0 0 1-1.208.219 3.2 3.2 0 0 1-1.208-.22 2.8 2.8 0 0 1-.932-.603 2.8 2.8 0 0 1-.61-.913 3 3 0 0 1-.223-1.152c0-.403.075-.784.222-1.135q.222-.527.611-.913c.389-.386.575-.459.94-.604a3.4 3.4 0 0 1 1.238-.218c.44 0 .846.073 1.208.218q.54.218.92.602c.38.384.452.562.594.912"/><path fill="none" d="M0 0h32v32H0z"/></svg>