<?xml version="1.0" encoding="UTF-8"?><svg id="icons" xmlns="http://www.w3.org/2000/svg" viewBox="0 0 32 32"><defs><style>.cls-1{fill:none;}</style></defs><path d="M10,19H3v-1h3V6h-3v-1h4v13h3v1ZM13.5,19h5.5v-1h-5.5c-.27539,0-.5-.22461-.5-.5v-5c0-.27539.22461-.5.5-.5h4c.82715,0,1.5-.67285,1.5-1.5v-4c0-.82715-.67285-1.5-1.5-1.5h-5.5v1h5.5c.27539,0,.5.22461.5.5v4c0,.27539-.22461.5-.5.5h-4c-.82715,0-1.5.67285-1.5,1.5v5c0,.82715.67285,1.5,1.5,1.5ZM26.5,5h-5.5v1h5.5c.27539,0,.5.22461.5.5v4.5h-6v1h6v5.5c0,.27539-.22461.5-.5.5h-5.5v1h5.5c.82715,0,1.5-.67285,1.5-1.5V6.5c0-.82715-.67285-1.5-1.5-1.5ZM24,31h-2v-9h2v-1h-3v11h3v-1ZM29,22h2v9h-2v1h3v-11h-3v1Z"/><rect class="cls-1" width="32" height="32"/></svg>