<svg xmlns="http://www.w3.org/2000/svg" viewBox="0 0 32 32"><path d="M16.5 3.2a13.3 13.3 0 1 0 13.3 13.3A13.3 13.3 0 0 0 16.5 3.2m0 25.6a12.3 12.3 0 1 1 12.3-12.3 12.314 12.314 0 0 1-12.3 12.3m-2.08-12.982.038.036a2.6 2.6 0 0 1 .978-.512 4.2 4.2 0 0 1 1.244-.189 4.4 4.4 0 0 1 1.597.288 3.8 3.8 0 0 1 1.282.808 3.7 3.7 0 0 1 .846 1.23 4 4 0 0 1 .304 1.57 4 4 0 0 1-.314 1.608 3.6 3.6 0 0 1-.883 1.248 4 4 0 0 1-1.35.808 5.23 5.23 0 0 1-3.419 0 4 4 0 0 1-1.34-.808 3.65 3.65 0 0 1-.874-1.248 4 4 0 0 1-.313-1.607 4.8 4.8 0 0 1 .313-1.733 9.4 9.4 0 0 1 .864-1.679L17.023 10h1.254zm-1.14 3.232a3.15 3.15 0 0 0 .237 1.23 2.94 2.94 0 0 0 1.654 1.625 3.64 3.64 0 0 0 2.564 0 2.94 2.94 0 0 0 1.653-1.626 3.15 3.15 0 0 0 .238-1.23 3.2 3.2 0 0 0-.228-1.212 2.9 2.9 0 0 0-.636-.978 2.9 2.9 0 0 0-.989-.646 3.4 3.4 0 0 0-1.282-.234 3.5 3.5 0 0 0-1.312.234 2.92 2.92 0 0 0-1.662 1.624 3.1 3.1 0 0 0-.237 1.213"/><path fill="none" d="M0 0h32v32H0z"/></svg>