<svg xmlns="http://www.w3.org/2000/svg" viewBox="0 0 24 24"><path d="M12.5 2.2a10.3 10.3 0 1 0 10.3 10.3A10.3 10.3 0 0 0 12.5 2.2m0 19.6a9.3 9.3 0 1 1 9.3-9.3 9.31 9.31 0 0 1-9.3 9.3m0-4.8a3.086 3.086 0 0 1-3.25-2.882h1A2.093 2.093 0 0 0 12.5 16a2.093 2.093 0 0 0 2.25-1.882c0-.997-.967-1.748-2.25-1.748v-1c1.283 0 2.25-.697 2.25-1.62A2.05 2.05 0 0 0 12.5 8a2.05 2.05 0 0 0-2.25 1.75h-1A3.035 3.035 0 0 1 12.5 7a3.035 3.035 0 0 1 3.25 2.75 2.46 2.46 0 0 1-1.313 2.131 2.6 2.6 0 0 1 1.313 2.237A3.086 3.086 0 0 1 12.5 17"/><path fill="none" d="M0 0h24v24H0z"/></svg>