<svg xmlns="http://www.w3.org/2000/svg" viewBox="0 0 16 16"><path d="M9.354 9.202a1.15 1.15 0 0 1 .332.818q0 .26-.09.472-.09.215-.24.36a1.1 1.1 0 0 1-.369.232 1.3 1.3 0 0 1-.481.086 1.3 1.3 0 0 1-.492-.087 1.1 1.1 0 0 1-.376-.233 1 1 0 0 1-.237-.355 1.3 1.3 0 0 1-.086-.475q0-.249.09-.457c.09-.208.14-.26.246-.36q.153-.152.372-.237a1.3 1.3 0 0 1 .483-.086q.262 0 .481.085.217.086.367.237M7.616 7.078a.88.88 0 0 0 .5.496c.12.051.247.075.39.075a1 1 0 0 0 .68-.277.9.9 0 0 0 .279-.667.9.9 0 0 0-.077-.382 1 1 0 0 0-.21-.308.9.9 0 0 0-.298-.195 1 1 0 0 0-.374-.07c-.14 0-.274.023-.393.071a.9.9 0 0 0-.303.195.9.9 0 0 0-.194.3 1 1 0 0 0-.07.39q0 .199.07.372M8.5 1.2a7.3 7.3 0 1 1 0 14.6 7.3 7.3 0 0 1 0-14.6m.006 3.34q-.475 0-.892.147-.422.147-.74.428a2.1 2.1 0 0 0-.51.673 2.04 2.04 0 0 0-.19.882c0 .435.117.812.347 1.12q.203.275.481.454a1.94 1.94 0 0 0-.96 1.11q-.117.332-.117.716c0 .363.071.692.21.978.138.283.33.528.567.726.235.195.514.347.826.45.31.104.64.156.978.156s.665-.053.973-.155q.466-.158.819-.452c.24-.198.43-.443.567-.726.14-.286.21-.615.21-.977q0-.377-.116-.707a2.03 2.03 0 0 0-.95-1.123q.273-.18.474-.465c.227-.32.342-.698.342-1.125 0-.322-.063-.619-.19-.881a2 2 0 0 0-.504-.665 2.3 2.3 0 0 0-.74-.418 2.7 2.7 0 0 0-.885-.146"/><path fill="none" d="M0 0h16v16H0z"/></svg>