<svg id="icons" xmlns="http://www.w3.org/2000/svg" viewBox="0 0 16 16"><path d="M7.336 10.262a1.353 1.353 0 0 1-.09-.494c0-.186.03-.356.089-.506.06-.149.144-.279.254-.388a1.14 1.14 0 0 1 .397-.255c.16-.061.338-.093.529-.093s.367.032.522.092c.153.062.278.144.381.252.103.11.186.24.247.392.06.15.09.317.09.496 0 .186-.03.358-.09.513a1.144 1.144 0 0 1-.644.656c-.15.061-.324.092-.516.092a1.267 1.267 0 0 1-.916-.368 1.12 1.12 0 0 1-.253-.39zM1.2 8.5a7.3 7.3 0 1 1 14.6 0 7.3 7.3 0 0 1-14.6 0zm4.654 1.254a2.373 2.373 0 0 0 .76 1.757c.236.216.519.386.841.508.322.12.675.181 1.05.181.369 0 .718-.06 1.034-.177.32-.118.603-.287.84-.502.241-.217.43-.482.563-.785a2.48 2.48 0 0 0 .203-1.011c0-.335-.062-.65-.186-.938a2.214 2.214 0 0 0-.517-.745 2.362 2.362 0 0 0-.768-.485 2.563 2.563 0 0 0-1.359-.138l1.812-2.62h-1.64L6.578 7.706c-.21.32-.384.642-.517.959a2.793 2.793 0 0 0-.207 1.09z"/><path fill="none" d="M0 0h16v16H0z"/></svg>