<svg xmlns="http://www.w3.org/2000/svg" viewBox="0 0 32 32"><path d="M19.493 12.785c.14.346.21.732.21 1.147 0 .404-.07.787-.21 1.138a2.7 2.7 0 0 1-.577.904c-.242.248-.54.448-.885.593a3 3 0 0 1-1.144.217 2.9 2.9 0 0 1-1.152-.216 2.6 2.6 0 0 1-.868-.593 2.6 2.6 0 0 1-.558-.902 3.2 3.2 0 0 1-.203-1.141c0-.415.07-.801.21-1.146.14-.346.334-.651.579-.906.243-.255.538-.457.875-.6a2.9 2.9 0 0 1 1.134-.218c.41 0 .793.073 1.135.216.338.146.633.348.876.6q.366.387.578.907M29.8 16.5c0 7.346-5.954 13.3-13.3 13.3S3.2 23.846 3.2 16.5 9.154 3.2 16.5 3.2s13.3 5.954 13.3 13.3m-8.691-2.568c0-.61-.105-1.173-.312-1.674a3.9 3.9 0 0 0-.87-1.306 3.9 3.9 0 0 0-1.324-.85 4.6 4.6 0 0 0-1.68-.302c-.61 0-1.178.101-1.69.3-.513.2-.964.487-1.34.851a3.9 3.9 0 0 0-.89 1.315 4.3 4.3 0 0 0-.32 1.666c0 .597.1 1.154.3 1.655.202.502.486.938.845 1.297.359.36.79.64 1.28.834a4.25 4.25 0 0 0 2.827.095q.177-.057.335-.125L14.82 23.2h1.659l3.506-5.77a9.6 9.6 0 0 0 .825-1.706 5.3 5.3 0 0 0 .299-1.792"/><path fill="none" d="M0 0h32v32H0z"/></svg>