<svg xmlns="http://www.w3.org/2000/svg" viewBox="0 0 32 32"><path d="M16.5 3.2C9.154 3.2 3.2 9.154 3.2 16.5s5.954 13.3 13.3 13.3 13.3-5.954 13.3-13.3S23.846 3.2 16.5 3.2zm4.7 20h-9.4v-.7c0-2.896 2.373-4.177 4.467-5.307 1.86-1.004 3.466-1.87 3.466-3.62 0-1.181-.886-2.373-2.866-2.373-3.604 0-3.666 3.121-3.667 3.254l-.001.2-1.4-.002v-.2c0-.047.059-4.652 5.068-4.652 2.512 0 4.266 1.552 4.266 3.773 0 2.583-2.133 3.736-4.196 4.85-1.7.917-3.306 1.783-3.663 3.377H21.2v1.4z"/><path fill="none" d="M0 0h32v32H0z"/></svg>