<svg xmlns="http://www.w3.org/2000/svg" viewBox="0 0 16 16"><path d="M7.336 10.262a1.4 1.4 0 0 1-.09-.494q0-.28.089-.506.09-.224.254-.388a1.1 1.1 0 0 1 .397-.255q.241-.092.529-.093c.288-.001.367.032.522.092q.228.091.381.252.155.165.247.392.09.226.09.496 0 .28-.09.513a1.14 1.14 0 0 1-.644.656q-.227.092-.516.092a1.27 1.27 0 0 1-.916-.368 1.1 1.1 0 0 1-.253-.39zM1.2 8.5a7.3 7.3 0 1 1 14.6 0 7.3 7.3 0 0 1-14.6 0m4.654 1.254a2.37 2.37 0 0 0 .76 1.757q.356.325.841.508c.322.12.675.181 1.05.181.369 0 .718-.06 1.034-.177a2.6 2.6 0 0 0 .84-.502c.241-.217.43-.482.563-.785a2.5 2.5 0 0 0 .203-1.011q0-.504-.186-.938a2.2 2.2 0 0 0-.517-.745 2.4 2.4 0 0 0-.768-.485 2.56 2.56 0 0 0-1.359-.138l1.812-2.62h-1.64L6.578 7.706a6 6 0 0 0-.517.959 2.8 2.8 0 0 0-.207 1.09z"/><path fill="none" d="M0 0h16v16H0z"/></svg>