<svg id="icons" xmlns="http://www.w3.org/2000/svg" viewBox="0 0 16 16"><path d="M9.354 9.202a1.15 1.15 0 0 1 .332.818c0 .174-.03.33-.09.472-.06.143-.14.264-.24.36a1.121 1.121 0 0 1-.369.232 1.32 1.32 0 0 1-.481.086c-.182 0-.347-.03-.492-.087a1.143 1.143 0 0 1-.376-.233.974.974 0 0 1-.237-.355 1.254 1.254 0 0 1-.086-.475c0-.167.03-.317.09-.457s.14-.26.246-.36c.103-.101.225-.18.372-.237.146-.058.308-.086.483-.086.174 0 .336.028.481.085.146.058.266.136.367.237zM7.616 7.078a.878.878 0 0 0 .5.496c.12.051.247.075.39.075a.985.985 0 0 0 .68-.277.909.909 0 0 0 .279-.667.927.927 0 0 0-.077-.382 1.006 1.006 0 0 0-.21-.308.884.884 0 0 0-.298-.195.988.988 0 0 0-.374-.07c-.14 0-.274.023-.393.071a.92.92 0 0 0-.303.195.921.921 0 0 0-.194.3 1.05 1.05 0 0 0-.07.39c0 .132.023.257.07.372zM8.5 1.2a7.3 7.3 0 1 1 0 14.6 7.3 7.3 0 0 1 0-14.6zm.006 3.34c-.316 0-.615.05-.892.147-.28.097-.529.242-.74.428a2.1 2.1 0 0 0-.51.673c-.125.263-.19.56-.19.882 0 .435.117.812.347 1.12.135.183.296.335.481.454a1.943 1.943 0 0 0-.96 1.11c-.078.22-.117.461-.117.716 0 .363.071.692.21.978.138.283.33.528.567.726.235.195.514.347.826.45.31.104.64.156.978.156s.665-.053.973-.155c.31-.105.584-.256.819-.452.24-.198.43-.443.567-.726.14-.286.21-.615.21-.977 0-.25-.039-.488-.116-.707a2.026 2.026 0 0 0-.95-1.123c.182-.12.34-.275.474-.465.227-.32.342-.698.342-1.125 0-.322-.063-.619-.19-.881a2.02 2.02 0 0 0-.504-.665 2.259 2.259 0 0 0-.74-.418 2.699 2.699 0 0 0-.885-.146z"/><path fill="none" d="M0 0h16v16H0z"/></svg>