<svg xmlns="http://www.w3.org/2000/svg" viewBox="0 0 16 16"><path d="M16 8V3H7V1H1v8.06c.349.115.566.682 1.187.94 1.147.476 2.178-.76 2.513-1 .604-.433.953 1.713 1.55 1.67 1.355-.097 1.677.136 1.72.578a1.694 1.694 0 0 0 1.352 1.6 1.72 1.72 0 0 1 1.257.734c.288.372 1.921.085 2.155 1.262a1.5 1.5 0 0 0 1.263 1.135A2.4 2.4 0 0 0 15 15.907c.01-.01 0-5.907 0-5.907h-1V8zM4.86 7.942a1.27 1.27 0 0 0-.743.245 4 4 0 0 0-.313.264c-.255.23-.729.657-1.081.657a.4.4 0 0 1-.154-.032 1.2 1.2 0 0 1-.401-.34Q2.09 8.65 2 8.559V2h4v2h3v2H6v2.604a1.38 1.38 0 0 0-1.14-.662M14 14.945a.41.41 0 0 1-.286-.297 2.46 2.46 0 0 0-2.278-1.81l-.183-.034a2.75 2.75 0 0 0-1.743-.939c-.131-.025-.485-.094-.545-.715C8.9 10.497 8.493 9.73 7 9.661V7h4v4h3zM13 7v3h-1V6h-2V4h5v3z"/><path fill="none" d="M0 0h16v16H0z"/></svg>