<svg xmlns="http://www.w3.org/2000/svg" viewBox="0 0 24 24"><path d="M12.5 2.2a10.3 10.3 0 1 0 10.3 10.3A10.3 10.3 0 0 0 12.5 2.2m0 19.6a9.3 9.3 0 1 1 9.3-9.3 9.31 9.31 0 0 1-9.3 9.3m1.302-10.05a2.56 2.56 0 0 1 1.344.938 2.74 2.74 0 0 1 .532 1.708 2.64 2.64 0 0 1-.26 1.183 2.8 2.8 0 0 1-.692.896 3.1 3.1 0 0 1-1.015.574 3.7 3.7 0 0 1-2.422 0 3.1 3.1 0 0 1-1.015-.574 2.8 2.8 0 0 1-.693-.896 2.6 2.6 0 0 1-.26-1.183 3 3 0 0 1 .141-.931 2.7 2.7 0 0 1 .392-.77 2.5 2.5 0 0 1 .595-.581 2.7 2.7 0 0 1 .749-.364v-.028a2 2 0 0 1-.609-.329 2.2 2.2 0 0 1-.47-.518 2.6 2.6 0 0 1-.307-.658 2.4 2.4 0 0 1-.112-.735 2.6 2.6 0 0 1 .224-1.092 2.5 2.5 0 0 1 .609-.833 2.8 2.8 0 0 1 .89-.532 3.15 3.15 0 0 1 2.148 0 2.8 2.8 0 0 1 .896.532 2.5 2.5 0 0 1 .609.833 2.6 2.6 0 0 1 .224 1.092 2.5 2.5 0 0 1-.112.735 2.7 2.7 0 0 1-.308.658 2.2 2.2 0 0 1-.47.518 2 2 0 0 1-.608.33zm-3.472 2.534a2.3 2.3 0 0 0 .154.84 1.9 1.9 0 0 0 .441.672 2.1 2.1 0 0 0 .686.44 2.53 2.53 0 0 0 1.778 0 2.1 2.1 0 0 0 .686-.44 1.9 1.9 0 0 0 .441-.672 2.3 2.3 0 0 0 .154-.84 2.2 2.2 0 0 0-.154-.826 1.9 1.9 0 0 0-.441-.658 2 2 0 0 0-.686-.434 2.64 2.64 0 0 0-1.778 0 2 2 0 0 0-.686.434 1.9 1.9 0 0 0-.441.658 2.2 2.2 0 0 0-.154.826m.35-4.746a1.8 1.8 0 0 0 .14.714 1.7 1.7 0 0 0 .392.56 1.884 1.884 0 0 0 2.576 0 1.7 1.7 0 0 0 .392-.56 1.8 1.8 0 0 0 .14-.714 1.9 1.9 0 0 0-.14-.735 1.8 1.8 0 0 0-.385-.588 1.88 1.88 0 0 0-2.016-.385 1.8 1.8 0 0 0-.574.385 1.8 1.8 0 0 0-.385.588 1.9 1.9 0 0 0-.14.735"/><path fill="none" d="M0 0h24v24H0z"/></svg>