<svg xmlns="http://www.w3.org/2000/svg" viewBox="0 0 32 32"><path d="M16.5 3.2a13.3 13.3 0 1 0 13.3 13.3A13.3 13.3 0 0 0 16.5 3.2m0 25.6a12.3 12.3 0 1 1 12.3-12.3 12.314 12.314 0 0 1-12.3 12.3m0-5.8a3.853 3.853 0 0 1-4-3.676h1a2.855 2.855 0 0 0 3 2.676 2.855 2.855 0 0 0 3-2.676 2.785 2.785 0 0 0-3-2.585v-1c1.49 0 3-.769 3-2.239a2.79 2.79 0 0 0-3-2.5 2.79 2.79 0 0 0-3 2.5h-1a3.78 3.78 0 0 1 4-3.5 3.78 3.78 0 0 1 4 3.5 3.07 3.07 0 0 1-1.857 2.78 3.48 3.48 0 0 1 1.857 3.044 3.853 3.853 0 0 1-4 3.676"/><path fill="none" d="M0 0h32v32H0z"/></svg>