<svg id="icons" xmlns="http://www.w3.org/2000/svg" viewBox="0 0 24 24"><path d="M14.552 9.134c.098.256.148.532.148.824 0 .293-.048.57-.14.82a1.78 1.78 0 0 1-1.03 1.067c-.25.101-.532.153-.842.153s-.593-.052-.842-.154c-.247-.1-.46-.241-.63-.422a1.86 1.86 0 0 1-.399-.645 2.325 2.325 0 0 1-.14-.819c0-.292.049-.568.147-.824a1.91 1.91 0 0 1 .41-.654c.181-.182.389-.324.638-.431.244-.106.519-.16.816-.16.302 0 .569.052.817.16.246.106.46.252.636.431.175.181.314.4.411.654zM22.8 12.5c0 5.692-4.61 10.3-10.3 10.3S2.2 18.192 2.2 12.5c0-5.69 4.61-10.3 10.3-10.3s10.3 4.61 10.3 10.3zm-6.692-2.542c0-.481-.085-.934-.253-1.343a2.994 2.994 0 0 0-.72-1.057 3.42 3.42 0 0 0-1.086-.678 3.717 3.717 0 0 0-1.361-.244c-.488 0-.946.082-1.361.244a3.41 3.41 0 0 0-1.085.678c-.31.289-.552.644-.72 1.057-.168.408-.254.86-.254 1.343 0 .47.083.912.246 1.314.163.402.393.75.682 1.034a3.11 3.11 0 0 0 1.024.666c.39.158.818.238 1.272.238a3.555 3.555 0 0 0 .945-.133L10.78 17.2h1.64l2.763-4.45c.246-.41.462-.843.644-1.29.186-.461.28-.967.28-1.502z"/><path fill="none" d="M0 0h24v24H0z"/></svg>