<svg xmlns="http://www.w3.org/2000/svg" viewBox="0 0 24 24"><path d="M12.5 2.2a10.3 10.3 0 1 0 10.3 10.3A10.3 10.3 0 0 0 12.5 2.2m0 19.6a9.3 9.3 0 1 1 9.3-9.3 9.31 9.31 0 0 1-9.3 9.3m-1.22-10.544.028.028a1.8 1.8 0 0 1 .63-.262 3.4 3.4 0 0 1 .784-.096 3.2 3.2 0 0 1 1.198.22 2.9 2.9 0 0 1 .959.613 2.8 2.8 0 0 1 .636.95 3.2 3.2 0 0 1 .232 1.22 3.2 3.2 0 0 1-.239 1.253 2.7 2.7 0 0 1-.671.964 3.2 3.2 0 0 1-1.023.627 3.76 3.76 0 0 1-2.575 0 3.2 3.2 0 0 1-1.023-.627 2.7 2.7 0 0 1-.671-.964 3.2 3.2 0 0 1-.239-1.254 3.7 3.7 0 0 1 .267-1.404 8.5 8.5 0 0 1 .63-1.24L12.905 7h1.161zm-.966 2.672a2.4 2.4 0 0 0 .161.89 2.1 2.1 0 0 0 .455.701 2.2 2.2 0 0 0 .7.469 2.42 2.42 0 0 0 1.792 0 2.2 2.2 0 0 0 .7-.469 2.1 2.1 0 0 0 .456-.702 2.4 2.4 0 0 0 .16-.889 2.5 2.5 0 0 0-.153-.874 2 2 0 0 0-.442-.703 2 2 0 0 0-.7-.461 2.63 2.63 0 0 0-1.834 0 2 2 0 0 0-.7.461 2 2 0 0 0-.44.703 2.5 2.5 0 0 0-.155.874"/><path fill="none" d="M0 0h24v24H0z"/></svg>