<svg xmlns="http://www.w3.org/2000/svg" viewBox="0 0 16 16"><path d="M8.5 1.2a7.3 7.3 0 1 0 7.3 7.3 7.3 7.3 0 0 0-7.3-7.3m0 13.6a6.3 6.3 0 1 1 6.3-6.3 6.307 6.307 0 0 1-6.3 6.3m1.035-6.53a1.7 1.7 0 0 1 .526.235 1.8 1.8 0 0 1 .71.925 1.9 1.9 0 0 1 .104.64 2 2 0 0 1-.19.89 2 2 0 0 1-.515.66 2.3 2.3 0 0 1-.755.415 2.8 2.8 0 0 1-.91.145 2.9 2.9 0 0 1-.914-.145 2.3 2.3 0 0 1-.76-.415 2 2 0 0 1-.516-.66 2 2 0 0 1-.19-.89 2 2 0 0 1 .105-.65 1.75 1.75 0 0 1 .72-.915 2 2 0 0 1 .516-.235v-.02a1.61 1.61 0 0 1-1.091-1.58 1.8 1.8 0 0 1 .17-.795 1.9 1.9 0 0 1 .46-.61 2 2 0 0 1 .676-.39 2.58 2.58 0 0 1 1.644 0 2 2 0 0 1 .675.38 1.8 1.8 0 0 1 .625 1.395 1.7 1.7 0 0 1-.305 1.01 1.54 1.54 0 0 1-.785.59zm-2.42 1.75a1.5 1.5 0 0 0 .1.55 1.2 1.2 0 0 0 .285.425 1.4 1.4 0 0 0 .44.275 1.5 1.5 0 0 0 .566.1 1.5 1.5 0 0 0 .555-.1 1.3 1.3 0 0 0 .434-.275 1.3 1.3 0 0 0 .285-.425 1.4 1.4 0 0 0 .106-.55 1.34 1.34 0 0 0-.39-.96 1.3 1.3 0 0 0-.435-.28 1.6 1.6 0 0 0-1.11 0 1.3 1.3 0 0 0-.44.28 1.3 1.3 0 0 0-.29.425 1.3 1.3 0 0 0-.106.535m.23-3.315a1.2 1.2 0 0 0 .086.448 1.1 1.1 0 0 0 .239.364 1.1 1.1 0 0 0 .37.243 1.2 1.2 0 0 0 .466.09 1.1 1.1 0 0 0 .449-.09 1.2 1.2 0 0 0 .37-.243 1.12 1.12 0 0 0 .34-.812 1.1 1.1 0 0 0-.095-.463 1.2 1.2 0 0 0-.25-.368 1.1 1.1 0 0 0-.365-.24 1.2 1.2 0 0 0-.45-.084 1.3 1.3 0 0 0-.465.085 1.05 1.05 0 0 0-.61.607 1.2 1.2 0 0 0-.084.463z"/><path fill="none" d="M0 0h16v16H0z"/></svg>