<svg xmlns="http://www.w3.org/2000/svg" viewBox="0 0 32 32"><path d="M31 15V5H13V1H1v16.122c.697.229 1.132 1.363 2.373 1.878 2.295.952 4.356-1.52 5.027-2 1.207-.865 1.907 3.425 3.1 3.34 2.71-.193 3.354.272 3.44 1.156a3.39 3.39 0 0 0 2.703 3.198 3.43 3.43 0 0 1 2.514 1.47c.577.743 3.844.171 4.31 2.524a3 3 0 0 0 2.527 2.27A4.8 4.8 0 0 0 29 30.814C29.022 30.792 29 19 29 19h-2v-4zM8 11v5.093a1.3 1.3 0 0 0-.183.094 7 7 0 0 0-.539.457c-.652.587-1.743 1.572-2.833 1.572a1.8 1.8 0 0 1-.69-.14 3.3 3.3 0 0 1-1.154-.927A6 6 0 0 0 2 16.558V2h10v4h6v5zm20 9v9.99s-.706.007-.803-.012a2.045 2.045 0 0 1-1.749-1.485c-.436-2.2-2.52-2.598-3.766-2.837a7 7 0 0 1-.784-.178 4.42 4.42 0 0 0-3.064-1.765 2.394 2.394 0 0 1-1.9-2.315c-.204-2.101-2.485-2.101-3.343-2.101q-.434 0-.969.032a8 8 0 0 1-.67-1.193c-.5-1.008-1.018-2.038-1.952-2.215V12h12v8zm-2-6v5h-4v-8h-3V6h11v8z"/><path fill="none" d="M0 0h32v32H0z"/></svg>