<svg xmlns="http://www.w3.org/2000/svg" viewBox="0 0 16 16"><path d="M8.5 1.2a7.3 7.3 0 1 0 7.3 7.3 7.3 7.3 0 0 0-7.3-7.3m0 13.6a6.3 6.3 0 1 1 6.3-6.3 6.307 6.307 0 0 1-6.3 6.3m-.655-7.052.01.02a1.3 1.3 0 0 1 .4-.136 2.6 2.6 0 0 1 .48-.048 2.3 2.3 0 0 1 .866.16 2.2 2.2 0 0 1 .704.443 2 2 0 0 1 .47.68 2.15 2.15 0 0 1 .17.857 2.3 2.3 0 0 1-.185.931 2.1 2.1 0 0 1-.515.718 2.3 2.3 0 0 1-.775.463 2.92 2.92 0 0 1-1.945-.005 2.4 2.4 0 0 1-.775-.467 2.1 2.1 0 0 1-.51-.714 2.2 2.2 0 0 1-.185-.897 2.6 2.6 0 0 1 .19-1.012 6 6 0 0 1 .5-.926L8.595 5h1.15zm-.8 2.02a1.5 1.5 0 0 0 .104.566 1.3 1.3 0 0 0 .298.46 1.47 1.47 0 0 0 1.058.425 1.6 1.6 0 0 0 .59-.106 1.3 1.3 0 0 0 .458-.306 1.4 1.4 0 0 0 .298-.464 1.6 1.6 0 0 0 .104-.585 1.5 1.5 0 0 0-.104-.57 1.4 1.4 0 0 0-.289-.455 1.24 1.24 0 0 0-.45-.3 1.6 1.6 0 0 0-.597-.107 1.6 1.6 0 0 0-.601.107 1.32 1.32 0 0 0-.765.755 1.6 1.6 0 0 0-.104.58"/><path fill="none" d="M0 0h16v16H0z"/></svg>