<svg xmlns="http://www.w3.org/2000/svg" viewBox="0 0 32 32"><path d="M16.5 3.2C9.154 3.2 3.2 9.154 3.2 16.5s5.954 13.3 13.3 13.3 13.3-5.954 13.3-13.3S23.846 3.2 16.5 3.2zm4.08 17.536c-.22.51-.534.951-.934 1.316-.397.364-.873.65-1.414.848-.539.2-1.137.3-1.779.3s-1.24-.1-1.78-.3a4.157 4.157 0 0 1-1.405-.85 3.86 3.86 0 0 1-.922-1.314 4.238 4.238 0 0 1-.33-1.686c0-.632.11-1.24.327-1.804.213-.556.51-1.133.882-1.715l3.69-5.731h1.735l-3.634 5.481a4.442 4.442 0 0 1 1.665-.328c.592 0 1.154.102 1.669.3.515.2.97.487 1.348.851.378.363.678.798.89 1.295s.321 1.052.321 1.65c0 .612-.111 1.18-.33 1.687zm-1.367-2.824c.141.353.213.735.213 1.138 0 .414-.074.802-.222 1.152-.148.353-.354.66-.611.913a2.79 2.79 0 0 1-.932.604 3.228 3.228 0 0 1-1.208.219 3.22 3.22 0 0 1-1.208-.22 2.8 2.8 0 0 1-.932-.603 2.763 2.763 0 0 1-.61-.913 2.955 2.955 0 0 1-.223-1.152c0-.403.075-.784.222-1.135.147-.35.353-.657.611-.913s.575-.459.94-.604a3.36 3.36 0 0 1 1.238-.218c.44 0 .846.073 1.208.218.359.144.668.347.92.602s.452.562.594.912z"/><path fill="none" d="M0 0h32v32H0z"/></svg>