<svg xmlns="http://www.w3.org/2000/svg" viewBox="0 0 16 16"><path d="M8.5 15.8a7.3 7.3 0 1 0 0-14.6 7.3 7.3 0 0 0 0 14.6M6.061 6.057q.205-.478.563-.813c.237-.223.522-.4.845-.521s.673-.183 1.042-.183.72.064 1.042.189.606.302.841.527q.354.34.555.806c.201.466.201.649.201 1.008a3 3 0 0 1-.204 1.124c-.132.326-.301.66-.505.99L8.53 12.2H6.897l1.807-2.719a2.6 2.6 0 0 1-.433.04 2.5 2.5 0 0 1-.948-.182 2.4 2.4 0 0 1-.763-.501 2.3 2.3 0 0 1-.514-.772A2.5 2.5 0 0 1 5.86 7.1q0-.572.201-1.043m1.227 1.529a1.4 1.4 0 0 1-.092-.516c0-.2.03-.376.094-.539q.091-.24.26-.409a1.2 1.2 0 0 1 .41-.272q.237-.1.536-.1c.195 0 .375.034.532.104a1.24 1.24 0 0 1 .674.693q.093.243.093.514 0 .29-.092.525a1.18 1.18 0 0 1-.674.668 1.5 1.5 0 0 1-.544.096 1.4 1.4 0 0 1-.54-.096 1.1 1.1 0 0 1-.398-.263 1.2 1.2 0 0 1-.259-.405"/><path fill="none" d="M0 0h16v16H0z"/></svg>