<svg xmlns="http://www.w3.org/2000/svg" viewBox="0 0 24 24"><path d="M12.5 2.2a10.3 10.3 0 1 0 10.3 10.3A10.3 10.3 0 0 0 12.5 2.2m0 19.6a9.3 9.3 0 1 1 9.3-9.3 9.31 9.31 0 0 1-9.3 9.3m1.434-9.126-.028-.028a1.7 1.7 0 0 1-.63.266 3.3 3.3 0 0 1-.784.098 3.2 3.2 0 0 1-1.197-.224 2.9 2.9 0 0 1-.959-.623 2.8 2.8 0 0 1-.637-.966 3.3 3.3 0 0 1-.23-1.239 3.3 3.3 0 0 1 .238-1.267 2.75 2.75 0 0 1 .671-.987 3.2 3.2 0 0 1 1.022-.637 3.7 3.7 0 0 1 2.576 0A3.2 3.2 0 0 1 15 7.704a2.8 2.8 0 0 1 .671.987 3.3 3.3 0 0 1 .238 1.267 3.8 3.8 0 0 1-.266 1.428 9 9 0 0 1-.63 1.26L12.31 17h-1.162zm.966-2.716a2.5 2.5 0 0 0-.161-.896 2.1 2.1 0 0 0-.455-.721 2.2 2.2 0 0 0-.7-.476 2.38 2.38 0 0 0-1.792 0 2.2 2.2 0 0 0-.7.476 2.1 2.1 0 0 0-.455.721 2.5 2.5 0 0 0-.16.896 2.5 2.5 0 0 0 .153.89 2.1 2.1 0 0 0 .44.713 2 2 0 0 0 .701.469 2.58 2.58 0 0 0 1.834 0 2 2 0 0 0 .7-.469 2.1 2.1 0 0 0 .442-.714 2.5 2.5 0 0 0 .153-.889"/><path fill="none" d="M0 0h24v24H0z"/></svg>