<svg xmlns="http://www.w3.org/2000/svg" viewBox="0 0 24 24"><path d="M12.5 2.2C6.81 2.2 2.2 6.81 2.2 12.5c0 5.692 4.61 10.3 10.3 10.3s10.3-4.608 10.3-10.3c0-5.69-4.61-10.3-10.3-10.3zm3.45 11.917c0 1.7-1.548 3.083-3.45 3.083s-3.45-1.383-3.45-3.083v-.2h1.4v.2c0 .928.92 1.683 2.05 1.683s2.05-.755 2.05-1.683c0-.883-.882-1.548-2.05-1.548h-.2v-1.4h.2c1.168 0 2.05-.61 2.05-1.419 0-.854-.92-1.55-2.05-1.55s-2.05.696-2.05 1.55v.2h-1.4v-.2c0-1.627 1.548-2.95 3.45-2.95s3.45 1.323 3.45 2.95c0 .849-.415 1.612-1.15 2.135.735.549 1.15 1.346 1.15 2.232z"/><path fill="none" d="M0 0h24v24H0z"/></svg>