<svg xmlns="http://www.w3.org/2000/svg" viewBox="0 0 24 24"><path d="M12.5 2.2C6.81 2.2 2.2 6.81 2.2 12.5c0 5.692 4.61 10.3 10.3 10.3s10.3-4.608 10.3-10.3c0-5.69-4.61-10.3-10.3-10.3m3.097 13.468a3 3 0 0 1-.74.959 3.3 3.3 0 0 1-1.08.61c-.408.143-.838.215-1.277.215s-.87-.072-1.276-.215a3.3 3.3 0 0 1-1.08-.611 2.85 2.85 0 0 1-1.021-2.23c0-.355.05-.69.15-.994.096-.3.238-.578.42-.825a2.8 2.8 0 0 1 1.028-.853 2.35 2.35 0 0 1-.77-.74 3 3 0 0 1-.33-.708 2.6 2.6 0 0 1-.122-.794c0-.425.082-.82.243-1.174.16-.352.381-.655.658-.9q.413-.369.953-.57c.353-.134.74-.202 1.147-.202.397 0 .781.068 1.14.202.362.132.685.324.96.57a2.72 2.72 0 0 1 .9 2.074q0 .402-.121.794a3 3 0 0 1-.33.707 2.36 2.36 0 0 1-.764.738q.595.286 1.02.845c.38.501.573 1.118.573 1.83 0 .468-.095.896-.281 1.272m-1.266-2.134c.092.225.139.478.139.75q0 .413-.14.768-.137.348-.395.6a1.9 1.9 0 0 1-.622.399q-.365.146-.813.147c-.448.001-.571-.05-.814-.147a1.9 1.9 0 0 1-.62-.399 1.7 1.7 0 0 1-.396-.602 2.1 2.1 0 0 1-.14-.766c0-.272.047-.525.14-.75q.136-.337.396-.592.252-.248.618-.39c.366-.142.516-.14.816-.14s.574.047.816.14a1.73 1.73 0 0 1 1.015.982m-3.327-3.362a1.6 1.6 0 0 1-.124-.634q0-.353.125-.66c.085-.206.197-.377.342-.523A1.6 1.6 0 0 1 12.5 7.89c.233 0 .45.042.642.124a1.56 1.56 0 0 1 .854.865q.123.306.124.66a1.5 1.5 0 0 1-.47 1.129c-.148.139-.323.25-.517.33-.196.078-.41.118-.633.118s-.437-.04-.63-.117a1.7 1.7 0 0 1-.52-.333 1.45 1.45 0 0 1-.346-.494"/><path fill="none" d="M0 0h24v24H0z"/></svg>