<svg xmlns="http://www.w3.org/2000/svg" viewBox="0 0 24 24"><path d="M14.397 13.124c.094.249.142.52.142.805 0 .292-.05.566-.146.814a1.9 1.9 0 0 1-.412.636 2 2 0 0 1-1.455.581 2.1 2.1 0 0 1-.817-.155 2 2 0 0 1-.637-.426 1.9 1.9 0 0 1-.41-.635 2.2 2.2 0 0 1-.147-.815c0-.285.047-.556.14-.804a1.77 1.77 0 0 1 1.028-1.05c.25-.1.534-.15.843-.15s.593.05.843.15a1.78 1.78 0 0 1 1.028 1.049M22.8 12.5c0 5.692-4.61 10.3-10.3 10.3S2.2 18.192 2.2 12.5c0-5.69 4.61-10.3 10.3-10.3s10.3 4.61 10.3 10.3m-6.853 1.429c0-.466-.083-.902-.247-1.295a3 3 0 0 0-.682-1.019 3.1 3.1 0 0 0-1.024-.655 3.4 3.4 0 0 0-1.271-.234 3.6 3.6 0 0 0-.94.13L14.436 6.8h-1.642l-2.762 4.38a8.6 8.6 0 0 0-.644 1.267 3.9 3.9 0 0 0-.283 1.482c0 .484.086.932.254 1.33.168.401.411.749.721 1.034.307.282.672.506 1.086.666s.871.241 1.36.241.946-.08 1.36-.241.779-.384 1.086-.666c.307-.284.55-.632.72-1.034.168-.4.254-.848.254-1.33z"/><path fill="none" d="M0 0h24v24H0z"/></svg>