<svg xmlns="http://www.w3.org/2000/svg" viewBox="0 0 16 16"><path fill="none" d="M0 0h16v16H0z"/><path d="M14 10.383v-2.43l-2.493-1.415L9 7.952v2.438l-2 1.134v2.74l2.518 1.453 1.989-1.149 1.99 1.149L16 14.264v-2.74zm-5 4.111-1-.577V12.59l1 .578zm-.805-2.716 1.322-.762 1.323.762-1.322.764zM11 13.938l-1 .577v-1.328l1-.577zm0-2.991-.288-.166L10 10.37V9.042l1 .577zm-.815-2.722 1.322-.763 1.322.763-1.322.763zM13 9.05v1.328l-.699.403-.301.173V9.627zm0 5.457-1-.577v-1.328l1 .577zm-.826-2.729 1.322-.762 1.322.762-1.322.764zM15 13.924l-1 .578v-1.327l1-.578zM6.5 7.98c.436 0 .85-.016 1.252-.041.003-.263.097-.497.248-.701V7c-.46.042-.946.063-1.5.063-3.839 0-5.5-1.077-5.5-1.584V3.906C2.101 4.578 4.045 5 6.5 5s4.399-.422 5.5-1.094v1.495c.044.02.09.03.132.055l.868.501V2.48C13 .984 10.388 0 6.5 0S0 .984 0 2.48v8c0 1.43 2.392 2.408 6 2.491v-.917c-3.467-.093-5-1.091-5-1.575V6.906c1.101.672 3.045 1.073 5.5 1.073zm0-7.054c3.839 0 5.5 1.048 5.5 1.555s-1.661 1.583-5.5 1.583S1 2.986 1 2.479 2.661.925 6.5.925z"/></svg>