<svg xmlns="http://www.w3.org/2000/svg" viewBox="0 0 32 32"><path stroke-width="0" fill="none" d="M0 0h32v32H0z"/><path d="M27 20.958v-4.805l-4.5-2.596-4.5 2.596v4.805l-4 2.309v5.398l4 2.308V31h.046l.454.262.454-.262H19v-.027l3.5-2.02 3.5 2.02V31h.046l.454.262.454-.262H27v-.027l4-2.308v-5.398l-4-2.31zm-.5 4.639l-3.253-1.879 3.268-1.886 3.253 1.878-3.268 1.887zm-.5-4.64l-3 1.732V19.35l3-1.732v3.34zm-3.5-6.246l3.268 1.887-3.268 1.886-3.268-1.886L22.5 14.71zM22 19.35v3.34l-3-1.732v-3.34l3 1.732zm-3.515 2.482l3.268 1.886-3.253 1.879-3.268-1.887 3.253-1.878zM15 28.087V24.73l3 1.731v3.357l-3-1.732zm4-1.625l3-1.731v3.356l-3 1.732v-3.357zm4 1.625V24.73l3 1.731v3.357l-3-1.732zm7 0l-3 1.732v-3.357l3-1.731v3.356zm-3.548-13.405l1.048.606a.996.996 0 0 1 .48.712H28V7c0-2.533-6.44-4-12.5-4S3.009 4.467 3.009 7L3 23.49c0 2.43 4.794 3.968 10 4.345v-.848c-5.41-.415-9-2.12-9-3.498v-7.986c2.034 1.58 6.873 2.44 11.5 2.44.499 0 1-.012 1.5-.032v-.875c-.487.02-.984.033-1.5.033-7.125 0-11.5-1.95-11.5-3.244V8.596C6.034 10.101 10.873 11 15.5 11s9.466-.9 11.5-2.404v5.23c0 .265-.194.558-.548.856zm-10.952-4.6C8.375 10.081 4 8.21 4 7s4.375-3.081 11.5-3.081S27 5.789 27 7s-4.375 3.081-11.5 3.081z" stroke-width="0"/></svg>