<svg xmlns="http://www.w3.org/2000/svg" viewBox="0 0 32 32"><path fill="#231f20" d="m26.354 6.354-20 20-.708-.708 20-20zm-19.3 22.764-.354.354-.353-.354-.707.707 1.06 1.06 1.06-1.06zM5.19 27.963l-1.155-1.154-.707.707 1.155 1.154zm-3.016-3.724-1.06 1.06 1.06 1.061.707-.707-.354-.353.354-.354zm9.532-8.118L11 15.414l-1.47 1.47.706.708 1.471-1.47zm2.942-2.942-.707-.707-1.47 1.47.707.707zm-8.826 8.826-.707-.707-1.47 1.47.707.708zm11.769-11.769-.707-.707-1.472 1.472.707.707zm-8.826 8.826-.707-.707-1.471 1.471.707.707 1.47-1.47zm14.71-14.71-.707-.706-1.472 1.471.707.707 1.472-1.471zm-2.943 2.943-.707-.707-1.47 1.47.706.708zM25.3 2.528l.353.354.707-.707-1.06-1.06-1.06 1.06.706.707zm1.509 1.51 1.155 1.153.707-.707-1.155-1.154zm3.016 1.602-.707.707.354.353-.354.354.707.707 1.06-1.06zM14.408 21.764l.707.707 1.472-1.472-.707-.707zM26.177 9.995l.707.707 1.47-1.47-.707-.708zm-4.413 4.413-1.471 1.47.707.708 1.47-1.47zM11.467 24.705l.707.707 1.47-1.47-.707-.708zm-2.943 2.942.707.707 1.472-1.471-.707-.707zm16.181-16.18-1.47 1.47.706.708 1.471-1.471zm-7.354 7.354.707.707 1.47-1.47-.707-.707z"/><path fill="none" d="M0 0h32v32H0z"/></svg>