<?xml version="1.0" encoding="UTF-8"?><svg id="icons" xmlns="http://www.w3.org/2000/svg" viewBox="0 0 32 32"><defs><style>.cls-1{fill:none;}.cls-2{fill:#231f20;}</style></defs><rect class="cls-1" width="32" height="32"/><path class="cls-2" d="M6.35352,29.85352c-.93457,0-1.81348-.36426-2.47461-1.02539l-.31348-.31348.70703-.70703.31348.31348c.47266.47266,1.09961.73242,1.76758.73242l.03125,1h-.03125ZM25.64648,5.64648L5.64648,25.64648l.70703.70703L26.35352,6.35352l-.70703-.70703ZM8.82812,28.82812c-.0791.0791-.16211.1543-.24805.22559l-.63867-.76953c.0625-.05176.12207-.10547.17969-.16309l1.77539-1.77539.70703.70703-1.77539,1.77539ZM22.11426,5.64355l-.70703-.70703,1.76465-1.76465c.08496-.08496.17383-.16602.26758-.24023l.625.7793c-.06445.05273-.12598.1084-.18555.16797l-1.76465,1.76465ZM29.85352,6.35254c0,.75586-.2373,1.47461-.68457,2.08105l-.80469-.5957c.32031-.43164.48926-.94531.48926-1.48535,0-.24707-.03711-.49414-.10938-.73242l.95703-.29102c.10059.33301.15234.67773.15234,1.02344ZM26.99805,9.24414l.70703.70703-1.98047,1.98047-.70703-.70703,1.98047-1.98047ZM28.42383,3.47461l-.70703.70703-.30273-.30273c-.47266-.47266-1.09961-.73242-1.76758-.73242l-.01562-1h.01562c.93457,0,1.81348.36426,2.47461,1.02539l.30273.30273ZM3.14648,25.64746c.00098.24414.03613.4873.10645.7207l-.95898.28613c-.09668-.3252-.14648-.66309-.14746-1.00488,0-.76367.24023-1.48828.69531-2.09668l.80078.59766c-.32422.43555-.49609.95312-.49609,1.49707ZM8.43359,19.32422l-.70703-.70703,1.97949-1.97949.70703.70703-1.97949,1.97949ZM16.7373,19.50488l.70703.70703-1.98047,1.98047-.70703-.70703,1.98047-1.98047ZM11.85352,15.9043l-.70703-.70703,1.98047-1.98047.70703.70703-1.98047,1.98047ZM18.69434,9.06348l-.70703-.70703,1.97949-1.97949.70703.70703-1.97949,1.97949ZM15.27344,12.48438l-.70703-.70703,1.98047-1.98047.70703.70703-1.98047,1.98047ZM24.28418,13.37207l-1.97949,1.97949-.70703-.70703,1.97949-1.97949.70703.70703ZM14.02441,23.63184l-1.98047,1.98047-.70703-.70703,1.98047-1.98047.70703.70703ZM20.15723,16.08496l.70703.70703-1.97949,1.97949-.70703-.70703,1.97949-1.97949ZM5.01367,22.74414l-.70703-.70703,1.97949-1.97949.70703.70703-1.97949,1.97949Z"/></svg>