<svg xmlns="http://www.w3.org/2000/svg" viewBox="0 0 24 24"><path fill="none" d="M0 0h24v24H0z"/><path d="M4.854 19.854l-.708-.708 15-15 .708.708-15 15zm1.452 1.518l.74.674 1.88-1.88-.707-.707-1.913 1.913zm6.607-6.607l.707.707 1.913-1.913-.707-.707-1.913 1.913zM9.61 18.068l.707.707 1.913-1.913-.707-.707-1.913 1.913zm-5.38-1.974l1.912-1.912-.707-.707-1.913 1.912.708.707zm11.988-4.633l.707.707 1.913-1.913-.707-.707-1.913 1.913zm3.304-3.304l.707.707 1.818-1.818.108-.113-.738-.674-1.895 1.898zm2.015-6.006l-.707.707.51.51c.385.386.602.897.614 1.439l1-.022a3.084 3.084 0 0 0-.907-2.124l-.51-.51zM3.368 21.34l-.468-.47-.707.707.47.469a3.083 3.083 0 0 0 2.192.907h.028l-.028-1c-.561 0-1.09-.219-1.486-.614zm4.164-8.549l1.912-1.912-.707-.707-1.912 1.912.707.707zm10.13-10.129a2.084 2.084 0 0 1 1.768-.595l.14-.99a3.099 3.099 0 0 0-2.616.878l-.218.218.707.707.218-.218zm-15 15l.175-.176-.707-.707-.176.176a3.072 3.072 0 0 0-.908 2.189c-.001.165.012.33.037.493l.988-.157a2.087 2.087 0 0 1 .59-1.818zm8.174-8.175l1.912-1.912-.707-.707-1.912 1.912.707.707zm3.304-3.303l1.913-1.913-.707-.708-1.913 1.914.707.707z" fill="#231f20"/></svg>