<?xml version="1.0" encoding="UTF-8"?><svg id="icons" xmlns="http://www.w3.org/2000/svg" viewBox="0 0 24 24"><defs><style>.cls-1{fill:none;}.cls-2{fill:#231f20;}</style></defs><path class="cls-2" d="M5.55273,22.125l.70703.70703-1.06055,1.06055-1.06055-1.06055.70703-.70703.35352.35352.35352-.35352ZM2.15918,20.85059l.99023.99023.70703-.70703-.99023-.99023-.70703.70703ZM1.16992,17.73828l-1.06055,1.06055,1.06055,1.06152.70703-.70703-.35352-.35449.35352-.35352-.70703-.70703ZM16.94043,3.38184l-.70703-.70703-1.50586,1.50586.70703.70703,1.50586-1.50586ZM4.88965,15.43262l-.70703-.70703-1.50684,1.50684.70703.70703,1.50684-1.50684ZM13.92773,6.39453l-.70703-.70703-1.50684,1.50684.70703.70703,1.50684-1.50684ZM10.91504,9.40723l-.70703-.70703-1.50684,1.50684.70703.70703,1.50684-1.50684ZM6.39551,13.92676l1.50684-1.50684-.70703-.70703-1.50684,1.50684.70703.70703ZM19.86133,1.16797l-1.06055-1.06055-1.06055,1.06055.70703.70703.35352-.35352.35352.35352.70703-.70703ZM20.14355,2.86621l.99023.99023.70703-.70703-.99023-.99023-.70703.70703ZM22.12305,4.84668l.35352.35449-.35352.35352.70703.70703,1.06055-1.06055-1.06055-1.06152-.70703.70703ZM13.08496,14.59277l.70703.70703,1.50684-1.50684-.70703-.70703-1.50684,1.50684ZM16.09766,11.58008l.70703.70703,1.50684-1.50684-.70703-.70703-1.50684,1.50684ZM19.11035,8.56738l.70703.70703,1.50684-1.50684-.70703-.70703-1.50684,1.50684ZM10.07227,17.60547l.70703.70703,1.50684-1.50684-.70703-.70703-1.50684,1.50684ZM7.05957,20.61816l.70703.70703,1.50586-1.50586-.70703-.70703-1.50586,1.50586ZM19.15332,5.55371l-.70703-.70703-13.59961,13.59961.70703.70703,13.59961-13.59961Z"/><rect class="cls-1" width="24" height="24"/></svg>