<svg xmlns="http://www.w3.org/2000/svg" viewBox="0 0 16 16"><path d="M.081 12.61c0-.836.31-1.631.875-2.242l.734.678a2.298 2.298 0 0 0-.582 1.915l-.988.15a3.43 3.43 0 0 1-.039-.5zm9.01-2.449l-1.783 1.78.707.706 1.783-1.779-.707-.707zm1.027-1.025l.707.709 1.783-1.779-.707-.709-1.783 1.779zm5.801-5.742A3.282 3.282 0 0 0 14.756.877l-.649.762c.05.04.096.085.14.129.434.434.672 1.012.671 1.699l1 .033v-.106zM6.986 13.673l-.705-.71-1.276 1.273c-.14.14-.298.261-.466.36l.504.863c.242-.142.467-.314.667-.514l1.276-1.272zm4.13-12.019a2.304 2.304 0 0 1 1.929-.522l.184-.983a3.317 3.317 0 0 0-2.77.75l.656.755zM8.323 4.43l1.783-1.779-.707-.709L7.617 3.72l.707.709zM3.38 15.91h.027l-.027-1a2.289 2.289 0 0 1-1.799-.868l-.787.617a3.276 3.276 0 0 0 2.586 1.25zm1.426-9.386l.707.71 1.783-1.779-.707-.709-1.783 1.778zm9.774-1.927a2.296 2.296 0 0 1-.336.424L12.93 6.333l.705.709 1.316-1.313c.185-.184.347-.39.482-.609l-.852-.523zM1.996 9.326l.707.71 1.783-1.78-.707-.708-1.783 1.778zm1.737 3.637l9.24-9.216-.706-.709-9.24 9.216.706.709z" fill="#231f20"/><path fill="none" d="M0 0h16v16H0z"/></svg>