<?xml version="1.0" encoding="UTF-8"?><svg id="icons" xmlns="http://www.w3.org/2000/svg" viewBox="0 0 16 16"><defs><style>.cls-1{fill:none;}.cls-2{fill:#231f20;}</style></defs><path class="cls-2" d="M11.32422.02051l1.06152,1.06348-.70898.70703-.35059-.35254-.35156.35254-.70898-.70508L11.32422.02051ZM13.23242,1.93359l-.70703.70703.84766.84961.70703-.70703-.84766-.84961ZM14.92773,3.63281l-.70898.70703.35547.35547-.35449.35645.71094.70508,1.05371-1.06348-1.05664-1.06055ZM10.30371,8.99512l-1.30859,1.30762.70508.70898,1.3125-1.31152-.70898-.70508ZM8.38574,12.31836l-.70508-.70898-1.31445,1.30566.70508.70898,1.31445-1.30566ZM12.91504,6.36621l-1.30566,1.31445.70898.70508,1.30566-1.31445-.70898-.70508ZM5.75684,14.93066l-.70508-.71094-.35645.35449-.35547-.35547-.70703.70898,1.06055,1.05664,1.06348-1.05371ZM2.64063,12.52441l-.70703.70703.84961.84766.70703-.70703-.84961-.84766ZM1.08398,12.38574l.70703-.70898-.35254-.35059.35254-.35156-.70508-.70898L.02051,11.32422l1.06348,1.06152ZM7.65137,3.71777l.70898.70508,1.30762-1.31543-.70898-.70508-1.30762,1.31543ZM5.03418,6.34375l.70508.70898,1.31445-1.31348-.70898-.70508-1.31055,1.30957ZM3.10742,9.66699l1.31641-1.30762-.70508-.70898-1.31641,1.30762.70508.70898ZM12.17383,4.54492l-.70703-.70898-7.63086,7.63086.70898.70703,7.62891-7.62891Z"/><rect class="cls-1" width="16" height="16"/></svg>