<?xml version="1.0" encoding="UTF-8"?><svg id="icons" xmlns="http://www.w3.org/2000/svg" viewBox="0 0 24 24"><defs><style>.cls-1{fill:none;}.cls-2{fill:#231f20;}</style></defs><rect class="cls-1" width="24" height="24"/><path class="cls-2" d="M4.85352,19.85352l-.70703-.70703,15-15,.70703.70703-15,15ZM6.30566,21.37207l.74023.67383,1.87988-1.87988-.70703-.70703-1.91309,1.91309ZM12.91309,14.76465l.70703.70703,1.91309-1.91309-.70703-.70703-1.91309,1.91309ZM9.60938,18.06836l.70703.70703,1.91309-1.91309-.70703-.70703-1.91309,1.91309ZM4.22852,16.09375l1.91211-1.91211-.70703-.70703-1.91211,1.91211.70703.70703ZM16.2168,11.46094l.70703.70703,1.91309-1.91309-.70703-.70703-1.91309,1.91309ZM19.52051,8.15723l.70703.70703,1.81836-1.81836.1084-.11328-.73828-.67383-1.89551,1.89844ZM21.53613,2.15137l-.70703.70703.50977.50977c.38477.38574.60254.89648.61426,1.43848l1-.02148c-.0166-.80078-.33887-1.55469-.90723-2.12402l-.50977-.50977ZM3.36816,21.33887l-.46875-.46875-.70703.70703.46875.46875c.58594.58496,1.36426.90723,2.19238.90723h.02832l-.02832-1c-.56055,0-1.08887-.21875-1.48535-.61426ZM7.53223,12.79004l1.91211-1.91211-.70703-.70703-1.91211,1.91211.70703.70703ZM17.66113,2.66113c.46289-.46289,1.11914-.68945,1.76855-.59473l.14062-.99023c-.96387-.13379-1.93066.19336-2.61621.87793l-.21777.21777.70703.70703.21777-.21777ZM2.66113,17.66113l.17578-.17578-.70703-.70703-.17578.17578c-.58594.58398-.9082,1.36328-.9082,2.18848-.00098.16504.01172.33008.03711.49316l.98828-.15625c-.01758-.1084-.02637-.21875-.02539-.33301,0-.56152.21875-1.08887.61523-1.48535ZM10.83594,9.48633l1.91211-1.91211-.70703-.70703-1.91211,1.91211.70703.70703ZM14.13965,6.18262l1.91309-1.91309-.70703-.70703-1.91309,1.91309.70703.70703Z"/></svg>