<?xml version="1.0" encoding="UTF-8"?><svg id="icons" xmlns="http://www.w3.org/2000/svg" viewBox="0 0 32 32"><defs><style>.cls-1{fill:none;}.cls-2{fill:#231f20;}</style></defs><path class="cls-2" d="M26.35352,6.35352L6.35352,26.35352l-.70703-.70703L25.64648,5.64648l.70703.70703ZM7.05371,29.11816l-.35352.35352-.35352-.35352-.70703.70703,1.06055,1.06055,1.06055-1.06055-.70703-.70703ZM5.19141,27.96289l-1.15527-1.1543-.70703.70703,1.15527,1.1543.70703-.70703ZM2.1748,24.23926l-1.06055,1.06055,1.06055,1.06055.70703-.70703-.35352-.35352.35352-.35352-.70703-.70703ZM11.70703,16.12109l-.70703-.70703-1.4707,1.4707.70703.70703,1.4707-1.4707ZM14.64941,13.17871l-.70703-.70703-1.4707,1.4707.70703.70703,1.4707-1.4707ZM5.82324,22.00488l-.70703-.70703-1.4707,1.4707.70703.70703,1.4707-1.4707ZM17.5918,10.23633l-.70703-.70703-1.47168,1.47168.70703.70703,1.47168-1.47168ZM8.76563,19.0625l-.70703-.70703-1.4707,1.4707.70703.70703,1.4707-1.4707ZM23.47559,4.35254l-.70703-.70703-1.47168,1.47168.70703.70703,1.47168-1.47168ZM20.5332,7.29492l-.70703-.70703-1.4707,1.4707.70703.70703,1.4707-1.4707ZM25.2998,2.52832l.35352.35352.70703-.70703-1.06055-1.06055-1.06055,1.06055.70703.70703.35352-.35352ZM26.80859,4.03711l1.15527,1.1543.70703-.70703-1.15527-1.1543-.70703.70703ZM29.8252,5.63965l-.70703.70703.35352.35352-.35352.35352.70703.70703,1.06055-1.06055-1.06055-1.06055ZM14.4082,21.76367l.70703.70703,1.47168-1.47168-.70703-.70703-1.47168,1.47168ZM26.17676,9.99512l.70703.70703,1.4707-1.4707-.70703-.70703-1.4707,1.4707ZM21.76367,14.4082l-1.4707,1.4707.70703.70703,1.4707-1.4707-.70703-.70703ZM11.4668,24.70508l.70703.70703,1.4707-1.4707-.70703-.70703-1.4707,1.4707ZM8.52441,27.64746l.70703.70703,1.47168-1.47168-.70703-.70703-1.47168,1.47168ZM24.70508,11.4668l-1.4707,1.4707.70703.70703,1.4707-1.4707-.70703-.70703ZM17.35059,18.82129l.70703.70703,1.4707-1.4707-.70703-.70703-1.4707,1.4707Z"/><rect class="cls-1" width="32" height="32"/></svg>