<svg xmlns="http://www.w3.org/2000/svg" viewBox="0 0 24 24"><path fill="#231f20" d="m5.553 22.125.707.707-1.06 1.06-1.061-1.06.707-.707.353.354zm-3.394-1.274.99.99.707-.707-.99-.99zm-.99-3.113-1.06 1.06 1.06 1.062.708-.707-.354-.354.354-.354zM16.94 3.382l-.707-.707-1.505 1.506.707.707zM4.89 15.432l-.707-.706-1.507 1.506.707.707zm9.038-9.037-.707-.708-1.507 1.507.707.707zm-3.013 3.012-.707-.707-1.507 1.507.707.707zm-4.52 4.52 1.507-1.507-.707-.707-1.507 1.507.708.707zM19.862 1.168l-1.06-1.06-1.06 1.06.706.707.354-.354.353.354zm.283 1.698.99.99.707-.707-.99-.99zm1.98 1.98.353.355-.354.354.707.707 1.06-1.06-1.06-1.062zm-9.039 9.747.707.707 1.507-1.507-.707-.707zm3.013-3.013.707.707 1.507-1.507-.708-.707zm3.012-3.013.707.707 1.507-1.506-.707-.707zm-9.038 9.038.707.708 1.507-1.507-.707-.707zM7.06 20.618l.707.707 1.505-1.506-.707-.707zM19.153 5.554l-.707-.707-13.6 13.6.708.706 13.6-13.6z"/><path fill="none" d="M0 0h24v24H0z"/></svg>