<?xml version="1.0" encoding="UTF-8"?><svg id="icons" xmlns="http://www.w3.org/2000/svg" viewBox="0 0 16 16"><defs><style>.cls-1{fill:none;}.cls-2{fill:#231f20;}</style></defs><path class="cls-2" d="M.08105,12.61035c0-.83594.31055-1.63184.875-2.24219l.73438.67773c-.39258.42578-.60938.98047-.60938,1.56152.00098.11621.00977.23535.02734.35352l-.98828.15039c-.02539-.16504-.03809-.33301-.03906-.50098ZM9.09082,10.16113l-1.7832,1.7793.70703.70703,1.7832-1.7793-.70703-.70703ZM10.11816,9.13574l.70703.70898,1.7832-1.77832-.70703-.70898-1.7832,1.77832ZM15.91895,3.39355c0-.87988-.3418-1.70801-.96387-2.33203-.06445-.06445-.13086-.12598-.19922-.18457l-.64844.76172c.04883.04102.0957.08496.13965.12891.43359.43457.67188,1.0127.6709,1.69922l1,.0332.00098-.10645ZM6.98633,13.67285l-.70508-.70898-1.27637,1.27246c-.14062.13965-.29785.26074-.46582.35938l.50391.86328c.24219-.1416.4668-.31445.66699-.51367l1.27637-1.27246ZM11.11523,1.6543c.52246-.4541,1.2334-.65137,1.92969-.52246l.18359-.98242c-.98633-.18555-2.01758.09668-2.76953.74902l.65625.75586ZM8.32422,4.42871l1.7832-1.77832-.70703-.70898-1.7832,1.77832.70703.70898ZM3.38086,15.9082h.02734l-.02734-1c-.61523,0-1.19338-.24023-1.62891-.67578-.06055-.06152-.11816-.125-.16992-.19141l-.78711.61719c.07715.09766.16016.19238.25.28125.62305.625,1.45312.96875,2.33594.96875ZM4.80664,6.52344l.70703.70898,1.7832-1.77832-.70703-.70898-1.7832,1.77832ZM14.58105,4.5957c-.09375.15332-.20703.2959-.33594.4248l-1.31543,1.31152.70508.70898,1.31641-1.3125c.18457-.18457.34668-.38965.48145-.60938l-.85156-.52344ZM1.99609,9.32617l.70703.70898,1.7832-1.77832-.70703-.70898-1.7832,1.77832ZM3.7334,12.96289L12.97363,3.74707l-.70703-.70898L3.02637,12.25391l.70703.70898Z"/><rect class="cls-1" width="16" height="16"/></svg>