<svg xmlns="http://www.w3.org/2000/svg" viewBox="0 0 16 16"><path fill="#231f20" d="m11.324.02 1.062 1.064-.71.707-.35-.353-.351.353-.71-.705L11.326.02zm1.908 1.914-.707.707.848.85.707-.708zm1.696 1.699-.71.707.356.355-.354.357.71.705 1.054-1.064zm-4.624 5.362-1.309 1.308.705.709L11.013 9.7zm-1.918 3.323-.705-.709-1.315 1.306.705.709zm4.529-5.952-1.306 1.315.71.705 1.305-1.315zm-7.158 8.565-.705-.711-.357.354-.355-.355-.707.709 1.06 1.056zM2.64 12.524l-.707.707.85.848.706-.707zm-1.557-.138.707-.71-.353-.35.353-.351-.705-.71-1.065 1.06 1.063 1.06zM7.65 3.718l.71.705 1.307-1.316-.709-.705zM5.034 6.344l.705.709 1.315-1.314-.71-.705zM3.107 9.667l1.317-1.308-.705-.709-1.317 1.308zm9.067-5.122-.707-.71-7.631 7.632.709.707 7.629-7.63z"/><path fill="none" d="M0 0h16v16H0z"/></svg>