<svg xmlns="http://www.w3.org/2000/svg" viewBox="0 0 32 32"><path fill="none" d="M0 0h32v32H0z"/><path d="M6.354 29.854a3.477 3.477 0 0 1-2.475-1.026l-.314-.313.707-.707.314.313c.473.473 1.1.733 1.768.733l.03 1h-.03zM25.646 5.646l-20 20 .708.708 20-20-.708-.708zM8.828 28.828c-.079.08-.162.154-.248.226l-.639-.77a2.52 2.52 0 0 0 .18-.163l1.775-1.775.708.707-1.776 1.775zM22.114 5.644l-.707-.707 1.765-1.765a3.11 3.11 0 0 1 .267-.24l.625.779a2.503 2.503 0 0 0-.185.168l-1.765 1.765zm7.74.709c0 .755-.238 1.474-.685 2.08l-.805-.595c.32-.432.49-.945.49-1.485 0-.248-.038-.495-.11-.733l.957-.29c.1.332.153.677.153 1.023zm-2.856 2.891l.707.707-1.98 1.98-.707-.706 1.98-1.98zm1.426-5.77l-.707.708-.303-.303a2.482 2.482 0 0 0-1.768-.733l-.015-1h.015c.935 0 1.814.365 2.475 1.026l.303.303zM3.146 25.648c.001.245.037.488.107.721l-.959.286a3.56 3.56 0 0 1-.148-1.005c0-.763.24-1.488.696-2.096l.8.597a2.49 2.49 0 0 0-.496 1.497zm5.288-6.323l-.707-.707 1.98-1.98.706.708-1.98 1.98zm8.303.18l.707.708-1.98 1.98-.707-.707 1.98-1.98zm-4.883-3.6l-.708-.707 1.981-1.98.707.707-1.98 1.98zm6.84-6.84l-.707-.708 1.98-1.979.707.707-1.98 1.98zm-3.42 3.42l-.708-.707 1.98-1.98.708.707-1.98 1.98zm9.01.888l-1.98 1.98-.706-.707 1.98-1.98.706.707zm-10.26 10.26l-1.98 1.98-.707-.707 1.98-1.98.707.707zm6.133-7.547l.707.707-1.98 1.98-.706-.708 1.98-1.979zm-15.143 6.66l-.707-.708 1.98-1.98.706.708-1.98 1.98z" fill="#231f20"/></svg>