<svg xmlns="http://www.w3.org/2000/svg" viewBox="0 0 16 16"><path d="M2.184 14.031a4.66 4.66 0 0 1 2.827-.93 4.5 4.5 0 0 1 3.143 1.209l.353.351.352-.351a4.5 4.5 0 0 1 3.145-1.208 4.67 4.67 0 0 1 2.814.918.73.73 0 0 0 .774.079.74.74 0 0 0 .408-.658V4.386a.73.73 0 0 0-.133-.42A4.73 4.73 0 0 0 12 2.1a4.84 4.84 0 0 0-3.495 1.42A4.94 4.94 0 0 0 5 2.1a4.68 4.68 0 0 0-3.907 1.944L1 4.214v9.24a.733.733 0 0 0 1.184.577M12 3.1a3.75 3.75 0 0 1 3 1.373v8.459a5.76 5.76 0 0 0-6 .027V4.507A3.75 3.75 0 0 1 12 3.1M2 4.49A3.77 3.77 0 0 1 5 3.1a3.79 3.79 0 0 1 3 1.376v8.474a5.75 5.75 0 0 0-6-.008z"/><path fill="none" d="M0 0h16v16H0z"/></svg>