<svg xmlns="http://www.w3.org/2000/svg" viewBox="0 0 24 24"><path d="M18.003 3A7.65 7.65 0 0 0 12.5 5.277 7.65 7.65 0 0 0 6.997 3a7.53 7.53 0 0 0-5.833 2.686.8.8 0 0 0-.164.493v13.59a.83.83 0 0 0 .499.755.9.9 0 0 0 .879-.083A8.2 8.2 0 0 1 7 19.033a7.83 7.83 0 0 1 5.153 1.841l.31.355.384-.355A7.83 7.83 0 0 1 18 19.034a8.2 8.2 0 0 1 4.624 1.41.9.9 0 0 0 .875.081.83.83 0 0 0 .501-.755V6.179a.8.8 0 0 0-.161-.49A7.54 7.54 0 0 0 18.003 3M2 19.49V6.24A6.53 6.53 0 0 1 6.997 4 6.57 6.57 0 0 1 12 6.244v13.253a9.16 9.16 0 0 0-5-1.464 9.27 9.27 0 0 0-5 1.456zm21 0a9.26 9.26 0 0 0-5-1.457 9.16 9.16 0 0 0-5 1.464V6.244a6.697 6.697 0 0 1 10-.005z"/><path fill="none" d="M0 0h24v24H0z"/></svg>