<svg xmlns="http://www.w3.org/2000/svg" viewBox="0 0 24 24"><path d="M8 8H5V7h3zm-3 2h3V9H5zm3 5H1.5a.5.5 0 0 1-.5-.5V5h7.073c.086-.372.257-.709.485-1H1V2.5a.5.5 0 0 1 .5-.5h16a.5.5 0 0 1 .5.5V3h1v-.5A1.5 1.5 0 0 0 17.5 1h-16A1.5 1.5 0 0 0 0 2.5v12A1.5 1.5 0 0 0 1.5 16H8zm-3-3h3v-1H5zM4 7H3v1h1zm-1 5h1v-1H3zm1-3H3v1h1zm20-3.42v16.84A1.58 1.58 0 0 1 22.42 24H10.576A1.577 1.577 0 0 1 9 22.423V5.585C9 4.71 9.71 4 10.585 4H22.42c.87 0 1.58.71 1.58 1.58m-1 .209A.79.79 0 0 0 22.211 5H10.79a.79.79 0 0 0-.789.79v16.42c0 .436.353.789.789.789h11.423a.79.79 0 0 0 .788-.788zM17 9h4V8h-4zm0 5h4v-1h-4zm-5-7h4v4h-4zm1 3h2V8h-2zm-1 2h4v4h-4zm1 3h2v-2h-2zm-1 2h4v4h-4zm1 3h2v-2h-2zm4-1h4v-1h-4z"/><path d="M0 0h24v24H0z" style="fill:none"/></svg>