<?xml version="1.0" encoding="UTF-8"?><svg id="icons" xmlns="http://www.w3.org/2000/svg" viewBox="0 0 16 16"><defs><style>.cls-1{fill:none;}</style></defs><path d="M2,4h3v1h-3v-1ZM2,7h3v-1h-3v1ZM1,1h11c0-.55231-.44769-1-1-1H1C.44769,0,0,.44769,0,1v7c0,.55225.44769,1,1,1h4v-1H1V3h4.12323c.10645-.37274.28259-.71014.51666-1H1v-1ZM16,3.79486v10.41028c0,.9903-.74707,1.79486-1.66669,1.79486h-6.66663c-.91962,0-1.66669-.80457-1.66669-1.79486V3.79486c0-.98865.74707-1.79486,1.66669-1.79486h6.66663c.91962,0,1.66669.80621,1.66669,1.79486ZM15,3.90906c0-.50208-.37311-.90906-.83331-.90906h-6.33337c-.46021,0-.83331.40698-.83331.90906v10.18182c0,.50208.37311.90912.83331.90912h6.33337c.46021,0,.83331-.40704.83331-.90912V3.90906ZM8,13h2v-2h-2v2ZM8,10h2v-2h-2v2ZM8,7h2v-2h-2v2ZM11,6h3v-1h-3v1ZM11,12h3v-1h-3v1ZM11,9h3v-1h-3v1Z"/><rect class="cls-1" width="16" height="16"/></svg>