<svg xmlns="http://www.w3.org/2000/svg" viewBox="0 0 24 24"><path d="M22.733 14.365l1.148 6.818s-2.034-1.017-5.423-1.017c-.57 0-1.091.021-1.582.056l1.044-1.044c.18-.004.35-.012.538-.012 1.74 0 3.154.254 4.157.52l-.75-4.453.868-.868zM9.304 20.602c-.84.12-1.768.198-2.88.198-1.999 0-3.493-.38-4.3-.65L4.848 4.343c.89.215 2.227.457 3.723.457 2.121 0 3.252-.465 4.25-.875.946-.39 1.763-.725 3.49-.725 1.55 0 2.927.38 3.63.615l1 5.937 1.066.309-1.177-6.983S18.797 2.2 16.31 2.2c-3.847 0-3.891 1.6-7.74 1.6-2.485 0-4.52-.722-4.52-.722L1 20.783S3.034 21.8 6.424 21.8c1.226 0 2.246-.091 3.162-.228l-.282-.97zM22.1 12.17l-10.2 10.2-1.32-4.55c-.34.12-.7.18-1.08.18C7.57 18 6 16.43 6 14.5c0-1.63 1.12-3.01 2.64-3.39l-.36-1.23 1.33-1.33 12.49 3.62zM11.99 14.5c0-1.374-1.1-2.5-2.49-2.5a2.5 2.5 0 0 0 0 5 2.505 2.505 0 0 0 2.49-2.5zm.4 5.96l7.81-7.8L9.9 9.67l-.49.5.24.84c1.85.07 3.34 1.61 3.34 3.49 0 1.19-.59 2.24-1.5 2.86l.9 3.1zM11 15h-1v1H9v-1H8v-1h1v-1h1v1h1v1zM6.5 7.5a1 1 0 1 1 2 0 1 1 0 0 1-2 0z"/><path fill="none" d="M0 0h24v24H0z"/></svg>