<svg xmlns="http://www.w3.org/2000/svg" viewBox="0 0 16 16"><path d="M7.05 8a3.048 3.048 0 0 0-3.656-2.989l-.179-.832a3.897 3.897 0 0 1 1.633 7.622l-.177-.83A3.05 3.05 0 0 0 7.05 8M.95 8c0-.018.005-.034.005-.052l-.38-1.773a3.82 3.82 0 0 0 1.049 4.895L1.24 9.278A3 3 0 0 1 .95 8M1 2a1 1 0 1 0-1-1 1 1 0 0 0 1 1m1.992-.916a2 2 0 0 1-.292.956l11.112 3.382-9.505 8.624-.66-3.082a3 3 0 0 1-1.1-.354l1.146 5.344L15.788 4.979zM1 3c-.029 0-.056-.007-.085-.009l.69 3.22a3 3 0 0 1 .857-.774l-.57-2.657A2 2 0 0 1 1 3m2.354 6.354L4 8.707l.646.646.707-.707L4.707 8l.646-.646-.707-.707L4 7.293l-.646-.646-.707.707.646.646-.646.646z"/><path fill="none" d="M0 0h16v16H0z"/></svg>