<svg xmlns="http://www.w3.org/2000/svg" viewBox="0 0 24 24"><path d="M4.646 12.646 5.793 11.5l-1.147-1.146.707-.707L6.5 10.793l1.146-1.147.707.707L7.207 11.5l1.146 1.146-.707.707L6.5 12.207l-1.146 1.147zM3.97 1.796a2.5 2.5 0 0 1-.315.95l17.86 5.952-14.72 12.88-1.63-6.845a3.5 3.5 0 0 1-1.237-.876l2.278 9.565 17.28-15.12zM12.8 11.5a6.255 6.255 0 0 0-8.753-5.78l.234.984A5.2 5.2 0 0 1 6.5 6.2a5.292 5.292 0 0 1 .18 10.582l.238.997A6.303 6.303 0 0 0 12.8 11.5m-11.6 0a5.3 5.3 0 0 1 .57-2.387l-.324-1.364a6.27 6.27 0 0 0 2.23 9.365l-.325-1.362a5.27 5.27 0 0 1-2.15-4.252zm.38-7.508 1.563 6.57a3.5 3.5 0 0 1 .712-1.33L2.552 3.76a2.5 2.5 0 0 1-.973.232zM3 1.5A1.5 1.5 0 1 1 1.5 0 1.5 1.5 0 0 1 3 1.5m-1 0a.5.5 0 1 0-.5.5.5.5 0 0 0 .5-.5"/><path fill="none" d="M0 0h24v24H0z"/></svg>