<svg xmlns="http://www.w3.org/2000/svg" viewBox="0 0 16 16"><path d="M15.585 11.892l.405 2.388s-.706-.535-1.939-.853l1.534-1.535zM3.654 13.785a9.618 9.618 0 0 1-2.534-.355l1.82-10.7c.62.13 1.45.26 2.35.26 1.52 0 2.33-.29 3.05-.55.64-.23 1.2-.44 2.37-.44.93 0 1.77.23 2.27.4l.626 3.716 1.069.31-.805-4.746S12.44 1 10.71 1c-2.69 0-2.73.99-5.42.99-1.73 0-3.16-.51-3.16-.51L0 14.08s1.42.71 3.79.71c.232 0 .434-.02.647-.032a4.563 4.563 0 0 1-.783-.973zM15.81 8.84l-7.15 7.15-.6-2.07c-.18.05-.37.07-.56.07-1.38 0-2.5-1.17-2.5-2.55 0-1.09.7-1.97 1.68-2.31l-.45-1.54L7.42 6.4l8.39 2.44zM9 11.49c0-.658-.423-1.209-1.01-1.412v.002c-.15-.06-.32-.09-.49-.09-.788 0-1.5.647-1.5 1.5 0 .83.67 1.5 1.5 1.5.82 0 1.5-.68 1.5-1.5zm.15 2.6l4.76-4.76-6.2-1.8-.35.35.323 1.128a2.485 2.485 0 0 1 1.295 4.483l.172.599zM8 10.99H7v1h1v-1zM5.414 6.576a1 1 0 1 0 0-2 1 1 0 0 0 0 2z"/><path fill="none" d="M0 0h16v16H0z"/></svg>