<svg xmlns="http://www.w3.org/2000/svg" viewBox="0 0 16 16"><path d="M11 3a4.94 4.94 0 0 0-2.484.687 5 5 0 1 0 0 8.626A4.94 4.94 0 0 0 11 13a5 5 0 0 0 0-10m-5 9a4 4 0 1 1 1.606-7.65 4.95 4.95 0 0 0 0 7.3A4 4 0 0 1 6 12m5 0a4 4 0 0 1-1.6-.34q.17-.154.326-.325l-.745-.668a2.5 2.5 0 0 1-.476.434 3.948 3.948 0 0 1 0-6.202 2.4 2.4 0 0 1 .476.434l.745-.668a5 5 0 0 0-.327-.326A3.998 3.998 0 1 1 11 12M9.807 9.234l.95.308a5 5 0 0 1-.422.95l-.866-.499a4 4 0 0 0 .338-.76zm.003-2.458a4 4 0 0 0-.335-.76l.868-.496a5 5 0 0 1 .419.951zm1.164.711A5 5 0 0 1 11 8q0 .267-.027.525l-.995-.103A4 4 0 0 0 10 8a4 4 0 0 0-.021-.41z"/><path fill="none" d="M0 0h16v16H0z"/></svg>