<svg xmlns="http://www.w3.org/2000/svg" viewBox="0 0 24 24"><path d="M7.1 13.754l-.173 1.06a12.823 12.823 0 0 1-2.07.175 9.39 9.39 0 0 1-3.941-.755l-.33-.165L2.839.343l.556.184a9.155 9.155 0 0 0 5.42.011 9.992 9.992 0 0 1 6.108-.01l.286.095 1.23 7.495a8.575 8.575 0 0 0-.985.18l-1.132-6.903a8.843 8.843 0 0 0-5.135.07 7.32 7.32 0 0 1-2.294.484 5.435 5.435 0 0 0 .699 2.908 4.926 4.926 0 0 0 2.249 1.55 5.64 5.64 0 0 1 3.108 2.512c-.202.018-.392.049-.607.049a8.36 8.36 0 0 1-.557-.02 5.293 5.293 0 0 0-2.352-1.629A5.776 5.776 0 0 1 6.77 5.428a6.379 6.379 0 0 1-.886-3.472 11.811 11.811 0 0 1-2.243-.322l-1.943 11.84a10.55 10.55 0 0 0 5.404.28zm12.954-8.407L18.707 4H21a2.003 2.003 0 0 1 2 2v2h1V6a3.003 3.003 0 0 0-3-3h-2.293l1.346-1.347-.707-.707L16.793 3.5l2.554 2.554zm1.154 4.276l2.303 14.041-.872-.429a10.551 10.551 0 0 0-7.48.027 13.568 13.568 0 0 1-4.302.727 9.39 9.39 0 0 1-3.941-.755l-.33-.165L8.839 9.343l.556.184a9.155 9.155 0 0 0 5.42.011 9.992 9.992 0 0 1 6.108-.01zm.24 7.637l-2.008 2.006a9.165 9.165 0 0 1 .218 1.369l2.013-2.013zm-.424-2.578l-2.527 2.528a4.723 4.723 0 0 1 .588.998l2.163-2.163zm-.422-2.577l-3.772 3.772a5.95 5.95 0 0 1 .961.625l3.034-3.034zm-.28-1.71c-.194-.052-.481-.12-.827-.183l-4.687 4.687c.327.184.672.347 1.032.507l.032.015 4.53-4.53zm-3.727-.283l-3.25 3.25a3.059 3.059 0 0 0 .246.495 2.946 2.946 0 0 0 .396.449l4.248-4.248a8.453 8.453 0 0 0-1.64.054zm-3.703.837a7.33 7.33 0 0 0 .113 1.339l1.649-1.65a7.69 7.69 0 0 1-1.762.311zm5.813 10.653c-.054-3.833-1.617-4.543-3.273-5.283a5.776 5.776 0 0 1-2.663-1.891 6.379 6.379 0 0 1-.886-3.472 11.811 11.811 0 0 1-2.243-.322l-1.943 11.84a11.03 11.03 0 0 0 7.145-.162 13.641 13.641 0 0 1 3.863-.71zm3.523.416l-.358-2.181-1.79 1.79a10.38 10.38 0 0 1 2.148.39z"/><path fill="none" d="M0 0h24v24H0z"/></svg>