<svg xmlns="http://www.w3.org/2000/svg" viewBox="0 0 16 16"><path d="m4.546 8.713-.173 1.053a8.4 8.4 0 0 1-1.444.135 6.1 6.1 0 0 1-2.573-.495l-.329-.165L1.504.235 2.06.42a5.6 5.6 0 0 0 3.293.01 6.5 6.5 0 0 1 3.98-.01l.286.096.773 4.717a5.4 5.4 0 0 0-.95.269l-.018.005-.69-4.216a5.3 5.3 0 0 0-3.01.067 4.7 4.7 0 0 1-1.331.304A3.1 3.1 0 0 0 4.8 3.22a2.94 2.94 0 0 0 1.343.914A3.82 3.82 0 0 1 8.119 5.68a5.6 5.6 0 0 1-1.28-.21 1.5 1.5 0 0 0-.375-.061 7 7 0 0 0-.729-.362A3.85 3.85 0 0 1 3.98 3.79a4.05 4.05 0 0 1-.59-2.12 8 8 0 0 1-1.082-.155L1.14 8.638a6.65 6.65 0 0 0 3.406.075m9.534-2.198 1.53 9.329-.875-.437a6.5 6.5 0 0 0-4.577.027 8.7 8.7 0 0 1-2.767.467 6.1 6.1 0 0 1-2.573-.495l-.329-.165 1.477-9.006.555.184a5.6 5.6 0 0 0 3.293.01 6.5 6.5 0 0 1 3.98-.01zM9.914 9.793a7 7 0 0 0 .691.342q.186.083.38.174l2.323-2.324-.114-.695a7 7 0 0 0-.653-.124zM8.854 7.66A3.3 3.3 0 0 0 9.2 9.093l1.963-1.963a3.6 3.6 0 0 0-.977.227 4.7 4.7 0 0 1-1.332.303m3.286 6.377c-.077-2.128-.94-2.542-1.943-2.99A3.85 3.85 0 0 1 8.44 9.792a4.06 4.06 0 0 1-.588-2.12 8 8 0 0 1-1.083-.155l-1.167 7.122a6.88 6.88 0 0 0 4.24-.154 9 9 0 0 1 2.298-.447zm1.59-3.475L13.507 9.2l-1.643 1.643a3 3 0 0 1 .728.858zm.6 3.659-.4-2.444-.946.946a6.6 6.6 0 0 1 .165 1.317 7 7 0 0 1 1.181.18zM13.75 2H13V.55L10.95 2.5 13 4.45V3h.75A1.25 1.25 0 0 1 15 4.25V6h1V4.25A2.253 2.253 0 0 0 13.75 2"/><path fill="none" d="M0 0h16v16H0z"/></svg>