<svg xmlns="http://www.w3.org/2000/svg" viewBox="0 0 32 32"><path d="M9.96 18.41l-.171 1.047a17.295 17.295 0 0 1-3.315.349 12.317 12.317 0 0 1-5.177-.99l-.33-.166L3.917.662l.557.185c.039.013 4.065 1.32 7.341.01 3.619-1.449 7.851-.07 8.03-.01l.286.095 1.701 10.382q-.505.07-.983.18l-1.605-9.792c-.978-.27-4.287-1.035-7.057.073a9.722 9.722 0 0 1-3.172.642 7.625 7.625 0 0 0 .97 4.13 6.702 6.702 0 0 0 3.068 2.123c1.581.706 3.296 1.484 4.269 3.725-.28.024-.568.037-.866.037-.075 0-.146-.005-.221-.007a6.481 6.481 0 0 0-3.59-2.842 7.586 7.586 0 0 1-3.482-2.465 8.658 8.658 0 0 1-1.15-4.696 15.558 15.558 0 0 1-3.295-.474L2.078 18.06a14.118 14.118 0 0 0 7.882.35zM25.708 7.005L23.704 5H27a3.003 3.003 0 0 1 3 3v3h1V8a4.004 4.004 0 0 0-4-4h-3.302l2.01-2.01-.707-.707-3.214 3.214 3.214 3.214zm2.422 5.938l3 18.306-.873-.433c-.04-.02-4.104-1.972-10.099.028a17.948 17.948 0 0 1-5.684.963 12.317 12.317 0 0 1-5.177-.99l-.33-.166 2.949-17.988.557.185c.04.013 4.065 1.32 7.341.01 3.619-1.448 7.851-.07 8.03-.01zm.617 9.95l-2.96 2.96a12.97 12.97 0 0 1 .301 2.27L29.11 25.1zm-.56-3.423l-3.623 3.622a6.345 6.345 0 0 1 .907 1.664l3.077-3.079zm-.561-3.425l-5.261 5.26a7.3 7.3 0 0 1 1.52 1.052l4.102-4.102zm-.383-2.332a14.71 14.71 0 0 0-1.03-.239l-6.533 6.532c.436.244.895.462 1.372.675l.361.162 6.013-6.013zm-4.803-.451l-4.76 4.76a4.038 4.038 0 0 0 .304.537 4.207 4.207 0 0 0 .85.88l6.146-6.147a12.23 12.23 0 0 0-2.54-.03zm-5.426 1.166a9.985 9.985 0 0 0 .292 2.553l3.34-3.34c-.153.05-.31.085-.46.145a9.721 9.721 0 0 1-3.172.642zm8.094 14.521c-.03-5.359-2.182-6.336-4.464-7.355a7.586 7.586 0 0 1-3.482-2.465 8.658 8.658 0 0 1-1.15-4.695 15.507 15.507 0 0 1-3.295-.475L10.078 30.06a14.734 14.734 0 0 0 9.764-.166 17.963 17.963 0 0 1 5.266-.946zm4.736.634l-.535-3.266-2.667 2.666a13.526 13.526 0 0 1 3.202.6z"/><path fill="none" d="M0 0h32v32H0z"/></svg>