<svg xmlns="http://www.w3.org/2000/svg" viewBox="0 0 24 24"><path d="M16.5 5.214a7.24 7.24 0 0 0-3.99 1.198 7 7 0 0 0-.363-.228 7.292 7.292 0 1 0 0 12.633q.185-.11.363-.228A7.283 7.283 0 1 0 16.5 5.213zm-4.847 12.75a6.307 6.307 0 1 1 0-10.927l.026.015a7.253 7.253 0 0 0 0 10.896zm4.847.85a6.314 6.314 0 1 1 6.314-6.314 6.32 6.32 0 0 1-6.314 6.314m-3.076-2.373.769.618a7 7 0 0 1-.744.797l-.67-.723a6.4 6.4 0 0 0 .645-.692m.008-7.873a6 6 0 0 0-.643-.691l.67-.724a7 7 0 0 1 .743.801zm.532.78.854-.493a7 7 0 0 1 .474.983l-.918.36a6 6 0 0 0-.41-.85m.825 3.631.983.074a7.4 7.4 0 0 1-.163 1.08l-.96-.22a6 6 0 0 0 .14-.934m-.42 1.834.918.362a7 7 0 0 1-.477.983l-.851-.496a6 6 0 0 0 .41-.849m1.243-3.932a7 7 0 0 1 .161 1.081l-.983.072a6 6 0 0 0-.14-.933z"/><path fill="none" d="M0 0h24v24H0z"/></svg>