<svg xmlns="http://www.w3.org/2000/svg" viewBox="0 0 24 24"><path d="m7.1 13.754-.173 1.06a13 13 0 0 1-2.07.175 9.4 9.4 0 0 1-3.941-.755l-.33-.165L2.839.343l.556.184a9.15 9.15 0 0 0 5.42.011 10 10 0 0 1 6.108-.01l.286.095 1.23 7.495a9 9 0 0 0-.985.18l-1.132-6.903a8.84 8.84 0 0 0-5.135.07 7.3 7.3 0 0 1-2.294.484 5.44 5.44 0 0 0 .699 2.908 4.93 4.93 0 0 0 2.249 1.55 5.64 5.64 0 0 1 3.108 2.512c-.202.018-.392.049-.607.049a8 8 0 0 1-.557-.02 5.3 5.3 0 0 0-2.352-1.629A5.8 5.8 0 0 1 6.77 5.428a6.4 6.4 0 0 1-.886-3.472 12 12 0 0 1-2.243-.322l-1.943 11.84a10.55 10.55 0 0 0 5.404.28zm12.954-8.407L18.707 4H21a2.003 2.003 0 0 1 2 2v2h1V6a3.003 3.003 0 0 0-3-3h-2.293l1.346-1.347-.707-.707L16.793 3.5l2.554 2.554zm1.154 4.276 2.303 14.041-.872-.429a10.55 10.55 0 0 0-7.48.027 13.6 13.6 0 0 1-4.302.727 9.4 9.4 0 0 1-3.941-.755l-.33-.165L8.839 9.343l.556.184a9.15 9.15 0 0 0 5.42.011 10 10 0 0 1 6.108-.01zm.24 7.637-2.008 2.006a9 9 0 0 1 .218 1.369l2.013-2.013zm-.424-2.578-2.527 2.528a4.7 4.7 0 0 1 .588.998l2.163-2.163zm-.422-2.577-3.772 3.772a6 6 0 0 1 .961.625l3.034-3.034zm-.28-1.71c-.194-.052-.481-.12-.827-.183l-4.687 4.687c.327.184.672.347 1.032.507l.032.015 4.53-4.53zm-3.727-.283-3.25 3.25a3 3 0 0 0 .246.495 3 3 0 0 0 .396.449l4.248-4.248a8.5 8.5 0 0 0-1.64.054m-3.703.837a7.3 7.3 0 0 0 .113 1.339l1.649-1.65a7.7 7.7 0 0 1-1.762.311m5.813 10.653c-.054-3.833-1.617-4.543-3.273-5.283a5.8 5.8 0 0 1-2.663-1.891 6.4 6.4 0 0 1-.886-3.472 12 12 0 0 1-2.243-.322l-1.943 11.84a11.03 11.03 0 0 0 7.145-.162 13.6 13.6 0 0 1 3.863-.71m3.523.416-.358-2.181-1.79 1.79a10.4 10.4 0 0 1 2.148.39z"/><path fill="none" d="M0 0h24v24H0z"/></svg>