<svg xmlns="http://www.w3.org/2000/svg" viewBox="0 0 32 32"><path d="m9.96 18.41-.171 1.047a17.3 17.3 0 0 1-3.315.349 12.3 12.3 0 0 1-5.177-.99l-.33-.166L3.917.662l.557.185c.039.013 4.065 1.32 7.341.01 3.619-1.449 7.851-.07 8.03-.01l.286.095 1.701 10.382q-.505.07-.983.18l-1.605-9.792c-.978-.27-4.287-1.035-7.057.073a9.7 9.7 0 0 1-3.172.642 7.63 7.63 0 0 0 .97 4.13 6.7 6.7 0 0 0 3.068 2.123c1.581.706 3.296 1.484 4.269 3.725q-.42.037-.866.037-.11-.002-.221-.007a6.48 6.48 0 0 0-3.59-2.842 7.6 7.6 0 0 1-3.482-2.465 8.66 8.66 0 0 1-1.15-4.696 15.6 15.6 0 0 1-3.295-.474L2.078 18.06a14.1 14.1 0 0 0 7.882.35M25.708 7.005 23.704 5H27a3.003 3.003 0 0 1 3 3v3h1V8a4.004 4.004 0 0 0-4-4h-3.302l2.01-2.01-.707-.707-3.214 3.214 3.214 3.214zm2.422 5.938 3 18.306-.873-.433c-.04-.02-4.104-1.972-10.099.028a18 18 0 0 1-5.684.963 12.3 12.3 0 0 1-5.177-.99l-.33-.166 2.949-17.988.557.185c.04.013 4.065 1.32 7.341.01 3.619-1.448 7.851-.07 8.03-.01zm.617 9.95-2.96 2.96a13 13 0 0 1 .301 2.27L29.11 25.1zm-.56-3.423-3.623 3.622a6.4 6.4 0 0 1 .907 1.664l3.077-3.079zm-.561-3.425-5.261 5.26a7.3 7.3 0 0 1 1.52 1.052l4.102-4.102zm-.383-2.332a15 15 0 0 0-1.03-.239l-6.533 6.532c.436.244.895.462 1.372.675l.361.162 6.013-6.013zm-4.803-.451-4.76 4.76a4 4 0 0 0 .304.537 4.2 4.2 0 0 0 .85.88l6.146-6.147a12.2 12.2 0 0 0-2.54-.03m-5.426 1.166a10 10 0 0 0 .292 2.553l3.34-3.34c-.153.05-.31.085-.46.145a9.7 9.7 0 0 1-3.172.642m8.094 14.521c-.03-5.359-2.182-6.336-4.464-7.355a7.6 7.6 0 0 1-3.482-2.465 8.66 8.66 0 0 1-1.15-4.695 15.5 15.5 0 0 1-3.295-.475L10.078 30.06a14.73 14.73 0 0 0 9.764-.166 18 18 0 0 1 5.266-.946zm4.736.634-.535-3.266-2.667 2.666a13.5 13.5 0 0 1 3.202.6"/><path fill="none" d="M0 0h32v32H0z"/></svg>