<svg xmlns="http://www.w3.org/2000/svg" viewBox="0 0 32 32"><path d="M21.5 7.211a9.2 9.2 0 0 0-4.99 1.468 10 10 0 0 0-.365-.224 9.289 9.289 0 1 0 0 16.09q.184-.107.365-.224a9.284 9.284 0 1 0 4.99-17.11M3.189 16.5a8.312 8.312 0 0 1 12.458-7.203 9.27 9.27 0 0 0 0 14.406A8.312 8.312 0 0 1 3.189 16.5M21.5 24.811a8.311 8.311 0 1 1 8.311-8.311 8.32 8.32 0 0 1-8.311 8.311m-4.46-14.506-.209-.181.628-.75.233.202q.29.26.556.54l-.711.672q-.238-.252-.496-.483zm1.653 10.361.846.492a9 9 0 0 1-.597.902l-.783-.586a8 8 0 0 0 .534-.808m.993-5.61.963-.17a9 9 0 0 1 .124 1.076l-.976.056a8 8 0 0 0-.111-.963zm-2.152 7.159.71.673q-.264.279-.551.535-.117.105-.238.206l-.626-.751.212-.183q.256-.23.493-.48m1.927-3.323.937.28a9 9 0 0 1-.371 1.018l-.898-.389a8 8 0 0 0 .332-.909m-1.3-7.363.784-.585a9 9 0 0 1 .596.904l-.846.49a8 8 0 0 0-.533-.809zm.97 1.674.897-.389a9 9 0 0 1 .371 1.018l-.936.28a8 8 0 0 0-.332-.909m.666 3.784.977.057a9 9 0 0 1-.126 1.075l-.962-.169a8 8 0 0 0 .111-.963"/><path fill="none" d="M0 0h32v32H0z"/></svg>