<svg xmlns="http://www.w3.org/2000/svg" viewBox="0 0 16 16"><path d="M4.546 8.713l-.173 1.053a8.356 8.356 0 0 1-1.444.135 6.125 6.125 0 0 1-2.573-.495l-.329-.165L1.504.235 2.06.42a5.593 5.593 0 0 0 3.293.01 6.51 6.51 0 0 1 3.98-.01l.286.096.773 4.717a5.42 5.42 0 0 0-.95.269l-.018.005-.69-4.216a5.286 5.286 0 0 0-3.01.067 4.69 4.69 0 0 1-1.331.304A3.078 3.078 0 0 0 4.8 3.22a2.936 2.936 0 0 0 1.343.914A3.82 3.82 0 0 1 8.119 5.68a5.577 5.577 0 0 1-1.28-.21 1.486 1.486 0 0 0-.375-.061 6.845 6.845 0 0 0-.729-.362A3.852 3.852 0 0 1 3.98 3.79a4.051 4.051 0 0 1-.59-2.12 7.65 7.65 0 0 1-1.082-.155L1.14 8.638a6.647 6.647 0 0 0 3.406.075zm9.534-2.198l1.53 9.329-.875-.437a6.505 6.505 0 0 0-4.577.027 8.734 8.734 0 0 1-2.767.467 6.125 6.125 0 0 1-2.573-.495l-.329-.165 1.477-9.006.555.184a5.593 5.593 0 0 0 3.293.01 6.506 6.506 0 0 1 3.98-.01zM9.914 9.793a7.077 7.077 0 0 0 .691.342c.124.055.251.113.38.174l2.323-2.324-.114-.695a6.994 6.994 0 0 0-.653-.124zM8.854 7.66A3.267 3.267 0 0 0 9.2 9.093l1.963-1.963a3.644 3.644 0 0 0-.977.227 4.68 4.68 0 0 1-1.332.303zm3.286 6.377c-.077-2.128-.94-2.542-1.943-2.99A3.854 3.854 0 0 1 8.44 9.792a4.058 4.058 0 0 1-.588-2.12 7.709 7.709 0 0 1-1.083-.155l-1.167 7.122a6.879 6.879 0 0 0 4.24-.154 8.856 8.856 0 0 1 2.298-.447zm1.59-3.475L13.507 9.2l-1.643 1.643a2.977 2.977 0 0 1 .728.858zm.6 3.659l-.4-2.444-.946.946a6.554 6.554 0 0 1 .165 1.317 7.014 7.014 0 0 1 1.181.18zM13.75 2H13V.55L10.95 2.5 13 4.45V3h.75A1.251 1.251 0 0 1 15 4.25V6h1V4.25A2.253 2.253 0 0 0 13.75 2z"/><path fill="none" d="M0 0h16v16H0z"/></svg>