<svg xmlns="http://www.w3.org/2000/svg" viewBox="0 0 16 16"><path d="M14.411 9.766 14 9.17l-.411.596C13.323 10.15 12 12.113 12 13.05a2 2 0 0 0 4 0c0-.937-1.323-2.9-1.589-3.284M14 14.05a1 1 0 0 1-1-1 6.7 6.7 0 0 1 1-2.09 6.7 6.7 0 0 1 1 2.09 1 1 0 0 1-1 1M7.5.793 6.235 2.058c-1.788.01-5.195.31-6.039 1.886A1.38 1.38 0 0 0 .282 5.42c.739 1.107 2.859 1.721 5.744 1.721q.537 0 1.108-.029a1.5 1.5 0 0 0 1.298.881c.023.001.045.007.068.007a1.5 1.5 0 0 0 0-3 1.52 1.52 0 0 0-1.443 1.114c-3.869.196-5.576-.698-5.943-1.249a.4.4 0 0 1-.036-.45c.508-.949 3.051-1.263 4.126-1.326l-1.8 1.8a10 10 0 0 0 1.228.186L7.5 2.207 12.793 7.5 6.53 13.763a.75.75 0 0 1-1.06 0L1.237 9.53a.75.75 0 0 1 0-1.06l.835-.835a7 7 0 0 1-1.03-.385l-.512.513a1.75 1.75 0 0 0 0 2.474l4.233 4.233a1.75 1.75 0 0 0 2.474 0l6.97-6.97zM8.5 6a.5.5 0 1 1-.5.5.5.5 0 0 1 .5-.5"/><path fill="none" d="M0 0h16v16H0z"/></svg>