<svg xmlns="http://www.w3.org/2000/svg" viewBox="0 0 16 16"><path d="M14.583 7.34q.38-.369.729-.705a2 2 0 0 1 .178.117c.451.452 1.086 1.967-.517 3.57a10.46 10.46 0 0 1-6.108 2.415c.008-.06.02-.123.023-.179l1.121-1a8.53 8.53 0 0 0 4.257-1.944c1.253-1.253.525-2.146.516-2.155a1 1 0 0 0-.2-.12zm-3.73-4.396c-.48-.674-1.748-.747-2.462-.747-.2 0-.356.006-.44.006q-.034 0-.052-.002C3.595 2.269.011 4.627 0 7.636c-.008 2.189 1.779 3.726 3.995 4.526a1 1 0 0 0 .022-.119 2.3 2.3 0 0 1 .187-.867 6.4 6.4 0 0 1-2.25-1.373A3 3 0 0 1 1 7.639c.008-2.38 3.093-4.367 6.883-4.438l.069.002.15-.002c.077-.002.176-.004.289-.004 1.377 0 1.646.324 1.648.327.144.202.004.697-.108 1.094l-.032.113a1.76 1.76 0 0 0 .09 1.659 1.3 1.3 0 0 0 .183.198l.415-.37.052-.035.373-.258c-.4-.13-.295-.41-.119-1.034a2.24 2.24 0 0 0-.04-1.947M7.5 6.5a1 1 0 1 0-1-1 1 1 0 0 0 1 1m-3 1a1 1 0 1 0-1-1 1 1 0 0 0 1 1m0 1a1 1 0 0 0 0 2 1 1 0 0 0 .22-.044 2.3 2.3 0 0 1 .57-.37.98.98 0 0 0 .21-.586 1 1 0 0 0-1-1m1.844 5.81a3.26 3.26 0 0 1-2.95-.108s1.594-.824 1.623-2.137c.03-1.327 1.55-1.238 1.55-1.238l1.325 1.556s.097 1.197-1.548 1.928zm.48-1.638-.673-.79a.204.204 0 0 0-.134.206 2.84 2.84 0 0 1-.442 1.438 3 3 0 0 0 .363-.13 1.7 1.7 0 0 0 .886-.724m4.381-5.666-3.665 3.27 1.027 1.228 3.65-3.254s3.3-3.238 3.783-3.63c-.307-.38-.195-.242-.505-.62-.483.388-4.29 3.006-4.29 3.006"/><path fill="none" d="M0 0h16v16H0z"/></svg>