<svg xmlns="http://www.w3.org/2000/svg" viewBox="0 0 24 24"><path d="M10.2 17a7 7 0 0 0 .04.726c-3.945-.412-9.04-2.718-9.04-7.02C1.2 6.237 6.828 3.28 11.864 3.2h.16c2.447 0 2.919.509 3.264.881a2.27 2.27 0 0 1 .606 1.607c0 .818-.312 1.267-.312 1.815 0 2.435 7.417-.633 7.417 3.929a3.24 3.24 0 0 1-.476 1.616 7 7 0 0 0-.7-.836 2.1 2.1 0 0 0 .176-.78c0-1.43-.9-1.703-3.603-1.8-1.61-.057-3.814-.136-3.814-2.129a3.6 3.6 0 0 1 .17-.99 2.9 2.9 0 0 0 .142-.825 1.27 1.27 0 0 0-.331-.918c-.216-.233-.528-.57-2.539-.57h-.16C7.3 4.272 2.2 6.961 2.2 10.705c0 3.506 4.376 5.606 8.014 6.016-.003.093-.014.185-.014.279M12 7.5A1.5 1.5 0 1 1 10.5 6 1.5 1.5 0 0 1 12 7.5m-1 0a.5.5 0 1 0-.5.5.5.5 0 0 0 .5-.5M6.5 11A1.5 1.5 0 1 1 8 9.5 1.5 1.5 0 0 1 6.5 11M7 9.5a.5.5 0 1 0-.5.5.5.5 0 0 0 .5-.5m3 4A1.5 1.5 0 1 1 8.5 12a1.5 1.5 0 0 1 1.5 1.5m-1 0a.5.5 0 1 0-.5.5.5.5 0 0 0 .5-.5m7.557 4.196-1.084-1.088-.738.738 1.822 1.822 3.508-3.505-.738-.737zM22.8 17a5.8 5.8 0 1 1-5.8-5.8 5.8 5.8 0 0 1 5.8 5.8m-1 0a4.8 4.8 0 1 0-4.8 4.8 4.806 4.806 0 0 0 4.8-4.8"/><path fill="none" d="M0 0h24v24H0z"/></svg>