<svg xmlns="http://www.w3.org/2000/svg" viewBox="0 0 32 32"><path d="m27.704 12.867.766-.831a2.86 2.86 0 0 1 1.822 1.26 4.09 4.09 0 0 1-.11 4.13c-1.802 3.155-7.547 5.85-13.19 6.304l1.135-1.135c4.882-.686 9.685-3.035 11.186-5.665a3.09 3.09 0 0 0 .097-3.162 2.43 2.43 0 0 0-1.706-.901M4.216 18.75a6.25 6.25 0 0 1-2.016-4.5c.017-4.709 6.386-8.937 13.623-9.048l.208-.002c1.89.001 2.983.53 3.227.862.441.601.148 1.607-.11 2.492l-.043.149a2.77 2.77 0 0 0 .06 2.543 2.72 2.72 0 0 0 1.884.985l.875-.874c-1.176-.142-1.698-.345-1.943-.69-.291-.41-.134-.943.083-1.682l.044-.15c.307-1.054.689-2.366-.044-3.364-.567-.772-2.153-1.27-4.037-1.27l-.214.001C7.912 4.323 1.22 8.924 1.2 14.247a7.2 7.2 0 0 0 2.307 5.21 14.2 14.2 0 0 0 5.035 3.1 3.8 3.8 0 0 1 1.239-.634 13.8 13.8 0 0 1-5.565-3.173M12 17.5A2.5 2.5 0 1 1 9.5 15a2.5 2.5 0 0 1 2.5 2.5m-1 0A1.5 1.5 0 1 0 9.5 19a1.5 1.5 0 0 0 1.5-1.5M8.5 14a2.5 2.5 0 1 1 2.5-2.5A2.5 2.5 0 0 1 8.5 14m0-1A1.5 1.5 0 1 0 7 11.5 1.5 1.5 0 0 0 8.5 13M17 9.5A2.5 2.5 0 1 1 14.5 7 2.5 2.5 0 0 1 17 9.5m-1 0a1.5 1.5 0 1 0-1.5 1.5A1.5 1.5 0 0 0 16 9.5m12.825-2.487L23.2 12.202 12.6 22.8l1.6 1.6 10.6-10.598 5.189-5.625a.835.835 0 0 0-1.164-1.164m-15.75 18.53a3.92 3.92 0 0 1-2.171 2.978A5.2 5.2 0 0 1 8.738 29a4.8 4.8 0 0 1-2.313-.569s2.4-1.29 2.411-3.285c.008-1.84 1.935-1.92 2.271-1.92h.05zm-1.078.265-1.287-1.554c-.456.073-.871.303-.874.896a4.24 4.24 0 0 1-1.263 2.845q.081.004.165.004a4.2 4.2 0 0 0 1.754-.389 2.82 2.82 0 0 0 1.505-1.802"/><path fill="none" d="M0 0h32v32H0z"/></svg>