<svg xmlns="http://www.w3.org/2000/svg" viewBox="0 0 16 16"><path d="M2.233 9.926c.626-1.254.686-1.526.796-1.72a11 11 0 0 1-.006-1.233.81.81 0 0 1 .43-.842 1.1 1.1 0 0 1 .405-.081 1 1 0 0 1 .173.015 4.4 4.4 0 0 1-.007-.989 2.5 2.5 0 0 1 .84-1.258 1.47 1.47 0 0 1 .91-.34 1.04 1.04 0 0 1 .444.093.7.7 0 0 1 .149.097 1.37 1.37 0 0 1 1.407-.935 1.55 1.55 0 0 1 1.154.489 1.2 1.2 0 0 1 .135.223 1.2 1.2 0 0 1 .841-.309 2 2 0 0 1 .226.016 1.6 1.6 0 0 1 1.113.687 3.3 3.3 0 0 1 .256.474 1 1 0 0 1 .503-.115 3.6 3.6 0 0 1 1.013.156 2.26 2.26 0 0 1 .983 1.373 39 39 0 0 1 .847 5.99 16 16 0 0 1-.106 2.787 1.28 1.28 0 0 0 .143.907 5 5 0 0 1 .218.498l.033.091h-.69l-.051-.14a3.2 3.2 0 0 0-.299-.555c-.185-.3-.077-.584-.077-.866a13.7 13.7 0 0 0 .167-2.673 45 45 0 0 0-.806-5.802c-.262-.702-.491-.931-.638-1a3.2 3.2 0 0 0-.737-.094.33.33 0 0 0-.196.042c-.1.082-.058.447-.058.449q.024.19.034.365a2.5 2.5 0 0 0 .06.464 3.2 3.2 0 0 1 .054.964.25.25 0 0 1-.19.111.61.61 0 0 1-.527-.41c-.01-.074-.085-1.506-.118-1.705a2.4 2.4 0 0 0-.371-.94.93.93 0 0 0-.652-.393 1 1 0 0 0-.134-.01.53.53 0 0 0-.41.142 2 2 0 0 0-.117.196c.01.04.023.094.04.174.036.157.084.373.131.529.078.259.204 1.162.294 1.33.077.117.22.498.132.664l-.028.053-.144.053a1.07 1.07 0 0 1-.532-.354c-.066-.085-.125-.164-.2-.706a7.5 7.5 0 0 0-.297-1.25 4.7 4.7 0 0 0-.362-.995.95.95 0 0 0-.638-.238c-.992 0-.879.466-.82.824.039.236.3.804.417 1.144.203.592.277 1.045.373 1.202a.25.25 0 0 1 .02.217c-.071.145-.282.156-.345.156a.34.34 0 0 1-.247-.085 7 7 0 0 1-.416-1.175c-.478-1.301-.69-1.473-.775-1.49a1 1 0 0 0-.198-.022.77.77 0 0 0-.496.162 2 2 0 0 0-.6.798A5 5 0 0 0 4.77 6.64c.057.216.393.473.456.781a7.4 7.4 0 0 0 .299 1.223 3 3 0 0 1 .126.434 2.5 2.5 0 0 0 .28 1.117 1.5 1.5 0 0 1-.083.761l-.032.134a1.1 1.1 0 0 0 .004.523l-.11.166c-.07 0-.025.008-.208-.052a1.1 1.1 0 0 1-.227-.636c.042-.48.27-.336-.033-1-.137-.305-.055-.378-.09-.629a2.2 2.2 0 0 0-.13-.532 9 9 0 0 1-.29-1.219 1.85 1.85 0 0 0-.42-.68.72.72 0 0 0-.452-.208.5.5 0 0 0-.16.034.23.23 0 0 0-.113.221c-.044.41-.008 1.285-.008 1.35a.4.4 0 0 1-.076.22c-.073.222-.336.725-.652 1.524-.096.245-.242.616-.163.764a8.3 8.3 0 0 0 .91 1.272 6 6 0 0 1 .498.577c.143.178.242.301.326.395a4 4 0 0 0 .835.556c.157.09.235.134.297.173.098.061.23.157.383.27a8 8 0 0 0 1.011.66l.15.077a4 4 0 0 1 1.246.814 1.3 1.3 0 0 0 .228.187l.12.083H7.645a7 7 0 0 0-.841-.482l-.153-.076a8.4 8.4 0 0 1-1.085-.705l-.084-.06a6 6 0 0 0-.278-.196l-.271-.156a4.3 4.3 0 0 1-.999-.69 8 8 0 0 1-.319-.38 6 6 0 0 0-.463-.546 8.5 8.5 0 0 1-1.05-1.454 1.62 1.62 0 0 1 .13-1.329z"/><path fill="none" d="M0 0h16v16H0z"/></svg>