<svg xmlns="http://www.w3.org/2000/svg" viewBox="0 0 32 32"><path d="M29.61 31.06c.104.316.219.626.342.94h-.748a11 11 0 0 1-.877-3.527 13 13 0 0 1 .111-1.869 25 25 0 0 0 .171-2.461 30 30 0 0 0-.586-4.82c-.053-.255-.108-.465-.157-.657l-.026-.101a10 10 0 0 1-.105-.395 9.1 9.1 0 0 1 .036-3.54c.172-1.087.71-4.754.363-6.265-.178-.773-.696-2.572-1.682-2.572a1.24 1.24 0 0 0-.605.188 2.1 2.1 0 0 0-.306 1.424 15.6 15.6 0 0 1 .061 2.888 10 10 0 0 1-.282 1.626c-.062.281-.122.547-.173.812a3 3 0 0 0-.034.234l-.024.207a3 3 0 0 1-.096.488.85.85 0 0 1-.794.651c-.583 0-.659-.559-.687-.77-.07-.481-.108-.975-.145-1.466-.035-.48-.067-.9-.118-1.318a22 22 0 0 0-.675-2.866c-.215-.752-.406-1.435-.499-1.92a12.6 12.6 0 0 0-1.022-3.317.99.99 0 0 0-.9-.529 1.333 1.333 0 0 0-1.315 1.322 4.2 4.2 0 0 0 .294 1.45l.158.431a11 11 0 0 1 .357 1.071 28 28 0 0 1 .538 3.99 14 14 0 0 0 .192 1.704 7 7 0 0 1 .089.717 1.6 1.6 0 0 1-.057.487 1 1 0 0 1-.078.202.34.34 0 0 1-.245.198h-.02c-.147 0-.209-.023-.248-.077a4.8 4.8 0 0 1-.672-1.503c-.112-.389-.197-.79-.278-1.177l-.038-.173a9 9 0 0 0-.087-.386 11.7 11.7 0 0 0-.947-2.455l-.194-.402a17.5 17.5 0 0 1-.908-2.063c-.092-.267-.18-.548-.265-.825l-.247-.766a7.6 7.6 0 0 0-.65-1.486 1.365 1.365 0 0 0-2.53.663 6.6 6.6 0 0 0 .436 1.362l.123.31a14 14 0 0 1 .503 1.367l.222.882c.331 1.299.809 3.169 1.065 3.931.022.077.066.188.12.324 0 0 .369.935.445 1.143.463 1.233.408 1.415.378 1.514a.634.634 0 0 1-.665.428 1.05 1.05 0 0 1-.61-.196 7 7 0 0 1-1.35-1.698c-.383-.59-.743-1.213-.997-1.651l-.145-.245c-.154-.273-.3-.489-.438-.695l-.214-.311c-.25-.373-.574-.954-.746-1.268a15 15 0 0 1-.238-.451l-.065-.124a19 19 0 0 0-.254-.477A6 6 0 0 0 9.87 6.14a1.6 1.6 0 0 0-1.187-.662 1.56 1.56 0 0 0-.746.214c-.153.086-.425.682-.193 1.645a15.6 15.6 0 0 0 1.16 2.812c.277.577 1.397 2.792 1.495 3.001a18 18 0 0 0 .99 1.73s.407.662.52.856a7.8 7.8 0 0 1 1.094 2.858 1.7 1.7 0 0 0 .173.497l.288.578a1.51 1.51 0 0 1 .14 1.326 4 4 0 0 1-.467.774 1.1 1.1 0 0 1-.81.504 7 7 0 0 1-1.57-.488l-.135-.056a11 11 0 0 0-1.29-.47 1 1 0 0 1-.264-.196 2 2 0 0 1-.151-.18l-.254-.31a4.5 4.5 0 0 0-1.948-1.42 2.8 2.8 0 0 0-.774-.103 2.36 2.36 0 0 0-1.17.261.58.58 0 0 0-.178.376.85.85 0 0 0 .034.446 5 5 0 0 0 .35.35l.464.439a1.4 1.4 0 0 0 .158.127l.168.114a1.14 1.14 0 0 1 .361.43 5.07 5.07 0 0 0 2.09 2.558c.491.265 1.231.74 1.771 1.086l.269.171a5.8 5.8 0 0 1 .906.788s.373.365.44.424a4 4 0 0 0 .468.375q.266.182.535.356l.517.33a11 11 0 0 1 1.036.761 10.3 10.3 0 0 0 1.978 1.385c.33.174.615.31.865.427l.363.172a4.6 4.6 0 0 1 .854.5A3.5 3.5 0 0 1 19.076 32H18.2a2.1 2.1 0 0 0-.424-.494 4 4 0 0 0-.735-.425l-.305-.146c-.29-.135-.587-.274-.938-.455A11.2 11.2 0 0 1 13.69 29a11 11 0 0 0-.78-.584 89 89 0 0 0-.795-.525 8.6 8.6 0 0 1-1.561-1.242 4.4 4.4 0 0 0-.694-.627l-.163-.101c-.542-.352-1.32-.849-1.83-1.12a5.68 5.68 0 0 1-2.395-2.884.65.65 0 0 0-.206-.212l-.16-.114a1.2 1.2 0 0 1-.177-.144l-.458-.43a8 8 0 0 1-.407-.41 1.4 1.4 0 0 1-.2-1.012 1.25 1.25 0 0 1 .486-.887 3.1 3.1 0 0 1 1.59-.388 3.5 3.5 0 0 1 .975.131 5.2 5.2 0 0 1 2.308 1.658l.334.41a1 1 0 0 0 .086.088 7.6 7.6 0 0 1 1.14.402l.217.088a7 7 0 0 0 1.34.445 2.1 2.1 0 0 0 .596-.855c.085-.187-.067-.559-.21-.862l-.11-.234a8 8 0 0 1-.16-.346 2.2 2.2 0 0 1-.18-.55 6.7 6.7 0 0 0-.931-2.49 24 24 0 0 1-1.606-2.736c-.175-.357-1.233-2.446-1.498-2.994a17 17 0 0 1-1.215-2.966c-.258-1.085-.02-2.14.556-2.453a2.3 2.3 0 0 1 1.133-.33 2.41 2.41 0 0 1 1.934 1.253 14 14 0 0 1 .83 1.377l.586 1.08a8 8 0 0 0 .432.724c.407.57.778 1.197 1.077 1.701 0 0 .487.809.663 1.085a6.6 6.6 0 0 0 1.214 1.58 1 1 0 0 0 .094.034l-.058-.17a19 19 0 0 0-.306-.874s-.508-1.329-.525-1.387c-.286-.854-.822-2.968-1.11-4.104l-.193-.753a12 12 0 0 0-.436-1.197l-.171-.42a5.5 5.5 0 0 1-.474-1.607A2.027 2.027 0 0 1 14.363 1a2.07 2.07 0 0 1 1.798 1.008 8.5 8.5 0 0 1 .701 1.593c.076.225.443 1.387.526 1.625a18 18 0 0 0 .904 2.057l.185.38a12.5 12.5 0 0 1 .964 2.473 29 29 0 0 0-.505-3.56 9 9 0 0 0-.308-.944l-.208-.565a4.5 4.5 0 0 1-.313-1.645 2.03 2.03 0 0 1 2.033-2.02 1.73 1.73 0 0 1 1.563.91 13.3 13.3 0 0 1 1.09 3.52c.088.45.27 1.098.463 1.784a24 24 0 0 1 .723 3.05l.132 1.595a13 13 0 0 0 .16 1.35l.021-.06-.013-.067a4 4 0 0 0 .069-.343l.084-.548c.047-.267.109-.541.17-.814a9.6 9.6 0 0 0 .271-1.537 15 15 0 0 0-.058-2.759 2.48 2.48 0 0 1 .67-2.138 1.94 1.94 0 0 1 .967-.284c1.513 0 2.18 2.195 2.398 3.14.366 1.6-.127 5.11-.356 6.544A8.4 8.4 0 0 0 28.449 18l.076.307c.083.303.149.551.214.873a30.5 30.5 0 0 1 .6 4.963 24 24 0 0 1-.167 2.459 14 14 0 0 0-.114 1.828 10.2 10.2 0 0 0 .551 2.63z"/><path fill="none" d="M0 0h32v32H0z"/></svg>