<svg xmlns="http://www.w3.org/2000/svg" viewBox="0 0 24 24"><path d="m20.206 21.427.185.573h-.566l-.187-.603-.063-.171c-.203-.545-.433-.775-.433-1.265a45 45 0 0 0 .195-4.722c-.056-.762-.025-1.491-.1-2.076-.062-.495-.111-.885-.111-1.09 0-.11-.013-.28-.031-.469h-.011l.004-.066-.007-.08.013.001c.013-.228.016-.519.048-.692a12.2 12.2 0 0 0 .247-3.632c-.118-.444-.46-1.477-1.106-1.477a.9.9 0 0 0-.398.11 1.1 1.1 0 0 0-.188.79 8 8 0 0 1 .041 1.69 5.3 5.3 0 0 1-.186.943c-.046.176-.086.33-.12.485l-.024.13-.016.122a1.3 1.3 0 0 1-.068.295.58.58 0 0 1-.558.398.484.484 0 0 1-.497-.477 12 12 0 0 1-.092-.806c-.029-.33-.05-.573-.083-.816-.059-.426-.162-.937-.27-1.483l-.027-.133c-.09-.431-.172-.84-.2-1.13a6.7 6.7 0 0 0-.456-1.985.67.67 0 0 0-.55-.36h-.02a.823.823 0 0 0-.913.633 2.05 2.05 0 0 0 .098.844l.076.264a6 6 0 0 1 .168.65 18 18 0 0 1 .076 1.835c.002.256.006.483.01.644a7 7 0 0 0 .13.986 4 4 0 0 1 .06.424.9.9 0 0 1-.04.297 1 1 0 0 1-.055.125.25.25 0 0 1-.189.13h-.013c-.108 0-.155-.016-.19-.055a2.7 2.7 0 0 1-.46-.888c-.067-.205-.12-.416-.173-.62l-.097-.392a6.3 6.3 0 0 0-.636-1.423l-.132-.233a10 10 0 0 1-.613-1.205c-.057-.14-.11-.289-.162-.434l-.184-.493a4 4 0 0 0-.434-.859.89.89 0 0 0-.761-.368.81.81 0 0 0-.89.732 3.6 3.6 0 0 0 .29.778l.081.18a8 8 0 0 1 .342.802l.15.514c.226.764.546 1.845.716 2.287q.024.063.073.17s.25.544.308.682c.313.722.277.835.256.906a.454.454 0 0 1-.476.275.8.8 0 0 1-.425-.117 4.3 4.3 0 0 1-.92-.998 21 21 0 0 1-.671-.963l-.098-.143a5 5 0 0 0-.277-.379l-.16-.206c-.143-.182-.334-.47-.505-.739-.052-.08-.374-.615-.374-.615a3.5 3.5 0 0 0-.471-.605 1.1 1.1 0 0 0-.782-.377 1.15 1.15 0 0 0-.493.123c-.092.043-.26.38-.11.914a8.2 8.2 0 0 0 .777 1.63c.186.335.384.674.567.986l.441.762a10 10 0 0 0 .665 1.004l.352.498a4.3 4.3 0 0 1 .743 1.68.9.9 0 0 0 .11.278l.194.336a.82.82 0 0 1 .094.81 2.3 2.3 0 0 1-.318.457.8.8 0 0 1-.566.305 5.3 5.3 0 0 1-1.066-.287 9 9 0 0 0-.957-.305.8.8 0 0 1-.188-.12 1 1 0 0 1-.108-.11l-.17-.18a3 3 0 0 0-1.3-.817 2 2 0 0 0-.515-.06 1.8 1.8 0 0 0-.774.15.27.27 0 0 0-.105.192.43.43 0 0 0 .017.232c.038.04.13.117.228.197l.313.256q.054.042.104.073l.113.064a.76.76 0 0 1 .255.264 3.05 3.05 0 0 0 1.394 1.475c.33.156.83.43 1.194.634l.183.1a4 4 0 0 1 .616.462l.294.248a3 3 0 0 0 .314.213c.118.073.708.403.708.403a8 8 0 0 1 .7.443c.384.28.756.69 1.23 1.014.189.132.354.239.499.333l.251.162a3.3 3.3 0 0 1 .519.395c.251.25.406.234.559.747l.168.562h-.46l-.247-.56c-.148-.334-.256-.254-.416-.418a2.7 2.7 0 0 0-.437-.33l-.186-.12c-.203-.131-.374-.24-.573-.377-.462-.319-.749-.658-1.25-1.024a8 8 0 0 0-.523-.339l-.537-.307A5.7 5.7 0 0 1 7.55 17.8a3 3 0 0 0-.463-.362l-.108-.06c-.403-.224-.9-.5-1.233-.65a3.5 3.5 0 0 1-1.629-1.693.4.4 0 0 0-.129-.113l-.106-.066a.7.7 0 0 1-.124-.087l-.309-.249a4 4 0 0 1-.273-.242.823.823 0 0 1 .197-1.163 2.36 2.36 0 0 1 1.083-.23 2.8 2.8 0 0 1 .665.078 3.6 3.6 0 0 1 1.567.972l.158.165.091.11a7 7 0 0 1 .815.25l.123.046a5.4 5.4 0 0 0 .898.256 1.5 1.5 0 0 0 .376-.48c.054-.106-.093-.377-.143-.468l-.072-.134a2 2 0 0 1-.11-.203 1.2 1.2 0 0 1-.127-.33 3.5 3.5 0 0 0-.618-1.435 14 14 0 0 1-1.087-1.598c-.111-.196-.862-1.481-1.01-1.745a9 9 0 0 1-.82-1.735 1.25 1.25 0 0 1 .39-1.472 1.8 1.8 0 0 1 .774-.193 1.69 1.69 0 0 1 1.324.74 7 7 0 0 1 .559.8l.4.635a4 4 0 0 0 .29.417c.263.324.51.677.708.967 0 0 .346.495.465.658a4 4 0 0 0 .807.91l-.014-.033a10 10 0 0 0-.205-.507s-.344-.778-.355-.812c-.198-.51-.584-1.828-.749-2.39l-.13-.44a7 7 0 0 0-.309-.728l-.098-.207a3 3 0 0 1-.324-.954A1.323 1.323 0 0 1 10.133 2.8a1.47 1.47 0 0 1 1.234.6 4.5 4.5 0 0 1 .478.935l.176.47c.065.184.118.33.178.475a9.4 9.4 0 0 0 .605 1.192l.127.224a7.5 7.5 0 0 1 .598 1.267l-.005-.327c-.008-.643-.018-1.445-.069-1.75a4 4 0 0 0-.154-.592l-.09-.316a2.3 2.3 0 0 1-.099-.995 1.3 1.3 0 0 1 1.349-1.05 1.4 1.4 0 0 1 .181.011 1.24 1.24 0 0 1 1.007.665 7 7 0 0 1 .495 2.133c.032.263.105.638.19 1.066l.064.316c.103.506.19.935.246 1.336l.088.929q.048.47.084.67a.7.7 0 0 1 .018-.16l.058-.323a8 8 0 0 1 .116-.473 5 5 0 0 0 .18-.89 7.5 7.5 0 0 0-.039-1.597 1.35 1.35 0 0 1 .47-1.284 1.5 1.5 0 0 1 .664-.168c1.04 0 1.496 1.296 1.643 1.854a12 12 0 0 1-.24 3.829c-.034.183-.027.535-.048.74.017.188.028.36.028.485 0 .17.05.55.112 1.026.078.631.044 1.349.1 2.103a42 42 0 0 1-.197 4.81 7.3 7.3 0 0 0 .502 1.353z"/><path fill="none" d="M0 0h24v24H0z"/></svg>