<svg xmlns="http://www.w3.org/2000/svg" viewBox="0 0 24 24"><path d="m20.206 21.427.185.573h-.566l-.187-.603-.063-.171c-.203-.545-.433-.775-.433-1.265a45 45 0 0 0 .195-4.722c-.056-.762-.025-1.491-.1-2.076-.062-.495-.112-.885-.112-1.09a7.8 7.8 0 0 0-.405-2.233 1.54 1.54 0 0 0-.805-1.014 2.1 2.1 0 0 0-.68-.12c-.396 0-.408.084-.3.764.047.293.108.66.118.703.198.872.3 1.204.07 1.204-.146 0-.47-.172-.5-.372-.012-.086-.331-1.839-.371-2.08A2.9 2.9 0 0 0 15.8 7.8a1.2 1.2 0 0 0-.841-.503.71.71 0 0 0-.646.198 2 2 0 0 0-.169.283c.014.003.118.535.214.852.097.319.271 1.548.357 1.676a1 1 0 0 1 .15.645.15.15 0 0 1-.099.061 1.2 1.2 0 0 1-.53-.364c-.122-.156-.273-1.43-.426-1.89-.04-.12-.085-.272-.134-.435a5.2 5.2 0 0 0-.444-1.185 1.4 1.4 0 0 0-.835-.432.87.87 0 0 0-.829.344 1.36 1.36 0 0 0-.246.834 8.5 8.5 0 0 0 .164 1.391l.045.202a7 7 0 0 0 .401 1.204.17.17 0 0 1 .015.13c-.056.112-.275.116-.299.116a.3.3 0 0 1-.205-.062 7.4 7.4 0 0 1-.473-1.383c-.12-.533-.304-1.681-.645-1.748a1.3 1.3 0 0 0-.254-.025 1.02 1.02 0 0 0-.654.212 2.4 2.4 0 0 0-.742.998 5.8 5.8 0 0 0 .1 1.77c.712 2.656.774 2.617.796 2.788a2.1 2.1 0 0 0 .1.67c.07.203.233.645.251.696a2 2 0 0 1-.119.753l-.038.154a5 5 0 0 0-.114.624.082.082 0 0 1-.147.065 1.2 1.2 0 0 1-.241-.65 1.4 1.4 0 0 1 .071-.297.77.77 0 0 0 .043-.522 4 4 0 0 0-.163-.39 3 3 0 0 1-.145-.354 2 2 0 0 1-.067-.336 2.6 2.6 0 0 0-.16-.64 7 7 0 0 1-.229-.869 13 13 0 0 0-.287-1.431.7.7 0 0 0-.5-.282.6.6 0 0 0-.23.047.37.37 0 0 0-.205.377 37 37 0 0 0-.127 1.393.37.37 0 0 1-.071.192.4.4 0 0 0-.06.13 34 34 0 0 1-.385 1.269l-.08.256c-.032.105-.08.224-.129.347-.135.34-.303.761-.186.977a9.5 9.5 0 0 0 1.087 1.495 7 7 0 0 1 .57.65c.137.17.273.337.386.46a4.7 4.7 0 0 0 1.004.664c.131.074.252.14.342.196.112.069.265.178.442.305a11 11 0 0 0 .994.662c.124.071.188.101.376.196.569.28 1.336.705 1.609.85A3.9 3.9 0 0 1 14 22h-.717s-.341-.272-.756-.573a10 10 0 0 0-1.21-.658l-.18-.088a10 10 0 0 1-1.25-.8c-.185-.133-.325-.235-.43-.3-.06-.037-.32-.183-.32-.183a5 5 0 0 1-1.139-.77 9 9 0 0 1-.367-.434 8 8 0 0 0-.554-.64 10 10 0 0 1-1.202-1.64 1.73 1.73 0 0 1 .16-1.431 6 6 0 0 0 .115-.312l.061-.194c.1-.32.367-1.169.39-1.278a1 1 0 0 1 .127-.302c.011-.164.069-.876.12-1.311a.91.91 0 0 1 .547-.874 1.2 1.2 0 0 1 .429-.086 1 1 0 0 1 .34.057 5.3 5.3 0 0 1-.03-1.314 2.74 2.74 0 0 1 .94-1.367 1.6 1.6 0 0 1 .988-.365 1.1 1.1 0 0 1 .47.097.84.84 0 0 1 .283.232 2.2 2.2 0 0 1 .283-.684 1.37 1.37 0 0 1 1.299-.617 1.87 1.87 0 0 1 1.258.634 1.6 1.6 0 0 1 .214.392 1.23 1.23 0 0 1 1.165-.43 1.74 1.74 0 0 1 1.218.74 4.6 4.6 0 0 1 .343.756.98.98 0 0 1 .64-.192 2.6 2.6 0 0 1 .905.17 2.24 2.24 0 0 1 1.087 1.413 8.2 8.2 0 0 1 .44 2.423c0 .17.048.55.11 1.026.08.631.045 1.349.1 2.103a42 42 0 0 1-.196 4.81 7.3 7.3 0 0 0 .502 1.353z"/><path fill="none" d="M0 0h24v24H0z"/></svg>