<svg xmlns="http://www.w3.org/2000/svg" viewBox="0 0 16 16"><path d="M6.027 10.47a1.4 1.4 0 0 0 .24-.329.7.7 0 0 0-.112-.278 2.2 2.2 0 0 1-.255-.56c-.14-.928-.742-1.292-1.341-2.372-1.135-2.01-1.388-2.224-1.458-2.477-.396-1.454 1.1-1.948 2.032-.816.308.361.796.935.988 1.167.338.412.72.865 1.032 1.29.125.169.227.297.31.395 0 0-.179-.732-.188-.76-.234-.605-.46-1.295-.81-2.156a5 5 0 0 1-.44-1.469.84.84 0 0 1 .386-.815 1.37 1.37 0 0 1 .717-.19 1.26 1.26 0 0 1 1.053.515 3.7 3.7 0 0 1 .388.758l.141.275c.05.146.091.26.139.372.007.018-.076-.116.769 1.673a8 8 0 0 0-.11-1.12 4.7 4.7 0 0 1-.213-1.558 1.226 1.226 0 0 1 1.26-.91 2 2 0 0 1 .154.009 1.07 1.07 0 0 1 .871.58 5.6 5.6 0 0 1 .4 1.719c.025.205.082.5.15.835l.05.252c.082.401.15.743.195 1.062l.064.666.044-.168a4 4 0 0 0 .14-.687 6 6 0 0 0-.03-1.246.94.94 0 0 1 .422-.985A1.3 1.3 0 0 1 13.582 3a1.39 1.39 0 0 1 1.377 1.41 14.7 14.7 0 0 1-.175 3.073 3.3 3.3 0 0 0-.026 1.446l.04.139c.045.14.08.257.118.407a16 16 0 0 1-.079 2.32 10 10 0 0 1-.09 1.149 5 5 0 0 0-.06.82 3.5 3.5 0 0 0 .866 1.542A5.5 5.5 0 0 1 16 16h-.72c-.3-.704-1.158-1.375-1.213-2.2a5.4 5.4 0 0 1 .06-.884 10 10 0 0 0 .09-1.122c0-.84.122-2.058.09-2.194a6 6 0 0 0-.096-.341 2 2 0 0 1-.056-.188 3.7 3.7 0 0 1 .016-1.686 10.2 10.2 0 0 0 .097-2.836c-.026-.265-.227-.949-.686-.949a.4.4 0 0 0-.274.077.66.66 0 0 0-.098.53 5 5 0 0 1 .033 1.209 4 4 0 0 1-.15.757c-.037.143-.068.263-.095.386l-.03.192a1 1 0 0 1-.06.254.56.56 0 0 1-.522.375c-.254.015-.427-.142-.5-.515a5 5 0 0 1-.061-.552 12 12 0 0 0-.069-.676 20 20 0 0 0-.199-1.101c-.07-.357-.165-.78-.195-1.076a5.2 5.2 0 0 0-.353-1.543.44.44 0 0 0-.361-.232c-.14 0-.626.01-.742.378a1.7 1.7 0 0 0-.02.674c.1.79.196 1.276.286 2.067.177 1.546.565 1.53.342 1.94a.3.3 0 0 1-.46.078 6.4 6.4 0 0 1-.7-1.344 20 20 0 0 0-.848-2.066 9.7 9.7 0 0 0-.849-1.485.61.61 0 0 0-.527-.251.554.554 0 0 0-.612.488 21 21 0 0 0 .915 2.46l.63 1.69c.15.346.267.927-.329.905-.203-.038-.396-.043-.968-.813-.083-.11-1.364-1.725-1.461-1.878a1.63 1.63 0 0 0-1.28-.86c-.894 0-.212.763 1.086 2.995a8 8 0 0 0 .522.787l.28.397a3.45 3.45 0 0 1 .603 1.368.6.6 0 0 0 .077.188l.153.266a.74.74 0 0 1 .076.733 2 2 0 0 1-.266.38.72.72 0 0 1-.516.27 4.2 4.2 0 0 1-.875-.23c-.824-.292-.849-.225-1.032-.44a1.75 1.75 0 0 0-.737-.568 2.2 2.2 0 0 0-.601-.101c-.138-.01-.895.32-.763.64.056.036.48.35.763.529.412.28.245.626 1.099 1.018a13.3 13.3 0 0 1 2.067 1.106c.348.21.739.392 1.124.674 1.7 1.238 2.177.598 2.858 2.113l.059.13-.11.077h-.491c-.535-.883-.352-.642-1.552-1.171a12 12 0 0 1-1.553-.96 14.5 14.5 0 0 0-2.681-1.449 2.1 2.1 0 0 1-1.23-1.02 7 7 0 0 1-.935-.685c-.236-.24-.085-.947.42-1.28a1.47 1.47 0 0 1 .909-.314 2 2 0 0 1 .871.153 2.9 2.9 0 0 1 .895.718c.284.006 1.065.405 1.482.477z"/><path fill="none" d="M0 0h16v16H0z"/></svg>