<svg xmlns="http://www.w3.org/2000/svg" viewBox="0 0 32 32"><path d="M29.617 31.587c.045.14.098.276.149.413h-.91c-.049-.14-.109-.271-.153-.413l-.015-.05-.104-.28c-.331-.891-.707-1.267-.707-2.068a66 66 0 0 0 .418-7.726 762 762 0 0 1-.246-5.182 10.8 10.8 0 0 0-.727-3.213 3.53 3.53 0 0 0-1.318-1.987 2.5 2.5 0 0 0-.948-.195.68.68 0 0 0-.527.154c-.133.177-.116.254-.052.5.213.845.07.926.245 1.534a7 7 0 0 1 .308 1.865.3.3 0 0 1-.192.105.86.86 0 0 1-.72-.609c-.018-.14-.13-.757-.257-1.445-.134-.742-.249-1.025-.314-1.418a5.2 5.2 0 0 0-.738-1.942 2.17 2.17 0 0 0-1.478-.823 2 2 0 0 0-.283-.021 1.19 1.19 0 0 0-.937.344 3 3 0 0 0-.275.464c.021.004.192.976.35 1.494.16.53.406 2.09.547 2.303a1.63 1.63 0 0 1 .245 1.056.24.24 0 0 1-.161.1 1.93 1.93 0 0 1-.868-.596 14.7 14.7 0 0 1-.66-2.653c-.336-1.626-.476-2.213-.946-2.751a2.4 2.4 0 0 0-1.366-.707 1.42 1.42 0 0 0-1.356.563 2.23 2.23 0 0 0-.403 1.365 14 14 0 0 0 .396 2.1 14.3 14.3 0 0 0 .73 2.464.28.28 0 0 1 .024.213c-.092.184-.45.189-.489.189a.5.5 0 0 1-.336-.101 5.4 5.4 0 0 1-.493-1.387 10 10 0 0 1-.28-1.039c-.197-.872-.627-2.376-1.184-2.484a1.8 1.8 0 0 0-1.484.306c-.465.379-1.077 1.03-1.115 1.432a5.1 5.1 0 0 0 .128 2.156c.191.714.358 1.973.65 3.264.048.207.254.622.355.92a6 6 0 0 1 .233.779c.005.053.006.115.011.186a2.8 2.8 0 0 0 .153.91c.114.331.213.594.286.794q.081.22.125.345a3.2 3.2 0 0 1-.195 1.231l-.062.253a2.6 2.6 0 0 0-.022 1.02.14.14 0 0 1-.079.152l-.038.01a.13.13 0 0 1-.125-.056 1.96 1.96 0 0 1-.394-1.064 2.3 2.3 0 0 1 .116-.484 1.26 1.26 0 0 0 .07-.855 7 7 0 0 0-.266-.64 5 5 0 0 1-.237-.577 3 3 0 0 1-.11-.55 3.7 3.7 0 0 0-.16-1.047 11 11 0 0 1-.476-1.52 15.4 15.4 0 0 0-.67-2.416 1.12 1.12 0 0 0-.819-.46 1 1 0 0 0-.377.076.61.61 0 0 0-.334.617 60 60 0 0 0-.208 2.352.6.6 0 0 1-.116.313.7.7 0 0 0-.097.214 44 44 0 0 1-.63 2.175l-.13.42a8 8 0 0 1-.213.568c-.22.555-.495 1.245-.303 1.598a15.6 15.6 0 0 0 1.778 2.446 10 10 0 0 1 .932 1.065c.225.276.446.55.632.751a7.6 7.6 0 0 0 1.642 1.086c.215.121.412.229.56.32.184.114.433.292.722.5a15 15 0 0 0 1.958 1.261l.284.142a7.6 7.6 0 0 1 2.323 1.488q.343.396.67.796h-1.102c-.151-.14-.293-.281-.462-.413-.981-.763-1.714-.78-4.157-2.53a8.3 8.3 0 0 0-1.227-.79 8 8 0 0 1-1.862-1.26c-.18-.193-.388-.447-.601-.71a12 12 0 0 0-.906-1.046 16 16 0 0 1-1.966-2.686 1.65 1.65 0 0 1-.145-1.065 6 6 0 0 1 .404-1.275 10 10 0 0 0 .19-.51l.1-.317c.162-.523.6-2.013.637-2.19a1.6 1.6 0 0 1 .208-.495c.019-.268.113-1.407.195-2.119a1.49 1.49 0 0 1 .897-1.43 2.5 2.5 0 0 1 .801-.14 1.7 1.7 0 0 1 .555.094 5.4 5.4 0 0 1-.012-1.738 3.8 3.8 0 0 1 1.438-2.037 2.63 2.63 0 0 1 1.616-.598 1.8 1.8 0 0 1 .77.16 1.7 1.7 0 0 1 .563.378 4 4 0 0 1 .463-1.218 2.08 2.08 0 0 1 2.026-1.01 3.06 3.06 0 0 1 2.057 1.038 2.7 2.7 0 0 1 .351.64 2.05 2.05 0 0 1 1.663-.732 3 3 0 0 1 .406.029 2.85 2.85 0 0 1 1.993 1.21 6 6 0 0 1 .562 1.074A1.6 1.6 0 0 1 25.056 10a3.4 3.4 0 0 1 1.316.278 4.1 4.1 0 0 1 1.78 2.476 10.8 10.8 0 0 1 .682 3.526c0 .022.338 5.019.346 5.119a64 64 0 0 1-.421 7.87 12 12 0 0 0 .82 2.214c.005.007.022.057.038.104"/><path fill="none" d="M0 0h32v32H0z"/></svg>