<?xml version="1.0" encoding="UTF-8"?><svg id="icons" xmlns="http://www.w3.org/2000/svg" viewBox="0 0 16 16"><defs><style>.cls-1{fill:none;}</style></defs><rect class="cls-1" width="16" height="16"/><path d="M7.47168,4h-2.47168v8h1v-3h1.41016c1.10645,0,2.10449-.6875,2.42676-1.67188.26172-.79883.1377-1.63477-.33984-2.29395-.46973-.64746-1.22656-1.03418-2.02539-1.03418ZM8.88574,7.01758c-.18945.57812-.7959.98242-1.47559.98242h-1.41016v-3h1.47168c.47949,0,.93359.23242,1.21484.62109.28809.39648.36035.90527.19922,1.39648ZM15.99,4.5v3.5l-.99-1v-2.5c0-1.37891-1.12109-2.5-2.5-2.5H3.5c-1.37891,0-2.5,1.12109-2.5,2.5v7c0,1.37891,1.12109,2.5,2.5,2.5h3.5v1h-3.5c-1.92969,0-3.5-1.57031-3.5-3.5v-7C0,2.57031,1.57031,1,3.5,1h9c1.92969,0,3.49,1.57031,3.49,3.5ZM16.00024,12.55847v-1.117l-1.21692-.47113c-.0332-.08972-.07068-.17737-.11212-.26276l.53467-1.16302-.77118-.76471-1.19354.52673c-.0863-.03973-.17487-.07538-.26544-.10681l-.44373-1.19977h-1.08667l-.47095,1.2204c-.08978.03326-.17749.0708-.26294.11224l-1.16302-.53467-.76465.77118.52673,1.19348c-.03973.08636-.07544.17493-.10687.2655l-1.19977.44373v1.05627l1.19977.44373c.03143.09058.06714.17914.10687.26544l-.52673,1.19348.76465.77124,1.16302-.53473c.08545.0415.17316.07898.26294.11224l.47095,1.22046h1.08667l.44373-1.19977c.09058-.03143.17914-.06714.26544-.10687l1.19354.52673.77118-.76471-.53467-1.16296c.04144-.08539.07892-.17303.11212-.26276l1.21692-.47119ZM14.18268,12.39441c-.05658.31531-.17981.60748-.35455.86139l.36493.79303-.16119.15924-.7674-.3858c-.25336.17621-.54529.3009-.86047.35901l-.30249.81873h-.22614l-.26959-.81683c-.31543-.05652-.60767-.17969-.86176-.35449l-.7926.36475-.1593-.16052.38525-.76801c-.17596-.25299-.3006-.54437-.35876-.85907l-.81775-.30389v-.20386l.81775-.30396c.05817-.31464.1828-.60602.35876-.85907l-.38525-.76801.1593-.16052.7926.36475c.25409-.17474.54633-.29797.86176-.35449l.26959-.81677h.22614l.30249.81873c.31519.05804.60712.1828.86047.35901l.7674-.38586.16119.1593-.36493.79297c.17474.25397.29797.54614.35455.86139l.81561.27087v.24719l-.81561.27081ZM13,12c0,.55225-.44769,1-1,1s-1-.44775-1-1c0-.55231.44769-1,1-1s1,.44769,1,1Z"/></svg>