<svg xmlns="http://www.w3.org/2000/svg" viewBox="0 0 32 32"><path fill="none" d="M0 0h32v32H0z"/><path d="M30 24v.999h-5V30h-1v-5.001h-5V24h5v-5h1v5zM24.5 5h-17c-3.032 0-5.49 2.468-5.49 5.5L2 21.5C2 24.532 4.468 27 7.5 27H18v-1H7.5A4.505 4.505 0 0 1 3 21.5v-11C3 8.019 5.019 6 7.5 6h17c2.481 0 4.5 2.019 4.5 4.5V22h1V10.5C30 7.468 27.532 5 24.5 5m-4.61 4.657a4.54 4.54 0 0 1 .922 3.804C20.391 15.51 18.474 17 16.254 17H13v6.903h-1V8h4.429c1.342 0 2.603.604 3.462 1.657zm-.775.632A3.46 3.46 0 0 0 16.43 9H13v7h3.254c1.747 0 3.253-1.152 3.58-2.74a3.55 3.55 0 0 0-.719-2.97z"/></svg>