<?xml version="1.0" encoding="UTF-8"?><svg id="icons" xmlns="http://www.w3.org/2000/svg" viewBox="0 0 32 32"><defs><style>.cls-1{fill:none;}</style></defs><rect class="cls-1" width="32" height="32"/><path d="M7.5,26h7.5v1h-7.5c-3.03223,0-5.5-2.46777-5.5-5.5v-11c0-3.03223,2.46777-5.5,5.5-5.5h17c3.03223,0,5.5,2.46777,5.5,5.5v5.5h-1v-5.5c0-2.48145-2.01855-4.5-4.5-4.5H7.5c-2.48145,0-4.5,2.01855-4.5,4.5v11c0,2.48145,2.01855,4.5,4.5,4.5ZM16.42871,8c1.3418,0,2.60352.60352,3.46191,1.65723.86523,1.0625,1.20215,2.44922.92188,3.80371-.42188,2.05078-2.33887,3.53906-4.55859,3.53906h-3.25391v6.90332h-1v-15.90332h4.42871ZM19.11523,10.28906c-.66797-.81934-1.64648-1.28906-2.68652-1.28906h-3.42871v7h3.25391c1.74707,0,3.25293-1.15234,3.58008-2.74023.21777-1.05957-.04395-2.14258-.71875-2.9707ZM26.99,23.9999c0,1.6568-1.33314,2.99986-2.98988,2.99986s-2.99994-1.34302-2.99994-2.99982,1.34314-2.99994,2.99994-2.99994,2.98988,1.3431,2.98988,2.9999ZM25.99994,23.99994c0-1.10449-.89532-1.99994-1.99982-1.99994s-1.99988.89545-1.99988,1.99994.89539,1.99982,1.99988,1.99982,1.99982-.89532,1.99982-1.99982ZM29.49292,26.69611l.96527,2.14905-1.56555,1.57642-2.06604-.9494-.84851.31842-.83771,2.20154-2.22223.00787-.78918-2.13025-.82483-.37683-2.14911.96527-1.57642-1.56555.9494-2.06604-.31842-.84851-2.20148-.83771-.00793-2.22125,2.13031-.78918.37677-.82581-.96527-2.14911,1.56561-1.57642,2.06598.9494.84857-.31842.83765-2.20148,2.22125-.00793.78925,2.13031.82581.37677,2.14905-.96527,1.57642,1.56561-.9494,2.06598.31842.84857,2.20154.83765.00787,2.22223-2.13025.78925-.37683.82483ZM29.28674,28.60858l-.87469-1.948.72223-1.55151,1.86523-.69214-.00323-.89636-1.99512-.75964-.58813-1.60693.83118-1.80847-.63623-.63208-1.94519.87329-1.55524-.72083-.6908-1.86572-.89636.00372-.75867,1.99414-1.60791.5896-1.8089-.83167-.63159.63574.87415,1.94519-.72125,1.55524-1.86572.69214.00323.89545,1.99512.75964.58862,1.60699-.83118,1.80933.63574.63116,1.94525-.87323,1.55475.72168.69073,1.86389.89685-.00275.75867-1.9942,1.60791-.5896,1.80939.83173.63116-.6358Z"/></svg>