<?xml version="1.0" encoding="UTF-8"?><svg id="icons" xmlns="http://www.w3.org/2000/svg" viewBox="0 0 32 32"><defs><style>.cls-1{fill:none;}</style></defs><rect class="cls-1" width="32" height="32"/><path d="M24.5,27H7.5c-3.03223,0-5.5-2.46777-5.5-5.5v-11c0-3.03223,2.46777-5.5,5.5-5.5h17c3.03223,0,5.5,2.46777,5.5,5.5v11c0,3.03223-2.46777,5.5-5.5,5.5ZM7.5,6c-2.48145,0-4.5,2.01855-4.5,4.5v11c0,2.48145,2.01855,4.5,4.5,4.5h17c2.48145,0,4.5-2.01855,4.5-4.5v-11c0-2.48145-2.01855-4.5-4.5-4.5H7.5ZM13,23.90332h-1v-15.90332h4.42871c1.3418,0,2.60352.60352,3.46191,1.65723.86523,1.0625,1.20215,2.44922.92187,3.80371-.42187,2.05078-2.33886,3.53906-4.55859,3.53906h-3.25391v6.90332ZM13,16h3.25391c1.74707,0,3.25293-1.15234,3.58008-2.74023.21777-1.05957-.04395-2.14258-.71875-2.9707-.66797-.81934-1.64648-1.28906-2.68652-1.28906h-3.42871v7Z"/></svg>