<?xml version="1.0" encoding="UTF-8"?><svg id="icons" xmlns="http://www.w3.org/2000/svg" viewBox="0 0 16 16"><defs><style>.cls-1{fill:none;}</style></defs><path d="M12.5,15H3.5c-1.92969,0-3.5-1.57031-3.5-3.5v-7C0,2.57031,1.57031,1,3.5,1h9c1.92969,0,3.49,1.57031,3.49,3.5l.01,7c0,1.92969-1.57031,3.5-3.5,3.5ZM3.5,2c-1.37891,0-2.5,1.12109-2.5,2.5v7c0,1.37891,1.12109,2.5,2.5,2.5h9c1.37891,0,2.5-1.12109,2.5-2.5v-7c0-1.37891-1.12109-2.5-2.5-2.5H3.5ZM7,12h-1V4h2.47168c.79883,0,1.55566.38672,2.02539,1.03418.47754.65918.60156,1.49512.33984,2.29395-.32227.98438-1.32031,1.67188-2.42676,1.67188h-1.41016v3ZM7,8h1.41016c.67969,0,1.28613-.4043,1.47559-.98242.16113-.49121.08887-1-.19922-1.39648-.28125-.38867-.73535-.62109-1.21484-.62109h-1.47168v3Z"/><rect class="cls-1" width="16" height="16"/></svg>