<?xml version="1.0" encoding="UTF-8"?><svg id="icons" xmlns="http://www.w3.org/2000/svg" viewBox="0 0 16 16"><defs><style>.cls-1{fill:none;}</style></defs><rect class="cls-1" width="16" height="16"/><path d="M10.83691,7.32812c.26172-.79883.1377-1.63477-.33984-2.29395-.46973-.64746-1.22656-1.03418-2.02539-1.03418h-2.47168v8h1v-3h1.41016c1.10645,0,2.10449-.6875,2.42676-1.67188ZM9.88574,7.01758c-.18945.57812-.7959.98242-1.47559.98242h-1.41016v-3h1.47168c.47949,0,.93359.23242,1.21484.62109.28809.39648.36035.90527.19922,1.39648ZM15.99,4.5l.01,6.5h-1v-6.5c0-1.37891-1.12109-2.5-2.5-2.5H3.5c-1.37891,0-2.5,1.12109-2.5,2.5v7c0,1.37891,1.12109,2.5,2.5,2.5h5.5v1H3.5c-1.92969,0-3.5-1.57031-3.5-3.5v-7C0,2.57031,1.57031,1,3.5,1h9c1.92969,0,3.49,1.57031,3.49,3.5ZM13,12h3v1h-3v3h-1v-3h-3v-1h3v-3h1v3Z"/></svg>