<?xml version="1.0" encoding="UTF-8"?><svg id="icons" xmlns="http://www.w3.org/2000/svg" viewBox="0 0 24 24"><defs><style>.cls-1{fill:none;}</style></defs><rect class="cls-1" width="24" height="24"/><path d="M18.5,21H5.5c-2.48145,0-4.5-2.01855-4.5-4.5V7.5c0-2.48145,2.01855-4.5,4.5-4.5h13c2.48145,0,4.5,2.01855,4.5,4.5v9c0,2.48145-2.01855,4.5-4.5,4.5ZM5.5,4c-1.92969,0-3.5,1.57031-3.5,3.5v9c0,1.92969,1.57031,3.5,3.5,3.5h13c1.92969,0,3.5-1.57031,3.5-3.5V7.5c0-1.92969-1.57031-3.5-3.5-3.5H5.5ZM10,18h-1V6h3.45703c1.03711,0,2.01562.45605,2.68262,1.25195.66699.79492.94531,1.8457.76172,2.88184-.28906,1.63379-1.83887,2.86621-3.60449,2.86621h-2.29688v5ZM10,12h2.29688c1.28809,0,2.41406-.87695,2.62012-2.04004.13281-.75586-.05957-1.48926-.54297-2.06543-.47754-.56836-1.17578-.89453-1.91699-.89453h-2.45703v5Z"/></svg>