<svg xmlns="http://www.w3.org/2000/svg" viewBox="0 0 16 16"><path d="M12.5 15h-9C1.57 15 0 13.43 0 11.5v-7C0 2.57 1.57 1 3.5 1h9c1.93 0 3.49 1.57 3.49 3.5l.01 7c0 1.93-1.57 3.5-3.5 3.5m-9-13A2.5 2.5 0 0 0 1 4.5v7C1 12.879 2.121 14 3.5 14h9c1.379 0 2.5-1.121 2.5-2.5v-7C15 3.121 13.879 2 12.5 2zM7 12H6V4h2.472a2.51 2.51 0 0 1 2.025 1.034c.478.66.602 1.495.34 2.294C10.515 8.313 9.517 9 8.41 9H7zm0-4h1.41c.68 0 1.286-.404 1.476-.982.16-.492.089-1-.2-1.397A1.5 1.5 0 0 0 8.473 5H7z"/><path fill="none" d="M0 0h16v16H0z"/></svg>