<svg xmlns="http://www.w3.org/2000/svg" viewBox="0 0 16 16"><path fill="none" d="M0 0h16v16H0z"/><path d="M7.472 4H5v8h1V9h1.41c1.107 0 2.105-.688 2.427-1.672.262-.799.138-1.635-.34-2.294A2.51 2.51 0 0 0 7.472 4m1.414 3.018C8.696 7.596 8.09 8 7.41 8H6V5h1.472c.48 0 .933.232 1.215.621.288.397.36.905.199 1.397M15.99 4.5V8L15 7V4.5C15 3.121 13.879 2 12.5 2h-9A2.5 2.5 0 0 0 1 4.5v7C1 12.879 2.121 14 3.5 14H7v1H3.5C1.57 15 0 13.43 0 11.5v-7C0 2.57 1.57 1 3.5 1h9c1.93 0 3.49 1.57 3.49 3.5m.01 8.058v-1.117l-1.217-.47a3 3 0 0 0-.112-.263l.535-1.163-.771-.765-1.194.527a3 3 0 0 0-.265-.107L12.532 8h-1.087l-.47 1.22a3 3 0 0 0-.264.113l-1.163-.535-.764.771.526 1.194a3 3 0 0 0-.106.265l-1.2.444v1.056l1.2.444q.047.136.106.265l-.526 1.194.764.771 1.163-.535q.13.063.263.113l.471 1.22h1.087l.444-1.2q.136-.047.265-.107l1.194.527.77-.765-.534-1.163q.063-.128.112-.262zm-1.817-.164c-.057.316-.18.608-.355.862l.365.793-.161.16-.768-.387a2.2 2.2 0 0 1-.86.36l-.302.818h-.227l-.27-.817a2.2 2.2 0 0 1-.861-.354l-.793.364-.159-.16.385-.768a2.2 2.2 0 0 1-.358-.86L9 12.103v-.204l.818-.304c.058-.315.182-.606.358-.859l-.385-.768.16-.16.792.364c.254-.174.546-.298.862-.354l.27-.817h.226l.302.819c.315.058.607.183.86.359l.768-.386.161.16-.365.792c.175.254.298.546.355.862l.815.27v.248zM13 12a1 1 0 1 1-2 0 1 1 0 0 1 2 0"/></svg>