<?xml version="1.0" encoding="UTF-8"?><svg id="icons" xmlns="http://www.w3.org/2000/svg" viewBox="0 0 24 24"><defs><style>.cls-1{fill:none;}</style></defs><rect class="cls-1" width="24" height="24"/><path d="M18,16c-1.10455,0-2,.89539-2,2,0,1.10455.89545,2,2,2s2-.89545,2-2c0-1.10461-.89545-2-2-2ZM18,19c-.55231,0-1-.44775-1-1,0-.55231.44769-1,1-1s1,.44769,1,1c0,.55225-.44769,1-1,1ZM24,18.80188v-1.6496l-1.65967-.63605-.23553-.65344.70471-1.53778-1.16571-1.16663-1.62396.724-.62775-.29602-.59021-1.58636h-1.6496l-.63599,1.65967-.65344.23553-1.54242-.70935-1.16663,1.16669.72766,1.62756-.2951.62781-1.58636.59021v1.6496l1.65967.63599.23553.65344-.70929,1.54236,1.16663,1.16669,1.62762-.72766.62775.2951.59021,1.58636h1.6496l.63599-1.65973.65344-.23553,1.54242.70935,1.16205-1.17029-.724-1.62396.29602-.62775,1.58636-.59021ZM21.76025,21.31409l-.41034.41296-1.28076-.58844-1.20569.4339-.54828,1.42749h-.58148l-.49066-1.31921-1.16028-.5448-1.40039.62689-.41119-.41125.59015-1.28247-.4339-1.20569-1.42743-.54828v-.58148l1.31921-.49066.54474-1.16028-.62683-1.40039.41119-.41119,1.28253.59015,1.20569-.4339.54828-1.42743h.58148l.49066,1.31915,1.15851.54395,1.39691-.62164.41211.41125-.58582,1.27985.4339,1.20398,1.42743.54828v.58148l-1.31921.4906-.54388,1.15857.62335,1.39862ZM5.5,19h5.5v1h-5.5c-2.48145,0-4.5-2.01855-4.5-4.5l.01-9c0-2.48145,2.00855-4.5,4.49-4.5h13c2.48145,0,4.5,2.01855,4.5,4.5v5.5h-1v-5.5c0-1.92969-1.57031-3.5-3.5-3.5H5.5c-1.92969,0-3.5,1.57031-3.5,3.5v9c0,1.92969,1.57031,3.5,3.5,3.5ZM10,17h-1V5h3.45703c1.03711,0,2.01562.45605,2.68262,1.25195.66699.79492.94531,1.8457.76172,2.88184-.28906,1.63379-1.83887,2.86621-3.60449,2.86621h-2.29688v5ZM10,11h2.29688c1.28809,0,2.41406-.87695,2.62012-2.04004.13281-.75586-.05957-1.48926-.54297-2.06543-.47754-.56836-1.17578-.89453-1.91699-.89453h-2.45703v5Z"/></svg>