<?xml version="1.0" encoding="UTF-8"?><svg id="icons" xmlns="http://www.w3.org/2000/svg" viewBox="0 0 16 16"><rect width="16" height="16" style="fill:none;"/><path d="M7,7h-1v-1h1v1ZM0,10v3h3v-1h2.02582c.01685-.33765.04669-.67108.09686-1h-2.12268v-1h-1V3h1v-1h7v1h1v3h-1v2h3v-2h-1v-3h1V0h-3v1H3V0H0v3h1v7H0ZM15.27551,15.99121c.45905-1.02039.71942-2.21271.71942-3.49121,0-1.49982-.3595-2.88226-.97455-4.00439h-1.1507c.70056,1.03693,1.13422,2.44849,1.13422,4.00439,0,1.31329-.31104,2.52155-.82831,3.49121h1.09991ZM7.8244,15.99121c-.51727-.96967-.82831-2.17792-.82831-3.49121,0-1.55591.43365-2.96747,1.13422-4.00439h-1.1507c-.61505,1.12213-.97455,2.50458-.97455,4.00439,0,1.2785.26038,2.47083.71942,3.49121h1.09991ZM13.60278,15l-1.9826-2.50031,1.98169-2.49969h-1.276l-1.34375,1.69501-1.34399-1.69501h-1.27606l1.98218,2.49963-1.98224,2.50037h1.276l1.3443-1.69574,1.34473,1.69574h1.27576Z"/></svg>