<svg xmlns="http://www.w3.org/2000/svg" viewBox="0 0 32 32"><path d="M15 24h1v1h-1v-1zm0-4h-1v-1h1v1zm5-4h-1v-1h1v1zm5 3h1v1h-1v-1zm-1 5h1v1h-1v-1zm5.682 2.146l.098.584c-.176-.032-.384-.063-.588-.094l-.888.888C29.986 27.744 31 28 31 28l-.45-2.722-.868.868zM12.59 28.417c-1.127.23-2.415.383-4.049.383-3.01 0-5.37-.89-6.43-1.37L5.79 5.22c1.02.3 2.54.65 4.55.65 2.5 0 4-.43 5.44-.85 1.45-.42 2.82-.81 5.29-.81 2.19 0 4.11.33 5.05.52l1.509 9.07 1.22 1.221L27 3.9s-2.67-.69-5.93-.69c-5.14 0-5.92 1.66-10.73 1.66-2.82 0-4.64-.74-5.34-.97L1 28s3.09 1.8 7.54 1.8c2.03 0 3.56-.23 4.886-.546l-.837-.837zM25.65 14.65L22 11h-4l-3.65 3.65L10 19v4l7 7h2v-7.278c-.595-.347-1-.985-1-1.722 0-1.1.9-2 2-2s2 .9 2 2c0 .737-.405 1.375-1 1.722V30h2l7-7v-4l-4.35-4.35zM11 19.414l3.356-3.356 3.203 3.21A3.14 3.14 0 0 0 17 21c0 .322.078.713.18 1H11v-2.586zM18 29h-.586l-6-6h6.366c.025.028.059.047.085.075.047.048.085.104.135.149V29zm3.731-10.441A3.138 3.138 0 0 0 20 18c-.633 0-1.292.246-1.731.559l-3.211-3.203L18.414 12h3.172l3.356 3.356-3.21 3.203zM22.586 29H22v-5.776c.05-.045.088-.101.135-.15.026-.027.06-.046.085-.074h6.366l-6 6zM29 22h-6.18c.103-.29.18-.68.18-1 0-.63-.244-1.29-.559-1.731l3.203-3.211L29 19.414V22z"/><path fill="none" d="M0 0h32v32H0z"/></svg>