<?xml version="1.0" encoding="UTF-8"?><svg id="icons" xmlns="http://www.w3.org/2000/svg" viewBox="0 0 16 16"><defs><style>.cls-1{fill:none;}</style></defs><path d="M3,7h1v1h-1v-1ZM4,12h1v-1h-1v1ZM7,5h1v-1h-1v1ZM16,7v4l-5,5h-2v-5.27832c.59479-.34698,1-.98499,1-1.72168,0-1.10254-.89746-2-2-2s-2,.89746-2,2c0,.73669.40521,1.37469,1,1.72168v5.27832h-2L0,11v-4l2.64648-2.64648h-.00006l.70715-.70709,2.64642-2.64642h4l6,6ZM1,9h4c0-.64771.20996-1.24353.55902-1.73389l-2.20551-2.20557-2.35352,2.35352v1.58594ZM6,11.22144c-.36676-.33038-.64758-.74683-.81628-1.22144H1v.58594l4.41406,4.41406h.58594v-3.77856ZM11.5733,3.98737l-1.98737-1.98737h-3.17188l-2.35345,2.35345,2.20551,2.20551c.4903-.349,1.08618-.55896,1.73389-.55896.45563,0,.88281.10938,1.26959.29108l2.30371-2.30371ZM15,10h-4.18372c-.1687.47461-.44952.89105-.81628,1.22144v3.77856h.58594l4.41406-4.41406v-.58594ZM15,7.41406l-2.7196-2.7196-2.17285,2.17285c.55029.54388.89246,1.29785.89246,2.13269h4v-1.58594ZM12,11h-1v1h1v-1ZM12,8h1v-1h-1v1Z"/><rect class="cls-1" width="16" height="16"/></svg>