<?xml version="1.0" encoding="UTF-8"?><svg id="icons" xmlns="http://www.w3.org/2000/svg" viewBox="0 0 32 32"><defs><style>.cls-1{fill:none;}</style></defs><rect class="cls-1" width="32" height="32"/><path d="M17.7879,2h-3.57385L1,15.21405v3.57385l10.21509,11.2121h2.78491v-9.66962c-1.13306-.68304-1.90002-1.91345-1.90002-3.33038,0-2.15094,1.74957-3.90002,3.90002-3.90002s3.90002,1.74908,3.90002,3.90002c0,1.41693-.76697,2.64734-1.90002,3.33038v9.66962h2.78595l10.21405-11.21405v-3.56995L17.7879,2ZM13,20.85547v8.14453h-1.34375L2.54626,19h8.98865c.32526.71918.82013,1.35809,1.46509,1.85547ZM11.09961,17c0,.34131.04022.67493.10803,1H2v-2.37207l6.38721-6.38721,4.22949,4.22955c-.93085.89252-1.51709,2.1413-1.51709,3.52972ZM13.4151,12.85443l-4.3208-4.3208,5.53363-5.53363h2.74609l5.45856,5.46027-4.34253,4.34259c-.73242-.43628-1.57739-.70325-2.49005-.70325-.95117,0-1.83252.28394-2.5849.75482ZM20.34473,29h-1.34473v-8.14453c.64496-.49738,1.13983-1.13629,1.46509-1.85547h8.98785l-9.10822,10ZM30,18h-9.20764c.06781-.32507.10803-.65869.10803-1,0-1.42578-.62219-2.69965-1.59735-3.59595l4.23657-4.23657,6.46039,6.4624v2.37012ZM15,7h2v2h-2v-2ZM23,13h2v2h-2v-2ZM23,22v2h-2v-2h2ZM9,22h2v2h-2v-2ZM7,13h2v2h-2v-2Z"/></svg>