<?xml version="1.0" encoding="UTF-8"?><svg id="icons" xmlns="http://www.w3.org/2000/svg" viewBox="0 0 32 32"><rect width="32" height="32" style="fill:none;"/><path d="M11.13678,21c-.03577.33105-.06189.66479-.08362,1h-6.05316v1h-3v-3h1V5h-1v-3h3v1h15v-1h3v3h-1v6h1v3h-1.59277l-2,2h-1.41406l2.00684-2.00684v-2.99316h1v-6h-1v-1H5v1h-1v15h1v1h6.13678ZM11,13h2v-2h-2v2ZM25.375,17l-3.875,5.16675-3.875-5.16675h-1.24951l4.49982,5.99982-4.49982,6.00018h1.24951l3.875-5.16675,3.875,5.16675h1.24951l-4.49976-6.00018,4.49976-5.99982h-1.24951ZM28.18164,15c1.15015,2.35284,1.8338,5.31885,1.8338,8.54688,0,2.74609-.49426,5.30103-1.35089,7.45312h1.05139c.82629-2.19202,1.28149-4.73389,1.28149-7.45312,0-3.18463-.62952-6.12988-1.73425-8.54688h-1.08154ZM12.99707,23.54688c0-3.22803.69263-6.19403,1.84277-8.54688h-1.08154c-1.10474,2.41699-1.75226,5.36224-1.75226,8.54688,0,2.71924.47321,5.26111,1.2995,7.45312h1.05139c-.85663-2.1521-1.35986-4.70703-1.35986-7.45312Z"/></svg>