<svg xmlns="http://www.w3.org/2000/svg" viewBox="0 0 32 32"><path fill="none" d="M0 0h32v32H0z"/><path d="M11.137 21a23.5 23.5 0 0 0-.084 1H5v1H2v-3h1V5H2V2h3v1h15V2h3v3h-1v6h1v3h-1.593l-2 2h-1.414L20 13.993V11h1V5h-1V4H5v1H4v15h1v1h6.137zM11 13h2v-2h-2v2zm14.375 4L21.5 22.167 17.625 17h-1.25l4.5 6-4.5 6h1.25l3.875-5.167L25.375 29h1.25l-4.5-6 4.5-6h-1.25zm2.807-2c1.15 2.353 1.833 5.319 1.833 8.547 0 2.746-.494 5.3-1.35 7.453h1.05c.827-2.192 1.282-4.734 1.282-7.453 0-3.185-.63-6.13-1.734-8.547h-1.081zm-15.185 8.547c0-3.228.693-6.194 1.843-8.547h-1.082c-1.104 2.417-1.752 5.362-1.752 8.547 0 2.72.473 5.261 1.3 7.453h1.05c-.856-2.152-1.359-4.707-1.359-7.453z"/></svg>