<svg xmlns="http://www.w3.org/2000/svg" viewBox="0 0 24 24"><path d="M17 8h-4l-3.354 3.354L7 14v4l5 5h2v-5.278c-.595-.347-1-.985-1-1.722 0-1.103.897-2 2-2s2 .897 2 2c0 .737-.405 1.375-1 1.722V23h2l5-5v-4l-6-6zm-9 6.414l2.354-2.353 2.205 2.205A2.978 2.978 0 0 0 12 16H8v-1.586zM13 22h-.586L8 17.586V17h4.184c.168.473.453.887.816 1.218V22zm3.27-8.709A2.973 2.973 0 0 0 15 13c-.648 0-1.244.21-1.734.559l-2.205-2.206L13.414 9h3.172l1.987 1.987-2.303 2.304zM22 17.586L17.586 22H17v-3.782c.363-.331.648-.745.816-1.218H22v.586zM22 16h-4a2.99 2.99 0 0 0-.892-2.133l2.172-2.173 2.72 2.72V16zm-10 3h-1v-1h1v1zm7 0h-1v-1h1v1zm-8-4h-1v-1h1v1zm9 0h-1v-1h1v1zm-5-3h-1v-1h1v1zm-7.077 9.75c-.466.032-.963.05-1.5.05C3.034 21.8 1 20.783 1 20.783L4.05 3.078s2.035.722 4.52.722c3.849 0 3.893-1.6 7.74-1.6 2.487 0 4.52.878 4.52.878l1.201 7.125-1.22-1.22-.87-5.168c-.703-.235-2.08-.615-3.63-.615-1.727 0-2.544.336-3.49.725-.998.41-2.129.875-4.25.875-1.496 0-2.833-.242-3.723-.457L2.124 20.15c.807.27 2.301.65 4.3.65.188 0 .358-.008.536-.012l.963.963z"/><path fill="none" d="M0 0h24v24H0z"/></svg>