<svg xmlns="http://www.w3.org/2000/svg" viewBox="0 0 24 24"><path d="M8.044 17c-.026.35-.044.69-.044 1H4v1H1v-3h1V4H1V1h3v1h12V1h3v3h-1v5h1v3h-2.593l-1 1h-1.414L16 10.993V9h1V4h-1V3H4v1H3v12h1v1h4.044zM9 9v2h2V9H9zm8.157 9l2.856-4H18.7l-2.2 3.08L14.3 14h-1.313l2.856 4-2.856 4H14.3l2.2-3.08L18.7 22h1.313l-2.856-4zm4.299-6C22.42 13.371 23 16.109 23 18s-.58 4.629-1.544 6h1.191c.854-1.431 1.303-4.15 1.303-6s-.45-4.569-1.303-6h-1.191zM10 18c0-1.891.58-4.629 1.544-6h-1.191C9.499 13.431 9 16.15 9 18s.5 4.569 1.353 6h1.191C10.58 22.629 10 19.891 10 18z"/><path fill="none" d="M0 0h24v24H0z"/></svg>