<?xml version="1.0" encoding="UTF-8"?><svg id="icons" xmlns="http://www.w3.org/2000/svg" viewBox="0 0 24 24"><defs><style>.cls-1{fill:none;}</style></defs><path d="M5,10h2v2h-2v-2ZM7,19h2v-2h-2v2ZM17,17h-2v2h2v-2ZM17,12h2v-2h-2v2ZM23,10.58594v4.82812l-7,7.58594h-3v-8.27832c.59479-.34698,1-.98499,1-1.72168,0-1.10254-.89746-2-2-2s-2,.89746-2,2c0,.73669.40521,1.37469,1,1.72168v8.27832h-3L1,15.41406v-4.82812L9.58594,2h4.82812l8.58594,8.58594ZM2,14h7.18372c-.11169-.31421-.18372-.64746-.18372-1,0-.64771.20996-1.24353.55902-1.73389l-3.91254-3.9126-3.64648,3.64648v3ZM10,15.20148c-.07373-.06744-.15454-.1272-.22144-.20148H2v.05762l6.47461,6.94238h1.52539v-6.79852ZM17.64642,6.64642l-3.64642-3.64642h-4l-3.64642,3.64642,3.91254,3.91254c.4903-.349,1.08618-.55896,1.73389-.55896s1.24359.20996,1.73389.55896l3.91254-3.91254ZM22,15h-7.77856c-.06689.07428-.14771.13403-.22144.20148v6.79852h1.52539l6.47461-6.94238v-.05762ZM22,11l-3.64642-3.64648-3.9126,3.9126c.34906.49036.55902,1.08618.55902,1.73389,0,.35254-.07202.68579-.18372,1h7.18372v-3ZM11,7h2v-2h-2v2Z"/><rect class="cls-1" width="24" height="24"/></svg>