<svg xmlns="http://www.w3.org/2000/svg" viewBox="0 0 16 16"><path d="M3 7h1v1H3zm1 5h1v-1H4zm3-7h1V4H7zm9 2v4l-5 5H9v-5.278c.595-.347 1-.985 1-1.722 0-1.103-.897-2-2-2s-2 .897-2 2c0 .737.405 1.375 1 1.722V16H5l-5-5V7l2.646-2.646.708-.708L6 1h4zM1 9h4c0-.648.21-1.244.559-1.734L3.354 5.061 1 7.414zm5 2.221A3 3 0 0 1 5.184 10H1v.586L5.414 15H6zm5.573-7.234L9.586 2H6.414L4.061 4.353 6.266 6.56A3 3 0 0 1 8 6c.456 0 .883.11 1.27.291zM15 10h-4.184c-.168.475-.45.891-.816 1.221V15h.586L15 10.586zm0-2.586-2.72-2.72-2.172 2.173A3 3 0 0 1 11 9h4zM12 11h-1v1h1zm0-3h1V7h-1z"/><path d="M0 0h16v16H0z" style="fill:none"/></svg>