<svg xmlns="http://www.w3.org/2000/svg" viewBox="0 0 16 16"><path fill="none" d="M0 0h16v16H0z"/><path d="M7 7H6V6h1v1zm-7 3v3h3v-1h2.026a9.9 9.9 0 0 1 .097-1H3v-1H2V3h1V2h7v1h1v3h-1v2h3V6h-1V3h1V0h-3v1H3V0H0v3h1v7H0zm15.276 5.991c.459-1.02.719-2.212.719-3.491 0-1.5-.36-2.882-.975-4.004h-1.15c.7 1.037 1.134 2.448 1.134 4.004 0 1.313-.311 2.522-.828 3.491h1.1zm-7.452 0c-.517-.97-.828-2.178-.828-3.491 0-1.556.434-2.967 1.134-4.004H6.98C6.365 9.618 6.005 11 6.005 12.5c0 1.278.26 2.47.72 3.491h1.1zM13.603 15l-1.983-2.5 1.982-2.5h-1.276l-1.344 1.695L9.638 10H8.362l1.982 2.5L8.362 15h1.276l1.344-1.696L12.327 15h1.276z"/></svg>