<svg xmlns="http://www.w3.org/2000/svg" viewBox="0 0 32 32"><path d="M0 0h32v32H0z" style="fill:none"/><path d="M17.788 2h-3.574L1 15.214v3.574L11.215 30H14v-9.67A3.89 3.89 0 0 1 12.1 17c0-2.15 1.75-3.9 3.9-3.9s3.9 1.75 3.9 3.9a3.89 3.89 0 0 1-1.9 3.33V30h2.786L31 18.786v-3.57zM13 20.855V29h-1.344l-9.11-10h8.989A4.9 4.9 0 0 0 13 20.855M11.1 17c0 .341.04.675.108 1H2v-2.372L8.387 9.24l4.23 4.23A4.88 4.88 0 0 0 11.1 17m2.315-4.146-4.32-4.32L14.627 3h2.746l5.459 5.46-4.343 4.343A4.85 4.85 0 0 0 16 12.1c-.951 0-1.833.284-2.585.754M20.345 29H19v-8.145A4.9 4.9 0 0 0 20.465 19h8.988zM30 18h-9.208c.068-.325.108-.659.108-1 0-1.426-.622-2.7-1.597-3.596l4.237-4.237L30 15.63zM15 7h2v2h-2zm8 6h2v2h-2zm0 9v2h-2v-2zM9 22h2v2H9zm-2-9h2v2H7z"/></svg>