<svg xmlns="http://www.w3.org/2000/svg" viewBox="0 0 24 24"><path d="M5 10h2v2H5zm2 9h2v-2H7zm10-2h-2v2h2zm0-5h2v-2h-2zm6-1.414v4.828L16 23h-3v-8.278c.595-.347 1-.985 1-1.722 0-1.103-.897-2-2-2s-2 .897-2 2c0 .737.405 1.375 1 1.722V23H8l-7-7.586v-4.828L9.586 2h4.828zM2 14h7.184A3 3 0 0 1 9 13c0-.648.21-1.244.559-1.734L5.646 7.354 2 11zm8 1.201c-.074-.067-.155-.127-.221-.201H2v.058L8.475 22H10zm7.646-8.555L14 3h-4L6.354 6.646l3.912 3.913C10.756 10.21 11.352 10 12 10s1.244.21 1.734.559zM22 15h-7.779c-.066.074-.147.134-.221.201V22h1.525L22 15.058zm0-4-3.646-3.646-3.913 3.912c.349.49.559 1.086.559 1.734 0 .353-.072.686-.184 1H22zM11 7h2V5h-2z"/><path d="M0 0h24v24H0z" style="fill:none"/></svg>