<?xml version="1.0" encoding="UTF-8"?><svg id="icons" xmlns="http://www.w3.org/2000/svg" viewBox="0 0 24 24"><path d="M8.04425,17c-.02625.35065-.04425.69073-.04425,1h-4v1H1v-3h1V4h-1V1h3v1h12v-1h3v3h-1v5h1v3h-2.59277l-1,1h-1.41406l2.00684-2.00684v-1.99316h1v-5h-1v-1H4v1h-1v12h1v1h4.04425ZM9,9v2h2v-2h-2ZM17.15656,18l2.85638-4h-1.31311l-2.19983,3.08057-2.19983-3.08057h-1.31311l2.85638,4-2.85638,4h1.31311l2.19983-3.08063,2.19983,3.08063h1.31311l-2.85638-4ZM21.45569,12c.96393,1.37097,1.54431,4.10852,1.54431,6s-.58038,4.62903-1.54431,6h1.19147c.85339-1.43121,1.30286-4.15094,1.30286-6s-.44946-4.56879-1.30286-6h-1.19147ZM10,18c0-1.89148.58038-4.62903,1.54431-6h-1.19147c-.85339,1.43121-1.35284,4.15094-1.35284,6s.49945,4.56879,1.35284,6h1.19147c-.96393-1.37097-1.54431-4.10852-1.54431-6Z"/><rect width="24" height="24" style="fill:none;"/></svg>