<svg xmlns="http://www.w3.org/2000/svg" viewBox="0 0 32 32"><path fill="none" d="M0 0h32v32H0z"/><path fill="#231f20" d="m28.307 14.346 2.317-2.435-7.416-7.432 2.13-2.125-.705-.708-2.84 2.832 1.446 1.448-3.18 3.46a1.1 1.1 0 0 1-.658.308l-2.822.295c-.45-.21-1.926-.864-2.891-.864h-1.535a.98.98 0 0 1-.694-.286L8.667 6.053l.56-.56-2.845-2.847-.707.708 2.138 2.138-5.167 5.166c-.255.256-.474.51-.693.767-.202.235-.403.471-.639.707l-.306.307.73.971 1.096 1.646a1.6 1.6 0 0 1 .318 1.02l-.068 1.76a2.53 2.53 0 0 0 .67 1.807L4.79 20.75a2.196 2.196 0 0 0 .243 3.627l7.952 4.657c.347.203.73.302 1.111.302.34 0 .675-.088.983-.243l.658.282a5.7 5.7 0 0 0 2.535.599c1.894 0 2.627-.467 6.696-3.059a518 518 0 0 1 3.61-2.284c.632-.396 1.04-1.075 1.09-1.819s-.26-1.472-.831-1.949L28 20.165V15.11a1.1 1.1 0 0 1 .307-.764M5.538 23.515a1.196 1.196 0 0 1-.11-1.996c.364-.309.817-.47 1.27-.47q.255 0 .503.068l2.75.906-2.57 2.571zm2.735 1.601 2.743-2.742 2.937.967-3.197 3.23zm6.675 2.866c-.386.39-.985.468-1.457.19l-1.844-1.08 3.367-3.402.938.309c.5.14.865.533.98 1.05.116.528-.056 1.05-.49 1.425zm3.324.993c-.72 0-1.442-.171-2.123-.51l-.195-.08 1.17-1.18c.134-.117.242-.253.346-.392l2.004 2.037c-.383.096-.75.125-1.202.125m9.924-7.343a1.335 1.335 0 0 1-.148 2.152q-.502.314-.962.605l-5.734-5.686-.704.711 5.57 5.523q-.99.627-1.787 1.135c-.388.248-.735.468-1.063.676l-5.012-5.099-.712.702 4.859 4.943c-.871.544-1.497.914-2.01 1.166l-2.592-2.635c.062-.323.08-.657.007-.991-.195-.883-.825-1.555-1.664-1.791l-8.751-2.882a2.92 2.92 0 0 0-1.808.088l-1.199-1.288a1.52 1.52 0 0 1-.403-1.085l.068-1.762a2.58 2.58 0 0 0-.5-1.634l-.977-1.489-.352-.469q.201-.223.39-.447c.203-.236.406-.473.641-.71L7.96 6.76l2.793 2.787c.374.374.871.579 1.4.579h1.534c.19 0 .425.042.677.106a4.77 4.77 0 0 0-2.288.952L7.91 13.928a1.167 1.167 0 0 0 .217 1.976c.848.405 2.085.886 3.167.886h.004c.648 0 1.631-.692 2.024-.99a56 56 0 0 1 2.496-1.8h2.728l2.534 1.686zm-.613-7.976c-.376.394-.583.91-.583 1.454v4.22l-5.322-4.444L18.849 13h-3.332l-.125.082c-.043.028-1.068.703-2.675 1.92-.644.49-1.263.796-1.423.788-.895 0-1.982-.429-2.734-.787a.17.17 0 0 1-.097-.135.2.2 0 0 1 .031-.129l4.165-2.745a3.8 3.8 0 0 1 1.968-.797l4.879-.509c.47-.05.913-.257 1.269-.604l3.17-3.45 5.283 5.294z"/></svg>