<svg xmlns="http://www.w3.org/2000/svg" viewBox="0 0 24 24"><path fill="none" d="M0 0h24v24H0z"/><path d="M18.207 3.5l1.147-1.146-.708-.708L16.793 3.5l1.534 1.534-2.547 2.487-2.336.244L12.264 7H8.561a.501.501 0 0 1-.352-.145L7.06 5.706l.688-.69-3.396-3.37-.705.708 2.686 2.667-5.336 5.36.373.315.555.762c.069.094.079.22.075.31l-.062 1.615c-.017.464.154.924.47 1.263l1.206 1.288a1.495 1.495 0 0 0-.197.806c.025.509.303.967.742 1.225l6.446 3.774a1.502 1.502 0 0 0 1.33.094c.471.128.93.152 1.27.152.861 0 1.674-.261 2.386-.758l4.228-2.532a2.52 2.52 0 0 0 1.18-1.976 2.509 2.509 0 0 0-.024-.503h.006l.009-4.416 2.697-2.82-5.48-5.48zM4.665 17.102c-.148-.087-.241-.24-.25-.412s.07-.333.238-.457c.341-.29.8-.39 1.208-.277l1.872.617-1.467 1.466-1.601-.937zm2.493 1.46l1.638-1.639 1.938.638-1.939 1.959-1.637-.959zm4.568 2.234a.502.502 0 0 1-.615.08l-1.425-.834 2.109-2.131.635.21a.91.91 0 0 1 .647.693c.077.35-.036.696-.334.954l-1.017 1.028zm1.478.19c-.09 0-.17-.006-.252-.01l.472-.478c.078-.067.135-.149.2-.225l.559.552a3.09 3.09 0 0 1-.979.16zm6.251-3.27l-3.767-3.776-.709.707 3.61 3.62-1.67 1-3.244-3.3-.713.702 3.075 3.127-.917.549-1.056-1.043a1.885 1.885 0 0 0-1.343-2.138L6.154 15a2.326 2.326 0 0 0-1.818.253L3.14 13.966a.77.77 0 0 1-.203-.546L3 11.808a1.475 1.475 0 0 0-.267-.94l-.347-.469 3.969-3.984 1.148 1.147A1.51 1.51 0 0 0 8.562 8h2.911a3.698 3.698 0 0 0-1.5.692l-2.867 2.03a.996.996 0 0 0-.378.898.995.995 0 0 0 .564.796c.647.309 1.594.677 2.428.677h.004c.504 0 1.214-.482 1.593-.769A43.683 43.683 0 0 1 13.152 11h.864l1.068.69 4.39 3.667c.379.316.583.798.547 1.29a1.53 1.53 0 0 1-.566 1.07zM20 11.4v3.095l-4.323-3.608L14.312 10H12.85l-.125.082c-.033.022-.805.53-2.014 1.445-.466.354-.877.556-.989.566H9.72c-.512 0-1.203-.2-2.016-.569l2.867-2.03a2.75 2.75 0 0 1 1.412-.571l4.247-.444 2.804-2.738 3.256 3.256L20 11.4z" fill="#231f20"/></svg>