<svg xmlns="http://www.w3.org/2000/svg" viewBox="0 0 16 16"><path fill="#231f20" d="m.37 6.396.343.471c.197.27.298.605.286.94L.937 9.418a.77.77 0 0 0 .203.547l1.26 1.337a1.3 1.3 0 0 0-.226.314c-.22.437-.168.972.134 1.366l1.525 1.956a2.7 2.7 0 0 0 2.144 1.044 2.6 2.6 0 0 0 1.056-.245 3.1 3.1 0 0 0 1.171.248c.662 0 1.28-.205 1.862-.61l4.229-2.531c.419-.259.69-.706.727-1.198a1.52 1.52 0 0 0-.52-1.262L14 9.89V7.8l1.375-1.443.312-.378-4.073-4.072L12.745.775l-.707-.707-1.838 1.84.87.87L9.8 4.002l-3.238.02c-.398 0-.775-.157-1.06-.438l-.51-.51 1.075-1.076L4.157.097l-.085-.09-.669.743 1.25 1.249-4.029 4.03zm6.46 8.347c-.36.225-.82.294-1.255.193h-.001a1.7 1.7 0 0 1-.952-.613L3.1 12.371a.3.3 0 0 1-.032-.307.29.29 0 0 1 .258-.157.5.5 0 0 1 .165.022.8.8 0 0 1 .193.07l3.186 1.94a.43.43 0 0 1 .231.399c0 .167-.086.307-.27.405zM8.506 5.02l1.703-.023 1.569-1.513 2.536 2.537L13 7.399v1.514L9.952 5.929l-.339.228a43 43 0 0 0-1.9 1.37c-.347.263-.847.476-.99.476-.53 0-1.08-.1-1.512-.274a.25.25 0 0 1-.16-.217c-.007-.096.041-.19.17-.27 1.327-1.01 2.984-2.148 3.285-2.222M4.285 3.78l.512.512c.474.47 1.1.73 1.765.73h.024A43 43 0 0 0 4.66 6.414c-.411.247-.643.697-.605 1.175s.337.887.782 1.066a5.2 5.2 0 0 0 1.887.347c.508 0 1.247-.416 1.593-.679a47 47 0 0 1 1.52-1.108l3.996 3.91a.536.536 0 0 1-.058.863l-.653.392-2.435-2.44-.708.706 2.258 2.264-1.658.993-1.904-1.936-.713.7 1.734 1.765-.171.102c-.524.364-1.06.488-1.578.423.093-.189.154-.393.154-.61a1.41 1.41 0 0 0-.729-1.274l-3.185-1.94a1.8 1.8 0 0 0-.796-.221l-.383-.405-1.068-1.15.058-1.512a2.5 2.5 0 0 0-.37-1.408z"/></svg>