<svg xmlns="http://www.w3.org/2000/svg" viewBox="0 0 16 16"><path d="M4.482 2.52 3.856.335l.96-.275.627 2.183a3.8 3.8 0 0 0-.961.275zM2.347 7.046a4 4 0 0 1-.09-.493l-2.196.63.275.96 2.196-.63a4 4 0 0 1-.185-.467m.33-2.89a4 4 0 0 1 .272-.42l-1.79-.992-.484.875 1.802.999a4 4 0 0 1 .2-.461zm5.166-1.48a4 4 0 0 1 .413.285l.999-1.803L8.38.675l-.992 1.789a4 4 0 0 1 .455.213zM16 9.5a3.5 3.5 0 0 1-3.5 3.5h-9a2.492 2.492 0 0 1-.648-4.9c.065-.018.127-.042.194-.054a2.5 2.5 0 0 1 .394-.941 2.765 2.765 0 0 1 4.23-3.337 3.97 3.97 0 0 1 6.26 2.544A3.5 3.5 0 0 1 16 9.5m-1 0a2.5 2.5 0 0 0-1.48-2.276l-.483-.218-.092-.522a2.989 2.989 0 0 0-5.857-.17l-.233.992-.987-.252A1.462 1.462 0 0 0 4.03 8.227l-.124.678-.678.124A1.498 1.498 0 0 0 3.5 12h9A2.503 2.503 0 0 0 15 9.5M4.241 6.34a2.42 2.42 0 0 1 1.874-.255 4 4 0 0 1 .813-1.621c-.02-.012-.035-.027-.055-.038a1.8 1.8 0 0 0-2.447.701 1.78 1.78 0 0 0-.185 1.214z"/><path fill="none" d="M0 0h16v16H0z"/></svg>