<svg xmlns="http://www.w3.org/2000/svg" viewBox="0 0 32 32"><path stroke-width="0" fill="none" d="M0 0h32v32H0z"/><path d="M23 4V2h-4.05a2.5 2.5 0 0 0-4.9 0H10v2H6v10h1V5h3v2h13V5h3v22h-6v1h7V4h-4zm-1 2H11V3h4.092A1.483 1.483 0 0 1 15 2.5c0-.827.673-1.5 1.5-1.5s1.5.673 1.5 1.5c0 .176-.036.343-.092.5H22v3zM5 25h1v1H5v-1zm0-6h1v1H5v-1zm0 3h1v1H5v-1zm13 4.525V16H7.475l-1-1H19v12.525l-1-1zM.646 12.354L3.293 15H2v15h16.293l1.353 1.354.708-.708-19-19-.708.708zM3 29V16h1.293l3 3H7v1h1.293l2 2H7v1h4.293l2 2H7v1h7.293l3 3H3zm11.475-6l-1-1H16v1h-1.525zM16 20h-4.525l-1-1H16v1z" stroke-width="0"/></svg>