<svg xmlns="http://www.w3.org/2000/svg" viewBox="0 0 16 16"><path d="M2.663 6.545C1.415 7.66 0 8.925 0 10.9a3.51 3.51 0 0 0 2.113 3.238 1.4 1.4 0 0 1 .054-.206l.31-.724A2.51 2.51 0 0 1 1 10.9c0-1.527 1.184-2.586 2.33-3.61a6.8 6.8 0 0 0 2.123-2.602q.031-.092.057-.18C6.973 3.952 8 3.004 8 2H7c0 .428-.54.981-1.423 1.399a1.7 1.7 0 0 0-.367-.762 2.02 2.02 0 0 0-1.898-.592C2.221 2.245 1 3.131 1 4.02c0 .452.296.99 1.707.99a8 8 0 0 0 1.559-.15 8.8 8.8 0 0 1-1.603 1.686zm.044-2.535a2.2 2.2 0 0 1-.676-.077 2.33 2.33 0 0 1 1.46-.904 1.05 1.05 0 0 1 .962.26.73.73 0 0 1 .163.464 7.2 7.2 0 0 1-1.91.257zm.457 10.726a.37.37 0 0 0 .41.078l4.095-1.755 6.607-6.609 1.445-1.443a.965.965 0 0 0-.03-1.385l-1.413-1.414a.965.965 0 0 0-1.385-.03L4.841 10.23l-1.756 4.097a.37.37 0 0 0 .08.409zm10.19-11.604a.306.306 0 0 1 .433 0l.981.98a.306.306 0 0 1 0 .434l-1.09 1.09-1.414-1.414zm-1.798 1.797 1.414 1.415-6.008 6.008-1.413-1.415zm-6.378 7.053.74.74-1.294.554z"/><path fill="none" d="M0 0h16v16H0z"/></svg>