<svg xmlns="http://www.w3.org/2000/svg" viewBox="0 0 24 24"><path d="m4.323 20.346.19-.443A4.1 4.1 0 0 1 2 16.1c0-2.42 1.895-4.116 3.727-5.755a10.85 10.85 0 0 0 3.21-3.838 7.74 7.74 0 0 0 3.997-3.257l-.868-.5a6.66 6.66 0 0 1-2.948 2.604 2.5 2.5 0 0 0-.434-1.292A2.56 2.56 0 0 0 6.5 3C4.701 3 3 4.336 3 5.75a1 1 0 0 0 .299.719A3.74 3.74 0 0 0 5.848 7H6a9 9 0 0 0 1.654-.147A14 14 0 0 1 5.06 9.6C3.156 11.303 1 13.233 1 16.1a5.075 5.075 0 0 0 3.224 4.77 1.4 1.4 0 0 1 .099-.524M6 6h-.155C4.737 5.994 4.105 5.92 4 5.75 4 4.962 5.153 4 6.5 4a1.59 1.59 0 0 1 1.362.632 1.56 1.56 0 0 1 .246 1.09A7.8 7.8 0 0 1 6 6m15.536-2.48a.965.965 0 0 0-1.385-.03L6.998 16.644 5.242 20.74a.371.371 0 0 0 .488.487l4.096-1.756L22.979 6.32a.965.965 0 0 0-.03-1.385zM6.78 19.688l.962-2.24 1.28 1.28zm3.015-1.6-1.413-1.414L18.679 6.376l1.414 1.414zM21.952 5.932 20.8 7.083l-1.414-1.414L20.555 4.5a.42.42 0 0 1 .599.007l.804.838a.42.42 0 0 1-.006.587M19 18h3v.999h-3V22h-1v-3.001h-3V18h3v-3h1z"/><path fill="none" d="M0 0h24v24H0z"/></svg>