<svg xmlns="http://www.w3.org/2000/svg" viewBox="0 0 16 16"><path d="M2.477 13.208A2.51 2.51 0 0 1 1 10.9c0-1.527 1.185-2.586 2.33-3.61a6.75 6.75 0 0 0 2.122-2.602q.032-.092.057-.18C6.973 3.953 8 3.005 8 2H7c0 .428-.54.981-1.424 1.399a1.7 1.7 0 0 0-.365-.762 2.01 2.01 0 0 0-1.899-.592C2.221 2.245 1 3.131 1 4.02c0 .452.296.99 1.707.99a8 8 0 0 0 1.559-.15 9 9 0 0 1-1.603 1.686C1.415 7.661 0 8.925 0 10.9a3.51 3.51 0 0 0 2.113 3.238 1.3 1.3 0 0 1 .054-.206zm.23-9.198a2.2 2.2 0 0 1-.677-.077 2.33 2.33 0 0 1 1.462-.904 1.05 1.05 0 0 1 .96.26.73.73 0 0 1 .163.464 7 7 0 0 1-1.908.257m11.57-1.802a.965.965 0 0 0-1.384-.03L4.841 10.23l-1.756 4.097a.371.371 0 0 0 .488.487L7.67 13.06l6.607-6.609 1.445-1.443a.965.965 0 0 0-.03-1.385zM4.625 13.276l.554-1.294.74.74zm2.338-.924L5.55 10.937l6.007-6.008 1.414 1.415zm7.806-7.806-1.09 1.09-1.414-1.414 1.09-1.09a.306.306 0 0 1 .433 0l.981.98a.306.306 0 0 1 0 .434M14 13h2v1h-2v2h-1v-2h-2v-1h2v-2h1z"/><path fill="none" d="M0 0h16v16H0z"/></svg>