<svg xmlns="http://www.w3.org/2000/svg" viewBox="0 0 32 32"><path d="M7.024 26.765A5.6 5.6 0 0 1 3 21.298c0-3.484 2.526-5.857 4.97-8.15 1.722-1.618 3.364-3.16 3.86-4.97a10.03 10.03 0 0 0 5.09-3.908l-.84-.54a8.9 8.9 0 0 1-4.098 3.314 2.89 2.89 0 0 0-1.02-2.279 3.68 3.68 0 0 0-2.998-.692C5.695 4.487 4 6.224 4 7.5 4 8.184 4.486 9 6.8 9a15.5 15.5 0 0 0 3.833-.453 14.7 14.7 0 0 1-3.348 3.871C4.808 14.745 2 17.381 2 21.298a6.65 6.65 0 0 0 4.652 6.404 1 1 0 0 1 .048-.181zM6.8 8C5.557 8 5 7.749 5 7.5c0-.735 1.35-2.116 3.144-2.443a3 3 0 0 1 .56-.051 2.55 2.55 0 0 1 1.617.527 1.9 1.9 0 0 1 .66 1.537 3 3 0 0 1-.018.345A14 14 0 0 1 6.8 8m20.79-1.416a1.203 1.203 0 0 0-1.727-.037L9.962 22.45l-2.343 5.465a.306.306 0 0 0 .403.402l5.465-2.342 14.1-14.102v-.002l1.802-1.797a1.203 1.203 0 0 0-.037-1.727zM9.222 26.714l1.402-3.274 1.871 1.87zm4.1-1.99-2.111-2.111L24.504 9.32l2.111 2.111zm15.36-15.359-1.36 1.36-2.11-2.112 1.358-1.359a.16.16 0 0 1 .121-.054.28.28 0 0 1 .193.092l1.76 1.761c.018.018.171.18.038.312"/><path fill="none" d="M0 0h32v32H0z"/></svg>