<svg xmlns="http://www.w3.org/2000/svg" viewBox="0 0 32 32"><path d="M0 0h32v32H0z" style="fill:none"/><path d="M21.5 11C19.019 11 17 8.981 17 6.5S19.019 2 21.5 2 26 4.019 26 6.5 23.981 11 21.5 11m0-8C19.57 3 18 4.57 18 6.5s1.57 3.5 3.5 3.5S25 8.43 25 6.5 23.43 3 21.5 3m3 9h-6a5.51 5.51 0 0 0-5.267 3.922q.456.468.824 1.01C14.342 14.72 16.214 13 18.5 13h6c2.481 0 4.5 2.019 4.5 4.5V22H15.228a7 7 0 0 1-.217 1H30v-5.5c0-3.032-2.467-5.5-5.5-5.5M12.433 24.736A5.8 5.8 0 1 0 8 26.8a5.77 5.77 0 0 0 3.743-1.374l4.578 4.578a.476.476 0 0 0 .672 0 .5.5 0 0 0 .001-.707zM3.2 21c0-2.647 2.153-4.8 4.8-4.8s4.8 2.153 4.8 4.8-2.153 4.8-4.8 4.8-4.8-2.153-4.8-4.8"/></svg>