<?xml version="1.0" encoding="UTF-8"?><svg id="icons" xmlns="http://www.w3.org/2000/svg" viewBox="0 0 32 32"><defs><style>.cls-1{fill:none;}</style></defs><path d="M29.97321,25.896c0,2.81897-6.26801,5.104-14,5.104s-13.90002-2.28503-13.90002-5.104c0-2.14545,3.76239-3.97577,8.92682-4.73242v1.06909c-1.69293.23322-3.24921.54333-4.48383.99335-1.20288.43896-2.10608.93695-2.68988,1.44-.58691.50598-.75311.92499-.75311,1.22998,0,.30402.1662.72302.75311,1.229.5838.50299,1.487,1.00201,2.68988,1.44,2.39783.875,5.67651,1.435,9.45703,1.435s7.15918-.56,9.55701-1.435c1.20288-.43799,2.10608-.93701,2.68988-1.44.58691-.50598.75311-.92499.75311-1.229,0-.30499-.1662-.724-.75311-1.22998-.5838-.50305-1.487-1.00104-2.68988-1.44-1.01135-.36859-2.21045-.6731-3.53021-.90961v-1.0257c4.71375.82098,7.97321,2.57343,7.97321,4.60529ZM16.47498,5c1.36688,0,2.47577-1.10956,2.47504-2.47473-.00049-1.36902-1.10785-2.47528-2.47418-2.47528-1.36798,0-2.47534,1.10626-2.47583,2.47528-.00073,1.36517,1.10815,2.47473,2.47498,2.47473ZM10.76459,17.17041c.37061,0,.67627-.21436.85498-.58691l1.89258-6.5835v6l-.90692,10.91718c-.04846.58295.41162,1.08282.99652,1.08282h.08704c.47693,0,.88745-.33679.98071-.8045l1.82996-10.17804,1.82996,10.17804c.09326.46771.50378.8045.98071.8045h.08704c.5849,0,1.04498-.49988.99652-1.08282l-.90692-10.91718v-6l1.89258,6.5835c.17871.37256.48438.58691.85498.58691.32275,0,.65381-.16406.86377-.42822.17969-.22559.24512-.49365.18506-.75488l-1.96918-7.90228c-.3053-1.22516-1.40576-2.08502-2.6684-2.08502h-4.29224c-1.26263,0-2.3631.85986-2.6684,2.08502l-1.96918,7.90228c-.06006.26123.00537.5293.18506.75488.20996.26416.54102.42822.86377.42822Z"/><rect class="cls-1" width="32" height="32"/></svg>