<?xml version="1.0" encoding="UTF-8"?>
<svg id="icons" xmlns="http://www.w3.org/2000/svg" viewBox="0 0 24 24">
  <defs>
    <style>
      .cls-1 {
        fill: none;
      }
    </style>
  </defs>
  <rect class="cls-1" width="24" height="24"/>
  <path d="M16,9c2.21,0,4-1.79,4-4s-1.79-4-4-4-4,1.79-4,4,1.79,4,4,4ZM16,2c1.65,0,3,1.35,3,3s-1.35,3-3,3-3-1.35-3-3,1.35-3,3-3ZM23,14.5v4.5h-12.06c.15-.32.27-.65.36-1h10.7v-3.5c0-1.93-1.57-3.5-3.5-3.5h-5c-1.39,0-2.58.82-3.14,1.99-.21-.29-.44-.56-.7-.8.79-1.3,2.21-2.19,3.84-2.19h5c2.48,0,4.5,2.02,4.5,4.5ZM8.93,19.23c.6-.75.97-1.69.97-2.73,0-2.43-1.97-4.4-4.4-4.4s-4.4,1.97-4.4,4.4,1.97,4.4,4.4,4.4c1.04,0,1.98-.38,2.74-.98l3.08,3.08c.19.19.49.19.67,0l.02-.02c.09-.09.14-.21.14-.34s-.05-.25-.14-.34l-3.08-3.08ZM2.1,16.5c0-1.87,1.53-3.4,3.4-3.4s3.4,1.53,3.4,3.4-1.53,3.4-3.4,3.4-3.4-1.53-3.4-3.4Z"/>
</svg>