<svg xmlns="http://www.w3.org/2000/svg" viewBox="0 0 16 16"><path d="M9.756 11a3.22 3.22 0 0 0 .166 1H8V9H7v3H2V7H.335L3 4.656V1h3.006L5.98 2.05 7.466.75 14.603 7H13v.732a3.206 3.206 0 0 0-1 .175V6.05L7.466 2.08l-2.51 2.198V3.175L4.982 2H4v3.108L2.985 6H3v5h3V8h3v3zm4.635 1.33a1.9 1.9 0 0 0 .564-1.331 1.95 1.95 0 1 0-3.9 0 1.905 1.905 0 0 0 .566 1.334 2.804 2.804 0 0 0-1.571 2.649v1h.955v-1a1.99 1.99 0 0 1 .764-1.572 2.034 2.034 0 0 1 1.74-.367 2.08 2.08 0 0 1 1.496 2.059v.88h.9v-.88a3.069 3.069 0 0 0-1.514-2.773zM13 12a1 1 0 1 1 1-1 1.001 1.001 0 0 1-1 1z"/><path fill="none" d="M0 0h16v16H0z"/></svg>