<?xml version="1.0" encoding="UTF-8"?><svg id="icons" xmlns="http://www.w3.org/2000/svg" viewBox="0 0 24 24"><defs><style>.cls-1{fill:none;}</style></defs><path d="M10.02502,2.00024c.00037-1.09247.88379-1.97632,1.97522-1.97528,1.08978-.00031,1.97534.88446,1.97473,1.97394-.00012,1.09149-.88501,1.97705-1.9754,1.97607-1.09052-.00079-1.97516-.88538-1.97455-1.97473ZM8.14935,13.71271c.25964,0,.474-.1499.59845-.40729l1.41888-5.46381v4.07501l-1.16345,8.36713c-.01831.18311.04169.36542.16522.50189.12347.13647.29895.21436.48297.21436h.06793c.30438,0,.56555-.21704.62128-.51624l1.65936-7.11646,1.65936,7.11646c.05573.29919.31689.51624.62128.51624h.06793c.18402,0,.3595-.07788.48297-.21436.12354-.13647.18353-.31879.16522-.50189l-1.16345-8.36713v-4.07501l1.41888,5.46381c.12445.25739.33881.40729.59845.40729.22778,0,.46143-.11548.60962-.30164.12488-.1571.17053-.34375.12842-.52502l-1.5238-6.59778c-.18921-.75708-.86945-1.28827-1.6499-1.28827h-2.82996c-.78046,0-1.46069.53119-1.6499,1.28827l-1.5238,6.59778c-.04211.18127.00354.36792.12842.52502.14819.18616.38184.30164.60962.30164ZM16,15.10425v.9256c1.30316.19891,2.4726.48413,3.4295.83984.93518.34772,1.6283.73981,2.07111,1.12903.44397.3902.55591.70038.55591.91174,0,.21143-.11194.52161-.55591.9118-.44281.38934-1.13593.78131-2.07111,1.12903-1.86359.69281-4.49963,1.13989-7.4563,1.13989s-5.49268-.44708-7.35632-1.13989c-.93518-.34772-1.6283-.73969-2.07111-1.12903-.44397-.3902-.55591-.70038-.55591-.9118,0-.21136.11194-.52155.55591-.91174.44281-.38922,1.13593-.78131,2.07111-1.12903.9679-.35974,2.08252-.6474,3.38312-.84644v-.9259c-4.10016.59247-6.92682,2.07574-6.92682,3.81311,0,2.25861,4.82489,4.08954,10.90002,4.08954s11-1.83093,11-4.08954c0-1.73004-2.89026-3.20874-6.97321-3.80621Z"/><rect class="cls-1" width="24" height="24"/></svg>