<?xml version="1.0" encoding="UTF-8"?><svg id="icons" xmlns="http://www.w3.org/2000/svg" viewBox="0 0 16 16"><defs><style>.cls-1{fill:none;}</style></defs><path d="M6.75,2.00018c.00024-.69147.53925-1.25085,1.20508-1.25018.01501,0,.03003.00024.04492.00079.01489-.00055.02991-.00079.04492-.00079.66583-.00067,1.20483.55872,1.20508,1.25018.00037.68945-.53937,1.24933-1.20465,1.24982-.0152,0-.03033-.00031-.04535-.00085-.01501.00055-.03015.00085-.04535.00085-.66528-.00049-1.20502-.56036-1.20465-1.24982ZM10.4986,10.15247l.172,1.0318c1.00421.14301,1.8913.36182,2.60834.63074.65826.24689,1.12146.51666,1.40216.7655.28192.24988.29211.39398.29211.41949s-.01019.16956-.29211.41949c-.2807.24878-.7439.51862-1.40216.7655-1.30914.49091-3.18475.815-5.30573.815s-3.99658-.3241-5.30573-.815c-.65826-.24689-1.12146-.51672-1.40216-.7655-.28192-.24994-.29211-.39398-.29211-.41949s.01019-.16962.29211-.41949c.2807-.24884.7439-.51862,1.40216-.7655.71704-.26892,1.60413-.48773,2.60834-.63074l.172-1.0318C2.26703,10.54907-.02679,11.67407-.02679,13c0,1.65686,3.58167,3,8,3s8-1.34314,8-3c0-1.32593-2.29382-2.45093-5.47461-2.84753ZM6.04596,8.65582l.75665-2.65247v2.39465l-.57568,5.15692c-.00818.11505.0318.22833.11041.31268.07861.08441.18872.13239.30402.13239.20319,0,.37659-.14697.40991-.34741l.94873-4.4563,1.05127,4.4563c.03333.20044.20667.34741.40985.34741.1153,0,.22546-.04797.30402-.13239.07861-.08435.11859-.19763.11041-.31268l-.67816-5.15692v-2.39465l.75665,2.65247c.24945.5238.93958.17462.83978-.25781l-.8233-3.54327c-.12561-.50238-.57697-.85474-1.09473-.85474h-1.75159c-.51776,0-.96912.35236-1.09473.85474l-.8233,3.54327c-.09979.43243.59033.78162.83978.25781Z"/><rect class="cls-1" width="16" height="16"/></svg>