<?xml version="1.0" encoding="UTF-8"?><svg id="icons" xmlns="http://www.w3.org/2000/svg" viewBox="0 0 32 32"><defs><style>.cls-1{fill:none;}</style></defs><rect class="cls-1" width="32" height="32"/><path d="M21.5,11c-2.48145,0-4.5-2.01855-4.5-4.5s2.01855-4.5,4.5-4.5,4.5,2.01855,4.5,4.5-2.01855,4.5-4.5,4.5ZM21.5,3c-1.92969,0-3.5,1.57031-3.5,3.5s1.57031,3.5,3.5,3.5,3.5-1.57031,3.5-3.5-1.57031-3.5-3.5-3.5ZM24.5,12h-6c-2.48413,0-4.58643,1.65662-5.26666,3.92206.30261.31177.58057.64783.82416,1.00934.28308-2.21094,2.15576-3.9314,4.4425-3.9314h6c2.48145,0,4.5,2.01855,4.5,4.5v4.5h-13.77203c-.04749.34216-.12311.67462-.21661,1h14.98865v-5.5c0-3.03223-2.46729-5.5-5.5-5.5ZM12.43317,24.73596c.85162-1.00946,1.36682-2.31189,1.36682-3.73602,0-3.20325-2.59674-5.79993-5.79999-5.79993s-5.79999,2.59668-5.79999,5.79993,2.59674,5.80005,5.79999,5.80005c1.42767,0,2.73285-.51807,3.74335-1.37354l4.57776,4.5777c.18555.18561.48633.18591.6723.00079.09412-.09369.14709-.22101.14728-.35382.00012-.13275-.05255-.26019-.14648-.35413l-4.56104-4.56104ZM3.20001,21c0-2.64661,2.15338-4.79999,4.79999-4.79999s4.79999,2.15338,4.79999,4.79999-2.15338,4.79999-4.79999,4.79999-4.79999-2.15338-4.79999-4.79999Z"/></svg>