<svg xmlns="http://www.w3.org/2000/svg" viewBox="0 0 16 16"><path d="M0 0h16v16H0z" style="fill:none"/><path d="M15.98 10.5V13H7.55l-.48-.48-.02-.1.02-.06c.04-.12.06-.24.09-.36h7.85v-1.5a2.5 2.5 0 0 0-2.5-2.5h-3c-1.14 0-2.09.77-2.39 1.81-.13-.43-.3-.84-.54-1.2.62-.96 1.7-1.6 2.93-1.6h3c1.93 0 3.48 1.57 3.48 3.5ZM8 3c0-1.65 1.35-3 3-3a3 3 0 0 1 0 6C9.35 6 8 4.65 8 3m1 0c0 1.1.9 2 2 2s2-.9 2-2-.9-2-2-2-2 .9-2 2M7.77 15.06c.09.09.15.22.15.35s-.05.26-.15.35c-.2.2-.51.2-.71 0l-2.4-2.4c-.47.33-1.04.53-1.66.53C1.4 13.9.1 12.6.1 11S1.4 8.1 3 8.1 5.9 9.4 5.9 11c0 .62-.2 1.19-.53 1.66zM3 12.9a1.9 1.9 0 1 0 0-3.8 1.9 1.9 0 1 0 0 3.8"/></svg>