<svg xmlns="http://www.w3.org/2000/svg" viewBox="0 0 24 24"><path d="M13.9 2.999A1.9 1.9 0 1 1 12 1.1a1.9 1.9 0 0 1 1.9 1.899M13.544 6h-3.088a1.855 1.855 0 0 0-1.8 1.405l-1.662 6.652a.67.67 0 0 0 .14.573.87.87 0 0 0 .665.33.72.72 0 0 0 .653-.445L10 9.1V13l-.922 9.219a.71.71 0 0 0 .707.781h.074a.69.69 0 0 0 .678-.563L12 14.583l1.463 7.854a.69.69 0 0 0 .678.563h.074a.71.71 0 0 0 .707-.781L14 13V9.1l1.548 5.415a.72.72 0 0 0 .653.444.87.87 0 0 0 .665-.329.67.67 0 0 0 .14-.573l-1.662-6.652A1.855 1.855 0 0 0 13.544 6"/><path fill="none" d="M0 0h24v24H0z"/></svg>