<svg xmlns="http://www.w3.org/2000/svg" viewBox="0 0 32 32"><path d="M19 27h1.694a5.994 5.994 0 0 0-.17 1H18v-8h-6v8H4V16H1.5L5 12.5V4h5v3.5l5-5L28.5 16H26v.55a4.934 4.934 0 0 0-1 .205V15h1.086L15 3.914l-6 6V5H6v7.914L3.914 15H5v12h6v-8h8zm11.95 1.64L31 31h-1v-2.36a3.583 3.583 0 0 0-2.771-3.578 3.64 3.64 0 0 0-.716-.063L26.5 25c-.024 0-.045-.006-.069-.007A3.495 3.495 0 0 0 23 28.489V31h-1v-2.51a4.425 4.425 0 0 1 2.591-4.063A3.486 3.486 0 1 1 29.95 21.5a3.452 3.452 0 0 1-1.54 2.926 4.608 4.608 0 0 1 2.54 4.214zM29 21.5a2.5 2.5 0 1 0-2.5 2.5 2.503 2.503 0 0 0 2.5-2.5z"/><path fill="none" d="M0 0h32v32H0z"/></svg>