<svg xmlns="http://www.w3.org/2000/svg" viewBox="0 0 24 24"><path d="M0 0h24v24H0z" style="fill:none"/><path d="M16 9c2.21 0 4-1.79 4-4s-1.79-4-4-4-4 1.79-4 4 1.79 4 4 4m0-7c1.65 0 3 1.35 3 3s-1.35 3-3 3-3-1.35-3-3 1.35-3 3-3m7 12.5V19H10.94c.15-.32.27-.65.36-1H22v-3.5c0-1.93-1.57-3.5-3.5-3.5h-5c-1.39 0-2.58.82-3.14 1.99-.21-.29-.44-.56-.7-.8.79-1.3 2.21-2.19 3.84-2.19h5c2.48 0 4.5 2.02 4.5 4.5M8.93 19.23c.6-.75.97-1.69.97-2.73a4.4 4.4 0 1 0-4.4 4.4c1.04 0 1.98-.38 2.74-.98L11.32 23c.19.19.49.19.67 0l.02-.02c.09-.09.14-.21.14-.34s-.05-.25-.14-.34l-3.08-3.08ZM2.1 16.5c0-1.87 1.53-3.4 3.4-3.4s3.4 1.53 3.4 3.4-1.53 3.4-3.4 3.4-3.4-1.53-3.4-3.4"/></svg>