<svg xmlns="http://www.w3.org/2000/svg" viewBox="0 0 32 32"><path d="M19 27h1.694a6 6 0 0 0-.17 1H18v-8h-6v8H4V16H1.5L5 12.5V4h5v3.5l5-5L28.5 16H26v.55a5 5 0 0 0-1 .205V15h1.086L15 3.914l-6 6V5H6v7.914L3.914 15H5v12h6v-8h8zm11.95 1.64L31 31h-1v-2.36a3.58 3.58 0 0 0-2.771-3.578 3.6 3.6 0 0 0-.716-.063L26.5 25c-.024 0-.045-.006-.069-.007A3.495 3.495 0 0 0 23 28.489V31h-1v-2.51a4.43 4.43 0 0 1 2.591-4.063A3.486 3.486 0 1 1 29.95 21.5a3.45 3.45 0 0 1-1.54 2.926 4.61 4.61 0 0 1 2.54 4.214M29 21.5a2.5 2.5 0 1 0-2.5 2.5 2.503 2.503 0 0 0 2.5-2.5"/><path fill="none" d="M0 0h32v32H0z"/></svg>