<svg xmlns="http://www.w3.org/2000/svg" viewBox="0 0 16 16"><path d="m5.607 5.712 1.157-.776a.46.46 0 0 0 .129-.59C6.43 3.503 5.392.33 5.36.28a.62.62 0 0 0-.643-.267l-2.23.254a1.9 1.9 0 0 0-1.221.661A3.17 3.17 0 0 0 .19 3.933l.11.433a18 18 0 0 0 4.188 7.146 18 18 0 0 0 7.146 4.187l.433.11a2.5 2.5 0 0 0 .616.078 3.48 3.48 0 0 0 2.389-1.153 1.9 1.9 0 0 0 .66-1.22l.255-2.23a.62.62 0 0 0-.267-.644c-.05-.032-3.223-1.07-4.066-1.533a.46.46 0 0 0-.59.13l-.776 1.156a.53.53 0 0 1-.694.171 10.4 10.4 0 0 1-4.158-4.158.53.53 0 0 1 .17-.694zm-1.05 1.17a11.3 11.3 0 0 0 1.95 2.61 11.3 11.3 0 0 0 2.612 1.952 1.53 1.53 0 0 0 2-.494l.502-.75c.77.34 2.034.785 3.316 1.225l.026.01-.219 1.919a.9.9 0 0 1-.325.62l-.055.053a2.57 2.57 0 0 1-1.68.86 1.5 1.5 0 0 1-.37-.046l-.394-.1a16.9 16.9 0 0 1-6.724-3.937A16.9 16.9 0 0 1 1.26 4.08l-.1-.394a2.26 2.26 0 0 1 .813-2.05l.054-.055a.9.9 0 0 1 .62-.325l1.919-.22.009.027c.44 1.282.885 2.545 1.225 3.315l-.75.503a1.525 1.525 0 0 0-.494 2z"/><path fill="none" d="M0 0h16v16H0z"/></svg>