<svg xmlns="http://www.w3.org/2000/svg" viewBox="0 0 24 24"><path d="M2.725 2.24a4.39 4.39 0 0 0-1.486 4.15 22.03 22.03 0 0 0 5.833 10.537A22.03 22.03 0 0 0 17.61 22.76a3.4 3.4 0 0 0 .851.108 4.8 4.8 0 0 0 3.3-1.594 2.62 2.62 0 0 0 .914-1.686l.316-2.295a1.055 1.055 0 0 0-.766-1.162l-4.468-1.225a1.055 1.055 0 0 0-1.14.409l-1.174 1.661a.626.626 0 0 1-.733.21 15.5 15.5 0 0 1-4.546-3.35 15.5 15.5 0 0 1-3.35-4.546.626.626 0 0 1 .21-.733L8.77 7.384a1.055 1.055 0 0 0 .41-1.141L7.952 1.776A1.054 1.054 0 0 0 6.79 1.01l-2.38.316a2.62 2.62 0 0 0-1.686.914zm.78.633a1.62 1.62 0 0 1 1.074-.56L6.936 2a.06.06 0 0 1 .052.04l1.226 4.468a.1.1 0 0 1-.002.046l-1.783 1.2a1.63 1.63 0 0 0-.548 1.902 16.2 16.2 0 0 0 3.575 4.888 16.2 16.2 0 0 0 4.888 3.575 1.6 1.6 0 0 0 .595.112 1.64 1.64 0 0 0 1.32-.677l1.173-1.662a.05.05 0 0 1 .047-.022l.013.001 4.467 1.226a.055.055 0 0 1 .04.06l-.311 2.261a1.62 1.62 0 0 1-.561 1.077l-.074.073a3.9 3.9 0 0 1-2.593 1.3 2.5 2.5 0 0 1-.604-.076 21 21 0 0 1-10.08-5.575A21 21 0 0 1 2.208 6.144a3.48 3.48 0 0 1 1.224-3.197z"/><path fill="none" d="M0 0h24v24H0z"/></svg>