<svg xmlns="http://www.w3.org/2000/svg" viewBox="0 0 32 32"><path d="M9.432 3a.35.35 0 0 1 .337.258l1.57 5.72a.35.35 0 0 1-.117.367l-2.273 1.527a1.805 1.805 0 0 0-.607 2.108 20.4 20.4 0 0 0 4.515 6.163 20.4 20.4 0 0 0 6.163 4.515 1.8 1.8 0 0 0 .658.124 1.82 1.82 0 0 0 1.462-.749l1.502-2.127a.35.35 0 0 1 .38-.136l5.72 1.57a.35.35 0 0 1 .255.386l-.401 2.904a2.34 2.34 0 0 1-.797 1.53l-.094.093A5.27 5.27 0 0 1 24.187 29a3.4 3.4 0 0 1-.843-.107 27.16 27.16 0 0 1-13.034-7.21A27.16 27.16 0 0 1 3.107 8.656c-.456-1.793.64-3.361 1.64-4.361L4.84 4.2a2.34 2.34 0 0 1 1.527-.797l3.016-.4zm0-1a1.4 1.4 0 0 0-.186.013l-3.048.405a3.36 3.36 0 0 0-2.159 1.17c-1.455 1.454-2.41 3.32-1.903 5.315a28.2 28.2 0 0 0 7.47 13.49 28.2 28.2 0 0 0 13.49 7.47 4.4 4.4 0 0 0 1.09.137 6.15 6.15 0 0 0 4.225-2.04 3.36 3.36 0 0 0 1.17-2.159l.405-2.939a1.35 1.35 0 0 0-.98-1.487l-5.72-1.57a1.35 1.35 0 0 0-1.462.524l-1.502 2.128a.8.8 0 0 1-.938.27 19.8 19.8 0 0 1-5.82-4.291 19.8 19.8 0 0 1-4.291-5.82.8.8 0 0 1 .27-.94l2.236-1.501a1.35 1.35 0 0 0 .523-1.461l-1.57-5.72A1.35 1.35 0 0 0 9.434 2z"/><path fill="none" d="M0 0h32v32H0z"/></svg>