<?xml version="1.0" encoding="UTF-8"?><svg id="icons" xmlns="http://www.w3.org/2000/svg" viewBox="0 0 32 32"><defs><style>.cls-1{fill:none;}</style></defs><path d="M16,2c-7.71973,0-14,6.28027-14,14s6.28027,14,14,14,14-6.28027,14-14S23.71973,2,16,2ZM29,16h-2.29297l2.10645-2.10645c.11273.68732.18652,1.3877.18652,2.10645ZM28.56616,12.72681l-3.27319,3.27319h-2.58594l5.19989-5.19989c.27094.61792.48621,1.26337.65924,1.9267ZM26.43158,8.27545c.37128.50012.71753,1.01947,1.01514,1.5708l-6.15375,6.15375h-2.58594l7.72455-7.72455ZM25.80371,7.48926l-8.51074,8.51074h-1.29297v-1.29297l8.51074-8.51074c.46075.40057.8924.83221,1.29297,1.29297ZM23.72455,5.56842l-7.72455,7.72455v-2.58594l6.15375-6.15375c.55133.29761,1.07068.64386,1.5708,1.01514ZM21.19989,4.09308l-5.19989,5.19989v-2.58594l3.27319-3.27319c.66333.17303,1.30878.38831,1.9267.65924ZM18.10645,3.18652l-2.10645,2.10645v-2.29297c.71875,0,1.41913.07379,2.10645.18652ZM16,29c-7.16797,0-13-5.83203-13-13,0-6.83044,5.29895-12.43549,12-12.94934v13.91934h13.9493c-.51385,6.70105-6.11886,12.03-12.9493,12.03Z"/><rect class="cls-1" width="32" height="32"/></svg>