<svg xmlns="http://www.w3.org/2000/svg" viewBox="0 0 24 24"><path d="M12.5 1C6.16 1 1.02 6.16 1.02 12.5S6.16 24 12.5 24 24 18.84 24 12.5 18.84 1 12.5 1m10.475 11h-3.268l2.766-2.766c.288.877.456 1.805.502 2.766m-1.827-5.441q.538.782.929 1.657L18.293 12h-2.586zM13 2.025c.96.046 1.89.214 2.766.502L13 5.293zm0 4.682 3.784-3.784c.582.261 1.137.57 1.657.928L13 9.293zm0 4 6.244-6.244q.702.591 1.293 1.293L14.293 12H13zM12.5 23C6.71 23 2 18.29 2 12.5 2 6.879 6.443 2.289 12 2.025V12.97h10.975C22.71 18.527 18.12 23 12.5 23"/><path fill="none" d="M0 0h24v24H0z"/></svg>