<svg xmlns="http://www.w3.org/2000/svg" viewBox="0 0 32 32"><path d="M16 2C8.28 2 2 8.28 2 16s6.28 14 14 14 14-6.28 14-14S23.72 2 16 2m13 14h-2.293l2.106-2.106C28.926 14.58 29 15.28 29 16m-.434-3.273L25.293 16h-2.586l5.2-5.2a13 13 0 0 1 .66 1.927zm-2.134-4.452c.37.5.717 1.02 1.015 1.571L21.293 16h-2.586zm-.628-.786L17.293 16H16v-1.293l8.51-8.51q.692.6 1.294 1.292m-2.08-1.92L16 13.292v-2.586l6.154-6.154c.551.298 1.07.644 1.57 1.015zM21.2 4.092l-5.2 5.2V6.707l3.273-3.273c.664.173 1.309.388 1.927.66zm-3.094-.906L16 5.293V3c.719 0 1.42.074 2.106.187zM16 29C8.832 29 3 23.168 3 16 3 9.17 8.299 3.565 15 3.05v13.92h13.95C28.434 23.671 22.83 29 16 29"/><path fill="none" d="M0 0h32v32H0z"/></svg>