<?xml version="1.0" encoding="UTF-8"?><svg id="icons" xmlns="http://www.w3.org/2000/svg" viewBox="0 0 24 24"><defs><style>.cls-1{fill:none;}</style></defs><path d="M12.5,1C6.15918,1,1.02,6.15918,1.02,12.5s5.13918,11.5,11.48,11.5,11.5-5.15918,11.5-11.5S18.84082,1,12.5,1ZM22.97467,12h-3.26764l2.76617-2.76617c.28796.87695.45593,1.80524.50146,2.76617ZM21.1485,6.55853c.35846.52014.66705,1.07568.92834,1.65759l-3.78387,3.78387h-2.58594l5.44147-5.44147ZM13,2.02533c.96094.04553,1.88922.2135,2.76617.50146l-2.76617,2.76617v-3.26764ZM13,6.70703l3.78387-3.78387c.58191.26129,1.13745.56989,1.65759.92834l-5.44147,5.44147v-2.58594ZM13,10.70703l6.24396-6.24396c.46753.39288.90009.82544,1.29297,1.29297l-6.24396,6.24396h-1.29297v-1.29297ZM12.5,23c-5.79004,0-10.5-4.70996-10.5-10.5C2,6.87872,6.44287,2.28882,12,2.02533v10.94467h10.9747c-.26349,5.55713-4.85342,10.03-10.4747,10.03Z"/><rect class="cls-1" width="24" height="24"/></svg>