<?xml version="1.0" encoding="UTF-8"?><svg id="icons" xmlns="http://www.w3.org/2000/svg" viewBox="0 0 16 16"><defs><style>.cls-1{fill:none;}</style></defs><path d="M8.5,1C4.36426,1,1.03,4.36426,1.03,8.5s3.33426,7.5,7.47,7.5,7.5-3.36426,7.5-7.5S12.63574,1,8.5,1ZM9,2.02533c.37286.02863.73572.09009,1.08844.1792l-1.08844,1.08844v-1.26764ZM9,4.70703l2.14081-2.14081c.57697.25787,1.10901.59662,1.58282,1.00311l-3.72363,3.72363v-2.58594ZM13.43066,4.27637c.40649.47382.74524,1.00586,1.00311,1.58282l-2.14081,2.14081h-2.58594l3.72363-3.72363ZM14.79547,6.91156c.08911.35272.15057.71558.1792,1.08844h-1.26764l1.08844-1.08844ZM8.5,15c-3.58398,0-6.5-2.91602-6.5-6.5,0-3.41522,2.64948-6.21771,6-6.47467v6.94467h6.97467c-.25696,3.35052-3.05945,6.03-6.47467,6.03Z"/><path class="cls-1" d="M16,16H0V0h16v16Z"/></svg>