<svg xmlns="http://www.w3.org/2000/svg" viewBox="0 0 24 24"><path d="M19.5 5.994a1.5 1.5 0 1 0 1.5 1.5 1.5 1.5 0 0 0-1.5-1.5m0 2a.5.5 0 1 1 .5-.5.5.5 0 0 1-.5.5M4.5 4A1.5 1.5 0 1 0 6 5.5 1.5 1.5 0 0 0 4.5 4m0 2a.5.5 0 1 1 .5-.5.5.5 0 0 1-.5.5m7 4a2.5 2.5 0 1 0 2.5 2.5 2.5 2.5 0 0 0-2.5-2.5m0 4a1.5 1.5 0 1 1 1.5-1.5 1.5 1.5 0 0 1-1.5 1.5m0-7C9.015 7 7 7.96 7 10.459v8.608l4.5 4.522 4.5-4.522V10.46C16 7.96 13.985 7 11.5 7M15 18.654l-3.5 3.518L8 18.654V10.46C8 8.828 9.178 8 11.5 8s3.5.827 3.5 2.458zm8-12.97v6.394l-3.5 3.51L17 13.08v-1.415l2.5 2.505 2.5-2.505V5.684C22 5.268 22 4 19.5 4S17 5.268 17 5.684v2.57a4.3 4.3 0 0 0-1-1.306V5.684C16 3.745 17.567 3 19.5 3s3.5.745 3.5 2.684M4.5 12.178 6 10.674v1.416l-1.5 1.504-3.5-3.51V3.69c0-1.938 1.567-2.684 3.5-2.684S8 1.752 8 3.69v2.576a4.8 4.8 0 0 0-1 .71V3.69c0-.416 0-1.684-2.5-1.684S2 3.274 2 3.69v5.982z"/><path fill="none" d="M0 0h24v24H0z"/></svg>