<?xml version="1.0" encoding="UTF-8"?><svg id="icons" xmlns="http://www.w3.org/2000/svg" viewBox="0 0 32 32"><rect width="32" height="32" style="fill:none;"/><path d="M19.35352,18.35352l-.70703-.70703-3.05469,3.05469-4.29297-4.29297,3.05469-3.05469-.70703-.70703-3.05469,3.05469-1.94238-1.94238-3.69727,3.69629c-1.4707,1.4707-1.4707,3.86328,0,5.33496l.36102.36102-1.237,1.23761c-.23535.23535-.36621.54883-.36621.88281s.12988.64844.36621.88477l.53027.53027-2.82812,2.82812.70703.70703,2.82812-2.82812.53027.53027c.23633.23633.5498.36621.88379.36621h.00098c.33396,0,.64844-.13086.88281-.36621l1.23761-1.237.36102.36102c.73535.73535,1.70215,1.10254,2.66797,1.10254s1.93164-.36719,2.66699-1.10254l3.69629-3.69727-1.94238-1.94238,3.05469-3.05469ZM6.90332,27.21777c-.0625.0625-.13672.07227-.1748.07227h-.00098c-.03809,0-.11328-.00977-.17676-.07324l-1.76758-1.76758c-.06348-.06348-.07324-.13867-.07324-.17773,0-.03809.00977-.1123.07227-.1748l1.23779-1.23877,2.12207,2.12207-1.23877,1.23779ZM13.83789,26.34082c-1.08008,1.08008-2.83887,1.08008-3.9209,0l-4.25781-4.25781c-1.08008-1.08105-1.08008-2.83984,0-3.9209l.86877-.86853,8.17847,8.17847-.86853.86877ZM16.82715,23.35059l-1.41382,1.41431-8.17822-8.17822,1.41431-1.41382,8.17773,8.17773ZM28.29004,6.72852c0-.33398-.12988-.64844-.36621-.88477l-.53027-.53027,2.82812-2.82812-.70703-.70703-2.82812,2.82812-.53027-.53027c-.23633-.23633-.5498-.36621-.88379-.36621h-.00098c-.33401,0-.64844.13086-.88281.36621l-1.23761,1.237-.36102-.36102c-1.4707-1.4707-3.86426-1.4707-5.33496,0l-3.69629,3.69727,9.5918,9.5918,3.69727-3.69629c1.4707-1.4707,1.4707-3.86328,0-5.33496l-.36102-.36102,1.237-1.23761c.23535-.23535.36621-.54883.36621-.88281ZM23.35059,16.82715l-8.17773-8.17773,1.41382-1.41431,8.17822,8.17822-1.41431,1.41382ZM26.34082,13.83789l-.86877.86853-8.17847-8.17847.86853-.86877c1.08008-1.08008,2.83887-1.08008,3.9209,0l3.89648,3.89746.36133.36035c1.08008,1.08105,1.08008,2.83984,0,3.9209ZM27.21777,6.90332l-1.23779,1.23877-2.12207-2.12207,1.23877-1.23779c.0625-.0625.13672-.07227.1748-.07227h.00098c.03809,0,.11328.00977.17676.07324l1.76758,1.76758c.06348.06348.07324.13867.07324.17773,0,.03809-.00977.1123-.07227.1748Z"/></svg>