<?xml version="1.0" encoding="UTF-8"?><svg id="icons" xmlns="http://www.w3.org/2000/svg" viewBox="0 0 16 16"><rect width="16" height="16" style="fill:none;"/><path d="M9.41309,9.29395l-.71289-.70117-1.77319,1.80005-1.31915-1.31915,1.79938-1.77386-.70117-.71289-1.8053,1.77966-1.10876-1.10876-1.36426,1.36426c-.85358.85443-.96027,2.17773-.32019,3.14868l-.74329.7439c-.38965.38965-.38965,1.02441,0,1.41406L.04688,15.24609l.70703.70703,1.31738-1.31738h0c.19531.19531.45117.29199.70703.29199s.51172-.09668.70703-.29199l.7439-.74329c.41626.27441.89691.41125,1.37817.41125.64062,0,1.28223-.24316,1.77051-.73145l1.36426-1.36426-1.10815-1.10815,1.77905-1.80591ZM2.77832,13.92871l-.70703-.70703.70703-.70801.70801.70801-.70801.70703ZM6.6709,12.86523c-.58594.58594-1.54102.58594-2.12695,0l-1.40918-1.40918c-.58594-.58594-.58594-1.54004,0-2.12695l.65723-.65723,3.53613,3.53613-.65723.65723ZM15.95312.75391l-.70703-.70703-1.31738,1.31738c-.39062-.39062-1.02344-.39062-1.41406,0l-.74396.74341c-.97223-.64124-2.29486-.53455-3.14862.32007l-1.46387,1.46484,4.94922,4.94922,1.46484-1.46387c.85364-.85449.96033-2.17767.32013-3.14874l.74335-.74384c.38965-.38965.38965-1.02441,0-1.41406l1.31738-1.31738ZM12.86523,6.6709l-.75781.75684-3.53516-3.53516.75684-.75781c.58691-.58691,1.54199-.58496,2.12695,0l1.40918,1.40918c.58594.58594.58594,1.54004,0,2.12695ZM13.22168,3.48633l-.70801-.70801.70801-.70703.70703.70703-.70703.70801Z"/></svg>