<svg xmlns="http://www.w3.org/2000/svg" viewBox="0 0 24 24"><path fill="none" d="M0 0h24v24H0z"/><path d="m13.646 12.646-2.328 2.329-2.293-2.293 2.329-2.328-.708-.708-2.328 2.329L7 10.657l-2.888 2.887a2.91 2.91 0 0 0-.533 3.362l-.468.468a1.5 1.5 0 0 0 0 2.122l.354.354-2.808 2.807.707.707 2.808-2.807.353.353a1.5 1.5 0 0 0 2.121 0l.469-.468c.41.204.852.319 1.3.319.746 0 1.493-.284 2.062-.853l2.887-2.887-1.339-1.34 2.329-2.327zM5.94 20.203a.5.5 0 0 1-.707 0L3.818 18.79a.5.5 0 0 1 0-.708l.353-.353 2.122 2.122-.354.353zm3.83-1.002a1.92 1.92 0 0 1-2.71.001l-2.243-2.244a1.92 1.92 0 0 1 .003-2.707l.767-.766 4.95 4.95-.766.766zm1.474-1.473-4.95-4.95.707-.707 4.95 4.95zM20.535 4.15l2.808-2.807-.707-.707-2.808 2.807-.353-.353a1.503 1.503 0 0 0-2.121 0l-.469.468a2.91 2.91 0 0 0-3.362.534l-2.887 2.887L17 13.343l2.888-2.887a2.91 2.91 0 0 0 .533-3.363l.468-.467a1.5 1.5 0 0 0 0-2.122zm-2.474-.353a.5.5 0 0 1 .707 0l1.414 1.414a.5.5 0 0 1 0 .708l-.353.353-2.122-2.122zM12.05 6.979l.707-.707 4.95 4.95-.707.707zm7.13 2.77-.766.766-4.95-4.95.766-.766a1.92 1.92 0 0 1 2.71-.001l2.244 2.244a1.92 1.92 0 0 1-.003 2.707z"/></svg>