<?xml version="1.0" encoding="UTF-8"?><svg id="icons" xmlns="http://www.w3.org/2000/svg" viewBox="0 0 24 24"><rect width="24" height="24" style="fill:none;"/><path d="M13.64648,12.64648l-2.32831,2.32831-2.29309-2.29285,2.32843-2.32843-.70703-.70703-2.32849,2.32849-1.31799-1.31775-2.8877,2.88672c-.90906.90985-1.07837,2.27063-.53345,3.36255l-.46753.46753c-.58496.58496-.58496,1.53711,0,2.12207l.35352.35352-2.80762,2.80762.70703.70703,2.80762-2.80762.35352.35352c.29199.29199.67676.43848,1.06055.43848s.76855-.14648,1.06055-.43848l.46838-.46838c.40942.20416.85205.31897,1.29919.31897.74707,0,1.49414-.28418,2.0625-.85254l2.8877-2.8877-1.33899-1.33875,2.32825-2.32825-.70703-.70703ZM5.93945,20.20312c-.19531.19531-.51172.19531-.70703,0l-1.41406-1.41406c-.19531-.19531-.19531-.5127,0-.70801l.35303-.35303,2.12158,2.12158-.35352.35352ZM9.76953,19.20117c-.74774.74481-1.96185.74695-2.70996.00079l-2.24377-2.24438c-.74304-.74744-.74219-1.9599.00354-2.7066l.7663-.76593,4.95001,4.95001-.76611.76611ZM11.24268,17.72803l-4.94989-4.94989.70721-.70685,4.9502,4.94922-.70752.70752ZM20.53516,4.15039l2.80762-2.80762-.70703-.70703-2.80762,2.80762-.35352-.35352c-.58398-.58398-1.53713-.58398-2.12109,0l-.46838.46838c-1.0932-.54517-2.45331-.37482-3.36169.53357l-2.8877,2.8877,6.36426,6.36328,2.8877-2.88672c.90906-.90985,1.07837-2.27063.53345-3.36255l.46753-.46753c.58496-.58496.58496-1.53711,0-2.12207l-.35352-.35352ZM18.06055,3.79688c.19531-.19531.51172-.19531.70703,0l1.41406,1.41406c.19531.19531.19531.5127,0,.70801l-.35303.35303-2.12158-2.12158.35352-.35352ZM12.0498,6.97949l.70752-.70752,4.94989,4.94989-.70721.70685-4.9502-4.94922ZM19.18066,9.74902l-.7663.76593-4.95001-4.95001.76611-.76611c.74677-.74481,1.96088-.74695,2.70996-.00079l2.24377,2.24438c.74304.74744.74219,1.9599-.00354,2.7066Z"/></svg>