<?xml version="1.0" encoding="UTF-8"?><svg id="icons" xmlns="http://www.w3.org/2000/svg" viewBox="0 0 32 32"><defs><style>.cls-1{fill:none;}</style></defs><path d="M12.29321,17.73651l-1.30859.76337,5.51508,3.21735,5.51562-3.21735-1.30865-.76331.99237-.57886,2.30103,1.34216-7.50043,4.37506-7.49957-4.37506,2.30084-1.34222.99231.57886ZM24.00006,13.49988l-7.50043,4.37506-7.49957-4.37506,7.49957-4.37494,7.50043,4.37494ZM16.49969,16.71722l5.51562-3.21735-5.51562-3.21722-5.51508,3.21722,5.51508,3.21735ZM14,2.5c0-1.38074,1.11932-2.5,2.5-2.5s2.49103,1.11926,2.49103,2.5c0,1.20929-.85181,2.21777-1.99103,2.44958v3.05042h-1v-3.05042c-1.14105-.23169-2-1.24017-2-2.44958ZM15,2.5c0,.82715.67285,1.5,1.5,1.5s1.49103-.67285,1.49103-1.5-.66388-1.5-1.49103-1.5-1.5.67285-1.5,1.5ZM9.00098,25.99994c-2.09375,0-4.00098-2.10742-4.00098-4.42188v-8.63184c0-1.68555.93457-3.20508,2.43848-3.96777l7.0871-3.59271c-.29352-.20142-.54474-.45447-.76459-.73358l-6.77441,3.4342c-1.82935.92719-2.98657,2.80884-2.98657,4.85992v8.63208c0,2.7627,2.23895,5.42163,5.00104,5.42163h4.40155c.33057-.40875.73615-.74707,1.20099-1.00006h-5.6026ZM19.31921,4.54797c-.21014.29016-.46356.54413-.75092.75757l9.4317,4.27545v9.65723c0,3.60156-2.96191,6.76172-6.33887,6.76172h-3.26685c.46387.25299.86829.59131,1.19775,1.00006h2.06879c4.05328,0,7.33917-3.70709,7.33917-7.76147v-10.30243l-9.68079-4.38812ZM18.99103,29.5c0,1.38068-1.11029,2.5-2.49103,2.5s-2.5-1.11932-2.5-2.5c0-1.20947.85895-2.2179,2-2.44958v-3.05042h1v3.05042c1.13922.23175,1.99103,1.24023,1.99103,2.44958ZM17.99103,29.5c0-.82715-.66388-1.5-1.49103-1.5s-1.5.67285-1.5,1.5.67285,1.5,1.5,1.5,1.49103-.67285,1.49103-1.5Z"/><rect class="cls-1" width="32" height="32"/></svg>