<?xml version="1.0" encoding="UTF-8"?><svg id="icons" xmlns="http://www.w3.org/2000/svg" viewBox="0 0 16 16"><defs><style>.cls-1{fill:none;}</style></defs><rect class="cls-1" width="16" height="16"/><path d="M9,13v-.75006l3-1.75-1.57935-.9212-.99225.57886.58691.34235-1.51544.88403-1.51532-.88403.58698-.34241-.99225-.57886-1.57928.92126,3,1.75018v.74988c-.55231,0-1,.44769-1,1v1c0,.55225.44769,1,1,1h1c.55231,0,1-.44775,1-1v-1c0-.55231-.44769-1-1-1ZM9,15h-1v-1h1v1ZM8,3v1h1v-1c.55231,0,1-.44775,1-1v-1c0-.55231-.44769-1-1-1h-1c-.55231,0-1,.44769-1,1v1c0,.55225.44769,1,1,1ZM8,1h1v1h-1v-1ZM15,4.94751v5.49518c0,2.32605-1.74011,4.22345-3.99103,4.50116,0,0,.00055-.92487,0-.94385,1.69879-.26758,2.99103-1.78473,2.99103-3.55762v-4.85059l-4-1.81384v-.06677c.2948-.17303.54498-.41016.71844-.7052l4.28156,1.94153ZM5.00897,7.49994l3.49084,2.04175,3.49121-2.04175-3.49121-2.04163-3.49084,2.04163ZM10.01532,7.49994l-1.51544.88403-1.51532-.88403,1.51532-.88391,1.51544.88391ZM4.88086,14h1.11914v1h-1.11908c-1.59125,0-2.88092-1.28918-2.88092-2.88049v-5.08667c0-1.06677.60175-2.04517,1.55304-2.52716l2.77869-1.40741c.16846.255.40411.45319.66827.60767v.17438l-2.99609,1.51813c-.61914.31348-1.00391.93945-1.00391,1.63477v5.08594c0,1.03711.84375,1.88086,1.88086,1.88086Z"/></svg>