<?xml version="1.0" encoding="UTF-8"?><svg id="icons" xmlns="http://www.w3.org/2000/svg" viewBox="0 0 24 24"><defs><style>.cls-1{fill:none;}</style></defs><path d="M8.93518,13.94873l-.94366.55121,4.50818,2.63361,4.50867-2.63361-.94366-.55115.992-.57867,1.93433,1.12982-6.49133,3.79175-6.49072-3.79175,1.93427-1.12988.99194.57867ZM18.99103,10.49994l-6.49133,3.79175-6.49072-3.79175,6.49072-3.79156,6.49133,3.79156ZM12.49969,13.13354l4.50867-2.63361-4.50867-2.63348-4.50818,2.63348,4.50818,2.63361ZM11,2v-1c0-.55231.44769-1,1-1h1c.55231,0,1,.44769,1,1v1c0,.55225-.44769,1-1,1v2h-1v-2c-.55231,0-1-.44775-1-1ZM12,2h1v-1h-1v1ZM14,22v1c0,.55225-.44769,1-1,1h-1c-.55231,0-1-.44775-1-1v-1c0-.55231.44769-1,1-1v-2h1v2c.55231,0,1,.44769,1,1ZM13,22h-1v1h1v-1ZM14.06281,3.67358c-.02234.01422-.03986.03473-.06281.0481v1.02161l7,3.17273v7.18555c0,2.60938-2.13965,4.89844-4.57812,4.89844h-2.42188v.27832c.29956.17474.55017.42377.72601.72162h1.69617c3.08057,0,5.57788-2.81732,5.57788-5.89868v-7.8299l-7.93726-3.59778ZM11,20h-4.19922c-1.46582,0-2.80078-1.4873-2.80078-3.12012v-6.56055c0-1.18945.65918-2.26367,1.72168-2.80176l5.27832-2.67517v-1.12073l-.00073-.00055-5.72949,2.90442c-1.39026.70471-2.26971,2.13483-2.26971,3.69354v6.56042c0,2.09967,1.70154,4.12042,3.80072,4.12042h3.47321c.17584-.29785.42645-.54688.72601-.72162v-.27832Z"/><rect class="cls-1" width="24" height="24"/></svg>