<svg xmlns="http://www.w3.org/2000/svg" viewBox="0 0 24 24"><path d="M23 5.198c-.127 2.911-.059 9.816-4.98 14.695a5.7 5.7 0 0 0 .18-1.393c0-.083-.009-.164-.012-.246 3.49-4.168 3.683-9.51 3.79-12.481L22 5.17a8 8 0 0 1-.894.052c-3.262 0-6.319-1.997-7.606-2.962-1.287.965-4.345 2.961-7.607 2.962A8 8 0 0 1 5 5.17l.022.603c.033.91.079 2.05.22 3.304a4 4 0 0 0-.962.327c-.21-1.71-.236-3.2-.28-4.206V3.94C8.479 5.353 13.479 1 13.479 1l.021.017.021-.017s5 4.353 9.479 2.94zM8.01 22H2v-1.5A2.503 2.503 0 0 1 4.5 18h2.325a5.7 5.7 0 0 1 .182-1H4.5A3.504 3.504 0 0 0 1 20.5V23h8.014a5.7 5.7 0 0 1-1.003-1zM3 13a3 3 0 0 1 6 0 3 3 0 0 1-.278 1.243 5.7 5.7 0 0 0-1.055 1.249A2.998 2.998 0 0 1 3 13m1 0a2 2 0 1 0 2-2 2 2 0 0 0-2 2m8.5 10a4.5 4.5 0 1 1 4.5-4.5 4.505 4.505 0 0 1-4.5 4.5m0-1A3.5 3.5 0 1 0 9 18.5a3.504 3.504 0 0 0 3.5 3.5m-1.455-3.866a1.5 1.5 0 0 1 1.16-1.105 1.5 1.5 0 0 1 .436-.023l.091-.996a2.6 2.6 0 0 0-.723.038 2.51 2.51 0 0 0-1.935 1.844zm.394 1.427-.707.707a2.5 2.5 0 0 0 4.065-2.755l-.918.395a1.5 1.5 0 0 1-2.44 1.653"/><path fill="none" d="M0 0h24v24H0z"/></svg>