<svg xmlns="http://www.w3.org/2000/svg" viewBox="0 0 32 32"><path d="M30 5.668v1.648c-.178 4.058-.059 14.043-7.885 20.443a6.5 6.5 0 0 0 .765-2.028c5.65-5.659 5.938-13.447 6.09-17.652q.015-.435.031-.807v-.348a10 10 0 0 1-1.491.113c-4.376 0-8.478-2.786-10.01-3.958-1.532 1.172-5.634 3.958-10.01 3.958A10 10 0 0 1 6 6.924v.392c.01.204.02.474.03.764a61 61 0 0 0 .223 3.75 5 5 0 0 0-.915.791C5.084 10.464 5.056 8.594 5 7.316V5.668a8.3 8.3 0 0 0 2.49.37c5.113 0 9.982-4.219 9.982-4.219l.028.023.028-.023s4.868 4.218 9.982 4.218a8.3 8.3 0 0 0 2.49-.37zM11.82 29H3v-3.5A3.504 3.504 0 0 1 6.5 22h4.002a6.5 6.5 0 0 1 .53-1H6.5A4.505 4.505 0 0 0 2 25.5V30h11.052a6.5 6.5 0 0 1-1.231-1zM5 16a4 4 0 1 1 4 4 4.004 4.004 0 0 1-4-4m1 0a3 3 0 1 0 3-3 3.003 3.003 0 0 0-3 3m10.5 3.2a5.3 5.3 0 1 1-5.3 5.3 5.306 5.306 0 0 1 5.3-5.3m0 1a4.3 4.3 0 1 0 4.3 4.3 4.304 4.304 0 0 0-4.3-4.3m-2.333 1.966a3.3 3.3 0 0 0-.868 1.53l.97.243a2.3 2.3 0 0 1 1.778-1.694 2.4 2.4 0 0 1 .667-.036l.094-.995a3.3 3.3 0 0 0-2.641.952m.707 3.96-.707.707a3.3 3.3 0 0 0 5.366-3.636l-.92.395a2.29 2.29 0 0 1-.487 2.534 2.356 2.356 0 0 1-3.252 0"/><path fill="none" d="M0 0h32v32H0z"/></svg>