<svg xmlns="http://www.w3.org/2000/svg" viewBox="0 0 16 16"><path d="M3.5 5a3 3 0 0 0-.403.04c-.081-.874-.1-1.631-.124-2.178v-.858C6.037 2.968 9.458 0 9.458 0l.015.012L9.485 0 9.5.012 9.515 0S12.935 2.968 16 2.004v.858a22.8 22.8 0 0 1-.558 4.803 17.6 17.6 0 0 1-2.46 5.515c.003-.061.018-.118.018-.18a4 4 0 0 0-.225-1.269 17.6 17.6 0 0 0 1.738-4.473 20.4 20.4 0 0 0 .458-4.015l.002-.054a6 6 0 0 1-.282.007 9.6 9.6 0 0 1-5.205-1.945 9.6 9.6 0 0 1-5.205 1.945 7 7 0 0 1-.28-.006l.001.053c.019.514.042 1.134.107 1.819A3.5 3.5 0 0 0 3.5 5m-1.855 5.16A2.496 2.496 0 1 1 6 8.5a2.48 2.48 0 0 1-.645 1.66 2.5 2.5 0 0 1 .58.299 4 4 0 0 0-.543.842A1.5 1.5 0 0 0 4.5 11h-2A1.5 1.5 0 0 0 1 12.5V15h4.555a4 4 0 0 0 .825 1H0v-3.5a2.5 2.5 0 0 1 1.645-2.34M3.5 10A1.5 1.5 0 1 0 2 8.5 1.5 1.5 0 0 0 3.5 10M9 10a3 3 0 1 1-3 3 3.003 3.003 0 0 1 3-3m0 1a2 2 0 1 0 2 2 2 2 0 0 0-2-2m-1 2.5a.5.5 0 0 0 .5.5h1a.5.5 0 0 0 .5-.5V13H8z"/><path fill="none" d="M0 0h16v16H0z"/></svg>