<svg xmlns="http://www.w3.org/2000/svg" viewBox="0 0 24 24"><path d="M11 20H2V8h19v1h.5a2.5 2.5 0 0 1 .5.05V6.949L18.272 2H4.728L1 6.948V21h10v-1zm1-17h5.773l3.014 4H12V3zM5.227 3H11v4H2.213l3.014-4zM21.5 10h-8c-.827 0-1.5.673-1.5 1.5v10c0 .827.673 1.5 1.5 1.5h8c.827 0 1.5-.673 1.5-1.5v-10c0-.827-.673-1.5-1.5-1.5zm.5 11.5a.5.5 0 0 1-.5.5h-8a.5.5 0 0 1-.5-.5v-10a.5.5 0 0 1 .5-.5h8a.5.5 0 0 1 .5.5v10zM17 13h3v1h-3v-1zm0 6h3v1h-3v-1zm0-3h3v1h-3v-1zm-2-3h1v1h-1v-1zm0 6h1v1h-1v-1zm0-3h1v1h-1v-1z" stroke-width="0"/><path stroke-width="0" fill="none" d="M0 0h24v24H0z"/></svg>