<svg xmlns="http://www.w3.org/2000/svg" viewBox="0 0 16 16"><path fill="none" d="M0 0h16v16H0z"/><path d="M6.786 13H1V7h6.786l.229-.229A2.514 2.514 0 0 1 8.05 6H1V4h14v2h-2.05a2.5 2.5 0 0 1 .035.771l.229.229H15v1.05c.372.076.708.242 1 .463V3h-4V1H4v2H0v11h7.786l-1-1zM5 2h6v1H5V2zm11 10.48V14h-2.786l.786-.682.887-.318.451-.162c.242-.087.464-.21.662-.359zm-5.5-.78l-1.2-1.2 1.2-1.2 1.2 1.2-1.2 1.2zm1.27 2.535c.019.085.03.174.03.265a1.3 1.3 0 1 1-2.57-.27l-2.46-2.46A1.3 1.3 0 0 1 5.2 10.5c0-.466.26-.857.628-1.086L7 10.586 10.414 14h.174l2.535-2.52.707.708-2.06 2.047zM15.8 10.5c0 .466-.26.857-.628 1.086l-1.522-1.522L10.586 7h-.172L7.886 9.528l-.707-.707 2.052-2.052a1.3 1.3 0 1 1 2.539 0l2.46 2.462c.087-.02.177-.031.27-.031a1.3 1.3 0 0 1 1.3 1.3z"/></svg>