<svg xmlns="http://www.w3.org/2000/svg" viewBox="0 0 24 24"><path fill="none" d="M0 0h24v24H0z"/><path d="M12.586 20H2V10h12.394c.514-.592 1.263-.975 2.106-.975s1.592.383 2.106.975H22v3.834c.376.115.714.304 1 .55V5h-6V3H7v2H1v16h12.586l-1-1zM8 4h8v1H8V4zM2 6h20v3H2V6zm21 12.587V21h-3.586l1-1H22v-1.318c.136.065.28.107.427.107a.99.99 0 0 0 .573-.202zm-6.5-4.437l-2.35 2.35 2.35 2.35 2.35-2.35-2.35-2.35zm-.936 2.35l.936-.936.936.936-.936.937-.936-.937zm2.684 4.252a1.802 1.802 0 0 1-1.748 2.224 1.802 1.802 0 0 1-1.748-2.224l-2.503-2.503a1.802 1.802 0 0 1-2.224-1.748c0-.506.211-.962.548-1.29l1.9 1.95 3.675 3.643a.5.5 0 0 0 .704 0l3.03-2.999.657.656-2.291 2.29zm-4.908-5.779l-.656-.656 2.068-2.068a1.802 1.802 0 0 1 1.748-2.224 1.802 1.802 0 0 1 1.748 2.224l2.503 2.503a1.8 1.8 0 0 1 2.224 1.748c0 .506-.211.962-.548 1.29l-5.572-5.65a.5.5 0 0 0-.711 0l-2.804 2.833z"/></svg>