<svg xmlns="http://www.w3.org/2000/svg" viewBox="0 0 32 32"><path d="M3 10h25v4h.5a2.5 2.5 0 0 1 .5.05V9.49L24.232 3H6.768L2 9.49V28h15v-1H3zm13-6h7.727l3.672 5H16zM7.273 4H15v5H3.6zM28.5 15h-9c-.827 0-1.5.673-1.5 1.5v12c0 .827.673 1.5 1.5 1.5h9c.827 0 1.5-.673 1.5-1.5v-12c0-.827-.673-1.5-1.5-1.5m.5 13.5a.5.5 0 0 1-.5.5h-9a.5.5 0 0 1-.5-.5v-12a.5.5 0 0 1 .5-.5h9a.5.5 0 0 1 .5.5zM23 18h4v1h-4zm0 8h4v1h-4zm0-4h4v1h-4zm-2-4h1v1h-1zm0 8h1v1h-1zm0-4h1v1h-1z"/><path fill="none" d="M0 0h32v32H0z"/></svg>