<svg xmlns="http://www.w3.org/2000/svg" viewBox="0 0 32 32"><path fill="none" d="M0 0h32v32H0z"/><path d="M13.124 24H2V10h26v8.525l.282.283a3.27 3.27 0 0 1 .218-.008c.171 0 .335.028.5.05V4h-9V2H9v2H1v21h12.79a3.7 3.7 0 0 1-.666-1zM10 3h9v1h-9V3zM2 5h26v4H2V5zm24 17.5L22.5 19 19 22.5l3.5 3.5 3.5-3.5zm-3.5-2.086l2.086 2.086-2.086 2.086-2.086-2.086 2.086-2.086zm8.48 2.086c0 .53-.147 1.02-.429 1.424l-.752-.684a1.495 1.495 0 0 0-2.16-1.965l-3.914-3.914C24.428 16.364 23.704 15 22.5 15c-1.205 0-1.927 1.365-1.225 2.36l-3.457 3.458-.707-.707.02-.02 2.96-2.96A2.477 2.477 0 0 1 20 16.5a2.5 2.5 0 1 1 5 0c0 .22-.037.429-.09.631l2.959 2.96c.202-.054.412-.091.631-.091 1.38 0 2.48 1.12 2.48 2.5zm-3.798 1.682l.707.707-.02.02-2.96 2.96c.054.202.09.411.09.631a2.5 2.5 0 0 1-5 0c0-.22.038-.429.091-.631l-2.959-2.96A2.435 2.435 0 0 1 16.5 25c-1.38 0-2.45-1.12-2.45-2.5 0-.597.168-1.07.518-1.5l.716.649c-.98 1.393.735 3.021 2.077 2.076l3.914 3.914c-.699.992.012 2.361 1.225 2.361.705 0 1.32-.498 1.466-1.188a1.481 1.481 0 0 0-.241-1.173l3.207-3.207.25-.25z"/></svg>