<svg xmlns="http://www.w3.org/2000/svg" viewBox="0 0 16 16"><path d="M9.508 4a.15.15 0 0 1-.145-.1c-.103-.272-.04-.364.216-.671a1.9 1.9 0 0 0 .553-1.275A1.98 1.98 0 0 0 8 0a1.98 1.98 0 0 0-2.132 1.954A1.9 1.9 0 0 0 6.42 3.23c.256.307.32.399.216.671a.15.15 0 0 1-.145.1H1v4.497a1.15 1.15 0 0 0 .722 1.07 1.41 1.41 0 0 0 1.584-.35 1.06 1.06 0 0 1 .74-.349C4.75 8.868 5 9.478 5 10s-.25 1.132-.954 1.132a1.06 1.06 0 0 1-.74-.349 1.41 1.41 0 0 0-1.584-.35A1.15 1.15 0 0 0 1 11.503V16h14V4zM14 15H2v-3.497a.15.15 0 0 1 .097-.143c.215-.089.267-.061.568.19a2.02 2.02 0 0 0 1.381.582A1.98 1.98 0 0 0 6 10a1.98 1.98 0 0 0-1.954-2.132 2.02 2.02 0 0 0-1.381.581c-.301.25-.352.279-.569.19A.16.16 0 0 1 2 8.498V5h4.492a1.16 1.16 0 0 0 1.08-.744 1.52 1.52 0 0 0-.383-1.668.97.97 0 0 1-.321-.634C6.868 1.25 7.478 1 8 1s1.132.25 1.132.954a.97.97 0 0 1-.321.634 1.52 1.52 0 0 0-.382 1.668A1.16 1.16 0 0 0 9.508 5H14z"/><path fill="none" d="M0 0h16v16H0z"/></svg>