<svg xmlns="http://www.w3.org/2000/svg" viewBox="0 0 32 32"><path d="M19.444 8a.72.72 0 0 1-.722-.749 1.97 1.97 0 0 1 .454-.988 3.66 3.66 0 0 0 .799-2.208c0-1.972-1.739-2.96-3.476-2.96-1.835 0-3.474 1.06-3.474 2.96a3.66 3.66 0 0 0 .799 2.208 1.97 1.97 0 0 1 .454.988.723.723 0 0 1-.722.749H4v8.53a1.73 1.73 0 0 0 .527 1.24 1.82 1.82 0 0 0 1.26.482 2.8 2.8 0 0 0 1.513-.627A2.7 2.7 0 0 1 8.945 17c1.378 0 2.005 1.282 2.005 2.473 0 1.193-.627 2.476-2.005 2.476a2.7 2.7 0 0 1-1.645-.625 2.8 2.8 0 0 0-1.513-.627 1.87 1.87 0 0 0-1.26.48A1.73 1.73 0 0 0 4 22.42V30h24V8zM27 29H5v-6.581a.73.73 0 0 1 .221-.521.7.7 0 0 1 .528-.2 1.96 1.96 0 0 1 .989.453 3.66 3.66 0 0 0 2.207.798c1.973 0 3.005-1.749 3.005-3.476S10.918 16 8.945 16a3.66 3.66 0 0 0-2.207.798 1.96 1.96 0 0 1-.99.454.67.67 0 0 1-.527-.201.73.73 0 0 1-.221-.52V9h8.556a1.724 1.724 0 0 0 1.721-1.786A2.8 2.8 0 0 0 14.65 5.7a2.7 2.7 0 0 1-.625-1.645c0-1.378 1.282-2.005 2.473-2.005 1.193 0 2.477.627 2.477 2.005A2.7 2.7 0 0 1 18.35 5.7a2.8 2.8 0 0 0-.627 1.514A1.723 1.723 0 0 0 19.444 9H27z"/><path fill="none" d="M0 0h32v32H0z"/></svg>