<svg xmlns="http://www.w3.org/2000/svg" viewBox="0 0 24 24"><path d="M13.25 8.5a.75.75 0 1 1-.75-.75.75.75 0 0 1 .75.75M9.911 21.35l.816.578C10.819 21.798 13 18.666 13 13h-1a15.5 15.5 0 0 1-2.089 8.35M4 6.703V10a2 2 0 0 1-2 2v1a2 2 0 0 1 2 2v3.297A3.707 3.707 0 0 0 7.703 22H9v-1H7.703A2.706 2.706 0 0 1 5 18.297V15a3 3 0 0 0-1.344-2.5A3 3 0 0 0 5 10V6.703A2.706 2.706 0 0 1 7.703 4H9V3H7.703A3.707 3.707 0 0 0 4 6.703M20 10V6.703A3.707 3.707 0 0 0 16.297 3H15v1h1.297A2.706 2.706 0 0 1 19 6.703V10a3 3 0 0 0 1.344 2.5A3 3 0 0 0 19 15v3.297A2.706 2.706 0 0 1 16.297 21H15v1h1.297A3.707 3.707 0 0 0 20 18.297V15a2 2 0 0 1 2-2v-1a2 2 0 0 1-2-2"/><path fill="none" d="M0 0h24v24H0z"/></svg>