<svg xmlns="http://www.w3.org/2000/svg" viewBox="0 0 16 16"><path d="M11.578 15H11v-1h.578A1.423 1.423 0 0 0 13 12.578V10a2 2 0 0 1 .679-1.5A2 2 0 0 1 13 7V4.422A1.423 1.423 0 0 0 11.578 3H11V2h.578A2.425 2.425 0 0 1 14 4.422V7a1 1 0 0 0 1 1v1a1 1 0 0 0-1 1v2.578A2.425 2.425 0 0 1 11.578 15M3 4.422V7a1 1 0 0 1-1 1v1a1 1 0 0 1 1 1v2.578A2.425 2.425 0 0 0 5.422 15H6v-1h-.578A1.423 1.423 0 0 1 4 12.578V10a2 2 0 0 0-.679-1.5A2 2 0 0 0 4 7V4.422A1.423 1.423 0 0 1 5.422 3H6V2h-.578A2.425 2.425 0 0 0 3 4.422M9.25 6.5a.75.75 0 1 0-.75.75.75.75 0 0 0 .75-.75m-2.278 8.053.795.607C7.817 15.094 9 13.504 9 10H8a8.17 8.17 0 0 1-1.028 4.553"/><path fill="none" d="M0 0h16v16H0z"/></svg>