<svg xmlns="http://www.w3.org/2000/svg" viewBox="0 0 24 24"><path stroke-width="0" fill="none" d="M0 0h24v24H0z"/><path d="M12.5 2C7.78 2 3 3.03 3 5v5.697c.397-.102.575-.165 1-.184V6.411C5.643 7.457 9.082 8 12.5 8s6.857-.543 8.5-1.589v3.437C21 10.726 17.688 12 12.5 12c-1.55 0-2.93-.115-4.106-.299.388.333.734.714 1.027 1.134A29.52 29.52 0 0 0 12.5 13c3.418 0 6.857-.57 8.5-1.67v6.25c0 .977-3.233 2.34-8.5 2.34-.637 0-1.243-.02-1.818-.057l1.046 1.046c.257.007.514.012.772.012 4.72 0 9.491-1.39 9.491-3.584L22 5c0-1.97-4.78-3-9.5-3zm0 5C7 7 4 5.679 4 5s3-2 8.5-2S21 4.321 21 5s-3 2-8.5 2zM7.926 19.23c.6-.753.974-1.693.974-2.73a4.4 4.4 0 1 0-4.4 4.4c1.04 0 1.984-.376 2.737-.98l3.084 3.084a.476.476 0 0 0 .673 0l.017-.016a.476.476 0 0 0 0-.674L7.926 19.23zM1.1 16.5c0-1.875 1.526-3.4 3.4-3.4s3.4 1.525 3.4 3.4-1.525 3.4-3.4 3.4-3.4-1.525-3.4-3.4z" stroke-width="0"/></svg>