<svg xmlns="http://www.w3.org/2000/svg" viewBox="0 0 16 16"><path stroke-width="0" fill="none" d="M0 0h16v16H0z"/><path d="M8.5 1C4.612 1 2 1.984 2 3.48v3.35a4.28 4.28 0 0 1 1-.129V4.906c1.101.672 3.045 1.073 5.5 1.073s4.399-.4 5.5-1.073V7.48c0 .507-1.661 1.61-5.5 1.61-.664 0-1.24-.037-1.776-.089.185.325.33.561.426.932.432.028.878.047 1.35.047 2.455 0 4.399-.4 5.5-1.073v2.573c0 .507-1.661 1.554-5.5 1.554-.361 0-.685-.017-1.008-.033l1.032.98C12.398 13.974 15 12.97 15 11.48v-8C15 1.983 12.388 1 8.5 1zm0 4C4.661 5 3 3.986 3 3.48s1.661-1.5 5.5-1.5 5.5.993 5.5 1.5S12.339 5 8.5 5zm-3.13 7.663A2.88 2.88 0 0 0 5.9 11 2.9 2.9 0 1 0 3 13.9a2.88 2.88 0 0 0 1.663-.53l2.398 2.398a.5.5 0 1 0 .707-.707L5.37 12.663zM1.1 11c0-1.048.852-1.9 1.9-1.9s1.9.852 1.9 1.9-.852 1.9-1.9 1.9-1.9-.852-1.9-1.9z" stroke-width="0"/></svg>