<svg xmlns="http://www.w3.org/2000/svg" viewBox="0 0 32 32"><path d="M16.5 25.5a1 1 0 1 1 1-1 1 1 0 0 1-1 1m0-22.3a13.3 13.3 0 1 0 13.3 13.3A13.3 13.3 0 0 0 16.5 3.2m2.77 13.388c-.137.155-.273.3-.406.443A4.94 4.94 0 0 0 17.2 21v.2h-1.4V21a6.2 6.2 0 0 1 2.039-4.92q.192-.206.383-.42c.922-1.038 1.588-1.787 1.578-3.13 0-2.3-1.824-3.33-3.632-3.33-1.911 0-3.968 1.132-3.968 3.617v.2h-1.4v-.2a4.72 4.72 0 0 1 1.721-3.782A5.74 5.74 0 0 1 16.168 7.8c2.424 0 5.032 1.478 5.032 4.725a5.76 5.76 0 0 1-1.93 4.063"/><path fill="none" d="M0 0h32v32H0z"/></svg>