<svg xmlns="http://www.w3.org/2000/svg" viewBox="0 0 24 24"><path d="M12.5 19.5a1 1 0 1 1 1-1 1 1 0 0 1-1 1m0-17.3a10.3 10.3 0 1 0 10.3 10.3A10.3 10.3 0 0 0 12.5 2.2m2.144 9.9-.113.11a3.32 3.32 0 0 0-1.33 2.79v.2H11.8V15a4.74 4.74 0 0 1 1.77-3.807l.092-.09c.664-.652 1.144-1.122 1.138-1.906A2 2 0 0 0 12.607 7.2a2.23 2.23 0 0 0-2.424 2.19v.2h-1.4v-.2a3.38 3.38 0 0 1 1.237-2.711 4.08 4.08 0 0 1 2.587-.88A3.36 3.36 0 0 1 16.2 9.194a3.94 3.94 0 0 1-1.556 2.908z"/><path fill="none" d="M0 0h24v24H0z"/></svg>