<svg xmlns="http://www.w3.org/2000/svg" viewBox="0 0 24 24"><path d="M13 15h-1a4.62 4.62 0 0 1 1.803-3.755c.672-.66 1.203-1.182 1.197-2.049A2.19 2.19 0 0 0 12.607 7a2.42 2.42 0 0 0-2.624 2.39h-1a3.19 3.19 0 0 1 1.163-2.557A3.88 3.88 0 0 1 12.606 6 3.173 3.173 0 0 1 16 9.193a3.73 3.73 0 0 1-1.496 2.765A3.64 3.64 0 0 0 13 15m-1.5 3.5a1 1 0 1 0 1-1 1 1 0 0 0-1 1m11.3-6A10.3 10.3 0 1 1 12.5 2.2a10.297 10.297 0 0 1 10.3 10.3m-1 0a9.3 9.3 0 1 0-9.3 9.3 9.31 9.31 0 0 0 9.3-9.3"/><path fill="none" d="M0 0h24v24H0z"/></svg>