<svg xmlns="http://www.w3.org/2000/svg" viewBox="0 0 16 16"><path d="M4.505 13.1a3.56 3.56 0 0 1-3.54-3.846 6.49 6.49 0 0 1 5.462-6.26l.605-.13v1.99L6.795 5A4.8 4.8 0 0 0 5.16 6.975a3.02 3.02 0 0 1 2.89 2.883A3.33 3.33 0 0 1 4.505 13.1m1.527-8.973a5.44 5.44 0 0 0-4.067 5.127 2.6 2.6 0 0 0 2.54 2.846A2.354 2.354 0 0 0 7.05 9.858c0-1.329-1.318-1.934-2.542-1.934h-.689l.137-.655a6.56 6.56 0 0 1 2.076-2.961zm6.473 8.973a3.56 3.56 0 0 1-3.54-3.846 6.49 6.49 0 0 1 5.462-6.26l.605-.13v1.99L14.795 5a4.8 4.8 0 0 0-1.634 1.975 3.02 3.02 0 0 1 2.889 2.883 3.33 3.33 0 0 1-3.545 3.242m1.527-8.973a5.44 5.44 0 0 0-4.067 5.127 2.6 2.6 0 0 0 2.54 2.846 2.354 2.354 0 0 0 2.545-2.242c0-1.329-1.318-1.934-2.542-1.934h-.689l.137-.655a6.56 6.56 0 0 1 2.076-2.961z"/><path fill="none" d="M0 0h16v16H0z"/></svg>