<?xml version="1.0" encoding="UTF-8"?><svg id="icons" xmlns="http://www.w3.org/2000/svg" viewBox="0 0 32 32"><defs><style>.cls-1{fill:none;}</style></defs><rect class="cls-1" width="32" height="32"/><path d="M19.50164,12.00001l4.49835,4.5-4.51276,4.5h-1.41406l4.51276-4.5-4.49835-4.5h1.41406ZM12.50671,12.00001l-4.50671,4.5,4.48328,4.5h1.41406l-4.48328-4.5,4.50671-4.5h-1.41406ZM7,27H2.5c-.27588,0-.5-.22461-.5-.5V6.5c0-.27539.22412-.5.5-.5h4.5v-1H2.5c-.82843,0-1.5.67157-1.5,1.5v20c0,.82843.67157,1.5,1.5,1.5h4.5v-1ZM29.5,5h-4.5v1h4.5c.27588,0,.5.22461.5.5v20c0,.27539-.22412.5-.5.5h-4.5v1h4.5c.82843,0,1.5-.67157,1.5-1.5V6.5c0-.82843-.67157-1.5-1.5-1.5Z"/></svg>