<?xml version="1.0" encoding="UTF-8"?><svg id="icons" xmlns="http://www.w3.org/2000/svg" viewBox="0 0 16 16"><defs><style>.cls-1{fill:none;}</style></defs><path d="M7,6l-2.5,2.5,2.5,2.5h-1.41406l-2.5-2.5,2.5-2.5h1.41406ZM9,6l2.5,2.5-2.5,2.5h1.41406l2.5-2.5-2.5-2.5h-1.41406ZM3,14H1V3h2v-1h-1.91406c-.55231,0-1.08594.44769-1.08594,1v11c0,.55225.53363,1,1.08594,1h1.91406v-1ZM14.91406,2h-1.91406v1h2v11h-2v1h2c.55231,0,.91406-.44775.91406-1V3c0-.55231-.44769-1-1-1Z"/><rect class="cls-1" width="16" height="16"/></svg>