<?xml version="1.0" encoding="UTF-8"?><svg id="icons" xmlns="http://www.w3.org/2000/svg" viewBox="0 0 24 24"><defs><style>.cls-1{fill:none;}.cls-1,.cls-2,.cls-3,.cls-4{stroke-width:0px;}.cls-2{opacity:.5;}.cls-3{opacity:.25;}</style></defs><path class="cls-2" d="M7,4h3v3h-3v-3ZM3,19h3v-3h-3v3ZM11,12v3h.96338l.00555-.0332c.20056-1.4411.70947-2.37347,1.35217-2.9668h-2.32111Z"/><path class="cls-3" d="M3,4h3v3h-3v-3ZM3,15h3v-3h-3v3ZM7,19h3v-3h-3v3ZM12.4632,8h-1.4632v3h3v-1.16736c-.61841-.51135-1.15002-1.1236-1.5368-1.83264Z"/><path class="cls-4" d="M15.63654,17l-.14337.93512h-1.80444l-.78174,6.06488h-1.23553l.78174-6.06488h-1.61359l.14337-.93512h1.6145l.29315-1.89062c.2511-1.80444,1.06018-3.08655,3.05365-3.08655.31689,0,.69861.06396.91779.18994l-.33148,1.10864c-.25391-.09595-.52234-.15887-.80823-.15887-1.28302,0-1.45648.93323-1.64557,2.21625l-.24377,1.62122h1.80353ZM23.51923,17h-1.51776l-1.83331,2.20575-1.32202-2.20575h-1.63184l1.91461,2.9729-3.62891,4.0271h1.54962l2.78156-3.229,1.91864,3.229h1.64636l-2.52667-4.0271,2.64972-2.9729ZM13,5c0-2.75702,2.24298-5,5-5s5,2.24298,5,5-2.24298,5-5,5-5-2.24298-5-5ZM14,5c0,2.20532,1.79462,4,4,4s4-1.79468,4-4-1.79462-4-4-4-4,1.79462-4,4ZM20,5h-2v-3h-1v4h3v-1ZM10,19h1.34857l-.12891,1H2V3h10.03082c-.10834.32251-.18848.65674-.24359,1h-.78723v3h1.0318c.11694.34711.25842.68286.4314,1h-1.4632v3h3v-1.16736c.3103.25665.64404.48187,1,.67621v.65869c-.58685.12555-1.17426.36658-1.67889.83246h-2.32111v3h.96338l-.16748,1h-4.7959v3h3ZM7,7h3v-3h-3v3ZM7,11h3v-3h-3v3ZM7,15h3v-3h-3v3ZM6,16h-3v3h3v-3ZM6,12h-3v3h3v-3ZM6,8h-3v3h3v-3ZM6,4h-3v3h3v-3Z"/><rect class="cls-1" width="24" height="24"/></svg>