<svg xmlns="http://www.w3.org/2000/svg" viewBox="0 0 32 32"><path fill="none" d="M0 0h32v32H0z"/><path d="M2.726 7H1l.153-1H2.88l.254-1.7C3.402 2.372 4.268 1 6.399 1c.34 0 .747.068.982.203L7.026 2.39a2.4 2.4 0 0 0-.864-.17c-1.372 0-1.557.998-1.76 2.37L4.202 6H6.13l-.153 1h-1.93l-.964 7H1.762zm7.277 2.693L7.659 6h1.745l1.71 2.873L13.524 6h1.623l-3.283 3.693L14.566 14h-1.76l-2.052-3.453L7.779 14H6.122l3.88-4.307zM28 8H16.108l-.889 1H28v11.695l1 .75V3H9.25l-.298 1H28zm-6 18H4V15.5H3V27h19zm1-7v12l8-6z"/></svg>