<svg xmlns="http://www.w3.org/2000/svg" viewBox="0 0 32 32"><path d="M17 15h-5v-1h5zm-6-4H6V6h5zm-1-4H7v3h3zm1 10H6v-5h5zm-1-4H7v3h3zm-4 5h5v5H6zm1 4h3v-3H7zM17.2 7.998a6.8 6.8 0 0 1 6.8-6.8 6.8 6.8 0 0 1 6.8 6.8 6.8 6.8 0 0 1-13.6 0m1 0c0 3.199 2.601 5.8 5.8 5.8s5.8-2.601 5.8-5.8-2.601-5.8-5.8-5.8-5.8 2.602-5.8 5.8M27 8h-3V4h-1v5h4zM12 8v1h3.817a8 8 0 0 1-.067-1zm0 13h4.673l.126-.847c.008-.055.022-.099.03-.153H12zm6.856 1 .2-1.411c.203-1.372.353-2.37 1.725-2.37.306 0 .593.067.865.17L22 17.203c-.234-.135-.643-.203-.982-.203-2.131 0-2.961 1.371-3.23 3.3l-.254 1.7h-1.726l-.154 1h1.726l-.964 7h1.321l.964-7h1.93l.153-1zm9.322 0-2.41 2.873L24.059 22h-1.744l2.343 3.693L20.777 30h1.657l2.974-3.453L27.46 30h1.76l-2.701-4.307L29.8 22h-1.623zM3 25.002V4a1 1 0 0 1 .999-1h13.453a8.3 8.3 0 0 1 .901-1H3.998a2 2 0 0 0-1.989 2.008L2 24.998C2 26.102 2.896 27 3.998 27h11.821l.138-1H3.999A1 1 0 0 1 3 25.002m16-8.539v-1.918a8.3 8.3 0 0 1-1-.902v3.592a3.5 3.5 0 0 1 1-.772M5 24V5h11.322q.201-.519.467-1H4v21h12.095l.137-1z"/><path fill="none" d="M0 0h32v32H0z"/></svg>