<?xml version="1.0" encoding="UTF-8"?><svg id="icons" xmlns="http://www.w3.org/2000/svg" viewBox="0 0 16 16"><defs><style>.cls-1{fill:none;}.cls-1,.cls-2{stroke-width:0px;}</style></defs><rect class="cls-1" width="16" height="16"/><path class="cls-2" d="M2,9h2v2h-2v-2ZM4,6h-2v2h2v-2ZM4,3h-2v2h2v-2ZM14,5v-1h-2v-2h-1v3h3ZM1,12.09088V1.90906c0-.50208.37311-.90906.83331-.90906h5.81592c.25531-.36572.56689-.68439.90466-.97595-.07288-.01056-.14502-.02405-.22058-.02405H1.66669C.74707,0,0,.80621,0,1.79486v10.41028c0,.9903.74707,1.79486,1.66669,1.79486h5.13507l.13086-1H1.83331c-.46021,0-.83331-.40704-.83331-.90912ZM10.28455,8.78809c.19055,0,.36957.04199.53882.10596l.22101-.73914c-.14618-.08398-.40063-.12659-.61188-.12659-1.32898,0-1.86841.85474-2.03577,2.05768l-.15057.92682h-1.073l-.16418.98718h1.06342l-.52332,4h.82367l.52332-4h1.203l.1731-.98718h-1.20233l.11768-.74719c.12604-.85535.2417-1.47754,1.09705-1.47754ZM14.98816,11.01282l-1.50183,1.79102-1.06598-1.79102h-1.08789l1.46106,2.30243-2.41931,2.68475h1.03314l1.85431-2.15265,1.27911,2.15265h1.0976l-1.68445-2.68475,2.04608-2.30243h-1.01184ZM5,3v1h1.70001c0-.34241.03918-.67548.10223-1h-1.80225ZM7.10278,6h-2.10278v1h2.64923c-.21716-.3111-.39972-.64581-.54645-1ZM8.00897,4c0-2.20917,1.80786-4,4.04901-4s3.94202,1.79083,3.94202,4c0,2.18237-1.66241,3.94952-3.86346,3.99213l.09198-.30756-.68457-.39551c-.4082-.23535-.91309-.26074-1.11133-.26074-.25244,0-.55267.02771-.86493.1084-.94757-.73224-1.55872-1.85791-1.55872-3.13672ZM9,4c0,1.65411,1.34589,3,3,3s3-1.34589,3-3-1.34589-3-3-3-3,1.34589-3,3ZM5,10h2.39752l.01166-.07422c.04907-.35168.12915-.65271.22498-.92578h-2.63416v1Z"/></svg>