<svg xmlns="http://www.w3.org/2000/svg" viewBox="0 0 24 24"><path d="M11.082 10H11V6h4v2.187a7.87 7.87 0 0 0-3.72 1.623 4 4 0 0 0-.198.19M20 1h-4v4h4zm0 10.423-.055.002a14 14 0 0 0-2.06.287 3 3 0 0 0-.744.288l.009.076a3 3 0 0 0 .267.312L19.623 15H20zM7.866 16.647a5 5 0 0 1-.45-.647H6v4h4v-2.09a3 3 0 0 1-2.134-1.263M1 5h4V1H1zm0 10h4v-4H1z" opacity=".25"/><path d="M16 8.052V6h4v2.266a18.4 18.4 0 0 0-3.106-.253q-.452.002-.894.039M1 20h4v-4H1zm15-1.335V20h.92q-.491-.724-.92-1.335M10 1H6v4h4z" opacity=".5"/><path d="M21 11.385v5.245L19.623 15H20v-3.577zm-8.142 4.106a3 3 0 0 1-.19.509h1.314c-.074-.083-.153-.176-.218-.243-.115-.116-.444-.448-.547-.455a2 2 0 0 0-.359.19zM17.592 21H0V0h21v8.921l-.293-.316a1 1 0 0 0-.502-.293l-.15-.035L20 8.266V6h-4v2.052c-.34.028-.673.076-1 .135V6h-4v4h.082a3.27 3.27 0 0 0-1.005 1.928l-.051.038c-.01 0-.016.004-.026.004V11H6v4h1.036a3 3 0 0 0 .38 1H6v4h4v-2.09c.029 0 .057.011.085.011a1.95 1.95 0 0 0 .915-.225V20h4v-2.724c.298.4.633.866 1 1.389V20h.92q.323.476.672 1M16 5h4V1h-4zm-5 0h4V1h-4zM6 5h4V1H6zm0 5h4V6H6zm-1 6H1v4h4zm0-5H1v4h4zm0-5H1v4h4zm0-5H1v4h4zm17.575 20.99-.822.753a1.3 1.3 0 0 1-.882.343 1 1 0 0 1-.167-.01 1.3 1.3 0 0 1-.932-.585 75 75 0 0 0-5.288-7.428c-.454-.458-.79-.761-1.27-.761a2.33 2.33 0 0 0-1.262.603 2.36 2.36 0 0 1-1.306 1.84c-.267.187-.997.493-2.009-.734-1.01-1.23-.57-1.888-.333-2.114a2.36 2.36 0 0 1 2.06-.926q.131-.109.262-.204c.394-.298.483-.395.453-.671-.075-.671.837-1.513.846-1.521a7.9 7.9 0 0 1 4.969-1.562 17.5 17.5 0 0 1 2.932.237l.148.036 1.02 1.098-1.087.042a15 15 0 0 0-2.246.312 4.4 4.4 0 0 0-1.635.797l.016.06a4 4 0 0 1 .13.765 2.3 2.3 0 0 0 .541.739l5.979 7.084a1.303 1.303 0 0 1-.117 1.808zm-7.844-8.063a5.6 5.6 0 0 1 .837-.63 1.8 1.8 0 0 1-.393-.865 3 3 0 0 0-.103-.591.87.87 0 0 1 .215-.996 5.7 5.7 0 0 1 1.374-.83 6.7 6.7 0 0 0-4.08 1.315 2.3 2.3 0 0 0-.508.706 1.61 1.61 0 0 1-.845 1.529q-.138.1-.274.216a.78.78 0 0 1-.585.193c-.6-.05-.733.034-1.374.646a1.5 1.5 0 0 0 .414.756 1.6 1.6 0 0 0 .674.547c.711-.506.82-.62.886-1.219a.78.78 0 0 1 .302-.537 3.35 3.35 0 0 1 1.943-.865 2.27 2.27 0 0 1 1.517.625m7.197 6.9-5.705-6.762a5.4 5.4 0 0 0-.781.564 84 84 0 0 1 5.169 7.316.308.308 0 0 0 .467.06l.821-.752a.306.306 0 0 0 .029-.425z"/><path fill="none" d="M0 0h24v24H0z"/><path fill="none" d="M0 0h24v24H0z"/></svg>