<svg xmlns="http://www.w3.org/2000/svg" viewBox="0 0 16 16"><path d="M3 3H1V1h2zm6 1H7v2h2zM6 7H4v2h2z" opacity=".25"/><path d="M3 9H1V7h2zm3-8H4v2h2z" opacity=".5"/><path d="M7.41 9.926c.048-.352.128-.653.224-.926H7V7h2v.358a3 3 0 0 1 1-.302V0H0v10h7.398l.011-.074zM7 1h2v2H7zm0 3h2v2H7zM3 9H1V7h2zm0-3H1V4h2zm0-3H1V1h2zm3 6H4V7h2zm0-3H4V4h2zm0-3H4V1h2zm2.072 9H6.997l.173-.987h1.076l.15-.927c.168-1.203.708-2.058 2.036-2.058.212 0 .466.043.612.127l-.22.739a1.5 1.5 0 0 0-.54-.106c-.855 0-.97.622-1.097 1.478l-.117.747h1.202L10.1 12H8.896l-.523 4h-.824zm4.722 1.315-1.462-2.302h1.088l1.066 1.79 1.502-1.79H16l-2.046 2.302L15.638 16h-1.097l-1.28-2.153L11.408 16h-1.033z"/><path fill="none" d="M0 0h16v16H0z"/></svg>