<svg xmlns="http://www.w3.org/2000/svg" viewBox="0 0 16 16"><path d="M1 7h2v2H1V7zm3-6v2h2V1H4z" opacity=".5" stroke-width="0"/><path d="M12 5h-1V2h1v2h2v1h-2zm-4.602 5H0V0h8.583c-.35.297-.671.624-.934 1H7v1.327c-.18.529-.3 1.085-.3 1.673 0 .606.109 1.185.3 1.726V6h.106c.148.354.33.69.549 1H7v2h.641c-.098.273-.182.57-.232.926L7.398 10zM3 7H1v2h2V7zm0-3H1v2h2V4zm0-3H1v2h2V1zm3 6H4v2h2V7zm0-3H4v2h2V4zm0-3H4v2h2V1zm2.009 3c0-2.21 1.808-4 4.049-4S16 1.79 16 4c0 2.209-1.7 4-3.942 4-.013 0-.026-.004-.04-.004a.989.989 0 0 0-.474-.707c-.408-.235-.913-.26-1.111-.26-.253 0-.553.027-.865.108A3.95 3.95 0 0 1 8.009 4zM9 4c0 1.654 1.346 3 3 3s3-1.346 3-3-1.346-3-3-3-3 1.346-3 3zm1.285 4.788c.19 0 .37.042.538.106l.221-.74c-.146-.083-.4-.126-.612-.126-1.328 0-1.868.855-2.035 2.058l-.15.927H7.17L6.997 12h1.075l-.523 4h.824l.523-4H10.1l.173-.987H9.07l.117-.747c.127-.856.242-1.478 1.098-1.478zm4.703 2.225l-1.502 1.79-1.066-1.79h-1.088l1.462 2.302L10.374 16h1.033l1.855-2.153L14.54 16h1.097l-1.684-2.685L16 11.013h-1.012z" stroke-width="0"/><path stroke-width="0" fill="none" d="M0 0h16v16H0z"/><path d="M6 7v2H4V7h2zM1 3h2V1H1v2z" opacity=".25" stroke-width="0"/></svg>