<?xml version="1.0" encoding="UTF-8"?><svg id="icons" xmlns="http://www.w3.org/2000/svg" viewBox="0 0 32 32"><defs><style>.cls-1{fill:none;}.cls-1,.cls-2,.cls-3,.cls-4{stroke-width:0px;}.cls-2{opacity:.5;}.cls-3{opacity:.25;}</style></defs><path class="cls-2" d="M8,3h4v4h-4V3ZM13,13v4h4v-4h-4ZM3,22h4v-4H3v4Z"/><path class="cls-3" d="M3,3h4v4H3V3ZM3,17h4v-4H3v4ZM8,22h4v-4h-4v4ZM17,11.86176c-.63623-1.14465-.99963-2.46088-.99994-3.86176h-3.00006v4h4v-.13824ZM18.23163,17c.8399-.77649,1.8949-1,2.82208-1,.14502,0,.53906.01831.94629.12811v-.39325c-1.57306-.40717-2.95654-1.28387-4-2.46661v3.73175h.23163Z"/><path class="cls-4" d="M24,14.79816c3.75635,0,6.79999-3.04443,6.79999-6.79993,0-3.75635-3.04364-6.79999-6.79999-6.79999-3.75537,0-6.79999,3.04364-6.79999,6.79999,0,3.75549,3.04462,6.79993,6.79999,6.79993ZM24,2.19824c3.19873,0,5.79999,2.60168,5.79999,5.80023s-2.60126,5.79974-5.79999,5.79974-5.79999-2.6012-5.79999-5.79974,2.60138-5.80023,5.79999-5.80023ZM27,9h-4v-5h1v4h3v1ZM29.80078,22l-3.28217,3.69336,2.70209,4.30664h-1.76068l-2.05182-3.45312-2.97461,3.45312h-1.65717l3.8808-4.30664-2.34369-3.69336h1.74506l1.71002,2.87299,2.40912-2.87299h1.62305ZM20.78424,22l-.15332,1h-1.92969l-.96393,7h-1.32129l.96387-7h-1.72559l.15332-1h1.72662l.25385-1.69922c.26855-1.92969,1.13385-3.30078,3.26562-3.30078.33893,0,.74707.06836.98151.20306l-.35449,1.18561c-.27148-.1026-.55859-.16986-.86432-.16986-1.37207,0-1.55762.99799-1.75977,2.37006l-.20111,1.41113h1.92871ZM13,18h4v1.18231c.27209-.99567.70856-1.69873,1.23163-2.18231h-.23163v-3.73175c-.38049-.43121-.71875-.90045-1-1.40649v.13824h-4v-4h3v-1h-3V3h4v1.13379c.22198-.40057.47858-.77887.76355-1.13379.29022-.36133.6131-.69391.96069-1H2v21h12.64258l.15332-1h-1.7959v-4ZM13,13h4v4h-4v-4ZM7,22H3v-4h4v4ZM7,17H3v-4h4v4ZM7,12H3v-4h4v4ZM7,7H3V3h4v4ZM12,22h-4v-4h4v4ZM12,17h-4v-4h4v4ZM12,12h-4v-4h4v4ZM12,7h-4V3h4v4Z"/><rect class="cls-1" width="32" height="32"/></svg>