<svg xmlns="http://www.w3.org/2000/svg" viewBox="0 0 32 32"><path d="M13 16.568V13h3.128a8 8 0 0 0-.614.473c-.015.013-1.513 1.347-1.428 2.712-.082.07-.215.171-.29.227l-.134.103h-.026a4 4 0 0 0-.636.053m9-5.519V8h-4v3.985a12.3 12.3 0 0 1 4-.936M3 22h4v-4H3zm15.944-1.242a2.8 2.8 0 0 0-.944-.752V22h1.975a16 16 0 0 0-1.03-1.242zM12 3H8v4h4z" opacity=".5"/><path d="M17 12h-4V8h4zm5-9h-4v4h4zM3 7h4V3H3zm7.955 15c-1.858-2.267-.767-3.625-.388-3.988L10.58 18H8v4zM3 17h4v-4H3z" opacity=".25"/><path d="M19.975 22q.321.416.75 1h-5.733q.33-.237.609-.47l.045-.041a4 4 0 0 0 .49-.489H17v-1.653a2.15 2.15 0 0 1 .808-.372.6.6 0 0 1 .192.031V22zm-7.942 1H2V2h21v9.015l-.182-.005c-.28 0-.548.021-.818.039V8h-4v3.985A10.4 10.4 0 0 0 16.128 13H13v3.568a3.4 3.4 0 0 0-.52.127l-.03.01a3 3 0 0 0-.45.19V13H8v4h3.803a7 7 0 0 0-1.223 1H8v4h2.955l.006.006a6 6 0 0 0 .54.57 4.4 4.4 0 0 0 .532.424M18 7h4V3h-4zm-5 0h4V3h-4zm0 5h4V8h-4zM8 7h4V3H8zm0 5h4V8H8zm-1 6H3v4h4zm0-5H3v4h4zm0-5H3v4h4zm0-5H3v4h4zm23.41 26.472-1.122 1.027a1.598 1.598 0 0 1-2.413-.299 102 102 0 0 0-7.21-10.136c-.651-.656-1.135-1.09-1.857-1.09a3.45 3.45 0 0 0-1.918.93c-.108 1.264-.621 1.68-1.675 2.424-.4.281-1.348.6-2.489-.965C10.689 19.94 11 19 11.259 18.734a2.92 2.92 0 0 1 2.78-1.2 1.7 1.7 0 0 1 .36-.324c.515-.388.74-.58.686-1.074-.09-.796 1.078-1.902 1.09-1.912a10.47 10.47 0 0 1 6.643-2.214 19.3 19.3 0 0 1 4.05.474l.147.035 1.088 1.167-1.092.042a20 20 0 0 0-3.199.407 6.2 6.2 0 0 0-2.38 1.187c.01.055.029.132.046.198a5.4 5.4 0 0 1 .172 1.007 2.96 2.96 0 0 0 .788 1.12l8.115 9.616a1.594 1.594 0 0 1-.142 2.209zm-10.529-10.59a7.2 7.2 0 0 1 1.386-1.046 2.55 2.55 0 0 1-.614-1.237 4.5 4.5 0 0 0-.145-.835 1.01 1.01 0 0 1 .232-1.169 7.2 7.2 0 0 1 2.848-1.435q.231-.052.464-.098c-.393-.031-.81-.052-1.234-.052a9.56 9.56 0 0 0-5.987 1.969A3.3 3.3 0 0 0 16 16a2.25 2.25 0 0 1-.999 2.009c-.126.095-.257.193-.382.303a.9.9 0 0 1-.662.218c-.878-.076-1.111.072-2.007.927-.134.128.012.617.549 1.271.536.65.987.887 1.14.782 1.012-.713 1.2-.91 1.297-1.79a.9.9 0 0 1 .341-.608 4.4 4.4 0 0 1 2.531-1.137 3.04 3.04 0 0 1 2.073.907m9.908 9.025-7.853-9.309a6.7 6.7 0 0 0-1.35.993A123 123 0 0 1 27.71 29.65a.598.598 0 0 0 .903.113l1.123-1.028a.597.597 0 0 0 .054-.827z"/><path fill="none" d="M0 0h32v32H0z"/><path fill="none" d="M0 0h32v32H0z"/></svg>