<svg xmlns="http://www.w3.org/2000/svg" viewBox="0 0 16 16"><path d="M8.257 6H7V4h2v1.61a6 6 0 0 0-.743.39M1 3h2V1H1zm4.178 5.683A4.5 4.5 0 0 1 6 8.035V7H4v2h.91a2 2 0 0 1 .268-.317" opacity=".25"/><path d="M3 9H1V7h2zm3-8H4v2h2z" opacity=".5"/><path d="M4 9V7h2v1.035a2.6 2.6 0 0 1 .697-.295A3 3 0 0 1 7 7.166V7h.118a4 4 0 0 1 .5-.556A5 5 0 0 1 8.258 6H7V4h2v1.61a7 7 0 0 1 1-.356V0H0v10h4.539a2.1 2.1 0 0 1 .37-1zm2-3H4V4h2zM3 6H1V4h2zm6-5v2H7V1zM6 1v2H4V1zM3 1v2H1V1zM1 9V7h2v2zm10.864.093a2 2 0 0 1-.304-.376 3 3 0 0 0-.074-.464 2.7 2.7 0 0 1 .925-.43 9.5 9.5 0 0 1 1.507-.192l1.088-.042-.961-1.034-.148-.035a9.7 9.7 0 0 0-2.026-.237 5.35 5.35 0 0 0-3.398 1.14c-.007.005-.677.608-.616 1.15.01.09.012.105-.232.29l-.127.097a1.71 1.71 0 0 0-1.422.662c-.19.182-.55.704.206 1.627.76.92 1.342.667 1.556.515a1.72 1.72 0 0 0 .923-1.26 1.3 1.3 0 0 1 .675-.322c.232 0 .403.134.717.45a46 46 0 0 1 3.372 4.68 1.03 1.03 0 0 0 .736.463 1 1 0 0 0 .133.008 1.03 1.03 0 0 0 .696-.271l.543-.497a1.03 1.03 0 0 0 .093-1.428zM8.847 8.56a1.4 1.4 0 0 1 .282-.382 4.1 4.1 0 0 1 1.898-.821 4 4 0 0 0-.33.243.75.75 0 0 0-.198.828 2 2 0 0 1 .063.362 1.2 1.2 0 0 0 .196.509 4 4 0 0 0-.328.247 1.6 1.6 0 0 0-.994-.363 2.1 2.1 0 0 0-1.145.43 1.12 1.12 0 0 0 .556-1.053m-1.062 1.7c-.033.298-.05.35-.442.63a1.66 1.66 0 0 1-.504-.613c.35-.33.402-.34.706-.311a.68.68 0 0 0 .423-.103.7.7 0 0 0-.183.397m6.579 4.508c-.592-.908-2.18-3.298-3.217-4.515q.091-.071.242-.172l3.57 4.198z"/><path fill="none" d="M0 0h16v16H0z"/></svg>