<svg xmlns="http://www.w3.org/2000/svg" viewBox="0 0 24 24"><path d="M10 6H7V3h3zm8 1h-3v3h3zM6 15H3v3h3z" opacity=".25"/><path d="M11.357 18H7v-3h3v1.103L10.166 15h1.63l.167-1H11v-3h2.321c.799-.737 1.804-.95 2.687-.95.2 0 .895.024 1.416.323l.687.395-.111.37V13h1V2H2v17h9.227zM15 3h3v3h-3zm0 4h3v3h-3zm-4-4h3v3h-3zm0 4h3v3h-3zM7 3h3v3H7zm0 4h3v3H7zm0 4h3v3H7zm-1 7H3v-3h3zm0-4H3v-3h3zm0-4H3V7h3zm0-4H3V3h3zm9.493 10.935H13.69L12.907 23h-1.236l.782-6.065H10.84l.143-.935h1.614l.294-1.89c.25-1.805 1.06-3.087 3.053-3.087.317 0 .699.064.918.19l-.331 1.108a2.3 2.3 0 0 0-.809-.158c-1.283 0-1.456.933-1.645 2.216L13.833 16h1.804zM23.52 16h-1.518l-1.833 2.206L18.846 16h-1.632l1.915 2.973L15.5 23h1.55l2.781-3.229L21.75 23h1.646l-2.526-4.027z"/><path d="M6 14H3v-3h3zM6 3H3v3h3zm8 7h-3V7h3zm4-4h-3V3h3zm-8 12H7v-3h3zm1.963-4H11v-3h2.321c-.643.593-1.151 1.526-1.352 2.967z" opacity=".5"/><path fill="none" d="M0 0h24v24H0z"/></svg>