<svg xmlns="http://www.w3.org/2000/svg" viewBox="0 0 24 24"><path d="M7 4h3v3H7zM3 19h3v-3H3zm8-7v3h.963l.006-.033c.2-1.441.71-2.374 1.352-2.967z" opacity=".5"/><path d="M3 4h3v3H3zm0 11h3v-3H3zm4 4h3v-3H7zm5.463-11H11v3h3V9.833A6.3 6.3 0 0 1 12.463 8" opacity=".25"/><path d="m15.637 17-.144.935H13.69L12.907 24h-1.236l.782-6.065H10.84l.143-.935h1.614l.294-1.89c.25-1.805 1.06-3.087 3.053-3.087.317 0 .699.064.918.19l-.331 1.108a2.3 2.3 0 0 0-.809-.158c-1.283 0-1.456.933-1.645 2.216L13.833 17zm7.882 0h-1.518l-1.833 2.206L18.846 17h-1.632l1.915 2.973L15.5 24h1.55l2.781-3.229L21.75 24h1.646l-2.526-4.027L23.52 17zM13 5c0-2.757 2.243-5 5-5s5 2.243 5 5-2.243 5-5 5-5-2.243-5-5m1 0c0 2.205 1.795 4 4 4s4-1.795 4-4-1.795-4-4-4-4 1.795-4 4m6 0h-2V2h-1v4h3zM10 19h1.349l-.13 1H2V3h10.03a6 6 0 0 0-.243 1H11v3h1.032c.117.347.258.683.431 1H11v3h3V9.833q.466.385 1 .676v.659c-.587.125-1.174.366-1.679.832H11v3h.963l-.167 1H7v3zM7 7h3V4H7zm0 4h3V8H7zm0 4h3v-3H7zm-1 1H3v3h3zm0-4H3v3h3zm0-4H3v3h3zm0-4H3v3h3z"/><path fill="none" d="M0 0h24v24H0z"/></svg>