<svg xmlns="http://www.w3.org/2000/svg" viewBox="0 0 32 32"><path d="M8 3h4v4H8zm5 10v4h4v-4zM3 22h4v-4H3z" opacity=".5"/><path d="M3 3h4v4H3zm0 14h4v-4H3zm5 5h4v-4H8zm9-10.138A7.9 7.9 0 0 1 16 8h-3v4h4zM18.232 17c.84-.776 1.895-1 2.822-1 .145 0 .539.018.946.128v-.393a8 8 0 0 1-4-2.467V17z" opacity=".25"/><path d="M24 14.798a6.8 6.8 0 0 0 6.8-6.8 6.8 6.8 0 0 0-6.8-6.8 6.8 6.8 0 1 0 0 13.6m0-12.6c3.199 0 5.8 2.602 5.8 5.8s-2.601 5.8-5.8 5.8-5.8-2.601-5.8-5.8 2.601-5.8 5.8-5.8M27 9h-4V4h1v4h3zm2.8 13-3.281 3.693L29.22 30h-1.76l-2.052-3.453L22.434 30h-1.658l3.881-4.307L22.314 22h1.745l1.71 2.873L28.178 22zm-9.016 0-.153 1H18.7l-.964 7h-1.321l.964-7h-1.726l.154-1h1.726l.254-1.7c.269-1.929 1.134-3.3 3.266-3.3.339 0 .747.068.981.203l-.354 1.186a2.4 2.4 0 0 0-.865-.17c-1.372 0-1.557.998-1.76 2.37l-.2 1.411zM13 18h4v1.182c.272-.995.709-1.698 1.232-2.182H18v-3.732c-.38-.431-.719-.9-1-1.406V12h-4V8h3V7h-3V3h4v1.134A8 8 0 0 1 18.724 2H2v21h12.643l.153-1H13zm0-5h4v4h-4zm-6 9H3v-4h4zm0-5H3v-4h4zm0-5H3V8h4zm0-5H3V3h4zm5 15H8v-4h4zm0-5H8v-4h4zm0-5H8V8h4zm0-5H8V3h4z"/><path fill="none" d="M0 0h32v32H0z"/></svg>