<?xml version="1.0" encoding="UTF-8"?><svg id="icons" xmlns="http://www.w3.org/2000/svg" viewBox="0 0 24 24"><defs><style>.cls-1{fill:none;}.cls-1,.cls-2{stroke-width:0px;}</style></defs><path class="cls-2" d="M9,10h4v1h-4v-1ZM8,8h-4v-4h4v4ZM7,5h-2v2h2v-2ZM8,13h-4v-4h4v4ZM7,10h-2v2h2v-2ZM4,14h4v4h-4v-4ZM5,17h2v-2h-2v2ZM13,5c0-2.75702,2.24298-5,5-5s5,2.24298,5,5-2.24298,5-5,5-5-2.24298-5-5ZM14,5c0,2.20532,1.79462,4,4,4s4-1.79468,4-4-1.79462-4-4-4-4,1.79462-4,4ZM20,5h-2v-3h-1v4h3v-1ZM9,5v1h2.83771c-.05286-.32648-.08771-.65887-.08771-1h-2.75ZM13.83301,16l.24377-1.62122c.18909-1.28302.36255-2.21625,1.64557-2.21625.28589,0,.55432.06293.80823.15887l.33148-1.10864c-.21918-.12598-.60089-.18994-.91779-.18994-1.99347,0-2.80255,1.2821-3.05365,3.08655l-.29315,1.89062h-1.6145l-.14337.93512h1.61359l-.78174,6.06488h1.23553l.78174-6.06488h1.80444l.14337-.93512h-1.80353ZM23.51923,16h-1.51776l-1.83331,2.20575-1.32202-2.20575h-1.63184l1.91461,2.9729-3.62891,4.0271h1.54962l2.78156-3.229,1.91864,3.229h1.64636l-2.52667-4.0271,2.64972-2.9729ZM2,19.2113V2.78943c0-.43597.35345-.78943.78949-.78943h9.7301c.19556-.35583.42499-.69043.68359-1H2.58508c-.87543,0-1.58508.70966-1.58508,1.58508v16.83752c0,.87115.70624,1.57739,1.57739,1.57739h8.38446l.12891-1H2.7887c-.43561,0-.7887-.35315-.7887-.7887Z"/><rect class="cls-1" width="24" height="24"/></svg>