<?xml version="1.0" encoding="UTF-8"?><svg id="icons" xmlns="http://www.w3.org/2000/svg" viewBox="0 0 32 32"><defs><style>.cls-1{fill:none;}.cls-1,.cls-2{stroke-width:0px;}</style></defs><path class="cls-2" d="M17,15h-5v-1h5v1ZM11,11h-5v-5h5v5ZM10,7h-3v3h3v-3ZM11,17h-5v-5h5v5ZM10,13h-3v3h3v-3ZM6,18h5v5h-5v-5ZM7,22h3v-3h-3v3ZM17.20001,7.99823c0-3.75635,3.04462-6.79999,6.79999-6.79999,3.75635,0,6.79999,3.04364,6.79999,6.79999,0,3.75549-3.04364,6.79993-6.79999,6.79993-3.75537,0-6.79999-3.04443-6.79999-6.79993ZM18.20001,7.99847c0,3.19855,2.60138,5.79974,5.79999,5.79974s5.79999-2.6012,5.79999-5.79974-2.60126-5.80023-5.79999-5.80023-5.79999,2.60168-5.79999,5.80023ZM27,8h-3v-4h-1v5h4v-1ZM12,8v1h3.81708c-.04004-.32855-.06689-.66089-.06696-1h-3.75012ZM12,21h4.67285l.12598-.84668c.00769-.05536.02209-.09937.03064-.15332h-4.82947v1ZM18.85553,22l.20111-1.41113c.20215-1.37207.35248-2.37006,1.72455-2.37006.30573,0,.59283.06726.86432.16986l.35449-1.18561c-.23444-.1347-.64258-.20306-.98151-.20306-2.13177,0-2.96185,1.37109-3.23041,3.30078l-.25385,1.69922h-1.72662l-.15332,1h1.72559l-.96387,7h1.32129l.96393-7h1.92969l.15332-1h-1.92871ZM28.17773,22l-2.40912,2.87299-1.71002-2.87299h-1.74506l2.34369,3.69336-3.8808,4.30664h1.65717l2.97461-3.45312,2.05182,3.45312h1.76068l-2.70209-4.30664,3.28217-3.69336h-1.62305ZM3,25.00201V4c0-.55273.44727-1,.99902-1h13.45282c.27362-.35754.5741-.69177.90131-1H3.99799c-1.1015,0-1.98899.90625-1.98899,2.00781l-.009,20.99017c0,1.10358.89648,2.00201,1.99799,2.00201h11.82135l.1377-1H3.99902c-.55176,0-.99902-.44733-.99902-.99799ZM19,16.46313v-1.9184c-.35754-.27374-.69177-.57458-1-.90204v3.59253c.30359-.33698.64319-.58734,1-.77209ZM5,24V5h11.32233c.13507-.34467.28845-.67957.46686-1H4v21h12.09473l.1377-1H5Z"/><rect class="cls-1" width="32" height="32"/></svg>