<svg xmlns="http://www.w3.org/2000/svg" viewBox="0 0 16 16"><path d="M1 7h2v2H1V7zm3-6v2h2V1H4z" opacity=".5" stroke-width="0"/><path d="M12 2v2h2v1h-3V2h1zM4 9h1.297c-.23.255-.402.596-.45 1H0V0h8.583c-.35.297-.671.624-.934 1H7v1.327c-.18.529-.3 1.085-.3 1.673s.12 1.144.3 1.673V6h.103c.131.317.3.612.489.895A3.39 3.39 0 0 0 7.498 7H7v.83c-.022.058-.055.108-.072.169a2.35 2.35 0 0 0-.928.38V7H4v2zm0-6h2V1H4v2zm0 3h2V4H4v2zM3 7H1v2h2V7zm0-3H1v2h2V4zm0-3H1v2h2V1zm5.624 5.111c.25-.141.556-.284.906-.414A2.98 2.98 0 0 1 9 4c0-1.654 1.346-3 3-3s3 1.346 3 3a2.98 2.98 0 0 1-.509 1.668.984.984 0 0 1 .282.203l.466.496A4.046 4.046 0 0 0 16 4c0-2.21-1.7-4-3.942-4S8.009 1.79 8.009 4c0 .778.226 1.497.615 2.111zm7.099 7.471c.361.43.32 1.058-.09 1.433l-.542.498a1.04 1.04 0 0 1-.828.262 1.025 1.025 0 0 1-.738-.464c-.554-.852-2.441-3.712-3.373-4.68-.276-.277-.465-.45-.715-.45-.074 0-.28.034-.676.323-.107.654-.412.9-.923 1.26-.214.153-.795.407-1.556-.515-.757-.924-.395-1.445-.206-1.627.453-.434.756-.685 1.422-.662l.126-.098c.245-.184.243-.2.233-.289-.06-.54.608-1.143.615-1.15.64-.552 1.865-1.14 3.398-1.14.975 0 1.86.198 2.027.238l.147.034.97 1.034-1.095.043a9.348 9.348 0 0 0-1.507.191 2.678 2.678 0 0 0-.926.43c.035.15.06.289.074.465.018.045.167.24.307.379l3.856 4.485zM7.97 9.86a.67.67 0 0 1-.43.104c-.291-.022-.35-.019-.701.312.026.066.088.182.216.337.127.155.228.238.288.276.392-.28.409-.333.442-.63.016-.15.08-.29.185-.399zm2.728-2.262c.07-.058.183-.146.33-.243-.861.15-1.534.506-1.9.822-.083.073-.254.298-.281.383.072.53-.28.841-.554 1.051.425-.289.8-.43 1.144-.43.417 0 .732.166.992.364a3.91 3.91 0 0 1 .326-.245c-.098-.16-.18-.335-.193-.509-.011-.162-.041-.276-.063-.363-.045-.179-.139-.551.2-.83zm4.26 6.68l-3.567-4.2a3.912 3.912 0 0 0-.243.172c1.006 1.169 2.553 3.498 3.216 4.518l.594-.49z" stroke-width="0"/><path d="M1 1h2v2H1V1zm4.384 7.9c.178-.17.375-.358.616-.52V7H4v2h1.297c.03-.033.056-.07.087-.1z" fill="#6f6f6f" opacity=".25" stroke-width="0"/><path stroke-width="0" fill="none" d="M0 0h16v16H0z"/></svg>