<svg xmlns="http://www.w3.org/2000/svg" viewBox="0 0 16 16"><path d="M9.556 5.93l1.414 1.414-.393.393.706.706.993-.993 1.445-1.443c.391-.39.361-.993-.03-1.385l-1.413-1.414c-.392-.39-.994-.42-1.385-.03L8.456 5.617l.707.707.393-.394zm1.798-1.798c.12-.12.314-.12.433 0l.981.98a.307.307 0 0 1 0 .434l-1.09 1.09-1.414-1.414 1.09-1.09zm-4.392 7.22L5.55 9.937l.786-.786-.707-.707-.787.786-1.756 4.097a.371.371 0 0 0 .488.487L7.67 12.06l.787-.787-.707-.707-.787.787zm-2.338.924l.554-1.294.74.74-1.294.554zM16 14.07V2.93A1.93 1.93 0 0 0 14.071 1H2.93A1.93 1.93 0 0 0 1 2.929V14.07A1.93 1.93 0 0 0 2.929 16H14.07A1.93 1.93 0 0 0 16 14.071zM4.84 2h9.231a.93.93 0 0 1 .929.929V14.07c0 .062-.024.116-.035.175L2.755 2.036c.058-.012.112-.036.174-.036h1.91zM2.929 15A.93.93 0 0 1 2 14.071V2.93c0-.07.025-.13.04-.194L14.264 14.96c-.064.014-.125.039-.194.039H2.93z"/><path fill="none" d="M0 0h16v16H0z"/></svg>