<svg xmlns="http://www.w3.org/2000/svg" viewBox="0 0 24 24"><path d="m4.922 16.71-.651.758a6.83 6.83 0 0 1-2.07-4.983A6.37 6.37 0 0 1 8.585 6h7.454L14.4 4.36l.706-.708L17.954 6.5l-2.848 2.848-.707-.707L16.04 7H8.586A5.386 5.386 0 0 0 3.2 12.5a5.92 5.92 0 0 0 1.722 4.21m14.8-9.178-.652.758a5.94 5.94 0 0 1 1.73 4.21 5.39 5.39 0 0 1-5.395 5.5H7.96l1.64-1.64-.706-.708L6.046 18.5l2.848 2.848.707-.707L7.96 19h7.445a6.376 6.376 0 0 0 6.395-6.486 6.86 6.86 0 0 0-2.079-4.982z"/><path fill="none" d="M0 0h24v24H0z"/></svg>