<svg xmlns="http://www.w3.org/2000/svg" viewBox="0 0 16 16"><path d="M2.734 5.879a2.71 2.71 0 0 0-.276 3.345 1 1 0 0 0 .094.128l-.755.656a2 2 0 0 1-.177-.24 3.68 3.68 0 0 1 .407-4.596A3.97 3.97 0 0 1 4.855 4h6.165l-1.6-1.602.707-.707L12.935 4.5l-2.809 2.809-.707-.707L11.021 5H4.856a2.98 2.98 0 0 0-2.122.879m11.657.352a2 2 0 0 0-.175-.237l-.759.652a1 1 0 0 1 .095.13 2.71 2.71 0 0 1-.275 3.345 2.98 2.98 0 0 1-2.122.879H4.98l1.602-1.602-.707-.707-2.81 2.809 2.809 2.809.707-.707L4.979 12h6.176a3.97 3.97 0 0 0 2.829-1.172 3.8 3.8 0 0 0 .407-4.597"/><path fill="none" d="M0 0h16v16H0z"/></svg>