<svg xmlns="http://www.w3.org/2000/svg" viewBox="0 0 32 32"><path d="M29 4.5c0-.827-.673-1.5-1.5-1.5h-23C3.673 3 3 3.673 3 4.5S3.673 6 4.5 6h23c.827 0 1.5-.673 1.5-1.5zm-25 0a.5.5 0 0 1 .5-.5h23a.5.5 0 0 1 0 1h-23a.5.5 0 0 1-.5-.5zm19.97 11.815l1.733-1-1.77-3.065c-.13-.226-.346-.25-.433-.25s-.303.024-.434.25l-.995 1.725-.071-.04-.795-.46.795-1.377.201-.348c.27-.47.757-.75 1.299-.75s1.028.28 1.299.75l1.77 3.065 1.732-1-.665 3.848-3.665-1.348zM23.867 27h1.006l-.215 1.757c-.145.736-.764 1.243-1.476 1.243H8.819a1.504 1.504 0 0 1-1.47-1.206L4.68 7h1.007l2.648 21.636c.041.195.247.364.484.364h14.362a.502.502 0 0 0 .49-.402L23.866 27zm6.706-3.75c-.271.47-.757.75-1.299.75H25v2l-3-2.5 3-2.5v2h4.273a.49.49 0 0 0 .433-.25.49.49 0 0 0 .001-.5l-1.304-2.259.865-.5 1.304 2.259a1.48 1.48 0 0 1 0 1.5zM26.83 11h-1.006l.489-4h1.007l-.49 4zm-9.537 11.25a.49.49 0 0 0 0 .5.49.49 0 0 0 .434.25H21v1h-3.273c-.542 0-1.028-.28-1.3-.75s-.27-1.03 0-1.5l2.078-3.598-1.732-1 3.665-1.349.665 3.849-1.732-1-2.078 3.598z"/><path fill="none" d="M0 0h32v32H0z"/></svg>