<svg xmlns="http://www.w3.org/2000/svg" viewBox="0 0 24 24"><path d="m16.918 12.67 1.3-.75-1.447-2.506c-.083-.14-.217-.156-.271-.156s-.188.015-.27.156l-.23.398-.77 1.332-.865-.5 1-1.73c.472-.821 1.798-.821 2.27 0l.05.086 1.398 2.42 1.3-.75-.417 3.28zM20.5 5H3.446v-.005A1.5 1.5 0 0 1 2 3.5C2 2.673 2.673 2 3.5 2h17c.827 0 1.5.673 1.5 1.5 0 .808-.644 1.465-1.445 1.494V5zm0-1a.5.5 0 0 0 0-1h-17a.5.5 0 0 0 0 1zm-1.047 2-.288 3h1.004l.289-3zm-8.775 12.344c.236.41.66.656 1.135.656H14v-1h-2.187a.31.31 0 0 1-.27-.156.31.31 0 0 1 0-.312l1.139-1.972 1.3.75-.417-3.279-3.048 1.28 1.3.75-1.14 1.971a1.3 1.3 0 0 0 0 1.312zm11.644-1.312-1.015-1.759-.866.5 1.016 1.76a.31.31 0 0 1 0 .311.3.3 0 0 1-.27.156H18v-1.5l-2 1.333-1 .667 1 .667 2 1.333V19h3.187c.474 0 .899-.245 1.135-.655a1.3 1.3 0 0 0 0-1.313M16 22H6.355c-.142 0-.265-.102-.286-.19L4.547 6H3.542l1.54 15.956A1.304 1.304 0 0 0 6.354 23h11.29c.584 0 1.083-.401 1.246-1z"/><path fill="none" d="M0 0h24v24H0z"/></svg>