<svg xmlns="http://www.w3.org/2000/svg" viewBox="0 0 32 32"><path d="M16.5 3.2C9.154 3.2 3.2 9.154 3.2 16.5s5.954 13.3 13.3 13.3 13.3-5.954 13.3-13.3S23.846 3.2 16.5 3.2zm0 4.8c2.614 0 4.94 1.199 6.5 3.061V8h1v5h-5v-1h2.964c-1.302-1.58-3.26-2.6-5.464-2.6-3.746 0-6.816 2.918-7.074 6.6h-1.4c.26-4.453 3.956-8 8.474-8zm0 17c-2.616 0-4.943-1.201-6.5-3.069V25H9v-5h5v1h-2.964c1.302 1.58 3.26 2.6 5.464 2.6 3.746 0 6.816-2.918 7.074-6.6h1.4c-.26 4.453-3.956 8-8.474 8z"/><path fill="none" d="M0 0h32v32H0z"/></svg>