<?xml version="1.0" encoding="UTF-8"?><svg id="icons" xmlns="http://www.w3.org/2000/svg" viewBox="0 0 24 24"><defs><style>.cls-1{fill:none;}</style></defs><path d="M12.5,2.20001C6.81049,2.20001,2.20001,6.81042,2.20001,12.5c0,5.69214,4.61047,10.29999,10.29999,10.29999s10.29999-4.60785,10.29999-10.29999c0-5.68958-4.61029-10.29999-10.29999-10.29999Zm0,16.79999c-2.32208,0-4.35254-1.23047-5.5-3.06824v2.06824h-1v-4h4v1h-2.12988c.89209,1.65814,2.61786,2.7998,4.62988,2.7998,2.7511,0,4.99292-2.11505,5.24927-4.7998h1.2254c-.25696,3.35052-3.05945,6-6.47467,6Zm6.5-9v1h-4v-1h2.12988c-.89209-1.6582-2.61786-2.7998-4.62988-2.7998-2.7511,0-4.99292,2.11505-5.24927,4.7998h-1.2254c.25696-3.35052,3.05945-6,6.47467-6,2.32208,0,4.35254,1.23047,5.5,3.06824v-2.06824h1v3Z"/><rect class="cls-1" width="24" height="24"/></svg>