<?xml version="1.0" encoding="UTF-8"?><svg id="icons" xmlns="http://www.w3.org/2000/svg" viewBox="0 0 32 32"><defs><style>.cls-1{fill:none;}</style></defs><path d="M16.5,3.20001c-7.34576,0-13.29999,5.95416-13.29999,13.29999s5.95422,13.29999,13.29999,13.29999,13.29999-5.95422,13.29999-13.29999S23.84576,3.20001,16.5,3.20001Zm0,4.79999c2.61359,0,4.94006,1.19891,6.5,3.06134v-3.06134h1v5h-5v-1h2.96442c-1.30212-1.58044-3.26117-2.59961-5.46442-2.59961-3.74628,0-6.81598,2.91797-7.07428,6.59961h-1.40039c.26105-4.45349,3.95691-8,8.47467-8Zm0,17c-2.61627,0-4.94324-1.20105-6.5-3.06891v3.06891h-1v-5h5v1h-2.96442c1.30212,1.58044,3.26117,2.59961,5.46442,2.59961,3.74628,0,6.81598-2.91797,7.07428-6.59961h1.40039c-.26105,4.45349-3.95691,8-8.47467,8Z"/><rect class="cls-1" width="32" height="32"/></svg>