<?xml version="1.0" encoding="UTF-8"?><svg id="icons" xmlns="http://www.w3.org/2000/svg" viewBox="0 0 16 16"><defs><style>.cls-1{fill:none;}</style></defs><path d="M8.5,1.20001C4.46832,1.20001,1.20001,4.46826,1.20001,8.5s3.26831,7.29999,7.29999,7.29999,7.29999-3.26837,7.29999-7.29999S12.53168,1.20001,8.5,1.20001Zm0,11.79999c-1.4231,0-2.67957-.67267-3.5-1.70917v1.70917h-1v-3h3v1h-.99457c.63995,.64362,1.51654,1.0498,2.49457,1.0498,1.78625,0,3.2536-1.33069,3.49921-3.0498h.95026c-.25244,2.24384-2.13922,4-4.44946,4Zm4.5-7v1h-3v-1h.99457c-.63995-.64362-1.51654-1.0498-2.49457-1.0498-1.78625,0-3.2536,1.33069-3.49921,3.0498h-.95026c.25244-2.24384,2.13922-4,4.44946-4,1.4231,0,2.67957,.67267,3.5,1.70917v-1.70917h1v2Z"/><rect class="cls-1" width="16" height="16"/></svg>