<svg xmlns="http://www.w3.org/2000/svg" viewBox="0 0 24 24"><path d="M12.5 2.2C6.81 2.2 2.2 6.81 2.2 12.5c0 5.692 4.61 10.3 10.3 10.3s10.3-4.608 10.3-10.3c0-5.69-4.61-10.3-10.3-10.3zm0 16.8c-2.322 0-4.353-1.23-5.5-3.068V18H6v-4h4v1H7.87c.892 1.658 2.618 2.8 4.63 2.8 2.751 0 4.993-2.115 5.25-4.8h1.225c-.257 3.35-3.06 6-6.475 6zm6.5-9v1h-4v-1h2.13c-.892-1.658-2.618-2.8-4.63-2.8-2.751 0-4.993 2.115-5.25 4.8H6.026c.257-3.35 3.06-6 6.475-6 2.322 0 4.353 1.23 5.5 3.068V7h1v3z"/><path fill="none" d="M0 0h24v24H0z"/></svg>