<svg xmlns="http://www.w3.org/2000/svg" viewBox="0 0 32 32"><path d="M0 0h32v32H0z" style="fill:none"/><path d="M22 8h-4V7h4c2.206 0 4 1.787 4 3.993v3.28l2.646-2.647.708.707-3.854 3.854-3.854-3.854.708-.707L25 14.272v-3.279A2.997 2.997 0 0 0 22 8M7 20.993v-3.28l2.646 2.647.708-.707L6.5 15.8l-3.854 3.853.708.707L6 17.714v3.28A4.01 4.01 0 0 0 10 25h4v-1h-4a3.01 3.01 0 0 1-3-3.007M30 20v9a2 2 0 0 1-2 2H17a2 2 0 0 1-2-2v-9a2 2 0 0 1 2-2h11a2 2 0 0 1 2 2m-1 0a1 1 0 0 0-1-1H17a1 1 0 0 0-1 1v9a1 1 0 0 0 1 1h11a1 1 0 0 0 1-1zM4 14a2 2 0 0 1-2-2V3a2 2 0 0 1 2-2h11a2 2 0 0 1 2 2v9a2 2 0 0 1-2 2zm0-1h11a1 1 0 0 0 1-1V3a1 1 0 0 0-1-1H4a1 1 0 0 0-1 1v9a1 1 0 0 0 1 1"/></svg>