<svg xmlns="http://www.w3.org/2000/svg" viewBox="0 0 24 24"><path d="m22.354 9.356-2.848 2.848-2.847-2.848.707-.707L19 10.284V8.003A2.005 2.005 0 0 0 17 6h-3v-.997h3c1.654 0 3 1.346 3 3v2.293l1.646-1.647zM4.942 16.003v-2.305l1.647 1.647.707-.707-2.848-2.848-2.846 2.848.707.707 1.633-1.635v2.293a3 3 0 0 0 3 2.997H10v-.997H6.942c-1.102 0-2-.898-2-2M13 2v8a1 1 0 0 1-1 1H2a1 1 0 0 1-1-1V2a1 1 0 0 1 1-1h10a1 1 0 0 1 1 1m-1 .5a.5.5 0 0 0-.5-.5h-9a.5.5 0 0 0-.5.5v7a.5.5 0 0 0 .5.5h9a.5.5 0 0 0 .5-.5zM23 14v8a1 1 0 0 1-1 1H12a1 1 0 0 1-1-1v-8a1 1 0 0 1 1-1h10a1 1 0 0 1 1 1m-1 .5a.5.5 0 0 0-.5-.5h-9a.5.5 0 0 0-.5.5v7a.5.5 0 0 0 .5.5h9a.5.5 0 0 0 .5-.5z"/><path d="M0 0h24v24H0z" style="fill:none"/></svg>