<?xml version="1.0" encoding="UTF-8"?><svg id="icons" xmlns="http://www.w3.org/2000/svg" viewBox="0 0 16 16"><defs><style>.cls-1{fill:none;}</style></defs><path d="M15,6l-1.5,2-1.5-2h1v-.52911c0-.82715-.67285-1.5-1.5-1.5h-1.5v-.97089h1.5c1.37842,0,2.5,1.09198,2.5,2.47089v.52911h1ZM5.5,12.02905c-.82715,0-1.5-.67285-1.5-1.5v-.5l1-.02905-1.5-2-1.5,2.02905h1v.5c0,1.37891,1.12158,2.47095,2.5,2.47095h1.5v-.97095h-1.5ZM9,1v5c0,.55225-.44769,1-1,1H2c-.55231,0-1-.44775-1-1V1c0-.55231.44769-1,1-1h6c.55231,0,1,.44769,1,1ZM8,1.48077c0-.27618-.22388-.5-.5-.5H2.5c-.27612,0-.5.22382-.5.5v4.04803c0,.27618.22388.5.5.5h5c.27612,0,.5-.22382.5-.5V1.48077ZM16,10v5c0,.55225-.44769,1-1,1h-6c-.55231,0-1-.44775-1-1v-5c0-.55231.44769-1,1-1h6c.55231,0,1,.44769,1,1ZM15,10.48077c0-.27618-.22388-.5-.5-.5h-5c-.27612,0-.5.22382-.5.5v4.04803c0,.27618.22388.5.5.5h5c.27612,0,.5-.22382.5-.5v-4.04803Z"/><rect class="cls-1" width="16" height="16"/></svg>