<?xml version="1.0" encoding="UTF-8"?><svg id="icons" xmlns="http://www.w3.org/2000/svg" viewBox="0 0 32 32"><defs><style>.cls-1{fill:none;}</style></defs><rect class="cls-1" width="32" height="32"/><path d="M22,8h-4v-1h4c2.20605,0,4,1.78711,4,3.99316v3.2793l2.64648-2.64648.70703.70703-3.85352,3.85352-3.85352-3.85352.70703-.70703,2.64648,2.64648v-3.2793c0-1.6543-1.3457-2.99316-3-2.99316ZM7,20.99316v-3.2793l2.64648,2.64648.70703-.70703-3.85352-3.85352-3.85352,3.85352.70703.70703,2.64648-2.64648v3.2793c0,2.20605,1.79395,4.00684,4,4.00684h4v-1h-4c-1.6543,0-3-1.35254-3-3.00684ZM30,20v9c0,1.10455-.89545,2-2,2h-11c-1.10455,0-2-.89545-2-2v-9c0-1.10461.89545-2,2-2h11c1.10455,0,2,.89539,2,2ZM29,20c0-.55176-.44824-1-1-1h-11c-.55176,0-1,.44824-1,1v9c0,.55176.44824,1,1,1h11c.55176,0,1-.44824,1-1v-9ZM4,14c-1.10455,0-2-.89545-2-2V3c0-1.10461.89545-2,2-2h11c1.10455,0,2,.89539,2,2v9c0,1.10455-.89545,2-2,2H4ZM4,13h11c.55176,0,1-.44824,1-1V3c0-.55176-.44824-1-1-1H4c-.55176,0-1,.44824-1,1v9c0,.55176.44824,1,1,1Z"/></svg>