<svg xmlns="http://www.w3.org/2000/svg" viewBox="0 0 16 16"><path d="m15 6-1.5 2L12 6h1v-.53c0-.826-.673-1.5-1.5-1.5H10V3h1.5C12.878 3 14 4.092 14 5.47V6zm-9.5 6.029c-.827 0-1.5-.673-1.5-1.5v-.5L5 10 3.5 8 2 10.029h1v.5C3 11.908 4.122 13 5.5 13H7v-.971zM9 1v5a1 1 0 0 1-1 1H2a1 1 0 0 1-1-1V1a1 1 0 0 1 1-1h6a1 1 0 0 1 1 1m-1 .48a.5.5 0 0 0-.5-.5h-5a.5.5 0 0 0-.5.5v4.05a.5.5 0 0 0 .5.5h5a.5.5 0 0 0 .5-.5zM16 10v5a1 1 0 0 1-1 1H9a1 1 0 0 1-1-1v-5a1 1 0 0 1 1-1h6a1 1 0 0 1 1 1m-1 .48a.5.5 0 0 0-.5-.5h-5a.5.5 0 0 0-.5.5v4.049a.5.5 0 0 0 .5.5h5a.5.5 0 0 0 .5-.5z"/><path d="M0 0h16v16H0z" style="fill:none"/></svg>