<?xml version="1.0" encoding="UTF-8"?><svg id="icons" xmlns="http://www.w3.org/2000/svg" viewBox="0 0 24 24"><defs><style>.cls-1{fill:none;}</style></defs><path d="M22.35352,9.35645l-2.84766,2.84766-2.84668-2.84766.70703-.70703,1.63379,1.63452v-2.28101c0-1.10254-.89746-2.00293-2-2.00293h-3v-.99707h3c1.6543,0,3,1.3457,3,3v2.29297l1.64648-1.64648.70703.70703ZM4.94238,16.00293v-2.30469l1.64648,1.64648.70703-.70703-2.84766-2.84766-2.84668,2.84766.70703.70703,1.63379-1.63452v2.29272c0,1.6543,1.3457,2.99707,3,2.99707h3.05762v-.99707h-3.05762c-1.10254,0-2-.89746-2-2ZM13,2v8c0,.55225-.44769,1-1,1H2c-.55231,0-1-.44775-1-1V2c0-.55231.44769-1,1-1h10c.55231,0,1,.44769,1,1ZM12,2.5c0-.27618-.22388-.5-.5-.5H2.5c-.27612,0-.5.22382-.5.5v7c0,.27612.22388.5.5.5h9c.27612,0,.5-.22388.5-.5V2.5ZM23,14v8c0,.55225-.44769,1-1,1h-10c-.55231,0-1-.44775-1-1v-8c0-.55231.44769-1,1-1h10c.55231,0,1,.44769,1,1ZM22,14.5c0-.27618-.22388-.5-.5-.5h-9c-.27612,0-.5.22382-.5.5v7c0,.27612.22388.5.5.5h9c.27612,0,.5-.22388.5-.5v-7Z"/><rect class="cls-1" width="24" height="24"/></svg>