<svg xmlns="http://www.w3.org/2000/svg" viewBox="0 0 32 32"><path d="M28 9a2.995 2.995 0 0 0-2.816 2H14.816c-.027-.075-.05-.15-.082-.222l7.09-4.726A2.98 2.98 0 0 0 24 7c3.968 0 3.968-6 0-6-1.654 0-3 1.346-3 3 0 .436.098.848.266 1.222l-7.09 4.726A2.984 2.984 0 0 0 12 9c-1.654 0-3 1.346-3 3s1.346 3 3 3c.859 0 1.63-.368 2.177-.948l7.089 4.726A2.973 2.973 0 0 0 21 20c0 1.654 1.346 3 3 3 3.968 0 3.968-6 0-6-.859 0-1.63.367-2.177.948l-7.09-4.726c.169-.374.267-.786.267-1.222h10c0 1.654 1.346 3 3 3 3.968 0 3.968-6 0-6zm-4-7c1.103 0 2 .897 2 2s-.897 2-2 2-2-.897-2-2 .897-2 2-2zm0 16c1.103 0 2 .897 2 2s-.897 2-2 2-2-.897-2-2 .897-2 2-2zm-12-4c-1.103 0-2-.897-2-2s.897-2 2-2 2 .897 2 2-.897 2-2 2zm16 0c-1.103 0-2-.897-2-2s.897-2 2-2 2 .897 2 2-.897 2-2 2z"/><path d="M14.136 17.157L8.5 22.793l-5.636-5.636-.707.707L7.793 23.5l-5.636 5.636.707.707L8.5 24.207l5.636 5.636.707-.707L9.207 23.5l5.636-5.636-.707-.707z"/><path fill="none" d="M0 0h32v32H0z"/></svg>