<svg xmlns="http://www.w3.org/2000/svg" viewBox="0 0 32 32"><path d="M24 4h-2V3h2c2.206 0 4 1.794 4 4v2.28l2.646-2.647.708.707-3.854 3.853-3.854-3.853.708-.707L27 9.279V7c0-1.654-1.346-3-3-3zM3 4h17v7h1V3H2v17h6v-1H3V4zm6 8h22v18H9V12zm21 12.5l-5.133-4.58-1.817 1.708a.998.998 0 0 1-1.336.03 553.5 553.5 0 0 1-3.216-2.816l-3.89 3.289a.998.998 0 0 1-1.072.14l-.297-.14L10 25.24V29h20v-4.5zM10 13v10.855l2.804-2.693a.481.481 0 0 1 .539-.088l.62.293 4.229-3.576a.49.49 0 0 1 .643.01s2.679 2.367 3.53 3.098l2.193-2.06a.49.49 0 0 1 .694.024L30 23.265V13H10zm12.2 2.5a1.301 1.301 0 0 1 2.6 0 1.301 1.301 0 0 1-2.6 0zm.942.358a.508.508 0 1 0 .717-.718.508.508 0 0 0-.717.718z"/><path fill="none" d="M0 0h32v32H0z"/></svg>