<?xml version="1.0" encoding="UTF-8"?><svg id="icons" xmlns="http://www.w3.org/2000/svg" viewBox="0 0 32 32"><defs><style>.cls-1{fill:none;}.cls-2{opacity:.25;}</style></defs><path class="cls-2" d="M21.52148,7c3.45734,0,6.1394-.52917,7.5-1.45465v2.29742c0,.9082-2.60645,2.16699-7.5,2.16699s-7.5-1.25879-7.5-2.16699v-2.29138c1.50116,1.01093,4.50641,1.44861,7.5,1.44861ZM21.52148,6.05957c4.90332,0,7.51367-1.17969,7.51367-2.03223,0-.85156-2.61035-2.03125-7.51367-2.03125s-7.51367,1.17969-7.51367,2.03125c0,.85254,2.61035,2.03223,7.51367,2.03223ZM14.02148,9.45093v2.83331c3.55493.46564,5.66101,1.68689,5.89685,3.46265,1.09113-.50616,2.3017-.79669,3.58167-.79669,1.5163,0,2.93884.40076,4.17487,1.09576.8858-.38434,1.34662-.82391,1.34662-1.20319v-5.39185c-1.36621.97052-4.04633,1.54907-7.5,1.54907s-6.13379-.57855-7.5-1.54907Z"/><path d="M23.5,16.20001c-4.03168,0-7.29999,3.26825-7.29999,7.29999s3.26831,7.29999,7.29999,7.29999,7.29999-3.26837,7.29999-7.29999-3.26831-7.29999-7.29999-7.29999ZM23.5,29.7998c-3.47363,0-6.2998-2.82617-6.2998-6.2998s2.82617-6.2998,6.2998-6.2998,6.2998,2.82617,6.2998,6.2998-2.82617,6.2998-6.2998,6.2998ZM28.06464,21.66339l-5.508,5.50458-2.82178-2.82227.73779-.73779,2.08398,2.08838,4.7702-4.77069.73779.73779ZM14.02148,9.45093c1.36621.97052,4.04633,1.54907,7.5,1.54907s6.13379-.57855,7.5-1.54907v5.39185c0,.37927-.46082.81885-1.34662,1.20319.33844.19025.65942.40649.96741.63947.87396-.50262,1.35773-1.12823,1.35773-1.84265V3.96729c-.08386-2.03174-4.29706-2.94385-8.47852-2.94385-4.22363,0-8.52148.92871-8.52148,3.00391v8.14728c.35254.03003.69293.06659,1.02148.10962v-2.83331ZM29.02148,7.84277c0,.9082-2.60645,2.16699-7.5,2.16699s-7.5-1.25879-7.5-2.16699v-2.29138c1.50116,1.01093,4.50641,1.44861,7.5,1.44861,3.45734,0,6.1394-.52917,7.5-1.45465v2.29742ZM21.52148,1.99609c4.90332,0,7.51367,1.17969,7.51367,2.03125,0,.85254-2.61035,2.03223-7.51367,2.03223s-7.51367-1.17969-7.51367-2.03223c0-.85156,2.61035-2.03125,7.51367-2.03125ZM10.47852,29.05566c-4.89355,0-7.5-1.25781-7.5-2.16602v-5.39252c1.36621.97021,4.04633,1.50287,7.5,1.50287,1.72034,0,3.24799-.13257,4.5177-.38513.03815-.36932.10773-.72876.19159-1.0827-1.20044.28552-2.77264.47681-4.70929.47681-4.89355,0-7.5-1.21112-7.5-2.11932v-2.27594c1.50775,1.00946,4.50983,1.38629,7.5,1.38629,2.36151,0,4.7182-.24097,6.3526-.83704.60199-.75073,1.32898-1.39349,2.1474-1.90619v-.18256c0-2.08496-4.26953-3.07422-8.5-3.07422s-8.47302.98926-8.47302,3.07422v10.81543c0,1.89355,3.38904,3.11035,8.47302,3.11035,2.74829,0,5.0022-.35809,6.49951-.98395-.2196-.25928-.42419-.53088-.61218-.81519-1.25757.48364-3.23285.8548-5.88733.8548ZM10.47852,13.99097c4.89355,0,7.5,1.23657,7.5,2.08325,0,.8457-2.60645,1.93475-7.5,1.93475s-7.5-1.08905-7.5-1.93475c0-.84668,2.60645-2.08325,7.5-2.08325Z"/><rect class="cls-1" width="32" height="32"/></svg>