<svg xmlns="http://www.w3.org/2000/svg" viewBox="0 0 16 16"><path d="M6.999 1.976c0-.276 1.042-1.013 3.503-1.013 2.46 0 3.502.737 3.502 1.013s-1.042 1.069-3.502 1.069-3.503-.794-3.503-1.07zM7 3.27v1.966c.912.206 1.638.534 2.154.963a5.8 5.8 0 0 1 2.346-.5c.896 0 1.742.21 2.5.575V3.272c-.792.42-2 .671-3.498.671-1.5 0-2.71-.252-3.502-.672z" opacity=".25"/><path d="M15.991 11.5c0 2.485-2.006 4.5-4.491 4.5s-4.491-2.015-4.491-4.5S9.015 7 11.5 7c.956 0 1.839.303 2.567.81l-.725.727A3.47 3.47 0 0 0 11.5 8C9.57 8 8 9.57 8 11.5S9.57 15 11.5 15s3.5-1.57 3.5-3.5c0-.118-.023-.23-.035-.345l.853-.853c.107.384.173.78.173 1.198m-4.491.293-1.146-1.147-.708.708 1.854 1.853 3.854-3.853-.708-.708zm-5.496-6.72L6.009 2l-.001-.024c0-1.177 1.8-1.968 4.494-1.968 2.692 0 4.493.79 4.493 1.968l.004 4.91A6 6 0 0 0 14 6.275V3.272c-.792.42-2 .671-3.498.671-1.5 0-2.71-.252-3.502-.672v1.966a10 10 0 0 0-.996-.165zm.995-3.097c0 .275 1.042 1.069 3.503 1.069 2.46 0 3.502-.794 3.502-1.07S12.962.964 10.502.964s-3.503.737-3.503 1.013zM4.5 14.054c-2.447 0-3.5-.686-3.5-.887V9.245c.794.42 2.007.755 3.51.755.516 0 .983-.05 1.425-.12q.16-.548.42-1.048a8.6 8.6 0 0 1-1.844.186c-2.472 0-3.518-.794-3.518-1.07s1.046-.966 3.518-.966c1.38 0 2.3.216 2.858.454q.377-.381.816-.689C7.401 6.278 6.12 6 4.511 6 1.809 6 0 6.771 0 7.948v5.219C0 14.28 1.767 15 4.5 15c.85 0 1.593-.077 2.232-.206a6 6 0 0 1-.518-.92c-.472.075-1.034.18-1.714.18"/><path fill="none" d="M0 0h16v16H0z"/></svg>