<?xml version="1.0" encoding="UTF-8"?><svg id="icons" xmlns="http://www.w3.org/2000/svg" viewBox="0 0 24 24"><defs><style>.cls-1{fill:none;}.cls-2{opacity:.25;}</style></defs><path class="cls-2" d="M11.00586,3.45117c0-.50684,1.66113-1.45117,5.5-1.45117s5.5.94434,5.5,1.45117-1.66113,1.54883-5.5,1.54883-5.5-1.04199-5.5-1.54883ZM11.00586,4.87811v1.57306c0,.50684,1.66113,1.54883,5.5,1.54883s5.5-1.04199,5.5-1.54883v-1.57306c-1.10126.67175-3.04523,1.07306-5.5,1.07306s-4.39874-.40131-5.5-1.07306ZM11.00586,7.89313v1.39478c1.34467.27179,2.38263.71838,3.07239,1.30402.89148-.40808,1.87878-.64172,2.92175-.64172,1.83875,0,3.50983.7132,4.76617,1.87012.14917-.13458.23969-.26343.23969-.36914v-3.55804c-1.10126.6861-3.04523,1.10687-5.5,1.10687s-4.39874-.42078-5.5-1.10687Z"/><path d="M11.56085,21.48059c.22955.27826.48529.53296.75427.77301-1.14227.45685-2.79358.72101-4.78192.72101-3.8877,0-6.5-1.00488-6.5-2.5v-8c0-1.49512,2.6123-2.47461,6.5-2.47461,2.52765,0,4.51007.41595,5.59204,1.11658-.29645.19586-.57361.41669-.83655.65381-.82751-.41211-2.36981-.79578-4.75549-.79578-3.83887,0-5.5332.99316-5.5332,1.5s1.69434,1.53436,5.5332,1.53436c1.34729,0,2.41168-.13037,3.24481-.31659-.18573.34796-.34054.71423-.46649,1.09375-.82306.13574-1.75269.21387-2.77832.21387-2.45477,0-4.43195-.4267-5.5332-1.09845v1.57306c0,.50684,1.69434,1.53436,5.5332,1.53436.93695,0,1.73975-.06268,2.42474-.1626-.0011.05157-.00775.10175-.00775.15363,0,.2774.02032.5498.05164.81897-.74451.10083-1.57147.15564-2.46863.15564-2.45477,0-4.43195-.40131-5.5332-1.07306v3.57306c0,.50684,1.69434,1.53601,5.5332,1.53601,1.8175,0,3.13159-.23334,4.02765-.53003ZM16.55664,17.69629l-1.08398-1.08838-.73779.73779,1.82178,1.82227,3.508-3.50458-.73779-.73779-2.7702,2.77069ZM22.79999,17c0,3.20319-2.59674,5.79999-5.79999,5.79999s-5.79999-2.5968-5.79999-5.79999,2.59674-5.80005,5.79999-5.80005,5.79999,2.59674,5.79999,5.80005ZM21.79999,17c0-2.64667-2.15332-4.79999-4.79999-4.79999s-4.79999,2.15332-4.79999,4.79999,2.15332,4.79999,4.79999,4.79999,4.79999-2.15332,4.79999-4.79999ZM22.99689,3.45117v8c0,.40161-.19336.76636-.54352,1.08728-.21045-.25677-.44312-.49341-.68719-.71814.14917-.13458.23969-.26343.23969-.36914v-3.55804c-1.10126.6861-3.04523,1.10687-5.5,1.10687s-4.39874-.42078-5.5-1.10687v1.39478c-.3183-.06427-.64917-.12128-1-.16602V3.45117c0-1.49512,2.6123-2.45117,6.5-2.45117s6.49103.95605,6.49103,2.45117ZM22.00586,4.87811c-1.10126.67175-3.04523,1.07306-5.5,1.07306s-4.39874-.40131-5.5-1.07306v1.57306c0,.50684,1.66113,1.5578,5.5,1.5578s5.5-1.05096,5.5-1.5578v-1.57306ZM22.00586,3.45117c0-.50684-1.66113-1.46021-5.5-1.46021s-5.5.95337-5.5,1.46021,1.66113,1.5578,5.5,1.5578,5.5-1.05096,5.5-1.5578Z"/><rect class="cls-1" width="24" height="24"/></svg>