<svg xmlns="http://www.w3.org/2000/svg" viewBox="0 0 16 16"><path d="M1 8h2v1H0V0h10v5H9V1H1v7zm15-2v10H4V6h12zM5 12.627l1.3-1.387c.11-.118.29-.118.4 0s.29.118.4 0l2.017-2.152a.27.27 0 0 1 .381-.018l2.03 1.804c.1.09.246.094.35.01l1.226-.824a.27.27 0 0 1 .37.028L15 11.56V7H5v5.627zm10 .263a1.003 1.003 0 0 1-.238-.17l-1.57-1.515-.689.46a1.27 1.27 0 0 1-1.64-.043l-1.5-1.334-1.533 1.636a1.28 1.28 0 0 1-1.16.383L5 14.09V15h10v-2.11zM12.5 9.5a1 1 0 1 0 0-2 1 1 0 0 0 0 2zm.5-7V3h-1.176L13.5 5.058 15.176 3H14v-.5C14 1.121 12.878 0 11.5 0H11v1h.5c.827 0 1.5.673 1.5 1.5z"/><path fill="none" d="M0 0h16v16H0z"/></svg>