<?xml version="1.0" encoding="UTF-8"?><svg id="icons" xmlns="http://www.w3.org/2000/svg" viewBox="0 0 16 16"><defs><style>.cls-1{fill:none;}.cls-2{opacity:.25;}</style></defs><path class="cls-2" d="M6.99902,1.97559c0-.27539,1.04199-1.01282,3.50293-1.01282,2.45996,0,3.50195.73743,3.50195,1.01282s-1.04199,1.0694-3.50195,1.0694c-2.46094,0-3.50293-.79401-3.50293-1.0694ZM7,3.27051v1.96692c.91187.20532,1.63794.534,2.15393.96295.7182-.31921,1.5108-.50018,2.34607-.50018.896,0,1.74176.21021,2.5.57446v-3.0025c-.79181.41986-2.00018.6712-3.49805.6712-1.50037,0-2.71014-.25195-3.50195-.67285Z"/><path d="M15.991,11.5c0,2.48523-2.00571,4.5-4.491,4.5s-4.49103-2.01477-4.49103-4.5,2.00574-4.5,4.49103-4.5c.95593,0,1.8385.30261,2.56732.81085l-.72552.72577c-.5365-.33466-1.16425-.53662-1.8418-.53662-1.92981,0-3.5,1.56952-3.5,3.5s1.57019,3.5,3.5,3.5,3.5-1.56952,3.5-3.5c0-.11798-.02338-.22955-.03485-.3446l.85309-.85327c.10645.38379.17276.78021.17276,1.19788ZM11.5,11.79297l-1.14648-1.14648-.70703.70703,1.85352,1.85352,3.85352-3.85352-.70703-.70703-3.14648,3.14648ZM6.00366,5.07245l.00531-3.07245s-.00098-.01593-.00098-.02441C6.008.79883,7.80859.00781,10.50195.00781,13.19434.00781,14.99493.79883,14.99493,1.97559c0,.00848.00452,4.91016.00452,4.91016-.31049-.23602-.64471-.44061-.99945-.61108v-3.0025c-.79181.41986-2.00018.6712-3.49805.6712-1.50037,0-2.71014-.25195-3.50195-.67285v1.96692c-.31097-.07007-.64435-.12402-.99634-.16498ZM6.99902,1.97559c0,.27539,1.04199,1.0694,3.50293,1.0694,2.45996,0,3.50195-.79401,3.50195-1.0694s-1.04199-1.01282-3.50195-1.01282c-2.46094,0-3.50293.73743-3.50293,1.01282ZM4.5,14.054c-2.44727,0-3.5-.68584-3.5-.88701v-3.92242c.79449.41998,2.00714.75543,3.51074.75543.51538,0,.98193-.05029,1.42389-.11914.10663-.36578.24786-.71631.42084-1.04846-.49683.1087-1.09833.18561-1.84473.18561-2.47168,0-3.51758-.79437-3.51758-1.06976s1.0459-.96625,3.51758-.96625c1.37946,0,2.30072.216,2.85797.45404.24994-.25403.5238-.4837.81659-.6886-.78424-.46936-2.06628-.74744-3.67456-.74744-2.70215,0-4.51074.77148-4.51074,1.94824v5.21875c0,1.11328,1.7666,1.83301,4.5,1.83301.85022,0,1.59259-.0769,2.23169-.20636-.19989-.28851-.37219-.59668-.51788-.91974-.47198.07477-1.03381.1801-1.71381.1801Z"/><rect class="cls-1" width="16" height="16"/></svg>