<svg xmlns="http://www.w3.org/2000/svg" viewBox="0 0 24 24"><path fill="#6f6f6f" stroke-width="0" d="M16 4h7v1h-7z"/><path d="M23 4v1h-7V4h7zM11 7h3v3h-1.125v9H14v3h-3v-1H5v1H2v-3h1V5H2V2h3v1.617l6 3.6V7zM3 4h1V3H3v1zm1 16H3v1h1v-1zm8 0v1h1v-1h-1zm0-11h1V8h-1v1zm0 1h-1V8.383l-6-3.6V5H4v14h1v1h6v-1h1v-9z" stroke-width="0"/><path d="M22 14v-3h-3v1.017l-5-3V10h-.305L19 13.183V14h1v5h-1v1h-5v1h5v1h3v-3h-1v-5h1zm-1 7h-1v-1h1v1zm-1-8v-1h1v1h-1z" fill="#6f6f6f" opacity=".5" stroke-width="0"/><path stroke-width="0" fill="none" d="M0 0h24v24H0z"/></svg>