<svg xmlns="http://www.w3.org/2000/svg" viewBox="0 0 16 16"><path d="m15.56 5.35-3.91-3.91A1.52 1.52 0 0 0 10.59 1H2.5A1.5 1.5 0 0 0 1 2.5v12A1.5 1.5 0 0 0 2.5 16h12a1.5 1.5 0 0 0 1.5-1.5V6.41a1.52 1.52 0 0 0-.44-1.06M15 14.5a.495.495 0 0 1-.5.5h-12a.495.495 0 0 1-.5-.5v-12a.495.495 0 0 1 .5-.5h8.09a.47.47 0 0 1 .35.15l3.91 3.91a.47.47 0 0 1 .15.35zm-1-6.58v4.58a1.504 1.504 0 0 1-1.5 1.5H4.44A1.454 1.454 0 0 1 3 12.5V4.46A1.43 1.43 0 0 1 4.45 3H10v1H4.45a.44.44 0 0 0-.45.46v8.04a.46.46 0 0 0 .44.5h8.06a.5.5 0 0 0 .5-.5V7.92a.5.5 0 0 0-.15-.35l-1.43-1.42a.5.5 0 0 0-.35-.15H6.54a.59.59 0 0 0-.54.55v3.95a.54.54 0 0 0 .54.5H11V8.96h-1V10H7V7h3v.96h1a1.003 1.003 0 0 1 1 1v1.99A1.04 1.04 0 0 1 11 12H6.54A1.54 1.54 0 0 1 5 10.5V6.55A1.59 1.59 0 0 1 6.54 5h4.53a1.52 1.52 0 0 1 1.06.44l1.42 1.42A1.5 1.5 0 0 1 14 7.92"/><path fill="none" d="M0 0h16v16H0z"/></svg>