<svg xmlns="http://www.w3.org/2000/svg" viewBox="0 0 16 16"><path d="M8 3a5 5 0 1 0 5 5 5.006 5.006 0 0 0-5-5m0 9a4 4 0 1 1 4-4 4.004 4.004 0 0 1-4 4m1.646-5.354.707.707-2.852 2.853-1.61-1.602.706-.709.902.899zM15.18 8.33a.56.56 0 0 1 0-.66l.526-.736a1.57 1.57 0 0 0 .213-1.412 1.63 1.63 0 0 0-1.02-1.008l-.877-.3a.6.6 0 0 1-.423-.545l-.026-.893a1.6 1.6 0 0 0-.685-1.254 1.67 1.67 0 0 0-1.42-.235l-.894.253a.68.68 0 0 1-.707-.216L9.3.616a1.73 1.73 0 0 0-2.597 0l-.568.708a.67.67 0 0 1-.707.216l-.894-.253a1.67 1.67 0 0 0-1.419.235 1.6 1.6 0 0 0-.686 1.254l-.026.893a.6.6 0 0 1-.423.546l-.876.299A1.63 1.63 0 0 0 .082 5.523a1.57 1.57 0 0 0 .212 1.41l.527.737a.56.56 0 0 1 0 .66l-.526.736a1.57 1.57 0 0 0-.213 1.412 1.63 1.63 0 0 0 1.02 1.008l.877.3a.6.6 0 0 1 .423.545l.026.893a1.6 1.6 0 0 0 .685 1.254 1.68 1.68 0 0 0 1.42.235l.894-.253a.68.68 0 0 1 .707.216l.567.708a1.677 1.677 0 0 0 2.598 0l.567-.708a.68.68 0 0 1 .707-.216l.894.253a1.68 1.68 0 0 0 1.419-.235 1.6 1.6 0 0 0 .686-1.254l.026-.893a.6.6 0 0 1 .422-.546l.877-.299a1.63 1.63 0 0 0 1.021-1.009 1.57 1.57 0 0 0-.212-1.41zm-.208 1.827a.62.62 0 0 1-.395.383l-.878.299a1.61 1.61 0 0 0-1.1 1.463l-.026.893a.58.58 0 0 1-.258.462.7.7 0 0 1-.576.094l-.893-.252a1.66 1.66 0 0 0-1.758.551l-.568.708a.706.706 0 0 1-1.038 0l-.568-.707a1.65 1.65 0 0 0-1.293-.617 1.7 1.7 0 0 0-.465.065l-.893.252a.7.7 0 0 1-.577-.094.58.58 0 0 1-.257-.462l-.026-.893a1.61 1.61 0 0 0-1.1-1.463l-.88-.3a.62.62 0 0 1-.393-.381.56.56 0 0 1 .08-.51l.525-.735a1.57 1.57 0 0 0 0-1.825l-.527-.736a.56.56 0 0 1-.078-.509.62.62 0 0 1 .395-.383l.878-.299a1.61 1.61 0 0 0 1.1-1.463l.026-.893a.58.58 0 0 1 .258-.462.7.7 0 0 1 .576-.094l.893.252a1.66 1.66 0 0 0 1.758-.551l.57-.709a.705.705 0 0 1 1.036 0l.568.708a1.66 1.66 0 0 0 1.758.552l.893-.252a.7.7 0 0 1 .577.094.58.58 0 0 1 .257.462l.026.893a1.61 1.61 0 0 0 1.1 1.463l.88.3a.62.62 0 0 1 .393.381.56.56 0 0 1-.08.51l-.525.735a1.57 1.57 0 0 0 0 1.825l.527.736a.56.56 0 0 1 .078.509"/><path fill="none" d="M0 0h16v16H0z"/></svg>