<svg xmlns="http://www.w3.org/2000/svg" viewBox="0 0 32 32"><path d="M16 7.212A8.788 8.788 0 1 0 24.788 16 8.8 8.8 0 0 0 16 7.212m0 16.6A7.812 7.812 0 1 1 23.812 16 7.82 7.82 0 0 1 16 23.812m3.645-11.17.71.703-5.814 5.869-2.402-2.357.7-.714 1.692 1.66zm8.695 4.192a1.53 1.53 0 0 1 0-1.716l.928-1.354a2.518 2.518 0 0 0-1.234-3.797l-1.547-.55a1.53 1.53 0 0 1-1.008-1.389l-.045-1.64a2.518 2.518 0 0 0-3.23-2.347l-1.574.465a1.53 1.53 0 0 1-1.633-.53l-1-1.302a2.518 2.518 0 0 0-3.993 0l-1.001 1.301a1.53 1.53 0 0 1-1.633.53l-1.574-.464a2.518 2.518 0 0 0-3.23 2.347l-.045 1.64a1.53 1.53 0 0 1-1.008 1.39l-1.548.549a2.518 2.518 0 0 0-1.233 3.797l.928 1.354a1.53 1.53 0 0 1 0 1.716l-.928 1.354a2.518 2.518 0 0 0 1.234 3.797l1.547.55a1.53 1.53 0 0 1 1.008 1.389l.045 1.64a2.518 2.518 0 0 0 3.23 2.347l1.574-.465a1.53 1.53 0 0 1 1.633.531l1 1.301a2.518 2.518 0 0 0 3.993 0l1.001-1.3a1.53 1.53 0 0 1 1.633-.532l1.574.465a2.518 2.518 0 0 0 3.23-2.347l.045-1.64a1.53 1.53 0 0 1 1.008-1.39l1.548-.549a2.518 2.518 0 0 0 1.233-3.797zm.295 3.248a1.53 1.53 0 0 1-.935.961l-1.547.55a2.53 2.53 0 0 0-1.674 2.303l-.045 1.642a1.517 1.517 0 0 1-1.947 1.414l-1.574-.465a2.53 2.53 0 0 0-2.709.88l-1 1.302a1.58 1.58 0 0 1-2.407 0l-1.001-1.301a2.53 2.53 0 0 0-2.005-.982 2.5 2.5 0 0 0-.704.101l-1.574.465a1.517 1.517 0 0 1-1.947-1.415l-.045-1.64a2.53 2.53 0 0 0-1.674-2.305L4.3 21.043a1.52 1.52 0 0 1-.744-2.29l.927-1.353a2.53 2.53 0 0 0 0-2.848l-.927-1.354A1.52 1.52 0 0 1 4.3 10.91l1.547-.55A2.53 2.53 0 0 0 7.52 8.057l.045-1.641A1.517 1.517 0 0 1 9.513 5l1.574.465a2.53 2.53 0 0 0 2.709-.88l1-1.302a1.58 1.58 0 0 1 2.407 0l1.001 1.301a2.53 2.53 0 0 0 2.71.88L22.486 5a1.517 1.517 0 0 1 1.947 1.415l.045 1.64a2.53 2.53 0 0 0 1.674 2.305l1.546.55a1.52 1.52 0 0 1 .744 2.288l-.927 1.354a2.53 2.53 0 0 0 0 2.848l.927 1.354a1.53 1.53 0 0 1 .192 1.328z"/><path fill="none" d="M0 0h32v32H0z"/></svg>