<svg xmlns="http://www.w3.org/2000/svg" viewBox="0 0 24 24"><path d="M13.125 22.425v.316A11 11 0 0 1 12 22.8 10.8 10.8 0 1 1 22.75 11h-1a9.868 9.868 0 1 0-8.488 10.71 2 2 0 0 0-.137.715M12 7.2a4.8 4.8 0 0 0 0 9.6v-.114a2.7 2.7 0 0 1 .183-.905c-.062.003-.12.019-.183.019a3.8 3.8 0 1 1 3.65-4.8h1.042A4.8 4.8 0 0 0 12 7.2m2 6.8h9v-1h-9zm5.101 4.938 2.774-3.488V15h-.844L18.5 18.182 15.969 15h-.844S14.018 16.16 14 16.685V17h1.125v-.315a2.1 2.1 0 0 1 .228-.947l2.546 3.2-2.774 3.487v.45h.844l2.531-3.182 2.531 3.182h.844s1.107-1.16 1.125-1.685V21h-1.125v.189a2.1 2.1 0 0 1-.229.948z"/><path fill="none" d="M0 0h24v24H0z"/></svg>