<svg xmlns="http://www.w3.org/2000/svg" viewBox="0 0 32 32"><path d="m18.293 28.587.26.971A14 14 0 0 1 16 29.8 13.8 13.8 0 0 1 6.242 6.242 13.8 13.8 0 0 1 29.8 16a14 14 0 0 1-.241 2.553l-.972-.26A13 13 0 0 0 28.8 16 12.8 12.8 0 0 0 6.95 6.95 12.8 12.8 0 0 0 16 28.8a13 13 0 0 0 2.293-.213m2.516-17.396a6.81 6.81 0 1 0-4.079 11.564l-.268-1.003a5.8 5.8 0 1 1 5.291-5.29l1.001.268a6.79 6.79 0 0 0-1.945-5.539M17 17l3.534 13.188a13.68 13.68 0 0 0 9.654-9.654z"/><path fill="none" d="M0 0h32v32H0z"/></svg>