<?xml version="1.0" encoding="UTF-8"?><svg id="icons" xmlns="http://www.w3.org/2000/svg" viewBox="0 0 32 32"><rect width="32" height="32" style="fill:none; stroke-width:0px;"/><path d="m29,27.2c0,.99411-.80591,1.8-1.80006,1.8H5.80006c-.99415,0-1.80006-.80589-1.80006-1.8V5.79819c0-.99135.80686-1.79819,1.79825-1.79819h21.39988c.99325,0,1.80187.80684,1.80187,1.79819v21.40181ZM8,7.84998v1.29999c9.63,0,15.84998,6.22003,15.84998,15.85004h1.30005c0-10.26001-6.89001-17.15002-17.15002-17.15002Zm1.5,13.99963c-.91016,0-1.65039.74023-1.65039,1.65039s.74023,1.65039,1.65039,1.65039,1.65039-.74023,1.65039-1.65039-.74023-1.65039-1.65039-1.65039Zm-1.5-7.99963v1.29999c5.42999,0,9.84998,4.42004,9.84998,9.85004h1.30005c0-6.15002-5-11.15002-11.15002-11.15002Z" style="stroke-width:0px;"/></svg>