<svg xmlns="http://www.w3.org/2000/svg" viewBox="0 0 32 32"><path d="M29 5.8v21.4c0 .99-.81 1.8-1.8 1.8H5.8C4.81 29 4 27.99 4 27V5.8C4 4.81 4.81 4 5.8 4h21.4c.99 0 1.8.81 1.8 1.8zm-1 21.4V5.8c0-.44-.36-.8-.8-.8H5.8c-.44 0-.8.36-.8.8v21.4c0 .44.36.8.8.8h21.4c.44 0 .8-.36.8-.8zM8 8v1c9.72 0 16 6.28 16 16h1C25 14.83 18.17 8 8 8zm0 6v1c5.51 0 10 4.49 10 10h1c0-6.07-4.93-11-11-11zm0 9.5c0 .83.67 1.5 1.5 1.5s1.5-.67 1.5-1.5-.67-1.5-1.5-1.5-1.5.67-1.5 1.5z" stroke-width="0"/><path fill="none" stroke-width="0" d="M0 0h32v32H0z"/></svg>