<?xml version="1.0" encoding="UTF-8"?><svg id="icons" xmlns="http://www.w3.org/2000/svg" viewBox="0 0 16 16"><rect width="16" height="16" style="fill:none; stroke-width:0px;"/><path d="m14.07001,2H2.92999c-.51001,0-.92999.41998-.92999.92999v11.14001c0,.50995.41998.92999.92999.92999h11.14001c.51001,0,.92999-.42004.92999-.92999V2.92999c0-.51001-.41998-.92999-.92999-.92999ZM5.5,12.64996c-.63,0-1.15002-.51996-1.15002-1.14996s.52002-1.15002,1.15002-1.15002,1.15002.52002,1.15002,1.15002-.52002,1.14996-1.15002,1.14996Zm3.34998-.64996c0-2.25-1.57996-3.83002-3.83997-3.83002v-1.29999c2.97998,0,5.14001,2.15997,5.14001,5.13h-1.30005Zm3.01001,0c0-3.78003-3.07996-6.85004-6.84998-6.85004v-1.29999c4.48999,0,8.14996,3.66003,8.14996,8.15002h-1.29999Z" style="stroke-width:0px;"/></svg>