<?xml version="1.0" encoding="UTF-8"?><svg id="icons" xmlns="http://www.w3.org/2000/svg" viewBox="0 0 24 24"><rect width="24" height="24" style="fill:none; stroke-width:0px;"/><path d="m22,20.71849c0,.70776-.57375,1.28151-1.28151,1.28151H4.28151c-.70776,0-1.28151-.57375-1.28151-1.28151V4.28151c0-.70776.57375-1.28151,1.28151-1.28151h16.43697c.70776,0,1.28151.57375,1.28151,1.28151v16.43697Zm-14.5-4.86888c-.91016,0-1.65039.74023-1.65039,1.65039s.74023,1.65039,1.65039,1.65039,1.65039-.74023,1.65039-1.65039-.74023-1.65039-1.65039-1.65039Zm-1.5-5.99963v1.29999c4.34003,0,7.87,3.51001,7.88,7.83002h1.29999c-.01001-5.02997-4.13-9.13-9.17999-9.13Zm0-4v1.29999c6.40997,0,11.84003,5.42004,11.84998,11.83002h1.30005c-.01001-7.12-6.03003-13.13-13.15002-13.13Z" style="stroke-width:0px;"/></svg>