<svg xmlns="http://www.w3.org/2000/svg" viewBox="0 0 32 32"><path d="M18.5 8C17.122 8 16 6.879 16 5.5S17.122 3 18.5 3 21 4.121 21 5.5 19.878 8 18.5 8zm0-4c-.827 0-1.5.673-1.5 1.5S17.673 7 18.5 7 20 6.327 20 5.5 19.327 4 18.5 4zm5.813 8.22a2.112 2.112 0 0 0-1.097-1.205 2.106 2.106 0 0 0-1.621-.078l-2.913 1.047.051-.408a2.126 2.126 0 0 0-1.158-2.164L15.951 8.6a2.163 2.163 0 0 0-1.368-.184l-4.063.813C9.476 9.439 9 10.553 9 11.5v4c0 1.196.779 2 1.937 2a2.127 2.127 0 0 0 2.125-2.125v-2.321l1.235-.246-.593 4.742a2.12 2.12 0 0 0 .12.987l-2.136 2.773-3.03.981a2.129 2.129 0 0 0-1.367 2.678 2.118 2.118 0 0 0 2.677 1.365l3.657-1.186a2.12 2.12 0 0 0 1.027-.723l1.663-2.158.508.732-1.384 3.843c-.193.534-.166 1.111.076 1.625s.668.902 1.2 1.094a2.129 2.129 0 0 0 2.72-1.278l1.756-4.874a2.129 2.129 0 0 0-.251-1.931l-2.918-4.21.07-.556 4.939-1.774a2.13 2.13 0 0 0 1.282-2.718zM13.86 23.813a1.121 1.121 0 0 1-.544.384L9.66 25.383a1.145 1.145 0 0 1-1.419-.722 1.128 1.128 0 0 1 .723-1.419l3.327-1.077 2.08-2.701 1.345 1.94-1.857 2.41zm6.258-1.766c.206.299.256.68.132 1.022l-1.755 4.875c-.204.568-.87.884-1.439.676a1.114 1.114 0 0 1-.637-.579 1.117 1.117 0 0 1-.04-.86l1.559-4.328-3.05-4.4a1.125 1.125 0 0 1-.192-.78l.714-5.711-.57-.282-2.778.553v3.142c0 .62-.504 1.125-1.125 1.125-.815 0-.937-.627-.937-1v-4c0-.57.246-1.196.717-1.291l4.06-.812a1.12 1.12 0 0 1 .726.097l1.625.813c.426.213.673.672.613 1.145l-.759 6.072 3.136 4.523zm2.574-8.05L18.231 15.6l.313-2.504 3.39-1.218c.282-.1.585-.087.857.042a1.127 1.127 0 0 1-.099 2.076z"/><path fill="none" d="M0 0h32v32H0z"/></svg>