<svg xmlns="http://www.w3.org/2000/svg" viewBox="0 0 16 16"><path d="M10.5 3c.827 0 1.5-.673 1.5-1.5S11.327 0 10.5 0 9 .673 9 1.5 9.673 3 10.5 3m0-2a.5.5 0 1 1-.001 1.001A.5.5 0 0 1 10.5 1m3.412 3.993a1.5 1.5 0 0 0-.773-.85 1.5 1.5 0 0 0-1.146-.055l-1.506.541a1.5 1.5 0 0 0-.816-1.47l-1.001-.5a1.52 1.52 0 0 0-.964-.13l-2.5.5A1.505 1.505 0 0 0 4 4.5V7c0 .827.673 1.5 1.5 1.5S7 7.827 7 7V5.73l.343-.069-.331 2.653c-.025.201-.001.4.053.591l-1.219 1.582-1.808.586a1.5 1.5 0 0 0-.874.745 1.5 1.5 0 0 0-.09 1.145 1.495 1.495 0 0 0 1.889.964l2.25-.73c.29-.094.54-.271.725-.51l.863-1.12.106.153-.818 2.271a1.5 1.5 0 0 0 .054 1.148c.17.362.472.636.847.771a1.503 1.503 0 0 0 1.92-.902l1.08-3a1.5 1.5 0 0 0-.177-1.363L10.06 8.116l.033-.268c.012 0 .023.005.034.005q.262 0 .507-.088l2.374-.853a1.504 1.504 0 0 0 .904-1.919m-6.766 7.083a.5.5 0 0 1-.242.17l-2.25.73a.5.5 0 1 1-.31-.951l2.105-.682 1.156-1.5.598.861zm3.845-.861a.5.5 0 0 1 .06.455l-1.081 3a.503.503 0 0 1-.64.3.496.496 0 0 1-.3-.64l.992-2.757L8.09 8.785a.5.5 0 0 1-.085-.348l.412-3.297-.017-.381-.47-.235L6 4.91V7a.5.5 0 0 1-1 0V4.5c0-.237.169-.443.402-.49l2.498-.5a.5.5 0 0 1 .324.043l1 .5a.5.5 0 0 1 .272.51l-.476 3.81zM12.67 5.97l-2.374.852c-.023.009-.05.006-.075.01l.137-1.094 1.975-.71a.48.48 0 0 1 .38.019.501.501 0 0 1-.044.923z"/><path fill="none" d="M0 0h16v16H0z"/></svg>