<svg xmlns="http://www.w3.org/2000/svg" viewBox="0 0 24 24"><path d="M14 5c1.103 0 2-.897 2-2s-.897-2-2-2-2 .897-2 2 .897 2 2 2zm0-3a1 1 0 1 1-.002 1.998A1 1 0 0 1 14 2zm5.353 5.929c-.17-.471-.512-.849-.966-1.063s-.963-.239-1.433-.07l-2.346.844.027-.22a1.878 1.878 0 0 0-1.021-1.91l-1.378-.689a1.913 1.913 0 0 0-1.204-.159l-3.438.688a1.881 1.881 0 0 0-1.507 1.837V10.5c0 1.065.876 2 1.875 2 1.034 0 1.875-.84 1.875-1.875v-1.9l.878-.176-.488 3.906c-.035.283.002.565.092.831L8.55 15.58l-2.542.824c-.476.154-.864.485-1.092.931s-.267.954-.113 1.43a1.868 1.868 0 0 0 2.362 1.206l3.095-1.003c.363-.12.677-.34.905-.639l1.343-1.743.347.5-1.157 3.216a1.86 1.86 0 0 0 .068 1.434c.213.454.59.796 1.057.964a1.877 1.877 0 0 0 2.401-1.128l1.486-4.124a1.878 1.878 0 0 0-.222-1.704l-2.451-3.536.049-.395 4.135-1.485a1.881 1.881 0 0 0 1.13-2.4zm-8.98 9.79a.871.871 0 0 1-.422.298L6.857 19.02a.886.886 0 0 1-1.102-.563.868.868 0 0 1 .054-.667.865.865 0 0 1 .508-.435l2.837-.92 1.711-2.22 1.046 1.509-1.538 1.996zm5.294-1.406c.16.234.2.53.104.796l-1.486 4.125a.888.888 0 0 1-1.12.526.864.864 0 0 1-.494-.45.87.87 0 0 1-.031-.67l1.332-3.7-2.604-3.753a.88.88 0 0 1-.149-.608l.567-4.534-.04-.393-.469-.236-2.44.488v2.721a.876.876 0 0 1-.875.875c-.45 0-.875-.486-.875-1V7.187c0-.415.296-.775.704-.857l3.436-.687a.905.905 0 0 1 .565.074l1.375.687a.877.877 0 0 1 .476.893l-.645 5.167 2.669 3.85zm2.216-6.926L14.226 10.7l.243-1.948 2.823-1.014a.871.871 0 0 1 1.119.528.877.877 0 0 1-.528 1.12z"/><path fill="none" d="M0 0h24v24H0z"/></svg>