<svg xmlns="http://www.w3.org/2000/svg" viewBox="0 0 32 32"><path d="M30 7v5h-1V7zM7 6h8v4h10v2.19l3.058-2.69L25 6.81V9h-9V5H7V2.81L3.942 5.5 7 8.19zM3 3H2v5h1zm24 26h3v1H2v-1h1v-6.478A4.2 4.2 0 0 1 3.5 21a.5.5 0 0 1-.5-.5V19h2.286l1.517-3.54A.82.82 0 0 1 7.5 15h9a.82.82 0 0 1 .697.46L18.714 19H21v1.5a.5.5 0 0 1-.5.5h-.011A4.1 4.1 0 0 1 21 22.522V29h5v-5a2 2 0 0 1-2-2v-1.5a.5.5 0 0 1 1 0V22a1 1 0 0 0 1 1v-4.5a.5.5 0 0 1 1 0V25a1 1 0 0 0 1-1v-1.5a.5.5 0 0 1 1 0V24a2 2 0 0 1-2 2zM5.945 20h12.11l-1.715-4H7.66zM5 27.516a19 19 0 0 1-.387-.07A2 2 0 0 1 4 27.21V29h1zm13.001.153A46 46 0 0 1 12 28a46 46 0 0 1-6-.331V29h12zM20 27.21a2 2 0 0 1-.613.235c-.118.024-.254.048-.387.071V29h1zm0-4.688a1.53 1.53 0 0 0-.525-1.154 1.5 1.5 0 0 0-.568-.308l-.205-.06H5.296l-.204.059a1.5 1.5 0 0 0-.568.307A1.53 1.53 0 0 0 4 22.522v2.946a1.015 1.015 0 0 0 .808.997A44.4 44.4 0 0 0 12 27.1a44 44 0 0 0 7.192-.635 1.015 1.015 0 0 0 .808-.997zM16 25h2a1 1 0 0 0 1-1v-1h-2zM5 23v1a1 1 0 0 0 1 1h2l-1-2zm4 2h6v-1H9z"/><path fill="none" d="M0 0h32v32H0z"/></svg>