<svg xmlns="http://www.w3.org/2000/svg" viewBox="0 0 32 32"><path fill="none" d="M0 0h32v32H0z"/><path d="M30.559 14.14l-1.762-1.763a1.203 1.203 0 0 0-1.727-.037L14.527 24.884l-2.343 5.465a.306.306 0 0 0 .403.402l5.465-2.342 10.743-10.744v-.002l1.801-1.798a1.203 1.203 0 0 0-.037-1.726zM13.787 29.15l1.402-3.275 1.872 1.87zm4.1-1.991l-2.111-2.111 9.935-9.935 2.111 2.111zM29.89 15.158l-1.36 1.36-2.11-2.112 1.358-1.359a.163.163 0 0 1 .122-.054.285.285 0 0 1 .192.092l1.76 1.761c.018.018.172.18.038.312zM28 19.876l1-1V28a1.001 1.001 0 0 1-1 1h-9.125l1-1H23v-3.125l1-1V28h4zM9 18h10.997l.44-.44.56-.56H8v11H4V4h4v8a1.001 1.001 0 0 0 1 1h14a1.001 1.001 0 0 0 1-1V4l4 2.999v4.004a2.218 2.218 0 0 1 1 .294V7a1.004 1.004 0 0 0-.4-.8l-4-3A1.005 1.005 0 0 0 24 3H4a1 1 0 0 0-1 1v24a1.001 1.001 0 0 0 1 1h7.675l.428-1H9zM19 4h2v4h-2zM9 4h9v5h4V4h1v8H9z"/></svg>