<svg xmlns="http://www.w3.org/2000/svg" viewBox="0 0 16 16"><path d="M5 10h2.657l1-1H4v5H2V1.991l2 .001V6a1 1 0 0 0 1 1h5.657L12 5.657V1.991L14 4v.954a2.009 2.009 0 0 1 .975.546l.016.016V4a.982.982 0 0 0-.284-.707l-2-2A.995.995 0 0 0 12 1H2a1 1 0 0 0-1 1v12a1 1 0 0 0 1 1h3.15c.009-.023.009-.048.019-.071L5.567 14H5zm3-8h1v2H8zM5 2h2v3h3V2h1v4H5zm9 10.142l1-1V14a1 1 0 0 1-1 1h-2.99l.053-.022a.993.993 0 0 0 .313-.212l.766-.766H14zm1.692-4.52l-1.414-1.414a.965.965 0 0 0-1.385-.03L7.841 11.23l-1.756 4.097a.371.371 0 0 0 .488.487l4.096-1.755 3.608-3.609h-.001l1.446-1.443a.965.965 0 0 0-.03-1.385zm-8.068 6.654l.554-1.294.74.74zm2.338-.924L8.55 11.937l3.008-3.008 1.413 1.415zm4.806-4.806l-1.09 1.09-1.414-1.414 1.09-1.09a.307.307 0 0 1 .433 0l.981.98a.306.306 0 0 1 0 .434z"/><path fill="none" d="M0 0h16v16H0z"/></svg>