<svg xmlns="http://www.w3.org/2000/svg" viewBox="0 0 24 24"><path d="M7 14h6.227l1-1H6v8H3V3h3v6.344a.769.769 0 0 0 .844.656h10.312c.03 0 .055-.01.084-.013l.76-.76V3.174l3 2.278v1.776a1.991 1.991 0 0 1 1 .386V5.376a.845.845 0 0 0-.339-.677l-3.385-2.53c-.148-.11-.324-.169-1.511-.169H2.844A.844.844 0 0 0 2 2.844v18.312a.844.844 0 0 0 .844.844H7.47l.429-1H7zm7-11h1v3h-1zM7 3h6v4h3V3h1v6H7zm14 11.713l1-1v7.443a.844.844 0 0 1-.844.844h-7.444l1-1H17v-2.287l1-1V21h3zm1.95-4.779L21.535 8.52a.965.965 0 0 0-1.385-.03L9.998 18.644 8.242 22.74a.371.371 0 0 0 .488.487l4.096-1.756L22.979 11.32a.965.965 0 0 0-.03-1.385zM9.78 21.688l.962-2.24 1.28 1.28zm3.015-1.6l-1.413-1.414 7.297-7.298 1.414 1.414zm9.157-9.157L20.8 12.083l-1.414-1.414L20.555 9.5a.42.42 0 0 1 .599.007l.804.838a.42.42 0 0 1-.006.586z"/><path fill="none" d="M0 0h24v24H0z"/></svg>