<svg xmlns="http://www.w3.org/2000/svg" viewBox="0 0 32 32"><path d="M28.97 27.5c0 .828-.642 1.47-1.47 1.47s-1.48-.642-1.48-1.47c0-.143.006-.279.044-.41L16.5 21.164 5 29.12v-7.632l11.5-7.503L27 21.14v-4.759L16.5 9.298 5 17.157V9.68l11.5-7.528L26.56 8.11l3.208.302-2.122 1.135-.058 2.45-1.614-2.937L16.5 3.355 6 10.217v5.036l10.5-7.177L28 15.868v7.225l-11.5-7.895L6 22.026v5.173l10.5-7.257 10.14 6.431a1.49 1.49 0 0 1 .86-.273c.828 0 1.47.572 1.47 1.4z" stroke-width="0"/><path fill="none" stroke-width="0" d="M0 0h32v32H0z"/></svg>