<svg xmlns="http://www.w3.org/2000/svg" viewBox="0 0 32 32"><path d="m14.281 11.718-.964-.53L14.081.37 17 3.293l-.027 9.922c-.04-.028-.078-.06-.12-.083L16 12.663V3.707l-1.076-1.078zm2.732 11.855A4.8 4.8 0 0 1 18 26.5a4.277 4.277 0 0 1-4 4.5 4.277 4.277 0 0 1-4-4.5 4.61 4.61 0 0 1 2-3.874 3.7 3.7 0 0 1 1-.466v-4.51l.999.668V22H14a3.6 3.6 0 0 1 1.01.163L15 18.971l1.002.581.008 3.08a4.2 4.2 0 0 1 1.002.941zM17 26.5a3.283 3.283 0 0 0-3-3.5 3.283 3.283 0 0 0-3 3.5 3.283 3.283 0 0 0 3 3.5 3.283 3.283 0 0 0 3-3.5m11.66-6.89a3.77 3.77 0 0 1-.264 3.14 3.92 3.92 0 0 1-3.458 1.88 4.92 4.92 0 0 1-4.122-2.284 4.5 4.5 0 0 1-.476-.955 4 4 0 0 1-.13-.553l-4.899-2.843L3 9.767V6.654l13.557 7.457.367 1.371 4.013 2.317a3.6 3.6 0 0 1 .754-.72 4.55 4.55 0 0 1 4.809-.043 4.78 4.78 0 0 1 2.16 2.573zm-8.235-.952-4.36-2.516-.363-1.36L4 8.346v.887l11.84 7.913 4.312 2.503a3.6 3.6 0 0 1 .273-.99zm7.288 1.274A3.78 3.78 0 0 0 26 17.902a3.9 3.9 0 0 0-1.943-.533 2.91 2.91 0 0 0-2.587 1.381 2.78 2.78 0 0 0-.183 2.318A3.78 3.78 0 0 0 23 23.098a3.283 3.283 0 0 0 4.53-.848 2.78 2.78 0 0 0 .183-2.318"/><path fill="none" d="M0 0h32v32H0z"/></svg>