<svg xmlns="http://www.w3.org/2000/svg" viewBox="0 0 24 24"><path d="M20.5 2h-13C6.122 2 5 3.683 5 5.75V15H3.5C2.122 15 1 16.57 1 18.5S2.122 22 3.5 22h13c1.378 0 2.5-1.683 2.5-3.75V9h1.5C21.878 9 23 7.43 23 5.5S21.878 2 20.5 2m-17 19C2.701 21 2 19.832 2 18.5S2.701 16 3.5 16h11.057A5.6 5.6 0 0 0 14 18.5a5.6 5.6 0 0 0 .563 2.5zM18 18.25c0 1.574-.792 2.75-1.5 2.75h-.77a4.25 4.25 0 0 1-.73-2.5 4.14 4.14 0 0 1 .86-2.674l.71-.826H6V5.75C6 4.176 6.792 3 7.5 3h11.14A6 6 0 0 0 18 5.75zM20.5 8H19V5.75A4.6 4.6 0 0 1 19.823 3h.677c.799 0 1.5 1.168 1.5 2.5S21.299 8 20.5 8M8 6h8v1H8zm0 3h8v1H8zm0 3h8v1H8z"/><path fill="none" d="M0 0h24v24H0z"/></svg>