<svg xmlns="http://www.w3.org/2000/svg" viewBox="0 0 16 16"><path d="M11 5H5V4h6zm0 1H5v1h6zm0 2H5v1h6zm-9 7a2.295 2.295 0 0 1-2-2.5A2.295 2.295 0 0 1 2 10h1V3.5A2.295 2.295 0 0 1 5 1h9a2.295 2.295 0 0 1 2 2.5A2.295 2.295 0 0 1 14 6h-1v6.5a2.295 2.295 0 0 1-2 2.5zM14 2h-.584A2.86 2.86 0 0 0 13 3.5V5h1c.542 0 1-.687 1-1.5S14.542 2 14 2M4 10h6.872l-.444.754A3.5 3.5 0 0 0 10 12.5a3.7 3.7 0 0 0 .3 1.5h.7c.542 0 1-.687 1-1.5v-9a4 4 0 0 1 .302-1.5H5c-.542 0-1 .687-1 1.5zm-2 4h7.23a5 5 0 0 1 0-3H2c-.542 0-1 .687-1 1.5S1.458 14 2 14"/><path fill="none" d="M0 0h16v16H0z"/></svg>