<svg xmlns="http://www.w3.org/2000/svg" viewBox="0 0 32 32"><path d="M0 0h32v32H0z" style="fill:none"/><path d="M28 2H3.5l.006.012a2 2 0 0 0-.746.141C.837 2.95.487 6.667 1.724 11h2.272l.03-.06C3.872 14.346 5.366 19 8.5 19H15v2a1 1 0 0 0 1 1h1v6.001c0 .552.447.999.999.999H20a1 1 0 0 0 .999-.999V27h6v1.98a1 1 0 0 0 1 1h2a1 1 0 0 0 1-1V23a1 1 0 0 0-1-1h-2a1 1 0 0 0-1 1v1h-6v-2h1a1 1 0 0 0 1-1v-2h3.5c2.647 0 3.565-5.183 3.477-8h.91c.6 0 1.092-.476 1.107-1.075C32.078 6.714 30.57 2 28 2M2.488 10C1.106 4.437 2.48.546 6.492 4.808 5.277 5.823 4.381 7.718 4.102 10zM5 11.5c0-2.682.881-4.963 2.13-5.955q.305.374.607.799C6.817 7.079 6 9.029 6 11.5 6 14.647 7.32 17 8.5 17c1.704 0 2.61-3.643 2.479-6h.989c.123 2.722-.917 7-3.468 7C6.567 18 5 15.09 5 11.5m4.919-1.212c.218 1.735-.016 3.94-.961 5.272a.56.56 0 0 1-.916 0C7.578 14.906 7 13.537 7 11.5c0-2.05.585-3.422 1.05-4.07a.5.5 0 0 1 .28-.192c.778 1.246 1.184 2.167 1.589 3.05M28 23h2v6h-2zm-1 2v1h-6v-1zm-7 3h-2v-6h2zm6.5-10H22v3h-6v-2h2v-1h-7.261c1.692-1.622 2.334-4.465 2.23-7h16.006c.109 3.157-1.012 7-2.475 7m4.488-8H10.877C9.544 6.835 7.713 4.314 5.968 3H28c1.261 0 3.116 3.03 2.988 7" style="fill:#231f20"/></svg>