<svg xmlns="http://www.w3.org/2000/svg" viewBox="0 0 16 16"><path d="M0 0h16v16H0z" style="fill:none"/><path d="M15 12h-2v-1h.237c.966 0 1.75-1.79 1.75-4h.813a.2.2 0 0 0 .2-.2C16 4.7 16 2 13.973 2c-.086 0-11.955-.005-11.946 0C.347 2.206-.22 5.31.1 7H2v.007c0 2.022.779 3.73 2 3.993h4v1.388c0 .338.274.612.612.612H9v2.293c0 .39.317.707.707.707h1.586c.39 0 .707-.317.707-.707V15h3v1h1v-5h-1zm-1.026-9c.758 0 .977 1.087 1.018 3H6.035c-.373-1.115-1.12-2.255-1.885-3zM1.024 6c0-1.27.405-2.702.995-2.95.355-.149.808.072 1.265.483C2.698 4.053 2.265 4.94 2.091 6zM3 7.007c0-1.306.433-2.315.946-2.753.198.256.382.534.554.825v.03c-.2.256-.5.888-.5 1.898s.3 1.641.5 1.897c.2-.256.5-.887.5-1.897v-.002L6 7v.007C6 8.77 5.21 10 4.5 10S3 8.771 3 7.007M9 11h1v-1H6.139C6.663 9.268 7 8.199 7 7c0-.002 6.986 0 6.986 0 0 .002.014 2-.765 3H12v2H9zm1 4.01V13h1v2.01zm5-1h-3V13h3z" style="fill:#231f20"/></svg>