<?xml version="1.0" encoding="UTF-8"?><svg id="icons" xmlns="http://www.w3.org/2000/svg" viewBox="0 0 32 32"><defs><style>.cls-1{fill:none;}.cls-2{fill:#231f20;}</style></defs><rect class="cls-1" width="32" height="32"/><path class="cls-2" d="M28,2H3.5l.00604.01208c-.26007.00568-.51184.04401-.7464.14117C.83704,2.94952.48682,6.66705,1.7243,11h2.27148l.0296-.05914c-.15263,3.40462,1.34194,8.05914,4.47461,8.05914h6.5v2c0,.55225.44769,1,1,1h1v6.00116c0,.55164.4472.99884.99878.99884h2.00244c.55157,0,.99878-.4472.99878-.99884v-1.00116h6v1.98077c0,.55231.44769,1,1,1h2c.55231,0,1-.44769,1-1v-5.98077c0-.55231-.44769-1-1-1h-2c-.55231,0-1,.44769-1,1v1h-6v-2h1c.55231,0,1-.44775,1-1v-2h3.5c2.64702,0,3.56541-5.18334,3.47656-8h.91028c.5993,0,1.0918-.47589,1.1076-1.07501.08359-3.21131-1.42463-7.92499-3.99445-7.92499ZM2.48804,10c-1.38231-5.56341-.00838-9.45448,4.00415-5.19171-1.21503,1.01514-2.11157,2.90979-2.39087,5.19171h-1.61328ZM5,11.5c0-2.6825.88129-4.96301,2.13031-5.9552.2027.25037.40527.51508.60675.79919-.9209.73505-1.73706,2.68469-1.73706,5.15601,0,3.14746,1.32031,5.5,2.5,5.5,1.70357,0,2.6103-3.64264,2.47876-6h.98877c.12316,2.72231-.91674,7-3.46753,7-1.93298,0-3.5-2.91016-3.5-6.5ZM9.91876,10.2879c.21866,1.73466-.01603,3.94054-.96124,5.27167-.2251.31708-.68994.31708-.91504,0-.46417-.65369-1.04248-2.02209-1.04248-4.05957,0-2.04968.5849-3.42188,1.05029-4.07086.07343-.10236.17255-.16003.27948-.19153.77801,1.24606,1.18377,2.16783,1.58899,3.05029ZM28,23h2v6h-2v-6ZM27,25v1h-6v-1h6ZM20,28h-2v-6h2v6ZM26.5,18h-4.5v3h-6v-2h2v-1h-7.26141c1.69196-1.62228,2.33419-4.46535,2.23126-7h16.00507c.10907,3.15744-1.0119,7-2.47491,7ZM30.9884,10H10.87683c-1.33276-3.16547-3.16357-5.68579-4.90881-7h.99829l.00055.00037,21.03314-.00037c1.26122,0,3.11597,3.03081,2.9884,7Z"/></svg>