<?xml version="1.0" encoding="UTF-8"?><svg id="icons" xmlns="http://www.w3.org/2000/svg" viewBox="0 0 16 16"><defs><style>.cls-1{fill:none;}.cls-2{fill:#231f20;}</style></defs><rect class="cls-1" width="16" height="16"/><path class="cls-2" d="M15,12h-2v-1h.23669c.96649,0,1.75-1.79089,1.75-4h.81311c.11053,0,.2002-.0896.2002-.2002,0-2.09857,0-4.7998-2.02655-4.7998-.08624,0-11.95581-.00549-11.94672,0C.34637,2.20568-.21905,5.31075.1015,7h1.89886c0,.00226-.00037.00439-.00037.00665,0,2.02283.77869,3.73041,2,3.99335h4v1.38763c0,.3382.27417.61237.61237.61237h.38763v2.29291c0,.3905.31659.70709.70709.70709h1.58582c.3905,0,.70709-.31659.70709-.70709v-.29291h3v1h1v-5h-1v1ZM13.97363,3c.75879,0,.97754,1.08691,1.01855,3H6.03467c-.37231-1.11485-1.11927-2.25465-1.88452-3h9.82349ZM1.02325,6c.00098-1.27002.40558-2.70239.99554-2.94977.35498-.14886.80835.07196,1.26562.4823-.58655.52002-1.01935,1.40863-1.19379,2.46747h-1.06738ZM3,7.00684c0-1.30579.43335-2.31464.94604-2.75275.19751.2558.38232.53418.55396.82483v.03046c-.2002.25586-.5.8877-.5,1.89746s.2998,1.6416.5,1.89746c.2002-.25586.5-.8877.5-1.89746,0-.00085-.00018-.0014-.00018-.00226l.99969-.00458c0,.00238.00049.00446.00049.00684,0,1.76447-.79004,2.99316-1.5,2.99316s-1.5-1.2287-1.5-2.99316ZM9,11h1v-1h-3.86096c.5235-.73193.86096-1.80139.86096-3,0-.00232,6.98608,0,6.98608,0,0,.00238.01392,2-.76538,3h-1.2207v2h-3v-1ZM10,15.00958v-2.00958h1v2.00958h-1ZM15,14.00958h-3v-1.00958h3v1.00958Z"/></svg>