<svg xmlns="http://www.w3.org/2000/svg" viewBox="0 0 24 24"><path d="M0 0h24v24H0z" style="fill:none"/><path d="M23 16h-.933a1 1 0 0 0-1 1v1H17v-1a1 1 0 0 0 1-1v-2h2.295c1.411 0 2.568-2.197 2.693-5h.177c.45 0 .819-.37.83-.836q.006-.165.005-.33C24 4.611 22.45 2 21 2H3v.007a1.6 1.6 0 0 0-.63.112C.873 2.74.6 5.63 1.564 9H3V8h-.663c-.671-2.85-.226-4.691.415-4.957A.6.6 0 0 1 2.987 3c.439 0 1.017.311 1.642.869C3.653 4.844 3 6.547 3 8.5 3 11.538 4.567 14 6.5 14H12v2a1 1 0 0 0 1 1v4a1 1 0 0 0 1 1h2a1 1 0 0 0 1-1h4.067a1 1 0 0 0 1 1H23a1 1 0 0 0 1-1v-4a1 1 0 0 0-1-1M6 3h14.779C21.534 3 23 4.809 23 7.643q-.002.181-.009.357H8.594c-.955-2.187-2.21-3.964-3.439-5zm1 5.502c0 1.184-.193 1.98-.347 2.36-.076.184-.23.184-.306 0C6.193 10.482 6 9.686 6 8.502c0-1.191.195-1.989.35-2.366a.3.3 0 0 1 .068-.101q.2.31.394.65C6.913 7.121 7 7.717 7 8.502M4 8.5c0-1.707.534-3.173 1.312-3.935q.304.344.61.757C5.42 5.862 5 7.043 5 8.5c0 2.003.792 3.5 1.5 3.5.652 0 1.368-1.278 1.478-3.045L8 9h.972c-.14 2.247-1.186 4-2.472 4C5.12 13 4 10.985 4 8.5m9 5.5h2v-1H8.508c.82-.905 1.397-2.346 1.492-4l12-.001C21.871 11.449 20.823 13 20.095 13H17v3h-4zm1 7v-4h2v4zm3-1v-1h4.067v1zm6 1h-1v-4h1z" style="fill:#231f20"/></svg>