<?xml version="1.0" encoding="UTF-8"?><svg id="icons" xmlns="http://www.w3.org/2000/svg" viewBox="0 0 24 24"><defs><style>.cls-1{fill:none;}.cls-2{fill:#231f20;}</style></defs><rect class="cls-1" width="24" height="24"/><path class="cls-2" d="M23,16h-.93335c-.55225,0-1,.44769-1,1v1h-4.06665v-1c.55231,0,1-.44775,1-1v-2h2.29547c1.41064,0,2.56763-2.19714,2.69208-5h.17761c.44946,0,.81885-.37018.83069-.83612.00275-.10944.00415-.2196.00415-.33057,0-3.22168-1.55023-5.83331-3-5.83331H3v.00696c-.22028-.00122-.43231.03064-.62964.11224-1.49725.61932-1.77002,3.51074-.80627,6.8808h1.43591v-1h-.66309c-.6709-2.84961-.22559-4.69141.41504-4.95703.07031-.02832.14746-.04297.23535-.04297.4386,0,1.01636.3114,1.64185.86871-.9762.97571-1.62915,2.67859-1.62915,4.63129,0,3.03754,1.56702,5.5,3.5,5.5h5.5v2c0,.55225.44769,1,1,1v4c0,.55225.44769,1,1,1h2c.55231,0,1-.44775,1-1h4.06665c0,.55225.44775,1,1,1h.93335c.55231,0,1-.44775,1-1v-4c0-.55231-.44769-1-1-1ZM6,3h14.77899c.75476,0,2.22101,1.80872,2.22101,4.64282,0,.12189-.00464.23914-.00861.35718h-14.3974c-.95453-2.18652-2.20984-3.96375-3.43884-5h.84485ZM7,8.50226c0,1.1842-.19275,1.97955-.34747,2.3595-.07507.18433-.22998.18433-.30505,0-.15472-.37994-.34747-1.17529-.34747-2.3595,0-1.19128.19495-1.98889.3501-2.36609.01862-.04517.04211-.0788.06805-.1015.13324.20654.26422.42578.39404.6507.10126.43549.18781,1.03186.18781,1.81689ZM4,8.5c0-1.70654.53375-3.17346,1.31177-3.93536.20288.22955.40588.48175.60968.7572-.50098.5401-.92145,1.72113-.92145,3.17816,0,2.00293.79218,3.5,1.5,3.5.65228,0,1.36823-1.27759,1.47778-3.04462l.02222.04462h.97198c-.13983,2.24677-1.1864,4-2.47198,4-1.38074,0-2.5-2.01471-2.5-4.5ZM13,14h2v-1h-6.49152c.8194-.90485,1.39648-2.34558,1.49152-4l12-.001c-.12885,2.45081-1.17743,4.001-1.90479,4.001h-3.09521v3h-4v-2ZM14,21v-4h2v4h-2ZM17,20v-1h4.06665v1h-4.06665ZM23,21h-1v-4h1v4Z"/></svg>