<svg xmlns="http://www.w3.org/2000/svg" viewBox="0 0 16 16"><path d="M9.542 8.803a15 15 0 0 0-.852-2.156A7.7 7.7 0 0 1 7 1H1v6.54a2 2 0 0 1 .225-.022 2 2 0 0 1 1.414.586l.861.86.861-.86a2 2 0 0 1 2.828 0l.707.707a2 2 0 0 1 0 2.828l-.86.861.86.861A1.99 1.99 0 0 1 8.461 15H11v-1.246c-1.417-2.834-1.035-3.317-1.458-4.951" opacity=".25"/><path d="M1.225 7.518A2 2 0 0 0 1 7.539V6h1v1.676a2 2 0 0 0-.775-.158M12 14v1h3V1H8v1h6v3.018a7.95 7.95 0 0 0-4.16 1.7c.052.112.103.214.156.342l.265.636A6.87 6.87 0 0 1 14 6.026V14zM5 1v1h1.008q.043.525.097.955l.992-.125A25 25 0 0 1 7 1.876V1zm2.556 3.839-.922.389a5.4 5.4 0 0 0 .68 1.143 8 8 0 0 1 .505.767l.871-.49a9 9 0 0 0-.566-.864 4.4 4.4 0 0 1-.568-.945m1.398 6.355.977-.213c-.07-.324-.11-.609-.15-.894a11 11 0 0 0-.239-1.284l-.969.252a10 10 0 0 1 .217 1.17c.044.31.087.619.164.97zM8.461 15H11v-1.246a22 22 0 0 1-.377-.79l-.912.412c.086.19.195.41.3.624H8.324a2 2 0 0 1 .137 1M2 2h1V1H1v3h1zm4.482 12.775L4.207 12.5l2.275-2.275-.707-.707L3.5 11.793 1.225 9.518l-.707.707L2.793 12.5.518 14.775l.707.707L3.5 13.207l2.275 2.275z"/><path fill="none" d="M0 0h16v16H0z"/></svg>