<svg xmlns="http://www.w3.org/2000/svg" viewBox="0 0 24 24"><path d="M20 3h-2V2h2zM7 2H5v1h2zm10 0h-3v1h3zm-6 0H8v1h3zm11 0h-1v1h1v1h1V2zm0 5h1V5h-1zm0 13h1v-2h-1zm0-7h1v-1h-1zM13 2h-1v1h1zm5 21h2v-1h-2zM5 23h2v-1H5zm9 0h3v-1h-3zm-6 0h3v-1H8zm4 0h1v-1h-1zm10-12h1V8h-1zm0 6h1v-3h-1zM3 5H2v2h1zm0 13H2v2h1zm0-6H2v1h1zm0-4H2v3h1zm0 6H2v3h1zm9.5-10.207 8.707 8.707-8.707 8.707L3.793 12.5zm7.293 8.707L12.5 5.207 5.207 12.5l7.293 7.293zm-9.293 0 2 2 2-2-2-2zM22 22h-1v1h2v-2h-1zM3 21H2v2h2v-1H3zM3 3h1V2H2v2h1z"/><path fill="none" d="M0 0h24v24H0z"/></svg>