<svg xmlns="http://www.w3.org/2000/svg" viewBox="0 0 32 32"><path d="M4.278 15.742 8.5 19.964l4.222-4.222a2 2 0 0 1 1.414-.586 2 2 0 0 1 1.415.587l.707.708a2 2 0 0 1-.001 2.827L12.035 23.5l4.222 4.222a2 2 0 0 1 .227.278h4.641c-1.812-4.102-1.217-6.705-2.028-9.7-1.825-6.736-4.83-4.49-5.82-11.308A27 27 0 0 1 13 3H4v12.514a2 2 0 0 1 .278.228" opacity=".25"/><path d="M19.731 22.661c.106.828.192 1.465.328 2.106l-.979.207c-.143-.678-.231-1.333-.34-2.186zm-1.6-4.099a12 12 0 0 1 .368 2.054l.996-.097a13 13 0 0 0-.398-2.218zm-1.686-3.766a8 8 0 0 1 1.001 1.77l.924-.38a8.8 8.8 0 0 0-1.128-1.994zm-1.42-1.559.72-.695a8 8 0 0 1-1.26-1.606l-.866.502a9 9 0 0 0 1.406 1.8zm-2.28-3.912.96-.275a16 16 0 0 1-.429-2.058l-.99.145a17 17 0 0 0 .458 2.188zM5 7H4v2h1zm0-3h1V3H4v2h1zm5-1H8v1h2zm6.484 25H17v-1h-1.465l.722.722a2 2 0 0 1 .227.278M5 11H4v2h1zm0 5.464V15H4v.514a2 2 0 0 1 .278.228zm9.997-12.677c.003.074.008.14.012.213H28v5.97a14.3 14.3 0 0 0-8.996 3.411 8 8 0 0 1 .454.932A13.2 13.2 0 0 1 28 10.97V27h-5v1h6V3H14.999c-.002.262-.014.522-.002.787m-2.94 1.147.998-.067c-.021-.31-.045-.622-.055-.972S13 3 13 3h-1s-.011.635 0 1 .037.636.057.934M19 28h2v-1h-2zM8.5 24.207l5.636 5.636.707-.707L9.207 23.5l5.636-5.636-.707-.707L8.5 22.793l-5.636-5.636-.707.707L7.793 23.5l-5.636 5.636.707.707z"/><path fill="none" d="M0 0h32v32H0z"/></svg>