<svg xmlns="http://www.w3.org/2000/svg" viewBox="0 0 16 16"><path d="M9.542 8.803a15 15 0 0 0-.852-2.156A7.7 7.7 0 0 1 7 1H1v4h6a1 1 0 0 1 1 1v2a1 1 0 0 1-.269.682l-2.55 2.733L5 15h6v-1.246c-1.417-2.834-1.035-3.317-1.458-4.951" opacity=".25"/><path d="M14 14V6.026a6.87 6.87 0 0 0-3.739 1.67l-.265-.636c-.053-.128-.104-.23-.156-.342a7.95 7.95 0 0 1 4.16-1.7V2H8V1h7v14h-3v-1zM5 1v1h1.008q.043.525.097.955l.992-.125A25 25 0 0 1 7 1.876V1zm4.93 9.981c-.07-.324-.11-.609-.15-.894a11 11 0 0 0-.238-1.284l-.969.252a10 10 0 0 1 .217 1.17c.044.31.087.619.164.97zM11 13.754a22 22 0 0 1-.377-.79l-.912.412c.086.19.195.41.3.624H8v1h3zM7 15v-1H5.052l-.05 1zM3 2V1H1v3h1V2zm4 4v2l-2.8 3h-.006l-.24 1-.13 3h-.649l-.13-3-.245-1L0 8V6zM5.16 8.8H1.84l1.307 1.4h.706zM6 7H1v1h5z"/><path fill="none" d="M0 0h16v16H0z"/></svg>