<svg xmlns="http://www.w3.org/2000/svg" viewBox="0 0 24 24"><path d="M14.172 12.242a15.5 15.5 0 0 1 1.024 4.528c.161 1.25.497 1.829 2.345 5.23h-7.41l.812-6.529zM10.232 8C9.513 7.002 9.077 5.457 9 2H3v6z" opacity=".25"/><path d="M10 2h12v20h-3v-1h2V9.05a10.33 10.33 0 0 0-5.253 1.91c-.154-.249-.35-.542-.558-.837A11.36 11.36 0 0 1 21 8.048V3H10zM3 4h1V3h1V2H3zm9 18h2v-1h-2zM4 6H3v2h1zm4.067-1.954.996-.09A17 17 0 0 1 9 2H7v1h1v.022c.017.362.038.7.067 1.024m5.803 10.406.97-.238a14 14 0 0 0-.594-1.81l-.07-.167-.772.773a12 12 0 0 1 .466 1.442m1.277 1.858-.996.091q.023.247.053.497a6.8 6.8 0 0 0 .413 1.631l.932-.365a5.8 5.8 0 0 1-.353-1.394 13 13 0 0 1-.049-.46m-5.109-8.627a6.7 6.7 0 0 1-.669-1.774l-.973.233A7.8 7.8 0 0 0 9.086 8h.394zM16.45 19.97l-.888.457c.134.262.274.55.417.876l.305.696h1.257L17 21s-.405-.749-.55-1.03M14 11l-4 4-1 8H6l-1-8-4-4V9h13zm-5.133 4H6.133l.75 7h1.234zm2.719-3H3.414l2 2h4.172zM13 10H2v.586l.414.414h10.172l.414-.414z"/><path fill="none" d="M0 0h24v24H0z"/></svg>