<svg xmlns="http://www.w3.org/2000/svg" viewBox="0 0 16 16"><path d="M5.5 8.247a7.2 7.2 0 0 1 4.239 1.557 9 9 0 0 0-.197-1.001 15 15 0 0 0-.852-2.156A7.7 7.7 0 0 1 7 1H1v9.028a7.37 7.37 0 0 1 4.5-1.781" opacity=".25"/><path d="M15 1v14h-3v-1h2V6.026a6.87 6.87 0 0 0-3.739 1.67l-.265-.636c-.053-.128-.104-.23-.156-.342a7.95 7.95 0 0 1 4.16-1.7V2H8V1zM6.104 2.955l.993-.125A25 25 0 0 1 7 1.876V1H5v1h1.008q.043.525.096.955m2.02 2.83a4.4 4.4 0 0 1-.568-.946l-.922.389a5.4 5.4 0 0 0 .68 1.143 8 8 0 0 1 .505.767l.871-.49a9 9 0 0 0-.566-.864zM2 5H1v2h1zM1 1v2h1V2h1V1zm6.972 8.094.026.013-.019-.027zM5.5 9.246C2.462 9.246 0 12.5 0 12.5s2.462 3.254 5.5 3.254S11 12.5 11 12.5 8.538 9.246 5.5 9.246m0 5.708c-1.938 0-3.679-1.62-4.447-2.454.768-.834 2.51-2.454 4.447-2.454 1.936 0 3.677 1.618 4.446 2.452-.774.835-2.524 2.456-4.446 2.456M5.5 11A1.5 1.5 0 1 0 7 12.5 1.5 1.5 0 0 0 5.5 11"/><path fill="none" d="M0 0h16v16H0z"/></svg>