<svg xmlns="http://www.w3.org/2000/svg" viewBox="0 0 16 16"><path d="M8 1v1h6v3.018c-1.117.129-2.74.526-4.16 1.7.043.092.086.183.129.282H8.064l.626-.353a8.535 8.535 0 0 0-.566-.863c-.219-.3-.406-.56-.568-.945l-.922.389c.206.489.447.822.68 1.143.133.184.275.388.42.629H2V5H1v2H0v9h10v-1h1v-1.246a21.916 21.916 0 0 1-.377-.79l-.623.281V7.07l.261.627C11.5 6.568 12.967 6.162 14 6.026V14h-2v1h3V1H8zM1 15V8h8v7H1zm9.01-1H10v-.022l.01.022zM6.009 2H5V1h2v.876c.03.352.061.67.097.954l-.993.125A22.916 22.916 0 0 1 6.008 2zM2 3H1V1h2v1H2v1zm0 6h1v1H2V9zm0 2h1v1H2v-1zm0 2h1v1H2v-1zm2-4h4v1H4V9zm0 2h4v1H4v-1zm0 2h4v1H4v-1z" stroke-width="0"/><path d="M1 7V1h6c-.202 3.575 1.276 4.908 1.69 5.647.043.077.104.204.17.353H1zm9 4.257V15h1v-1.246c-.57-1.138-.843-1.89-1-2.497z" fill="#6f6f6f" opacity=".3" stroke-width="0"/><path stroke-width="0" fill="none" d="M0 0h16v16H0z"/></svg>