<svg xmlns="http://www.w3.org/2000/svg" viewBox="0 0 32 32"><path fill="#6f6f6f" d="M4 17V3h9c-.025 1.4.136 3.025.276 3.992.992 6.818 3.996 4.572 5.82 11.309.812 2.994.217 5.597 2.03 9.699H17V18a1 1 0 0 0-1-1z" opacity=".3"/><path d="M19.08 24.974c-.143-.678-.231-1.333-.34-2.186l.991-.127c.106.828.192 1.465.328 2.106zm.017-6.673-.965.262c.23.851.314 1.515.367 2.053l.996-.097a13 13 0 0 0-.398-2.218m-1.855-4.109-.797.604c.4.53.728 1.108 1.001 1.77l.924-.38a8.8 8.8 0 0 0-1.128-1.994m-2.217-.955.72-.695c-.495-.512-.898-.98-1.26-1.606l-.866.501c.438.755.935 1.312 1.406 1.8m-2.28-3.912.96-.275a16 16 0 0 1-.429-2.058l-.99.145c.117.802.272 1.539.458 2.188zM5 7H4v2h1zm0-3h1V3H4v2h1zm5-1H8v1h2zm-5 8H4v2h1zm9.999-8c-.002.262-.014.522-.002.787.003.074.008.14.012.213H28v5.97c-2.127.075-5.908.645-8.996 3.411.156.275.313.587.454.932C22.343 11.6 25.965 11.047 28 10.97V27h-5v1h6V3zm-2.942 1.934.998-.067c-.021-.31-.045-.622-.055-.972S13 3 13 3h-1s-.011.635 0 1 .037.636.057.934M19 28h2v-1h-2zM1 18h15v13H1zm1 12h13V19H2zm2-2h1v-1H4zm0-6h1v-1H4zm0 3h1v-1H4zm2 2v1h7v-1zm0-2h7v-1H6zm0-3h7v-1H6zm-1-7H4v2h1z"/><path fill="none" d="M0 0h32v32H0z"/></svg>