<svg xmlns="http://www.w3.org/2000/svg" viewBox="0 0 32 32"><path d="M11.42 16.543h.188a13.27 13.27 0 0 1 7.771 3.121 13 13 0 0 0-.282-1.363c-1.825-6.737-4.83-4.49-5.82-11.309A27 27 0 0 1 13 3H4v16.403a13.1 13.1 0 0 1 7.42-2.86" opacity=".25"/><path d="m18.37 16.186-.924.38a8 8 0 0 0-1-1.77l.796-.604a8.8 8.8 0 0 1 1.128 1.994m-2.626-3.644a8 8 0 0 1-1.26-1.606l-.865.502a9 9 0 0 0 1.406 1.8zm-3-3.217.961-.275a16 16 0 0 1-.429-2.058l-.99.145a17 17 0 0 0 .458 2.188M4 9h1V7H4zm0-6v2h1V4h1V3zm4 1h2V3H8zm-4 9h1v-2H4zm0 4h1v-2H4zm8.057-12.066.998-.067c-.021-.31-.045-.622-.055-.972S13 3 13 3h-1s-.011.635 0 1 .037.636.057.934m-.558 23.016a3.44 3.44 0 0 0 3.45-3.394v-.076a3.44 3.44 0 0 0-3.413-3.43h-.072a3.44 3.44 0 0 0-3.414 3.43v.076a3.44 3.44 0 0 0 3.45 3.394zm10.28-3.751c-.184-.254-4.508-6.033-10.17-6.156h-.156C5.791 18.166 1.405 23.945 1.22 24.2l-.22.3.224.299c.187.252 4.632 6.084 10.296 6.147h.022c5.663-.063 10.047-5.895 10.234-6.147L22 24.5zm-10.243 5.746h-.006c-4.516-.05-8.31-4.282-9.27-5.449.953-1.16 4.705-5.355 9.215-5.453h.133c4.515.099 8.204 4.298 9.136 5.453-.956 1.18-4.682 5.396-9.208 5.45zM15 3v.84l.009.16H28v5.97a14.3 14.3 0 0 0-8.996 3.411 8 8 0 0 1 .454.932A13.2 13.2 0 0 1 28 10.97V27h-5v1h6V3z"/><path fill="none" d="M0 0h32v32H0z"/></svg>