<?xml version="1.0" encoding="UTF-8"?><svg id="icons" xmlns="http://www.w3.org/2000/svg" viewBox="0 0 24 24"><defs><style>.cls-1{fill:none;}</style></defs><path d="M20,3h-2v-1h2v1ZM7,2h-2v1h2v-1ZM17,2h-3v1h3v-1ZM11,2h-3v1h3v-1ZM22,2h-1v1h1v1h1v-2h-1ZM22,7h1v-2h-1v2ZM22,20h1v-2h-1v2ZM22,13h1v-1h-1v1ZM13,2h-1v1h1v-1ZM18,23h2v-1h-2v1ZM5,23h2v-1h-2v1ZM14,23h3v-1h-3v1ZM8,23h3v-1h-3v1ZM12,23h1v-1h-1v1ZM22,11h1v-3h-1v3ZM22,17h1v-3h-1v3ZM3,5h-1v2h1v-2ZM3,18h-1v2h1v-2ZM3,12h-1v1h1v-1ZM3,8h-1v3h1v-3ZM3,14h-1v3h1v-3ZM12.5,3.79297l8.70703,8.70703-8.70703,8.70703L3.79297,12.5,12.5,3.79297ZM19.79297,12.5l-7.29297-7.29297-7.29297,7.29297,7.29297,7.29297,7.29297-7.29297ZM10.5,12.5l2,2,2-2-2-2-2,2ZM22,22h-1v1h2v-2h-1v1ZM3,21h-1v2h2v-1h-1v-1ZM3,3h1v-1h-2v2h1v-1Z"/><rect class="cls-1" width="24" height="24"/></svg>