<svg xmlns="http://www.w3.org/2000/svg" viewBox="0 0 16 16"><path fill-rule="evenodd" d="M8.5 2.925 2.925 8.5 8.5 14.075 14.075 8.5zM4.25 8.5 8.5 4.25l4.25 4.25-4.25 4.25zm5.75 0L8.5 10 7 8.5 8.5 7zM5 2H4V1h1zm3 0H6V1h2zm5-.008h-1v-.984h1zm-11 3H1v-.984h1zM11 2H9V1h2zM2 3H1V1h2v1H2zm0 12h1v1H1v-2h1zm0-2H1v-1h1zm0-2H1V9h1zm0-3H1V6h1zm13 4.008h1v.984h-1zM15 4h1v1h-1zm1-3v2h-1V2h-1V1zm-1 5h1v2h-1zm0 3h1v2h-1zm0 5h1v2h-2v-1h1zm-3 1h1v1h-1zm-3 0h2v1H9zm-5 0h1v1H4zm2 0h2v1H6z"/><path fill="none" d="M0 0h16v16H0z"/></svg>