<?xml version="1.0" encoding="UTF-8"?><svg id="icons" xmlns="http://www.w3.org/2000/svg" viewBox="0 0 16 16"><defs><style>.cls-1{fill:none;}</style></defs><path d="M13.5,2c-.651,0-1.20081.41925-1.4079,1h-4.14264c-.24524-1.69165-1.69098-3-3.44946-3C2.57031,0,1,1.57031,1,3.5c0,1.75848,1.30835,3.20422,3,3.44946v2.10107c-1.69165.24524-3,1.69098-3,3.44946,0,1.92969,1.57031,3.5,3.5,3.5s3.48999-1.57031,3.48999-3.5c0-.78455-.25891-1.50195-.69666-2.0863l5.56403-5.56403c.19556.09357.41174.15033.64264.15033.82715,0,1.5-.67285,1.5-1.5s-.67285-1.5-1.5-1.5ZM2,3.5c0-1.37891,1.12109-2.5,2.5-2.5,1.20764,0,2.21722.86005,2.44946,2h-1.04156c-.20709-.58075-.7569-1-1.4079-1-.82715,0-1.5.67285-1.5,1.5,0,.651.41925,1.20081,1,1.4079v1.04156c-1.13995-.23224-2-1.24182-2-2.44946ZM6.94946,4c-.19934.97833-.97113,1.75012-1.94946,1.94946v-1.04156c.42358-.15106.75684-.48431.9079-.9079h1.04156ZM5.15942,11.15942c-.0517-.02557-.10455-.04773-.15942-.06732v-1.04156c.31866.06494.61432.19202.87659.36584l-.7301.7301.01294.01294ZM4.5,15c-1.37891,0-2.5-1.12109-2.5-2.5,0-1.20764.86005-2.21722,2-2.44946v1.04156c-.58075.20709-1,.7569-1,1.4079,0,.82715.67285,1.5,1.5,1.5s1.5-.67285,1.5-1.5c0-.23767-.06061-.45953-.15942-.65942l.01294.01294.7301-.7301c.26196.39526.41638.86774.41638,1.37659,0,1.37891-1.12109,2.5-2.5,2.5ZM6.5863,9.70667c-.45685-.34222-.99628-.57056-1.5863-.65613v-2.10107c1.52692-.22137,2.72809-1.42255,2.94946-2.94946h4.14264c.0174.04883.03607.09631.05823.14264l-5.56403,5.56403ZM14,4h-1v-1h1v1Z"/><rect class="cls-1" width="16" height="16"/></svg>