<?xml version="1.0" encoding="UTF-8"?><svg id="icons" xmlns="http://www.w3.org/2000/svg" viewBox="0 0 16 16"><defs><style>.cls-1{fill:none;}.cls-2{fill-rule:evenodd;}</style></defs><path class="cls-2" d="M8.5,2.92499l-5.57501,5.57501,5.57501,5.57501,5.57501-5.57501-5.57501-5.57501ZM4.25,8.5l4.25-4.25,4.25,4.25-4.25,4.25-4.25-4.25ZM10,8.5l-1.5,1.5-1.5-1.5,1.5-1.5,1.5,1.5ZM5,2h-1v-1h1v1ZM8,2h-2v-1h2v1ZM13,1.99158h-1v-.98322h1v.98322ZM2,4.99158h-1v-.98322h1v.98322ZM11,2h-2v-1h2v1ZM2,3h-1V1h2v1h-1v1ZM2,15h1v1H1v-2h1v1ZM1.99994,12.99994H.99994v-1h1v1ZM2,11h-1v-2h1v2ZM2,8h-1v-2h1v2ZM15,12.00836h1v.98322h-1v-.98322ZM15,4h1v1h-1v-1ZM16,1v2h-1v-1h-1v-1h2ZM15,6h1v2h-1v-2ZM15,9h1v2h-1v-2ZM15,14h1v2h-2v-1h1v-1ZM11.99988,14.99988h1v1h-1v-1ZM9,15h2v1h-2v-1ZM4,15h1v1h-1v-1ZM6,15h2v1h-2v-1Z"/><rect class="cls-1" width="16" height="16"/></svg>