<svg xmlns="http://www.w3.org/2000/svg" viewBox="0 0 24 24"><path d="M9 5.1A2.9 2.9 0 1 0 11.9 8 2.9 2.9 0 0 0 9 5.1zm0 4.8A1.9 1.9 0 1 1 10.9 8 1.902 1.902 0 0 1 9 9.9zm0 12.27l2.75-2.769v1.42L9 23.587l-6-6.04.009-11.93C3.009 2.284 5.687 1 8.999 1s6 1.283 6 4.619v4.803L14 9.692V5.62C14 2.628 11.28 2 9 2s-5 .628-5 3.619v11.518zM23.266 18L13 10.51v12.66l2.786-3.82 2.266 4.62 2.894-1.455L18.756 18zm-3.65 4.064l-1.11.56-2.552-5.202L14 20.102v-7.624L20.198 17H17.16z"/><path fill="none" d="M0 0h24v24H0z"/></svg>