<svg xmlns="http://www.w3.org/2000/svg" viewBox="0 0 24 24"><path d="M8.458 12.5a10.32 10.32 0 0 1 6.536 2.757 7.94 7.94 0 0 0-2.128-4.878C10.593 8.249 9.145 8.605 9 2H3v12.433A9.4 9.4 0 0 1 8.458 12.5" opacity=".25"/><path d="M22 2v20h-5v-1h4V9.05a10.33 10.33 0 0 0-5.253 1.91c-.154-.249-.35-.542-.558-.837A11.36 11.36 0 0 1 21 8.048V3H10V2zM3 2v2h1V3h1V2zm0 6h1V6H3zm0 4h1v-2H3zM9 2H7v1h1v.022c.017.362.038.7.067 1.024l.996-.09A17 17 0 0 1 9 2m5.84 12.214a14 14 0 0 0-.594-1.81l-.088-.21-.914.406.073.173a13 13 0 0 1 .553 1.68zM8.397 6.142a7.7 7.7 0 0 0 .773 2.035l.87-.494a6.7 6.7 0 0 1-.67-1.774zm4.47 4.237a12 12 0 0 0-.989-.802c-.211-.158-.424-.317-.632-.49l-.639.77c.222.183.447.352.671.52a11 11 0 0 1 .908.732zM16 18.5l-.234.305C15.634 18.976 12.524 23 8.458 23c-4.06 0-7.072-4.017-7.209-4.188L1 18.5l.249-.312C1.386 18.018 4.398 14 8.459 14c4.064 0 7.175 4.024 7.307 4.195zm-1.101 0c-.815-.928-3.39-3.6-6.44-3.6-3.045 0-5.489 2.663-6.338 3.6.85.937 3.293 3.6 6.339 3.6 3.055 0 5.626-2.67 6.439-3.6M11 18.5A2.5 2.5 0 1 0 8.5 21a2.503 2.503 0 0 0 2.5-2.5"/><path fill="none" d="M0 0h24v24H0z"/></svg>