<svg xmlns="http://www.w3.org/2000/svg" viewBox="0 0 32 32"><path d="M4 11V3h9a27 27 0 0 0 .276 3.992A10.5 10.5 0 0 0 14.532 11zm8.789 8.615L11.754 28h9.371c-1.812-4.102-1.217-6.705-2.028-9.7a12.6 12.6 0 0 0-1.465-3.524z" opacity=".25"/><path d="m11.754 28 .124-1H13v1zm6.985-5.212c.11.853.198 1.508.341 2.186l.979-.207c-.136-.641-.222-1.278-.328-2.106zm-.607-4.226a12 12 0 0 1 .367 2.054l.996-.097a13 13 0 0 0-.398-2.218zm-.686-1.996.924-.38a9 9 0 0 0-.742-1.406l-.72.72a8 8 0 0 1 .538 1.066m-4.702-7.24.961-.276a16 16 0 0 1-.429-2.058l-.99.145a17 17 0 0 0 .458 2.188zM5 7H4v2h1zm0-3h1V3H4v2h1zm5-1H8v1h2zm7 24h-2v1h2zM14.999 3c-.002.262-.014.522-.002.787.003.074.008.14.012.213H28v5.97a14.3 14.3 0 0 0-8.996 3.411 8 8 0 0 1 .454.932A13.2 13.2 0 0 1 28 10.97V27h-5v1h6V3zm-2.942 1.934.998-.067c-.021-.31-.045-.622-.055-.972S13 3 13 3h-1s-.011.635 0 1 .037.636.057.934M19 28h2v-1h-2zM7.5 30 6 19l-5-5v-2h16v2l-5 5-1.5 11zM2 14h14v-1H2zm4.468 4h5.064l3.333-3H3.135zm.678 1 1.227 10h1.254l1.228-10z"/><path fill="none" d="M0 0h32v32H0z"/></svg>