<svg xmlns="http://www.w3.org/2000/svg" viewBox="0 0 24 24"><path fill="#6f6f6f" d="M3 12V2h6c.145 6.605 1.593 6.25 3.866 8.379 1.822 1.706 2.052 4.224 2.33 6.39.161 1.25.497 1.83 2.345 5.231H13v-9a1 1 0 0 0-1-1z" opacity=".3"/><path d="M22 2v20h-3v-1h2V9.05c-1.423.128-3.445.562-5.253 1.91-.154-.249-.35-.542-.558-.837 2.018-1.488 4.26-1.948 5.811-2.075V3H10V2zM4 3h1V2H3v2h1zm9 19h1v-1h-1zM4 6H3v2h1zm0 5H3v1h1zm4-7.978c.017.362.038.7.067 1.024l.996-.09C8.963 2.82 9.013 2.585 9 2H7v1h1zm6.84 11.192a14 14 0 0 0-.594-1.81l-.088-.21-.914.406.073.173c.246.614.426 1.163.553 1.68l.97-.24zm.307 2.096-.996.091q.023.247.053.497c.078.593.21 1.112.413 1.631l.932-.365a5.8 5.8 0 0 1-.353-1.394 13 13 0 0 1-.049-.46M9.17 8.177l.87-.494c-.284-.498-.503-1.078-.67-1.774l-.973.233c.19.789.443 1.455.773 2.035m2.076.91-.639.77c.222.183.447.352.671.52.309.231.617.46.908.732l.681-.73a12 12 0 0 0-.989-.802c-.211-.158-.424-.317-.632-.49M16.45 19.97l-.888.457c.134.262.274.55.417.876l.305.696h1.257L17 21s-.405-.749-.55-1.03M0 13h12v11H0zm1 10h10v-9H1zm1-1h1v-1H2zm0-6h1v-1H2zm0 3h1v-1H2zm2 2v1h6v-1zm0-2h6v-1H4zm0-3h6v-1H4z"/><path fill="none" d="M0 0h24v24H0z"/></svg>