<?xml version="1.0" encoding="UTF-8"?><svg id="icons" xmlns="http://www.w3.org/2000/svg" viewBox="0 0 24 24"><defs><style>.cls-1{fill:none;}</style></defs><path d="M19,2c-1.6543,0-3,1.3457-3,3h-6.05054c-.25244-2.24384-2.13922-4-4.44946-4C3.01855,1,1.01,3.01855,1.01,5.5c0,2.31024,1.74616,4.19702,3.99,4.44946v4.10107c-2.24384.25244-3.99,2.13922-3.99,4.44946,0,2.48145,2.00855,4.5,4.49,4.5s4.5-2.01855,4.5-4.5c0-1.06042-.38391-2.02332-.99976-2.79321l8.26672-8.26672c.49048.34949,1.08618.55994,1.73303.55994,1.6543,0,2.98-1.3457,2.98-3s-1.3257-3-2.98-3ZM2,5.5c0-1.92969,1.57031-3.5,3.5-3.5,1.75848,0,3.20422,1.30835,3.44946,3h-1c-.23224-1.13995-1.24182-2-2.44946-2-1.37891,0-2.5,1.12109-2.5,2.5,0,1.20764.86005,2.21722,2,2.44946v1c-1.69165-.24524-3-1.69098-3-3.44946ZM8.94946,6c-.22137,1.52692-1.42255,2.72809-2.94946,2.94946v-1c.97833-.19934,1.75012-.97113,1.94946-1.94946h1ZM6,15.05054c.59003.08557,1.12946.3139,1.5863.65613l-.70972.70972c-.26227-.17383-.55792-.3009-.87659-.36584v-1ZM5.5,22c-1.92969,0-3.5-1.57031-3.5-3.5,0-1.75848,1.30835-3.20422,3-3.44946v1c-1.13995.23224-2,1.24182-2,2.44946,0,1.37891,1.12109,2.5,2.5,2.5s2.5-1.12109,2.5-2.5c0-.50885-.15442-.98132-.41638-1.37659l.70972-.70972c.43774.58435.70667,1.30176.70667,2.0863,0,1.92969-1.57031,3.5-3.5,3.5ZM8.29321,14.99976c-.64557-.51642-1.42963-.85205-2.29321-.94922v-4.10107c2.07751-.2337,3.71576-1.87195,3.94946-3.94946h6.23486c.09369.2627.21649.5097.37561.73303l-8.26672,8.26672ZM19,7c-1.10254,0-2-.89746-2-2s.89746-2,2-2,2,.89746,2,2-.89746,2-2,2Z"/><rect class="cls-1" width="24" height="24"/></svg>