<svg xmlns="http://www.w3.org/2000/svg" viewBox="0 0 24 24"><path d="M12 9.137a7.06 7.06 0 0 1 4.944 2.008l-.696.718a6.09 6.09 0 0 0-8.496 0l-.696-.718A7.06 7.06 0 0 1 12 9.137m7.778-.815a11.01 11.01 0 0 0-15.556 0l.707.707a10.01 10.01 0 0 1 14.142 0zM1.394 5.494 2.1 6.2a14.017 14.017 0 0 1 19.798 0l.707-.707a15.016 15.016 0 0 0-21.212 0zM21 19.02V22H3v-2.98A3.024 3.024 0 0 1 6.02 16H9a3 3 0 0 1 6 0h2.98A3.024 3.024 0 0 1 21 19.02m-1 0A2.02 2.02 0 0 0 17.98 17H6.02A2.02 2.02 0 0 0 4 19.02V21h16zM10 16h4a2 2 0 0 0-4 0"/><path fill="none" d="M0 0h24v24H0z"/></svg>