<svg xmlns="http://www.w3.org/2000/svg" viewBox="0 0 24 24"><path d="M19.786 7.806A1.4 1.4 0 0 0 19 7.1V5.576a3.5 3.5 0 0 0-.433-1.655 3.49 3.49 0 0 0-6.271.21 3.1 3.1 0 0 0-.294 1.311L12 19.307a2 2 0 0 1-.124.76A3.11 3.11 0 0 1 9.01 22a3.13 3.13 0 0 1-2.907-2.185 2.2 2.2 0 0 1-.102-.71v-2.209a1.43 1.43 0 0 0 .771-.672l1.963-3.051A2.7 2.7 0 0 0 9 12.013V4H8V1H3v3H2v8.014a2.7 2.7 0 0 0 .296 1.212l1.918 2.968a1.43 1.43 0 0 0 .786.702v2.25a4.2 4.2 0 0 0 .301 1.512A4.11 4.11 0 0 0 9.01 23a4.11 4.11 0 0 0 3.686-2.327 4.2 4.2 0 0 0 .302-1.503L13 5.434a2.2 2.2 0 0 1 .24-.972 2.486 2.486 0 0 1 4.486-.005A2.4 2.4 0 0 1 18 5.568v1.533a1.4 1.4 0 0 0-.771.675l-1.963 3.051A2.7 2.7 0 0 0 15 11.985V20h1v3h5v-3h1v-8.015a2.7 2.7 0 0 0-.296-1.21zM4 2h3v2H4zm-.834 10.737A1.7 1.7 0 0 1 3 12.014V5h5v7.014a1.7 1.7 0 0 1-.136.67l-1.976 3.073a.44.44 0 0 1-.805-.052zM20 22h-3v-2h3zm1-3h-5v-7.015a1.7 1.7 0 0 1 .136-.67l1.976-3.072a.44.44 0 0 1 .805.052l1.917 2.968a1.7 1.7 0 0 1 .166.722z"/><path fill="none" d="M0 0h24v24H0z"/></svg>