<?xml version="1.0" encoding="UTF-8"?><svg id="icons" xmlns="http://www.w3.org/2000/svg" viewBox="0 0 32 32"><defs><style>.cls-1{fill:none;}</style></defs><rect class="cls-1" width="32" height="32"/><path d="M15,14.549l-1-1.014v-4.535h15v15h-4.6806l-.9861-1h4.6667v-13h-13v4.549ZM21.57202,22.86499l-2.04504,6.13501H4.44812l7.40057-15.85803,9.72333,9.72302ZM6.01831,28h11.96313l-5.98157-12.81799-5.98157,12.81799ZM20.42792,23.13501l-6.77472-6.77502,5.26923,11.29102,1.50549-4.51599ZM8.25426,18.50057l.42395-.90845c-2.7149-.96375-4.66821-3.55115-4.66821-6.5921,0-3.85938,3.14062-7,7-7,2.78491,0,5.18842,1.63934,6.31482,4h1.09619c-1.18976-2.92798-4.06104-5-7.41101-5C6.59886,3.00003,3.00999,6.58889,3.00999,11.00003c0,3.44165,2.18884,6.37396,5.24426,7.50055Z"/></svg>