<?xml version="1.0" encoding="UTF-8"?><svg id="icons" xmlns="http://www.w3.org/2000/svg" viewBox="0 0 24 24"><defs><style>.cls-1{fill:none;}</style></defs><rect class="cls-1" width="24" height="24"/><path d="M3.00066,7.49999c0-3.03223,2.46777-5.5,5.5-5.5,2.51172,0,4.63135,1.69525,5.28668,4h-1.06311c-.62122-1.74219-2.27063-3-4.22357-3-2.48145,0-4.5,2.01855-4.5,4.5,0,2.26074,1.68091,4.1189,3.85547,4.43488l-.47498.94995c-2.49731-.51868-4.38049-2.73615-4.38049-5.38483ZM12,7v3.52509l1,.99988v-3.52496h8v8h-3.52441l1.00012,1h3.52429V7h-10ZM4.44098,21l5.422-10.84412,6.69073,6.69073-1.03833,4.15338H4.44098ZM11.82507,13.53217l3.01764,6.03534.60358-2.41412-3.62122-3.62122ZM6.05902,20h7.88196l-3.94098-7.88202-3.94098,7.88202Z"/></svg>