<svg xmlns="http://www.w3.org/2000/svg" viewBox="0 0 32 32"><path d="M16.622 28.474a9 9 0 0 0 .652.793c-.393.246-.795.489-1.218.725l-.556.31-.556-.31C4.17 23.98 3.471 14.685 4.208 6.384l.089-1.009 1-.052c5.327-.272 7.795-1.621 9.86-3.563l.343-.322.343.322c2.065 1.942 4.533 3.291 9.86 3.563l1 .052.089 1.01a36 36 0 0 1-.179 9.214 8 8 0 0 0-.98-.317 35 35 0 0 0 .163-8.809l-.013-.144-.13-.007c-5.347-.273-7.994-1.596-10.153-3.52-2.16 1.924-4.807 3.246-10.152 3.52l-.131.007-.013.144c-.709 7.98-.049 16.912 10.227 22.646l.069.038.07-.039c.372-.208.705-.428 1.052-.644M30.8 23.5a7.3 7.3 0 1 1-7.3-7.3 7.31 7.31 0 0 1 7.3 7.3m-1 0a6.3 6.3 0 1 0-6.3 6.3 6.307 6.307 0 0 0 6.3-6.3m-8.751-2.451a3.45 3.45 0 0 1 1.77-.948 3.4 3.4 0 0 1 1.004-.053l.094-.996a4.5 4.5 0 0 0-1.294.068 4.47 4.47 0 0 0-3.456 3.293l.97.242a3.45 3.45 0 0 1 .912-1.606m6.556.688-.92.394a3.45 3.45 0 0 1-.734 3.82 3.55 3.55 0 0 1-4.902 0l-.707.707a4.467 4.467 0 0 0 7.263-4.921"/><path fill="none" d="M0 0h32v32H0z"/></svg>