<svg xmlns="http://www.w3.org/2000/svg" viewBox="0 0 16 16"><path d="M0 0h16v16H0z" style="fill:none"/><path d="M4.5 13.625a.876.876 0 0 0 0 1.75.876.876 0 0 0 0-1.75m8 0a.876.876 0 0 0 0 1.75.876.876 0 0 0 0-1.75m-8.454-1.918a.166.166 0 0 0 .108.293H13v1H4.155a1.17 1.17 0 0 1-1.093-.76 1.17 1.17 0 0 1 .33-1.289l.572-.559L2.942 3.3a.17.17 0 0 0-.156-.144l-2.61-.12.048-.999 2.608.121c.557.026 1.02.446 1.1.998l.123.848L7 4.003V5H4.198l.728 5.052 8.154-.905L13.697 6h1.018l-.795 4.059-9.238 1.027zM15 3v1h-3v3h-1V4H8V3h3V0h1v3z"/></svg>