<svg xmlns="http://www.w3.org/2000/svg" viewBox="0 0 32 32"><path d="M0 0h32v32H0z" style="fill:none"/><path d="M7.01 27c0 1.103.887 2 1.99 2s2-.897 2-2-.897-2-2-2-1.99.897-1.99 2M9 26a1 1 0 1 1-.001 2.001A1 1 0 0 1 9 26m19.964-.741a1.6 1.6 0 0 0-.428-.794A1.6 1.6 0 0 0 27.415 24H7.541a.63.63 0 0 1-.57-.363.63.63 0 0 1 .094-.67 140 140 0 0 0 1.69-1.991l19.163-2.017L29.91 8H7.72l-.14-1.375a2.56 2.56 0 0 0-2.185-2.277L2.17 4.084l-.143.99 3.224.264c.71.101 1.259.673 1.333 1.389l1.397 13.62q-.337.404-1.676 1.97a1.63 1.63 0 0 0-.243 1.739c.266.573.846.944 1.478.944L9 24.99h18.415c.068 0 .133.027.196.05A1.994 1.994 0 0 0 26.01 27c0 1.103.887 2 1.99 2s2-.897 2-2c0-.751-.422-1.4-1.036-1.741M28 28a1 1 0 1 1 .001-2.001A1 1 0 0 1 28 28"/></svg>