<svg xmlns="http://www.w3.org/2000/svg" viewBox="0 0 24 24"><path d="M0 0h24v24H0z" style="fill:none"/><path d="M19.93 20.07A1.5 1.5 0 0 0 18.5 19H6.417a.5.5 0 0 1-.438-.259.5.5 0 0 1 .016-.509l.793-1.251 14.11-1.008L22.94 7H20v1h1.66l-1.557 7.027-13.188.942L5.521 8H13V7H5.345L5.06 5.371A1.51 1.51 0 0 0 3.753 4.14l-2.496-.086-.113.994 2.496.086a.5.5 0 0 1 .435.41l1.899 10.853-.824 1.301A1.498 1.498 0 0 0 6.417 20H18.5c.14 0 .265.058.356.15A1.5 1.5 0 0 0 18 21.5c0 .827.673 1.5 1.5 1.5s1.5-.673 1.5-1.5c0-.677-.453-1.244-1.07-1.43M19.5 22a.501.501 0 0 1 0-1 .501.501 0 0 1 0 1M5 21.5c0 .827.673 1.5 1.5 1.5S8 22.327 8 21.5 7.327 20 6.5 20 5 20.673 5 21.5m1.5-.5a.501.501 0 0 1 0 1 .501.501 0 0 1 0-1M21 4v1h-4v4h-1V5h-4V4h4V0h1v4z"/></svg>