<svg xmlns="http://www.w3.org/2000/svg" viewBox="0 0 24 24"><path d="M0 0h24v24H0z" style="fill:none"/><path d="M5 20.5c0 .827.673 1.5 1.5 1.5S8 21.327 8 20.5 7.327 19 6.5 19 5 19.673 5 20.5m1.5-.5a.501.501 0 0 1 0 1 .501.501 0 0 1 0-1m13.43-.93A1.5 1.5 0 0 0 18.5 18H6.417a.5.5 0 0 1-.438-.259.5.5 0 0 1 .016-.509l.793-1.251 14.11-1.008L22.94 6H5.345L5.06 4.371a1.515 1.515 0 0 0-1.346-1.235L1.218 3.05l-.035 1 2.457.083a.5.5 0 0 1 .435.41l1.899 10.853-.824 1.301A1.498 1.498 0 0 0 6.417 19H18.5c.14 0 .265.058.356.15A1.5 1.5 0 0 0 18 20.5c0 .827.673 1.5 1.5 1.5s1.5-.673 1.5-1.5c0-.677-.453-1.244-1.07-1.43M19.5 21a.501.501 0 0 1 0-1 .501.501 0 0 1 0 1"/></svg>