<svg xmlns="http://www.w3.org/2000/svg" viewBox="0 0 16 16"><path d="M1 3h9a1 1 0 0 0 1-1V1a1 1 0 0 0-1-1H1a1 1 0 0 0-1 1v1a1 1 0 0 0 1 1m0-2h9l.001 1H1zm4 4H3V4h2zm3 0H6V4h2zM1 4h1v1H1v1h1v1H1a1 1 0 0 1-1-1V5a1 1 0 0 1 1-1m9 2V5H9V4h1a1 1 0 0 1 1 1v1a1 1 0 0 1-1 1H9V6zM6 6h2v1H6zM5 7H3V6h2zM3 8h2v1H3zM1 8h1v1H1v1h1v1H1a1 1 0 0 1-1-1V9a1 1 0 0 1 1-1m2 2h1.25c-.14.161-.24.284-.281.338l-.214.276a1.5 1.5 0 0 0-.207.386H3zm12.862 1.256c-.096-.123-2.381-3.01-5.362-3.01s-5.191 2.888-5.286 3.011L5 11.533l.214.276c.095.123 2.305 3.011 5.286 3.011s5.266-2.887 5.362-3.01l.138-.177v-.2zM10.5 14.022c-2.1 0-3.854-1.774-4.5-2.489.646-.714 2.4-2.488 4.5-2.488s3.924 1.773 4.575 2.49c-.649.715-2.467 2.487-4.575 2.487m1.508-2.489a1.503 1.503 0 1 1-1.5-1.408 1.46 1.46 0 0 1 1.5 1.408"/><path fill="none" d="M0 0h16v16H0z"/></svg>