<svg xmlns="http://www.w3.org/2000/svg" viewBox="0 0 32 32"><path fill="none" d="M0 0h32v32H0z"/><path d="M9.737 16.444 6.793 13.5 18.5 1.793 30.207 13.5l-7.542 7.542q-.33-.335-.72-.695l6.848-6.847L18.5 3.207 8.207 13.5l2.694 2.694q-.595.096-1.164.25M18.5 11 16 13.5l2.5 2.5 2.5-2.5zm-5.964 10.05h-.072c-1.905.035-3.434 1.568-3.414 3.43v.076c0 1.862 1.546 3.378 3.449 3.394 1.905-.016 3.45-1.532 3.45-3.394v-.076c.02-1.862-1.508-3.395-3.413-3.43M22.78 24.2c-.185-.254-4.51-6.033-10.172-6.156h-.155C6.791 18.166 2.405 23.945 2.22 24.2l-.22.3.224.299c.187.252 4.632 6.084 10.296 6.147h.022c5.663-.063 10.047-5.895 10.234-6.147L23 24.5zm-.874.301c-.991 1.202-4.816 5.49-9.368 5.545h-.014c-4.553-.054-8.439-4.343-9.43-5.545l.004-.006-.005-.006c.98-1.211 4.822-5.442 9.374-5.544h.128c4.551.102 8.333 4.333 9.312 5.544l-.005.006.005.006z"/></svg>