<?xml version="1.0" encoding="UTF-8"?><svg id="icons" xmlns="http://www.w3.org/2000/svg" viewBox="0 0 24 24"><defs><style>.cls-1{fill:none;}</style></defs><path d="M23.20703,10.5l-6.11743,6.11743c-.16479-.19421-.39551-.45099-.67517-.73889l5.37854-5.37854L13.5,2.20703,5.20703,10.5l1.6604,1.6604c-.38623.07385-.76312.16827-1.12781.28625l-1.94666-1.94666L13.5.79297l9.70703,9.70703ZM13.46777,8.07129l-2.39648,2.39648,2.46094,2.46094,2.39648-2.39746-2.46094-2.45996ZM8.48943,16.10001c-1.32373,0-2.38943,1.07672-2.38943,2.40002s1.06569,2.39996,2.38943,2.39996,2.40002-1.07672,2.40002-2.39996-1.07623-2.40002-2.40002-2.40002ZM15.79596,18.19531l.23438.30469-.23438.30469c-.13184.17139-3.27246,4.19531-7.33789,4.19531-4.06055,0-7.3125-4.01709-7.44922-4.18799l-.24902-.31201.24902-.31201c.13672-.1709,3.38867-4.18799,7.44922-4.18799,4.06543,0,7.20605,4.02393,7.33789,4.19531ZM14.92938,18.50049c-.81464-.92865-3.4212-3.60052-6.46979-3.60052-3.04553,0-5.72943,2.66284-6.57922,3.60004.84979.93713,3.53369,3.59998,6.57922,3.59998,3.0556,0,5.65717-2.67035,6.46979-3.59949Z"/><rect class="cls-1" width="24" height="24"/></svg>