<svg xmlns="http://www.w3.org/2000/svg" viewBox="0 0 32 32"><path d="M3.5 8h17A1.502 1.502 0 0 0 22 6.5v-2A1.502 1.502 0 0 0 20.5 3h-17A1.502 1.502 0 0 0 2 4.5v2A1.502 1.502 0 0 0 3.5 8zM3 4.5a.5.5 0 0 1 .5-.5h17a.5.5 0 0 1 .5.5v2a.5.5 0 0 1-.5.5h-17a.5.5 0 0 1-.5-.5zM3.5 15h17a1.502 1.502 0 0 0 1.5-1.5v-2a1.502 1.502 0 0 0-1.5-1.5h-17A1.502 1.502 0 0 0 2 11.5v2A1.502 1.502 0 0 0 3.5 15zM3 11.5a.5.5 0 0 1 .5-.5h17a.5.5 0 0 1 .5.5v2a.5.5 0 0 1-.5.5h-17a.5.5 0 0 1-.5-.5zm.5 9.5h5.938c-.472.54-.758.917-.818 1H3.5A1.502 1.502 0 0 1 2 20.5v-2A1.502 1.502 0 0 1 3.5 17h10.663c-.528.318-1.027.653-1.49 1H3.5a.5.5 0 0 0-.5.5v2a.5.5 0 0 0 .5.5zm20.45 2.48v.076a3.45 3.45 0 0 1-6.9 0v-.076a3.44 3.44 0 0 1 3.414-3.43h.072a3.44 3.44 0 0 1 3.414 3.43zm6.83-.281c-.185-.254-4.51-6.033-10.172-6.156h-.155c-5.662.123-10.048 5.902-10.233 6.156L10 23.5l.224.299c.187.252 4.632 6.084 10.296 6.147h.022c5.663-.063 10.047-5.895 10.234-6.147L31 23.5zm-.873.301c-.992 1.202-4.817 5.49-9.37 5.545h-.013c-4.553-.054-8.439-4.343-9.43-5.545l.004-.006-.004-.006c.979-1.211 4.821-5.442 9.373-5.544h.128c4.551.102 8.333 4.333 9.312 5.544l-.005.006z"/><path fill="none" d="M0 0h32v32H0z"/></svg>