<?xml version="1.0" encoding="UTF-8"?><svg id="icons" xmlns="http://www.w3.org/2000/svg" viewBox="0 0 32 32"><defs><style>.cls-1{fill:none;}</style></defs><path d="M9.71747,26.35095c-3.52948-.63074-5.71747-1.78711-5.71747-2.86169v-7.98645c1.65271,1.2843,5.15601,2.07965,8.89282,2.33289.4494-.32367.93103-.63513,1.43579-.93036-6.42841-.18451-10.32861-1.85889-10.32861-3.08014v-5.22882c2.03448,1.50452,6.87335,2.30402,11.5,2.30402s9.46552-.7995,11.5-2.30402v5.22882c0,.60571-.96924,1.32166-2.71997,1.9137.45734.164.89563.35742,1.32379.56299.54797-.24078,1.02045-.50714,1.39618-.79907v1.56055c.3468.2113.68048.42871,1,.65363V7c0-2.5332-6.44043-3.90039-12.5-3.90039S3,4.4668,3,7v16.48926c0,2.10083,3.57983,3.47992,7.91168,4.04651-.46069-.42566-.86096-.82745-1.19421-1.18481ZM15.5,4.09961c7.125,0,11.5,1.68945,11.5,2.90039s-4.375,2.90039-11.5,2.90039-11.5-1.68945-11.5-2.90039,4.375-2.90039,11.5-2.90039ZM23.94983,23.47968c-.00018.0127-.00037.02533-.00067.03796.00018.01263.00024.02527.00024.03796,0,1.86206-1.5451,3.37854-3.45074,3.39441-1.90295-.01587-3.44806-1.53235-3.44806-3.39441,0-.0127.00006-.02533.00024-.03796-.00031-.01263-.00049-.02527-.00067-.03796-.02008-1.86194,1.50854-3.39423,3.41394-3.42963.01196-.00012.05981-.00012.07178,0,1.9054.0354,3.43402,1.56769,3.41394,3.42963ZM30.77954,23.19879c-.18475-.25397-4.50903-6.03314-10.17145-6.15546-.02582-.00024-.12897-.00024-.15479,0-5.66241.12231-10.0481,5.90149-10.23285,6.15546l-.22046.30121.22363.29883c.18744.25201,4.63263,6.08405,10.29602,6.14679.00366,0,.00739,0,.01105-.00006.00372.00006.00739.00006.01105.00006,5.66339-.06274,10.04718-5.89478,10.23462-6.14679l.22363-.29883-.22046-.30121ZM29.90649,23.5c-.99164,1.20154-4.81635,5.49072-9.36865,5.54504h-.01428c-4.55231-.05432-8.43842-4.34351-9.43005-5.54504.00159-.00195.00317-.00385.00476-.0058-.00159-.00189-.00323-.00385-.00482-.00574.97894-1.21191,4.82178-5.44244,9.37323-5.54468.02136-.00012.04272-.00018.06403-.00018s.04266.00006.06403.00018c4.55145.10223,8.33289,4.33276,9.31183,5.54468-.00159.00189-.00323.00385-.00482.00574.00159.00195.00317.00385.00476.0058Z"/><rect class="cls-1" width="32" height="32"/></svg>