<svg xmlns="http://www.w3.org/2000/svg" viewBox="0 0 16 16"><path d="M4.794 8.294 3 6.5 9.5 0 16 6.5l-4.723 4.723a11 11 0 0 0-.493-.507L15 6.5 9.5 1 4 6.5l1.761 1.761c-.087-.004-.172-.015-.261-.015-.24 0-.475.019-.706.048M9.5 5 8 6.5 9.5 8 11 6.5zM0 12.633l.138.177c.096.123 2.381 3.01 5.362 3.01s5.251-2.888 5.346-3.01l.214-.277-.214-.276c-.095-.123-2.365-3.01-5.346-3.01S.234 12.132.138 12.256L0 12.432zm4-.1c0 .777.665 1.409 1.492 1.409s1.5-.632 1.5-1.409-.673-1.408-1.5-1.408S4 11.756 4 12.533m-3.075.001c.65-.716 2.474-2.49 4.575-2.49s3.914 1.775 4.559 2.49c-.645.714-2.458 2.488-4.559 2.488-2.108 0-3.926-1.772-4.575-2.488"/><path fill="none" d="M0 0h16v16H0z"/></svg>