<svg xmlns="http://www.w3.org/2000/svg" viewBox="0 0 16 16"><path d="M10 0H1a1 1 0 0 0-1 1v1a1 1 0 0 0 1 1h9a1 1 0 0 0 1-1V1a1 1 0 0 0-1-1m0 2H1V1h9zm-6.452 9H1a1 1 0 0 1-1-1V9a1 1 0 0 1 1-1h5.558a10.6 10.6 0 0 0-1.316 1H1v1h3.25c-.14.161-.24.284-.281.338l-.214.276a1.5 1.5 0 0 0-.207.386M16 11.433l-.138-.177c-.096-.123-2.381-3.01-5.362-3.01s-5.251 2.888-5.346 3.011l-.214.276.214.276c.095.123 2.365 3.011 5.346 3.011s5.266-2.887 5.362-3.01l.138-.177zm-5.492-1.308a1.411 1.411 0 1 0 1.5 1.408 1.46 1.46 0 0 0-1.5-1.408m-.008 3.897c-2.1 0-3.914-1.774-4.559-2.489.645-.714 2.458-2.488 4.559-2.488s3.924 1.773 4.575 2.49c-.649.715-2.467 2.487-4.575 2.487m0-7.275c.046 0 .09.006.137.007A.99.99 0 0 0 11 6V5a1 1 0 0 0-1-1H1a1 1 0 0 0-1 1v1a1 1 0 0 0 1 1h7.742a6.5 6.5 0 0 1 1.758-.253M1 5h9l.001 1H1z"/><path fill="none" d="M0 0h16v16H0z"/></svg>