<svg xmlns="http://www.w3.org/2000/svg" viewBox="0 0 16 16"><path d="M15 4h-4V3h4.5a.5.5 0 0 1 .5.5v4a.5.5 0 0 1-.5.5h-1.056a8.2 8.2 0 0 0-2.188-1H15zM5.879 4l-1-1H2.5a.5.5 0 0 0-.5.5v4a.5.5 0 0 0 .5.5h4.058a8.2 8.2 0 0 1 2.184-1H3V4zM5.61 2.318 8.293 5H6v1h4V2H9v2.293L6.318 1.611A5.46 5.46 0 0 0 2.428 0H0v1h2.429A4.47 4.47 0 0 1 5.61 2.318M5.167 14H3v-3h.548a1.5 1.5 0 0 1 .207-.386l.214-.276c.042-.054.14-.177.28-.338H2.5a.5.5 0 0 0-.5.5v4a.5.5 0 0 0 .5.5h3.952a11 11 0 0 1-1.285-1M16 11.633l-.138.177c-.096.123-2.381 3.01-5.362 3.01s-5.251-2.888-5.346-3.01l-.214-.277.214-.276c.095-.123 2.365-3.01 5.346-3.01s5.266 2.886 5.362 3.01l.138.176zm-3.992-.1a1.503 1.503 0 1 1-1.5-1.408 1.46 1.46 0 0 1 1.5 1.408m3.067.001c-.65-.716-2.474-2.49-4.575-2.49s-3.914 1.775-4.559 2.49c.645.714 2.458 2.488 4.559 2.488 2.108 0 3.926-1.772 4.575-2.488"/><path fill="none" d="M0 0h16v16H0z"/></svg>