<?xml version="1.0" encoding="UTF-8"?><svg id="icons" xmlns="http://www.w3.org/2000/svg" viewBox="0 0 16 16"><defs><style>.cls-1{fill:none;}</style></defs><path d="M4.79358,8.29358l-1.79358-1.79358L9.5,0l6.5,6.5-4.72314,4.72314c-.13123-.14465-.29651-.31683-.49304-.50696l4.21619-4.21619L9.5,1l-5.5,5.5,1.76105,1.76105c-.08728-.00409-.17249-.01495-.26105-.01495-.24066,0-.47534.01886-.70642.04749ZM9.5,5l-1.5,1.5,1.5,1.5,1.5-1.5-1.5-1.5ZM0,12.63322l.13818.17694c.0957.12289,2.38086,3.00985,5.36182,3.00985,2.98145,0,5.25098-2.88788,5.3457-3.01077l.21387-.27604-.21387-.27604c-.09473-.12289-2.36426-3.01077-5.3457-3.01077C2.51904,9.24639.23389,12.13336.13818,12.25625L0,12.43318v.20004ZM4,12.5332c0,.77677.66455,1.40863,1.4917,1.40863s1.5-.63187,1.5-1.40863-.67285-1.40863-1.5-1.40863-1.4917.63187-1.4917,1.40863ZM.92511,12.53418c.65057-.71647,2.474-2.48958,4.57538-2.48958,2.10034,0,3.91339,1.77409,4.55829,2.48861-.6449.71446-2.45795,2.48855-4.55829,2.48855-2.10809,0-3.92688-1.77214-4.57538-2.48757Z"/><rect class="cls-1" width="16" height="16"/></svg>