<svg xmlns="http://www.w3.org/2000/svg" viewBox="0 0 24 24"><path d="M2 5h15a1.001 1.001 0 0 0 1-1V2a1.001 1.001 0 0 0-1-1H2a1.001 1.001 0 0 0-1 1v2a1.001 1.001 0 0 0 1 1zm0-3h15l.001 2H2zm0 9h15a1.001 1.001 0 0 0 1-1V8a1.001 1.001 0 0 0-1-1H2a1.001 1.001 0 0 0-1 1v2a1.001 1.001 0 0 0 1 1zm0-3h15l.001 2H2zm3.843 9H2a1.001 1.001 0 0 1-1-1v-2a1.001 1.001 0 0 1 1-1h7.66a15.522 15.522 0 0 0-1.299 1H2v2h4.398l-.202.252a1.963 1.963 0 0 0-.353.748zm9.615 5c-4.06 0-7.072-4.017-7.209-4.188L8 17.5l.249-.312c.137-.17 3.149-4.188 7.21-4.188 4.065 0 7.175 4.024 7.307 4.195L23 17.5l-.234.305c-.132.171-3.242 4.195-7.308 4.195zm-6.337-4.5c.85.937 3.293 3.6 6.339 3.6 3.055 0 5.626-2.67 6.439-3.6-.815-.928-3.39-3.6-6.44-3.6-3.045 0-5.489 2.663-6.338 3.6zm6.379 2.4a2.4 2.4 0 1 1 2.4-2.4 2.403 2.403 0 0 1-2.4 2.4z"/><path fill="none" d="M0 0h24v24H0z"/></svg>