<?xml version="1.0" encoding="UTF-8"?><svg id="icons" xmlns="http://www.w3.org/2000/svg" viewBox="0 0 24 24"><defs><style>.cls-1{fill:none;}</style></defs><path d="M7.87689,19.68103c-3.08496-.43439-4.87689-1.37469-4.87689-2.10193v-6.24854c1.51105,1.0105,4.54187,1.56818,7.67749,1.65228.63593-.39807,1.33936-.74951,2.09967-1.01251-.41333.0174-.83575.02966-1.27716.02966-5.18848,0-8.5-1.27441-8.5-2.15234v-3.43622c1.64313,1.04572,5.08203,1.58856,8.5,1.58856s6.85687-.54285,8.5-1.58856v3.43622c0,.55371-1.31952,1.26447-3.59406,1.71436.70654.08643,1.37598.26776,2.00757.50647.62524-.2113,1.16602-.45673,1.58649-.73792v1.49274c.35425.20599.6861.42474,1,.64954V5c0-1.96973-4.7793-3-9.5-3S2,3.03027,2,5v12.5791c0,1.81183,3.25977,2.90778,7.0531,3.23553-.45892-.39685-.85284-.78638-1.17621-1.13361ZM11.5,3c5.5,0,8.5,1.32129,8.5,2s-3,2-8.5,2S3,5.67871,3,5s3-2,8.5-2ZM22.76562,17.19531c-.13184-.17139-3.24213-4.19531-7.30756-4.19531-4.06055,0-7.07233,4.01709-7.20905,4.18799l-.24902.31201.24902.31201c.13672.1709,3.1485,4.18799,7.20905,4.18799,4.06543,0,7.17572-4.02393,7.30756-4.19531l.23438-.30469-.23438-.30469ZM15.45959,21.09998c-3.04553,0-5.48932-2.66284-6.33905-3.59998.84973-.93719,3.29352-3.60004,6.33905-3.60004,3.04852,0,5.62482,2.67188,6.43939,3.60052-.81256.92914-3.38385,3.59949-6.43939,3.59949ZM17.99,17.5c0,1.37842-1.11109,2.5-2.49,2.5s-2.5-1.12158-2.5-2.5,1.12109-2.5,2.5-2.5,2.49,1.12158,2.49,2.5Z"/><rect class="cls-1" width="24" height="24"/></svg>