<?xml version="1.0" encoding="UTF-8"?><svg id="icons" xmlns="http://www.w3.org/2000/svg" viewBox="0 0 16 16"><defs><style>.cls-1{fill:none;}</style></defs><rect class="cls-1" width="16" height="16"/><path d="M4.63446,12.7439c-1.79987-.32422-2.63446-.9101-2.63446-1.2644v-3.57306c.88507.53986,2.32098.9007,4.12238,1.02332.43512-.3374.93964-.67188,1.50153-.95428-.04382.00024-.07947.00403-.1239.00403-3.83887,0-5.5-.99316-5.5-1.5v-1.57306c1.10126.67175,3.04523,1.07306,5.5,1.07306s4.39874-.40131,5.5-1.07306v1.57306c0,.245-.39838.6026-1.23291.90778.82947.18164,1.57971.5238,2.23291.92084V3.47949c0-1.49512-2.6123-2.47949-6.5-2.47949S1,1.98438,1,3.47949v8c0,1.27032,1.88995,2.18408,4.84155,2.43097-.5462-.45404-.95782-.88409-1.20709-1.16656ZM7.5,1.97949c3.83887,0,5.5.99316,5.5,1.5s-1.66113,1.5-5.5,1.5-5.5-.99316-5.5-1.5,1.66113-1.5,5.5-1.5ZM11.99,11.5c0,.77673-.6294,1.40863-1.4521,1.40863s-1.49194-.6319-1.49194-1.40863c0-.77679.66925-1.40863,1.49194-1.40863s1.4521.63184,1.4521,1.40863ZM10.5,8.2464c-3.03754,0-5.5,3.2536-5.5,3.2536,0,0,2.46246,3.25378,5.5,3.25378s5.5-3.25378,5.5-3.25378c0,0-2.46246-3.2536-5.5-3.2536ZM10.5,13.9541c-1.93752,0-3.67871-1.62012-4.44727-2.4541.76855-.83398,2.50974-2.45361,4.44727-2.45361,1.93604,0,3.6767,1.61719,4.44623,2.45166-.77393.83496-2.52435,2.45605-4.44623,2.45605Z"/></svg>