<?xml version="1.0" encoding="UTF-8"?><svg id="icons" xmlns="http://www.w3.org/2000/svg" viewBox="0 0 16 16"><defs><style>.cls-1{fill:none;}</style></defs><path d="M4.79083,11.9162c-.25214-.27264-.40466-.46521-.42853-.49628l-.2135-.27576-.13934.13934c-.29749-.17572-.63977-.28351-1.00946-.28351v-6c1.10254,0,2-.89746,2-2h6c0,.36969.10779.71198.28351,1.00946l-2.50305,2.50305c.52808-.15967,1.08881-.25958,1.6781-.26404l1.53198-1.53198c.29749.17572.63977.28351,1.00946.28351,1.10254,0,2-.89746,2-2s-.89746-2-2-2c-.73669,0-1.37469.40521-1.72168,1h-6.55664c-.34698-.59479-.98499-1-1.72168-1-1.10254,0-1.98999.89746-1.98999,2,0,.73669.3952,1.37469.98999,1.72168v6.55664c-.59479.34698-1,.98499-1,1.72168,0,1.10254.89746,2,2,2s2-.89746,2-2c0-.36969-.10779-.71198-.28351-1.00946l.07434-.07434ZM12,2.5c0-.27618.22388-.5.5-.5h1c.27612,0,.5.22382.5.5v1c0,.27612-.22388.5-.5.5h-1c-.27612,0-.5-.22388-.5-.5v-1ZM11.99,10.5332c0,.77673-.65455,1.40863-1.4817,1.40863s-1.5-.6319-1.5-1.40863c0-.77679.67285-1.40863,1.5-1.40863s1.4817.63183,1.4817,1.40863ZM15.86182,10.25623c-.0957-.12286-2.38086-3.00983-5.36182-3.00983-2.98145,0-5.25098,2.88788-5.3457,3.01074l-.21387.27606.21387.276c.09473.12292,2.36426,3.0108,5.3457,3.0108,2.98096,0,5.26611-2.88696,5.36182-3.00989l.13818-.17694v-.20001l-.13818-.17694ZM10.49951,13.02173c-2.10034,0-3.91339-1.77411-4.55829-2.48853.6449-.71454,2.45795-2.48865,4.55829-2.48865,2.10138,0,3.9248,1.77313,4.57538,2.48962-.6485.71539-2.46729,2.48755-4.57538,2.48755Z"/><rect class="cls-1" width="16" height="16"/></svg>