<?xml version="1.0" encoding="UTF-8"?><svg id="icons" xmlns="http://www.w3.org/2000/svg" viewBox="0 0 32 32"><defs><style>.cls-1{fill:none;}</style></defs><path d="M10.41119,22.29584c-.26233-.27246-.4856-.51813-.67725-.73682l-1.14764,1.14764c-.45685-.34222-.99628-.57056-1.5863-.65613v-12.10107c1.52692-.22137,2.72809-1.42255,2.94946-2.94946h12.10107c.08557.59003.3139,1.12946.65613,1.5863l-3.01666,3.01666c.2428-.02325.48309-.05463.7309-.06h.1875c.1745.00378.34235.02887.51422.04144l2.29108-2.29108c.58435.43774,1.30176.70667,2.0863.70667,1.92969,0,3.49-1.57031,3.49-3.5s-1.56031-3.5-3.49-3.5c-1.75848,0-3.20422,1.30835-3.44946,3h-12.10107c-.24524-1.69165-1.69098-3-3.44946-3-1.92969,0-3.5,1.57031-3.5,3.5,0,1.75848,1.30835,3.20422,3,3.44946v12.10107c-1.69165.24524-3,1.69098-3,3.44946,0,1.92969,1.57031,3.5,3.5,3.5s3.49-1.57031,3.49-3.5c0-.78455-.25892-1.50195-.69667-2.0863l1.11786-1.11786ZM25.5,4c1.37891,0,2.5,1.12109,2.5,2.5s-1.12109,2.5-2.5,2.5-2.5-1.12109-2.5-2.5,1.12109-2.5,2.5-2.5ZM23.94983,19.47968c-.00018.0127-.00037.02533-.00067.03796.00018.01263.00024.02527.00024.03796,0,1.86206-1.5451,3.37854-3.45074,3.39441-1.90295-.01587-3.44806-1.53235-3.44806-3.39441,0-.0127.00006-.02533.00024-.03796-.00031-.01263-.00049-.02527-.00067-.03796-.02008-1.86194,1.50854-3.39423,3.41394-3.42963.01196-.00012.05981-.00012.07178,0,1.9054.0354,3.43402,1.56769,3.41394,3.42963ZM31,19.5l-.22363.29883c-.18744.25201-4.57123,6.08405-10.23462,6.14679-.00366,0-.00732,0-.01105-.00006-.00366.00006-.00739.00006-.01105.00006-5.66339-.06274-10.10858-5.89478-10.29602-6.14679l-.22363-.29883.22046-.30121c.18475-.25397,4.57043-6.03314,10.23285-6.15546.02582-.00024.12897-.00024.15479,0,5.66241.12231,9.98669,5.90149,10.17145,6.15546l.22046.30121ZM29.90173,19.4942c.00159-.00189.00323-.00385.00482-.00574-.97894-1.21191-4.76038-5.44244-9.31183-5.54468-.02136-.00012-.04272-.00018-.06403-.00018s-.04266.00006-.06403.00018c-4.55145.10223-8.39429,4.33276-9.37323,5.54468.00159.00189.00323.00385.00482.00574-.00159.00195-.00317.00385-.00476.0058.99164,1.20154,4.87775,5.49072,9.43005,5.54504h.01428c4.55231-.05432,8.37701-4.34351,9.36865-5.54504-.00159-.00195-.00317-.00385-.00476-.0058Z"/><rect class="cls-1" width="32" height="32"/></svg>