<?xml version="1.0" encoding="UTF-8"?><svg id="icons" xmlns="http://www.w3.org/2000/svg" viewBox="0 0 24 24"><defs><style>.cls-1{fill:none;}</style></defs><path d="M7.85785,16.85834c-.28442-.28027-.51904-.5296-.6911-.72302l-.42688.42725c-.45544-.32648-.99127-.52411-1.56409-.55768-.05963-.00372-.1167.00659-.17578.00635v-8.01123c1.30194,0,2.40161-.8385,2.81573-2h8.36859c.09369.26276.21655.50989.37573.73322l-1.8042,1.80591c.23169-.02106.46442-.03912.70215-.03912.24121,0,.47662.01819.71082.03949l1.09827-1.0993c.49048.34937,1.08618.55981,1.73291.55981,1.6543,0,2.99-1.3457,2.99-3s-1.3357-3-2.99-3-3,1.3457-3,3h-8c0-1.6543-1.3457-3-3-3s-3,1.3457-3,3c0,1.30194.8385,2.40155,2,2.81567v8.35345c-.36133.12836-.69751.32629-.99316.58868-.59961.53223-.95508,1.2666-1.00195,2.06641s.21973,1.57031.75293,2.16895c.53223.59961,1.2666.95508,2.06641,1.00195.06055.00391.12011.00488.17967.00488.73537,0,1.43557-.26562,1.98928-.75781.59961-.53223.95508-1.2666,1.00195-2.06641.04028-.68695-.16333-1.34515-.55579-1.89856l.41852-.41888ZM19,3c1.10254,0,2,.89746,2,2s-.89746,2-2,2-2-.89746-2-2,.89746-2,2-2ZM17.99,14.5c0,1.37838-1.23678,2.5-2.56057,2.5s-2.37943-1.12162-2.37943-2.5,1.05569-2.5,2.37943-2.5,2.56057,1.12156,2.56057,2.5ZM22.79596,14.19531c-.13184-.17139-3.27246-4.19531-7.33789-4.19531-4.06055,0-7.3125,4.01709-7.44922,4.18799l-.24902.31201.24902.31201c.13672.1709,3.38867,4.18799,7.44922,4.18799,4.06543,0,7.20605-4.02393,7.33789-4.19531l.23438-.30469-.23438-.30469ZM15.45959,18.09998c-3.04553,0-5.72943-2.66284-6.57922-3.59998.84979-.93719,3.53369-3.60004,6.57922-3.60004,3.04858,0,5.65515,2.67188,6.46979,3.60052-.81262.92914-3.41418,3.59949-6.46979,3.59949Z"/><rect class="cls-1" width="24" height="24"/></svg>