<svg xmlns="http://www.w3.org/2000/svg" viewBox="0 0 24 24"><path d="m18.155 13.199 2.88-1.703-.928-.547.983-.582L23 11.495l-3.564 2.108a9 9 0 0 0-1.281-.404m-9.927 6.238-.25-.313a1 1 0 0 1-.192-.78l-4.82-2.85.927-.547-.983-.582L1 15.493l7.838 4.636a13 13 0 0 1-.61-.692M12.001 14 1 7.493 12 1l11 6.495zM2.966 7.494 12 12.838l9.033-5.342L12 2.161zm7.11 8.205-7.11-4.205.927-.547-.983-.582L1 11.493l8.3 4.91q.342-.335.775-.704zm13.694 3.106L24 18.5l-.23-.305C23.64 18.024 20.493 14 16.5 14c-3.989 0-7.121 4.017-7.255 4.188L9 18.5l.245.312C9.379 18.982 12.51 23 16.5 23c3.993 0 7.14-4.024 7.27-4.195M16.5 14.9c2.995 0 5.618 2.672 6.419 3.6-.799.93-3.418 3.6-6.419 3.6-2.992 0-5.565-2.663-6.4-3.6.835-.937 3.408-3.6 6.4-3.6m2.4 3.6a2.4 2.4 0 1 0-2.4 2.4 2.403 2.403 0 0 0 2.4-2.4"/><path fill="none" d="M0 0h24v24H0z"/></svg>