<svg xmlns="http://www.w3.org/2000/svg" viewBox="0 0 24 24"><path d="M24 8V7h-7V0h-1v7H8V0H7v7H0v1h7v7H0v1h7v8h1v-8h8v8h1v-8h7v-1h-7V8h7zm-8 7H8V8h8v7z" opacity=".25"/><path d="M22.9 11.5A2.403 2.403 0 0 0 21 9.154V5.846A2.403 2.403 0 0 0 22.9 3.5c0-1.323-1.076-2.4-2.4-2.4A2.403 2.403 0 0 0 18.154 3h-3.308c-.23-1.084-1.194-1.9-2.346-1.9s-2.115.816-2.346 1.9H5.846A2.403 2.403 0 0 0 3.5 1.1c-1.324 0-2.4 1.077-2.4 2.4s1.076 2.4 2.4 2.4A2.403 2.403 0 0 0 5.846 4h4.308c.054.251.153.483.279.698l-5.134 5.23A2.385 2.385 0 0 0 3.5 9.1a2.403 2.403 0 0 0-2.4 2.4c0 1.152.816 2.115 1.9 2.346v4.308A2.403 2.403 0 0 0 1.1 20.5c0 1.323 1.076 2.4 2.4 2.4A2.403 2.403 0 0 0 5.846 21h4.308c.23 1.084 1.194 1.9 2.346 1.9s2.115-.816 2.346-1.9h3.308a2.403 2.403 0 0 0 2.346 1.9c1.324 0 2.4-1.077 2.4-2.4a2.403 2.403 0 0 0-1.9-2.346v-4.308a2.403 2.403 0 0 0 1.9-2.346zm-3.64 6.956l-5.186-5.159c.502-.44.826-1.078.826-1.797 0-.462-.137-.89-.364-1.256l4.723-4.7c.227.138.474.245.741.302v3.308c-1.084.231-1.9 1.194-1.9 2.346s.816 2.115 1.9 2.346v4.308a2.374 2.374 0 0 0-.74.302zM11 12v-1a1 1 0 0 1 1-1h1a1 1 0 0 1 1 1v1a1 1 0 0 1-1 1h-1a1 1 0 0 1-1-1zm11-1v1a1 1 0 0 1-1 1h-1a1 1 0 0 1-1-1v-1a1 1 0 0 1 1-1h1a1 1 0 0 1 1 1zm-3-8a1 1 0 0 1 1-1h1a1 1 0 0 1 1 1v1a1 1 0 0 1-1 1h-1a1 1 0 0 1-1-1V3zm-8 0a1 1 0 0 1 1-1h1a1 1 0 0 1 1 1v1a1 1 0 0 1-1 1h-1a1 1 0 0 1-1-1V3zM4 5H3a1 1 0 0 1-1-1V3a1 1 0 0 1 1-1h1a1 1 0 0 1 1 1v1a1 1 0 0 1-1 1zm7.063.41c.402.304.896.49 1.437.49A2.403 2.403 0 0 0 14.846 4h3.308c.067.316.197.608.376.864L13.864 9.53A2.383 2.383 0 0 0 12.5 9.1a2.403 2.403 0 0 0-2.4 2.4c0 .507.16.976.43 1.364L4.864 18.53A2.384 2.384 0 0 0 4 18.154v-4.308A2.403 2.403 0 0 0 5.9 11.5c0-.258-.052-.502-.127-.736l5.29-5.353zM2 12v-1a1 1 0 0 1 1-1h1a1 1 0 0 1 1 1v1a1 1 0 0 1-1 1H3a1 1 0 0 1-1-1zm3 9a1 1 0 0 1-1 1H3a1 1 0 0 1-1-1v-1a1 1 0 0 1 1-1h1a1 1 0 0 1 1 1v1zm9 0a1 1 0 0 1-1 1h-1a1 1 0 0 1-1-1v-1a1 1 0 0 1 1-1h1a1 1 0 0 1 1 1v1zm-1.5-2.9a2.403 2.403 0 0 0-2.346 1.9H5.846a2.384 2.384 0 0 0-.337-.806l5.667-5.695c.38.252.834.401 1.324.401.276 0 .537-.056.784-.142l5.293 5.32c-.2.27-.35.58-.423.922h-3.308a2.403 2.403 0 0 0-2.346-1.9zM22 20v1a1 1 0 0 1-1 1h-1a1 1 0 0 1-1-1v-1a1 1 0 0 1 1-1h1a1 1 0 0 1 1 1z"/><path fill="none" d="M0 0h24v24H0z"/></svg>