<?xml version="1.0" encoding="UTF-8"?><svg id="icons" xmlns="http://www.w3.org/2000/svg" viewBox="0 0 16 16"><defs><style>.cls-1{fill:none;}</style></defs><rect class="cls-1" width="16" height="16"/><path d="M13,4h-1v-2h1v.99994h1v1h-1v.00006ZM9.04999,3.5C9.04999,1.59412,10.5946.04999,12.5.04999s3.45001,1.54413,3.45001,3.45001c0,1.90491-1.54462,3.45001-3.45001,3.45001s-3.45001-1.5451-3.45001-3.45001ZM10,3.5c0,1.37909,1.12134,2.50043,2.5,2.50043s2.5-1.12134,2.5-2.50043-1.12134-2.50049-2.5-2.50049-2.5,1.1214-2.5,2.50049ZM10.9079,14h4.0921v1h-4.0921c-.20709.58075-.7569,1-1.4079,1s-1.20081-.41925-1.4079-1h-3.1842c-.20709.58075-.7569,1-1.4079,1s-1.20081-.41925-1.4079-1h-1.0921v-1h1.0921c.15106-.42358.48431-.75684.9079-.9079v-1.43994l-1.13464-1.70239c-.11761.02972-.23865.05023-.36536.05023-.82715,0-1.5-.67285-1.5-1.5s.67285-1.5,1.5-1.5,1.5.67285,1.5,1.5c0,.33624-.11523.64362-.30273.89404l.88086,1.3208,1.5722-1.5722c-.09357-.19556-.15033-.41174-.15033-.64264,0-.82715.67285-1.5,1.5-1.5s1.5.67285,1.5,1.5c0,.2309-.05676.44708-.15033.64264l1.5722,1.5722.88086-1.3208c-.1875-.25043-.30273-.5578-.30273-.89404,0-.82715.67285-1.5,1.5-1.5s1.5.67285,1.5,1.5-.67285,1.5-1.5,1.5c-.12671,0-.24774-.02051-.36536-.05023l-1.13464,1.70239v1.43994c.42358.15106.75684.48431.9079.9079ZM11,9h1v-1h-1v1ZM2,8h-1v1h1v-1ZM6,9h1v-1h-1v1ZM9,11.70703l-1.85736-1.85736c-.19556.09357-.41174.15033-.64264.15033s-.44708-.05676-.64264-.15033l-1.85736,1.85736v1.38507c.42358.15106.75684.48431.9079.9079h3.1842c.15106-.42358.48431-.75684.9079-.9079v-1.38507Z"/></svg>