<?xml version="1.0" encoding="UTF-8"?><svg id="icons" xmlns="http://www.w3.org/2000/svg" viewBox="0 0 32 32"><defs><style>.cls-1{fill:none;}</style></defs><path d="M23.45001,2.04999c-3.56226,0-6.45001,2.88776-6.45001,6.45001s2.88776,6.45001,6.45001,6.45001,6.45001-2.88782,6.45001-6.45001-2.88782-6.45001-6.45001-6.45001ZM23.5,14c-3.0329,0-5.5-2.46716-5.5-5.5s2.4671-5.5,5.5-5.5,5.5,2.4671,5.5,5.5-2.4671,5.5-5.5,5.5ZM24,8h3v1h-4v-5h1v4ZM18.94946,27c-.19934-.97833-.97113-1.75012-1.94946-1.94946v-2.34351l2.12341-2.12341c.39526.26196.86774.41638,1.37659.41638,1.37891,0,2.49-1.12109,2.49-2.5s-1.11109-2.5-2.49-2.5-2.5,1.12109-2.5,2.5c0,.50885.15442.98132.41638,1.37659l-1.91638,1.91638-1.91638-1.91638c.26196-.39526.41638-.86774.41638-1.37659,0-1.37891-1.12109-2.5-2.5-2.5s-2.5,1.12109-2.5,2.5c0,.50885.15442.98132.41638,1.37659l-1.91638,1.91638-1.91638-1.91638c.26196-.39526.41638-.86774.41638-1.37659,0-1.37891-1.12109-2.5-2.5-2.5s-2.5,1.12109-2.5,2.5,1.12109,2.5,2.5,2.5c.50885,0,.98132-.15442,1.37659-.41638l2.12341,2.12341v2.34351c-.97833.19934-1.75012.97113-1.94946,1.94946H2v1h4.05054c.23224,1.13995,1.24182,2,2.44946,2s2.21722-.86005,2.44946-2h3.10107c.23224,1.13995,1.24182,2,2.44946,2s2.21722-.86005,2.44946-2h11.05054v-1h-11.05054ZM19,18c0-.55231.44769-1,1-1h1c.55231,0,1,.44769,1,1v1c0,.55225-.44769,1-1,1h-1c-.55231,0-1-.44775-1-1v-1ZM6,19c0,.55225-.44769,1-1,1h-1c-.55231,0-1-.44775-1-1v-1c0-.55231.44769-1,1-1h1c.55231,0,1,.44769,1,1v1ZM11,18c0-.55231.44769-1,1-1h1c.55231,0,1,.44769,1,1v1c0,.55225-.44769,1-1,1h-1c-.55231,0-1-.44775-1-1v-1ZM16,25.05054c-.97833.19934-1.75012.97113-1.94946,1.94946h-3.10107c-.19934-.97833-.97113-1.75012-1.94946-1.94946v-2.34351l2.12341-2.12341c.39526.26196.86774.41638,1.37659.41638s.98132-.15442,1.37659-.41638l2.12341,2.12341v2.34351Z"/><rect class="cls-1" width="32" height="32"/></svg>