<?xml version="1.0" encoding="UTF-8"?><svg id="icons" xmlns="http://www.w3.org/2000/svg" viewBox="0 0 24 24"><defs><style>.cls-1{fill:none;}</style></defs><path d="M14.72168,20c-.34698-.59479-.98499-1-1.72168-1v-.79297l2.33075-2.33075c.21027.07532.43341.12372.66925.12372,1.10254,0,2-.89746,2-2s-.89746-2-2-2-1.99.89746-1.99,2c0,.49847.18.9494.48292,1.30005l-1.99292,1.99292-1.99292-1.99292c.30292-.35065.49292-.80157.49292-1.30005,0-1.10254-.89746-2-2-2s-1.99.89746-1.99,2c0,.36969.09779.71198.27351,1.00946l-1.78351,1.78351-1.78351-1.78351c.17572-.29749.28351-.63977.28351-1.00946,0-1.10254-.89746-2-2-2S.01,12.89746.01,14s.88746,2,1.99,2c.36969,0,.71198-.10779,1.00946-.28351l1.99054,1.99054v1.57129c-.29938.17462-.54706.4223-.72168.72168H1v1h3c0,1.10254.89746,2,2,2s2-.89746,2-2h3c0,1.10254.89746,2,2,2s2-.89746,2-2h8v-1h-8.27832ZM15,13.5c0-.27618.22388-.5.5-.5h1c.27612,0,.5.22382.5.5v1c0,.27612-.22388.5-.5.5h-1c-.27612,0-.5-.22388-.5-.5v-1ZM3,14.5c0,.27612-.22388.5-.5.5h-1c-.27612,0-.5-.22388-.5-.5v-1c0-.27618.22388-.5.5-.5h1c.27612,0,.5.22382.5.5v1ZM8,13.5c0-.27618.22388-.5.5-.5h1c.27612,0,.5.22382.5.5v1c0,.27612-.22388.5-.5.5h-1c-.27612,0-.5-.22388-.5-.5v-1ZM12,19.27832c-.29938.17462-.54706.4223-.72168.72168h-3.55664c-.34698-.59479-.98499-1-1.72168-1v-1.29297l1.99054-1.99054c.29749.17572.63977.28351,1.00946.28351.23584,0,.45898-.0484.66925-.12372l2.33075,2.33075v1.07129ZM18,1c-2.76141,0-4.99,2.23859-4.99,5s2.22859,5,4.99,5,5-2.23859,5-5-2.23859-5-5-5ZM18,10c-2.20917,0-4-1.79089-4-4s1.79083-4,4-4,4,1.79083,4,4-1.79083,4-4,4ZM18,6h2v1h-3V3h1v3Z"/><rect class="cls-1" width="24" height="24"/></svg>