<svg xmlns="http://www.w3.org/2000/svg" viewBox="0 0 24 24"><path d="M17.425 7.73C16.505 3.752 14.395 1.2 12 1.2A10.8 10.8 0 1 0 22.8 12c0-1.818-2.003-3.403-5.375-4.27M21.8 12c0 1.367-1.949 2.72-4.955 3.447a22.7 22.7 0 0 1-8.73.22l1.3-1.014A13.6 13.6 0 0 0 12.5 15a13.7 13.7 0 0 0 2.98-.316C17.683 14.183 19 13.18 19 12c0-1.07-1.091-1.99-2.936-2.526l1.018-.793C19.951 9.403 21.8 10.693 21.8 12m-11 0q.002-.47.028-.915c.117-2.133.68-4.285 1.672-4.285.788 0 1.3 1.36 1.538 2.984L10.809 12.3c-.002-.1-.01-.197-.01-.3zm5.4 0c0 .73-1.54 1.014-2.201 1.103a11.5 11.5 0 0 1-1.499.097c-.38 0-.753-.036-1.125-.073l2.823-2.2c.728.114 2.002.408 2.002 1.073m.237-4.085-.777.606C15.1 5.743 13.918 4 12.5 4c-1.618 0-2.938 2.254-3.365 5.743A19 19 0 0 0 9 12c0 .556.033 1.105.08 1.647l-1.817 1.416a17.9 17.9 0 0 1 .129-6.782c.78-3.637 2.633-6.08 4.608-6.08 1.874 0 3.633 2.283 4.437 5.714M12 21.8A9.796 9.796 0 0 1 8.936 2.698 11.35 11.35 0 0 0 6.414 8.07a19.4 19.4 0 0 0 0 7.967.5.5 0 0 0 .371.38 22.3 22.3 0 0 0 5.148.582 22.3 22.3 0 0 0 5.147-.582 10.65 10.65 0 0 0 4.408-2.011A9.81 9.81 0 0 1 12 21.8"/><path fill="none" d="M0 0h24v24H0z"/></svg>