<svg xmlns="http://www.w3.org/2000/svg" viewBox="0 0 16 16"><path d="M12.777 5.508C12.208 2.138 10.38 0 7.997 0l-.032.002a8 8 0 1 0 7.986 8.863A2 2 0 0 0 16 8.453c0-.048-.013-.092-.016-.139C15.988 8.21 16 8.105 16 8c0-1.137-1.084-1.974-3.223-2.491zm-4.81-4.506L7.999 1a2.7 2.7 0 0 1 .692.092c.081.022.156.06.235.089a3 3 0 0 1 .405.171 3 3 0 0 1 .273.18 3 3 0 0 1 .308.231 4 4 0 0 1 .28.278q.121.127.235.27.143.18.274.382a6 6 0 0 1 .428.78c.04.087.076.18.113.27.082.2.162.404.23.622.022.07.04.145.06.216.072.25.142.505.196.777.064.316.121.638.159.98l-1.124.612C10.504 4.609 9.554 2.6 8.425 2.6 6.551 2.6 5.8 6.84 6.091 9.494l-1.977 1.077A20 20 0 0 1 4.03 9.48C4.01 9.097 4 8.732 4 8.456 4 4.02 5.776 1.03 7.967 1.002M7.332 8.82l-.093.05c-.15-1.033.329-4.27 1.295-4.27.583 0 1.111 1.976 1.244 2.887L7.247 8.865zM8 15A6.994 6.994 0 0 1 4.835 1.767 11.26 11.26 0 0 0 3 8.456c0 .545.038 1.475.12 2.225l.003.01v.01c.002.018.01.033.014.05a1 1 0 0 0 .06.208q.021.044.045.087a1.2 1.2 0 0 0 .383.394l.026.018a1 1 0 0 0 .215.08l.012.005A17.8 17.8 0 0 0 7.994 12h.007a16 16 0 0 0 5.289-.809 7 7 0 0 0 1.197-.563A7.01 7.01 0 0 1 8 15m6.964-6.289C14.604 9.994 11.619 10.998 8 11a18 18 0 0 1-2.309-.148L7.813 9.7c.205.01.4.028.614.027 2.32 0 4.573-.662 4.573-1.505 0-.31-.385-.596-.925-.837l1.14-.62q.05.019.097.039a7 7 0 0 1 .448.213q.054.027.105.056a2.4 2.4 0 0 1 1.01.928h.011a1 1 0 0 1 .098.326l-.002.025a1 1 0 0 1 .018.101 1 1 0 0 1-.036.26z"/><path fill="none" d="M0 0h16v16H0z"/></svg>