<svg xmlns="http://www.w3.org/2000/svg" viewBox="0 0 24 24"><path d="M20.5 19.1a2.403 2.403 0 0 0-2.346 1.9H16l-2.617-6.273A2.4 2.4 0 0 0 14.9 12.5a2.395 2.395 0 0 0-1.71-2.287L15.382 4h2.771A2.403 2.403 0 0 0 20.5 5.9c1.323 0 2.4-1.076 2.4-2.4s-1.077-2.4-2.4-2.4A2.403 2.403 0 0 0 18.154 3h-3.537l-2.477 7.136c-.987.15-1.78.896-1.986 1.864H6.95c-.246-1.692-1.69-3-3.45-3C1.57 9 0 10.57 0 12.5S1.57 16 3.5 16c1.758 0 3.204-1.308 3.45-3h3.204a2.397 2.397 0 0 0 2.186 1.884L15.233 22h2.921a2.403 2.403 0 0 0 2.346 1.9c1.323 0 2.4-1.076 2.4-2.4s-1.077-2.4-2.4-2.4zM19 3a1 1 0 0 1 1-1h1a1 1 0 0 1 1 1v1a1 1 0 0 1-1 1h-1a1 1 0 0 1-1-1V3zM3.5 15C2.122 15 1 13.879 1 12.5S2.122 10 3.5 10 6 11.121 6 12.5 4.878 15 3.5 15zm7.5-2v-1a1 1 0 0 1 1-1h1a1 1 0 0 1 1 1v1a1 1 0 0 1-1 1h-1a1 1 0 0 1-1-1zm11 9a1 1 0 0 1-1 1h-1a1 1 0 0 1-1-1v-1a1 1 0 0 1 1-1h1a1 1 0 0 1 1 1v1z"/><path fill="none" d="M0 0h24v24H0z"/></svg>