<svg xmlns="http://www.w3.org/2000/svg" viewBox="0 0 32 32"><path d="M17 26.5a2.5 2.5 0 1 1-2.5-2.5 2.5 2.5 0 0 1 2.5 2.5M27.5 6H27a1 1 0 0 1-1-1 2 2 0 0 0-2-2h-8a2 2 0 0 0-2 2 1 1 0 0 1-1 1h-2V5H6v1H4.5A2.503 2.503 0 0 0 2 8.5v3.262a4.5 4.5 0 0 1 1-.486V8.5A1.5 1.5 0 0 1 4.5 7H7V6h3v1h3a2 2 0 0 0 2-2 1 1 0 0 1 1-1h8a1 1 0 0 1 1 1 2 2 0 0 0 2 2h.5A1.5 1.5 0 0 1 29 8.5v12a1.5 1.5 0 0 1-1.5 1.5h-9.848a5.6 5.6 0 0 1 1.087 1H27.5a2.503 2.503 0 0 0 2.5-2.5v-12A2.503 2.503 0 0 0 27.5 6m-13.3 8a5.8 5.8 0 1 1 5.8 5.8 5.806 5.806 0 0 1-5.8-5.8m1 0A4.8 4.8 0 1 0 20 9.2a4.805 4.805 0 0 0-4.8 4.8M11 9.5V9H6v1h5zm8 17a4.488 4.488 0 0 1-8.95.5h-2.1A3.492 3.492 0 1 1 4 23.05v-4.1a3.506 3.506 0 1 1 3.67-1.987l3.33 3.33V19h1v3H9v-1h1.293l-3.186-3.186A3.47 3.47 0 0 1 5 18.95v4.1A3.48 3.48 0 0 1 7.95 26h2.1a4.488 4.488 0 0 1 8.95.5M4.5 18A2.5 2.5 0 1 0 2 15.5 2.503 2.503 0 0 0 4.5 18M7 26.5A2.5 2.5 0 1 0 4.5 29 2.503 2.503 0 0 0 7 26.5m11 0a3.5 3.5 0 1 0-3.5 3.5 3.504 3.504 0 0 0 3.5-3.5"/><path fill="none" d="M0 0h32v32H0z"/></svg>