<svg xmlns="http://www.w3.org/2000/svg" viewBox="0 0 16 16"><path d="M8 15.8A7.8 7.8 0 1 0 .2 8 7.8 7.8 0 0 0 8 15.8M8 1.2A6.8 6.8 0 1 1 1.2 8 6.81 6.81 0 0 1 8 1.2m0 11.772a5.07 5.07 0 0 1-4.412-2.48l.86-.51A4.07 4.07 0 0 0 8 11.971a4.07 4.07 0 0 0 3.551-1.99l.86.51A5.07 5.07 0 0 1 8 12.971zm2.07-5.298a1.1 1.1 0 0 1-.32-.315 1.4 1.4 0 0 1-.189-.41 1.7 1.7 0 0 1 0-.897 1.4 1.4 0 0 1 .188-.41 1.1 1.1 0 0 1 .321-.316.8.8 0 0 1 .86 0 1.1 1.1 0 0 1 .32.315 1.4 1.4 0 0 1 .189.41 1.7 1.7 0 0 1 0 .897 1.4 1.4 0 0 1-.188.41 1.1 1.1 0 0 1-.321.316.8.8 0 0 1-.86 0M5.5 7.8a.8.8 0 0 1-.43-.126 1.1 1.1 0 0 1-.32-.315 1.4 1.4 0 0 1-.189-.41 1.7 1.7 0 0 1 0-.897 1.4 1.4 0 0 1 .188-.41 1.1 1.1 0 0 1 .321-.316.8.8 0 0 1 .86 0 1.1 1.1 0 0 1 .32.315 1.4 1.4 0 0 1 .189.41 1.7 1.7 0 0 1 0 .897 1.4 1.4 0 0 1-.188.41 1.1 1.1 0 0 1-.321.316.8.8 0 0 1-.43.126"/><path fill="none" d="M0 0h16v16H0z"/></svg>