<svg xmlns="http://www.w3.org/2000/svg" viewBox="0 0 32 32"><path d="M16 29.8A13.8 13.8 0 1 1 29.8 16 13.815 13.815 0 0 1 16 29.8m0-26.6A12.8 12.8 0 1 0 28.8 16 12.815 12.815 0 0 0 16 3.2m-4.5 10.6a1.2 1.2 0 0 0 .608-.168 1.5 1.5 0 0 0 .464-.43 2 2 0 0 0 .278-.572 2.23 2.23 0 0 0 0-1.26 2 2 0 0 0-.278-.571 1.5 1.5 0 0 0-.464-.431 1.19 1.19 0 0 0-1.216 0 1.5 1.5 0 0 0-.464.43 2 2 0 0 0-.277.572 2.23 2.23 0 0 0 0 1.26 2 2 0 0 0 .277.571 1.5 1.5 0 0 0 .464.431 1.2 1.2 0 0 0 .608.168m9.608-.168a1.5 1.5 0 0 0 .464-.43 2 2 0 0 0 .278-.572 2.23 2.23 0 0 0 0-1.26 2 2 0 0 0-.278-.571 1.5 1.5 0 0 0-.464-.431 1.19 1.19 0 0 0-1.216 0 1.5 1.5 0 0 0-.464.43 2 2 0 0 0-.277.572 2.23 2.23 0 0 0 0 1.26 2 2 0 0 0 .277.571 1.5 1.5 0 0 0 .464.431 1.19 1.19 0 0 0 1.216 0m3.223 5.743-.926-.379a7.86 7.86 0 0 1-7.39 4.976h-.032a7.86 7.86 0 0 1-7.388-4.976l-.926.379a8.85 8.85 0 0 0 8.313 5.597h.035a8.85 8.85 0 0 0 8.314-5.597"/><path fill="none" d="M0 0h32v32H0z"/></svg>