<?xml version="1.0" encoding="UTF-8"?><svg id="icons" xmlns="http://www.w3.org/2000/svg" viewBox="0 0 24 24"><defs><style>.cls-1{fill:none;}</style></defs><path d="M12,2C6.48633,2,2,6.48633,2,12s4.48633,10,10,10,10-4.48633,10-10S17.51367,2,12,2ZM19.18359,7.77441c-.03528-.41797-.14087-.78882-.26019-1.09296.1449.02637.26562.05957.38916.09155.77405,1.07977,1.31256,2.33514,1.54724,3.69617-.10638.53558-.19446.86847-.29022,1.10809-.02386-.03912-.04126-.06689-.04419-.07141-.17285-.24707-1.04199-1.49023-1.23047-1.70801-.04846-.05634-.10744-.10767-.17078-.15393.12677-.43158.1424-.90314.05945-1.86951ZM14.7207,4.5752c.31445.11621,1.1123.42676,1.66895.77637.67676.42773,1.30371,1.11621,1.30664,1.11621.01953.02734.4248.60938.49119,1.3916.07912.9248.05177,1.25195-.02342,1.50488-.0127.0459-.04883.09668-.02539.08008-.21289.11816-2.1543,1.18848-2.33594,1.29492-.02637.01562-.05176.03125-.07812.04492-.37598-.27441-1.02539-.73926-1.29102-.87695-.20508-.10645-.56836-.34375-.84473-.52246-.15625-.10156-.28711-.18652-.35352-.22559-.0921-.05487-.19434-.09192-.29486-.12225-.02124-.26312-.05603-.67511-.09088-.99689-.04681-.44781-.28534-1.73389-.36835-2.16895.29077-.25775,1.11719-.82623,1.51874-1.03516.24902-.12891.55078-.21777.7207-.26074ZM12.50446,9.96057c.09198.01526.18555.03748.22113.05896.06152.03613.17871.1123.31934.2041.30273.19629.7041.45508.92871.57129.20306.10529.8988.60327,1.33691.92566.00378.03442.01044.06421.00293.11731-.12109,1.52448-.57904,2.61804-.79547,3.06165-.14911.04626-.39453.1001-.51605.12683l-.15332.03418c-.25.05371-2.07324.24219-2.53906.21289-.21191-.26465-.60156-1.22949-.75391-1.60742-.22528-.55566-.3902-1.03864-.5119-1.43195.25641-.2417.84839-.80084,1.18671-1.1286.2948-.28607.91125-.82831,1.27399-1.1449ZM10.53418,10.3877c-.3125.30273-.84863.80957-1.12598,1.07129-.35742-.05957-1.07227-.19336-1.70801-.41992-.61719-.21973-1.08301-.40332-1.33008-.50293-.07617-.22852-.20605-.68457-.30469-1.38379-.11133-.79102-.14453-1.39355-.1543-1.67578.2168-.25684.71777-.83105,1.30078-1.35645.56641-.50781,1.11035-.89355,1.36328-1.06543.26953.04102.82031.1377,1.45605.32617.85449.25293,1.23242.47754,1.44922.57422.00293.0166.32422,1.70801.375,2.19141.03418.31543.06836.71973.08887.97656-.34863.30273-1.08008.94434-1.41016,1.26465ZM6.04297,11.59277c.02991-.02332.06384-.04742.09735-.07178.27435.10895.69238.27014,1.22394.45947.62225.22192,1.28998.36176,1.71277.43665.112.44708.29498.98975.5509,1.6239.3089.76416.53864,1.28497.75293,1.63336-.33411.36865-.86633,1.03424-1.77081,2.25006-.04053-.00293-.07367-.00043-.12079-.01135-.16797-.04199-1.47949-.50977-2.68359-.94727-.28516-.40625-.83691-1.24121-1.01953-1.73242-.18555-.50098-.26074-1.27148-.28613-1.60547.14844-.21387.44531-.63965.76855-1.09375.44238-.62012.71094-.8916.77441-.94141ZM5.76074,18.18262c.02014-.04407.04291-.09637.06488-.14575.85779.31049,2.23822.80603,2.44098.85181.12897.0285.23962.03406.34491.03796.01166.02008.01489.03961.02814.05969.05566.08398.08594.13672.11816.19336.05762.10059.12012.20996.29492.46387.25024.3631.78699.93591.97382,1.13159-1.67499-.37659-3.17596-1.21661-4.35522-2.38458.02148-.0567.04877-.1192.08942-.20795ZM14.625,19.68555c-.18359.21777-.32812.38965-1.75977.5625-.8877.10547-1.61133.12305-1.71191.10352l-.3877-.25098c-.21484-.22461-.69727-.74609-.88867-1.02344-.14941-.2168-.20312-.31055-.25293-.39648-.03809-.06641-.07422-.12891-.14844-.24805.64362-.86127,1.39325-1.81616,1.72437-2.17584.0871.00659.17944.01178.28833.01178.92578,0,2.50879-.21582,2.58496-.2334l.14062-.03125c.15704-.03412.28748-.06494.40417-.09497l1.43018,1.75061c-.2121.66394-.99133,1.57977-1.21228,1.79456-.08301.08008-.14845.15723-.21094.23145ZM15.42773,15.31934c.2627-.54004.75-1.73438.87793-3.36914.01843-.12341.01593-.23883.00372-.34839.00073-.00043.0014-.00079.00214-.00122.15381-.09039,1.578-.87604,2.14789-1.19397.03284.0174.06885.03613.07965.04553.10645.12305.67969.92969,1.15527,1.60938.00391.00684.1377.21387.19727.35449.00098.00293.0752.37988-.28027,1.48242-.33984,1.06055-.67871,1.8457-.74805,1.94824-.20508.1748-1.52246,1.10156-1.75488,1.18652-.09082.0166-.17773.02832-.25293.03516l-1.42773-1.74902ZM13.51501,3.13776c.16876.19739.33105.40192.47418.61963-.1485.05359-.302.11481-.45013.19183-.18054.09326-1.10944.65411-1.64966,1.11877-.23438-.13727-.67633-.37964-1.57397-.64612-.47791-.14111-.90649-.23419-1.22711-.29388.04535-.23163.10602-.46442.17938-.70111.86237-.27551,1.77966-.42688,2.7323-.42688.51733,0,1.02136.05353,1.51501.13776ZM3.97717,7.94269c.25348-.03662.52502-.06342.85779-.09015l.09283-.00793c.02075.34723.06244.84357.1474,1.44739.10437.73859.23987,1.23871.33502,1.52856-.21588.17322-.56903.59143-.95612,1.13354-.23676.33228-.45782.64758-.61945.87946-.29218-.15948-.56787-.33502-.81873-.51917-.00366-.10522-.01593-.20825-.01593-.31439,0-1.46051.35724-2.83649.97717-4.05731ZM15.38696,20.33307c.00085-.00104.00183-.00195.00269-.00299.04297-.05078.08691-.10352.14258-.1582.01263-.01178,1.05524-1.07452,1.43439-2.11145.09967-.0097.20844-.02258.32635-.0448.29681-.0553,1.008-.53027,1.54767-.91467.01923.20721.02521.45239.02887.70093-.93292,1.10291-2.125,1.97736-3.48254,2.53119Z"/><rect class="cls-1" width="24" height="24"/></svg>