<svg xmlns="http://www.w3.org/2000/svg" viewBox="0 0 16 16"><path d="M7.982 1.005c-3.847 0-6.977 3.138-6.977 6.994 0 3.857 3.13 6.996 6.977 6.996 3.867 0 7.013-3.139 7.013-6.996 0-3.856-3.146-6.994-7.013-6.994m4.155 5.335-.326.178c-.616.332-.91.493-1.073.579-.45-.319-1.06-.7-1.527-.993l-.31-.195c-.019-.476-.098-1.235-.29-1.868a3.7 3.7 0 0 1 1.322-.635c1.734.612 2.192 1.236 2.204 2.934m-3.457.61c.479.3 1.1.691 1.525.997 0 .542-.332 1.507-.544 2.007-.374.12-1.395.214-1.973.192-.28-.382-.736-1.464-.89-1.96.523-.467.937-.781 1.244-1.011.176-.132.319-.24.443-.347zm1.92 5.163c-.118.273-.58.78-.933 1.038-.3.202-1.867.28-2.271.208-.335-.345-.563-.62-.703-.92.47-.709.783-1.122.935-1.297q.125.005.274.005c.569 0 1.368-.059 1.927-.205q0 .002.003.005c.134.256.327.608.768 1.166M7.443 6.375a18 18 0 0 0-1.358 1.104 8 8 0 0 1-1.788-.449c-.098-.35-.161-.978-.17-1.707A10 10 0 0 1 5.67 3.842a6.3 6.3 0 0 1 1.96.416c.182.546.263 1.315.274 1.75-.1.096-.265.22-.462.367zM5.84 8.45c.174.638.598 1.561.959 2.128-.209.249-.503.655-.925 1.293-.57-.024-1.425-.267-1.852-.49-.633-.87-.813-1.292-.869-2.086.261-.378.44-.662.578-.882.133-.21.214-.336.286-.425a9 9 0 0 0 1.823.462m-2.955-.57c-.096.153-.226.354-.377.58a2.8 2.8 0 0 1-.509-.525 6 6 0 0 1 .454-2.231c.176-.034.384-.025.684-.032.018.514.074 1.108.199 1.578-.154.166-.282.362-.451.63m1.108 4.578c.544.21 1.242.381 1.807.417.142.3.33.573.579.857-.026.008-.061.016-.09.024a6 6 0 0 1-2.296-1.292zm6.616-2.177c.2-.482.58-1.507.596-2.301.18-.095.487-.261 1.082-.584l.145-.078c.387.34.806 1.048.848 1.192 0 .47-.419 1.636-.548 1.918-.548.462-1.026.788-1.423.974-.34-.44-.48-.71-.59-.917zm3.364-2.66c-.01.012-.015.017-.024.03a4.6 4.6 0 0 0-.845-1.062 1.4 1.4 0 0 0 .024-.242c0-.667-.082-1.212-.245-1.683l.116.018c.57.855.922 1.864.988 2.95zM8.656 2.035c.127.11.326.302.529.567-.557.211-.98.487-1.254.704a7.3 7.3 0 0 0-1.758-.428c.08-.183.182-.38.286-.584l.055-.109c.47-.12.961-.19 1.468-.19q.342.001.674.04m-3.468.658c-.044.12-.096.24-.124.36-.507.356-1.227 1.078-1.678 1.603-.14.008-.263.01-.38.01a6 6 0 0 1 2.182-1.973m5.953 10.41c.182-.224.347-.472.435-.726.218-.089.56-.258 1.049-.602v.045a6 6 0 0 1-1.484 1.283"/><path fill="none" d="M0 0h16v16H0z"/></svg>