<?xml version="1.0" encoding="UTF-8"?><svg id="icons" xmlns="http://www.w3.org/2000/svg" viewBox="0 0 32 32"><defs><style>.cls-1{fill:none;}</style></defs><path d="M16.5,2c-7.44434,0-13.5,6.28027-13.5,13.99902,0,7.71973,6.05566,14.00098,13.5,14.00098s13.5-6.28125,13.5-14.00098c0-7.71875-6.05566-13.99902-13.5-13.99902ZM26.14899,7.74469c-.26886-.00092-.52295.0296-.76807.07642-.86102-1.02411-2.18311-1.77924-4.11554-2.45428-.39789-.71588-.90662-1.35895-1.41235-1.87793,2.49884.72546,4.6889,2.22791,6.29596,4.2558ZM8.89838,15.39197c1.29584.51477,2.56226.83661,4.17877,1.06317.27667,1.1828,1.33636,3.64496,2.13373,4.75336-.39819.43079-1.05914,1.30011-2.21289,3.05219-1.2547.00958-3.33929-.57422-4.29486-1.11224-1.4209-1.94043-1.80273-2.87109-1.9082-4.69922.56934-.81934.9502-1.42383,1.24023-1.88672.38733-.61523.5943-.93256.86322-1.17053ZM8.75195,10.4668c1.52832-1.84668,3.0166-2.98633,3.43164-3.28906.70605.01465,2.50879.13867,4.47559.95898.47363,1.25.6533,3.14941.6533,4.07227-.20604.25293-.58397.53613-1.12303.93945-.69141.5166-1.62697,1.21582-2.85742,2.33887-1.63086-.2207-2.86035-.53125-4.1416-1.04785-.30957-.85449-.42969-2.5498-.43848-3.97266ZM14.02722,16.21179c1.18024-1.07458,2.09192-1.76294,2.76086-2.26257.48444-.36267.84821-.63983,1.12274-.91968.21161.13403.44684.28192.71808.4519,1.03235.646,2.41626,1.51392,3.27563,2.14984.12506,1.33142-.86664,3.89258-1.20258,4.66284-.70435.33887-3.31696.58514-4.57208.48419-.72107-.79419-1.89453-3.70563-2.10266-4.56653ZM19.15918,12.63379c-.33472-.20929-.61353-.38495-.84979-.53607-.01355-.94763-.18463-2.80762-.67688-4.1889.56946-.47565,1.70331-1.26904,3.26007-1.61584,3.7666,1.30469,4.86133,2.75879,4.86133,6.40137,0,.22461-.0127.26465-.11523.35742l-.6709.3623c-1.73438.94043-2.27637,1.2334-2.5332,1.36328-.89648-.6543-2.25781-1.50684-3.27539-2.14355ZM14.0318,3.2569c.79834-.16699,1.62329-.2569,2.4682-.2569.48254,0,.95673.03534,1.42517.09094,0,0,1.42877,1.12,2.23297,2.36322-1.52148.44507-2.6322,1.23676-3.21277,1.72729-1.7569-.71436-3.37604-.927-4.29694-.98322.19391-.60657.57269-1.34607.94434-2.06934.15155-.29443.29938-.58655.43903-.87201ZM12.737,3.60443c-.01172.02277-.02216.04468-.03387.06744-.48645.94696-.9718,1.91565-1.12384,2.72644-.78253.51294-2.31909,1.90161-3.57245,3.40631-.38.03058-.72559.04718-1.03223.05963-.57062.02338-1.07117.05609-1.56976.17212,1.51672-3.03961,4.14697-5.38379,7.33215-6.43195ZM4.85748,11.30243c.67627-.37354,1.2395-.40192,2.15717-.43915.2276-.00885.47815-.02124.74207-.0376.01953,1.07318.112,2.76245.46021,3.8327-.36548.3302-.62836.73688-1.02747,1.37189-.25568.4054-.58948.93311-1.05457,1.61261-1.01599-.65179-1.83484-1.89551-2.10132-2.33295.07141-1.40668.35437-2.7533.82391-4.00751ZM7.4978,24.99628c-1.94025-2.09918-3.20715-4.86896-3.44635-7.94092.46863.57172,1.06873,1.16302,1.75824,1.55231.13678,2.03973.67389,3.17914,1.99927,5.00677-.16003.47668-.27197.93207-.31116,1.38184ZM8.65631,24.23871c1.16284.5285,3.00885,1.01282,4.28259,1.02686.32977.81592.86218,1.52386,1.61548,2.3222-.30151.2323-1.04089.58356-2.1169.69141-1.42802-.51221-2.74553-1.27344-3.88719-2.25452l.01514-.00415c-.16089-.58771-.09564-1.14563.09088-1.7818ZM16.5,29c-.70673,0-1.39532-.07587-2.07037-.19366.49036-.21844.80774-.46454.99731-.65863.37842.0675.92511.1062,1.5545.1062,1.35693,0,3.03461-.16821,3.90863-.55396.13452.07782.3147.16278.54584.2392-1.51544.6803-3.18323,1.06085-4.93591,1.06085ZM20.62793,26.70996c-.76465.55957-4.39453.66211-5.10254.45508-.85547-.87695-1.39941-1.54004-1.7041-2.33789,1.21387-1.84296,1.96167-2.79755,2.22614-3.05725.20923.01611.45355.02698.7475.02698,1.25696,0,3.10962-.15265,4.11017-.50659.06464.11029.12787.23114.20135.37183.27649.53058.65802,1.25372,1.6601,2.48523-.15033.75354-1.44519,2.05499-2.13861,2.56262ZM26.75,23.41913c-1.01941,1.51855-2.34399,2.79388-3.87805,3.74475-.45752-.01373-.79926-.07703-1.04712-.151.70734-.63794,1.68231-1.68964,1.90759-2.63177.4538-.16345,1.41724-.57379,3.01758-1.82623v.86426ZM26.86035,21.1748c-1.83594,1.55469-2.90234,2.05273-3.40137,2.24219-.88184-1.09668-1.2168-1.73926-1.4668-2.21777-.11133-.21289-.21191-.40625-.33691-.59668.35303-.83392,1.32642-3.32275,1.24213-4.93842.28052-.1427.8501-.45117,2.54694-1.37018l.45648-.2475c1.00043.67822,2.10107,2.56873,2.15778,2.97211,0,1.12207-.96875,3.7002-1.19824,4.15625ZM26.63928,13.34167c.08606-.19653.11462-.4043.11462-.64734,0-1.64178-.22223-2.91083-.75208-3.94049.28796-.01117.59595.01428.91504.07556,1.31061,2.05237,2.07886,4.50977,2.08228,7.15204-.06726.07983-.13348.1524-.19757.2168-.41772-.89862-1.2868-2.1673-2.16229-2.85657Z"/><rect class="cls-1" width="32" height="32"/></svg>