<?xml version="1.0" encoding="UTF-8"?><svg id="icons" xmlns="http://www.w3.org/2000/svg" viewBox="0 0 16 16"><defs><style>.cls-1{fill:none;}</style></defs><path d="M7.98242,1.00488C4.13477,1.00488,1.00488,4.14258,1.00488,7.99902c0,3.85742,3.12988,6.99609,6.97754,6.99609,3.86621,0,7.0127-3.13867,7.0127-6.99609,0-3.85645-3.14648-6.99414-7.0127-6.99414ZM12.13672,6.33984l-.32617.17773c-.61523.33203-.91016.49316-1.07227.5791-.4502-.31836-1.06055-.7002-1.52734-.99316-.11371-.07086-.21753-.13599-.31024-.19464-.01831-.47552-.09796-1.23523-.29059-1.86743.28156-.21277.7337-.49121,1.32251-.63519,1.73438.61133,2.19238,1.23535,2.2041,2.93359ZM8.67969,6.95117c.479.29993,1.10095.69122,1.52576.99646-.00122.54272-.33258,1.50769-.54431,2.00763-.37396.11926-1.39557.21411-1.97266.1922-.28015-.3822-.73633-1.46405-.89111-1.96014.52405-.46735.93799-.78156,1.24463-1.01154.1759-.13147.31873-.24011.44287-.34692.06354.03992.12415.07806.19482.12231ZM10.59979,12.11407c-.11786.27258-.57916.77991-.9328,1.03827-.2998.20215-1.86719.2793-2.27148.20801-.33496-.3457-.5625-.62012-.70215-.9209.46973-.70819.78223-1.12128.93445-1.29651.08301.00348.17474.00549.27454.00549.5686,0,1.36804-.05933,1.92645-.20563.0011.00208.00214.00336.00323.00543.13361.25592.32654.60785.76776,1.16583ZM7.44336,6.375c-.33301.24902-.77832.58203-1.3584,1.10449-.69238-.09961-1.23633-.23633-1.78809-.44922-.09766-.35059-.16113-.97852-.16992-1.70703.65723-.78027,1.28906-1.28906,1.54395-1.48145.3457.01465,1.12207.08594,1.95996.41602.18262.5459.2627,1.31543.27441,1.75-.09961.09668-.26562.2207-.46191.36719ZM5.83899,8.44989c.17438.63831.59802,1.5611.95862,2.12781-.20819.24908-.50281.65558-.92474,1.29285-.57056-.02325-1.42523-.26703-1.85236-.48969-.63281-.87012-.8125-1.29199-.86816-2.08594.26074-.37793.43945-.66211.57812-.88184.13269-.21094.21399-.33575.28516-.42505.56561.21216,1.13684.35693,1.82336.46185ZM2.88379,7.88086c-.09613.15204-.22571.35272-.37677.58008-.1781-.13904-.34821-.31299-.50867-.52576.0083-.78931.16809-1.54254.45349-2.23138.17651-.03387.38428-.02527.68408-.03186.01764.5144.07452,1.10846.1991,1.578-.15411.16638-.28241.36224-.45123.63092ZM3.99249,12.45831c.54352.20892,1.24121.38104,1.8067.41632.14136.29993.3299.57324.57886.85742-.02618.00842-.0611.01599-.09009.02417-.86316-.2561-1.64246-.70404-2.29572-1.29205.00031-.00201-.00006-.00385.00024-.00586ZM10.6084,10.28125c.19934-.48254.58014-1.50751.5957-2.30133.17902-.09491.48657-.26105,1.08203-.58344l.14441-.07819c.38727.34027.80621,1.04803.84875,1.19147,0,.46973-.41895,1.63574-.54785,1.91797-.54883.46191-1.02637.78809-1.42383.97461-.33887-.43945-.48047-.70996-.58887-.91699-.03906-.07422-.07422-.14062-.11035-.2041ZM13.97168,7.62109c-.00909.01239-.01459.01721-.02332.02899-.21967-.37738-.52502-.77332-.84583-1.06104.01562-.08191.02441-.16321.02441-.24237,0-.66626-.0824-1.21118-.2453-1.68292.03931.00696.078.01318.11652.01862.57068.85492.92169,1.86407.98804,2.9494l-.01453-.01068ZM8.65552,2.03503c.12701.10992.32672.30231.52911.56671-.55701.21155-.97925.487-1.25372.70428-.67151-.25604-1.29877-.37628-1.75775-.42761.08044-.18311.1814-.38086.28583-.58447l.05499-.10858c.47083-.11969.961-.19025,1.46844-.19025.22778,0,.45184.01526.6731.03992ZM5.18787,2.69318c-.04437.11987-.09637.24048-.12402.35895-.50708.35638-1.2265,1.07867-1.67822,1.60413-.13953.00775-.26239.00909-.38.01031.55164-.82568,1.30231-1.50549,2.18225-1.97339ZM11.14075,13.10315c.1825-.22406.34698-.4718.43567-.72614.21741-.08905.55988-.25775,1.04858-.60229v.04578c-.41907.50537-.92291.93597-1.48425,1.28265Z"/><rect class="cls-1" width="16" height="16"/></svg>