<svg xmlns="http://www.w3.org/2000/svg" viewBox="0 0 24 24"><path d="M11.193 4.452 5.67 9H2.376A1.376 1.376 0 0 0 1 10.376v3.248A1.376 1.376 0 0 0 2.376 15h3.293l5.524 4.548a.51.51 0 0 0 .807-.414V4.866a.51.51 0 0 0-.807-.414M11 18.088 6.028 14H2.375A.375.375 0 0 1 2 13.625v-3.25A.375.375 0 0 1 2.375 10h3.653L11 5.911zm4.47-12.744A9.98 9.98 0 0 1 18 11.987a9.85 9.85 0 0 1-2.566 6.646l-.74-.672A8.87 8.87 0 0 0 17 11.987a8.98 8.98 0 0 0-2.277-5.978zm3.46-3.933A15.82 15.82 0 0 1 23 11.989a15.95 15.95 0 0 1-4.035 10.576l-.735-.65A14.97 14.97 0 0 0 22 11.988a14.85 14.85 0 0 0-3.8-9.924z"/><path fill="none" d="M0 0h24v24H0z"/></svg>