<svg xmlns="http://www.w3.org/2000/svg" viewBox="0 0 32 32"><path d="M14.925 6.586 8.225 12h-4.39A1.834 1.834 0 0 0 2 13.834v4.332A1.834 1.834 0 0 0 3.834 20h4.391l6.7 5.414A.68.68 0 0 0 16 24.86V7.14a.68.68 0 0 0-1.075-.554M15 24.191 8.579 19H3.834A.835.835 0 0 1 3 18.166v-4.331A.836.836 0 0 1 3.834 13H8.58L15 7.81zm8-8.208a12.02 12.02 0 0 0-3.185-8.166l.717-.698A12.97 12.97 0 0 1 24 15.984a13.48 13.48 0 0 1-3.327 8.854l-.754-.657A12.48 12.48 0 0 0 23 15.983m2.514-13.042a21.25 21.25 0 0 1 0 26.118l-.753-.658a20.26 20.26 0 0 0 0-24.802z"/><path fill="none" d="M0 0h32v32H0z"/></svg>