<?xml version="1.0" encoding="UTF-8"?><svg id="icons" xmlns="http://www.w3.org/2000/svg" viewBox="0 0 32 32"><rect width="32" height="32" style="fill:none;"/><path d="M3,26v-6h8.26337c.05139-.33679.11322-.66937.17926-1H3v-6h26v1h.26367c.28571,0,.55011.12384.73633.3277V5H2v22h9.27106c-.04968-.3316-.09552-.66425-.13086-1H3ZM3,6h26v6H3v-6ZM26.62451,29h-1.24951l-3.875-5.16675-3.875,5.16675h-1.24951l4.49982-6.00018-4.49982-5.99982h1.24951l3.875,5.16675,3.875-5.16675h1.24951l-4.49976,5.99982,4.49976,6.00018ZM30.99744,23.54688c0,2.71924-.4552,5.26111-1.28149,7.45312h-1.05139c.85663-2.1521,1.35089-4.70703,1.35089-7.45312,0-3.22803-.68365-6.19403-1.8338-8.54688h1.08154c1.10474,2.41699,1.73425,5.36224,1.73425,8.54688ZM14.35693,31h-1.05139c-.82629-2.19202-1.2995-4.73389-1.2995-7.45312,0-3.18463.64752-6.12988,1.75226-8.54688h1.08154c-1.15015,2.35284-1.84277,5.31885-1.84277,8.54688,0,2.74609.50323,5.30103,1.35986,7.45312Z"/></svg>