<?xml version="1.0" encoding="UTF-8"?><svg id="icons" xmlns="http://www.w3.org/2000/svg" viewBox="0 0 16 16"><rect width="16" height="16" style="fill:none;"/><path d="M16,5V1H0v14h5.33185c-.08673-.32782-.15613-.66083-.20831-1H1v-3h4.12268c.05176-.33911.11542-.67365.20178-1H1v-4h14v1.49609h.02051c.36523,0,.70117.19922.87695.51953.03882.0708.06573.14899.10254.22107v-3.23669ZM1,5v-3h14v3H1ZM13.86969,8.49561h1.1507c.61505,1.12213.97455,2.50458.97455,4.00439,0,1.2785-.26038,2.47083-.71942,3.49121h-1.09991c.51727-.96967.82831-2.17792.82831-3.49121,0-1.55591-.43365-2.96747-1.13422-4.00439ZM6.72449,15.99121c-.45905-1.02039-.71942-2.21271-.71942-3.49121,0-1.49982.3595-2.88226.97455-4.00439h1.1507c-.70056,1.03693-1.13422,2.44849-1.13422,4.00439,0,1.31329.31104,2.52155.82831,3.49121h-1.09991ZM12.32703,15l-1.34473-1.69574-1.3443,1.69574h-1.276l1.98224-2.50037-1.98218-2.49963h1.27606l1.34399,1.69501,1.34375-1.69501h1.276l-1.98169,2.49969,1.9826,2.50031h-1.27576Z"/></svg>