<?xml version="1.0" encoding="UTF-8"?><svg id="icons" xmlns="http://www.w3.org/2000/svg" viewBox="0 0 32 32"><defs><style>.cls-1{fill:none;}</style></defs><path d="M7,28.94336v-5.94336h-.5c-1.92969,0-3.5-1.57031-3.5-3.5V7.5c0-1.92969,1.57031-3.5,3.5-3.5h20c1.92969,0,3.45,1.57031,3.45,3.5v11.94092c0,.63379-.075,1.18945-.32305,1.65137-.63965,1.19482-1.80859,1.90771-3.12695,1.90771h-11.17969l-8.32031,5.94336ZM6.5,5c-1.37891,0-2.5,1.12158-2.5,2.5v12c0,1.37842,1.12109,2.5,2.5,2.5h1.5v5l7-5h11.5c.94336,0,1.7832-.51562,2.24609-1.37988.16797-.31494.25391-.71191.25391-1.1792V7.5c0-1.37842-1.12109-2.5-2.5-2.5H6.5Z"/><rect class="cls-1" width="32" height="32"/></svg>