<?xml version="1.0" encoding="UTF-8"?><svg id="icons" xmlns="http://www.w3.org/2000/svg" viewBox="0 0 24 24"><defs><style>.cls-1{fill:none;}</style></defs><path d="M6,21.96338v-4.96338h-.75c-1.79199,0-3.25-1.45801-3.25-3.25V5.25c0-1.79199,1.45801-3.25,3.25-3.25h14.5c1.79199,0,3.2,1.45801,3.2,3.25v8.5c0,1.79199-1.40801,3.25-3.2,3.25h-6.92578l-6.82422,4.96338ZM5.25,3c-1.24023,0-2.25,1.00928-2.25,2.25v8.5c0,1.24072,1.00977,2.25,2.25,2.25h1.75v3.99951l5.5-3.99951h7.25c1.24023,0,2.25-1.00928,2.25-2.25V5.25c0-1.24072-1.00977-2.25-2.25-2.25H5.25Z"/><rect class="cls-1" width="24" height="24"/></svg>