<?xml version="1.0" encoding="UTF-8"?><svg id="icons" xmlns="http://www.w3.org/2000/svg" viewBox="0 0 16 16"><defs><style>.cls-1{fill:none;}</style></defs><path d="M13.49713,1H3.51184c-1.38446,0-2.51184,1.22742-2.51184,2.737v5.526c0,1.50952,1.12738,2.737,2.51184,2.737h.48816v4l4.95203-4h4.5451c1.40729,0,2.45288-1.22748,2.45288-2.737V3.737c0-1.50958-1.04559-2.737-2.45288-2.737ZM15,9.23425c0,.97339-.70642,1.76575-1.57556,1.76575h-4.82117l-3.60327,2.97314v-2.97314h-1.46222c-.84833,0-1.53778-.79688-1.53778-1.77588V3.76569c0-.97339.68994-1.76569,1.53876-1.76569h9.88568c.86914,0,1.57556.7923,1.57556,1.76569v5.46857Z"/><rect class="cls-1" width="16" height="16"/></svg>