<svg xmlns="http://www.w3.org/2000/svg" viewBox="0 0 32 32"><path d="M7 28.472V23H6c-1.654 0-3-1.346-3-3V8c0-1.654 1.346-3 3-3h20c1.654 0 2.95 1.346 2.95 3L29 20c0 .801-.313 1.554-.879 2.121A3.018 3.018 0 0 1 26 23H14.66L7 28.472zM6 6c-1.103 0-2 .897-2 2v12c0 1.103.897 2 2 2h2v4.528L14.34 22h11.659c.527 0 1.043-.213 1.415-.586.378-.378.586-.88.586-1.414V8c0-1.103-.897-2-2-2H6zm10 14.804l-5.838-5.787c-1.54-1.548-1.54-4.26-.003-5.806a3.924 3.924 0 0 1 2.8-1.167h.001c1.058 0 2.053.415 2.8 1.167l.24.24.24-.24a3.926 3.926 0 0 1 2.8-1.167h.001c1.058 0 2.053.415 2.8 1.167 1.538 1.545 1.538 4.258 0 5.804L16 20.805zm-3.04-11.76h-.001c-.79 0-1.532.31-2.09.872-1.166 1.17-1.166 3.223 0 4.394L16 19.396l5.135-5.089c1.162-1.168 1.162-3.221-.003-4.391a2.932 2.932 0 0 0-2.091-.872h-.001c-.79 0-1.532.31-2.092.872l-.948.953-.948-.953a2.932 2.932 0 0 0-2.092-.872z" stroke-width="0"/><path stroke-width="0" fill="none" d="M0 0h32v32H0z"/></svg>