<svg xmlns="http://www.w3.org/2000/svg" viewBox="0 0 24 24"><path d="M8.972 20h7.056l.3 1H8.672l.3-1z" opacity=".15"/><path d="M9.271 19h6.458l.299 1H8.972l.3-1z" opacity=".22"/><path d="M9.57 18h5.86l.299 1H9.27l.3-1z" opacity=".29"/><path d="M9.87 17h5.26l.3 1H9.57l.3-1z" opacity=".36"/><path d="M10.17 16h4.66l.3 1H9.87l.3-1z" opacity=".43"/><path d="M10.468 15h4.064l.299 1h-4.662l.3-1z" opacity=".5"/><path d="M10.768 14h3.464l.3 1h-4.064l.3-1z" opacity=".57"/><path d="M11.067 13h2.866l.3 1h-3.465l.299-1z" opacity=".63"/><path d="M11.366 12h2.268l.3 1h-2.867l.3-1z" opacity=".7"/><path d="M11.665 11h1.67l.299 1h-2.268l.3-1z" opacity=".77"/><path d="M11.965 10h1.07l.3 1h-1.67l.3-1z" opacity=".84"/><path d="M13.035 10h-1.07l.535-1.79.535 1.79z" opacity=".9"/><path d="M12.5 1.234L6.005 23h12.99L12.5 1.234zm0 3.489L17.67 22H7.33L12.5 4.723z"/><path fill="none" d="M0 0h24v24H0z"/></svg>