<?xml version="1.0" encoding="UTF-8"?><svg id="icons" xmlns="http://www.w3.org/2000/svg" viewBox="0 0 32 32"><defs><style>.cls-1{fill:none;}.cls-2{opacity:.75;}.cls-3{opacity:.72;}.cls-4{opacity:.69;}.cls-5{opacity:.45;}.cls-6{opacity:.42;}.cls-7{opacity:.39;}.cls-8{opacity:.36;}.cls-9{opacity:.66;}.cls-10{opacity:.63;}.cls-11{opacity:.6;}.cls-12{opacity:.57;}.cls-13{opacity:.54;}.cls-14{opacity:.51;}.cls-15{opacity:.48;}.cls-16{opacity:.21;}.cls-17{opacity:.18;}.cls-18{opacity:.33;}.cls-19{opacity:.3;}.cls-20{opacity:.27;}.cls-21{opacity:.24;}.cls-22{opacity:.15;}</style></defs><rect class="cls-1" width="32" height="32"/><path d="M8.16113,31L16.5,1l8.33887,30h-1.034l-7.30487-26.23242-7.30487,26.23242h-1.034Z"/><path class="cls-22" d="M22.48846,30l.27844,1h-12.53381l.27844-1h11.97693Z"/><path class="cls-3" d="M15.80249,11h1.39502l.2785,1h-1.95203l.2785-1Z"/><path class="cls-17" d="M22.20996,29l.2785,1h-11.97693l.2785-1h11.41992Z"/><path class="cls-16" d="M21.93152,28l.27844,1h-11.41992l.27844-1h10.86304Z"/><path class="cls-21" d="M21.65302,27l.2785,1h-10.86304l.2785-1h10.30603Z"/><path class="cls-20" d="M21.37457,26l.27844,1h-10.30603l.27844-1h9.74915Z"/><path class="cls-19" d="M21.09613,25l.27844,1h-9.74915l.27844-1h9.19226Z"/><path class="cls-18" d="M12.18237,24h8.63525l.2785,1h-9.19226l.2785-1Z"/><path class="cls-8" d="M12.46082,23h8.07837l.27844,1h-8.63525l.27844-1Z"/><path class="cls-7" d="M12.73932,22h7.52136l.2785,1h-8.07837l.2785-1Z"/><path class="cls-6" d="M13.01776,21h6.96448l.27844,1h-7.52136l.27844-1Z"/><path class="cls-5" d="M13.29626,20h6.40747l.2785,1h-6.96448l.2785-1Z"/><path class="cls-15" d="M13.57471,19h5.85059l.27844,1h-6.40747l.27844-1Z"/><path class="cls-14" d="M13.85321,18h5.29358l.2785,1h-5.85059l.2785-1Z"/><path class="cls-13" d="M14.13165,17h4.73669l.27844,1h-5.29358l.27844-1Z"/><path class="cls-12" d="M14.4101,16h4.17981l.27844,1h-4.73669l.27844-1Z"/><path class="cls-11" d="M14.6886,15h3.6228l.2785,1h-4.17981l.2785-1Z"/><path class="cls-10" d="M14.96704,14h3.06592l.27844,1h-3.6228l.27844-1Z"/><path class="cls-9" d="M15.24554,13h2.50891l.2785,1h-3.06592l.2785-1Z"/><path class="cls-4" d="M15.52399,12h1.95203l.27844,1h-2.50891l.27844-1Z"/><path class="cls-2" d="M17.19751,11h-1.39502l.69751-2.50488.69751,2.50488Z"/></svg>