<?xml version="1.0" encoding="UTF-8"?><svg id="icons" xmlns="http://www.w3.org/2000/svg" viewBox="0 0 24 24"><defs><style>.cls-1{fill:none;}.cls-2{opacity:.9;}.cls-3{opacity:.84;}.cls-4{opacity:.77;}.cls-5{opacity:.7;}.cls-6{opacity:.43;}.cls-7{opacity:.36;}.cls-8{opacity:.63;}.cls-9{opacity:.57;}.cls-10{opacity:.5;}.cls-11{opacity:.22;}.cls-12{opacity:.29;}.cls-13{opacity:.15;}</style></defs><path class="cls-13" d="M8.97211,20h7.05579l.29926,1h-7.6543l.29926-1Z"/><path class="cls-11" d="M9.27136,19h6.45728l.29926,1h-7.05579l.29926-1Z"/><path class="cls-12" d="M9.57062,18h5.85876l.29926,1h-6.45728l.29926-1Z"/><path class="cls-7" d="M9.86987,17h5.26025l.29926,1h-5.85876l.29926-1Z"/><path class="cls-6" d="M10.16913,16h4.66174l.29926,1h-5.26025l.29926-1Z"/><path class="cls-10" d="M10.46838,15h4.06323l.29926,1h-4.66174l.29926-1Z"/><path class="cls-9" d="M10.76764,14h3.46472l.29926,1h-4.06323l.29926-1Z"/><path class="cls-8" d="M11.06683,13h2.86633l.29919,1h-3.46472l.29919-1Z"/><path class="cls-5" d="M11.36609,12h2.26782l.29926,1h-2.86633l.29926-1Z"/><path class="cls-4" d="M11.66534,11h1.66931l.29926,1h-2.26782l.29926-1Z"/><path class="cls-3" d="M11.9646,10h1.0708l.29926,1h-1.66931l.29926-1Z"/><path class="cls-2" d="M13.0354,10h-1.0708l.5354-1.78906.5354,1.78906Z"/><path d="M12.5,1.23438l-6.49469,21.76562h12.98938L12.5,1.23438ZM12.5,4.72266l5.16992,17.27734H7.33008L12.5,4.72266Z"/><rect class="cls-1" x="0" width="24" height="24"/></svg>