<?xml version="1.0" encoding="UTF-8"?><svg id="icons" xmlns="http://www.w3.org/2000/svg" viewBox="0 0 24 24"><defs><style>.cls-1{fill:none;}.cls-2{opacity:.8;}.cls-3{opacity:.75;}.cls-4{opacity:.7;}.cls-5{opacity:.45;}.cls-6{opacity:.4;}.cls-7{opacity:.35;}.cls-8{opacity:.65;}.cls-9{opacity:.6;}.cls-10{opacity:.55;}.cls-11{opacity:.5;}.cls-12{opacity:.2;}.cls-13{opacity:.3;}.cls-14{opacity:.25;}.cls-15{opacity:.15;}</style></defs><rect class="cls-1" width="24" height="24"/><path class="cls-15" d="M16.6264,22l.29926,1h-8.85132l.29926-1h8.25281Z"/><path class="cls-12" d="M8.67285,21h7.6543l.29926,1h-8.25281l.29926-1Z"/><path class="cls-14" d="M8.97211,20h7.05579l.29926,1h-7.6543l.29926-1Z"/><path class="cls-13" d="M9.27136,19h6.45728l.29926,1h-7.05579l.29926-1Z"/><path class="cls-7" d="M9.57062,18h5.85876l.29926,1h-6.45728l.29926-1Z"/><path class="cls-6" d="M9.86987,17h5.26025l.29926,1h-5.85876l.29926-1Z"/><path class="cls-5" d="M10.16913,16h4.66174l.29926,1h-5.26025l.29926-1Z"/><path class="cls-11" d="M10.46838,15h4.06323l.29926,1h-4.66174l.29926-1Z"/><path class="cls-10" d="M10.76764,14h3.46472l.29926,1h-4.06323l.29926-1Z"/><path class="cls-9" d="M11.06683,13h2.86633l.29919,1h-3.46472l.29919-1Z"/><path class="cls-8" d="M11.36609,12h2.26782l.29926,1h-2.86633l.29926-1Z"/><path class="cls-4" d="M11.66534,11h1.66931l.29926,1h-2.26782l.29926-1Z"/><path class="cls-3" d="M11.9646,10h1.0708l.29926,1h-1.66931l.29926-1Z"/><path class="cls-2" d="M13.0354,10h-1.0708l.5354-1.78906.5354,1.78906Z"/><path d="M6.0053,23L12.5,1.23438l6.4947,21.76562h-1.02552L12.5,4.72266l-5.46918,18.27734h-1.02552Z"/></svg>