<?xml version="1.0" encoding="UTF-8"?><svg id="icons" xmlns="http://www.w3.org/2000/svg" viewBox="0 0 16 16"><defs><style>.cls-1{fill:none;}.cls-2{opacity:.85;}.cls-3{opacity:.8;}.cls-4{opacity:.7;}.cls-5{opacity:.4;}.cls-6{opacity:.6;}.cls-7{opacity:.5;}.cls-8{opacity:.2;}.cls-9{opacity:.3;}.cls-10{opacity:.1;}</style></defs><rect class="cls-1" width="16" height="16"/><path d="M4.05762,16h-1.05762L8.5,0l5.5,16h-1.05762L8.5,3.07617l-4.44238,12.92383Z"/><path class="cls-10" d="M11.54102,15l.34369,1h-6.76935l.34369-1h6.08197Z"/><path class="cls-8" d="M5.80273,14h5.39453l.34375,1h-6.08197l.34369-1Z"/><path class="cls-9" d="M6.14648,13h4.70709l.34369,1h-5.39453l.34375-1Z"/><path class="cls-5" d="M6.49017,12h4.01971l.34369,1h-4.70709l.34369-1Z"/><path class="cls-7" d="M6.83386,11h3.33234l.34369,1h-4.01971l.34369-1Z"/><path class="cls-6" d="M7.17755,10h2.6449l.34375,1h-3.33234l.34369-1Z"/><path class="cls-4" d="M7.52124,9h1.95752l.34369,1h-2.6449l.34369-1Z"/><path class="cls-3" d="M7.86499,8h1.27008l.34369,1h-1.95752l.34375-1Z"/><path class="cls-2" d="M9.13507,8h-1.27008l.63501-1.84766.63507,1.84766Z"/></svg>