<svg xmlns="http://www.w3.org/2000/svg" viewBox="0 0 16 16"><path fill="none" d="M0 0h16v16H0z"/><path d="M4.058 16H3L8.5 0 14 16h-1.058L8.5 3.076 4.058 16z"/><path d="M11.541 15l.344 1h-6.77l.344-1h6.082z" opacity=".1"/><path d="M5.803 14h5.394l.344 1H5.459l.344-1z" opacity=".2"/><path d="M6.146 13h4.708l.343 1H5.803l.343-1z" opacity=".3"/><path d="M6.49 12h4.02l.344 1H6.146l.344-1z" opacity=".4"/><path d="M6.834 11h3.332l.344 1H6.49l.344-1z" opacity=".5"/><path d="M7.178 10h2.644l.344 1H6.834l.344-1z" opacity=".6"/><path d="M7.521 9H9.48l.343 1H7.178l.343-1z" opacity=".7"/><path d="M7.865 8h1.27l.344 1H7.52l.344-1z" opacity=".8"/><path d="M9.135 8h-1.27L8.5 6.152 9.135 8z" opacity=".85"/></svg>