<svg xmlns="http://www.w3.org/2000/svg" viewBox="0 0 32 32"><path fill="none" d="M0 0h32v32H0z"/><path d="M8.161 31L16.5 1l8.339 30h-1.034L16.5 4.768 9.195 31H8.161z"/><path d="M22.488 30l.279 1H10.233l.279-1h11.976z" opacity=".15"/><path d="M15.802 11h1.396l.278 1h-1.952l.278-1z" opacity=".72"/><path d="M22.21 29l.278 1H10.512l.278-1h11.42z" opacity=".18"/><path d="M21.932 28l.278 1H10.79l.278-1h10.864z" opacity=".21"/><path d="M21.653 27l.279 1H11.068l.279-1h10.306z" opacity=".24"/><path d="M21.375 26l.278 1H11.347l.278-1h9.75z" opacity=".27"/><path d="M21.096 25l.279 1h-9.75l.279-1h9.192z" opacity=".3"/><path d="M12.182 24h8.636l.278 1h-9.192l.278-1z" opacity=".33"/><path d="M12.46 23h8.08l.278 1h-8.636l.279-1z" opacity=".36"/><path d="M12.74 22h7.52l.28 1h-8.08l.28-1z" opacity=".39"/><path d="M13.018 21h6.964l.279 1h-7.522l.279-1z" opacity=".42"/><path d="M13.296 20h6.408l.278 1h-6.964l.278-1z" opacity=".45"/><path d="M13.575 19h5.85l.279 1h-6.408l.279-1z" opacity=".48"/><path d="M13.853 18h5.294l.278 1h-5.85l.278-1z" opacity=".51"/><path d="M14.132 17h4.736l.279 1h-5.294l.279-1z" opacity=".54"/><path d="M14.41 16h4.18l.278 1h-4.736l.278-1z" opacity=".57"/><path d="M14.689 15h3.622l.279 1h-4.18l.279-1z" opacity=".6"/><path d="M14.967 14h3.066l.278 1H14.69l.278-1z" opacity=".63"/><path d="M15.246 13h2.508l.279 1h-3.066l.279-1z" opacity=".66"/><path d="M15.524 12h1.952l.278 1h-2.508l.278-1z" opacity=".69"/><path d="M17.198 11h-1.396l.698-2.505.698 2.505z" opacity=".75"/></svg>