<svg xmlns="http://www.w3.org/2000/svg" viewBox="0 0 24 24"><path fill="none" d="M0 0h24v24H0z"/><path d="m16.626 22 .3 1H8.074l.3-1z" opacity=".15"/><path d="M8.673 21h7.654l.3 1H8.373l.299-1z" opacity=".2"/><path d="M8.972 20h7.056l.3 1H8.672z" opacity=".25"/><path d="M9.271 19h6.458l.299 1H8.972z" opacity=".3"/><path d="M9.57 18h5.86l.299 1H9.27z" opacity=".35"/><path d="M9.87 17h5.26l.3 1H9.57z" opacity=".4"/><path d="M10.17 16h4.66l.3 1H9.87z" opacity=".45"/><path d="M10.468 15h4.064l.299 1h-4.662l.3-1z" opacity=".5"/><path d="M10.768 14h3.464l.3 1h-4.064z" opacity=".55"/><path d="M11.067 13h2.866l.3 1h-3.465z" opacity=".6"/><path d="M11.366 12h2.268l.3 1h-2.867l.3-1z" opacity=".65"/><path d="M11.665 11h1.67l.299 1h-2.268l.3-1z" opacity=".7"/><path d="M11.965 10h1.07l.3 1h-1.67z" opacity=".75"/><path d="M13.035 10h-1.07l.535-1.79z" opacity=".8"/><path d="M6.005 23 12.5 1.234 18.995 23h-1.026L12.5 4.723 7.03 23H6.006z"/></svg>