<svg xmlns="http://www.w3.org/2000/svg" viewBox="0 0 24 24"><path d="M20.719 3H4.28A1.28 1.28 0 0 0 3 4.281v16.437A1.28 1.28 0 0 0 4.281 22h16.437A1.28 1.28 0 0 0 22 20.718V4.281A1.28 1.28 0 0 0 20.719 3M21 20.718a.28.28 0 0 1-.281.282H4.28a.28.28 0 0 1-.28-.282V4.281A.28.28 0 0 1 4.281 4H20.72a.28.28 0 0 1 .281.281z"/><path d="M4.281 4H20.72a.28.28 0 0 1 .281.281v16.437a.28.28 0 0 1-.282.282H4.281A.28.28 0 0 1 4 20.719V4.28A.28.28 0 0 1 4.281 4" opacity=".25"/><path fill="none" d="M0 0h24v24H0z"/></svg>