<?xml version="1.0" encoding="UTF-8"?><svg id="icons" xmlns="http://www.w3.org/2000/svg" viewBox="0 0 32 32"><defs><style>.cls-1{fill:none;}.cls-2{fill-rule:evenodd;}</style></defs><path class="cls-2" d="M4,10.70703l6.70703-6.70703h2.58594l-3,3h1.41406l3-3h2.58594l-3,3h1.41406l3-3h2.58594l-3,3h1.41406l3-3h1.29297v1.29297l-1.70703,1.70703h1.41406l.29297-.29297v.29297h1v-3c0-.55231-.44769-1-1-1H4c-.55231,0-1,.44769-1,1v20c0,.55225.44769,1,1,1h3v-1h-.29297l.29297-.29297v-1.41406l-1.70703,1.70703h-1.29297v-1.29297l3-3v-1.41406l-3,3v-2.58594l3-3v-1.41406l-3,3v-2.58594l3-3v-1.41406l-3,3v-2.58594ZM4,4h1.29297l-1.29297,1.29297v-1.29297ZM4,6.70703l2.70703-2.70703h2.58594l-5.29297,5.29297v-2.58594ZM29,8H9c-.55231,0-1,.448-1,1v20c0,.552.44769,1,1,1h20c.55231,0,1-.448,1-1V9c0-.552-.44769-1-1-1ZM29,29H9v-6h20v6ZM29,22H9v-6h20v6ZM29,15H9v-6h20v6Z"/><rect class="cls-1" width="32" height="32"/></svg>