<?xml version="1.0" encoding="UTF-8"?><svg id="icons" xmlns="http://www.w3.org/2000/svg" viewBox="0 0 24 24"><defs><style>.cls-1{fill:none;}</style></defs><path d="M22,2H3c-.55231,0-1,.44769-1,1v19c0,.55231.44769,1,1,1h19c.55231,0,1-.44769,1-1V3c0-.55231-.44769-1-1-1ZM3,3h2.29297l-2.29297,2.29297v-2.29297ZM3,6.70703l3.70703-3.70703h2.58594l-6.29297,6.29297v-2.58594ZM3,10.70703l7.70703-7.70703h2.58594L3,13.29297v-2.58594ZM3,14.70703L14.70703,3h2.58594L3,17.29297v-2.58594ZM3,18.70703L18.70703,3h2.58594L3,21.29297v-2.58594ZM22,22h-2.29297l2.29297-2.29297v2.29297ZM22,18.29297l-3.70703,3.70703h-2.58594l6.29297-6.29297v2.58594ZM22,14.29297l-7.70703,7.70703h-2.58594l10.29297-10.29297v2.58594ZM22,10.29297l-11.70703,11.70703h-2.58594l14.29297-14.29297v2.58594ZM22,6.29297l-15.70703,15.70703h-2.58594L22,3.70703v2.58594Z"/><rect class="cls-1" width="24" height="24"/></svg>