<?xml version="1.0" encoding="UTF-8"?><svg id="icons" xmlns="http://www.w3.org/2000/svg" viewBox="0 0 16 16"><defs><style>.cls-1{fill:none;}</style></defs><path d="M14,1H2c-.55231,0-1,.44769-1,1v12c0,.55231.44769,1,1,1h12c.55231,0,1-.44769,1-1V2c0-.55231-.44769-1-1-1ZM2,2h1.29297l-1.29297,1.29297v-1.29297ZM2,4.70703l2.70703-2.70703h2.58594L2,7.29297v-2.58594ZM2,8.70703l6.70703-6.70703h2.58594L2,11.29297v-2.58594ZM14,14h-1.29297l1.29297-1.29297v1.29297ZM14,11.29297l-2.70703,2.70703h-2.58594l5.29297-5.29297v2.58594ZM14,7.29297l-6.70703,6.70703h-2.58594L14,4.70703v2.58594ZM14,3.29297L3.29297,14h-1.29297v-1.29297L12.70703,2h1.29297v1.29297Z"/><rect class="cls-1" width="16" height="16"/></svg>