<?xml version="1.0" encoding="UTF-8"?><svg id="icons" xmlns="http://www.w3.org/2000/svg" viewBox="0 0 32 32"><defs><style>.cls-1{fill:none;}</style></defs><path d="M29,3.00006H4c-.55231,0-1,.44775-1,1v24.99994c0,.552.44769,1,1,1h25c.55231,0,1-.448,1-1V4.00006c0-.55225-.44769-1-1-1ZM4,4h2.29291l-2.29291,2.29297v-2.29297ZM4,7.70703l3.70697-3.70703h2.58594l-6.29291,6.29297v-2.58594ZM4,11.70703l7.70697-7.70703h2.58594L4,14.29297v-2.58594ZM4,15.70703L15.70697,4h2.58594l-14.29291,14.29297v-2.58594ZM4,19.70703l15.70697-15.70703h2.58594L4,22.29297v-2.58594ZM4,23.70703L23.70697,4h2.58594L4,26.29297v-2.58594ZM29,29h-2.29297l2.29297-2.29297v2.29297ZM29,25.29297l-3.70703,3.70703h-2.58594l6.29297-6.29297v2.58594ZM29,21.29297l-7.70703,7.70703h-2.58594l10.29297-10.29297v2.58594ZM29,17.29297l-11.70703,11.70703h-2.58594l14.29297-14.29297v2.58594ZM29,13.29297l-15.70703,15.70703h-2.58594L29,10.70703v2.58594ZM29,9.29297L9.29297,29h-2.58594L29,6.70703v2.58594ZM29,5.29297L5.29297,29h-1.29297v-1.29297L27.70697,4h1.29303v1.29297Z"/><rect class="cls-1" width="32" height="32"/></svg>