<?xml version="1.0" encoding="UTF-8"?><svg id="icons" xmlns="http://www.w3.org/2000/svg" viewBox="0 0 16 16"><defs><style>.cls-1{fill:none;}</style></defs><path d="M14,5H6c-.55231,0-1,.44769-1,1v8c0,.55231.44769,1,1,1h8c.55231,0,1-.44769,1-1V6c0-.55231-.44769-1-1-1ZM14,14H6v-2h8v2ZM14,11H6v-2h8v2ZM14,8H6v-2h8v2ZM4,11h-1v-1.29297l1-1v-1.41406l-1,1v-2.58594l2.70703-2.70703h2.58594l-1,1h1.41406l1-1h1.29297v1h1v-1c0-.55231-.44769-1-1-1H3c-.55231,0-1,.44769-1,1v8c0,.55225.44769,1,1,1h1v-1ZM3,3h1.29297l-1.29297,1.29297v-1.29297Z"/><rect class="cls-1" width="16" height="16"/></svg>