<svg xmlns="http://www.w3.org/2000/svg" viewBox="0 0 16 16"><path fill="none" d="M0 0h16v16H0z"/><path d="M4 4H3V3h1zm2-1H5v1h1zm2 0H7v1h1zM4 7H3v1h1zm2 0H5v1h1zm2 0H7v1h1zm-4 4H3v1h1zm2 0H5v1h1zm1 3H1V1h14v7.85a3 3 0 0 0-.315-.195A4.5 4.5 0 0 0 14 8.372V6H2v3h5.805c-.396.327-.606.682-.708 1H2v3h5zM2 5h12V2H2zm13 5.595v3.715c0 1.11-1.76 1.69-3.5 1.69S8 15.42 8 14.31v-3.715c0-.292.137-.712.787-1.059q.377-.2.91-.333.414-.103.903-.156a9 9 0 0 1 1.8 0q.489.053.903.156c.354.088.66.2.91.334.65.346.787.766.787 1.058m-5.994.011c.021.007.086.077.252.165.175.094.409.179.68.246q.351.087.769.132a8 8 0 0 0 1.586 0q.417-.045.77-.132c.27-.067.504-.152.68-.245a.8.8 0 0 0 .242-.177.8.8 0 0 0-.243-.176 3 3 0 0 0-.68-.245 6 6 0 0 0-.769-.133 8 8 0 0 0-1.586 0q-.417.046-.77.133a3 3 0 0 0-.68.244.8.8 0 0 0-.251.188M14 14.307v-2.559a4.3 4.3 0 0 1-.696.24 7 7 0 0 1-.904.155 8.4 8.4 0 0 1-1.8 0 7 7 0 0 1-.902-.155 4 4 0 0 1-.698-.24v2.562c.042.204.942.69 2.5.69s2.458-.486 2.5-.693"/></svg>