<svg xmlns="http://www.w3.org/2000/svg" viewBox="0 0 24 24"><path fill="none" d="M0 0h24v24H0z"/><path d="M7 9h1v1H7zm2 1h1V9H9zm0-4h1V5H9zm-4 4h1V9H5zm2-4h1V5H7zM5 6h1V5H5zm3 12v-1H7v1zm-2 0v-1H5v1zm4 0v-1H9v1zm2 2H2V3h20v10.654a7.5 7.5 0 0 0-1-.318V12H3v3h9.267A2.1 2.1 0 0 0 12 16H3v3h9zM3 7h18V4H3zm0 4h18V8H3zm7 3v-1H9v1zm-2 0v-1H7v1zm-2 0v-1H5v1zm17 2v5.53c0 1.5-2.516 2.285-5 2.285s-5-.785-5-2.285V16c0-.362.192-.884 1.106-1.316a6.3 6.3 0 0 1 1.296-.422q.612-.135 1.298-.201c.826-.08 1.774-.08 2.6 0 .456.044.891.111 1.297.2.504.113.94.255 1.296.423.915.432 1.107.954 1.107 1.316m-9 0c0 .032.095.204.534.412a5.3 5.3 0 0 0 1.085.35c.361.08.758.141 1.177.182.764.073 1.644.073 2.408 0a10 10 0 0 0 1.177-.182 5.3 5.3 0 0 0 1.086-.35c.438-.208.533-.38.533-.412s-.095-.204-.534-.412a5.2 5.2 0 0 0-1.085-.35c-.365-.08-.762-.141-1.177-.182a12.7 12.7 0 0 0-2.408 0c-.415.04-.812.102-1.178.182a5.3 5.3 0 0 0-1.085.35c-.438.208-.533.38-.533.412m8 5.53v-4.271c-.037.019-.067.038-.106.057a6.3 6.3 0 0 1-1.296.422c-.402.09-.838.157-1.298.201a13.7 13.7 0 0 1-2.6 0 11 11 0 0 1-1.298-.2 6.2 6.2 0 0 1-1.295-.423c-.04-.019-.07-.038-.107-.057v4.27c0 .513 1.596 1.286 4 1.286s4-.773 4-1.285"/></svg>