<svg xmlns="http://www.w3.org/2000/svg" viewBox="0 0 24 24"><path fill="none" d="M0 0h24v24H0z"/><path d="M7 9h1v1H7V9zm2 1h1V9H9v1zm0-4h1V5H9v1zm-4 4h1V9H5v1zm2-4h1V5H7v1zM5 6h1V5H5v1zm3 12v-1H7v1h1zm-2 0v-1H5v1h1zm4 0v-1H9v1h1zm2 2H2V3h20v10.654a7.499 7.499 0 0 0-1-.318V12H3v3h9.267A2.074 2.074 0 0 0 12 16H3v3h9v1zM3 7h18V4H3v3zm0 4h18V8H3v3zm7 3v-1H9v1h1zm-2 0v-1H7v1h1zm-2 0v-1H5v1h1zm17 2v5.53c0 1.5-2.516 2.285-5 2.285s-5-.785-5-2.285V16c0-.362.192-.884 1.106-1.316a6.3 6.3 0 0 1 1.296-.422c.407-.09.842-.157 1.298-.201.826-.08 1.774-.08 2.6 0 .456.044.891.111 1.297.2.504.113.94.255 1.296.423.915.432 1.107.954 1.107 1.316zm-9 0c0 .032.095.204.534.412a5.29 5.29 0 0 0 1.085.35c.361.08.758.141 1.177.182.764.073 1.644.073 2.408 0a9.77 9.77 0 0 0 1.177-.182 5.32 5.32 0 0 0 1.086-.35c.438-.208.533-.38.533-.412s-.095-.204-.534-.412a5.232 5.232 0 0 0-1.085-.35c-.365-.08-.762-.141-1.177-.182a12.66 12.66 0 0 0-2.408 0c-.415.04-.812.102-1.178.182a5.27 5.27 0 0 0-1.085.35c-.438.208-.533.38-.533.412zm8 5.53v-4.271c-.037.019-.067.038-.106.057a6.26 6.26 0 0 1-1.296.422c-.402.09-.838.157-1.298.201a13.67 13.67 0 0 1-2.6 0 10.99 10.99 0 0 1-1.298-.2 6.23 6.23 0 0 1-1.295-.423c-.04-.019-.07-.038-.107-.057v4.27c0 .513 1.596 1.286 4 1.286s4-.773 4-1.285z"/></svg>