<?xml version="1.0" encoding="UTF-8"?><svg id="icons" xmlns="http://www.w3.org/2000/svg" viewBox="0 0 24 24"><defs><style>.cls-1{fill:none;}</style></defs><rect class="cls-1" width="24" height="24"/><path d="M19,1.02539c-2.5791,0-4,1.09277-4,3.07812v7.87695l4,4.0127,4-4.0127v-7.87695c0-1.98535-1.4209-3.07812-4-3.07812ZM22,11.56641l-3,3.01074-3-3.01074v-7.46289c0-.51367,0-2.07812,3-2.07812s3,1.56445,3,2.07812v7.46289ZM21,15.40314l1-1.00317v5.59104h-7.281c.23993.85718.32405,1.84457.25044,2.99045l-.94405-.06445c.38477-5.98145-4.82422-7.11035-6.78516-7.53516-.29004-.0625-.51367-.1123-.64844-.15723-.5791-.19336-.73438-.5332-.76367-.7832-.0127-.1123-.00195-.22168.0293-.3291-.92285.44727-1.74219.93457-1.82227,1.23828.16895.19824,1.10059.42871,1.78027.59668,1.25879.31055,2.68457.66309,2.68457,1.80273,0,2.0293-4.06152,4.72266-4.87598,5.25l-.54297-.83984c.8515-.55164,1.95209-1.33337,2.84198-2.16016H1v-8h1v7h4.87494c.38177-.4704.62506-.90619.62506-1.25,0-.35645-1.20508-.6543-1.9248-.83203-1.02441-.25293-1.99219-.49219-2.39258-1.10254-.19336-.29492-.36621-.90527.65332-1.67871.44629-.33887,4.30566-2.51953,4.85742-1.88867,0,0,.48694.35545-.55371,1.04883-.28016.18666-.98535.66699-1.24609.97363.00488.00195.00977.00391.01465.00488.11328.03809.30078.07715.54395.12988.77405.16748,2.16534.47498,3.54785,1.18793V7h.03448c-.29083-.25952-1.23108-1-2.53448-1H2v.91663h-1v-1.91663h7.5c1.41406,0,2.47559.66699,3,1.08301.46057-.36536,1.33594-.92365,2.5-1.05432v1.00946c-1.04132.15222-1.78241.73694-2.03448.96185h.03448v9.19305c.95355.66174,1.81873,1.56873,2.38263,2.81537.03137-.00104,6.61737-.00842,6.61737-.00842v-3.59686ZM2.9082,10h4.0918v-1H2.9082c-.2066-.58124-.75604-1-1.4082-1-.82843,0-1.5.67157-1.5,1.5s.67157,1.5,1.5,1.5c.65216,0,1.2016-.41876,1.4082-1ZM1,9h1v1h-1v-1ZM19,4.09998c-1.04932,0-1.90002.85065-1.90002,1.90002,0,1.04932.85071,1.89996,1.90002,1.89996s1.90002-.85065,1.90002-1.89996c0-1.04938-.85071-1.90002-1.90002-1.90002ZM19,7c-.55096,0-1-.44904-1-1s.44904-1,1-1,1,.44904,1,1-.44904,1-1,1Z"/></svg>