<svg xmlns="http://www.w3.org/2000/svg" viewBox="0 0 16 16"><path fill="none" d="M0 0h16v16H0z"/><path d="M3 4.906c1.101.672 3.045 1.073 5.5 1.073s4.399-.4 5.5-1.073V8h1V3.48C15 1.983 12.388 1 8.5 1S2 1.984 2 3.48v3.35a4.3 4.3 0 0 1 1-.129zM8.5 1.98c3.839 0 5.5.994 5.5 1.5s-1.661 1.5-5.5 1.5S3 3.986 3 3.48s1.661-1.5 5.5-1.5M13 14h-3v-1h3zM7 9v3h1v4h7v-4h1V9zm7 6H9v-3h5zm1-4H8v-1h7zm-8 3.293-1.63-1.63A2.9 2.9 0 0 0 5.9 11 2.9 2.9 0 1 0 3 13.9a2.9 2.9 0 0 0 1.663-.53L7 15.707zM3 12.9c-1.048 0-1.9-.852-1.9-1.9S1.952 9.1 3 9.1s1.9.852 1.9 1.9-.852 1.9-1.9 1.9"/></svg>