<svg xmlns="http://www.w3.org/2000/svg" viewBox="0 0 32 32"><path stroke-width="0" fill="none" d="M0 0h32v32H0z"/><path d="M17 20v3h1v8h12v-8h1v-3H17zm12 10H19v-7h10v7zm1-8H18v-1h12v1zm-3 4h-6v-1h6v1zm-15.567-1.264A5.8 5.8 0 1 0 7 26.8a5.773 5.773 0 0 0 3.743-1.374l4.578 4.578a.476.476 0 0 0 .672 0l.018-.016a.476.476 0 0 0 0-.674l-4.578-4.578zM2.2 21c0-2.647 2.153-4.8 4.8-4.8s4.8 2.153 4.8 4.8-2.153 4.8-4.8 4.8-4.8-2.153-4.8-4.8zM28 19h1V7c0-2.533-6.44-3.9-12.5-3.9S4.009 4.467 4.009 7v7c.332-.15.991-.478.991-.527V8.596c2.034 1.505 6.873 2.304 11.5 2.304s9.466-.8 11.5-2.304v5.23c0 1.293-4.375 3.098-11.5 3.098-1.283 0-2.474-.06-3.57-.164a7.3 7.3 0 0 1 .625 1.049c.973.075 1.963.115 2.945.115 4.627 0 9.466-.84 11.5-2.421V19zM16.5 9.9C9.375 9.9 5 8.21 5 7s4.375-2.9 11.5-2.9S28 5.79 28 7s-4.375 2.9-11.5 2.9z" stroke-width="0"/></svg>