<svg xmlns="http://www.w3.org/2000/svg" viewBox="0 0 32 32"><path fill="none" d="M0 0h32v32H0z"/><path d="M8 13H6v-1h2zm3-1H9v1h2zm3 0h-2v1h2zm-6 6H6v1h2zm3 0H9v1h2zm3 0h-2v1h2zm-6 6H6v1h2zm3 0H9v1h2zm3 0h-2v1h2zM8 6H6v1h2zm3 0H9v1h2zm3 0h-2v1h2zm1.02 22H3V3h26v14.344a8 8 0 0 0-1-.413V16H4v5h11v1H4v5h11v.8c0 .069.014.133.02.2M4 9h24V4H4zm0 6h24v-5H4zm26 5v7.8c0 1.949-3.606 3-7 3s-7-1.051-7-3V20c0-.468.247-1.151 1.424-1.752.498-.256 1.115-.472 1.833-.643a15 15 0 0 1 1.866-.31 19 19 0 0 1 3.754 0 15 15 0 0 1 1.866.31c.718.17 1.335.387 1.834.643C29.753 18.848 30 19.532 30 20m-13 0c0 .259.328.58.879.862.428.22.97.408 1.61.56.532.128 1.116.224 1.738.288 1.14.12 2.406.12 3.546 0 .622-.063 1.206-.16 1.738-.288.64-.152 1.182-.34 1.61-.56.55-.281.879-.603.879-.862s-.328-.58-.879-.862c-.428-.22-.97-.408-1.61-.56a13 13 0 0 0-1.738-.288c-.57-.06-1.167-.09-1.773-.09s-1.203.03-1.773.09c-.622.064-1.206.16-1.738.288-.64.152-1.182.34-1.61.56-.55.281-.879.603-.879.862m12 7.8v-6.294a4 4 0 0 1-.424.246c-.498.256-1.115.472-1.833.643a15 15 0 0 1-1.866.31 18.5 18.5 0 0 1-3.754.001 15 15 0 0 1-1.866-.311c-.718-.17-1.335-.387-1.834-.643a4 4 0 0 1-.423-.246V27.8c0 .835 2.282 2 6 2s6-1.165 6-2"/></svg>