<?xml version="1.0" encoding="UTF-8"?><svg id="icons" xmlns="http://www.w3.org/2000/svg" viewBox="0 0 32 32"><defs><style>.cls-1{fill:none;}</style></defs><rect class="cls-1" width="32" height="32"/><path d="M26,2.21777c-3.22461,0-5,1.375-5,3.87305v9.54883l5,5.10449,5-5.10449V6.09082c0-2.49805-1.77539-3.87305-5-3.87305ZM30,15.23145l-4,4.08301-4-4.08301V6.09082c0-1.90625,1.3457-2.87305,4-2.87305s4,.9668,4,2.87305v9.14062ZM26.00031,5.20001c-1.54388,0-2.80029,1.2561-2.80029,2.79999s1.25641,2.79999,2.80029,2.79999,2.79968-1.2561,2.79968-2.79999-1.2558-2.79999-2.79968-2.79999ZM26,10c-1.10255,0-2-.89745-2-2s.89745-2,2-2,2,.89745,2,2-.89745,2-2,2ZM29,19.11145l1-1.02094v8.90048h-10.27423c.18835.89465.26481,1.96713.26481,3.009h-.94558c0-5.77832-3.07918-8.96875-9.35752-9.75391-.43748-.05469-1.76854-.2207-1.94041-1.18262-.0459-.25781.00781-.5127.125-.75977-1.05762.64844-1.88239,1.38574-1.86481,1.9043.0127.38867.69587.7832,1.857,1.05566,1.83301.42871,2.86307,1.17969,3.07791,2.22949.46973,2.29688-3.27909,5.02148-5.29862,6.50684l-.5918-.80664c.64771-.47626,1.77753-1.27957,2.79419-2.20236H2v-11.991h1v11h5.85236c.74701-.82776,1.25244-1.65375,1.11932-2.30566-.16211-.79004-1.35938-1.22852-2.33594-1.45703-.64258-.15137-2.58161-.60938-2.62848-1.99609-.06836-2.06445,4.34723-3.86133,5.22321-4.12988.29199-.08398.59277.05566.70605.33496.11426.2793,0,.59473-.26758.73438-1.17188.60449-1.98242,1.45215-1.93652,1.70703,0,.00293.10254.24414,1.0791.36621,2.53107.31641,4.59503,1.0202,6.18848,2.10486v-11.91638c-.41797-.37598-1.77051-1.44238-3.66309-1.44238H3v1.91663h-1v-2.91663h10.33691c2.01367,0,3.48047.9834,4.14062,1.53125.56189-.47937,1.80609-1.34412,3.52246-1.49908v1.00409c-1.54858.17188-2.64557,1.0462-3,1.36902v12.7536c1.15955,1.05597,1.98523,2.25134,2.47491,3.84113h9.52509v-6.88855ZM2.9082,13h7.0918v-1H2.9082c-.2066-.58124-.75604-1-1.4082-1-.82843,0-1.5.67157-1.5,1.5s.67157,1.5,1.5,1.5c.65216,0,1.2016-.41876,1.4082-1ZM1,13v-1h1v1h-1Z"/></svg>