<svg xmlns="http://www.w3.org/2000/svg" viewBox="0 0 16 16"><path stroke-width="0" fill="none" d="M0 0h16v16H0z"/><path d="M7 9v3h1v4h7v-4h1V9H7zm7 6H9v-3h5v3zm1-4H8v-1h7v1zm-2 3h-3v-1h3v1zM7.106 1.982a.919.919 0 0 0 .148-.943C7.654 1.014 8.068 1 8.5 1c3.888 0 6.5.984 6.5 2.48V8h-1V4.906c-1.101.672-3.045 1.073-5.5 1.073-.43 0-.837-.016-1.234-.04a.99.99 0 0 0 .063-.317c0-.23-.078-.43-.22-.607C7.172 5.008 8.065 5 8.5 5 12.339 5 14 3.986 14 3.48s-1.661-1.524-5.5-1.524c-.478 0-.923.016-1.335.044-.02-.004-.037-.015-.059-.018zM1.6 4.694l-.927.927.707.707.927-.927c.21.132.452.232.702.289V7H4V5.69c.25-.057.484-.156.695-.289l.927.927.708-.707-.928-.928c.133-.21.232-.443.289-.693H7V3H5.69a2.23 2.23 0 0 0-.29-.695l.928-.928L5.621.67l-.928.929a2.23 2.23 0 0 0-.694-.29V0h-.991v1.31a2.28 2.28 0 0 0-.701.289l-.928-.93-.707.71.927.927A2.23 2.23 0 0 0 1.31 3H0v1h1.31c.057.25.156.483.29.694zM3.5 2a1.5 1.5 0 1 1 0 3 1.5 1.5 0 0 1 0-3zm2.4 9A2.9 2.9 0 1 0 3 13.9a2.88 2.88 0 0 0 1.663-.53L7 15.707v-1.414l-1.63-1.63A2.88 2.88 0 0 0 5.9 11zm-4.8 0c0-1.048.852-1.9 1.9-1.9s1.9.852 1.9 1.9-.852 1.9-1.9 1.9-1.9-.852-1.9-1.9z" stroke-width="0"/></svg>