<svg xmlns="http://www.w3.org/2000/svg" viewBox="0 0 16 16"><path fill="none" d="M0 0h16v16H0z"/><path d="M7 9v3h1v4h7v-4h1V9zm7 6H9v-3h5zm1-4H8v-1h7zm-2 3h-3v-1h3zM7.106 1.982a.92.92 0 0 0 .148-.943Q7.853 1.001 8.5 1c3.888 0 6.5.984 6.5 2.48V8h-1V4.906c-1.101.672-3.045 1.073-5.5 1.073-.43 0-.837-.016-1.234-.04a1 1 0 0 0 .063-.317c0-.23-.078-.43-.22-.607C7.172 5.008 8.065 5 8.5 5 12.339 5 14 3.986 14 3.48s-1.661-1.524-5.5-1.524q-.717.001-1.335.044c-.02-.004-.037-.015-.059-.018M1.6 4.694l-.927.927.707.707.927-.927c.21.132.452.232.702.289V7H4V5.69q.377-.087.695-.289l.927.927.708-.707-.928-.928c.133-.21.232-.443.289-.693H7V3H5.69a2.2 2.2 0 0 0-.29-.695l.928-.928L5.621.67l-.928.929a2.2 2.2 0 0 0-.694-.29V0h-.991v1.31a2.3 2.3 0 0 0-.701.289l-.928-.93-.707.71.927.927A2.2 2.2 0 0 0 1.31 3H0v1h1.31q.087.376.29.694M3.5 2a1.5 1.5 0 1 1 0 3 1.5 1.5 0 0 1 0-3m2.4 9A2.9 2.9 0 1 0 3 13.9a2.9 2.9 0 0 0 1.663-.53L7 15.707v-1.414l-1.63-1.63A2.9 2.9 0 0 0 5.9 11m-4.8 0c0-1.048.852-1.9 1.9-1.9s1.9.852 1.9 1.9-.852 1.9-1.9 1.9-1.9-.852-1.9-1.9"/></svg>