<?xml version="1.0" encoding="UTF-8"?><svg id="icons" xmlns="http://www.w3.org/2000/svg" viewBox="0 0 16 16"><defs><style>.cls-1{fill:none;}</style></defs><rect class="cls-1" width="16" height="16"/><path d="M13,.00293C11.09375.00293,10,.86816,10,2.37598v4.93066l3,3.0625,3-3.0625V2.37598C16,.86816,14.90625.00293,13,.00293ZM15,6.89844l-2,2.04102-2-2.04102V2.37598c0-.33984,0-1.37305,2-1.37305s2,1.0332,2,1.37305v4.52246ZM14,3.5v1c0,.27612-.22388.5-.5.5h-1c-.27612,0-.5-.22388-.5-.5v-1c0-.27618.22388-.5.5-.5h1c.27612,0,.5.22382.5.5ZM14,10.77826l1-1.02087v4.24261h-4.27856c.17828.60608.27856,1.23718.27856,1.99121h-1c0-3.6709-2.41113-4.35742-4.22559-4.58398-.27441-.03418-1-.125-1.11621-.7002-.43359.22754-.56445.37988-.59961.43164.03906.00586.1875.13672.64258.30078.94531.3418,1.21289.89258,1.27051,1.29492.16992,1.16895-1.19434,2.40234-2.36816,3.26562l-.5918-.80664c.57361-.42126,1.04419-.8067,1.38574-1.19336H1v-4h1v3h2.97467c.00421-.04187.01312-.08612.00775-.12305-.03418-.2373-.35645-.40137-.62109-.49609-.32812-.11914-1.3291-.48047-1.30957-1.27441.01855-.7666,1.06506-1.43093,3.26037-2.10476l.61107.8555c-.3291.16992-.81871.4641-.97496.5637.77594.10101,1.45349.28827,2.05176.54407v-6.41516c-.25293-.19336-.82324-.5498-1.58105-.5498H2v1h-1v-2h5.41895c.95996,0,1.69141.39941,2.09277.68457.12848-.09491.29932-.1972.48828-.2962v8.12128c.5611.40015.99939.9054,1.32465,1.50598.07611-.00623,3.67535-.01562,3.67535-.01562v-2.22174ZM2.9082,8h2.0918v-1h-2.0918c-.2066-.58124-.75604-1-1.4082-1-.82843,0-1.5.67157-1.5,1.5s.67157,1.5,1.5,1.5c.65216,0,1.2016-.41876,1.4082-1ZM1,7h1v1h-1v-1Z"/></svg>