<svg xmlns="http://www.w3.org/2000/svg" viewBox="0 0 24 24"><path stroke-width="0" fill="none" d="M0 0h24v24H0z"/><path d="M16.281 12.982c1.977-.264 3.696-.725 4.719-1.41V13h1V5c0-1.97-4.78-3-9.5-3S3 3.03 3 5v5.697c.397-.102.575-.165 1-.184V6.411C5.643 7.457 9.082 8 12.5 8s6.857-.543 8.5-1.589v3.679c0 .878-3.312 2.152-8.5 2.152-1.55 0-2.93-.059-4.106-.242.388.333.734.58 1.028 1 .578 0 1.307-.042 1.98-.018h4.88zM12.5 7C7 7 4 5.679 4 5s3-2 8.5-2S21 4.321 21 5s-3 2-8.5 2zM7.926 19.23c.6-.753.974-1.693.974-2.73a4.4 4.4 0 1 0-4.4 4.4c1.04 0 1.984-.376 2.737-.98l3.084 3.084a.476.476 0 0 0 .673 0l.017-.016a.476.476 0 0 0 0-.674L7.926 19.23zM1.1 16.5c0-1.875 1.526-3.4 3.4-3.4s3.4 1.525 3.4 3.4-1.525 3.4-3.4 3.4-3.4-1.525-3.4-3.4zM12 14v3h1v6h10v-6h1v-3H12zm10 8h-8v-5h8v5zm1-6H13v-1h10v1zm-3 3h-4v-1h4v1z" stroke-width="0"/></svg>