<svg xmlns="http://www.w3.org/2000/svg" viewBox="0 0 32 32"><path d="M16.5 19H11V3h1v6h4.5c.827 0 1.5.673 1.5 1.5v7c0 .827-.673 1.5-1.5 1.5M12 18h4.5c.275 0 .5-.225.5-.5v-7c0-.275-.225-.5-.5-.5H12zm-3 1H3.5c-.827 0-1.5-.673-1.5-1.5v-4c0-.827.673-1.5 1.5-1.5H8v-1.5c0-.275-.225-.5-.5-.5H2V9h5.5c.827 0 1.5.673 1.5 1.5zm-5.5-6c-.275 0-.5.225-.5.5v4c0 .275.225.5.5.5H8v-5zM27 18h-5.5a.5.5 0 0 1-.5-.5v-7c0-.275.225-.5.5-.5H27V9h-5.5c-.827 0-1.5.673-1.5 1.5v7c0 .827.673 1.5 1.5 1.5H27zm-3 13h-2v-9h2v-1h-3v11h3zm5-10v1h2v9h-2v1h3V21z"/><path fill="none" d="M0 0h32v32H0z"/></svg>