<svg xmlns="http://www.w3.org/2000/svg" viewBox="0 0 24 24"><path d="M13.75 10H11V5h-1v13h3.75A1.25 1.25 0 0 0 15 16.75v-5.5A1.25 1.25 0 0 0 13.75 10m.25 6.75a.25.25 0 0 1-.25.25H11v-6h2.75a.25.25 0 0 1 .25.25zM7 10H3v1h4v2H4.25A1.25 1.25 0 0 0 3 14.25v2.5A1.25 1.25 0 0 0 4.25 18H8v-7a1 1 0 0 0-1-1m0 7H4.25a.25.25 0 0 1-.25-.25v-2.5a.25.25 0 0 1 .25-.25H7zm11.25-7H22v1h-3.75a.25.25 0 0 0-.25.25v5.5a.25.25 0 0 0 .25.25H22v1h-3.75A1.25 1.25 0 0 1 17 16.75v-5.5A1.25 1.25 0 0 1 18.25 10"/><path fill="none" d="M0 0h24v24H0z"/></svg>