<?xml version="1.0" encoding="UTF-8"?><svg id="icons" xmlns="http://www.w3.org/2000/svg" viewBox="0 0 16 16"><defs><style>.cls-1{fill:none;}</style></defs><path d="M8,9h-3V0h1v3h2c.55176,0,1,.44824,1,1v4c0,.55176-.44824,1-1,1ZM6,8h2v-4h-2v4ZM4,9H1c-.55176,0-1-.44824-1-1v-2c0-.55176.44824-1,1-1h2v-1H0v-1h3c.55176,0,1,.44824,1,1v5ZM1,6v2h2v-2H1ZM14,8h-3v-4h3v-1h-3c-.55176,0-1,.44824-1,1v4c0,.55176.44824,1,1,1h3v-1ZM11,15h-1v-4h1v-1h-2v6h2v-1ZM14,10v1h1v4h-1v1h2v-6h-2Z"/><rect class="cls-1" width="16" height="16"/></svg>