<svg xmlns="http://www.w3.org/2000/svg" viewBox="0 0 24 24"><path d="M9.721 10H7.563C6.637 9.29 6.03 8.277 6.03 6.738c0-2.346 2.027-4.714 6.556-4.714 3.295 0 5.232 1.278 6.09 3.976h-1.052c-.764-2.068-2.301-2.976-5.038-2.976-3.838 0-5.556 1.866-5.556 3.714 0 1.791.988 2.65 2.692 3.262zM2 11v1h11.435c2.987.711 5.555 1.61 5.555 4.46 0 2.668-2.416 4.53-5.874 4.53-2.456 0-5.417-.564-6.66-3.002h-1.11c1.04 2.624 3.697 4.002 7.77 4.002 4.723 0 6.874-2.866 6.874-5.53 0-2.36-1.382-3.64-3.25-4.46H22v-1H2z"/><path fill="none" d="M0 0h24v24H0z"/></svg>