<?xml version="1.0" encoding="UTF-8"?><svg id="icons" xmlns="http://www.w3.org/2000/svg" viewBox="0 0 32 32"><defs><style>.cls-1{fill:none;}</style></defs><path d="M16.5,19h-5.5V3h1v6h4.5c.82715,0,1.5.67285,1.5,1.5v7c0,.82715-.67285,1.5-1.5,1.5ZM12,18h4.5c.27539,0,.5-.22461.5-.5v-7c0-.27539-.22461-.5-.5-.5h-4.5v8ZM9,19H3.5c-.82715,0-1.5-.67285-1.5-1.5v-4c0-.82715.67285-1.5,1.5-1.5h4.5v-1.5c0-.27539-.22461-.5-.5-.5H2v-1h5.5c.82715,0,1.5.67285,1.5,1.5v8.5ZM3.5,13c-.27539,0-.5.22461-.5.5v4c0,.27539.22461.5.5.5h4.5v-5H3.5ZM27,18h-5.5c-.27539,0-.5-.22461-.5-.5v-7c0-.27539.22461-.5.5-.5h5.5v-1h-5.5c-.82715,0-1.5.67285-1.5,1.5v7c0,.82715.67285,1.5,1.5,1.5h5.5v-1ZM24,31h-2v-9h2v-1h-3v11h3v-1ZM29,21v1h2v9h-2v1h3v-11h-3Z"/><rect class="cls-1" width="32" height="32"/></svg>