<?xml version="1.0" encoding="UTF-8"?><svg id="icons" xmlns="http://www.w3.org/2000/svg" viewBox="0 0 24 24"><defs><style>.cls-1{fill:none;}</style></defs><path d="M11.75,13h-3.75V0h1v5h2.75c.68945,0,1.25.56055,1.25,1.25v5.5c0,.68945-.56055,1.25-1.25,1.25ZM9,12h2.75c.1377,0,.25-.1123.25-.25v-5.5c0-.1377-.1123-.25-.25-.25h-2.75v6ZM6,13h-3.75c-.68945,0-1.25-.56055-1.25-1.25v-2.5c0-.68945.56055-1.25,1.25-1.25h2.75v-2H1v-1h4c.55176,0,1,.44824,1,1v7ZM2.25,9c-.1377,0-.25.1123-.25.25v2.5c0,.1377.1123.25.25.25h2.75v-3h-2.75ZM20,12h-3.75c-.1377,0-.25-.1123-.25-.25v-5.5c0-.1377.1123-.25.25-.25h3.75v-1h-3.75c-.68945,0-1.25.56055-1.25,1.25v5.5c0,.68945.56055,1.25,1.25,1.25h3.75v-1ZM17,23h-2v-7h2v-1h-3v9h3v-1ZM21,15v1h2v7h-2v1h3v-9h-3Z"/><rect class="cls-1" width="24" height="24"/></svg>