<svg xmlns="http://www.w3.org/2000/svg" viewBox="0 0 32 32"><path fill="none" d="M0 0h32v32H0z"/><path d="M13.12 14h-3.08c-1.847-.909-2.952-2.333-2.952-4.936 0-3.017 2.426-6.062 8.29-6.062 4.21 0 6.705 1.608 7.838 4.998h-1.07c-1.036-2.734-3.153-3.982-6.768-3.982-5.163 0-7.274 2.535-7.274 5.046 0 2.97 1.733 4.06 5.016 4.936zM3 15.02v.96h14.083c3.738.91 6.89 2.117 6.89 5.8 0 3.604-3.246 6.121-7.894 6.121-5.13 0-8.252-1.647-9.31-4.891H5.702c1.092 3.868 4.66 5.907 10.377 5.907 6.121 0 8.91-3.7 8.91-7.138 0-3.167-1.879-4.78-4.424-5.799H29v-.96H3z"/></svg>