<svg xmlns="http://www.w3.org/2000/svg" viewBox="0 0 16 16"><path d="M6.446 7H4.194c-.753-.607-1.14-1.396-1.14-2.36 0-1.801 1.453-3.619 4.7-3.619 2.595 0 4.358 1.088 4.88 2.979H11.57c-.656-1.694-2.633-1.979-3.816-1.979-2.248 0-3.7 1.029-3.7 2.62 0 .855.42 1.473 1.324 1.945.304.161.67.294 1.068.414zM1 8v1h9.024c.64.24 1.18.54 1.503.955.295.383.445.831.445 1.335 0 1.337-1.165 2.687-3.767 2.687-.961 0-3.09-.212-4.036-1.977h-1.1c1.079 2.749 4.163 2.977 5.136 2.977 3.275 0 4.767-1.912 4.767-3.687 0-.73-.22-1.385-.655-1.947A2.93 2.93 0 0 0 11.995 9H15V8H1z"/><path fill="none" d="M0 0h16v16H0z"/></svg>