<svg xmlns="http://www.w3.org/2000/svg" viewBox="0 0 16 16"><path fill="none" stroke-width="0" d="M0 0h16v16H0z"/><path fill="#6f6f6f" opacity=".25" stroke-width="0" d="M5 2h3v9H5z"/><path d="M9.611 10.994A1.001 1.001 0 0 1 9 10.072V5a1 1 0 0 1 1-1h1V2H8v9h1.625l-.014-.006z" fill="#6f6f6f" opacity=".5" stroke-width="0"/><path d="M11.357 12H1V1h11v3h-1V2H2v9h7.625l1.762.741-.03.259zM16 5v5.072l-2.467 1.04.467 4.034c0 .472-.417.854-.932.854h-.136c-.515 0-.932-.382-.932-.854l.467-4.035L10 10.072V5h6zm-1 3V7c-.571 0-.863-.952-1.297-.952-.541 0-.493.519-1.333.519-.421 0-.849-.795-1.273-.711-.036.007-.066.023-.097.037V8h4z" stroke-width="0"/></svg>