<svg xmlns="http://www.w3.org/2000/svg" viewBox="0 0 32 32"><path fill="none" stroke-width="0" d="M0 0h32v32H0z"/><path fill="#6f6f6f" opacity=".25" stroke-width="0" d="M11 4h7v20h-7z"/><path d="M23.63 23.608l-3.048-1.4A1 1 0 0 1 20 21.3V13a1 1 0 0 1 1-1h4V4h-7v20h5.588l.042-.392z" fill="#6f6f6f" opacity=".5" stroke-width="0"/><path d="M23.482 25H3V3h23v9h-1V4H4v20h19.588l-.106 1zM30 13v8.3L26.3 23l.7 6.602c0 .772-.626 1.398-1.398 1.398h-.204A1.398 1.398 0 0 1 24 29.602L24.7 23 21 21.3V13h9zm-8 5h7v-1.596a1.3 1.3 0 0 1-.6.15c-.857 0-1.195-1.84-1.845-1.84-.812 0-.74.85-2 .85-.632 0-1.273-1.3-1.91-1.164-.296.063-.457.329-.645.593V18z" stroke-width="0"/></svg>