<svg xmlns="http://www.w3.org/2000/svg" viewBox="0 0 24 24"><path fill="none" stroke-width="0" d="M0 0h24v24H0z"/><path fill="#6f6f6f" opacity=".25" stroke-width="0" d="M8 3h5v14H8z"/><path d="M14.582 16.363a1 1 0 0 1-.582-.908V9a1 1 0 0 1 1-1h3V3h-5v14h2.968l-1.386-.637z" fill="#6f6f6f" opacity=".5" stroke-width="0"/><path d="M16.742 18H2V2h17v6h-1V3H3v14h12.968l.84.386-.065.614zM22 9v6.456l-2.878 1.322.545 5.135c0 .6-.487 1.087-1.087 1.087h-.16c-.6 0-1.087-.487-1.087-1.087l.545-5.135L15 15.456V9h7zm-6 4h5v-1.278c-.079.019-.153.043-.244.043-.667 0-.93-1.432-1.436-1.432-.631 0-.576.66-1.555.66-.492 0-.99-1.01-1.485-.904a.537.537 0 0 0-.28.173V13z" stroke-width="0"/></svg>