<svg xmlns="http://www.w3.org/2000/svg" viewBox="0 0 32 32"><path fill="none" d="M0 0h32v32H0z"/><path d="M28.5 11c.827 0 1.5-.673 1.5-1.5v-4c0-.827-.673-1.5-1.5-1.5h-25C2.673 4 2 4.673 2 5.5v4c0 .827.673 1.5 1.5 1.5H6v16h5v1c0 .552.449 1 1 1h17c.551 0 1-.448 1-1v-3c0-.552-.449-1-1-1H12c-.551 0-1 .448-1 1v1H7v-8h4v1c0 .552.449 1 1 1h17c.551 0 1-.448 1-1v-3c0-.552-.449-1-1-1H12c-.551 0-1 .448-1 1v1H7v-6zM12 25h17v3h.001H12zm0-9h17v3h.001H12zm-8.5-6a.5.5 0 0 1-.5-.5v-4a.5.5 0 0 1 .5-.5h25a.5.5 0 0 1 .5.5v4a.5.5 0 0 1-.5.5z"/></svg>