<?xml version="1.0" encoding="UTF-8"?><svg id="icons" xmlns="http://www.w3.org/2000/svg" viewBox="0 0 16 16"><defs><style>.cls-1{fill:none;}.cls-2{fill-rule:evenodd;}</style></defs><rect class="cls-1" x="0" y="0" width="16" height="16" transform="translate(16 16) rotate(-180)"/><path class="cls-2" d="M15,9h-2c-.55176,0-1-.44824-1-1v-1c0-.55176.44824-1,1-1h1v-1h-2v-1h2c.55176,0,1,.44824,1,1v1c0,.55176-.44824,1-1,1h-1v1h2v1ZM15.00003,1H1.00003s0,.99988,0,.99988h14s0-.99988,0-.99988ZM15,10H1.00003s0,1,0,1h13.99997s0-1,0-1ZM15,14H1.00003s0,1,0,1h13.99997s0-1,0-1ZM10,5H1.00003s0,2,0,2h8.99997s0-2,0-2Z"/></svg>