<?xml version="1.0" encoding="UTF-8"?><svg id="icons" xmlns="http://www.w3.org/2000/svg" viewBox="0 0 32 32"><defs><style>.cls-1{fill:none;}</style></defs><rect class="cls-1" x="0" width="32" height="32" transform="translate(32 32) rotate(-180)"/><path d="M24,11H3v-2h21v2ZM29,16H3s0,1,0,1h26s0-1,0-1ZM29,22H3s0,1,0,1h26s0-1,0-1ZM29,28H3s0,1,0,1h26s0-1,0-1ZM29,4H3s0,.99998,0,.99998h26s0-.99998,0-.99998ZM29,12v-1c0-.55127-.44824-1-1-1h-1s0-1,0-1h2v-1h-3v2c0,.55127.44824,1,1,1h1s0,1,0,1h-2v1h2c.55176,0,1-.44873,1-1Z"/></svg>