<?xml version="1.0" encoding="UTF-8"?><svg id="icons" xmlns="http://www.w3.org/2000/svg" viewBox="0 0 24 24"><defs><style>.cls-1{fill:none;}</style></defs><rect class="cls-1" x="0" width="24" height="24" transform="translate(24 24) rotate(-180)"/><path d="M17,9H2v-2h15v2ZM22,13H2s0,1,0,1h20s0-1,0-1ZM22,17H2s0,1,0,1h20s0-1,0-1ZM22,21H2s0,1,0,1h20s0-1,0-1ZM22,3.00003H2s0,.99997,0,.99997h20s0-.99997,0-.99997ZM22,10v-1c0-.55127-.44824-1-1-1h-1s0-1,0-1h2v-1h-3v2c0,.55127.44824,1,1,1h1s0,1,0,1h-2v1h2c.55176,0,1-.44873,1-1Z"/></svg>