<?xml version="1.0" encoding="UTF-8"?><svg id="icons" xmlns="http://www.w3.org/2000/svg" viewBox="0 0 16 16"><defs><style>.cls-1{fill:none;}.cls-2{fill-rule:evenodd;}</style></defs><rect class="cls-1" x="0" y="0" width="16" height="16" transform="translate(16 16) rotate(-180)"/><path class="cls-2" d="M15.00003,1.99988H1.00003v-.99988h14v.99988ZM15,10H1.00003s0,1,0,1h13.99997s0-1,0-1ZM15,14H1.00003s0,1,0,1h13.99997s0-1,0-1ZM10,5H1.00003s0,2,0,2h8.99997s0-2,0-2ZM15,8v-1c0-.55127-.44824-1-1-1h-1s0-1,0-1h2v-1h-3v2c0,.55127.44824,1,1,1h1s0,1,0,1h-2v1h2c.55176,0,1-.44873,1-1Z"/></svg>