<svg xmlns="http://www.w3.org/2000/svg" viewBox="0 0 24 24"><path d="m6.226 23.45-.03-.053a29.3 29.3 0 0 1-2.201-4.977C2.231 13.042 2.826 8.514 5.669 5.669A9.75 9.75 0 0 1 12.745 3a22.8 22.8 0 0 1 10.651 3.185l.052.028v1.084l-.15-.085a22.1 22.1 0 0 0-10.553-3.263 8.82 8.82 0 0 0-6.404 2.39c-2.577 2.58-3.09 6.765-1.445 11.785a29 29 0 0 0 2.336 5.177l.085.148zm4.605 0-.099-.154a27.5 27.5 0 0 1-2.983-6.107c-1.277-3.89-1.023-6.99.713-8.727a5.9 5.9 0 0 1 4.284-1.513c3.082 0 6.73 1.294 10.55 3.741l.153.1v-.184l-.047-.962C19.563 7.26 15.879 6 12.746 6a6.82 6.82 0 0 0-4.954 1.79c-2.003 2.003-2.34 5.446-.946 9.695a26 26 0 0 0 2.921 5.964z" opacity=".25"/><path d="M0 0v24h24V0zm1 1h22v11.663C19.385 10.304 15.898 9 13.11 9a4.4 4.4 0 0 0-3.097 1.021c-1.232 1.231-1.347 3.856-.308 7.022A25 25 0 0 0 12.712 23H1zm17 22v-1h1v1zm5-2h-1v1h1v1h-1v-1h-1v-1h1v-2h1zm-1-4v1h-1v2h-1v1h-1v-1h1v-2h-2v1h-1v1h1v1h-1v1h-1v1h-1.737a25.5 25.5 0 0 1-3.3-6.37c-.853-2.602-.858-4.828-.014-5.673a3.27 3.27 0 0 1 2.161-.633c2.75 0 6.242 1.398 9.89 3.923V17zm-6 4v1h-1v-1zm2-4v1h-1v-1zm-2-3h1v1h-1zm0 3h-1v-1h1zm3 0h-1v-1h1zm2 0v1h-1v-1zm1-1v1h-1v-1zm-9-2h1v1h-1zm8 1v1h-1v-1zm-6 2v1h-1v-1zm-4-3h1v1h-1zm6 4v1h-1v1h-2v-1h1v-1zm-3-6h1v1h-1zM3 21h1v1H3zM19 9h-1V8h1zm-4-3h-1V5h1zM5 4H4V3h1zm0 10h1v1H5zm3 4h1v1H8z"/><path fill="none" d="M0 0h24v24H0z"/></svg>