<svg xmlns="http://www.w3.org/2000/svg" viewBox="0 0 16 16"><path opacity=".25" d="M15 6.952V8.11a11.958 11.958 0 0 0-5.936-2.072 3.083 3.083 0 0 0-2.243.78C5.498 8.145 5.9 11.331 8.113 15h-1.16c-2.123-3.73-2.574-7.15-.84-8.888a4.049 4.049 0 0 1 2.951-1.074A12.423 12.423 0 0 1 15 6.952zM9.064 8.038a1.299 1.299 0 0 0-.827.192c-.493.495-.153 3.242 2.262 6.77h1.227c-2.078-2.84-2.678-5.109-2.69-5.962h.028c1.517 0 3.704 1.037 5.936 2.714v-1.241c-2.206-1.551-4.34-2.473-5.936-2.473z"/><path d="M0 0v16h16V0zm15 13h-1v1h1v1h-1v-1h-1v-1h-1v2H4.89c-2.116-4.15-2.264-7.94-.051-10.158a5.804 5.804 0 0 1 4.225-1.604A13.372 13.372 0 0 1 15 4.906zm0-9.427a14.089 14.089 0 0 0-5.936-1.535A6.974 6.974 0 0 0 3.99 3.994C1.51 6.48 1.491 10.567 3.573 15H1V1h14zM4 3H3V2h1zm0 6h1v1H4zm7 2h-1v-1h1zm0-6h-1V4h1zm-4 7h1v1H7zm6 0h-1v-1h1zm-1 0v1h-1v-1zm2 0v1h-1v-1z"/><path fill="none" d="M0 0h16v16H0z"/></svg>