<svg xmlns="http://www.w3.org/2000/svg" viewBox="0 0 24 24"><path d="m6.248 23.478-.03-.052a29.3 29.3 0 0 1-2.198-4.972C2.258 13.083 2.852 8.56 5.692 5.718a9.74 9.74 0 0 1 7.067-2.666 22.76 22.76 0 0 1 10.639 3.182l.052.028v1.082l-.15-.084A22.7 22.7 0 0 0 12.76 4a8.8 8.8 0 0 0-6.396 2.389C3.789 8.964 3.277 13.144 4.92 18.158a30.3 30.3 0 0 0 2.349 5.171l.084.149zm8.23 0-.114-.158a26.2 26.2 0 0 1-3.744-7.026c-.85-2.597-.856-4.82-.013-5.662a3.26 3.26 0 0 1 2.157-.633c2.91 0 6.648 1.551 10.528 4.368l.158.115v-.196l-.042-.998c-3.892-2.732-7.672-4.237-10.644-4.237a4.04 4.04 0 0 0-2.827.91c-1.127 1.127-1.208 3.605-.217 6.63a25.5 25.5 0 0 0 3.649 6.886z" opacity=".25"/><path d="M0 0v24h24V0zm1 1h22v8.24a20.4 20.4 0 0 0-9.976-3.238 7.04 7.04 0 0 0-5.116 1.862C5.84 9.931 5.48 13.44 6.89 17.745A25.2 25.2 0 0 0 9.387 23H1zm17 22v-1h1v1zm5-2h-1v1h1v1h-1v-1h-1v-1h1v-2h1zm-1-4v1h-1v2h-1v1h-1v-1h1v-2h-2v1h-1v1h1v1h-1v1h-1v1h-5.146a26.6 26.6 0 0 1-2.729-5.66c-1.251-3.814-1.002-6.853.7-8.558a5.8 5.8 0 0 1 4.2-1.483c2.922 0 6.365 1.197 9.975 3.446V17zm-6 4v1h-1v-1zm2-4v1h-1v-1zm-2-3h1v1h-1zm0 3h-1v-1h1zm3 0h-1v-1h1zm2 0v1h-1v-1zm1-1v1h-1v-1zm-9-2h1v1h-1zm8 1v1h-1v-1zm-6 2v1h-1v-1zm-4-3h1v1h-1zm6 4v1h-1v1h-2v-1h1v-1zm-3-6h1v1h-1zM3 21h1v1H3zM18 9h1v1h-1zm-3-4h-1V4h1zM5 4H4V3h1zM4 14h1v1H4zm5 4h1v1H9z"/><path fill="none" d="M0 0h24v24H0z"/></svg>