<svg xmlns="http://www.w3.org/2000/svg" viewBox="0 0 16 16"><path opacity=".25" d="M15 3.573v1.11a13.49 13.49 0 0 0-5.936-1.645A6 6 0 0 0 4.697 4.7C2.44 6.963 2.56 10.802 4.67 15H3.573C1.491 10.567 1.51 6.48 3.99 3.994a6.974 6.974 0 0 1 5.075-1.956A14.089 14.089 0 0 1 15 3.573zM9.064 5.038a4.049 4.049 0 0 0-2.95 1.074C4.378 7.85 4.83 11.27 6.953 15h1.159C5.9 11.33 5.498 8.145 6.82 6.818a3.083 3.083 0 0 1 2.243-.78A11.958 11.958 0 0 1 15 8.11V6.952a12.423 12.423 0 0 0-5.936-1.914z"/><path d="M0 0v16h16V0zm15 13h-1v1h1v1h-1v-1h-1v-1h-1v2h-.2c-2.03-2.776-2.617-4.993-2.63-5.827h.03c1.482 0 3.62 1.014 5.801 2.652zm0-2.627A11.324 11.324 0 0 0 9.199 8a1.443 1.443 0 0 0-.947.245c-.57.571-.227 3.298 2.108 6.755H1V1h14zM4 3H3V2h1zm0 6h1v1H4zm7-4h-1V4h1zm-3 8H7v-1h1zm5-1h-1v-1h1zm-1 0v1h-1v-1zm2 0v1h-1v-1z"/><path fill="none" d="M0 0h16v16H0z"/></svg>