<svg xmlns="http://www.w3.org/2000/svg" viewBox="0 0 16 16"><path d="M15 3.573v1.11a13.5 13.5 0 0 0-5.936-1.645A6 6 0 0 0 4.697 4.7C2.44 6.963 2.56 10.802 4.67 15H3.573C1.491 10.567 1.51 6.48 3.99 3.994a6.97 6.97 0 0 1 5.075-1.956A14.1 14.1 0 0 1 15 3.573M9.064 8.038a1.3 1.3 0 0 0-.827.192c-.493.495-.153 3.242 2.262 6.77h1.227c-2.078-2.84-2.678-5.109-2.69-5.962h.028c1.517 0 3.704 1.037 5.936 2.714v-1.241c-2.206-1.551-4.34-2.473-5.936-2.473" opacity=".25"/><path d="M0 0v16h16V0zm15 13h-1v1h1v1h-1v-1h-1v-1h-1v2H8.34a18 18 0 0 1-1.057-2L7 12.379c-.993-2.46-.997-4.457-.037-5.419a2.9 2.9 0 0 1 2.101-.722A11.87 11.87 0 0 1 15 8.344zm0-6.048a12.4 12.4 0 0 0-5.936-1.914 4.05 4.05 0 0 0-2.95 1.074C4.378 7.85 4.83 11.27 6.953 15H1V1h14zM12 12v1h-1v-1zm1 0h-1v-1h1zm1 0v1h-1v-1zM3 9h1v1H3zm5 3h1v1H8zM4 3H3V2h1zm7 1h-1V3h1zm0 7h-1v-1h1z"/><path fill="none" d="M0 0h16v16H0z"/></svg>