<svg xmlns="http://www.w3.org/2000/svg" viewBox="0 0 32 32"><path opacity=".25" d="M9.374 31H8.247a39.04 39.04 0 0 1-2.926-6.614c-2.335-7.12-1.553-13.11 2.2-16.867A12.868 12.868 0 0 1 16.862 4C21.171 4 26.05 5.506 31 8.232v1.184C26.116 6.685 21.077 5 16.862 5A11.892 11.892 0 0 0 8.23 8.226c-3.474 3.476-4.17 9.104-1.958 15.848A42.44 42.44 0 0 0 9.374 31zm7.488-19a5.278 5.278 0 0 0-3.682 1.176c-1.47 1.468-1.566 4.727-.257 8.717A35.707 35.707 0 0 0 17.67 31h1.22a35.347 35.347 0 0 1-5.017-9.418c-1.153-3.516-1.147-6.538.014-7.7A4.472 4.472 0 0 1 16.862 13c3.97 0 9.034 2.151 14.138 5.857v-1.222C25.914 14.063 20.873 12 16.862 12z"/><path d="M25 28h-1v-1h1zm0-3h-1v1h1zm0 3v1h1v-1zm-4-1h1v-1h-1zM4 29h1v-1H4zM20 6h-1v1h1zm3 20v1h1v-1zM7 5h1V4H7zm14 19v1h1v-1zm1 1v1h1v-1zM6 20h1v-1H6zm20 6h-1v1h2v-1zm-5-3h1v-1h-1zm5 2h1v-1h-1zm-3-1h1v-1h-1zm0-5h-1v1h1zm0-6h1v-1h-1zm7 9h-1v1h1zm-3 2h1v-1h-1zm5-24v32H0V0zM12.7 31a36.719 36.719 0 0 1-3.579-7.54c-1.861-5.68-1.393-10.304 1.322-13.02A9.253 9.253 0 0 1 17.162 8C21.293 8 26.117 9.674 31 12.655V1H1v30zM31 29h-1v1h-1v1h1v-1h1zm-1-3v-2h1v-9.626c-4.906-3.14-9.749-4.906-13.838-4.906a7.831 7.831 0 0 0-5.681 2.011c-2.303 2.303-2.646 6.396-.965 11.523A36.082 36.082 0 0 0 14.424 31H22v-1h1v1h1v-1h-1v-2h1v1h1v1h1v1h1v-1h-1v-1h1v-2h2v1h-1v1h1v-1h2v-2zm-3-5h1v-1h-1zm-1 1h-1v1h1zm-11-2h1v-1h-1zm-2 6h1v-1h-1zm8 3h1v-1h-1zm8-2h1v-1h-1zm-9-10h-1v1h1zm8 8v1h1v-1zm-8 1h-1v1h1zm0 4h1v-1h-1zm-1-11h-1v1h1zm0 5h1v-1h-1z"/><path fill="none" d="M0 0h32v32H0z"/></svg>