<svg xmlns="http://www.w3.org/2000/svg" viewBox="0 0 32 32"><path d="M2 21.98c-.308.257-.642.515-1 .772V7.4L16.5 1 31 7.4v14.377a47.344 47.344 0 0 1-1-1.735V8.052L17 2.314v6.972a8.244 8.244 0 0 0-1-.784V2.29L2 8.069V21.98zm13.418-3.12a7.236 7.236 0 0 0-.552 4.678 4.248 4.248 0 0 1-.318.653c.169.089.369.217.616.346.174.466.392.908.652 1.323-.886-.23-1.426-.632-1.884-.855-.724.848-1.78 2.036-2.46 2.795l4.786 1.944c.438-.747.835-1.432 1.188-2.049.26.21.538.397.826.57-.204.357-.411.716-.614 1.067l1.452-.631c.464.2.952.355 1.46.456l-4.067 1.766L.586 24.46c1.269-.868 3.741-2.48 4.396-4.037.392-.927 2.449-5.624 4.58-6.926 1.755-1.071 2.663-4.362 4.605-4.363 1.105 0 2.445 1.409 4.082 3.25 2.202 2.48 1.464 1.764 5.262 1.764.617 0 .864.066.996.116.508.19 1.328.906 2.063 1.867-1.347-.894-2.952-1.43-4.57-1.43-1.262 0-2.45.323-3.487.89.305-.247.603-.478.871-.682-.339-.213-.72-.58-1.215-1.12-.929 1.186-3.12 1.637-4.474 1.585-.839 2.081-1.338 1.987-2.141 3.577 1.565.163 3.864-.09 3.864-.09zm-4.31 1.044c-.41.946-.813 1.982-1.304 2.799 1.458.422 2.927.808 3.8 1.097.68-.997.558-1.98 1.304-3.895-.979.1-2.27.203-3.8 0zm4.313-9.017c-.617 1.19-.904 2.195-1.35 3.494.979-.024 2.88-.44 3.419-1.347-.542-.61-1.347-1.509-2.07-2.147zm-4.237 2.504c.306.276.916.718 1.86.906.471-1.331.785-2.553 1.562-4.01-1.212-.657-1.857 1.35-3.422 3.104zm-2.872 2.894c.208.788.77 2.068 2.21 2.488.904-1.896 1.39-1.76 2.148-3.531-1.046-.238-1.798-.735-2.232-1.16-.65.503-1.081.674-2.126 2.203zm-2.311 4.307c.588 1.199 1.528 1.42 2.804 1.813.481-.711.937-1.85 1.308-2.716-1.358-.444-2.087-1.472-2.474-2.34A29.31 29.31 0 0 0 6 20.593zm-.156 4.923c.703-.705 1.573-1.574 2.253-2.283-1.232-.397-1.905-.628-2.648-1.63-.729 1.043-1.905 1.995-2.774 2.626l3.169 1.287zm4.643 1.886c.58-.648 1.645-1.84 2.444-2.766-.944-.289-2.509-.707-3.766-1.077-.616.66-1.505 1.552-2.316 2.365l3.638 1.478zm20.663 3.25c0 .127-.05.248-.14.337l-.018.017a.476.476 0 0 1-.672 0l-4.578-4.579A5.773 5.773 0 0 1 22 27.8a5.8 5.8 0 1 1 5.8-5.8 5.774 5.774 0 0 1-1.367 3.736l4.578 4.578c.09.09.14.21.14.337zM26.8 22c0-2.647-2.154-4.8-4.801-4.8s-4.8 2.153-4.8 4.8 2.153 4.8 4.8 4.8 4.8-2.153 4.8-4.8z" stroke-width="0"/><path stroke-width="0" fill="none" d="M0 0h32v32H0z"/></svg>