<svg xmlns="http://www.w3.org/2000/svg" viewBox="0 0 24 24"><path d="m23.011 22.314-3.085-3.085c.6-.752.974-1.692.974-2.729a4.4 4.4 0 1 0-4.4 4.4c1.04 0 1.984-.376 2.737-.98l3.084 3.084a.476.476 0 0 0 .673 0l.017-.016a.476.476 0 0 0 0-.674m-9.91-5.814c0-1.875 1.525-3.4 3.4-3.4s3.4 1.525 3.4 3.4-1.526 3.4-3.4 3.4-3.4-1.525-3.4-3.4M2 15.735q-.4.345-.957.765L1 16.532V6.437L12.009 2.1 23 6.438v9.88a34 34 0 0 1-.801-1.777L22 14.079v-6.96l-9-3.553V8.44c-.308-.392-.631-.77-1-1.076V3.178L2 7.118zm10.003 6.12-2.062-.912c.465-.407.956-.865 1.424-1.356a6 6 0 0 1-.612-1.372c-1.038-.092-2.052-.341-3.225-.804.56-.65 1.204-1.352 1.968-2.13.188-.191.351-.38.501-.569.242.066.487.11.735.152a6 6 0 0 1 .364-.953 9 9 0 0 1-.498-.085c.443-.795.631-1.544.804-2.236.103-.41.209-.805.357-1.186.352.456.728.921 1.142 1.306q.415-.313.88-.552c-.47-.38-.916-.956-1.33-1.493C11.819 8.84 11.272 8.13 10.5 8c-.542 0-.958.47-1.483 1.064-.444.502-.996 1.127-1.686 1.515-.983.552-2.013 2.027-3.15 4.509-.353.769-1.534 1.834-2.438 2.512l-.683.512 10.937 4.833 2.153-.925a6 6 0 0 1-1.097-.617l-1.05.451zM7.82 11.45c.838-.471 1.452-1.166 1.947-1.725.237-.268.555-.628.714-.712.16.067.366.269.581.516-.316.607-.48 1.22-.63 1.818-.175.698-.36 1.414-.815 2.162-.68-.3-1.371-.81-2.214-1.74q.237-.218.417-.319m-2.73 4.053c.646-1.41 1.197-2.35 1.654-2.975.838.91 1.564 1.462 2.259 1.807-.073.081-.14.162-.221.245A44 44 0 0 0 6.558 17c-.058-.026-.11-.046-.168-.073-.819-.374-1.222-.68-1.536-1.033.083-.13.177-.262.236-.39zm.081 3.332-2.17-.96c.38-.316.832-.73 1.236-1.174.362.37.845.72 1.677 1.106q-.417.539-.743 1.028m3.765 1.663-2.833-1.252q.336-.491.768-1.036c1.266.52 2.385.851 3.495.983-.46.455-.943.882-1.372 1.255z"/><path fill="none" d="M0 0h24v24H0z"/></svg>