<svg xmlns="http://www.w3.org/2000/svg" viewBox="0 0 16 16"><path d="M5 2H2v3h3zM4 4H3V3h1zm8 0H6V3h6zM2 9h3V6H2zm1-2h1v1H3zm6.833 0a3.7 3.7 0 0 0 .033 1H6V7zm6.149.239a.1.1 0 0 0-.027-.023.09.09 0 0 0-.101.008L13.993 8.67a.196.196 0 0 1-.241.006l-.873-.65a.2.2 0 0 1-.04-.037.2.2 0 0 1-.025-.045l-.417-1.064a.21.21 0 0 1 .068-.238l1.862-1.445a.09.09 0 0 0 .033-.097.1.1 0 0 0-.013-.033.1.1 0 0 0-.058-.033 3.45 3.45 0 0 0-2.46.58 2.38 2.38 0 0 0-.56 2.914.16.16 0 0 1-.033.189c-.72.69-5.823 4.909-5.823 4.909a1.393 1.393 0 0 0 1.97 1.97l4.73-5.483a.76.76 0 0 1 .643-.26 2.36 2.36 0 0 0 2.047-.291A3.56 3.56 0 0 0 16 7.303a.08.08 0 0 0-.017-.064zM7 15H6v-1h1zm-.3-4H0V0h14v3.813c-.063-.002-.124-.013-.188-.013a5 5 0 0 0-.812.074V1H1v9h6.895l-1.196 1z"/><path fill="none" d="M0 0h16v16H0z"/></svg>