<svg xmlns="http://www.w3.org/2000/svg" viewBox="0 0 24 24"><path d="M19 7H8V6h11zM8 15h6.363l1.17-1H8zm-6 3V3h19v5h1V2H1v17h8.736c.038-.043.066-.09.107-.131l.087-.081.922-.788zm15.49-8H8v1h9.106a3.8 3.8 0 0 1 .385-1zM12 21h1v-1h-1zm-8-8h3v3H4zm1 2h1v-1H5zm2-7H4V5h3zM6 6H5v1h1zm18 5.886a4.07 4.07 0 0 1-1.4 2.621 2.8 2.8 0 0 1-2.496.385l-.057-.013-6.661 7.489a1.99 1.99 0 1 1-2.835-2.793c.026-.025 6.462-5.523 7.663-6.552a2.87 2.87 0 0 1 .808-3.317 3.87 3.87 0 0 1 2.843-.635.544.544 0 0 1 .487.46.6.6 0 0 1-.301.606l-1.646 1.285.309.788.63.469 1.708-1.327a.58.58 0 0 1 .652-.06.61.61 0 0 1 .296.594m-1.396 1.08-.824.64a.7.7 0 0 1-.853.009l-1.011-.781a1 1 0 0 1-.09-.152l-.432-1.1a.71.71 0 0 1 .228-.817l.863-.67a2.4 2.4 0 0 0-.85.4 1.9 1.9 0 0 0-.416 2.332.67.67 0 0 1-.134.766c-.019.017-.037.035-7.856 6.716a.986.986 0 0 0 .03 1.373 1.015 1.015 0 0 0 1.4 0l6.745-7.585a.69.69 0 0 1 .787-.214l.142.035a1.86 1.86 0 0 0 1.652-.2 2.5 2.5 0 0 0 .62-.752zM7 12H4V9h3zm-1-2H5v1h1z"/><path fill="none" d="M0 0h24v24H0z"/></svg>