<svg xmlns="http://www.w3.org/2000/svg" viewBox="0 0 32 32"><path d="M30.668 15.985a.61.61 0 0 0-.692.046l-2.282 1.772-.93-.693-.452-1.151 2.29-1.778a.59.59 0 0 0 .232-.58.645.645 0 0 0-.517-.521 4.95 4.95 0 0 0-3.582.855 3.63 3.63 0 0 0-.959 4.206c-.462.408-2.249 1.982-8.984 7.88a2.263 2.263 0 0 0-.113 3.297 2.23 2.23 0 0 0 1.593.661h.058a2.24 2.24 0 0 0 1.62-.744c2.96-3.297 7.366-8.192 8.059-8.934l.128.032a3.53 3.53 0 0 0 3.084-.47 5.15 5.15 0 0 0 1.744-3.26.66.66 0 0 0-.297-.618m-2.06 3.089a2.63 2.63 0 0 1-2.31.27.97.97 0 0 0-.802.074c-.085.051-.16.096-8.29 9.147a1.24 1.24 0 0 1-.9.414 1.27 1.27 0 0 1-.92-.368 1.24 1.24 0 0 1-.364-.926 1.26 1.26 0 0 1 .43-.913c4.106-3.595 9.03-7.91 9.17-8.047a.71.71 0 0 0 .144-.82 2.63 2.63 0 0 1 .583-3.18 3.7 3.7 0 0 1 1.774-.662l-1.566 1.216a.77.77 0 0 0-.24.881l.552 1.408a1 1 0 0 0 .087.15l1.285.995a.766.766 0 0 0 .925-.01l1.536-1.194a3.8 3.8 0 0 1-1.095 1.565zM16 27h1v1h-1zm9-18H11V8h14zM9 12H6v3h3zm-1 2H7v-1h1zm3 4h11.423l-1.137 1H11zm4.581 6H2V3h27v9h-1V4H3v19h13.723zM9 7H6v3h3zM8 9H7V8h1zm15.316 5H11v-1h13.35c-.073.05-.158.09-.228.145a4 4 0 0 0-.806.855M6 20h3v-3H6zm1-2h1v1H7z"/><path fill="none" d="M0 0h32v32H0z"/></svg>