<?xml version="1.0" encoding="UTF-8"?><svg id="icons" xmlns="http://www.w3.org/2000/svg" viewBox="0 0 32 32"><defs><style>.cls-1{fill:none;}</style></defs><path d="M19,16.99994h10v3.00006h1V5H2v22h18v-1h-1v-4h1v-1h-1v-4.00006ZM29,16h-10v-4h10v4ZM3,12h5.00012v4H3v-4ZM3,16.99994h5.00012v4.00006H3v-4.00006ZM3,22h5.00012v3h-.00012v1H3v-4ZM18,26h-9v-4h9v4ZM18,16.99994v4.00006h-9v-4.00006h9ZM9,16v-4h9v4h-9ZM3,11v-5h26v5H3ZM21,21h3v1h-2v9h2v1h-3v-11ZM32,21v11h-3v-1h2v-9h-2v-1h3Z"/><rect class="cls-1" width="32" height="32"/></svg>