<?xml version="1.0" encoding="UTF-8"?><svg id="icons" xmlns="http://www.w3.org/2000/svg" viewBox="0 0 24 24"><defs><style>.cls-1{fill:none;}</style></defs><rect class="cls-1" width="24" height="24"/><path d="M13,20h-7v-3h7v-.99994h-7v-3.00006h8v1h1v-1h7v1h1V3H1v18h12v-1ZM14,12.00006H6v-3.00006h8v3.00006ZM22,12.00006h-7v-3.00006h7v3.00006ZM2,4h20v4H2v-4ZM5,20h-3v-3h3v3ZM5,16.00006h-3v-3.00006h3v3.00006ZM5,12.00006h-3v-3.00006h3v3.00006ZM17,24h-3v-9h3v1h-2v7h2v1ZM24,15v9h-3v-1h2v-7h-2v-1h3Z"/></svg>