<svg xmlns="http://www.w3.org/2000/svg" viewBox="0 0 32 32"><path d="M20.878 21.144a1.06 1.06 0 0 0 .17-.603 1 1 0 0 0-.03-.202c-.03-.113-1.16-4.578-1.16-4.578l-1.926-1.878s-.343-4.121-.454-5.405c-.109-1.284-1.869-1.39-3.45-1.469a149 149 0 0 0-3.037 5.935.72.72 0 0 0 .296.934.74.74 0 0 0 1.024-.298l2.16-3.985.479 4.44 2.844 2.694 1.173 4.308a1.1 1.1 0 0 0 .416.48l-7.766 1.942a1.1 1.1 0 0 0 .445-.42l3.527-4.484.446-2.114-1.633-1.548-.782 2.462-3.366 4.485a1.082 1.082 0 0 0 .876 1.74L2 25.864V30h28V18.863zM29 29H3v-2.355l26-6.5zM18.753 11.689l-.165-1.967 3.162 1.765a.881.881 0 0 1-.824 1.51c-.611-.37-2.173-1.308-2.173-1.308M14.1 4A1.9 1.9 0 1 1 16 5.9 1.9 1.9 0 0 1 14.1 4"/><path fill="none" d="M0 0h32v32H0z"/></svg>