<?xml version="1.0" encoding="UTF-8"?><svg id="icons" xmlns="http://www.w3.org/2000/svg" viewBox="0 0 16 16"><defs><style>.cls-1{fill:none;}</style></defs><path d="M7,12h-2v-2h2v2ZM7,4h-2v2h2v-2ZM9,7h-2v2h2v-2ZM9,5h-1v1h1v-1ZM11,5h-1v1h1v-1ZM9,10h-1v1h1v-1ZM6,7h-1v1h1v-1ZM4,7h-1v1h1v-1ZM4,5h-1v1h1v-1ZM4,9h-1v1h1v-1ZM9,4v-.57611c-.31842-.13977-.65125-.25165-1-.32275v.89886h1ZM8.16277,13.90759c-.33635.05652-.67985.09241-1.03242.09241-3.36995,0-6.11172-2.69171-6.11172-6S3.76039,2,7.13034,2c2.65485,0,4.91343,1.67346,5.75511,4h.35662c.26821,0,.52317.05408.75793.14697-.8285-2.96527-3.58619-5.14697-6.86966-5.14697C3.19233,1,0,4.13397,0,8s3.19233,7,7.13034,7c.32541,0,.64317-.02887.95701-.07031l.07541-1.02209ZM14,8v1c0,.55225-.44769,1-1,1h-1c-.55231,0-1-.44775-1-1v-1c0-.55231.44769-1,1-1h1c.55231,0,1,.44769,1,1ZM13,8h-1v1h1v-1ZM10.25977,13.34326c.04297-.75342.5459-1.34326,1.14453-1.34326h2.19141c.59863,0,1.10156.58984,1.14648,1.36475l.26367,2.59131.99414-.10059-.26172-2.56982c-.07324-1.28174-1.01465-2.28564-2.14258-2.28564h-2.19141c-1.12793,0-2.06934,1.00391-2.14062,2.26465l-.26074,2.6001.99414.09961.2627-2.62109ZM4,11.97437v-.97437h-.97443c.27905.36871.60571.69531.97443.97437Z"/><rect class="cls-1" width="16" height="16"/></svg>