<svg xmlns="http://www.w3.org/2000/svg" viewBox="0 0 32 32"><path fill="none" d="M0 0h32v32H0z"/><path d="M14 13h1v1h-1v-1zm0-1h1v-1h-1v1zm0 4h1v-1h-1v1zm0-6h1V9h-1v1zm2 2h1v-1h-1v1zm1-3h-1v1h1V9zm-1 5h1v-1h-1v1zm-2 6h1v-1h-1v1zm-2-8.06l.06.06H13v-1h-1v.94zM14 18h1v-1h-1v1zM7 7H6v1h1V7zm-2 8.5C5 13.57 6.57 12 8.5 12s3.46 1.57 3.46 3.5S10.43 19 8.5 19 5 17.43 5 15.5zm1 0a2.5 2.5 0 0 0 5 0 2.5 2.5 0 0 0-5 0zm10 .5h1v-1h-1v1zm-5.67 4H6.67c-1.7 0-3.12 1.56-3.23 3.55L3 29.67l.98.07.44-6.13C4.5 22.15 5.49 21 6.67 21h3.66c1.18 0 2.17 1.15 2.25 2.62l.44 6.11.98-.08-.44-6.09c-.11-2-1.53-3.56-3.23-3.56zM8 10h1V9H8v1zm-2 0h1V9H6v1zm3-3H8v1h1V7zm-5 3h1V9H4v1zm0-2h1V7H4v1zm8 2h1V9h-1v1zm-2 0h1V9h-1v1zm-6 2h.94l.06-.06V11H4v1zm20 4h1v-1h-1v1zm-2 0h1v-1h-1v1zm-6 2h1v-1h-1v1zm7-5h-1v1h1v-1zm-3 3h1v-1h-1v1zm0 2h1v-1h-1v1zm2 0h1v-1h-1v1zm3-5h-1v1h1v-1zM3 9H2v1h1V9zm0-2H2v1h1V7zm-1 7h1v-1H2v1zm1-3H2v1h1v-1zm17 3h1v-1h-1v1zm-2 4h1v-1h-1v1zm0-4h1v-1h-1v1zm0 2h1v-1h-1v1zm0-4h1v-1h-1v1zm-2 8h1v-1h-1v1zm3-11h-1v1h1V9zm1 3h1v-1h-1v1zm1-3h-1v1h1V9zm-3 11h1v-1h-1v1zM11 7h-1v1h1V7zm2 0h-1v1h1V7zm2 0h-1v1h1V7zm16.884.881l-.364-.447-.042-.833a.496.496 0 0 0-.096-.271l-.182-.247a.499.499 0 0 0-.402-.204h-.312a.497.497 0 0 0-.345.139l-.646.616a.509.509 0 0 0-.098.128l-.182.345a.506.506 0 0 0-.051.15l-.108.636-.955.456h-.762a.495.495 0 0 0-.252.069l-.826.482a.504.504 0 0 0-.162.151l-.301.444a.506.506 0 0 0-.068.146l-.2.717-1.674.92-.088-.12V8.95a.502.502 0 0 0-.215-.412l-1.79-1.235a.5.5 0 0 0-.264-.088l-1.783-.07-.262-.329a.5.5 0 0 0-.325-.185l-1.05-.14a.529.529 0 0 0-.122-.002l-.658.073-.117-.24a.5.5 0 0 0-.389-.277L15.883 6l-1.487.012C10.356 6.051 7 6.096 1.644 5.01a.505.505 0 0 0-.592.382l-.072.234-.296-.113a.5.5 0 0 0-.679.467l.034 7.136a.51.51 0 0 0 .048.213l.274.582v.596a.5.5 0 0 0 .189.391l.356.284a.5.5 0 0 0 .058.272l1.02 1.923v.122a.5.5 0 0 0 .37.483l.575.156.684.488.528-.74a3.75 3.75 0 0 1-.093-.178l-.612-.436a.497.497 0 0 0-.16-.075l-.312-.085a.534.534 0 0 0-.038-.093L2.386 16H3v-1h-.915l-.007-.061a.495.495 0 0 0-.048-.167l-.074-.151a.504.504 0 0 0-.499-.278l-.096-.077V13.8a.504.504 0 0 0-.047-.213L1 13.004l-.008-1.956L1 7.584l.01-.614a.502.502 0 0 0 .275.105.534.534 0 0 0 .384-.142l.38-.374a.5.5 0 0 0 .124-.516c4.929.976 8.324.944 12.233.907l1.42-.016.536.066H16v1h1v-.417c.021 0 .038.014.06.011l.94-.103V8h1v-.148l.075.094a.5.5 0 0 0 .372.189l1.867.074L22.461 9H22v1h.769v1H22v1h1v-.2l.312.43c.15.21.438.269.656.14l.635-.37H25v-.23l.114-.067.886-.461V12h1v-1h-.65a.497.497 0 0 0 .086-.164l.233-.836H27v-.373l.475-.278H28V10h1v-.972l.72-.345a.501.501 0 0 0 .278-.367L30.052 8h.64l.03.038a.489.489 0 0 0-.122.139l-1.08 1.815-.427.435a.504.504 0 0 0-.143.386l.014.187H28v.872l-.25.062a.5.5 0 0 0-.38.575l.012.064-.507.427H26v1h.598l-.03.34-.147.408a.484.484 0 0 0-.03.17V15H26v1h.33l-.098.177a.506.506 0 0 0-.051.14l-.109.51-.285.149a.476.476 0 0 0-.097.067l-.69.609V17h-1v1h.605l-.727.64a.489.489 0 0 0-.14.204l-.422 1.155a.5.5 0 0 0-.01.312l.444 1.518c.01.037.025.073.044.106l.482.853-.165.494-.259.367-.832-1.063-.028-.404a.493.493 0 0 0-.03-.135l-.654-1.81a.5.5 0 0 0-.185-.237H23v-1h-1v.939a.473.473 0 0 0-.24-.026l-.34.06-.42.003V19h-1v1h.06l-.452.24a.496.496 0 0 0-.171.15l-.175.243-1.187-.07-.344.032-.424-.244a.56.56 0 0 0-.282-.066l-.316.02a.501.501 0 0 0-.416.275l-.252.503-.48.42-.591.704c-.013.015-.018.034-.029.05.108.388.187.791.211 1.213l.037.502a.49.49 0 0 0 .38-.021.502.502 0 0 0 .262-.43l.018-.807.422-.51.5-.43a.517.517 0 0 0 .12-.155l.137-.274.342.196c.09.052.195.073.298.065l.423-.047 1.385.089a.511.511 0 0 0 .438-.208l.267-.372.277-.147.462.052.579-.007.009-.001.491 1.357.034.487c.007.1.044.195.106.273l1.184 1.513a.5.5 0 0 0 .394.192h.297a.5.5 0 0 0 .408-.212l.549-.776a.506.506 0 0 0 .066-.13l.259-.776a.5.5 0 0 0-.04-.404l-.563-.996-.38-1.305.32-.882 1.674-1.473.435-.23a.5.5 0 0 0 .254-.332l.15-.68.183-.335a.504.504 0 0 0 .062-.24v-1.01l.141-.392a.488.488 0 0 0 .03-.14l.063-.799.622-.523a.5.5 0 0 0 .177-.346l.88-.202a.5.5 0 0 0 .338-.268l.086-.176.159-.179c.09-.1.134-.233.125-.367l-.048-.648.311-.316a.495.495 0 0 0 .074-.095l.964-1.623h.182a.5.5 0 0 0 .5-.5v-.236a.499.499 0 0 0-.111-.315z"/></svg>