<svg xmlns="http://www.w3.org/2000/svg" viewBox="0 0 24 24"><path d="M13.14 20.764A9.983 9.983 0 0 1 11 21C5.486 21 1 16.514 1 11S5.486 1 11 1c4.776 0 8.775 3.367 9.761 7.851a3.477 3.477 0 0 0-1.187-.665C18.388 4.582 14.996 1.971 11 1.971 6.021 1.97 1.97 6.02 1.97 11s4.051 9.03 9.03 9.03c.765 0 1.504-.107 2.213-.287l-.073 1.02zm2.116-2.756c.064-1.126.832-2.008 1.746-2.008h2.996c.914 0 1.682.882 1.746 2.016l.357 4.908.998-.072-.357-4.901c-.095-1.655-1.3-2.951-2.744-2.951h-2.996c-1.444 0-2.65 1.296-2.744 2.943l-.357 4.92.998.073.357-4.928zM20.97 11.5c0-1.378-1.109-2.5-2.47-2.5-1.379 0-2.5 1.122-2.5 2.5s1.121 2.5 2.5 2.5c1.361 0 2.47-1.122 2.47-2.5zm-1 0c0 .841-.646 1.5-1.47 1.5-.827 0-1.5-.673-1.5-1.5s.673-1.5 1.5-1.5c.824 0 1.47.659 1.47 1.5zM13 5h-2v2h2V5zm0-1.797a8.018 8.018 0 0 0-2-.261V4h2v-.797zm4 2.437V7h.985A8.087 8.087 0 0 0 17 5.64zM14 14v1.814c.478-.77 1.18-1.344 2-1.618V14h-2zm2-9h-2v2h2V5zM7 8H5v2h2V8zm2-2H6V4.693c-.36.286-.693.604-1 .947V7h5V3.01c-.34.043-.674.11-1 .193V6zm2 13h.93a7.992 7.992 0 0 0 1.07-.203V17h-2v2zm-3-9h2V8H8v2zm0 3h2v-2H8v2zm3 3h2v-2h-2v2zm-6 .36c.307.343.64.661 1 .947V15h3v3H7.024a7.99 7.99 0 0 0 2.976.99V14H5v2.36zM7 11H5v2h2v-2zm-3.797 2H4v-2H2.942c0 .691.097 1.36.261 2zm-.192-3H4V8h-.473a7.99 7.99 0 0 0-.516 2zm12.04 2H12V9h3v1h.351A3.51 3.51 0 0 1 16 9.058V8h-5v5h4.351a3.455 3.455 0 0 1-.3-1z"/><path fill="none" d="M0 0h24v24H0z"/></svg>