<?xml version="1.0" encoding="UTF-8"?><svg id="icons" xmlns="http://www.w3.org/2000/svg" viewBox="0 0 16 16"><defs><style>.cls-1{fill:none;}</style></defs><rect class="cls-1" width="16" height="16"/><path d="M4,5h1v1h-1v-1ZM2,8h1v-1h-1v1ZM3,3h-1v1h1v-1ZM6.59998,11h-2.19995c-1.12,0-2.07001,1-2.14001,2.26001l-.26001,2.59998,1,.09998.26001-2.62c.03998-.75.54999-1.33997,1.14001-1.33997h2.19995c.59003,0,1.10004.58997,1.14001,1.35999l.26001,2.59998,1-.09998-.26001-2.57001c-.07001-1.28998-1.02002-2.28998-2.14001-2.28998ZM4,8c0-.54999.45001-1,1-1h1c.54999,0,1,.45001,1,1v1c0,.54999-.45001,1-1,1h-1c-.54999,0-1-.45001-1-1v-1ZM5,9h1v-1h-1v1ZM2,6h1v-1h-1v1ZM8,10h1v-1h-1v1ZM10,8h1v-1h-1v1ZM9,5h-1v1h1v-1ZM11,5h-1v1h1v-1ZM7,5h-1v1h1v-1ZM8,8h1v-1h-1v1ZM16,3.45996v.12695c0,.25-.18359.45703-.42285.49414l-.39941.74463c-.01855.03418-.04004.06592-.06641.09521l-.08887.10059.01758.25977c.00781.125-.03027.24805-.10938.3457l-.08789.14111c-.06152.14014-.18555.24414-.33398.28174l-.28027.07129c-.02734.06006-.06543.11475-.11523.16064l-.2373.22119-.02246.33984c-.00195.04297-.00977.08545-.02344.12646l-.05859.17969v.51025c0,.07666-.01758.15283-.05176.22168l-.09277.24902-.0498.24463c-.0293.13965-.11523.26025-.23828.33203l-.23242.15381-.10059.13232-.00391.23828.9248,1.50781c.04785.07861.07324.16895.07324.26123v1.5c0,.27637-.22363.5-.5.5h-1.5c-.17383,0-.33496-.09033-.42676-.23877l-1.2002-1.95898-.05176.05127c-.09375.09375-.2207.14648-.35352.14648h-.76074l-.10809.05164c-.23114-.28369-.50024-.52698-.80115-.72168l.58014-.28113c.06738-.03223.1416-.04883.21582-.04883h.66699l.23926-.23926v-.76074h1v.91089l1.28027,2.08911h.71973v-.85889l-.92676-1.51123c-.04883-.08057-.07422-.17383-.07324-.26855l.00781-.54785c.00195-.10938.03906-.21533.10645-.30127l.38867-.45947c.02124-.0202.04547-.03632.0694-.05273h-.57233v-1h.78247c.00397-.0285.00433-.05737.01343-.08496l.06348-.19385.03906-.50293c.00769-.07965.04041-.15192.08307-.21826h-.98151v-.97772l-.46094.01874c-.13281.01172-.26855-.04443-.36719-.13867-.09766-.09424-.15332-.22461-.15332-.36084v-.43018l-.14532-.11133h-.87323v-.32678l-.34375-.01501c-.15332-.00684-.2959-.0835-.38477-.2085l-.07227-.10059-.19922-.0293v.68018h-1v-.97205l-.12305-.01721-.64355-.01074c-.07819.00092-.15552.00092-.2334.00183v.99817h-1v-.9903c-1.34155-.00012-2.7254-.06091-4.46387-.41986-.02148.0498-.05176.09619-.08984.1377l-.18457.20068c-.06738.07275-.15332.12305-.24707.14648l.00293.04785-.00488,1.86914.00391,1.0083.11621.27393c.02539.06152.03906.12793.03906.19482v.12402c.12012.04443.22168.12305.27051.23242.02246.0498.07227.18457.07715.23877l.00977.10693c.00391.04492.00195.08887-.00586.13184l.39844.77051c.06055.01807.11719.04785.16699.08691l.36621.28955c.0459.03662.08594.08105.11621.13184l.12988.21338h.20312v1h-.62695c-.27637,0-.5-.22363-.5-.5l-.0127-.11621-.22168-.1748-.22852-.06885c-.21191-.06348-.35645-.2583-.35645-.479v-.01953l-.47363-.98926c-.02051-.04297-.03418-.08789-.04199-.13379l-.10156-.08936c-.10742-.09473-.16895-.23145-.16895-.375v-.27881l-.11621-.27393c-.02539-.06152-.03906-.12793-.03906-.19482l-.0166-3.83154c0-.16748.08398-.32422.22363-.41699.09375-.06152.20605-.08887.31445-.08154.03809-.09473.10547-.17627.19238-.23242.11523-.07324.25586-.09668.38477-.06592,2.49707.5874,4.1709.56836,6.10742.54883l.71973-.00635.48047.06104c.15625.02148.29297.11572.36914.25244l.12109-.01514c.04492-.00488.08887-.00488.13379.00195l.50879.0752c.13379.02002.25488.09326.33301.20361l.05371.0752.73145.03174c.10254.00439.20117.04004.28223.10254l.86621.66357c.12402.09473.19629.24121.19629.39697v.15625l.19531-.0083.40039-.12549.04785-.07812c.03906-.06396.0918-.11816.15527-.15869l.39941-.25879c.08105-.05273.1748-.08057.27148-.08057h.29883l.29395-.15576.03516-.22998c.00781-.04883.02246-.09619.04297-.14062l.08887-.18506c.02246-.04639.05176-.08936.08691-.12646l.3125-.31592c.09473-.10059.22656-.15723.36426-.15723h.15039c.16797,0,.32422.06836.41699.2085l.08789.13281c.0498.0752.07812.1626.08203.25293l.01758.38379.13672.18652c.0625.08594.09668.18896.09668.29541ZM14.43164,4.10107l-.28516.15137c-.07227.03857-.15234.05859-.23438.05859h-.27637l-.17969.1167-.08594.14111c-.06348.10303-.16211.18018-.27734.21631l-.64355.20166c-.02466.00775-.05035.00934-.07568.01318h.62646v.97516c.01849-.02515.03265-.05328.05566-.07477l.18652-.17383c.00098-.22412.15332-.42529.37695-.48193l.40918-.104-.01758-.26123c-.00879-.1333.03613-.26465.125-.36475l.18848-.21289.10742-.20068ZM5,3h-1v1h1v-1Z"/></svg>