<?xml version="1.0" encoding="UTF-8"?><svg id="icons" xmlns="http://www.w3.org/2000/svg" viewBox="0 0 24 24"><defs><style>.cls-1{fill:none;}</style></defs><rect class="cls-1" width="24" height="24"/><path d="M9,6h-1v-1h1v1ZM8,7.52997c.34998.04999.69.14001,1,.27002v-.79999h-1v.52997ZM4,8h1v-1h-1v1ZM12,10h1v-1h-1v1ZM7.51575,9c1.35999,0,2.46899,1.12,2.46899,2.5,0,2.43488-3.07465,3.39215-4.46899,1.5-1.21704-1.6098-.08484-4,2-4ZM6.01575,11.5c0,.82996.66998,1.5,1.5,1.5.82001,0,1.46997-.66003,1.46997-1.5,0-.84003-.64996-1.5-1.46997-1.5-.83002,0-1.5.66998-1.5,1.5ZM11,5h-1v1h1v-1ZM10,8h1v-1h-1v1ZM5,5h-1v1h1v-1ZM6,7.79999c.31-.13.65002-.22003,1-.27002v-.52997h-1v.79999ZM7,5h-1v1h1v-1ZM8.99805,15h-2.99609c-1.44434,0-2.64941,1.29639-2.74414,2.94336l-.35645,4.92041.99805.07227.35645-4.92773c.06445-1.12646.83203-2.0083,1.74609-2.0083h2.99609c.91406,0,1.68164.88184,1.74609,2.01562l.35645,4.9082.99805-.07227-.35645-4.90088c-.09473-1.6543-1.2998-2.95068-2.74414-2.95068ZM13,7h-1v1h1v-1ZM18,12h1v-1h-1v1ZM16,12h1v-1h-1v1ZM17,9h-1v1h1v-1ZM19,9h-1v1h1v-1ZM16,14h1v-1h-1v1ZM3,5h-1v1h1v-1ZM3,7h-1v1h1v-1ZM2,10h1v-1h-1v1ZM14,10h1v-1h-1v1ZM12,12h1v-1h-1v1ZM14,14h1v-1h-1v1ZM12,14h1v-1h-1v1ZM14,12h1v-1h-1v1ZM15,7h-1v1h1v-1ZM23.88379,5.42773l-.24316-.29932-.0293-.57568c-.00488-.09814-.03809-.19287-.09668-.27197l-.13477-.18262c-.09473-.12793-.24316-.20312-.40234-.20312h-.23047c-.12891,0-.25195.04932-.34473.13818l-.47949.45752c-.03906.03711-.07227.08008-.09668.12744l-.13574.25586c-.02539.04688-.04199.09766-.05176.1499l-.06934.40576-.62109.29736h-.53613c-.08887,0-.17578.02344-.25195.06836l-.61328.3584c-.06445.0376-.12012.08936-.16211.15137l-.22266.3291c-.03027.04443-.05273.09375-.06738.14551l-.13379.47852-1.06836.58398v-1.54102c0-.16455-.08105-.31836-.21582-.41162l-1.32812-.91602c-.07812-.05371-.16992-.08447-.26465-.08789l-1.26367-.0498-.1582-.19824c-.08008-.10107-.19629-.16699-.32422-.18408l-.7793-.104c-.04102-.00537-.08008-.00635-.12109-.00146l-.39844.04395-.04688-.09717c-.07422-.15186-.2207-.25537-.38867-.27588l-.69141-.08105c-3.4248.0166-5.99902-.0376-10.33594-.95654-.2168-.04492-.44043.05859-.54492.25488l-.2334.43896-.11426-.04346c-.15137-.05908-.32715-.03857-.46191.05469-.13574.09375-.2168.24756-.2168.41211l.02539,5.29346c0,.07373.0166.14648.04785.21338l.19141.40576v.41309c0,.15234.06934.29639.18848.39111l.21582.17188c.00488.06885.02441.13672.05762.19971l.74121,1.39893v.05859c0,.22559.15137.42334.36914.48242l.40527.10986.41504.2959.06738.09961v.1709c0,.27637.22363.5.5.5h.77441v-1h-.30566c-.01465-.03711-.03223-.07227-.05469-.10547l-.2041-.30078c-.03418-.04932-.0752-.0918-.12402-.12646l-.56152-.3999c-.04785-.03418-.10156-.06006-.15918-.0752l-.16895-.0459c-.00391-.00781-.00781-.01514-.01172-.02246l-.12024-.22705h.70618v-1h-1v.44507l-.19922-.37622c.0166-.05957.02246-.12354.01562-.18945l-.01562-.14795c-.00586-.05859-.02246-.11572-.04883-.16846l-.05566-.11279c-.08203-.16748-.24805-.27051-.42676-.27832v-.27246c0-.07373-.0166-.14648-.04785-.21338l-.19141-.40576-.00586-1.42188.00684-2.57666-.01172-.24902c.01855.00293.03711.00537.05566.00684.13672.00684.28223-.04297.38379-.14258l.28223-.27734c.15039-.14795.19043-.37207.10547-.56055,4.14941.84424,6.70117.89551,10.00781.875l.3584.04443.01056.02148h-.22345v1h1v-.59778l.48633-.05359.51367.06854v.58282h1v-.15619l.90039.03558.99219.68457v.43604h-.89258v1h.89258v.05957c0,.10547.0332.20801.09473.29346l.33203.45801c.15137.20898.43457.26758.65625.13916l1.63965-.90527c.12207-.06396.21289-.17578.25-.30859l.13477-.48016v.74384h1v-1h-.87769l.0271-.04004.39844-.23291h.51367c.07422,0,.14844-.0166.21582-.04883l.95703-.45801c.14648-.07031.25-.20703.27734-.3667l.09961-.58154.03223-.06104.00684.13037c.00488.1001.04004.19629.09961.27588-.01074.01416-.02051.0293-.03027.04492l-.79395,1.3335-.30566.31152c-.09961.10254-.15137.24316-.1416.38623l.03223.4375-.01074.01221c-.02051.02295-.03809.04736-.05371.07324l-.75684.17334c-.25098.05762-.41602.29541-.38477.54834l-.35547.29932c-.09863.08301-.16113.2002-.1748.32861l-.06152.7085-.10352.28467c-.02051.05469-.03027.1123-.03027.17041v.68701l-.10156.18555c-.02344.04297-.04004.08887-.0498.13721l-.06836.31934-.15918.0835c-.07715.04102-.14258.10156-.18945.17627l-.74512,1.18408c-.01953.02979-.03516.06152-.04688.09521l-.3125.85791c-.03613.09961-.04004.2085-.01074.31055l.32812,1.12598c.02246.07715.06348.14746.11816.20557l.62402.65381.08594.74756-.00293.38037h-.40918l-.54297-1.1377c-.02539-.05273-.05957-.10059-.10156-.1416l-.74707-.7334-.44629-1.23584c-.08301-.22559-.2998-.36621-.5498-.32373l-.54297.04639-.41406-.04932c-.10449-.01074-.20312.00781-.29297.05469l-.38477.20361c-.06934.03613-.12793.08789-.17383.15137l-.08691.12256-.8291-.04834-.21387.02051-.2793-.16113c-.08496-.04883-.18359-.06787-.28223-.06592l-.23535.01514c-.17676.01123-.33496.11621-.41504.2749l-.21973.43848.89453.44824.04102-.08203.13477.07812c.08984.05176.1875.07324.29785.06445l.29297-.03418,1.02734.06592c.17188.00879.33887-.06787.43945-.2085l.17871-.25098.14453-.07617.31641.03516.34668-.00488.34961.96875c.02637.0708.06738.13477.12109.18701l.76562.75098.64062,1.34277c.08301.17383.25879.28467.45117.28467h1.21973c.27441,0,.49707-.22119.5-.49561l.00488-.93555-.1084-.97559c-.0127-.10889-.05957-.21045-.13477-.29004l-.65527-.68701-.24902-.85205.23828-.65381.64551-1.02539.24414-.12842c.12891-.06836.22168-.18945.25391-.33203l.0752-.33154.16016-.38916c.04004-.07324.06055-.15576.06055-.23926v-.72656l.09766-.27002c.0166-.04492.02637-.0918.0293-.13965l.04102-.53467.42188-.35547c.07812-.06592.13281-.15283.15918-.24854l.57129-.13086c.14746-.03369.27148-.13232.33789-.26807l.16113-.23389c.08984-.10107.13477-.2334.125-.36768l-.03125-.42236.19043-.19336c.02734-.02832.05176-.06006.07227-.09424l.67871-1.14062h.06152c.27637,0,.5-.22363.5-.5v-.17529c0-.11475-.03906-.22607-.11133-.31494Z"/></svg>