<svg xmlns="http://www.w3.org/2000/svg" viewBox="0 0 32 32"><path d="M15.5 28.8a13.25 13.25 0 0 0 3.06-.37l-.077 1.053a14.34 14.34 0 0 1-2.983.317c-7.898 0-14.3-6.402-14.3-14.3S7.602 1.2 15.5 1.2h.005a14.283 14.283 0 0 1 14.182 12.585 5.026 5.026 0 0 0-1.247-1.31 13.355 13.355 0 0 0-8.426-9.484A.01.01 0 0 0 20 3C11.155-.194 2.2 6.557 2.2 15.5c0 7.461 6.157 13.3 13.3 13.3zm15.064-4.244C30.452 22.562 29.031 21 27.33 21h-3.66c-1.701 0-3.122 1.562-3.234 3.548L20 30.67l.98.072.436-6.128C21.499 23.148 22.489 22 23.67 22h3.66c1.181 0 2.171 1.148 2.254 2.62l.436 6.106.98-.072-.436-6.098zM22 16.5c0-1.927 1.568-3.495 3.495-3.495s3.495 1.568 3.495 3.495-1.568 3.495-3.495 3.495S22 18.427 22 16.5zm.999 0c0 1.376 1.12 2.496 2.496 2.496s2.496-1.12 2.496-2.496-1.12-2.496-2.496-2.496-2.496 1.12-2.496 2.496zM20 16h-5v-5h5v5zm-1-4h-3v3h3v-3zm-8-1H9v2h2v-2zm4-1h2V8h-2v2zM5 20h-.936c.259.655.574 1.279.936 1.873V20zm0-3H3.301c.084.685.221 1.354.413 2H5v-2zm4-1h2v-2H9v2zm11-8h-2v2h2V8zm3-2.227c-.36-.278-.737-.535-1.127-.773H21v2h2V5.773zM21 13h.938A5.014 5.014 0 0 1 23 12.196V11h-2v2zm0-3h2V8h-2v2zm3 1.755a4.93 4.93 0 0 1 1.5-.255c.171 0 .333.034.5.05V11h-2v.755zm2-2.628c-.238-.39-.495-.767-.773-1.127H24v2h2v-.873zM15 7h2V5h-2v2zM5 14H3.301c-.06.493-.1.991-.1 1.5 0 .169.018.333.025.5H5v-2zm15-9h-2v2h2V5zm-2 20h.808l.04-.56c.03-.503.125-.986.274-1.44H18v2zm2-6v-2h-2v2h2zm0 1h-2v2h1.573a5.3 5.3 0 0 1 .427-.64V20zm-9 6H9.127c.594.362 1.218.677 1.873.936V26zm3-15h-2v2h2v-2zm0 3h-2v2h2v-2zm-9-3h-.936a12.164 12.164 0 0 0-.607 2H5v-2zm9 12h-2v2h2v-2zm0-1H9v-5h5v5zm-1-4h-3v3h3v-3zm-1 9.286c.646.192 1.315.329 2 .413V26h-2v1.286zM17 17h-2v2h2v-2zm-2 10.774c.167.007.331.026.5.026.509 0 1.007-.04 1.5-.101V26h-2v1.774zm3-.23c.216-.045.425-.107.636-.165l.1-1.379H18v1.543zM17 20h-2v2h2v-2zm0 3h-2v2h2v-2zm-3-13H9V5.077L9.127 5H14v5zm-1-4h-3v3h3V6zM8 17H6v2h2v-2zm0 3H6v2h2v-2zm0-6H6v2h2v-2zm3 9H9v2h2v-2zm-5 .303c.51.619 1.078 1.188 1.697 1.697H8v-2H6v.303zM8 11H6v2h2v-2zm0-5.227A12.45 12.45 0 0 0 6.631 7H8V5.773zM8 8H6v2h2V8zm6-4.699c-.685.084-1.354.221-2 .413V4h2v-.699zm3 0c-.493-.06-.991-.1-1.5-.1-.169 0-.333.018-.5.025V4h2v-.699zM18 4h1.824A12.149 12.149 0 0 0 18 3.457V4z"/><path fill="none" d="M0 0h32v32H0z"/></svg>