<svg xmlns="http://www.w3.org/2000/svg" viewBox="0 0 16 16"><path d="M7 12H5v-2h2zm0-8H5v2h2zm2 3H7v2h2zm0-2H8v1h1zm2 0h-1v1h1zm-2 5H8v1h1zM6 7H5v1h1zM4 7H3v1h1zm0-2H3v1h1zm0 4H3v1h1zm5-5v-.576A5 5 0 0 0 8 3.1V4zm-.837 9.908c-.337.056-.68.092-1.033.092-3.37 0-6.111-2.692-6.111-6S3.76 2 7.13 2c2.655 0 4.914 1.673 5.755 4h.357c.268 0 .523.054.758.147C13.171 3.182 10.414 1 7.13 1 3.192 1 0 4.134 0 8s3.192 7 7.13 7c.326 0 .644-.029.957-.07zM14 8v1a1 1 0 0 1-1 1h-1a1 1 0 0 1-1-1V8a1 1 0 0 1 1-1h1a1 1 0 0 1 1 1m-1 0h-1v1h1zm-2.74 5.343c.043-.753.546-1.343 1.144-1.343h2.192c.598 0 1.101.59 1.146 1.365l.264 2.591.994-.1-.262-2.57C15.665 12.004 14.724 11 13.596 11h-2.192c-1.128 0-2.07 1.004-2.14 2.265l-.261 2.6.994.1zM4 11.974V11h-.974q.42.555.974.974"/><path fill="none" d="M0 0h16v16H0z"/></svg>