<svg xmlns="http://www.w3.org/2000/svg" viewBox="0 0 24 24"><path fill="none" d="M0 0h24v24H0z"/><path d="M9 6H8V5h1v1zM8 7.53c.35.05.69.14 1 .27V7H8v.53zM4 8h1V7H4v1zm8 2h1V9h-1v1zM7.516 9c1.36 0 2.469 1.12 2.469 2.5 0 2.435-3.075 3.392-4.47 1.5-1.216-1.61-.084-4 2-4zm-1.5 2.5c0 .83.67 1.5 1.5 1.5.82 0 1.47-.66 1.47-1.5s-.65-1.5-1.47-1.5c-.83 0-1.5.67-1.5 1.5zM11 5h-1v1h1V5zm-1 3h1V7h-1v1zM5 5H4v1h1V5zm1 2.8c.31-.13.65-.22 1-.27V7H6v.8zM7 5H6v1h1V5zm1.998 10H6.002c-1.444 0-2.65 1.296-2.744 2.943l-.357 4.92.998.073.357-4.928C4.32 16.882 5.088 16 6.002 16h2.996c.914 0 1.682.882 1.746 2.016l.357 4.908.998-.072-.357-4.901C11.647 16.296 10.442 15 8.998 15zM13 7h-1v1h1V7zm5 5h1v-1h-1v1zm-2 0h1v-1h-1v1zm1-3h-1v1h1V9zm2 0h-1v1h1V9zm-3 5h1v-1h-1v1zM3 5H2v1h1V5zm0 2H2v1h1V7zm-1 3h1V9H2v1zm12 0h1V9h-1v1zm-2 2h1v-1h-1v1zm2 2h1v-1h-1v1zm-2 0h1v-1h-1v1zm2-2h1v-1h-1v1zm1-5h-1v1h1V7zm8.884-1.572l-.243-.3-.03-.575a.498.498 0 0 0-.096-.272l-.135-.183a.5.5 0 0 0-.402-.203h-.23a.497.497 0 0 0-.346.138l-.48.458a.48.48 0 0 0-.096.127l-.136.256a.51.51 0 0 0-.051.15l-.07.406-.62.297h-.537a.495.495 0 0 0-.252.068l-.613.359a.5.5 0 0 0-.162.151l-.223.33a.5.5 0 0 0-.067.145l-.134.478-1.068.584v-1.54a.5.5 0 0 0-.216-.412l-1.328-.916a.5.5 0 0 0-.265-.088l-1.264-.05-.158-.198a.498.498 0 0 0-.324-.184l-.78-.104a.478.478 0 0 0-.12-.002l-.399.044-.047-.097a.5.5 0 0 0-.388-.276l-.692-.081c-3.425.017-5.999-.038-10.336-.957a.503.503 0 0 0-.545.255l-.233.44-.114-.044a.5.5 0 0 0-.68.467L.03 9.392c0 .074.017.147.048.213l.192.406v.413a.5.5 0 0 0 .188.391l.216.172a.505.505 0 0 0 .057.2l.742 1.399v.059a.5.5 0 0 0 .369.482l.405.11.415.296.067.1v.17a.5.5 0 0 0 .5.5h.775v-1h-.306a.54.54 0 0 0-.054-.105l-.205-.301a.509.509 0 0 0-.124-.126l-.561-.4a.487.487 0 0 0-.16-.076l-.168-.045a.944.944 0 0 0-.012-.023L2.294 12H3v-1H2v.445l-.2-.376a.509.509 0 0 0 .016-.19l-.015-.148a.485.485 0 0 0-.049-.168l-.056-.113a.499.499 0 0 0-.426-.278v-.273a.504.504 0 0 0-.048-.213L1.03 9.28l-.006-1.422.007-2.576-.011-.25a.52.52 0 0 0 .44-.136l.281-.276a.499.499 0 0 0 .106-.56c4.15.843 6.7.895 10.007.874l.359.045.01.021H12v1h1v-.598l.486-.053.514.068V6h1v-.156l.9.035.993.685V7H16v1h.893v.06c0 .105.033.208.094.293l.332.458a.5.5 0 0 0 .657.14l1.64-.906a.501.501 0 0 0 .25-.309l.134-.48V8h1V7h-.878l.027-.04.399-.233h.514a.502.502 0 0 0 .215-.049l.957-.458a.501.501 0 0 0 .278-.366l.1-.582.032-.061.006.13c.005.1.04.197.1.276a.6.6 0 0 0-.03.045l-.794 1.334-.306.311a.505.505 0 0 0-.141.386l.032.438-.011.012a.485.485 0 0 0-.054.073l-.757.174a.5.5 0 0 0-.384.548l-.356.3a.497.497 0 0 0-.175.328l-.061.708-.104.285a.484.484 0 0 0-.03.17v.688l-.101.185a.486.486 0 0 0-.05.137l-.069.32-.159.083a.501.501 0 0 0-.19.176l-.744 1.184a.432.432 0 0 0-.047.096l-.313.858a.504.504 0 0 0-.01.31l.328 1.126a.508.508 0 0 0 .118.206l.624.654.086.747-.003.38h-.41l-.542-1.137a.502.502 0 0 0-.102-.142l-.747-.733-.446-1.236a.489.489 0 0 0-.55-.324l-.543.047-.414-.05a.51.51 0 0 0-.293.055l-.385.204a.498.498 0 0 0-.174.15l-.087.123-.829-.048-.214.02-.279-.16a.543.543 0 0 0-.282-.066l-.235.015a.502.502 0 0 0-.415.275l-.22.438.894.448.041-.082.135.078a.5.5 0 0 0 .298.065l.293-.034 1.027.066a.507.507 0 0 0 .44-.209l.178-.25.145-.077.316.035.347-.005.35.969c.026.07.067.135.12.187l.766.751.641 1.343a.5.5 0 0 0 .451.284h1.22a.5.5 0 0 0 .5-.495l.005-.936-.109-.975a.507.507 0 0 0-.134-.29l-.656-.687-.249-.852.239-.654.645-1.026.244-.128a.5.5 0 0 0 .254-.332l.075-.332.16-.389a.499.499 0 0 0 .061-.239v-.727l.098-.27a.488.488 0 0 0 .03-.14l.04-.534.422-.355a.498.498 0 0 0 .16-.249l.57-.13a.5.5 0 0 0 .338-.269l.161-.234a.498.498 0 0 0 .125-.367l-.03-.423.19-.193a.525.525 0 0 0 .072-.094l.679-1.141h.061a.5.5 0 0 0 .5-.5v-.175a.499.499 0 0 0-.111-.315z"/></svg>