<svg xmlns="http://www.w3.org/2000/svg" viewBox="0 0 16 16"><path d="M7 12H5v-2h2v2zm0-8H5v2h2V4zm2 3H7v2h2V7zm0-2H8v1h1V5zm2 0h-1v1h1V5zm-2 5H8v1h1v-1zM6 7H5v1h1V7zM4 7H3v1h1V7zm0-2H3v1h1V5zm0 4H3v1h1V9zm5-5v-.576A4.943 4.943 0 0 0 8 3.1V4h1zm-.837 9.908c-.337.056-.68.092-1.033.092-3.37 0-6.111-2.692-6.111-6S3.76 2 7.13 2c2.655 0 4.914 1.673 5.755 4h.357c.268 0 .523.054.758.147C13.171 3.182 10.414 1 7.13 1 3.192 1 0 4.134 0 8s3.192 7 7.13 7c.326 0 .644-.029.957-.07l.076-1.022zM14 8v1a1 1 0 0 1-1 1h-1a1 1 0 0 1-1-1V8a1 1 0 0 1 1-1h1a1 1 0 0 1 1 1zm-1 0h-1v1h1V8zm-2.74 5.343c.043-.753.546-1.343 1.144-1.343h2.192c.598 0 1.101.59 1.146 1.365l.264 2.591.994-.1-.262-2.57C15.665 12.004 14.724 11 13.596 11h-2.192c-1.128 0-2.07 1.004-2.14 2.265l-.261 2.6.994.1.263-2.622zM4 11.974V11h-.974c.279.369.605.695.974.974z"/><path fill="none" d="M0 0h16v16H0z"/></svg>