<svg xmlns="http://www.w3.org/2000/svg" viewBox="0 0 16 16"><path fill="none" d="M0 0h16v16H0z"/><path d="M4 5h1v1H4V5zM2 8h1V7H2v1zm1-5H2v1h1V3zm3.6 8H4.4c-1.12 0-2.07 1-2.14 2.26L2 15.86l1 .1.26-2.62C3.3 12.59 3.81 12 4.4 12h2.2c.59 0 1.1.59 1.14 1.36l.26 2.6 1-.1-.26-2.57C8.67 12 7.72 11 6.6 11zM4 8c0-.55.45-1 1-1h1c.55 0 1 .45 1 1v1c0 .55-.45 1-1 1H5c-.55 0-1-.45-1-1V8zm1 1h1V8H5v1zM2 6h1V5H2v1zm6 4h1V9H8v1zm2-2h1V7h-1v1zM9 5H8v1h1V5zm2 0h-1v1h1V5zM7 5H6v1h1V5zm1 3h1V7H8v1zm8-4.54v.127a.5.5 0 0 1-.423.494l-.4.745a.49.49 0 0 1-.066.095l-.089.1.018.26a.498.498 0 0 1-.11.346l-.087.141a.499.499 0 0 1-.334.282l-.28.071a.496.496 0 0 1-.116.16l-.237.222-.022.34a.466.466 0 0 1-.024.126l-.058.18v.51a.5.5 0 0 1-.052.222l-.093.249-.05.244a.503.503 0 0 1-.238.333l-.233.153-.1.133-.004.238.925 1.508A.502.502 0 0 1 14 11v1.5a.5.5 0 0 1-.5.5H12a.502.502 0 0 1-.427-.239l-1.2-1.959-.052.051a.5.5 0 0 1-.353.147h-.761l-.108.052a3.456 3.456 0 0 0-.801-.722l.58-.281A.502.502 0 0 1 9.094 10h.667L10 9.76V9h1v.91L12.28 12H13v-.859l-.927-1.511A.509.509 0 0 1 12 9.36l.008-.548a.503.503 0 0 1 .106-.3l.389-.46a.46.46 0 0 1 .07-.053H12V7h.782c.004-.029.005-.057.014-.085l.063-.194.04-.503A.493.493 0 0 1 12.981 6H12v-.978l-.46.019a.502.502 0 0 1-.52-.5v-.43L10.872 4H10v-.327l-.344-.015a.5.5 0 0 1-.385-.208l-.072-.1L9 3.32V4H8v-.972l-.123-.017L7.233 3c-.078 0-.155 0-.233.002V4H6v-.99c-1.342 0-2.725-.061-4.464-.42a.492.492 0 0 1-.09.138l-.184.2a.503.503 0 0 1-.247.147l.003.048-.005 1.869L1.017 6l.116.274a.518.518 0 0 1 .039.195v.124a.46.46 0 0 1 .27.232c.023.05.073.185.078.239l.01.107a.494.494 0 0 1-.007.132l.399.77c.06.018.117.048.167.087l.366.29a.492.492 0 0 1 .116.132l.13.213h.203v1h-.627a.5.5 0 0 1-.5-.5l-.012-.116-.222-.175-.229-.069a.5.5 0 0 1-.356-.479v-.02l-.474-.989a.507.507 0 0 1-.042-.134l-.101-.089a.5.5 0 0 1-.17-.375V6.57l-.115-.274a.512.512 0 0 1-.04-.194L0 2.27a.5.5 0 0 1 .538-.499.5.5 0 0 1 .577-.298c2.497.588 4.171.568 6.108.549l.72-.006.48.06a.501.501 0 0 1 .369.253l.121-.015a.512.512 0 0 1 .134.002l.509.075c.133.02.255.093.333.204l.053.075.732.032c.102.004.201.04.282.102l.866.664a.499.499 0 0 1 .197.397v.156l.195-.008.4-.126.048-.078a.492.492 0 0 1 .155-.159l.4-.258a.496.496 0 0 1 .271-.081h.3l.293-.156.035-.23a.54.54 0 0 1 .043-.14l.089-.185a.502.502 0 0 1 .087-.127l.312-.316A.5.5 0 0 1 15.012 2h.15c.168 0 .324.068.417.208l.088.133c.05.075.078.163.082.253l.018.384.136.187A.502.502 0 0 1 16 3.46zm-1.568.641l-.286.151a.496.496 0 0 1-.234.059h-.276l-.18.117-.086.14a.503.503 0 0 1-.277.217l-.644.202c-.024.008-.05.01-.075.013H13v.975c.018-.025.033-.053.056-.075l.186-.173a.5.5 0 0 1 .377-.482l.41-.104-.018-.262a.5.5 0 0 1 .125-.364l.188-.213.108-.2zM5 3H4v1h1V3z"/></svg>