<?xml version="1.0" encoding="UTF-8"?><svg id="icons" xmlns="http://www.w3.org/2000/svg" viewBox="0 0 24 24"><defs><style>.cls-1{fill:none;}</style></defs><path d="M13.14026,20.76361c-.69037.15125-1.40515.23639-2.14026.23639-5.51434,0-10-4.48615-10-10S5.48566,1,11,1c4.77612,0,8.7749,3.36749,9.76147,7.8512-.34546-.29535-.74554-.52112-1.18726-.66492-1.18591-3.60394-4.57849-6.21539-8.57422-6.21539C6.02136,1.97089,1.97089,6.0213,1.97089,11s4.05048,9.02911,9.02911,9.02911c.76477,0,1.50354-.10596,2.2132-.28577l-.07294,1.02026ZM15.25585,18.0083c.06445-1.12646.83203-2.0083,1.74609-2.0083h2.99609c.91406,0,1.68164.88184,1.74609,2.01562l.35645,4.9082.99805-.07227-.35645-4.90088c-.09473-1.6543-1.2998-2.95068-2.74414-2.95068h-2.99609c-1.44434,0-2.64941,1.29639-2.74414,2.94336l-.35645,4.92041.99805.07227.35645-4.92773ZM20.96972,11.5c0-1.37842-1.1084-2.5-2.46973-2.5-1.37891,0-2.5,1.12158-2.5,2.5s1.12109,2.5,2.5,2.5c1.36133,0,2.46973-1.12158,2.46973-2.5ZM19.96972,11.5c0,.84131-.64551,1.5-1.46973,1.5-.82715,0-1.5-.67285-1.5-1.5s.67285-1.5,1.5-1.5c.82422,0,1.46973.65869,1.46973,1.5ZM13,5h-2v2h2v-2ZM13,3.20343c-.64087-.16461-1.30853-.26147-2-.26147v1.05804h2v-.79657ZM17,5.64008v1.35992h.98535c-.28082-.4884-.61206-.94257-.98535-1.35992ZM14,14v1.81396c.47754-.76917,1.17981-1.34387,2-1.61774v-.19623h-2ZM16,5h-2v2h2v-2ZM7,8h-2v2h2v-2ZM9,6h-3v-1.30743c-.3606.28644-.6933.60461-1,.94757v1.35986h5v-3.9892c-.34082.04242-.67358.10876-1,.19263v2.79657ZM11,19h.9295c.36548-.0423.72137-.11377,1.0705-.20343v-1.79657h-2v2ZM8,10h2v-2h-2v2ZM8,13h2v-2h-2v2ZM11,16h2v-2h-2v2ZM5,16.35986c.3067.34296.6394.66113,1,.94757v-2.30743h3v3h-1.97595c.89905.51276,1.9046.85571,2.97595.9892v-4.9892h-5v2.35986ZM7,11h-2v2h2v-2ZM3.20343,13h.79657v-2h-1.05804c0,.69147.09686,1.35913.26147,2ZM3.01074,10h.98926v-2h-.47278c-.25439.63135-.42944,1.30176-.51648,2ZM15.05054,12h-3.05054v-3h3v1h.35107c.16675-.34827.38208-.66852.64893-.94171v-1.05829h-5v5h4.35107c-.14905-.3114-.24927-.64636-.30054-1Z"/><rect class="cls-1" width="24" height="24"/></svg>