<svg xmlns="http://www.w3.org/2000/svg" viewBox="0 0 24 24"><path d="M17 11a.997.997 0 0 0-.293-.707l2.121-2.121a3.965 3.965 0 0 1 .32 5.269l-2.197-2.197A.963.963 0 0 0 17 11z" opacity=".25"/><path d="M5 6H4V1h1zm0 1H4v2h1zm0 3H4v2h1zm0 3H4v2h1zm2.293 6L5 21.293V16H4v5.293L1.707 19H1v.707l3.5 3.5 3.5-3.5V19zM22.8 11A6.8 6.8 0 1 1 16 4.2a6.8 6.8 0 0 1 6.8 6.8zm-1 0a5.8 5.8 0 1 0-5.8 5.8 5.806 5.806 0 0 0 5.8-5.8zm-2.446 2.646l-2.403-2.402A.963.963 0 0 0 17 11a1 1 0 1 0-1 1 .963.963 0 0 0 .244-.05l2.402 2.404z"/><path fill="none" d="M0 0h24v24H0z"/></svg>