<svg xmlns="http://www.w3.org/2000/svg" viewBox="0 0 16 16"><path stroke-width="0" fill="none" d="M0 0h16v16H0z"/><path d="M13.333 1H2.667C1.747 1 1 1.806 1 2.795v10.41C1 14.195 1.747 15 2.667 15h10.666c.92 0 1.667-.805 1.667-1.795V2.795C15 1.806 14.253 1 13.333 1zM14 13.09c0 .503-.373.91-.833.91H2.833c-.46 0-.833-.407-.833-.91V2.91c0-.503.373-.91.833-.91h10.334c.46 0 .833.407.833.91v10.18zM5 13H3v-2h2v2zm0-4H3V7h2v2zm0-4H3V3h2v2zm8-1H6V3h7v1zm0 8H6v-1h7v1zm0-4H6V7h7v1z" stroke-width="0"/></svg>