<svg xmlns="http://www.w3.org/2000/svg" viewBox="0 0 24 24"><path stroke-width="0" fill="none" d="M0 0h24v24H0z"/><path d="M21.42 1H2.585C1.71 1 1 1.71 1 2.585v18.838C1 22.293 1.706 23 2.577 23H21.42A1.58 1.58 0 0 0 23 21.42V2.58C23 1.71 22.29 1 21.42 1zM22 21.212a.788.788 0 0 1-.788.788H2.79a.789.789 0 0 1-.79-.789V2.79A.79.79 0 0 1 2.79 2h18.42c.436 0 .789.353.789.789v18.423zM20 6H9V5h11v1zm0 6H9v-1h11v1zm0 6H9v-1h11v1zM4 4v4h4V4H4zm3 3H5V5h2v2zm-3 3v4h4v-4H4zm3 3H5v-2h2v2zm-3 3v4h4v-4H4zm3 3H5v-2h2v2z" stroke-width="0"/></svg>