<svg xmlns="http://www.w3.org/2000/svg" viewBox="0 0 16 16"><path d="m13.112 4.889-1.258 1.257A.5.5 0 0 1 12 6.5v.793l1.431 1.431a2.97 2.97 0 0 0-.32-3.835z" opacity=".25"/><path d="M4 9H3V7h1zm0-5H3v2h1zm0-4H3v3h1zm2.293 12L4 14.293V10H3v4.293L.707 12H0v.707l3.148 3.148a.5.5 0 0 0 .704 0L7 12.707V12zm9.512-5A4.8 4.8 0 1 1 11 2.196 4.805 4.805 0 0 1 15.805 7M15 7a3.996 3.996 0 1 0-4 4 4.004 4.004 0 0 0 4-4m-2.242 2.465L11.293 8H10.5a.5.5 0 0 1-.5-.5v-1a.5.5 0 0 1 .5-.5h1a.5.5 0 0 1 .5.5v.793l1.465 1.465z"/><path fill="none" d="M0 0h16v16H0z"/></svg>