<svg xmlns="http://www.w3.org/2000/svg" viewBox="0 0 32 32"><path d="m29.574 29.406-.348-.937a13.3 13.3 0 0 1-9.625-.168 16.744 16.744 0 0 0 0-24.602 13.3 13.3 0 0 1 9.625-.168l.348-.937a14.3 14.3 0 0 0-11.102.512l-.8.333.692.5a15.75 15.75 0 0 1 0 24.121l-.591.5.699.333a14.25 14.25 0 0 0 11.102.513m-21.834.886q-.34 0-.68-.018l.05-.998q.336.015.68.016.632 0 1.245-.058l.092.997c-.457.04-.939.056-1.387.061m-2.736-.272a14 14 0 0 1-1.997-.55l.335-.94a13 13 0 0 0 1.856.51zm6.165-.128-.235-.973a13 13 0 0 0 1.834-.589l.375.928a14 14 0 0 1-1.974.634m3.832-1.548-.504-.864a13.5 13.5 0 0 0 1.588-1.09l.623.783a15 15 0 0 1-1.707 1.17zm3.227-2.577-.73-.684a13 13 0 0 0 1.21-1.496l.822.57a14 14 0 0 1-1.301 1.61zm2.358-3.39-.894-.446a13 13 0 0 0 .732-1.78l.95.31a14 14 0 0 1-.788 1.917zm1.288-3.923-.985-.17a13.4 13.4 0 0 0 .19-1.917l1 .028a14 14 0 0 1-.204 2.06zm-.879-4.01a13 13 0 0 0-.361-1.89l.966-.26a14 14 0 0 1 .388 2.034zm-.994-3.71a13 13 0 0 0-.89-1.709l.85-.525a14 14 0 0 1 .958 1.837zm-2.018-3.27a14 14 0 0 0-1.34-1.383l.665-.746a14.5 14.5 0 0 1 1.44 1.486zm-2.865-2.558a13.5 13.5 0 0 0-1.678-.943l.426-.904a14.4 14.4 0 0 1 1.803 1.013zM3.34 3.471l-.335-.942q.372-.132.752-.244l.283.96q-.354.103-.7.226m8.303-.197a14 14 0 0 0-1.88-.42l.148-.989a14 14 0 0 1 2.02.452zM5.92 2.838l-.138-.99a14.5 14.5 0 0 1 2.01-.14l.054 1h-.055a14 14 0 0 0-1.87.13zM12 10H3V9h10v6h-1zm1 8v4.317l-8.787 4.135-.426-.904L12 21.683V18zM3 15v3h3v-3zm2 2H4v-1h1zm12 2.19V17h-7v2.19L6.942 16.5 10 13.81V16h7v-2.19l3.058 2.69z"/><path fill="none" d="M0 0h32v32H0z"/></svg>