<svg xmlns="http://www.w3.org/2000/svg" viewBox="0 0 16 16"><path d="M3.875 15.974a7.5 7.5 0 0 1-2.696-.747l.444-.897a6.4 6.4 0 0 0 2.334.648zm1.866-.077-.164-.986a6.4 6.4 0 0 0 2.272-.839l.515.858a7.4 7.4 0 0 1-2.623.967m4.093-2.124-.711-.703a6.5 6.5 0 0 0 1.354-2.01l.919.395a7.5 7.5 0 0 1-1.562 2.318m2.077-4.117-.988-.152a6.6 6.6 0 0 0-.078-2.424l.976-.217a7.6 7.6 0 0 1 .09 2.793m-1.613-4.1a6.5 6.5 0 0 0-1.482-1.917l.664-.748a7.5 7.5 0 0 1 1.708 2.212zM1.25 2.869l-.5-.865a7.4 7.4 0 0 1 2.64-.922l.147.988a6.5 6.5 0 0 0-2.287.8zm6.23-.147a6.4 6.4 0 0 0-2.322-.69l.1-.994a7.4 7.4 0 0 1 2.681.795zM0 10h3V7H0zm1-2h1v1H1zm9 .5L8 7v1H6V7L4 8.5 6 10V9h2v1zM6 11v.08l-3.208 1.465.416.91L7 11.722V11zm0-5h1V4H1v1h5zm10 8.155a6.44 6.44 0 0 1-3.603.832 9.96 9.96 0 0 0 0-12.974A6.46 6.46 0 0 1 16 2.845V1.732a7.55 7.55 0 0 0-4.738-.573l-.929.194.685.657a8.96 8.96 0 0 1 0 12.98l-.685.657.929.194A7.6 7.6 0 0 0 12.8 16a7.45 7.45 0 0 0 3.2-.743z"/><path fill="none" d="M0 0h16v16H0z"/></svg>