<svg xmlns="http://www.w3.org/2000/svg" viewBox="0 0 24 24"><path d="M23.61 21.64a10.45 10.45 0 0 1-8.731.73l-.808-.292.652-.56a11.842 11.842 0 0 0 0-18.037l-.652-.56.808-.29a10.52 10.52 0 0 1 8.69.707l-.488.871a9.5 9.5 0 0 0-7.056-.89 12.834 12.834 0 0 1 0 18.362 9.48 9.48 0 0 0 7.092-.91zm-8.589-5.807.937.352a10.4 10.4 0 0 0 .616-2.67l-.995-.096a9.4 9.4 0 0 1-.558 2.414m.25-8.49a10.5 10.5 0 0 0-1.645-2.189l-.715.7a9.5 9.5 0 0 1 1.49 1.981zM6.09 3a10 10 0 0 1 1.788.161l.183-.982A10.6 10.6 0 0 0 6.125 2a8 8 0 0 0-.797.028l.074.998q.339-.025.688-.026m9.938 6.008-.943.332a9.4 9.4 0 0 1 .51 2.424l.997-.077a10.4 10.4 0 0 0-.564-2.68zm-3.79-5.044A10.5 10.5 0 0 0 9.823 2.67l-.353.935a9.5 9.5 0 0 1 2.185 1.17zM.803 21.554a10.5 10.5 0 0 0 2.523 1.07l.265-.966a9.4 9.4 0 0 1-2.28-.965zm8.495-.099.334.943a10.5 10.5 0 0 0 2.438-1.244l-.566-.824a9.5 9.5 0 0 1-2.206 1.125m-4.08.503-.093.996q.493.046.998.046a10.6 10.6 0 0 0 1.738-.144l-.164-.986a9.7 9.7 0 0 1-2.479.088M3.77 3.294l-.247-.969A10.4 10.4 0 0 0 .98 3.344l.49.87a9.5 9.5 0 0 1 2.3-.92m10.538 14.032a9.5 9.5 0 0 1-1.528 1.952l.701.713a10.6 10.6 0 0 0 1.688-2.157zM1 11h3v3H1zm1 2h1v-1H2zm8 3.28V14H9v1.72l-6.262 3.854.524.852zM10 11V7H2v1h7v3zm5 1.5L13 11v1H7v-1l-2 1.5L7 14v-1h6v1z"/><path fill="none" d="M0 0h24v24H0z"/></svg>