<svg xmlns="http://www.w3.org/2000/svg" viewBox="0 0 16 16"><path d="M14.738 8.86a1.92 1.92 0 0 0 .28-1.681A1.5 1.5 0 0 0 13.608 6h-3.101l.04-.07a3.73 3.73 0 0 0 .573-2.165c0-1.526-.306-2.423-.935-2.744a1.25 1.25 0 0 0-1.253.125l-.206.15-.001.254a4.8 4.8 0 0 1-.722 2.34q-.133.2-.26.407a4.7 4.7 0 0 1-.948 1.2 1.8 1.8 0 0 0-.422.496L5.212 8H5V7H1v8h4v-1h.757l1.6 1h4.998a1.6 1.6 0 0 0 1.446-.894 1.47 1.47 0 0 0 .108-1.037 1.7 1.7 0 0 0 .628-.943 1.8 1.8 0 0 0-.104-1.23 1.6 1.6 0 0 0 .539-.953 1.54 1.54 0 0 0-.234-1.083M4 14H2V8h2zm9.722-4.796a.64.64 0 0 1 .261.583.69.69 0 0 1-.458.507l-.747.305.605.533a.75.75 0 0 1 .186.741.62.62 0 0 1-.431.47l-.777.168.486.628a.48.48 0 0 1 .056.527.6.6 0 0 1-.548.334H7.644l-1.6-1H5V9h.788l1.45-2.507a.8.8 0 0 1 .189-.22 5.5 5.5 0 0 0 1.162-1.444q.12-.195.246-.384a5.7 5.7 0 0 0 .87-2.542l.026.01c.016.007.39.226.39 1.852a2.77 2.77 0 0 1-.44 1.666 6 6 0 0 0-.2.364.86.86 0 0 0-.043.845c.225.36.628.36 1.297.36h2.872c.303 0 .428.379.45.455a.84.84 0 0 1-.279.943l-.58.364z"/><path fill="none" d="M0 0h16v16H0z"/></svg>