<svg xmlns="http://www.w3.org/2000/svg" viewBox="0 0 24 24"><path d="M17 1v2h-1.796l-2.47-.966L5.81 2a2.22 2.22 0 0 0-2.045 1.166 1.76 1.76 0 0 0-.062 1.425A2.15 2.15 0 0 0 2.65 5.939a2.2 2.2 0 0 0 .262 1.713 2.25 2.25 0 0 0-.923 1.461 2.17 2.17 0 0 0 .445 1.672 2.7 2.7 0 0 0-.523 2.564A2.084 2.084 0 0 0 3.85 15h3.39c.242 0 .56 0 .8.015a4.97 4.97 0 0 0-1.242 3.153c0 2.194.42 3.457 1.284 3.861a1.4 1.4 0 0 0 .58.126 2 2 0 0 0 1.213-.46l.179-.151v-.232a7.1 7.1 0 0 1 1.174-3.496 9 9 0 0 1 2.49-2.649L16.04 12H17v2h5V1zm0 10h-1.473l-2.448 3.395a9.9 9.9 0 0 0-2.683 2.867 8.1 8.1 0 0 0-1.328 3.772.66.66 0 0 1-.562.09c-.166-.08-.708-.521-.708-2.956a4.1 4.1 0 0 1 1.101-2.614 1.05 1.05 0 0 0 .237-1.06C8.886 14 8.266 14 7.24 14H3.85c-.524 0-.847-.48-.976-.928a1.62 1.62 0 0 1 .556-1.821l.582-.363-.525-.443a1.27 1.27 0 0 1-.508-1.175 1.36 1.36 0 0 1 .892-1.013l.747-.305-.604-.533a1.21 1.21 0 0 1-.395-1.227 1.17 1.17 0 0 1 .908-.851l.775-.167-.485-.628a.86.86 0 0 1-.153-.939A1.25 1.25 0 0 1 5.811 3h6.646l2.472.966L17 3.993zm4 2h-3V2h3z"/><path fill="none" d="M0 0h24v24H0z"/></svg>