<svg xmlns="http://www.w3.org/2000/svg" viewBox="0 0 24 24"><path d="M22.088 10.651a2.07 2.07 0 0 0-1.937-1.636S16.2 9.015 15.96 9a5.02 5.02 0 0 0 1.242-3.168c0-2.194-.42-3.457-1.284-3.861a1.77 1.77 0 0 0-1.793.335l-.179.15v.232a7.1 7.1 0 0 1-1.174 3.496 9 9 0 0 1-2.49 2.649L7.96 12H7v-2H2v13h5v-2h1.796l2.47.966L18.19 22a2.22 2.22 0 0 0 2.045-1.166 1.76 1.76 0 0 0 .062-1.425 2.15 2.15 0 0 0 1.053-1.348 2.2 2.2 0 0 0-.262-1.713 2.25 2.25 0 0 0 .923-1.461 2.17 2.17 0 0 0-.445-1.672 2.7 2.7 0 0 0 .523-2.564zM6 22H3V11h3zm14.571-9.251-.582.363.525.443a1.27 1.27 0 0 1 .508 1.175 1.36 1.36 0 0 1-.892 1.013l-.747.305.604.533a1.21 1.21 0 0 1 .395 1.227 1.17 1.17 0 0 1-.908.851l-.775.167.485.628a.86.86 0 0 1 .153.939 1.25 1.25 0 0 1-1.148.607h-6.646l-2.472-.966L7 20.007V13h1.473l2.448-3.395a9.9 9.9 0 0 0 2.683-2.867 8.1 8.1 0 0 0 1.328-3.772.65.65 0 0 1 .562-.089c.166.078.708.52.708 2.955a4.1 4.1 0 0 1-1.101 2.614 1.05 1.05 0 0 0-.237 1.06c.25.494.87.494 1.896.494h3.391c.524 0 .847.48.976.928a1.62 1.62 0 0 1-.556 1.821"/><path fill="none" d="M0 0h24v24H0z"/></svg>