<svg xmlns="http://www.w3.org/2000/svg" viewBox="0 0 32 32"><path d="M2.122 18.034A2.564 2.564 0 0 0 4.578 20h4.61a13 13 0 0 1 1.447.054l-.078.083c-.063.051-1.522 1.33-1.522 4.903 0 2.832.52 4.436 1.591 4.904a2.34 2.34 0 0 0 2.283-.577l.16-.148.001-.218a9.14 9.14 0 0 1 1.608-4.53 12.9 12.9 0 0 1 3.396-3.745L21.22 16H23v2h6V3h-6v2h-2.767L16.87 3H7.206a2.81 2.81 0 0 0-2.534 1.58 2.59 2.59 0 0 0-.068 2.196A2.68 2.68 0 0 0 3.139 8.55a2.77 2.77 0 0 0 .42 2.298 2.87 2.87 0 0 0-1.303 1.938 2.75 2.75 0 0 0 .653 2.22 3.04 3.04 0 0 0-.787 3.03zM24 4h4v13h-4zM3.927 15.477l.582-.364-.525-.442a1.89 1.89 0 0 1-.74-1.73 2 2 0 0 1 1.299-1.487l.748-.305-.605-.533a1.79 1.79 0 0 1-.58-1.814A1.73 1.73 0 0 1 5.447 7.54l.776-.167-.485-.628a1.59 1.59 0 0 1-.17-1.725A1.81 1.81 0 0 1 7.206 4h9.389l3.363 2H23v9h-2.32l-3.255 4.96a13.9 13.9 0 0 0-3.58 3.957 10.35 10.35 0 0 0-1.764 4.833 1.22 1.22 0 0 1-1.055.278c-.297-.13-.99-.78-.99-3.988 0-3.06 1.16-4.135 1.197-4.169.194-.193.705-.706.483-1.244-.25-.599-1.037-.627-2.528-.627h-4.61a1.58 1.58 0 0 1-1.495-1.241 1.99 1.99 0 0 1 .844-2.282"/><path fill="none" d="M0 0h32v32H0z"/></svg>