<svg xmlns="http://www.w3.org/2000/svg" viewBox="0 0 16 16"><path fill="none" d="M0 0h16v16H0z"/><path d="M12.7 6.331 8 7.891v2.926l-2 .87v2.994l3.3 1.09 4.7-1.563v-2.89l2-.668V7.436zm0 .844 1.526.508-2.718.89-1.684-.453zM9 8.725l2 .54v2.064l-2-.578zm0 6.103-2-.667v-1.658l2 .6zm-1.507-2.996 1.077-.469 2.116.614-1.251.421zM15 10.143l-2 .66v2.892l-3 1v-1.676l2-.682V9.254l3-.983zM1 10.48V6.906c1.101.672 3.045 1.073 5.5 1.073.171 0 .334-.006.5-.01v-.078a.99.99 0 0 1 .52-.864 18 18 0 0 1-1.02.036C2.661 7.063 1 5.986 1 5.479V3.906C2.101 4.578 4.045 5 6.5 5s4.399-.422 5.5-1.094v1.242c0 .011-.012.025-.013.036l.396-.132A1 1 0 0 1 12.7 5q.152.001.3.05V2.48C13 .983 10.388 0 6.5 0S0 .984 0 2.48v8c0 1.293 1.957 2.218 5 2.444v-.918c-2.767-.237-4-1.092-4-1.527zM6.5.925c3.839 0 5.5 1.048 5.5 1.555s-1.661 1.583-5.5 1.583S1 2.986 1 2.479 2.661.925 6.5.925"/></svg>