<svg xmlns="http://www.w3.org/2000/svg" viewBox="0 0 24 24"><path stroke-width="0" fill="none" d="M0 0h24v24H0z"/><path d="M3 17.58v-6.25C4.643 12.43 8.082 13 11.5 13c.167 0 .333-.008.5-.01v-.926c-.167.003-.33.008-.5.008-5.188 0-8.5-1.346-8.5-2.224V6.41C4.643 7.457 8.082 8 11.5 8s6.857-.543 8.5-1.589v.256L21 7V5c0-1.97-4.78-3-9.5-3S2 3.03 2 5v12.58c0 1.64 2.675 2.74 5.999 3.19v-.928C4.839 19.368 3 18.316 3 17.579zm8.5-14.652C17 2.928 20 4.321 20 5s-3 2.063-8.5 2.063S3 5.679 3 5s3-2.072 8.5-2.072zm7.913 5.546L13 10.694v4.769l-4 1.374v4.806l4.59 1.53 7.41-2.56v-5.454l3-1.025v-4.131l-4.587-1.53zm.006 1.056l2.524.841-4.382 1.516-2.522-.84 4.38-1.517zM14 11.755l3 1v3.72l-3-1.001v-3.719zm-.519 4.6l2.49.83-2.446.84-2.489-.83 2.445-.84zM10 17.906l3.001 1v3.017l-3.001-1v-3.017zm10-3.461v5.454l-6 2.073V18.92l4-1.373v-4.754l5-1.73v2.356l-3 1.025z" stroke-width="0"/></svg>