<svg xmlns="http://www.w3.org/2000/svg" viewBox="0 0 24 24"><path d="m20.83 3.078 3.051 18.105a13.1 13.1 0 0 0-5.423-1.017c-5.242 0-6.792 1.634-12.034 1.634A13.1 13.1 0 0 1 1 20.783L2.879 9.879l.866.866-1.621 9.405a13.7 13.7 0 0 0 4.3.65 22 22 0 0 0 5.783-.79 24 24 0 0 1 6.25-.844 16.3 16.3 0 0 1 4.158.52l-2.674-15.87a11.9 11.9 0 0 0-3.63-.615 7.8 7.8 0 0 0-3.49.725c-.26.106-.529.216-.821.321V3.178a9.54 9.54 0 0 1 4.31-.978 12.7 12.7 0 0 1 4.52.878M12 11V5h7v13H6v-7zm-5 6h2.382a1.9 1.9 0 0 1 .669-1.215 1.3 1.3 0 0 0 .246-.275 1 1 0 0 0-.052-.21 1.4 1.4 0 0 1-.08-.572 1.5 1.5 0 0 1 .735-1.097l.144-.09c.123-.073.244-.136.354-.193a3 3 0 0 0 .26-.146l.342-.326V12H7zm5 0v-2.841c-.047.025-.09.05-.142.076-.094.05-.198.103-.3.163l-.11.07c-.239.156-.28.263-.289.355a.3.3 0 0 0 .02.11 1.5 1.5 0 0 1 .1.763 1.56 1.56 0 0 1-.482.758 1.26 1.26 0 0 0-.392.546zm6 0v-2.95a3.4 3.4 0 0 0-1.067.458A2.75 2.75 0 0 1 15.5 15a4.35 4.35 0 0 1-2.5-.768V17zm-5-6h5V6h-5zm0 1v.92A3.32 3.32 0 0 0 15.5 14a1.9 1.9 0 0 0 .93-.357 4.2 4.2 0 0 1 1.57-.597V12zm-2-2H4V3h7zM9.516 4.15A2 2 0 0 1 9.814 4H5v3.66a.5.5 0 0 0 .34-.028c.411-.188.643-.96.743-1.288a1.42 1.42 0 0 1 1.241-.923 1.7 1.7 0 0 1 .791.047.7.7 0 0 0 .276.042c.11-.007.215-.178.374-.457a2.4 2.4 0 0 1 .75-.904zM10 9V5.048a1.8 1.8 0 0 0-.366.499 1.52 1.52 0 0 1-1.18.96 1.8 1.8 0 0 1-.593-.071.7.7 0 0 0-.354-.032c-.193.036-.43.105-.467.229A2.92 2.92 0 0 1 5.756 8.54a1.5 1.5 0 0 1-.62.135c-.044 0-.091-.013-.136-.016V9z"/><path fill="none" d="M0 0h24v24H0z"/></svg>