<svg xmlns="http://www.w3.org/2000/svg" viewBox="0 0 16 16"><path d="M0 14.09 1.2 7h1.014l-1.09 6.437a9.5 9.5 0 0 0 2.669.363 11 11 0 0 0 3.888-.748 12.8 12.8 0 0 1 4.526-.852 8.3 8.3 0 0 1 2.489.376l-1.72-10.163a7.2 7.2 0 0 0-2.27-.399 5.9 5.9 0 0 0-2.367.434q-.165.06-.339.12V1.506a6.9 6.9 0 0 1 2.706-.493 8.2 8.2 0 0 1 3.161.674L16 14.29a6.6 6.6 0 0 0-3.793-1.089c-3.665 0-4.749 1.6-8.414 1.6A9.2 9.2 0 0 1 0 14.089zM4 11V7h4V4h4v7zm4-2.5a.954.954 0 0 1-.995 1.062h-.002L7 10h1zm3 1.5v-.487A2.96 2.96 0 0 1 9.5 10zM9 7h2V5H9zm0 1v1h.5a2.7 2.7 0 0 0 1.5-.721V8zm-4 2h1v-.5c0-.574.312-.889.93-.936l.068-.005L7 8.5a1.2 1.2 0 0 1 .119-.5H5zM2 6V1h5v5zm1.564-2.19a1.6 1.6 0 0 1 .442-.756.9.9 0 0 1 .74-.179A2.2 2.2 0 0 1 5.182 2H3v2.34a.56.56 0 0 0 .336-.09 1 1 0 0 0 .228-.44M6 2.56a1.26 1.26 0 0 0-.297.609 1 1 0 0 1-.279.544.87.87 0 0 1-.756.161l-.05-.009a2 2 0 0 0-.11.276A1.85 1.85 0 0 1 3.992 5H6z"/><path fill="none" d="M0 0h16v16H0z"/></svg>