<svg xmlns="http://www.w3.org/2000/svg" viewBox="0 0 24 24"><path d="M20.83 3.078a12.7 12.7 0 0 0-4.52-.878c-3.847 0-3.891 1.6-7.74 1.6a15 15 0 0 1-4.52-.722L1 20.783A13.1 13.1 0 0 0 6.424 21.8c5.242 0 6.792-1.634 12.034-1.634a13.1 13.1 0 0 1 5.423 1.017zM6.425 20.8a13.7 13.7 0 0 1-4.3-.65l1.063-6.173 7.9 6.296a20 20 0 0 1-4.663.527m-1.909-6.973 3.272-2.607 3.258 2.597-3.271 2.607zm4.199 3.346 3.271-2.607 3.286 2.618L12 19.791zm4.211-3.356 3.273-2.608 3.285 2.618-3.272 2.608zm.737 5.859L21 13.828 16.197 10l-4.213 3.357-4.196-3.345-4.54 3.619 1.6-9.288A16.2 16.2 0 0 0 8.57 4.8a10 10 0 0 0 2.888-.38L7.5 7.5l4.484 3.5L16.5 7.5l-4.286-3.334q.316-.12.607-.241a7.8 7.8 0 0 1 3.49-.725 11.9 11.9 0 0 1 3.63.615l2.674 15.872a16.3 16.3 0 0 0-4.157-.52 22 22 0 0 0-4.796.509zM12 5.156 15.01 7.5l-3.024 2.344-3-2.342z"/><path d="m4.512 13.827 3.272-2.607 3.258 2.597-3.271 2.607z" opacity=".5"/><path d="m12.923 13.818 3.272-2.608 3.286 2.619-3.273 2.608z" opacity=".25"/><path fill="none" d="M0 0h24v24H0z"/></svg>