<svg xmlns="http://www.w3.org/2000/svg" viewBox="0 0 32 32"><path d="M27 3.9 31 28a33.2 33.2 0 0 0-7.538-.8c-6.876 0-8.048 2.6-14.924 2.6A16.3 16.3 0 0 1 1 28l2.705-16.295.869.869-2.466 14.86a16 16 0 0 0 6.43 1.366 20.4 20.4 0 0 0 7.155-1.252 22.4 22.4 0 0 1 7.77-1.348 37 37 0 0 1 6.312.528L26.124 4.73a26.3 26.3 0 0 0-5.05-.518 15.8 15.8 0 0 0-4.322.541l-.814-.814a17.1 17.1 0 0 1 5.136-.727A26.4 26.4 0 0 1 27 3.9M16 7h9v17H8v-9h8zM9 23h3.244l.039-.137a6.5 6.5 0 0 1 .546-1.23 3.2 3.2 0 0 0 .337-.757.6.6 0 0 0-.101-.327 1.5 1.5 0 0 1-.217-.787c0-1.236 1.963-2.573 2.62-2.573H16V16H9zm7 0v-4.812h-.533c-.346.075-1.62 1.021-1.62 1.574a.56.56 0 0 0 .099.313 1.54 1.54 0 0 1 .22.801 2.9 2.9 0 0 1-.454 1.227 6.6 6.6 0 0 0-.414.897zm8 0v-4.918a10.2 10.2 0 0 0-2.276.865c-1.58.79-3.622.08-4.724-.427V23zm0-7h-7v1.41c.751.388 2.868 1.346 4.276.643A10.4 10.4 0 0 1 24 17.058zm-7-1h7V8h-7zM6 14V5h9v9zm8-8H7v5.145a.84.84 0 0 0 .627-.21 2.07 2.07 0 0 0 .663-1.392 1.51 1.51 0 0 1 1.448-1.558 1.9 1.9 0 0 1 1.194.494 1.3 1.3 0 0 0 .467.255.5.5 0 0 0 .122.034c.317 0 .486-.183.739-.608.04-.069.078-.129.125-.212A2.78 2.78 0 0 1 14 6.428zm0 7V7.513a2.4 2.4 0 0 0-.743.926c-.334.592-.749 1.329-1.736 1.329a1.74 1.74 0 0 1-1.069-.403c-.042-.03-.086-.061-.124-.09a1 1 0 0 0-.59-.29c-.256 0-.448.294-.448.558a2.6 2.6 0 0 1-.112.672 3 3 0 0 1-.908 1.487 1.86 1.86 0 0 1-1.204.46c-.022 0-.044-.005-.066-.006V13z"/><path fill="none" d="M0 0h32v32H0z"/></svg>