<svg xmlns="http://www.w3.org/2000/svg" viewBox="0 0 16 16"><path d="M8 2.714 5 4.912 7.967 7 11 4.859zm-.034 3.237L6.469 4.898l1.537-1.126L9.52 4.855zm5.901-4.263a8.2 8.2 0 0 0-3.161-.674c-2.69 0-2.724.986-5.412.986a10.4 10.4 0 0 1-3.161-.512L0 14.09a9.2 9.2 0 0 0 3.793.711c3.665 0 4.749-1.6 8.414-1.6A6.6 6.6 0 0 1 16 14.29zM7.963 9.735l1.913 1.469L8 12.79l-1.888-1.598zm-2.57.85L3.515 8.996l1.833-1.269 1.86 1.428zm3.319-1.44 1.866-1.47 1.907 1.321-1.888 1.597zm1.142 3.287.771-.653.721-.61L14 8.922l-2.664-1.844-.794-.55-2.586 2.037-2.58-1.98-.796.551L2 8.923l2.653 2.245.72.608 1.73 1.465a10 10 0 0 1-3.31.559 9.5 9.5 0 0 1-2.668-.363L2.935 2.74A11.4 11.4 0 0 0 5.294 3a7.8 7.8 0 0 0 3.045-.552 5.9 5.9 0 0 1 2.367-.434 7.2 7.2 0 0 1 2.27.399l1.72 10.163a8.3 8.3 0 0 0-2.489-.376 11.6 11.6 0 0 0-2.353.232"/><path d="m3.524 8.993 1.833-1.269 1.86 1.428-1.815 1.43z" opacity=".5"/><path d="M10.599 10.594 8.714 9.146l1.865-1.469 1.907 1.32z" opacity=".25"/><path fill="none" d="M0 0h16v16H0z"/></svg>