<svg xmlns="http://www.w3.org/2000/svg" viewBox="0 0 32 32"><path d="m16 5-6 5 5.99 5L22 10zm-4.438 5.001L16 6.301 20.438 10l-4.448 3.7zM27 3.9a26.4 26.4 0 0 0-5.926-.689c-5.144 0-5.927 1.657-10.735 1.657A15 15 0 0 1 5 3.9L1 28a16.3 16.3 0 0 0 7.538 1.8c6.876 0 8.048-2.6 14.924-2.6A33.2 33.2 0 0 1 31 28zM15.988 18.58l4.99 3.973-5.025 4.145-4.971-4.184zM10.2 21.856l-4.59-3.864 4.98-3.712 4.594 3.66zm6.597-3.912 4.602-3.617 4.987 3.764-4.62 3.81zm.188 9.2L28 18.056l-5.788-4.368-.825-.623-5.394 4.239-5.383-4.286-.83.618L4 17.944l11.488 9.67a20.1 20.1 0 0 1-6.95 1.186 16 16 0 0 1-6.43-1.366L5.795 5.217a15.6 15.6 0 0 0 4.544.651 17.4 17.4 0 0 0 5.445-.846 16.6 16.6 0 0 1 5.29-.81 26.3 26.3 0 0 1 5.05.517l3.651 22a37 37 0 0 0-6.313-.529 21.1 21.1 0 0 0-6.477.944"/><path d="m5.613 17.995 4.98-3.712 4.595 3.659-4.984 3.917z" opacity=".5"/><path d="m16.799 17.955 4.602-3.617 4.987 3.763-4.619 3.811z" opacity=".25"/><path fill="none" d="M0 0h32v32H0z"/></svg>