<svg xmlns="http://www.w3.org/2000/svg" viewBox="0 0 16 16"><path d="M7.103 14h-.688L5.103 7h3.794l-.164.878c.353-.28.733-.526 1.15-.711l.08-.423L14 2.707V1H0v1.707l4.037 4.037L5.585 15h2.064a5.264 5.264 0 0 1-.546-1zM1 2.293V2h12v.293L12.293 3H1.707L1 2.293zM2.707 4h8.586l-2 2H4.707l-2-2zm9.351 4C9.817 8 8 9.79 8 12c0 2.209 1.817 4 4.058 4S16 14.209 16 12c0-2.21-1.7-4-3.942-4zM12 15c-1.654 0-3-1.346-3-3s1.346-3 3-3 3 1.346 3 3-1.346 3-3 3zm2-3v1h-3v-3h1v2h2z" stroke-width="0"/><path stroke-width="0" fill="none" d="M0 0h16v16H0z"/></svg>