<svg xmlns="http://www.w3.org/2000/svg" viewBox="0 0 32 32"><path stroke-width="0" fill="none" d="M0 0h32v32H0z"/><path d="M15.229 25.864L15.066 27h-2.132l-1.858-13h5.848l-.862 6.032c.345-.6.762-1.155 1.245-1.645l.662-4.634L27 5.725V3H1v2.725l9.031 8.028L12.066 28h3.868l.028-.201a7.95 7.95 0 0 1-.733-1.935zM2 4h24v1H2V4zm.815 2h22.37l-7.875 7h-6.62L2.815 6zM23 17.198a6.8 6.8 0 1 0 0 13.6 6.8 6.8 0 0 0 6.8-6.8 6.8 6.8 0 0 0-6.8-6.8zm0 12.6c-3.199 0-5.8-2.601-5.8-5.8s2.601-5.8 5.8-5.8 5.8 2.602 5.8 5.8-2.601 5.8-5.8 5.8zM26 25h-4v-5h1v4h3v1z" stroke-width="0"/></svg>