<svg xmlns="http://www.w3.org/2000/svg" viewBox="0 0 16 16"><path d="M9 11V8h1v3h2V8.03c.35.03.687.1 1 .227V11h2.15c.023.165.05.329.05.5s-.027.335-.05.5H13v2.743c-.313.126-.65.196-1 .227V12h-2v3H9v-3H7v2.97c-.35-.03-.687-.1-1-.227V12H3.85c-.023-.165-.05-.329-.05-.5s.027-.335.05-.5H6V8.257c.313-.126.65-.196 1-.227V11h2z" opacity=".5"/><path d="M4.553 10.067c0-.069-.069-.237-.132-.38A3.54 3.54 0 0 1 6 8.3v1.352l-.123-.123a.136.136 0 0 0-.233.096v.216h-.252a.121.121 0 0 0-.086.208l.694.694V11h-.288l-.068-.068-.545-.273-.384-.191a.292.292 0 0 1-.162-.262v-.139zm5.999-.226l.545.546H12V8.04c-.133-.015-.263-.04-.4-.04h-1.001c-.035.034-.076.062-.098.107l-.319.838a.544.544 0 0 0 .102.629l.268.267zM13 11h2.05A3.498 3.498 0 0 0 13 8.297V11zm-.665-2.92c-.043-.008-.087-.011-.13-.019.044.006.087.012.13.02zM7 8.03v1.266h.144a.136.136 0 0 0 .136-.136v-.273c0-.075.06-.136.136-.136h.808a.353.353 0 0 0 .25-.104L8.928 8H7.4c-.218 0-.43.027-.636.066.079-.012.156-.029.236-.036zM6 12h-.524a1.895 1.895 0 0 1-.215.38.467.467 0 0 0 .381.733h.002v.189c0 .18.103.343.265.42.033.017.06.053.091.077V12zm7 0v1.102l.252.504c.005.01.015.016.026.02.002 0 .003.002.005.003a.043.043 0 0 0 .037-.012l.503-.504.546-.545V12H13zm1.681.255l-.312.313v.545l.4-.4c.048-.129.09-.26.123-.395-.012-.037-.025-.077-.062-.092a.136.136 0 0 0-.149.03zm-6.536-.232h-.191c-.033 0-.063-.017-.096-.023H7v2.955c.093.011.184.03.28.033v-.239a.545.545 0 0 0 .545-.545h.32a.545.545 0 0 0 .385-.16l.226-.226a.545.545 0 0 0 .16-.385v-.865l-.386-.386a.545.545 0 0 0-.385-.16z" opacity=".65"/><path d="M11.4 7H7.6a4.5 4.5 0 1 0 0 9h3.8a4.5 4.5 0 1 0 0-9zm3.65 4H13V8.297A3.498 3.498 0 0 1 15.05 11zm-3.45 4H7.4c-.137 0-.267-.025-.4-.04V12h.858c-.05-.01-.102-.012-.148-.035l-.86-.43a.545.545 0 0 0-.244-.058h-.557a.542.542 0 0 0-.48.288c-.037.068-.053.136-.093.235H6v1.8c.1.079.19.192.19.404v.567A3.496 3.496 0 0 1 3.9 11.5c0-1.431.866-2.662 2.1-3.203v1.355l.19.19.312.312a.136.136 0 0 0 .233-.096v-.762H7V8.04c.133-.015.263-.04.4-.04h4.2c.137 0 .267.025.4.04v2.348c.122.001.238.05.324.135l.272.272a.467.467 0 0 1 .137.33v.352l-.16.16a.545.545 0 0 0 0 .771l.097.097c.042.042.076.09.102.142l.228.455V12h2.05c-.246 1.692-1.692 3-3.45 3zm-5.41-4.068v.545L5.711 11H6v-.257l.19.19zM9 2H5V1h4v1zm2-2h-1v2h1V0zm1 1v1h1v1H1V2h1V1H0v11h2v-1H1V4h12v2.004c.349.1.683.232 1 .395V1h-2zM4 0H3v2h1V0z"/><path fill="none" d="M0 0h16v16H0z"/></svg>