<svg xmlns="http://www.w3.org/2000/svg" viewBox="0 0 24 24"><path d="M9 15.596l.947.947V17h-.264l-.457-.457L9 16.43v-.834zm6.364-.85l.353.355.722.72H17V13h-1.116a.715.715 0 0 0-.366.335l-.29.58a.72.72 0 0 0 .136.832zM18 15.962c.02.016.044.024.062.042l.36.36c.115.115.18.272.18.436v.2H20v-3.264A4.545 4.545 0 0 0 17.556 13c.15 0 .296.032.444.047v2.914zM21 17h.488v-.158c0-.191.075-.375.21-.51l.2-.128A4.47 4.47 0 0 0 21 14.593V17zm-.614-2.99zm-11.813.118zM11 21.953V18H9v1.365c.072.03.143.063.223.063h.003v.25c0 .237.136.454.35.556.183.089.371.269.371.637v.825c0 .01.003.018.005.027.162.056.322.12.49.158.027.007.054.016.081.022.284.058.574.088.867.091-.131-.006-.26-.028-.39-.041zm1.11-8.295h.529a.47.47 0 0 0 .33-.137L13.49 13H12v.658h.11zM20 18h-1.817c.003.18.071.359.208.496l.129.128c.054.055.1.118.135.188l.634 1.268c.007.013.02.02.035.025.002.001.003.005.006.005a.056.056 0 0 0 .049-.016l.621-.62V18zm1.376.254a.18.18 0 0 0-.196.04l-.18.18v.72l.488-.487v-.286a.18.18 0 0 0-.112-.167zM12.606 18H12v3.232a.701.701 0 0 0 .11-.361h.423a.721.721 0 0 0 .51-.211l.3-.3a.721.721 0 0 0 .21-.51v-1.143l-.51-.51a.715.715 0 0 0-.438-.197zm-4.823-2.417a.386.386 0 0 0 .214.346L8 15.93v-1.25a4.65 4.65 0 0 0-.298.368.91.91 0 0 1 .081.351v.184zM9 15.1h.226v-.286a.18.18 0 0 1 .307-.128l.414.414.413.413a.18.18 0 0 0 .308-.128V14.38H11v-1.313a5.11 5.11 0 0 1 .743-.066c-1.015 0-1.96.305-2.743.814v1.287z" opacity=".65"/><path d="M17.457 12h-5.614c-2.913 0-5.444 2.096-5.718 4.973C5.815 20.232 8.32 23 11.543 23h5.614c2.913 0 5.444-2.096 5.718-4.973.31-3.259-2.194-6.027-5.418-6.027zm-.2 10h-5.813c-.018 0-.036-.005-.054-.006v-.402a.71.71 0 0 0 .61-.36V18h.605c-.024-.003-.047-.014-.072-.014h-.252a.72.72 0 0 1-.322-.077l-1.138-.569a.722.722 0 0 0-.323-.076h-.737a.722.722 0 0 0-.636.38c-.093.174-.077.342-.406.814a.617.617 0 0 0-.041.638.599.599 0 0 0 .322.27V18h2v3.953a4.555 4.555 0 0 1-2.93-1.45 4.43 4.43 0 0 1-1.15-3.436c.087-.91.485-1.734 1.08-2.404v1.267l.504.252.496.248v-.834l-.222-.221a.16.16 0 0 1 .114-.274H9v-1.288a5.03 5.03 0 0 1 2-.747v1.313h.21a.18.18 0 0 0 .18-.18v-.36c0-.1.08-.181.18-.181H12V13h5v2.822h.626a.61.61 0 0 1 .374.14v-2.915a4.537 4.537 0 0 1 2 .69V17h-1.398v.264l-.21.212a.716.716 0 0 0-.21.524H20v1.473l.045-.045.721-.721v-.665c0-.031.025-.056.057-.056h.484c.1 0 .18-.081.18-.18V17H21v-2.41a4.42 4.42 0 0 1 1.08 3.343C21.862 20.213 19.744 22 17.256 22zm3.51-2.572v-.721l.233-.234v.721l-.234.234zM9.946 17v.264L9.683 17h.264zM17 4h-1V1h1v3zm-2-1H7v-.974h8V3zM2 18h3v1H1V2.026h3V3H2v3h18V3h-2v-.974h3v9.828a6.584 6.584 0 0 0-1-.533V7H2v11zM6 4H5V1h1v3z"/><path d="M22.08 17.933c-.003.023-.012.044-.014.067H21v2.337c-.289.326-.626.61-1 .85V18h-2v3.934a5.11 5.11 0 0 1-.743.066H17v-4h-2v4h-1v-4h-2v4h-.556c-.15 0-.296-.032-.444-.047V18H9v3.264a4.542 4.542 0 0 1-.93-.76c-.027-.03-.044-.065-.07-.095V18H6.928a4.539 4.539 0 0 1-.007-.933c.002-.023.01-.044.013-.067H8v-2.337c.289-.326.626-.61 1-.85V17h2v-3.934a5.11 5.11 0 0 1 .743-.066H12v4h2v-4h1v4h2v-4h.556c.15 0 .296.032.444.047V17h2v-3.264c.337.215.656.459.93.76.027.03.044.065.07.095V17h1.072c.034.306.037.618.007.933z" opacity=".5"/><path fill="none" d="M0 0h24v24H0z"/></svg>