<?xml version="1.0" encoding="UTF-8"?><svg id="icons" xmlns="http://www.w3.org/2000/svg" viewBox="0 0 16 16"><defs><style>.cls-1{fill:none;}.cls-1,.cls-2{stroke-width:0px;}</style></defs><path class="cls-2" d="M15.47845,13.31482c-.15918-.22656-2.65131-2.86761-2.67719-2.89594-.84277-.88916-2.30371-2.37256-3.32666-3.37695-.55713-.54639-1.3125-1.42627-1.84912-2.06982-.22363-.28418-.479-.7041-.48975-.85645-.01855-.25342-.0835-.55957-.13428-.77051.26172-.20801.80615-.58398,1.49902-.74512.98584-.23096,2.08008-.271,2.09082-.271l.86133-.02979-.81152-.89551-.11914-.0293c-.09033-.02197-2.24219-.53857-3.979-.21143-1.2876.24219-2.3667.71826-3.12109,1.37695-.16113.14258-.79395.82227-.73877,1.32861.00977.08936.00438.2793-.08545.3623-.12988.12012-.34033.27832-.48584.38379-.25342-.07275-.64258-.14648-.92529-.02295-.30566.13281-.86719.61426-.97656.70947l-.0918.0791-.03174.11719c-.09863.35889-.11133.63086-.03906.80811.06836.16406.26025.53418.43018.7793.07959.11523.58838.77686.91797.93652.26611.13037.4668.1167.61523.10254.21289-.01465.45557-.13428.76221-.3584.08887-.08691.62744-.70947.85889-1.08887.18018-.29541.51562-.56689.71729-.58105.18457.00293.89062.25879,1.47607.51904.02478.02869.05981.06934.08649.10022.05084-.0014.09821-.01495.14935-.01495.45837,0,.89313.07446,1.31415.1814-.19574-.22766-.39349-.45721-.59113-.68622.05225-.04468.28906-.22791.34113-.26562.33844.40039.71521.83319,1.07428,1.2243,1.19202.5271,2.13678,1.48334,2.65588,2.69031.45874.46863.88763.91205,1.21887,1.26227,1.83203,1.94092,2.5014,2.67865,2.60687,2.81049l.09082.10498c.04102.05713.0332.20361-.25781.49463-.43848.43799-.58984.45703-.5957.45752-.00195,0-.01953-.00146-.05957-.01465-.19141-.08154-.66406-.70996-.86621-.97852l-.46582-.59766c-.38049-.48535-.7948-1.03851-1.25104-1.63342.00378.08484.02423.16418.02423.25018,0,.42462-.05853.83069-.14764,1.22412.24353.3125.38934.52258.58685.77435.22266.28516.38916.49707.45459.58398.49707.66016.91406,1.17969,1.354,1.32715.12744.04199.24951.06445.37109.06445.39551,0,.7832-.23145,1.30322-.75098.97607-.97754.50439-1.66016.25635-1.9082ZM6.0293,3.57904c.04102.16699.09473.40918.10938.60986.02136.30341.19513.64581.38123.94141-.05103.0376-.10516.07806-.16931.12793-.17578.13562-.28943.23804-.38422.32928-.47351-.20087-1.20697-.48535-1.60114-.49188-.79004.05176-1.36035.68994-1.58691,1.05908-.14746.24316-.51855.6875-.66797.85547-.14941.10254-.21094.12207-.21387.12305-.15527-.07568-.47363-.44141-.5957-.61572-.10547-.15283-.23145-.38672-.29785-.52344.00195-.01562.00488-.03613.00879-.06201.25781-.21436.49316-.38477.57812-.42529-.00684.01855.08691.02344.24512.06885l.4668.13428.39355-.28369c.17578-.12646.42578-.31738.58105-.46094.44922-.41504.4209-1.02734.40137-1.20557.0293-.02979.2627-.34033.4082-.47168.61328-.53613,1.5293-.93262,2.6416-1.14209.1123-.02148.23145-.03906.35547-.05273-.30469.16943-.54492.34326-.70312.46924l-.49902.39648.14844.62012ZM6.05792,7.99994c-2.24109,0-4.04895,1.79089-4.04895,4s1.80786,4,4.04895,4,3.94208-1.79095,3.94208-4-1.70093-4-3.94208-4ZM6,14.99994c-1.65411,0-3-1.34589-3-3s1.34589-3,3-3,3,1.34589,3,3-1.34595,3-3,3ZM6,11.99994h2v1h-3v-3h1v2Z"/><rect class="cls-1" width="16" height="16"/></svg>