<svg xmlns="http://www.w3.org/2000/svg" viewBox="0 0 24 24"><path d="M22.703 19.288c-.935-1.264-2.781-3.252-4.92-5.554-2.089-2.249-4.457-4.798-6.346-7.088-.412-.409-.772-.92-.786-1.119-.032-.45-.114-.772-.173-1.007a4.264 4.264 0 0 1-.047-.198c.374-.3 1.256-.927 2.381-1.187 1.477-.34 3.02-.405 3.09-.407l1.092-.042-1.087-1.166-.148-.036c-.205-.048-1.947-.473-3.94-.473-3.01 0-5.405 1.142-6.643 2.213-.012.01-1.18 1.115-1.09 1.912.055.502-.118.63-.578.97-.145.108-.296.22-.37.327C1.802 6.32 1.292 6.744.36 7.635c-.203.193-.426.539-.34 1.092.162 1.03 1.418 2.283 1.801 2.468 1.047.5 2.275-.22 3.364-1.985.225-.366.756-.897 1.193-.929.305 0 1.283.393 1.995.678.088.036.16.06.267.077.507.61.98 1.193 1.437 1.763.61.106 1.19.3 1.728.568a143.233 143.233 0 0 0-2.226-2.762c.11-.111.295-.276.607-.515.274-.211.524-.38.742-.503 1.837 2.208 4.104 4.655 6.123 6.828 2.117 2.28 3.946 4.25 4.847 5.468a.6.6 0 0 1-.069.789l-1.219 1.155a.568.568 0 0 1-.455.17.623.623 0 0 1-.437-.207L19 20.983c-.666-.749-1.49-1.899-2.533-3.355a319.06 319.06 0 0 0-1.277-1.773c.068.372.109.754.109 1.145 0 .225-.013.447-.036.666l.391.545c1.102 1.537 1.898 2.648 2.598 3.436l.718.808a1.634 1.634 0 0 0 1.21.542c.415 0 .819-.16 1.118-.444l1.219-1.156a1.604 1.604 0 0 0 .185-2.109zM9.577 7.296c-.385.295-.652.535-.828.736h-.001c-1.163-.467-1.903-.75-2.401-.75h-.004c-.943.067-1.707.912-2.01 1.403-.572.928-1.465 1.899-2.063 1.618-.24-.15-1.203-1.16-1.266-1.762-.013-.127.024-.162.047-.184.893-.854 1.124-.997 2.008-.928a.89.89 0 0 0 .66-.217c.13-.113.26-.21.384-.302.512-.38 1.093-.81.978-1.863.019-.205.478-.831.75-1.068 1.05-.908 3.25-1.968 5.987-1.968.423 0 .84.02 1.233.052-.155.03-.31.062-.463.097-1.39.32-2.454 1.11-2.848 1.435-.436.361-.323.81-.232 1.17.054.21.12.472.145.835.03.413.328.877.606 1.226a8.058 8.058 0 0 0-.682.47zM9 12c-2.757 0-4.991 2.243-4.991 5S6.243 22 9 22s5-2.243 5-5-2.243-5-5-5zm0 9c-2.205 0-4-1.795-4-4s1.795-4 4-4 4 1.795 4 4-1.795 4-4 4zm0-4h2v1H8v-4h1v3z" stroke-width="0"/><path stroke-width="0" fill="none" d="M0 0h24v24H0z"/></svg>