<?xml version="1.0" encoding="UTF-8"?><svg id="icons" xmlns="http://www.w3.org/2000/svg" viewBox="0 0 32 32"><defs><style>.cls-1{fill:none;}.cls-1,.cls-2{stroke-width:0px;}</style></defs><path class="cls-2" d="M13,16.19818c-3.75537,0-6.80005,3.04364-6.80005,6.79999,0,3.75549,3.04468,6.79999,6.80005,6.79999,3.75629,0,6.79999-3.04449,6.79999-6.79999,0-3.75635-3.0437-6.79999-6.79999-6.79999ZM12.99994,28.79816c-3.19861,0-5.79993-2.6012-5.79993-5.79968s2.60132-5.80029,5.79993-5.80029c3.19879,0,5.80005,2.60175,5.80005,5.80029s-2.60126,5.79968-5.80005,5.79968ZM29.63965,25.46191c-1.18555-1.62012-3.53516-4.17676-6.25488-7.1377-2.65723-2.89258-5.66992-6.1709-8.06445-9.10742-.4834-.48242-1.02051-1.20605-1.04395-1.53223-.04004-.56543-.1416-.97266-.21582-1.27051-.03613-.14355-.08105-.32227-.0791-.34766.43555-.36523,1.61523-1.25293,3.15234-1.61035,1.87402-.43555,4.00488-.52441,4.09473-.52734l1.08008-.04297-1.13965-1.23926-.14844-.03516c-.42578-.10156-2.66895-.60547-5.12305-.60547-3.79199,0-6.80664,1.45215-8.36621,2.81348-.22559.19922-1.43359,1.47852-1.33789,2.33496.07812.73047-.21191.94727-.79199,1.38184-.18066.13477-.37012.27734-.55859.44531-1.46875-.12598-1.91992.25098-3.01367,1.15918l-.38965.32129-.0957.10352c-.11523.16797-.47656.75391-.27637,1.24121.59473,1.43457,1.77246,2.74542,2.29395,3.00128,1.04199.50391,1.91504-.12305,2.40332-.4834.11328-.11719,1.1377-1.27081,1.57715-1.99152.28223-.46191.98535-1.21289,1.63281-1.25977.41602,0,1.67383.50977,2.58787.88086.11135.0459.20217.07715.27932.10449.0459.01562.10156.03516.11328.03516h.00098c.85571,1.0423,1.64142,2.02686,2.38721,2.97589.56134.09491,1.10291.24536,1.61859.45044-.9433-1.21887-1.96332-2.50879-3.09729-3.89331.12549-.14313.37189-.38257.87567-.77228.35645-.27832.67969-.5.96289-.65918l.09021-.05103c2.34448,2.85638,5.26538,6.03748,7.8551,8.85669,2.7002,2.93848,5.03125,5.47656,6.18457,7.05176v.00098c.27148.37012.22656.88965-.10645,1.20801l-1.54688,1.48535c-.18164.17383-.44727.27051-.67773.25488-.25-.01074-.48828-.12402-.65332-.31152l-.91211-1.03711c-.85254-.96973-1.90332-2.45312-3.23438-4.33105-.21796-.3075-.44855-.63257-.68481-.96472.01685.21198.03247.42432.03247.6405,0,.34967-.02997.69177-.07343,1.02979,1.3515,1.90619,2.34296,3.30017,3.21014,4.28564l.91113,1.02808c.34473.3916.84082.62891,1.36133.65137.02734.00098.05371.00098.08105.00098.49219,0,.97363-.19141,1.33203-.53418l1.54688-1.47632c.69238-.66406.78809-1.74805.2207-2.52148ZM13.12695,10.06445c-.50391.38965-.85254.7041-1.06836.96289l-.02881.03461c-.03033-.01135-.05176-.01801-.0874-.03265-1.4209-.57715-2.39551-.95508-3-.95508h-.00293c-1.14551.08105-2.0791,1.12988-2.45117,1.7373-.38574.63281-1.34277,1.74023-1.37598,1.78711-.59668.43066-.93848.51855-1.3125.33789-.23535-.12207-1.28125-1.24023-1.79199-2.44531.00098-.03906.04004-.16602.125-.30566l.33398-.27539c1.04492-.86621,1.2373-1.02246,2.29688-.93164.2793.01953.53906-.06836.74023-.24805.16797-.14844.33691-.27441.49707-.39453.62109-.46484,1.32617-.99219,1.1865-2.28613-.00389-.26562.61428-1.13477,1.00393-1.47852,1.35547-1.18359,4.1875-2.56543,7.70605-2.56543.93066,0,1.84082.0791,2.61914.17773-.52148.07617-1.07227.17383-1.60938.29785-1.74707.40723-3.07715,1.40723-3.56836,1.81738-.48633.40723-.36035.91211-.24902,1.35742.06934.27637.15527.62012.18848,1.09961.03979.54901.47345,1.1803.84229,1.62512-.3031.17859-.63452.40369-.99365.68347ZM13,22.99994h3v1h-4v-5h1v4Z"/><rect class="cls-1" width="32" height="32"/></svg>