<svg xmlns="http://www.w3.org/2000/svg" viewBox="0 0 32 32"><path d="M13 16.198a6.8 6.8 0 1 0 0 13.6 6.8 6.8 0 0 0 6.8-6.8 6.8 6.8 0 0 0-6.8-6.8zm0 12.6c-3.199 0-5.8-2.601-5.8-5.8s2.601-5.8 5.8-5.8 5.8 2.602 5.8 5.8-2.601 5.8-5.8 5.8zm16.64-3.336c-1.186-1.62-3.536-4.177-6.255-7.138-2.657-2.892-5.67-6.17-8.065-9.107-.483-.483-1.02-1.206-1.044-1.532a6.906 6.906 0 0 0-.215-1.27 3.621 3.621 0 0 1-.08-.349c.436-.365 1.616-1.253 3.153-1.61 1.874-.436 4.005-.524 4.095-.527l1.08-.043-1.14-1.24-.148-.035c-.426-.101-2.67-.605-5.124-.605-3.792 0-6.806 1.452-8.366 2.813-.225.2-1.433 1.479-1.338 2.335.078.73-.212.948-.792 1.382-.18.135-.37.277-.558.445-1.469-.126-1.92.251-3.014 1.16l-.39.32-.095.104c-.115.168-.477.754-.277 1.242.595 1.434 1.773 2.745 2.294 3 1.042.505 1.915-.122 2.404-.482.113-.118 1.137-1.271 1.577-1.992.282-.462.985-1.213 1.633-1.26.416 0 1.673.51 2.587.881.112.046.203.077.28.105.046.015.101.035.113.035h.001a177.064 177.064 0 0 1 2.387 2.976 7.97 7.97 0 0 1 1.619.45 178.785 178.785 0 0 0-3.097-3.893c.125-.143.371-.383.875-.773.357-.278.68-.5.963-.659l.09-.05C17.138 13 20.06 16.181 22.648 19c2.7 2.938 5.032 5.477 6.185 7.052.272.37.227.89-.106 1.209l-1.547 1.485a.927.927 0 0 1-1.331-.057l-.912-1.037c-.853-.97-1.904-2.453-3.235-4.33-.218-.308-.448-.633-.685-.965.017.212.033.424.033.64 0 .35-.03.692-.074 1.03 1.352 1.906 2.343 3.3 3.21 4.285l.912 1.029c.344.391.84.628 1.361.65a1.935 1.935 0 0 0 1.413-.533l1.547-1.476a1.926 1.926 0 0 0 .22-2.521zM13.127 10.064c-.504.39-.853.705-1.068.963l-.03.035c-.03-.011-.051-.018-.087-.033-1.42-.577-2.395-.955-3-.955H8.94c-1.145.081-2.079 1.13-2.45 1.738-.386.632-1.343 1.74-1.377 1.787-.596.43-.938.518-1.312.338-.236-.123-1.281-1.24-1.792-2.446a.852.852 0 0 1 .125-.305l.334-.276c1.045-.866 1.237-1.022 2.297-.931a.99.99 0 0 0 .74-.249c.168-.148.337-.274.497-.394.621-.465 1.326-.992 1.186-2.286-.003-.266.615-1.135 1.004-1.479 1.356-1.183 4.188-2.565 7.706-2.565.931 0 1.841.079 2.62.178-.522.076-1.073.173-1.61.297C15.16 3.89 13.83 4.89 13.34 5.3c-.486.407-.36.912-.25 1.357.07.277.156.62.19 1.1.04.549.473 1.18.842 1.625a9.363 9.363 0 0 0-.994.683zM13 23h3v1h-4v-5h1v4z" stroke-width="0"/><path stroke-width="0" fill="none" d="M0 0h32v32H0z"/></svg>