<svg xmlns="http://www.w3.org/2000/svg" viewBox="0 0 16 16"><path d="M8 2.904H7V1.08h1zm3.048-.245-.7-.713-1.373 1.349.701.713zm1.913 7.411a.935.935 0 0 0-1.011-.97 1.2 1.2 0 0 0-.397.066l-.026-.013a1.16 1.16 0 0 0-.827-.32 1.4 1.4 0 0 0-.211.034A1.1 1.1 0 0 0 9.35 8a1.5 1.5 0 0 0-.35.063V5.437a1.87 1.87 0 0 0-.42-1.377 1.645 1.645 0 0 0-2.147-.002A1.94 1.94 0 0 0 6 5.5v3.908L4.953 8.396a1.24 1.24 0 0 0-1.527-.303 1.11 1.11 0 0 0-.405 1.497l1.534 3.288 1.802 2.307.786-.62-1.706-2.162-1.53-3.274a.125.125 0 0 1 .02-.171c.106-.058.305.132.329.155L7 11.766V5.44a1.1 1.1 0 0 1 .142-.678.68.68 0 0 1 .725 0c.14.142.136.481.133.738V11h1V9.417C9 9 9.202 9 9.35 9c.174 0 .325 0 .325.417V10h.9v-.156a1 1 0 0 1 .125-.011c.082 0 .125.022.125.042v.292h1c0-.037.22-.054.263-.06A25 25 0 0 1 12 13.594a12 12 0 0 1-.55 1.818l.858.287a16 16 0 0 0 .541-1.891A12 12 0 0 0 13 11.553a29 29 0 0 0-.04-1.483zM6.025 3.295 4.653 1.946l-.701.713 1.372 1.349z"/><path fill="none" d="M0 0h16v16H0z"/></svg>