<svg xmlns="http://www.w3.org/2000/svg" viewBox="0 0 32 32"><path d="M29 6V3h-3v1h-8V3h-3v3h.03l-1.265 2h1.183l1.265-2H18V5h8v1h1v20h-1v1h-3v1h3v1h3v-3h-1V6zM17 5h-1V4h1zm11 23h-1v-1h1zM27 4h1v1h-1zM15 27v1h-2v-1zm0 1h1v2h-1zm1-1h2v1h-2zm0 0h-1v-2h1zM9.257 17H8.074l1.265-2h1.183zm-1.815 1h1.182L7.36 20H6.177zm-.715 3l-1.264 2H4.28l1.265-2zm-3.794 6H5v1H2v-1.395L3.648 24H4.83zm10.118-16h-1.183l1.265-2h1.183zm-1.815 1h1.183l-1.265 2H9.97zM6 27h2v1H6zm14 0h2v1h-2zM9 27h2v1H9z"/><path fill="none" d="M0 0h32v32H0z"/></svg>