<?xml version="1.0" encoding="UTF-8"?><svg id="icons" xmlns="http://www.w3.org/2000/svg" viewBox="0 0 24 24"><defs><style>.cls-1{fill:none;}</style></defs><rect class="cls-1" width="24" height="24"/><path d="M16,3h2v1h-2v-1ZM22,7h-1v2h1v-2ZM22,11h-1v2h1v-2ZM21,17h1v-2h-1v2ZM12,15h1v7H3V5c-.55231,0-1-.44775-1-1v-1c0-.55231.44769-1,1-1h1c.55231,0,1,.44769,1,1v1c0,.55225-.44769,1-1,1v16h8v-6ZM3,4h1v-1h-1v1ZM21,5h1v-2h-2v1h1v1ZM12,3v2h1v-1h1v-1h-2ZM12,9h1v-2h-1v2ZM12,12v1h1v-2h-1v1ZM23,20v1c0,.55225-.44769,1-1,1h-1c-.55231,0-1-.44775-1-1v-1c0-.55231.44769-1,1-1h1c.55231,0,1,.44769,1,1ZM22,20h-1v1h1v-1Z"/></svg>