<svg xmlns="http://www.w3.org/2000/svg" viewBox="0 0 16 16"><path fill="none" d="M0 0h16v16H0z"/><path d="M15 13h-1a1 1 0 0 0-1 1v1a1 1 0 0 0 1 1h1a1 1 0 0 0 1-1v-1a1 1 0 0 0-1-1zm0 2h-1v-1h1v1zm-.025-7h-.95V7h.95v1zm0 2h-.95V9h.95v1zm0-4h-.95V5h.95v1zm-.95-4.025H14v-.95h.975V2h-.95v-.025zM10 1.025h1v.95h-1v-.95zM14.975 4h-.95V3h.95v1zM13 1.975h-1v-.95h1v.95zm-5 12.05H1.975V3H2a1 1 0 0 0 1-1V1a1 1 0 0 0-1-1H1a1 1 0 0 0-1 1v1a1 1 0 0 0 1 1h.025v11.975H9V11H8v3.025zM1 2V1h1v1H1zm7-.975h1V2H8v-.975zM8 9h1v1H8V9zm6.025 2h.95v1h-.95v-1zM8 5h1v1H8V5zm0 2h1v1H8V7zm0-4h1v1H8V3z"/></svg>