<?xml version="1.0" encoding="UTF-8"?><svg id="icons" xmlns="http://www.w3.org/2000/svg" viewBox="0 0 32 32"><defs><style>.cls-1{fill:none;}</style></defs><rect class="cls-1" width="32" height="32"/><path d="M29.20001,25h-.20001v-2h-1v2h-.20001c-.99408,0-1.79999.80585-1.79999,1.79999v1.40002c0,.99408.80591,1.79999,1.79999,1.79999h1.40002c.99408,0,1.79999-.80591,1.79999-1.79999v-1.40002c0-.99414-.80591-1.79999-1.79999-1.79999ZM30,28.2002c0,.44141-.3584.7998-.7998.7998h-1.40039c-.44141,0-.7998-.3584-.7998-.7998v-1.40039c0-.44141.3584-.7998.7998-.7998h1.40039c.44141,0,.7998.3584.7998.7998v1.40039ZM29,17h-1v-2h1v2ZM28,19h1v2h-1v-2ZM29,13h-1v-2h1v2ZM23,3h2v1h-2v-1ZM28,4h-1v-1h2v2h-1v-1ZM29,9h-1v-2h1v2ZM19,3h2v1h-2v-1ZM15,7h1v2h-1v-2ZM15,28H4V7h.20001c.99408,0,1.79999-.80591,1.79999-1.79999v-1.40002c0-.99414-.80591-1.79999-1.79999-1.79999h-1.40002c-.99408,0-1.79999.80585-1.79999,1.79999v1.40002c0,.99408.80591,1.79999,1.79999,1.79999h.20001v22h13v-6h-1v5ZM3,6h-.2002c-.44141,0-.7998-.3584-.7998-.7998v-1.40039c0-.44141.3584-.7998.7998-.7998h1.40039c.44141,0,.7998.3584.7998.7998v1.40039c0,.44141-.3584.7998-.7998.7998h-1.2002ZM15,11h1v2h-1v-2ZM15,19h1v2h-1v-2ZM17,3v1h-1v1h-1v-2h2ZM15,15h1v2h-1v-2Z"/></svg>