<svg xmlns="http://www.w3.org/2000/svg" viewBox="0 0 32 32"><path fill="none" d="M0 0h32v32H0z"/><path d="M29.2 25H29V3H15v25H4V7h.2A1.8 1.8 0 0 0 6 5.2V3.8A1.8 1.8 0 0 0 4.2 2H2.8A1.8 1.8 0 0 0 1 3.8v1.4A1.8 1.8 0 0 0 2.8 7H3v22h13V4h12v21h-.2a1.8 1.8 0 0 0-1.8 1.8v1.4a1.8 1.8 0 0 0 1.8 1.8h1.4a1.8 1.8 0 0 0 1.8-1.8v-1.4a1.8 1.8 0 0 0-1.8-1.8zM3 6h-.2a.8.8 0 0 1-.8-.8V3.8a.8.8 0 0 1 .8-.8h1.4a.8.8 0 0 1 .8.8v1.4a.8.8 0 0 1-.8.8H3zm27 22.2a.8.8 0 0 1-.8.8h-1.4a.8.8 0 0 1-.8-.8v-1.4a.8.8 0 0 1 .8-.8h1.4a.8.8 0 0 1 .8.8v1.4z"/></svg>