<svg xmlns="http://www.w3.org/2000/svg" viewBox="0 0 32 32"><path fill="none" d="M0 0h32v32H0z"/><path d="M16 19H2v-4.5C2 12.019 4.019 10 6.5 10h5c2.481 0 4.5 2.019 4.5 4.5zM3 18h12v-3.5c0-1.93-1.57-3.5-3.5-3.5h-5C4.57 11 3 12.57 3 14.5zm6-9C6.794 9 5 7.206 5 5s1.794-4 4-4 4 1.794 4 4-1.794 4-4 4m0-7C7.346 2 6 3.346 6 5s1.346 3 3 3 3-1.346 3-3-1.346-3-3-3m22 30H17v-4.5c0-2.481 2.019-4.5 4.5-4.5h5c2.481 0 4.5 2.019 4.5 4.5zm-13-1h12v-3.5c0-1.93-1.57-3.5-3.5-3.5h-5c-1.93 0-3.5 1.57-3.5 3.5zm6-9c-2.206 0-4-1.794-4-4s1.794-4 4-4 4 1.794 4 4-1.794 4-4 4m0-7c-1.654 0-3 1.346-3 3s1.346 3 3 3 3-1.346 3-3-1.346-3-3-3m-12.645 7.646-.707.708L13.294 26H8.507A2.51 2.51 0 0 1 6 23.5V21H5v2.502A3.514 3.514 0 0 0 8.507 27h4.785l-2.646 2.646.708.708 3.853-3.855z"/></svg>