<svg xmlns="http://www.w3.org/2000/svg" viewBox="0 0 24 24"><path fill="none" d="M0 0h24v24H0z"/><path d="M7 7C5.346 7 4 5.654 4 4s1.346-3 3-3 2.99 1.346 2.99 3S8.654 7 7 7m0-5c-1.103 0-2 .897-2 2s.897 2 2 2 2-.897 2-2-.897-2-2-2m4.998 12H2v-2.5C2 9.57 3.57 8 5.5 8h3c1.93 0 3.498 1.57 3.498 3.5zM3 13h8v-1.5C11 10.121 9.878 9 8.5 9h-3A2.503 2.503 0 0 0 3 11.5zm15 3c-1.654 0-3-1.346-3-3s1.346-3 3-3 2.99 1.346 2.99 3-1.336 3-2.99 3m0-5c-1.103 0-2 .897-2 2s.897 2 2 2 2-.897 2-2-.897-2-2-2m4.998 12H13v-2.5c0-1.93 1.57-3.5 3.5-3.5h3c1.93 0 3.498 1.57 3.498 3.5zM14 22h8v-1.5c0-1.379-1.122-2.5-2.5-2.5h-3a2.503 2.503 0 0 0-2.5 2.5zm-4.747-5.354-.707.708L10.193 19H7.5A2.503 2.503 0 0 1 5 16.5V15H4v1.5C4 18.43 5.57 20 7.5 20h2.693l-1.647 1.646.707.708 2.854-2.854z"/></svg>