<svg xmlns="http://www.w3.org/2000/svg" viewBox="0 0 24 24"><path d="M2 2v20h20V2H2zm19 15.19l-3.5 1.75-3.5-1.75v-4.38l3.5-1.75 3.5 1.75v4.38zm-11-7V5.81l3.5-1.75L17 5.81v4.38l-3.5 1.75-3.5-1.75zm3 2.62v4.38l-3.5 1.75L6 17.19v-4.38l3.5-1.75 3.5 1.75zm5-2.62V5.81l3-1.5v7.38l-3-1.5zM21 3v.19l-3.5 1.75L14 3.19V3h7zm-8 0v.19L9.5 4.94 6 3.19V3h7zM3 3h2v.19l-2 1V3zm0 2.31l2.5-1.25L9 5.81v4.38l-3.5 1.75L3 10.69V5.31zm0 6.5l2 1v4.38l-2 1v-6.38zM3 21v-1.69l2.5-1.25L9 19.81V21H3zm7 0v-1.19l3.5-1.75 3.5 1.75V21h-7zm8 0v-1.19l3-1.5V21h-3z"/><path fill="none" opacity=".5" d="M0 0h24v24H0z"/></svg>