<?xml version="1.0" encoding="UTF-8"?><svg id="icons" xmlns="http://www.w3.org/2000/svg" viewBox="0 0 16 16"><rect width="16" height="16" style="fill:none;"/><path d="M5.25476,4.12909c.39746-.42877.64526-.99872.64526-1.62909C5.90002,1.1767,4.83075.09998,3.50482.09998S1.09998,1.1767,1.09998,2.5c0,.62988.24963,1.1994.6488,1.62799C.73871,4.4491.002,5.38464.002,6.5v2.5h6.998v-2.5c0-1.11407-.73706-2.04871-1.74524-2.37091ZM3.5,1c.82715,0,1.5.67285,1.5,1.5s-.67285,1.5-1.5,1.5-1.5-.67285-1.5-1.5.67285-1.5,1.5-1.5ZM6,8H1v-1.5c0-.82715.67285-1.5,1.5-1.5h2c.82715,0,1.5.67285,1.5,1.5v1.5ZM14.25476,11.12909c.39746-.42877.64526-.99872.64526-1.62909,0-1.3233-1.06927-2.40002-2.3952-2.40002s-2.40485,1.07672-2.40485,2.40002c0,.62988.24963,1.1994.6488,1.62799-1.01007.32111-1.74878,1.25665-1.74878,2.37201v2.5h7v-2.5c0-1.11407-.73706-2.04871-1.74524-2.37091ZM12.50482,8.00482c.82446,0,1.49518.67065,1.49518,1.49518,0,.82446-.67072,1.49518-1.49518,1.49518-.82452,0-1.49518-.67072-1.49518-1.49518,0-.82452.67065-1.49518,1.49518-1.49518ZM15,15h-5v-1.5c0-.82715.67285-1.5,1.5-1.5h2c.82715,0,1.5.67285,1.5,1.5v1.5ZM8.2085,13.5l-2.50146,2.5-.70703-.70703,1.29401-1.29297h-2.29401c-1.10303,0-2-.89746-2-2v-2h1v2c0,.55176.44873,1,1,1h2.29401l-1.29401-1.29297.70703-.70703,2.50146,2.5Z"/></svg>