<svg xmlns="http://www.w3.org/2000/svg" viewBox="0 0 32 32"><path d="M3 3v26h26V3zm25 19.217-4.5 2.7-4.5-2.7v-4.434l4.5-2.7 4.5 2.7zm-21.75-6.65L4 14.217V9.783l4.5-2.7 4.5 2.7v4.434l-4.5 2.7zM8 17.783v4.434l-4 2.4v-9.234zM18 6.217l-4.5 2.7-4.5-2.7V4h9zm.5.866 4.5 2.7v4.434l-4.5 2.7-4.5-2.7V9.783zM9 17.783l4.5-2.7 4.5 2.7v4.434l-4.5 2.7-4.5-2.7zm5 8 4.5-2.7 4.5 2.7V28h-9zm10-11.566V9.783l4-2.4v9.234zm4-8-4.5 2.7-4.5-2.7V4h9zM8 4v2.217l-4 2.4V4zM4 25.783l4.5-2.7 4.5 2.7V28H4zM24 28v-2.217l4-2.4V28z"/><path fill="none" d="M0 0h32v32H0z" opacity=".5"/></svg>