<?xml version="1.0" encoding="UTF-8"?><svg id="icons" xmlns="http://www.w3.org/2000/svg" viewBox="0 0 32 32"><rect width="32" height="32" style="fill:none;"/><path d="M16,19H2v-4.5c0-2.48145,2.01855-4.5,4.5-4.5h5c2.48145,0,4.5,2.01855,4.5,4.5v4.5ZM3,18h12v-3.5c0-1.92969-1.57031-3.5-3.5-3.5h-5c-1.92969,0-3.5,1.57031-3.5,3.5v3.5ZM9,9c-2.20557,0-4-1.79443-4-4S6.79443,1,9,1s4,1.79443,4,4-1.79443,4-4,4ZM9,2c-1.6543,0-3,1.3457-3,3s1.3457,3,3,3,3-1.3457,3-3-1.3457-3-3-3ZM31,32h-14v-4.5c0-2.48145,2.01855-4.5,4.5-4.5h5c2.48145,0,4.5,2.01855,4.5,4.5v4.5ZM18,31h12v-3.5c0-1.92969-1.57031-3.5-3.5-3.5h-5c-1.92969,0-3.5,1.57031-3.5,3.5v3.5ZM24,22c-2.20557,0-4-1.79443-4-4s1.79443-4,4-4,4,1.79443,4,4-1.79443,4-4,4ZM24,15c-1.6543,0-3,1.3457-3,3s1.3457,3,3,3,3-1.3457,3-3-1.3457-3-3-3ZM11.35547,22.64648l-.70703.70703,2.64569,2.64648h-4.7868c-1.37842,0-2.50342-1.12207-2.50732-2.5v-2.5h-1v2.50195c.00586,1.92871,1.5791,3.49805,3.50732,3.49805h4.78485l-2.64569,2.64648.70703.70703,3.85352-3.85449-3.85156-3.85254Z"/></svg>