<svg xmlns="http://www.w3.org/2000/svg" viewBox="0 0 16 16"><path fill="none" d="M0 0h16v16H0z"/><path d="M5.255 4.13A2.397 2.397 0 0 0 3.505.1 2.405 2.405 0 0 0 1.1 2.5c0 .63.25 1.2.649 1.628A2.49 2.49 0 0 0 .002 6.5V9H7V6.5a2.495 2.495 0 0 0-1.745-2.37M3.5 1C4.327 1 5 1.673 5 2.5S4.327 4 3.5 4 2 3.327 2 2.5 2.673 1 3.5 1M6 8H1V6.5C1 5.673 1.673 5 2.5 5h2C5.327 5 6 5.673 6 6.5zm8.255 3.13a2.397 2.397 0 0 0-1.75-4.03A2.405 2.405 0 0 0 10.1 9.5c0 .63.25 1.2.649 1.628A2.495 2.495 0 0 0 9 13.5V16h7v-2.5a2.495 2.495 0 0 0-1.745-2.37m-1.75-3.125c.824 0 1.495.67 1.495 1.495a1.496 1.496 0 1 1-1.495-1.495M15 15h-5v-1.5c0-.827.673-1.5 1.5-1.5h2c.827 0 1.5.673 1.5 1.5zm-6.791-1.5L5.707 16 5 15.293 6.294 14H4c-1.103 0-2-.897-2-2v-2h1v2c0 .552.449 1 1 1h2.294L5 11.707 5.707 11z"/></svg>