<svg xmlns="http://www.w3.org/2000/svg" viewBox="0 0 16 16"><path d="M1 1v14h14V1H1zm6 6.232V4.768L9.5 3.1 12 4.768v2.464L9.5 8.9 7 7.232zm2 2.536v2.464L6.5 13.9 4 12.232V9.768L6.5 8.1 9 9.768zm0-7.536L6.5 3.9 4 2.232V2h5v.232zM6 4.768v2.464L3.5 8.9 2 7.9V4.101l1.5-1L6 4.768zm-3 5v2.464L2 12.9V9.101l1 .667zm.5 3.333L4.849 14H2.15l1.349-.899zm6 0l1.349.899H8.15l1.349-.899zm3 .798L10 12.232V9.768L12.5 8.1l1.5 1v3.798l-1.5 1zm.5-6.667V4.768l1-.667v3.798l-1-.667zM14 2.9l-1.5 1L10 2.232V2h4v.899zM3 2v.232L2 2.9V2h1z"/><path fill="none" opacity=".5" d="M0 0h16v16H0z"/></svg>