<svg xmlns="http://www.w3.org/2000/svg" viewBox="0 0 24 24"><path d="M2 2v20h20V2zm19 15.19-3.5 1.75-3.5-1.75v-4.38l3.5-1.75 3.5 1.75zm-11-7V5.81l3.5-1.75L17 5.81v4.38l-3.5 1.75zm3 2.62v4.38l-3.5 1.75L6 17.19v-4.38l3.5-1.75zm5-2.62V5.81l3-1.5v7.38zM21 3v.19l-3.5 1.75L14 3.19V3zm-8 0v.19L9.5 4.94 6 3.19V3zM3 3h2v.19l-2 1zm0 2.31 2.5-1.25L9 5.81v4.38l-3.5 1.75L3 10.69zm0 6.5 2 1v4.38l-2 1zM3 21v-1.69l2.5-1.25L9 19.81V21zm7 0v-1.19l3.5-1.75 3.5 1.75V21zm8 0v-1.19l3-1.5V21z"/><path fill="none" d="M0 0h24v24H0z" opacity=".5"/></svg>