<?xml version="1.0" encoding="UTF-8"?><svg id="icons" xmlns="http://www.w3.org/2000/svg" viewBox="0 0 32 32"><defs><style>.cls-1{fill:none;}</style></defs><path d="M29.46191,15.7373c.82812-2.11133.07324-5.74805-1.6709-7.53125-1.65625-1.69336-2.70117-2.17285-4.90527-2.11035.01367-.8457-.31641-1.72754-.96094-2.54102-1.24805-1.57617-3.39648-2.55469-5.60547-2.55469-4.19043,0-5.95898,2.81641-6.61328,4.36133-.03809-.00098-.07617-.00195-.11328-.00195-2.06836,0-3.89355,1.44629-4.83789,2.97949-1.02148,1.65918-1.19922,3.58789-1.37109,5.4541l-.00977.10742c-1.41113.79785-2.22656,2.05566-2.30371,3.56934-.09668,1.85938.98633,3.89355,2.63184,4.94629,1.21582.77637,2.54688.9375,3.80566.47559.28516.68359.85156,1.26074,1.62109,1.63379,1.38531.67358,3.16431.60327,4.87109-.1604v5.63501h-2v1h8v-1h-2v-5.56042c1.28888,1.02478,2.84711,1.55652,4.51465,1.55652,1.10938,0,2.26465-.23242,3.41797-.70703,3.03125-1.24512,5.06738-3.82227,5.06738-6.41309,0-1.48828-.56445-2.61816-1.53809-3.13867ZM25.55273,24.36426c-2.80664,1.1543-5.61133.69922-7.50293-1.21387l-.0498.04926v-1.55707l1.71875-4.76367c.09374-.25977-.04102-.54688-.30078-.64062-.26074-.09082-.5459.04102-.64062.30078l-1.74805,4.8457c-.01953.05469-.0293.1123-.0293.16992v8.44531h-2v-6.44922c0-.0791-.01855-.1582-.05566-.22852l-1.99512-3.87695c-.12598-.24609-.42773-.34277-.67285-.21582-.24609.12598-.34277.42773-.21582.67285l1.76697,3.43433c-1.50775.74573-3.07947.86194-4.26208.28931-.70117-.33984-1.14355-.87402-1.24316-1.50293l-.11035-.6875-.61621.32422c-1.08301.56934-2.27539.50391-3.35449-.18652-1.35742-.86816-2.25098-2.53418-2.17285-4.05176.04492-.86719.42871-2.06738,2.00293-2.86035l.24707-.12402.06152-.65234c.16113-1.75098.32715-3.56152,1.22656-5.02148.85449-1.38672,2.55469-2.69336,4.37305-2.48145l.39062.04395.13574-.36914c.44727-1.21973,1.91016-4.05664,5.81348-4.05664,1.91113,0,3.75879.83398,4.82227,2.17578.61621.77734.86133,1.60645.69141,2.33301l-.1543.65625.67188-.04297c2.33496-.15039,3.12793.15137,4.72559,1.7832,1.57227,1.60645,2.25098,5.24805,1.27441,6.83496l-.35254.57227.64941.17285c1.2207.32422,1.35254,1.78027,1.35254,2.39062,0,2.18945-1.78711,4.39551-4.44727,5.48828ZM17.72949,14.75879c-.36621.94824-.875,1.8291-1.51367,2.62012-.37793.46875-.79395.70605-1.23633.70605-.02344,0-.04688,0-.07031-.00195-.75195-.04199-1.28516-.75-1.62012-1.2793l-.71875-1.13184c-.14844-.23242-.0791-.54199.1543-.68945.23047-.14844.54199-.08008.68945.1543l.71875,1.13184c.45703.71973.73438.81055.83301.81641.17188.01172.36816-.20508.47266-.33496.57324-.70898,1.0293-1.5,1.35742-2.35059.09961-.25781.38867-.38574.64648-.28711.25781.09961.38574.38867.28711.64648Z"/><rect class="cls-1" width="32" height="32"/></svg>