<?xml version="1.0" encoding="UTF-8"?><svg id="icons" xmlns="http://www.w3.org/2000/svg" viewBox="0 0 16 16"><defs><style>.cls-1{fill:none;}</style></defs><path d="M15.89062,9.2793c-.0957-.69531-.55371-1.37793-1.12988-1.75098.41895-1.20215.26465-3.04102-.66211-4.0166-.46777-.49219-1.32227-1.45801-2.38086-1.36621-.1709-.82324-.95117-1.51953-2.16406-1.87305-1.82715-.53027-4.11523-.08887-4.99122,1.71582-1.07518.04297-2.2705.74512-2.85546,1.72168-.47852.79785-.52441,1.62402-.56934,2.42188-.00781.13184-.01465.26465-.02441.39941-1.27832.88184-1.31836,2.48047-.66211,3.6709.58984,1.07129,1.76172,1.8457,2.99414,1.50781.22754.44336.62598.81934,1.12402,1.04102.34082.15137.70703.22656,1.08203.22656.44421,0,.90198-.10864,1.34863-.31561v2.33807h-1v1h5v-1h-1v-2.29565c1.52557.54193,3.20703.14838,4.3291-.58521,1.12012-.7334,1.7041-1.79395,1.56152-2.83984ZM13.78906,11.29395c-.95605.62726-2.50861.96082-3.78906.33643v-1.81299l.88379-1.94434c.11426-.25195.00293-.54785-.24805-.66211-.25098-.1123-.54688-.00391-.66211.24805l-.92871,2.04297-.0426,5.49805h-1.00232v-4.52441l-1.2998-1.49121c-.17969-.20996-.49609-.23145-.70508-.04883-.20898.18164-.23047.49707-.04883.70508l1.05371,1.20996v.76831l-.03809-.05835c-.67969.44434-1.40723.5498-1.99121.29004-.40137-.17871-.68457-.51074-.73926-.86621l-.10742-.68945-.61426.33203c-.89746.48438-1.76855-.125-2.19531-.90039-.34277-.62207-.62012-1.84375.51172-2.47949l.22559-.12695.02441-.25781c.02051-.22949.0332-.4541.0459-.6748.04199-.74121.07715-1.38184.43066-1.97168.45508-.76074,1.49219-1.31738,2.27441-1.23438l.38965.0459.13184-.37012c.54199-1.51855,2.43066-1.87402,3.92969-1.4375.83984.24414,1.61914.78906,1.46777,1.45508l-.2373,1.04004.94629-.49316c.40234-.21191.88574-.12793,1.92871.96973.71094.74902.77637,2.53516.30566,3.32227l-.33301.55664.625.17188c.42773.11719.86328.66406.93262,1.1709.08984.6582-.33105,1.36133-1.125,1.88086ZM9.31836,6.79102c-.20312.52637-.48535,1.01562-.83887,1.4541-.30469.37598-.61719.46289-.8418.46289-.0166,0-.0332-.00098-.04883-.00098-.56543-.03223-.92676-.60156-1.0459-.78809l-.38184-.60156c-.14844-.2334-.0791-.54199.15332-.69043.23145-.14844.54102-.0791.69043.15332l.38184.60254c.12305.19238.20801.27539.25098.30859.01074-.01465.03418-.03809.06348-.07422.28809-.35742.51855-.75684.68359-1.18555.09961-.25879.38867-.38574.64648-.28711.25781.09961.38574.38965.28711.64648Z"/><rect class="cls-1" width="16" height="16"/></svg>