<?xml version="1.0" encoding="UTF-8"?><svg id="icons" xmlns="http://www.w3.org/2000/svg" viewBox="0 0 24 24"><defs><style>.cls-1{fill:none;}</style></defs><path d="M23.89551,14.53809c-.16699-1.19336-.57617-2.00098-1.21875-2.41016.60938-1.66406.08594-4.37695-1.19434-5.68555-1.24121-1.26855-2.02148-1.64551-3.64355-1.62402-.02246-.62207-.27734-1.2627-.74609-1.85449-.95996-1.21094-2.6084-1.96387-4.30273-1.96387-3.14746,0-4.51465,2.07031-5.04199,3.27051h-.00586c-1.42188,0-2.85352.86719-3.73242,2.29199-.78613,1.27637-1.05078,2.74414-1.19629,4.16113-1.04199.61035-1.64355,1.55664-1.70215,2.69043-.0752,1.46191.7627,3.0127,2.08398,3.8584.91406.58496,1.94336.7334,2.89453.43164.31641.81738.9873,1.5332,1.82715,1.91113.96057.43237,2.03766.383,3.08301-.12372v2.50848h-2v1h7v-1h-2v-3.10876c1.01648.78333,2.19702,1.09509,3.35254,1.09509,1.11426,0,2.2041-.2832,3.0918-.69141,2.31348-1.06348,3.7002-2.97559,3.45117-4.75684ZM20.02637,18.38672c-1.81445.83398-4.34766,1.0498-6.02344-.84766l-.00293.00256v-1.73499l1.76465-3.03613c.13867-.23828.05762-.54492-.18164-.68359-.23828-.1377-.54492-.05859-.68359.18164l-1.89941,3.26855v6.46289h-1v-5.59668l-1.91309-1.93652c-.19434-.19531-.51074-.19922-.70703-.00391-.19629.19434-.19824.51074-.00391.70703l1.62402,1.64355v1.60901l-.0332-.05237c-1.16016.73438-2.07617.58691-2.63867.33398-.84277-.37988-1.31738-1.15625-1.41309-1.75684l-.11035-.6875-.61621.32422c-1.05664.55371-1.99121.1416-2.45508-.1543-1.01172-.64746-1.67969-1.86621-1.62305-2.96484.04395-.8584.52832-1.54395,1.39941-1.98242l.24707-.12402.02637-.27539c.12988-1.37695.34961-2.81445,1.07812-3.99512.62012-1.00684,1.8252-1.95215,3.15918-1.80176l.39062.04395.13574-.36914c.40527-1.10547,1.49707-2.96094,4.24316-2.96094,1.66895,0,2.91211.81836,3.51855,1.58496.43848.55273.61328,1.13574.49512,1.64258l-.1543.65625.67188-.04297c1.71875-.11328,2.26855.09668,3.44629,1.30078,1.11133,1.13574,1.54491,3.78516.81348,4.97168l-.35254.57324.64941.17285c.54004.14355.87598.73828,1.02734,1.81738.18457,1.31934-.99902,2.8457-2.87891,3.70996ZM13.96387,11.49023c-.28027.72363-.66797,1.39551-1.15332,1.99707-.30957.38379-.6543.57715-1.02441.57715-.02051,0-.04102-.00098-.06152-.00195-.62109-.03516-1.04688-.59766-1.31348-1.01758l-.53906-.84961c-.14844-.23242-.0791-.54199.1543-.68945.23145-.14844.54102-.08008.68945.1543l.53906.84961c.3418.53809.52441.55469.52637.55469.03124,0,.10938-.0293.25098-.20508.41992-.52051.75586-1.10254.99805-1.73047.10059-.25879.39062-.38379.64746-.28613.25684.09961.38574.38965.28613.64746Z"/><rect class="cls-1" width="24" height="24"/></svg>