<svg xmlns="http://www.w3.org/2000/svg" viewBox="0 0 24 24"><path d="M18.8 13H15v5h-1v-6H1v8h1.278A2 2 0 0 0 2 21a2 2 0 0 0 4 0h9a1.994 1.994 0 0 0 3.722 1H22v-2.983c0-1.81-.312-6.017-3.2-6.017M4 22a1 1 0 1 1 1-1 1 1 0 0 1-1 1m9-2H5.722A1.99 1.99 0 0 0 4 19H2v-6h11zm2 0h-1v-1h1zm2 2a1 1 0 1 1 1-1 1 1 0 0 1-1 1m4-2.983V21h-2a2 2 0 0 0-2-2 2 2 0 0 0-1 .278V14h1v3h1.982l1 2H21zM20.6 18l-1-2H18v-2h.8c1.614 0 2.046 2.478 2.16 4zM20 7h-3V3h1v3h2zm-2 4a5 5 0 1 0-5-5 5.006 5.006 0 0 0 5 5m0-9a4 4 0 1 1-4 4 4.005 4.005 0 0 1 4-4"/><path fill="none" d="M0 0h24v24H0z"/></svg>