<svg xmlns="http://www.w3.org/2000/svg" viewBox="0 0 24 24"><path d="M6 6.19 2.942 3.5 6 .81V3h7v3h5V3.81l3.058 2.69L18 9.19V7h-6V4H6zM2 2H1v3h1zm20 17.017V22h-3.278A1.994 1.994 0 0 1 15 21H6a2 2 0 0 1-4 0 2 2 0 0 1 .278-1H1v-8h13v6h1v-5h3.8c2.888 0 3.2 4.208 3.2 6.017M5 21a1 1 0 1 0-1 1 1 1 0 0 0 1-1m8-8H2v6h2a1.99 1.99 0 0 1 1.722 1H13zm2 6h-1v1h1zm3 2a1 1 0 1 0-1 1 1 1 0 0 0 1-1m3-2h-1.018l-1-2H17v-3h-1v5.278A2 2 0 0 1 17 19a2 2 0 0 1 2 2h2v-1.983zm-.04-1c-.114-1.522-.546-4-2.16-4H18v2h1.6l1 2zM22 5v3h1V5z"/><path fill="none" d="M0 0h24v24H0z"/></svg>