<?xml version="1.0" encoding="UTF-8"?><svg id="icons" xmlns="http://www.w3.org/2000/svg" viewBox="0 0 32 32"><defs><style>.cls-1{fill:none;}</style></defs><rect class="cls-1" width="32" height="32"/><path d="M7,4.5c0-1.37891-1.12109-2.5-2.5-2.5s-2.5,1.12109-2.5,2.5c0,1.20764.86005,2.21722,2,2.44946v18.10107c-1.13995.23224-1.99,1.24182-1.99,2.44946,0,1.37891,1.11109,2.5,2.49,2.5s2.49-1.12109,2.49-2.5c0-1.20764-.85005-2.21722-1.99-2.44946V6.94946c1.13995-.23224,2-1.24182,2-2.44946ZM6,27v1c0,.55225-.44769,1-1,1h-1c-.55231,0-1-.44775-1-1v-1c0-.55231.44769-1,1-1h1c.55231,0,1,.44769,1,1ZM16.35352,12.64648l3.85352,3.85352-3.85352,3.85352-.70703-.70703,2.64648-2.64648h-10.29297v-1h10.29297l-2.64648-2.64648.70703-.70703ZM28.04492,25.54956c1.28802-1.75043,1.95508-5.66602,1.95508-9.54956s-.66705-7.79913-1.95508-9.54956c.57727-.45831.95508-1.15753.95508-1.95044,0-1.37891-1.12109-2.5-2.5-2.5s-2.5,1.12109-2.5,2.5c0,.79291.37781,1.49213.95508,1.95044-1.28802,1.75043-1.94508,5.66602-1.94508,9.54956s.65705,7.79913,1.94508,9.54956c-.57727.45831-.95508,1.15753-.95508,1.95044,0,1.37891,1.12109,2.5,2.5,2.5s2.49-1.12109,2.49-2.5c0-.79291-.36781-1.49213-.94508-1.95044ZM24,16c0-4.73907.94397-8.00146,1.85675-9.09436.20654.05536.41943.09436.64325.09436s.43671-.039.64325-.09436c.91278,1.0929,1.85675,4.35529,1.85675,9.09436s-.94397,8.00146-1.85675,9.09436c-.20654-.05536-.41943-.09436-.64325-.09436s-.43671.039-.64325.09436c-.91278-1.0929-1.85675-4.35529-1.85675-9.09436ZM28,28c0,.55225-.44769,1-1,1h-1c-.55231,0-1-.44775-1-1v-1c0-.55231.44769-1,1-1h1c.55231,0,1,.44769,1,1v1Z"/></svg>