<svg xmlns="http://www.w3.org/2000/svg" viewBox="0 0 32 32"><path d="M21 5c0-1.654 1.346-3 3-3s2.99 1.346 2.99 3S25.654 8 24 8s-3-1.346-3-3m8.99 11c0 1.654-1.336 3-2.99 3s-3-1.346-3-3 1.346-3 3-3 2.99 1.346 2.99 3M29 16c0-1.103-.897-2-2-2s-2 .897-2 2 .897 2 2 2 2-.897 2-2m-5 7c-1.654 0-3 1.346-3 3s1.346 3 3 3 2.99-1.346 2.99-3-1.336-3-2.99-3m-14-7c0 2.206-1.794 4-4 4s-4-1.794-4-4 1.794-4 4-4 4 1.794 4 4m-1 0c0-1.654-1.346-3-3-3s-3 1.346-3 3 1.346 3 3 3 3-1.346 3-3m9.354-3.354-.708.708L20.293 16H12v1h8.293l-2.647 2.646.708.708 3.853-3.854z"/><path fill="none" d="M0 0h32v32H0z"/></svg>