<?xml version="1.0" encoding="UTF-8"?><svg id="icons" xmlns="http://www.w3.org/2000/svg" viewBox="0 0 24 24"><defs><style>.cls-1{fill:none;}</style></defs><path d="M13.35352,9.64648l2.85352,2.85352-2.85352,2.85352-.70703-.70703,1.64648-1.64648h-7.29297v-1h7.29297l-1.64648-1.64648.70703-.70703ZM6.99,20.5c0,1.37891-1.11109,2.5-2.49,2.5s-2.49-1.12109-2.49-2.5c0-1.20764.85005-2.21722,1.99-2.44946V5.94946c-1.13995-.23224-2-1.24182-2-2.44946,0-1.37891,1.12109-2.5,2.5-2.5s2.49,1.12109,2.49,2.5c0,1.20764-.85005,2.21722-1.99,2.44946v12.10107c1.13995.23224,1.99,1.24182,1.99,2.44946ZM6,20c0-.55231-.44769-1-1-1h-1c-.55231,0-1,.44769-1,1v1c0,.55225.44769,1,1,1h1c.55231,0,1-.44775,1-1v-1ZM23,12c0,2.44391-.3595,5.0097-1.12311,6.4165.67572.44794,1.11311,1.2135,1.11311,2.0835,0,1.37891-1.11109,2.5-2.49,2.5s-2.5-1.12109-2.5-2.5c0-.87.44739-1.63556,1.12311-2.0835-.76361-1.4068-1.11311-3.9726-1.11311-6.4165s.3495-5.0097,1.11311-6.4165c-.67572-.44794-1.12311-1.2135-1.12311-2.0835,0-1.37891,1.12109-2.5,2.5-2.5s2.49,1.12109,2.49,2.5c0,.87-.43739,1.63556-1.11311,2.0835.76361,1.4068,1.12311,3.9726,1.12311,6.4165ZM21,19h-1c-.55231,0-1,.44769-1,1v1c0,.55225.44769,1,1,1h1c.55231,0,1-.44775,1-1v-1c0-.55231-.44769-1-1-1ZM22,12c0-3.17163-.57501-5.19977-1.05597-6.04486-.14465.02612-.29199.04486-.44403.04486s-.29938-.01874-.44403-.04486c-.48096.84509-1.05597,2.87323-1.05597,6.04486s.57501,5.19977,1.05597,6.04486c.14465-.02612.29199-.04486.44403-.04486s.29938.01874.44403.04486c.48096-.84509,1.05597-2.87323,1.05597-6.04486Z"/><rect class="cls-1" width="24" height="24"/></svg>