<svg xmlns="http://www.w3.org/2000/svg" viewBox="0 0 16 16"><path d="M2.5 5C1.121 5 0 6.121 0 7.5S1.121 10 2.5 10s2.49-1.121 2.49-2.5S3.879 5 2.5 5M4 8a1 1 0 0 1-1 1H2a1 1 0 0 1-1-1V7a1 1 0 0 1 1-1h1a1 1 0 0 1 1 1zm6 1V8H6V7h4V6l2 1.5zm1-6.5c0-.827.673-1.5 1.5-1.5s1.5.673 1.5 1.5S13.327 4 12.5 4 11 3.327 11 2.5M14.5 6c-.827 0-1.5.673-1.5 1.5S13.673 9 14.5 9 16 8.327 16 7.5 15.327 6 14.5 6m.5 2h-1V7h1zm-1 4.5c0 .827-.673 1.5-1.5 1.5s-1.5-.673-1.5-1.5.673-1.5 1.5-1.5 1.5.673 1.5 1.5"/><path fill="none" d="M0 0h16v16H0z"/></svg>