<?xml version="1.0" encoding="UTF-8"?><svg id="icons" xmlns="http://www.w3.org/2000/svg" viewBox="0 0 16 16"><defs><style>.cls-1{fill:none;}</style></defs><path d="M2.5,5c-1.37891,0-2.5,1.12109-2.5,2.5s1.12109,2.5,2.5,2.5,2.49-1.12109,2.49-2.5-1.11109-2.5-2.49-2.5ZM4,8c0,.55225-.44769,1-1,1h-1c-.55231,0-1-.44775-1-1v-1c0-.55231.44769-1,1-1h1c.55231,0,1,.44769,1,1v1ZM9.99994,9l.00006-1h-4v-1h4l.00006-1.00006,1.99988,1.5-2,1.50006ZM11,2.5c0-.82715.67285-1.5,1.5-1.5s1.5.67285,1.5,1.5-.67285,1.5-1.5,1.5-1.5-.67285-1.5-1.5ZM14.5,6c-.82715,0-1.5.67285-1.5,1.5s.67285,1.5,1.5,1.5,1.5-.67285,1.5-1.5-.67285-1.5-1.5-1.5ZM15,8h-1v-1h1v1ZM14,12.5c0,.82715-.67285,1.5-1.5,1.5s-1.5-.67285-1.5-1.5.67285-1.5,1.5-1.5,1.5.67285,1.5,1.5Z"/><rect class="cls-1" width="16" height="16"/></svg>