<?xml version="1.0" encoding="UTF-8"?><svg id="icons" xmlns="http://www.w3.org/2000/svg" viewBox="0 0 24 24"><defs><style>.cls-1{fill:none;}</style></defs><path d="M21,10c-1.10254,0-1.99.89746-1.99,2s.88746,2,1.99,2,2-.89746,2-2-.89746-2-2-2ZM22,12.5c0,.27612-.22388.5-.5.5h-1c-.27612,0-.5-.22388-.5-.5v-1c0-.27618.22388-.5.5-.5h1c.27612,0,.5.22382.5.5v1ZM17,4c0-1.10254.89746-2,2-2s2,.89746,2,2-.89746,2-2,2-2-.89746-2-2ZM19,18c-1.10254,0-1.99.89746-1.99,2s.88746,2,1.99,2,2-.89746,2-2-.89746-2-2-2ZM6.99,12c0,1.6543-1.3357,3-2.99,3s-3-1.3457-3-3,1.3457-3,3-3,2.99,1.3457,2.99,3ZM6,12c0-1.10254-.89746-2-2-2s-2,.89746-2,2,.89746,2,2,2,2-.89746,2-2ZM14.35352,9.64648l-.70703.70703,1.64648,1.64648h-6.29297v1h6.29297l-1.64648,1.64648.70703.70703,2.85352-2.85352-2.85352-2.85352Z"/><rect class="cls-1" width="24" height="24"/></svg>