<?xml version="1.0" encoding="UTF-8"?><svg id="icons" xmlns="http://www.w3.org/2000/svg" viewBox="0 0 32 32"><defs><style>.cls-1{fill:none;}</style></defs><path d="M21,5c0-1.6543,1.3457-3,3-3s2.99,1.3457,2.99,3-1.3357,3-2.99,3-3-1.3457-3-3ZM29.99,16c0,1.6543-1.3357,3-2.99,3s-3-1.3457-3-3,1.3457-3,3-3,2.99,1.3457,2.99,3ZM29,16c0-1.10254-.89746-2-2-2s-2,.89746-2,2,.89746,2,2,2,2-.89746,2-2ZM24,23c-1.6543,0-3,1.3457-3,3s1.3457,3,3,3,2.99-1.3457,2.99-3-1.3357-3-2.99-3ZM10,16c0,2.20605-1.79395,4-4,4s-4-1.79395-4-4,1.79395-4,4-4,4,1.79395,4,4ZM9,16c0-1.6543-1.3457-3-3-3s-3,1.3457-3,3,1.3457,3,3,3,3-1.3457,3-3ZM18.35352,12.64648l-.70703.70703,2.64648,2.64648h-8.29297v1h8.29297l-2.64648,2.64648.70703.70703,3.85352-3.85352-3.85352-3.85352Z"/><rect class="cls-1" width="32" height="32"/></svg>