<?xml version="1.0" encoding="UTF-8"?><svg id="icons" xmlns="http://www.w3.org/2000/svg" viewBox="0 0 16 16"><defs><style>.cls-1{fill:none;}</style></defs><rect class="cls-1" width="16" height="16"/><path d="M8.00006,5.99994l1.99988,1.5-2,1.50006.00006-1h-4v-1h4l.00006-1.00006ZM2,3.9079v8.1842c.58075.20709.99.7569.99,1.4079,0,.82715-.66285,1.5-1.49,1.5S.01,14.32715.01,13.5c0-.651.40925-1.20081.99-1.4079V3.9079c-.58075-.20709-1-.7569-1-1.4079,0-.82715.67285-1.5,1.5-1.5s1.5.67285,1.5,1.5c0,.651-.41925,1.20081-1,1.4079ZM2,13h-1v1h1v-1ZM14.79828,12.7627c.12476.21869.20172.46802.20172.7373,0,.82715-.67285,1.5-1.5,1.5s-1.5-.67285-1.5-1.5c0-.26929.07697-.51862.20172-.7373-.78723-1.01581-1.20172-2.92896-1.20172-4.7627s.41449-3.74689,1.20172-4.7627c-.12476-.21869-.20172-.46802-.20172-.7373,0-.82715.67285-1.5,1.5-1.5s1.5.67285,1.5,1.5c0,.26929-.07697.51862-.20172.7373.78723,1.01581,1.19172,2.92896,1.19172,4.7627s-.40449,3.74689-1.19172,4.7627ZM14,13h-1v1h1v-1ZM15,8c0-1.99066-.46716-3.44775-.95679-4.10559-.16895.06604-.35114.10559-.54321.10559-.19202,0-.37427-.03949-.54315-.10553-.48962.65784-.95685,2.11487-.95685,4.10553s.46722,3.44769.95685,4.10553c.16888-.06604.35114-.10553.54315-.10553.19208,0,.37427.03955.54321.10559.48962-.65784.95679-2.11493.95679-4.10559Z"/></svg>