<svg xmlns="http://www.w3.org/2000/svg" viewBox="0 0 24 24"><path fill="none" d="M0 0h24v24H0z"/><path d="M2 11h1v2H2zm0 5h1v-2H2zm0 3h1v-2H2zm0-9h1V8H2zm1-4L2 5v2h1zm16-4h-2v1h2zM3 20H2v2h2v-1H3zM16 2h-2v1h2zM7 2H5v1h2zm3 0H8v1h2zm3 0h-2v1h2zm9 9h-1v2h1zM5 22h2v-1H5zM22 5h-1v2h1zm0 3h-1v2h1zm-1 11h1v-2h-1zm1-5h-1v2h1zM8 22h2v-1H8zm3 0h2v-1h-2zM21 4h1V2h-2v1h1zm-7 18h2v-1h-2zm3-1v1h2l-1-1zM6.151 9.151l-.691.372 2.288 1.225zm5.853 6.875.665-.357-.932-.932L6.48 11.95l-1.02.573zm-.086 2.951c.053.03.119.03.172 0l2.532-1.355-.74-.74-1.878.996L6.48 14.95l-1.02.573zm10.436 2.67-.708.707-20-20 .708-.708.353.354H4v1h-.293l4.854 4.854L12.004 6l6.536 3.523-5.41 2.9 1.213 1.213 3.177-1.686 1.02.573-3.457 1.853 1.22 1.22 1.217-.646 1.02.573-1.504.806L21 20.293V20h1v1.293zM9.288 8.58l3.097 3.098L16.5 9.523l-4.496-2.376z"/></svg>