<svg xmlns="http://www.w3.org/2000/svg" viewBox="0 0 32 32"><path fill="none" stroke-width="0" d="M0 0h32v32H0z"/><path d="M28 4h-1V3h2v2h-1V4zM11 3H9v1h2V3zM8 3H6v1h2V3zm6 0h-2v1h2V3zm3 0h-2v1h2V3zm3 0h-2v1h2V3zm3 0h-2v1h2V3zm3 0h-2v1h2V3zM9 29h2v-1H9v1zm-3 0h2v-1H6v1zm6 0h2v-1h-2v1zm3 0h2v-1h-2v1zm3 0h2v-1h-2v1zm3 0h2v-1h-2v1zm3 0h2v-1h-2v1zm5-20h-1v2h1V9zm0-3h-1v2h1V6zm0 6h-1v2h1v-2zm0 3h-1v2h1v-2zm0 3h-1v2h1v-2zm0 3h-1v2h1v-2zm-1 5h1v-2h-1v2zM3 11h1V9H3v2zm1-5H3v2h1V6zm-1 8h1v-2H3v2zm0 3h1v-2H3v2zm0 3h1v-2H3v2zm0 3h1v-2H3v2zm0 3h1v-2H3v2zm1 1H3v2h2v-1H4v-1zm12.001-4.838l2.006-1.034-.767-.767-1.239.639-8.934-4.607.826-.446-.983-.582L5 16.493l11.001 5.67zM7.916 11.037L5 12.493l9.02 4.648-2.35-2.35-4.503-2.297 1.48-.726-.731-.731zM16 24.837l-8.934-4.444.826-.446-.983-.582L5 20.493 16.001 26l4.584-2.294-.767-.767-3.817 1.899zm13.645 5.517L28.293 29H27v-1h.293L4 4.707V5H3V3.707L1.646 2.354l.708-.708L3.707 3H5v1h-.293l5.762 5.762L16.001 7 27 12.495l-9.106 4.692 1.872 1.872 5.167-2.664-.826-.446.983-.582L27 16.495l-6.466 3.332 1.84 1.84 2.56-1.272-.827-.446.983-.582L27 20.495l-3.864 1.934L28 27.293V27h1v1.293l1.353 1.353-.707.707zM17.13 16.424l7.702-3.928L16 8.161l-4.785 2.348 5.915 5.915z" stroke-width="0"/></svg>