<svg xmlns="http://www.w3.org/2000/svg" viewBox="0 0 16 16"><path fill="none" stroke-width="0" d="M0 0h16v16H0z"/><path d="M14 2h-1V1h2v2h-1V2zM6 1H4v1h2V1zm3 0H7v1h2V1zm6 6h-1v2h1V7zm0-3h-1v2h1V4zm-1 8h1v-2h-1v2zM12 1h-2v1h2V1zM7 15h2v-1H7v1zm-3 0h2v-1H4v1zm6-1v1h2v-.172L11.172 14H10zm-8-1H1v2h2v-1H2v-1zm-1-1h1v-2H1v2zm0-3h1V7H1v2zm1-4.172L1.172 4H1v2h1V4.828zM8.012 11l.106-.054L6.41 9.238 3.839 8.015 3 8.504 8.012 11zM3.448 6.276L3 6.5l1.34.669-.892-.893zm4.564 5.697L3.839 10 3 10.49l5.012 2.483 1.425-.708-.658-.658-.767.366zm7.342 2.673l-.708.708-14-14 .708-.708.353.354H3v1h-.293l3.1 3.1L8.012 4 13 6.5 9.141 8.434l.688.688L12.152 8l.848.497-2.528 1.268.701.701.979-.466.848.497-1.2.596 2.2 2.2V13h1v1.293l.354.353zm-8.94-8.94l2.075 2.076L11.302 6.5l-3.29-1.523-1.599.73z" stroke-width="0"/></svg>