<svg xmlns="http://www.w3.org/2000/svg" viewBox="0 0 32 32"><path d="m20 11-1-1V5h1zM5 19v1h6l-1-1zm23-5v-1h-6l1 1zM13 28h1v-5l-1-1zM25.354 8.354l-.707-.707-4 4 .707.707zM7.647 24.647l.707.707 4-4-.707-.707zm3.853-6.85a6.3 6.3 0 0 0 1.975-.322l-.817-.817a5.3 5.3 0 0 1-4.906-1.41l-2-2a5.3 5.3 0 0 1 7.496-7.496l2 2a5.29 5.29 0 0 1 1.41 4.906l.817.817a6.3 6.3 0 0 0-1.52-6.43l-2-2a6.3 6.3 0 0 0-8.91 8.91l2 2a6.28 6.28 0 0 0 4.455 1.842m16.455 1.248-2-2a6.3 6.3 0 0 0-6.43-1.52l.817.817a5.21 5.21 0 0 1 4.906 1.41l2 2a5.3 5.3 0 0 1-7.496 7.496l-2-2a5.29 5.29 0 0 1-1.41-4.906l-.817-.817a6.3 6.3 0 0 0 1.52 6.43l2 2a6.3 6.3 0 0 0 8.91-8.91"/><path fill="none" d="M0 0h32v32H0z"/></svg>