<svg xmlns="http://www.w3.org/2000/svg" viewBox="0 0 16 16"><path d="M14 14V6.026a6.87 6.87 0 0 0-3.739 1.67l-.265-.636c-.053-.128-.104-.23-.156-.342a7.95 7.95 0 0 1 4.16-1.7V2H8V1h7v14h-3v-1zM5 1v1h1.008q.043.525.097.955l.992-.125A25 25 0 0 1 7 1.876V1zm3.124 4.784a4.4 4.4 0 0 1-.568-.945l-.922.389a5.4 5.4 0 0 0 .68 1.143 8 8 0 0 1 .505.767l.871-.49a9 9 0 0 0-.566-.864m.83 5.41.977-.213c-.07-.324-.11-.609-.15-.894a11 11 0 0 0-.239-1.284l-.969.252a10 10 0 0 1 .217 1.17c.044.31.087.619.164.97zM11 13.754a22 22 0 0 1-.377-.79l-.912.412c.086.19.195.41.3.624H9v1h2zM2 5H1v2h1zm-1 6h1V9H1zm2 4v-1H2v-1H1v2zm2 0h2v-1H5zM1 2v1h1V2h1V1H1z"/><path fill="none" d="M0 0h16v16H0z"/></svg>