<svg xmlns="http://www.w3.org/2000/svg" viewBox="0 0 24 24"><path d="M19.057 4.59a10.555 10.555 0 0 0-2.746-.39 6.87 6.87 0 0 0-3.11.65 10.811 10.811 0 0 1-4.63.95 16.728 16.728 0 0 1-2.914-.268L3.262 19.436a13.436 13.436 0 0 0 3.162.364 21.214 21.214 0 0 0 5.549-.761 24.867 24.867 0 0 1 6.485-.873 18.033 18.033 0 0 1 2.926.234zm-5.475 1.185A5.906 5.906 0 0 1 16.31 5.2a9.162 9.162 0 0 1 1.87.206l1.994 11.835c-.336-.03-.679-.032-1.02-.045-.456-4.414-2.584-5.468-4.312-6.311-1.608-.786-2.886-1.42-2.827-4.545a15.186 15.186 0 0 0 1.566-.565zm-1.843 12.291a20.376 20.376 0 0 1-5.315.734 12.937 12.937 0 0 1-2.012-.153l2.064-11.98a17.08 17.08 0 0 0 2.095.133c.147 0 .279-.009.419-.012a10.036 10.036 0 0 0 .331 2.05l.77-.217a9.633 9.633 0 0 1-.287-1.878 12.17 12.17 0 0 0 1.21-.16c.015 3.546 1.728 4.388 3.39 5.2 1.639.801 3.328 1.633 3.747 5.389-.45.005-.875.02-1.279.045a7.292 7.292 0 0 0-.324-1.775l-.76.25a6.519 6.519 0 0 1 .286 1.586 29.128 29.128 0 0 0-4.335.788zM20.83 3.078a12.675 12.675 0 0 0-4.52-.878c-3.848 0-3.892 1.6-7.74 1.6a15.028 15.028 0 0 1-4.52-.722L1 20.783A13.094 13.094 0 0 0 6.424 21.8c5.242 0 6.792-1.634 12.034-1.634a13.094 13.094 0 0 1 5.423 1.017zM12.207 20.01a22.05 22.05 0 0 1-5.783.789 13.726 13.726 0 0 1-4.3-.65L4.847 4.343a16.194 16.194 0 0 0 3.724.457 9.805 9.805 0 0 0 4.25-.875 7.792 7.792 0 0 1 3.49-.725 11.86 11.86 0 0 1 3.63.615l2.674 15.872a16.248 16.248 0 0 0-4.157-.52 24.034 24.034 0 0 0-6.251.844zm3.59-6.004l-.631.49a5.854 5.854 0 0 0-1.94-1.474l.383-.703a6.61 6.61 0 0 1 2.188 1.687zm-3.472-2.411l-.428.675a5.609 5.609 0 0 1-1.966-1.965l.691-.403a4.844 4.844 0 0 0 1.703 1.693z"/><path fill="none" d="M0 0h24v24H0z"/></svg>