<svg xmlns="http://www.w3.org/2000/svg" viewBox="0 0 16 16"><path d="M13.867 1.688a8.205 8.205 0 0 0-3.161-.674c-2.69 0-2.725.986-5.412.986a10.39 10.39 0 0 1-3.161-.512L0 14.09a9.159 9.159 0 0 0 3.793.711c3.665 0 4.749-1.6 8.414-1.6A6.624 6.624 0 0 1 16 14.29zm-3.161.326a7.214 7.214 0 0 1 2.27.399l1.72 10.163a8.329 8.329 0 0 0-.75-.19c.134-3.836-1.725-4.85-3.378-5.742-1.435-.774-2.67-1.475-2.658-4.046.148-.05.291-.1.428-.15a5.895 5.895 0 0 1 2.368-.434zm1.37 10.19a8.04 8.04 0 0 0-.187-1.26l-.778.19a7.097 7.097 0 0 1 .164 1.103 13.595 13.595 0 0 0-3.594.815 10.96 10.96 0 0 1-3.888.748 9.538 9.538 0 0 1-2.668-.363L2.935 2.74a11.555 11.555 0 0 0 2.181.254c.036.386.077.768.14 1.114l.788-.146a11.916 11.916 0 0 1-.125-.982 7.91 7.91 0 0 0 .981-.118c.077 2.973 1.723 3.869 3.193 4.661 1.574.85 2.945 1.592 2.863 4.711a8.493 8.493 0 0 0-.749-.034c-.046 0-.086.003-.131.004zm-.818-2.743l-.662.45A4.332 4.332 0 0 0 8.72 8.522l.351-.718a5.09 5.09 0 0 1 2.187 1.656zm-3.42-2.336l-.456.656A4.625 4.625 0 0 1 5.68 5.61l.742-.298a3.858 3.858 0 0 0 1.417 1.814z"/><path fill="none" d="M0 0h16v16H0z"/></svg>