<svg xmlns="http://www.w3.org/2000/svg" viewBox="0 0 16 16"><path d="M13.867 1.688a8.2 8.2 0 0 0-3.161-.674c-2.69 0-2.725.986-5.412.986a10.4 10.4 0 0 1-3.161-.512L0 14.09a9.2 9.2 0 0 0 3.793.711c3.665 0 4.749-1.6 8.414-1.6A6.6 6.6 0 0 1 16 14.29zm-3.161.326a7.2 7.2 0 0 1 2.27.399l1.72 10.163a8 8 0 0 0-.75-.19c.134-3.836-1.725-4.85-3.378-5.742-1.435-.774-2.67-1.475-2.658-4.046q.222-.075.428-.15a5.9 5.9 0 0 1 2.368-.434m1.37 10.19a8 8 0 0 0-.187-1.26l-.778.19a7 7 0 0 1 .164 1.103 13.6 13.6 0 0 0-3.594.815 11 11 0 0 1-3.888.748 9.5 9.5 0 0 1-2.668-.363L2.935 2.74a11.6 11.6 0 0 0 2.181.254c.036.386.077.768.14 1.114l.788-.146a12 12 0 0 1-.125-.982 8 8 0 0 0 .981-.118c.077 2.973 1.723 3.869 3.193 4.661 1.574.85 2.945 1.592 2.863 4.711a9 9 0 0 0-.749-.034c-.046 0-.086.003-.131.004m-.818-2.743-.662.45A4.33 4.33 0 0 0 8.72 8.522l.351-.718a5.1 5.1 0 0 1 2.187 1.656zm-3.42-2.336-.456.656A4.63 4.63 0 0 1 5.68 5.61l.742-.298a3.86 3.86 0 0 0 1.417 1.814z"/><path fill="none" d="M0 0h16v16H0z"/></svg>