<svg xmlns="http://www.w3.org/2000/svg" viewBox="0 0 32 32"><path d="m21.945 19.552-.713.361a5.2 5.2 0 0 0-1.558-1.84l.484-.637a6 6 0 0 1 1.787 2.116m-8.286-7.09a6.8 6.8 0 0 0 1.333 2.41l.604-.525a6 6 0 0 1-1.177-2.135zm2.977 2.824-.471.647a16 16 0 0 0 1.758 1.065l.536.297.393-.697-.544-.301a16 16 0 0 1-1.672-1.01zm10.723 9.098-.637-.052a41 41 0 0 0-3.26-.132 24.3 24.3 0 0 0-8.383 1.446A18.5 18.5 0 0 1 8.54 26.8a14 14 0 0 1-3.76-.524l-.431-.12L7.42 7.643l.48.063a18 18 0 0 0 2.44.161 19.4 19.4 0 0 0 5.995-.924 14.8 14.8 0 0 1 4.74-.733 23 23 0 0 1 2.94.196l.369.048zM23.463 23.2c.204 0 .412.017.617.02-.384-5.412-2.643-6.531-4.834-7.602-2.18-1.065-4.422-2.176-4.155-7.302a19 19 0 0 1-1.204.256v.036a16 16 0 0 0 .197 2.211l-.79.133a16 16 0 0 1-.201-2.258 21 21 0 0 1-2.753.174 20 20 0 0 1-2.091-.111l-2.768 16.67a13 13 0 0 0 3.057.373 17.7 17.7 0 0 0 6.23-1.105 25.5 25.5 0 0 1 7.238-1.46 11 11 0 0 0-.287-2.005l.773-.202a11.6 11.6 0 0 1 .313 2.188c.22-.005.427-.016.658-.016m2.701.09L23.52 7.353a22 22 0 0 0-2.446-.143 14 14 0 0 0-4.452.691l-.514.147c-.344 4.74 1.39 5.602 3.578 6.67 2.348 1.149 4.996 2.46 5.398 8.535.36.014.72.012 1.08.035zM31 28a33.2 33.2 0 0 0-7.538-.8c-6.876 0-8.048 2.6-14.924 2.6A16.3 16.3 0 0 1 1 28L5 3.9a15 15 0 0 0 5.34.968c4.807 0 5.59-1.657 10.734-1.657A26.4 26.4 0 0 1 27 3.9zm-7.538-1.8a37.3 37.3 0 0 1 6.313.528l-3.651-22a26 26 0 0 0-5.05-.517 16.6 16.6 0 0 0-5.29.81 17.4 17.4 0 0 1-5.445.847 15.6 15.6 0 0 1-4.544-.65L2.107 27.433a16 16 0 0 0 6.43 1.366 20.4 20.4 0 0 0 7.156-1.252 22.4 22.4 0 0 1 7.77-1.348z"/><path fill="none" d="M0 0h32v32H0z"/></svg>