<svg xmlns="http://www.w3.org/2000/svg" viewBox="0 0 24 24"><path d="M11 22H7a3.003 3.003 0 0 1-3-3V8h10v4.1a7 7 0 0 0 1-.357V8a1 1 0 0 0-1-1h-1V2a1 1 0 0 0-1-1H6a1 1 0 0 0-1 1v5H4a1 1 0 0 0-1 1v11a4 4 0 0 0 4 4h4a3.96 3.96 0 0 0 1.945-.525 10 10 0 0 1-.7-.753A3 3 0 0 1 11 22M6 2h6v5H6zm15.933 11.55c-2.42-.14-4.331-.627-5.433-1.561-1.102.934-3.013 1.421-5.433 1.562-.428 5.12 1.295 7.977 5.433 10.266 4.138-2.289 5.861-5.147 5.433-10.266zM16.5 22.665c-3.312-1.973-4.622-4.35-4.488-8.183a10.6 10.6 0 0 0 4.488-1.264 10.6 10.6 0 0 0 4.488 1.264c.134 3.834-1.175 6.21-4.488 8.183M5 9h2v1H5z"/><path fill="none" d="M0 0h24v24H0z"/></svg>