<svg xmlns="http://www.w3.org/2000/svg" viewBox="0 0 32 32"><path d="M16 29H8a3.003 3.003 0 0 1-3-3V10h14v3.935a7.692 7.692 0 0 0 1-.369V10a1 1 0 0 0-1-1h-2V2a1 1 0 0 0-1-1H8a1 1 0 0 0-1 1v7H5a1 1 0 0 0-1 1v16a4 4 0 0 0 4 4h8a3.966 3.966 0 0 0 2.374-.796c-.253-.232-.49-.468-.716-.707A2.98 2.98 0 0 1 16 29zM8 2h8v7H8zm21.874 14.242l-.07-.78-.774-.04c-2.86-.145-4.826-.81-6.188-2.088l-.342-.322-.342.321c-1.341 1.26-3.357 1.944-6.2 2.09l-.773.04-.07.78c-.382 4.295-.092 10.56 6.953 14.491l.432.24.432-.24c7.02-3.916 7.323-10.19 6.942-14.492zM22.5 29.83c-6.438-3.624-6.74-9.41-6.396-13.413a10.737 10.737 0 0 0 6.396-2.054c1.5 1.241 3.547 1.897 6.385 2.054.344 4.01.027 9.804-6.385 13.413zM6 12h2v1H6z"/><path fill="none" d="M0 0h32v32H0z"/></svg>