<svg xmlns="http://www.w3.org/2000/svg" viewBox="0 0 16 16"><path d="M5 14a2 2 0 0 1-2-2V4h7v1.74a1.7 1.7 0 0 0 .33-.214l.494-.453A1 1 0 0 1 11 4.964V4a1 1 0 0 0-1-1H9V.5a.5.5 0 0 0-.5-.5h-4a.5.5 0 0 0-.5.5V3H3a1 1 0 0 0-1 1v8a3 3 0 0 0 3 3h3a3 3 0 0 0 .33-.033A8 8 0 0 1 7.48 14zM5 1h3v2H5zm10.928 6.912-.058-.628-.63-.033a5.33 5.33 0 0 1-3.248-.989L11.5 5.81l-.493.452a5.32 5.32 0 0 1-3.247.99l-.63.032-.058.629c-.228 2.512-.07 5.614 4.08 7.878l.348.189.348-.189c4.15-2.264 4.308-5.366 4.08-7.879M11.5 14.841a6.1 6.1 0 0 1-3.452-6.605A6.33 6.33 0 0 0 11.5 7.155a6.33 6.33 0 0 0 3.452 1.08 6.1 6.1 0 0 1-3.452 6.606M4 5h2v1H4z"/><path fill="none" d="M0 0h16v16H0z"/></svg>