<?xml version="1.0" encoding="UTF-8"?><svg id="icons" xmlns="http://www.w3.org/2000/svg" viewBox="0 0 32 32"><defs><style>.cls-1{fill:none;}</style></defs><rect class="cls-1" width="32" height="32"/><path d="M11.5,15.009c-3.58002,0-6.5,2.91098-6.5,6.491v7.5h7.33002c0-.34003.06-.67999.17999-1h-6.51001v-6.5c0-3.03003,2.46997-5.5,5.5-5.5,7.61444,0,7.18361-.03723,7.34998-.00704l.51001-.92396c-.61583-.08807-.33021-.06-7.85999-.06ZM15,13.7998c-3.19824,0-5.7998-2.60156-5.7998-5.7998s2.60156-5.7998,5.7998-5.7998,5.7998,2.60156,5.7998,5.7998-2.60156,5.7998-5.7998,5.7998ZM15,3.2002c-2.64648,0-4.7998,2.15332-4.7998,4.7998s2.15332,4.7998,4.7998,4.7998,4.7998-2.15332,4.7998-4.7998-2.15332-4.7998-4.7998-4.7998ZM29.6665,30h-14.33301c-.75247,0-1.23691-.80579-.88281-1.46973l7.1665-13.43848c.34863-.65234,1.41699-.65234,1.76562,0l7.1665,13.4375c.35377.66542-.12919,1.4707-.88281,1.4707ZM22.5,15.5625l-7.1665,13.4375h14.33301l-7.1665-13.4375ZM23,25h-1v-5h1v5ZM23,27h-1v-1h1v1Z"/></svg>