<?xml version="1.0" encoding="UTF-8"?><svg id="icons" xmlns="http://www.w3.org/2000/svg" viewBox="0 0 24 24"><defs><style>.cls-1{fill:none;}</style></defs><rect class="cls-1" width="24" height="24"/><path d="M11,1.20001c-2.64685,0-4.79999,2.15308-4.79999,4.79999s2.15314,4.79999,4.79999,4.79999,4.79999-2.15314,4.79999-4.79999S13.64685,1.20001,11,1.20001ZM11,9.7998c-2.09521,0-3.7998-1.70459-3.7998-3.7998s1.70459-3.7998,3.7998-3.7998,3.7998,1.70459,3.7998,3.7998-1.70459,3.7998-3.7998,3.7998ZM8.5,12.009c-3.03003,0-5.491,2.46997-5.491,5.5l-.009,4.491h6.34003c0-.34003.06-.67999.17999-1h-5.52002v-3.5c0-2.48004,2.02002-4.5,4.5-4.5,5.2173,0,5.16195-.02328,5.33002-.00799l.51996-.913c-.56308-.10066-.53894-.07001-5.84998-.07001ZM22.65771,23h-10.31543c-.75803,0-1.24146-.81458-.87744-1.47949l5.15723-9.45508c.35059-.64258,1.40527-.64258,1.75586,0l5.15771,9.45605c.36296.66279-.11906,1.47852-.87793,1.47852ZM12.34229,22h10.31543l-5.15771-9.45605-5.15771,9.45605ZM18,19h-1v-3h1v3ZM18,21h-1v-1h1v1Z"/></svg>