<svg xmlns="http://www.w3.org/2000/svg" viewBox="0 0 24 24"><path fill="none" d="M0 0h24v24H0z"/><path d="M11 1.2C8.353 1.2 6.2 3.353 6.2 6s2.153 4.8 4.8 4.8 4.8-2.153 4.8-4.8-2.153-4.8-4.8-4.8m0 8.6C8.905 9.8 7.2 8.095 7.2 6S8.905 2.2 11 2.2s3.8 1.705 3.8 3.8-1.705 3.8-3.8 3.8m-2.5 2.209c-3.03 0-5.491 2.47-5.491 5.5L3 22h6.34c0-.34.06-.68.18-1H4v-3.5C4 15.02 6.02 13 8.5 13c5.217 0 5.162-.023 5.33-.008l.52-.913c-.563-.1-.539-.07-5.85-.07M22.658 23H12.342a1 1 0 0 1-.877-1.48l5.157-9.455c.35-.642 1.405-.642 1.756 0l5.158 9.456A1 1 0 0 1 22.658 23m-10.316-1h10.316L17.5 12.544zM18 19h-1v-3h1zm0 2h-1v-1h1z"/></svg>