<svg xmlns="http://www.w3.org/2000/svg" viewBox="0 0 24 24"><path d="M12 1.2A4.8 4.8 0 1 0 16.8 6 4.805 4.805 0 0 0 12 1.2m0 8.6A3.8 3.8 0 1 1 15.8 6 3.804 3.804 0 0 1 12 9.8M9 22H4l.01-4.5A5.5 5.5 0 0 1 9.5 12h4.312a6 6 0 0 0-.462 1H9.5A4.505 4.505 0 0 0 5 17.5V21h4zm10-10.9a3.9 3.9 0 0 0-3.9 3.9 3.9 3.9 0 0 0 .225 1.255L11 20.727V23h2.993l.023-.01L15 22v-1h1.005L17 20v-1h1.004l.186-.187A3.9 3.9 0 1 0 19 11.1m0 6.9a3 3 0 0 1-1.223-.267l-.272.267H16v2h-2v1.674l-.408.326H12v-.906l4.419-4.591A2.97 2.97 0 0 1 16 15a3 3 0 1 1 3 3m.5-5a1.5 1.5 0 1 0 1.5 1.5 1.5 1.5 0 0 0-1.5-1.5m0 2a.5.5 0 1 1 .5-.5.5.5 0 0 1-.5.5"/><path fill="none" d="M0 0h24v24H0z"/></svg>