<?xml version="1.0" encoding="UTF-8"?><svg id="icons" xmlns="http://www.w3.org/2000/svg" viewBox="0 0 16 16"><defs><style>.cls-1{fill:none;}</style></defs><path d="M4.5,8c-1.92999,0-3.5,1.57001-3.5,3.5v3.5h2.71002c.0235-.36503.08554-.65646.28597-1h-1.99599v-2.5c0-1.38,1.12-2.5,2.5-2.5h2.32001l.56-1h-2.88ZM6,6.8c-1.54401,0-2.8-1.25599-2.8-2.8s1.25599-2.8,2.8-2.8,2.8,1.25599,2.8,2.8-1.25599,2.8-2.8,2.8ZM6,2.13333c-1.02949,0-1.86667.83717-1.86667,1.86667s.83717,1.86667,1.86667,1.86667,1.86667-.83717,1.86667-1.86667-.83717-1.86667-1.86667-1.86667ZM15.03027,16H5.96973c-.59423,0-.96499-.6407-.67822-1.15332l4.52979-8.15527c.27344-.49219,1.08398-.49219,1.35742,0l4.53027,8.15527c.28678.51452-.08673,1.15332-.67871,1.15332ZM6.3501,15h8.2998l-4.1499-7.4707-4.1499,7.4707ZM11,12h-1v-2h1v2ZM11,14h-1v-1h1v1Z"/><rect class="cls-1" width="16" height="16"/></svg>