<svg xmlns="http://www.w3.org/2000/svg" viewBox="0 0 16 16"><path d="M11 14v1H9v1h5v-1h-2v-1h4V8H7v6zM8 9h7v4H8zm6 2H9v-1h5zm-1-8v2.294L14.293 4l.707.707-2.5 2.502L10 4.707 10.707 4 12 5.294V3a1 1 0 0 0-1-1H9V1h2a2 2 0 0 1 2 2M2 13v-2.294L.707 12 0 11.293l2.5-2.502L5 11.293 4.293 12 3 10.706V13a1 1 0 0 0 1 1h2v1H4a2 2 0 0 1-2-2M3.5 0a2.489 2.489 0 0 0-1.855 4.16A2.5 2.5 0 0 0 0 6.5V8h7V6.5a2.5 2.5 0 0 0-1.645-2.34A2.489 2.489 0 0 0 3.5 0m0 1A1.5 1.5 0 1 1 2 2.5 1.5 1.5 0 0 1 3.5 1M6 6.5V7H1v-.5A1.5 1.5 0 0 1 2.5 5h2A1.5 1.5 0 0 1 6 6.5"/><path fill="none" d="M0 0h16v16H0z"/></svg>