<?xml version="1.0" encoding="UTF-8"?><svg id="icons" xmlns="http://www.w3.org/2000/svg" viewBox="0 0 32 32"><defs><style>.cls-1{fill:none;}</style></defs><path d="M27,3.89996s-2.66675-.68884-5.92578-.68884c-5.14429,0-5.927,1.6571-10.73511,1.6571-2.82031,0-4.63989-.73517-5.33911-.96826L1,28s3.09326,1.79999,7.53784,1.79999c6.87622,0,8.0481-2.59998,14.92432-2.59998,4.44458,0,7.53784.79999,7.53784.79999L27,3.89996ZM15.69287,27.54834c-1.99268.64355-3.87451,1.25146-7.15527,1.25146-3.00293,0-5.36963-.88623-6.43018-1.36572L5.79492,5.21729c1.0166.30518,2.53906.65088,4.54443.65088,2.50439,0,3.99951-.43018,5.44482-.84668,1.44775-.41699,2.81543-.81055,5.29004-.81055,2.1875,0,4.104.32471,5.0498.51758l3.65137,21.99951c-1.36426-.23779-3.58691-.52783-6.31299-.52783-3.5957,0-5.71777.68555-7.76953,1.34814ZM22.50244,20.005c-.06494,0-.12622.01428-.18994.01917l-.66235-2.31818c.22681-.11829.43921-.26074.61841-.44.4519-.45197.73145-1.07635.73145-1.76599,0-.6897-.27954-1.31409-.73145-1.76599-.15576-.1557-.33789-.28168-.53027-.39209l.46045-1.3725c.10083.01233.19971.03058.30371.03058.69092,0,1.31348-.28015,1.76367-.73297.44922-.45233.72389-1.07703.72389-1.76703s-.27467-1.3147-.72389-1.76709c-.4502-.45282-1.07275-.73291-1.76367-.73291-.69043,0-1.31543.27979-1.76758.73224-.45264.45239-.72486,1.07739-.72486,1.76776s.27223,1.31537.72486,1.76776c.15186.15204.3291.27563.51611.38458l-.46265,1.37897c-.09497-.01099-.18799-.02881-.28589-.02881-.6897,0-1.31396.27954-1.76587.73151-.3396.33972-.58179.77692-.6814,1.26599h-1.10547c-.09961-.48975-.3418-.92761-.68188-1.26776-.45239-.45245-1.07739-.73224-1.76782-.73224s-1.31543.27979-1.76782.73224c-.45239.45239-.72218,1.07739-.72218,1.76776,0,.3335.05812.65045.17652.94141l-1.93018,1.2868c-.33813-.33588-.77148-.57599-1.25635-.67511v-5.1062c.48804-.09973.92432-.34174,1.26343-.68091.4519-.45197.73169-1.07635.73169-1.76599,0-.6897-.27979-1.31409-.73169-1.76599-.4519-.45197-1.07617-.73151-1.76587-.73151s-1.31396.27954-1.76611.73151c-.4519.45197-.72145,1.07629-.72145,1.76599,0,.68964.26954,1.31403.72145,1.76599.34033.34027.77856.58234,1.26855.6814v5.10522c-.48999.09906-.92822.34113-1.26855.6814-.4519.45197-.71145,1.07629-.71145,1.76599,0,.68964.25954,1.31403.71145,1.76599.34033.34027.77856.58234,1.26855.6814v4.05261h1v-4.0531c.48804-.09973.92432-.34174,1.26343-.68091.4519-.45197.73169-1.07635.73169-1.76599,0-.33246-.06787-.64844-.18604-.93854l1.93091-1.28723c.33911.33643.77368.57666,1.26001.67535v3.10577c-.48901.09943-.92627.34143-1.26611.68115-.4519.4519-.73145,1.07629-.73145,1.76599,0,.68964.27954,1.31403.73145,1.76599.45215.45197,1.07642.73151,1.76611.73151s1.31396-.27954,1.76611-.73151c.4519-.45197.73145-1.07635.73145-1.76599,0-.6897-.27954-1.31409-.73145-1.76605-.33984-.33966-.7771-.58167-1.26611-.68109v-3.10577c.48975-.09943.92773-.34167,1.26782-.68182s.58228-.77802.68188-1.26776h1.10571c.09937.48901.34155.92627.68115,1.26599.4519.45197,1.07617.73151,1.76587.73151.06372,0,.12354-.01404.18604-.01874l.66284,2.3197c-.22534.11804-.43652.25977-.61475.43805-.4519.4519-.73169,1.07629-.73169,1.76599,0,.68964.27979,1.31403.73169,1.76599s1.07617.73151,1.76587.73151,1.31396-.27954,1.76611-.73151c.4519-.45197.73145-1.07635.73145-1.76599,0-.6897-.27954-1.31409-.73145-1.76605-.45215-.4519-1.07642-.73145-1.76611-.73145ZM21.44238,8.43976c.27148-.27155.64648-.43976,1.06006-.43976s.78857.16821,1.0603.43976c.27148.27161.4397.64661.4397,1.06024,0,.41357-.16821.78857-.4397,1.06018-.27173.27161-.64673.43982-1.0603.43982s-.78857-.16821-1.06006-.43982c-.27173-.27161-.43994-.64661-.43994-1.06018,0-.41364.16821-.78864.43994-1.06024ZM6.99756,9.5c0-.41364.16821-.78864.4397-1.06024.27173-.27155.64673-.43976,1.0603-.43976s.78857.16821,1.06006.43976c.27173.27161.43994.64661.43994,1.06024,0,.41357-.16821.78857-.43994,1.06018-.27148.27161-.64648.43982-1.06006.43982s-.78857-.16821-1.0603-.43982c-.27148-.27161-.4397-.64661-.4397-1.06018ZM9.55762,20.56018c-.27148.27161-.64648.43982-1.06006.43982s-.78857-.16821-1.0603-.43982c-.27148-.27161-.4397-.64661-.4397-1.06018,0-.41364.16821-.78864.4397-1.06024.27173-.27155.64673-.43976,1.0603-.43976s.78857.16821,1.06006.43976c.27173.27161.43994.64661.43994,1.06024,0,.41357-.16821.78857-.43994,1.06018ZM16,23.5025c0,.41357-.16821.78857-.43994,1.06018-.27148.27161-.64648.43982-1.06006.43982s-.78857-.16821-1.06006-.43982c-.27173-.27161-.43994-.64661-.43994-1.06018,0-.41364.16821-.78864.43994-1.06024.27148-.27161.64648-.43976,1.06006-.43976s.78857.16815,1.06006.43976c.27173.27161.43994.64661.43994,1.06024ZM15.56006,16.56018c-.27148.27161-.64648.43982-1.06006.43982s-.78857-.16821-1.06006-.43982c-.27173-.27161-.43994-.64661-.43994-1.06018,0-.41364.16821-.78864.43994-1.06024.27148-.27155.64648-.43976,1.06006-.43976s.78857.16821,1.06006.43976c.27173.27161.43994.64661.43994,1.06024,0,.41357-.16821.78857-.43994,1.06018ZM19.00244,15.5c0-.41364.16821-.78864.43994-1.06024.27148-.27155.64648-.43976,1.06006-.43976s.78857.16821,1.0603.43976c.27148.27161.4397.64661.4397,1.06024,0,.41357-.16821.78857-.4397,1.06018-.27173.27161-.64673.43982-1.0603.43982s-.78857-.16821-1.06006-.43982c-.27173-.27161-.43994-.64661-.43994-1.06018ZM23.56274,23.56268c-.27173.27161-.64673.43982-1.0603.43982s-.78857-.16821-1.06006-.43982c-.27173-.27161-.43994-.64661-.43994-1.06018,0-.41364.16821-.78864.43994-1.06024.27148-.27161.64648-.43976,1.06006-.43976s.78857.16815,1.0603.43976c.27148.27161.4397.64661.4397,1.06024,0,.41357-.16821.78857-.4397,1.06018Z"/><rect class="cls-1" y="0" width="32" height="32"/></svg>