<?xml version="1.0" encoding="UTF-8"?><svg id="icons" xmlns="http://www.w3.org/2000/svg" viewBox="0 0 24 24"><defs><style>.cls-1{fill:none;}</style></defs><path d="M20.83057,3.07794s-2.03394-.87793-4.51978-.87793c-3.84814,0-3.89209,1.59998-7.74023,1.59998-2.48584,0-4.51978-.72205-4.51978-.72205L1,20.78302s2.03394,1.01697,5.42383,1.01697c5.24194,0,6.79175-1.63391,12.03369-1.63391,3.38989,0,5.42383,1.01697,5.42383,1.01697l-3.05078-18.1051ZM12.20679,20.0108c-1.68701.40582-3.28052.78918-5.78296.78918-1.99878,0-3.49316-.38092-4.30005-.65027l2.72363-15.80664c.89062.2146,2.22729.45691,3.72314.45691,2.12158,0,3.25244-.4649,4.25024-.87512.94629-.38898,1.76343-.72485,3.48999-.72485,1.55054,0,2.92725.38007,3.62988.61499l2.67432,15.87152c-1.00342-.26648-2.4165-.52045-4.15747-.52045-2.7395,0-4.52441.42944-6.25073.84473ZM17.5,9c.82837,0,1.5-.67157,1.5-1.5s-.67163-1.5-1.5-1.5-1.5.67157-1.5,1.5c0,.40411.16162.76929.42139,1.039l-.73926,1.47937c-.0603-.00739-.11963-.01837-.18213-.01837-.6521,0-1.20166.41876-1.4082,1h-1.18359c-.20654-.58124-.7561-1-1.4082-1-.82837,0-1.5.67157-1.5,1.5,0,.10242.0105.20239.03027.29907l-1.24023.7439-.11279.0376c-.17383-.22205-.40649-.39252-.67725-.48877v-3.18359c.5813-.2066,1-.75604,1-1.4082,0-.82843-.67163-1.5-1.5-1.5s-1.5.67157-1.5,1.5c0,.65216.4187,1.2016,1,1.4082v3.18359c-.5813.2066-.99.75604-.99,1.4082s.4087,1.2016.99,1.4082v3.0918h1v-3.0918c.57251-.20355.98486-.7403.99707-1.37988l.16113-.05371,1.38818-.82574c.13403.11157.28613.19977.45361.25934v3.18359c-.5813.2066-.99.75604-.99,1.4082,0,.82843.66163,1.5,1.49,1.5s1.49-.67157,1.49-1.5c0-.65216-.4087-1.2016-.99-1.4082v-3.18359c.42407-.15076.75732-.48407.9082-.9082h1.18359c.20654.58124.7561,1,1.4082,1,.06226,0,.12158-.01093.18188-.01831l.73999,1.47913c-.26001.26965-.41187.63495-.41187,1.03918,0,.41418.15797.78918.42945,1.06067.27148.27142.64648.43933,1.06055.43933s.78906-.16791,1.06055-.43933c.27148-.27148.42945-.64648.42945-1.06067,0-.41425-.15797-.78925-.42945-1.06067s-.64648-.43933-1.06055-.43933c-.06201,0-.12134.01099-.1814.01831l-.73999-1.47949c.25977-.26971.41139-.63477.41139-1.03882,0-.40417-.15162-.76947-.41163-1.03918l.73975-1.47913c.0603.00739.11963.01831.18188.01831ZM7,7.5v-.5h1v1h-1v-.5ZM8,13.5v.5h-1v-1h1v.5ZM17,7.5v-.5h1v1h-1v-.5ZM11,11.5v-.5h1v1h-1v-.5ZM12,17.5v.5h-1v-1h1v.5ZM15,11.5v-.5h1v1h-1v-.5ZM18,15.5v.5h-1v-1h1v.5Z"/><rect class="cls-1" width="24" height="24"/></svg>