<svg xmlns="http://www.w3.org/2000/svg" viewBox="0 0 24 24"><path d="M5 9H4V8h1zm-1 2h1v-1H4zm0 8h1v-1H4zm0 2h1v-1H4zM2.734 2.734A2.497 2.497 0 1 1 2.002 4.5a2.5 2.5 0 0 1 .732-1.766M3 4.5a1.502 1.502 0 1 0 .44-1.06A1.5 1.5 0 0 0 3 4.5m19.266 12.234a2.543 2.543 0 1 1-2.926-.434l-.962-3.315A2.48 2.48 0 0 1 16.053 11H13.95A2.5 2.5 0 0 1 12 12.95v4.103a2.497 2.497 0 1 1-1 0V12.95a2.5 2.5 0 0 1-1.268-.682c-.037-.038-.066-.083-.101-.123l-2.768 1.581a2.46 2.46 0 1 1-.597-.992c.038.037.066.083.101.123l2.768-1.582A2.494 2.494 0 1 1 13.95 10h2.103A2.5 2.5 0 0 1 18.5 8.002a3 3 0 0 1 .295.03l.46-1.376A2.494 2.494 0 0 1 20.5 2a2.504 2.504 0 0 1 1.763 4.267 2.3 2.3 0 0 1-2.06.703l-.458 1.377a2.479 2.479 0 0 1-.37 4.484l.927 3.191c.066-.005.13-.02.198-.02a2.5 2.5 0 0 1 1.766.732M20.5 6a1.502 1.502 0 1 0-1.06-.44A1.5 1.5 0 0 0 20.5 6M5.56 13.44A1.498 1.498 0 1 0 6 14.5a1.5 1.5 0 0 0-.44-1.06M11.5 18a1.502 1.502 0 1 0 1.06.44A1.5 1.5 0 0 0 11.5 18m1.5-7.5a1.502 1.502 0 1 0-.44 1.06A1.5 1.5 0 0 0 13 10.5m5.5 1.5a1.502 1.502 0 1 0-1.06-.44 1.5 1.5 0 0 0 1.06.44m3.5 6.5a1.502 1.502 0 1 0-.44 1.06A1.5 1.5 0 0 0 22 18.5"/><path fill="none" d="M0 0h24v24H0z"/></svg>