<?xml version="1.0" encoding="UTF-8"?><svg id="icons" xmlns="http://www.w3.org/2000/svg" viewBox="0 0 16 16"><defs><style>.cls-1{fill:none;}</style></defs><path d="M13.86719,1.68823s-1.42285-.67395-3.16113-.67395c-2.69092,0-2.72461.98572-5.41211.98572-1.73828,0-3.16113-.51172-3.16113-.51172L0,14.08905s1.42236.71094,3.79272.71094c3.66553,0,4.74902-1.59998,8.41455-1.59998,2.37036,0,3.79272,1.08905,3.79272,1.08905L13.86719,1.68823ZM7.68066,13.05231c-1.14111.38452-2.21899.74768-3.88794.74768-1.17725,0-2.09424-.19427-2.66821-.36273L2.9353,2.73993c.62256.13379,1.45068.26007,2.35864.26007,1.5188,0,2.32935-.29346,3.04443-.55237.64233-.23248,1.19727-.43335,2.36768-.43335.93286,0,1.77417.22882,2.26953.3985l1.72021,10.16315c-.67603-.21161-1.5144-.37592-2.48853-.37592-1.99658,0-3.28271.43329-4.52661.85229ZM12,4.5c0-.82843-.67163-1.5-1.5-1.5s-1.5.67157-1.5,1.5c0,.2962.08862.5705.23682.8031l-3.2229,3.79303c-.00464-.00165-.00928-.00275-.01392-.00433v-2.18359c.5813-.2066,1-.75604,1-1.4082,0-.82843-.67163-1.5-1.5-1.5s-1.49.67157-1.49,1.5c0,.65216.4087,1.2016.99,1.4082v2.18359c-.5813.2066-.99.75604-.99,1.4082s.4087,1.2016.99,1.4082v1.0918h1v-1.0918c.5813-.2066,1-.75604,1-1.4082,0-.28082-.08203-.54047-.21631-.7652l3.21631-3.78577v2.14276c-.5813.2066-.99.75604-.99,1.4082,0,.82843.66163,1.5,1.49,1.5s1.49-.67157,1.49-1.5c0-.65216-.4087-1.2016-.99-1.4082v-2.18359c.5813-.2066,1-.75604,1-1.4082ZM5,5.5v-.5h1v1h-1v-.5ZM6,10.5v.5h-1v-1h1v.5ZM11,9.5v.5h-1v-1h1v.5ZM10,5v-1h1v1h-1"/><rect class="cls-1" y="0" width="16" height="16"/></svg>