<svg xmlns="http://www.w3.org/2000/svg" viewBox="0 0 16 16"><path d="M1.5 11a1.5 1.5 0 0 0 1.47-1.8l2.58-1.548a1.5 1.5 0 0 0 .45.256v5.184a1.5 1.5 0 1 0 1 0V7.908A1.5 1.5 0 0 0 7.908 7h2.184a1.49 1.49 0 0 0 1.38.997l1.108 3.326a1.495 1.495 0 1 0 .948-.32L12.42 7.677a1.48 1.48 0 0 0 .233-2.126L14.2 2.97A1.5 1.5 0 1 0 13 1.5a1.5 1.5 0 0 0 .347.95L11.8 5.03a1.49 1.49 0 0 0-1.707.97H7.908a1.497 1.497 0 0 0-2.878.8L2.45 8.347A1.497 1.497 0 1 0 1.5 11M7 14.5v.5H6v-1h1zm7-2.5v1h-1v-1zm0-11h1v1h-1zm-2.783 5H12v1h-1V6zM6 6h1v1H6zM1 9.5V9h1v1H1zm2-8A1.5 1.5 0 1 0 1.5 3 1.5 1.5 0 0 0 3 1.5m-1 0V2H1V1h1zM1 14h1v1H1zm1-1H1v-1h1zM1 6h1v1H1zm1-1H1V4h1z"/><path fill="none" d="M0 0h16v16H0z"/></svg>