<svg xmlns="http://www.w3.org/2000/svg" viewBox="0 0 16 16"><path d="M14.5 3A1.5 1.5 0 1 0 13 1.5c0 .362.134.69.347.95L11.8 5.03a1.496 1.496 0 0 0-1.707.97H7.908a1.496 1.496 0 0 0-2.878.8L2.45 8.347A1.487 1.487 0 0 0 2 8.092V2.908A1.496 1.496 0 0 0 1.5 0 1.496 1.496 0 0 0 1 2.908v5.184C.419 8.298.009 8.848.009 9.5s.41 1.202.991 1.408V15h1v-4.092c.581-.206.991-.756.991-1.408 0-.102-.002-.202-.021-.3l2.58-1.548c.134.11.284.197.45.256v5.184a1.488 1.488 0 0 0-.991 1.408c0 .828.663 1.5 1.491 1.5s1.491-.672 1.491-1.5c0-.652-.41-1.202-.991-1.408V7.908c.424-.15.757-.484.908-.908h2.184c.203.573.74.985 1.38.997l1.108 3.326c-.048.038-.098.073-.14.116a1.488 1.488 0 0 0-.431 1.061A1.488 1.488 0 0 0 13.5 14a1.488 1.488 0 0 0 1.491-1.5c0-.414-.159-.79-.43-1.06a1.494 1.494 0 0 0-1.033-.437L12.42 7.677c.35-.275.58-.697.58-1.177 0-.362-.134-.69-.347-.95L14.2 2.97c.097.02.197.03.299.03zM1 1.5V1h1v1H1v-.5zm1 8v.5H1V9h1v.5zm5 5v.5H6v-1h1v.5zm0-8V7H6V6h1v.5zm7-5V1h1v1h-1v-.5zm-3 5V6h1v1h-1v-.5zm3 6v.5h-1v-1h1v.5z" stroke-width="0"/><path stroke-width="0" fill="none" d="M0 0h16v16H0z"/></svg>