<?xml version="1.0" encoding="UTF-8"?><svg id="icons" xmlns="http://www.w3.org/2000/svg" viewBox="0 0 16 16"><defs><style>.cls-1{fill:none;}</style></defs><path d="M10.27051,11h-1.14929l-1.23297-2.18121-3.18121,3.18121h-.70703v-1h.29297l3.08459-3.08459-1.64807-2.91541h-.72949v-1h1.31348l1.79828,3.18121,3.18121-3.18121h.70703v1h-.29297l-3.08459,3.08459,1.64807,2.91541ZM12.5,1H3.5C1.57031,1,0,2.57031,0,4.5v7c0,1.92969,1.57031,3.5,3.5,3.5h5.5v-1H3.5c-1.37891,0-2.5-1.12109-2.5-2.5v-7c0-1.37891,1.12109-2.5,2.5-2.5h9c1.37891,0,2.5,1.12109,2.5,2.5v6.5h1v-6.5c0-1.92969-1.57031-3.5-3.5-3.5ZM13,9h-1v3h-3v1h3v3h1v-3h3v-1h-3v-3Z"/><rect class="cls-1" width="16" height="16"/></svg>