<?xml version="1.0" encoding="UTF-8"?><svg id="icons" xmlns="http://www.w3.org/2000/svg" viewBox="0 0 32 32"><defs><style>.cls-1{fill:none;}</style></defs><path d="M18,26v1H7.5c-3.03223,0-5.5-2.46777-5.5-5.5v-11c0-3.03223,2.46777-5.5,5.5-5.5h17c3.03223,0,5.5,2.46777,5.5,5.5v11.5h-1v-11.5c0-2.48145-2.01855-4.5-4.5-4.5H7.5c-2.48145,0-4.5,2.01855-4.5,4.5v11c0,2.48145,2.01855,4.5,4.5,4.5h10.5ZM8,21v1h2.70703l5.18109-5.18109,2.92828,5.18109h3.18359v-1h-2.59961l-2.77808-4.91528,6.08472-6.08472h1.29297v-1h-1.70703l-6.18127,6.18127-3.49353-6.18127h-2.61816v1h2.03418l3.34332,5.91547-5.08453,5.08453h-2.29297ZM25,30v-5.00098h5v-.99902h-5v-5h-1v5h-5v.99902h5v5.00098h1Z"/><rect class="cls-1" width="32" height="32"/></svg>