<?xml version="1.0" encoding="UTF-8"?><svg id="icons" xmlns="http://www.w3.org/2000/svg" viewBox="0 0 24 24"><defs><style>.cls-1{fill:none;}</style></defs><rect class="cls-1" width="24" height="24"/><path d="M5.5,20h7.5v1h-7.5c-2.48145,0-4.5-2.01855-4.5-4.5V7.5c0-2.48145,2.01855-4.5,4.5-4.5h13c2.48145,0,4.5,2.01855,4.5,4.5v9.5h-1V7.5c0-1.92969-1.57031-3.5-3.5-3.5H5.5c-1.92969,0-3.5,1.57031-3.5,3.5v9c0,1.92969,1.57031,3.5,3.5,3.5ZM12.62238,12.08466l5.08466-5.08466h1.29297v-1h-1.70703l-5.18115,5.18115-2.92822-5.18115h-2.18359v1h1.59961l2.77802,4.91534-5.08466,5.08466h-1.29297v1h1.70703l5.18115-5.18115,2.3631,4.18115h1.14911l-2.77802-4.91534ZM19.99994,19v-4h-1v4h-4v.99902h4v4.00098h1v-4.00098h4.00006v-.99902h-4.00006Z"/></svg>