<svg xmlns="http://www.w3.org/2000/svg" viewBox="0 0 16 16"><path stroke-width="0" fill="none" d="M0 0h16v16H0z"/><path d="M10.706 2.014c.933 0 1.774.23 2.27.399l1.72 10.163a8.317 8.317 0 0 0-2.489-.376c-1.996 0-3.282.433-4.526.852-1.141.385-2.22.748-3.888.748a9.538 9.538 0 0 1-2.669-.363L2.935 2.74c.623.134 1.451.26 2.359.26 1.519 0 2.33-.293 3.044-.552.643-.233 1.198-.434 2.368-.434m0-1c-2.69 0-2.725.986-5.412.986-1.738 0-3.161-.512-3.161-.512L0 14.09s1.422.711 3.793.711c3.665 0 4.749-1.6 8.414-1.6 2.37 0 3.793 1.09 3.793 1.09L13.867 1.687s-1.423-.674-3.16-.674zM8.063 4.006C5.825 4.006 4.011 5.794 4.011 8c0 2.206 1.814 3.994 4.052 3.994S12 10.206 12 8c0-2.206-1.698-3.994-3.937-3.994zM8 11c-1.654 0-3-1.346-3-3s1.346-3 3-3 3 1.346 3 3-1.346 3-3 3zM7 6v4l3-2-3-2z" stroke-width="0"/></svg>