<?xml version="1.0" encoding="UTF-8"?><svg id="icons" xmlns="http://www.w3.org/2000/svg" viewBox="0 0 24 24"><defs><style>.cls-1{fill:none;}</style></defs><rect class="cls-1" width="24" height="24"/><path d="M13.64453,7.75879c.24121-.24902.36816-.38965.36816-.62207,0-.08301-.27441-.39746-1.15723-.6709l.28906-.93164c1.52344.47168,1.84277,1.13184,1.84277,1.60254,0,.63867-.37109,1.02148-.64258,1.30078-.23438.24219-.35742.37793-.35742.59277,0,.35156.1416.72168,1.16211,1.05176l-.29883.91797c-.45508-.14648-1.83789-.58301-1.83789-1.96973,0-.62012.36523-.99707.63184-1.27148ZM16.0127,8.69727c0,1.5918,1.36133,2.12695,1.80859,2.30273l.35742-.9082c-.8457-.33203-1.19141-.73633-1.19141-1.39453,0-.3291.14062-.52148.38965-.83398.27148-.34277.61035-.76855.61035-1.47656,0-.74609-.64453-1.40039-1.81445-1.84277l-.3457.91211c.81836.30957,1.18555.69043,1.18555.93066,0,.36719-.16797.57812-.39941.86914-.26758.33691-.60059.75586-.60059,1.44141ZM2,15.49414V2.50586c0-.27942.2265-.50586.50586-.50586h18.98828c.27936,0,.50586.22644.50586.50586v8.49414h1V2.51953c0-.83923-.6803-1.51953-1.51953-1.51953H2.51953c-.83923,0-1.51953.6803-1.51953,1.51953v12.96094c0,.83917.6803,1.51953,1.51953,1.51953h6.48047v-1H2.50586c-.27936,0-.50586-.2265-.50586-.50586ZM6.00977,10.95215v-6.9043l4.83301,3.45215-4.83301,3.45215ZM6.99023,9.04785l2.16699-1.54785-2.16699-1.54785v3.0957ZM23.98975,14.90723c0,1.9375-1.98096,4.20605-5.271,5.91992l-.33704.17523c-.33209.64093-.70856,1.25793-1.18768,1.80127l-.23676.19635h-3.9176l-.17236-.19635c-2.57251-2.91638-2.89203-7.6087-2.85834-10.14594l.00104-.65771h9.98895s-.00055.80328-.00012.87158c.61322-.2887,1.15546-.36084,1.53827-.36084,1.25,0,2.45264.82324,2.45264,2.39648ZM19.70551,16.80524c.31653-.15436.44934-.23462.66168-.47321h.00098c.31055-.34766.35742-.60645.31348-.69531-.01855-.03809-.08105-.06152-.16211-.06152-.0127,0-.02441,0-.03711.00098-.1098.05682-.40033.41571-.70782.81738-.01904.13562-.04688.27454-.06909.41168ZM19,12.99097h-7.99567c.01483,3.82312.86462,7.0752,2.35773,9.00903h3.27728c1.49408-1.93481,2.34485-5.18689,2.36066-9.00903ZM22.94727,14.90723c0-1.27637-1.35254-1.29102-1.41016-1.29102-.34082,0-.86914.08594-1.47559.48535-.04028.04803-.05927.09503-.09265.14374.00018-.00494.00012-.00983.00031-.01477-.00598.13654-.01099.27014-.01959.41168.14703-.0896.29382-.15588.44592-.1676.5459-.05371,1.0498.21289,1.27734.6709.13281.26855.35156.99121-.47949,1.92285-.39355.44043-.68066.57812-1.15625.80566-.1582.07599-.37213.18298-.61371.30823-.09607.39117-.2066.77795-.33618,1.16418,2.64819-1.58417,3.86005-3.32788,3.86005-4.43921ZM6.9082,13h2.0918v1h-2.0918c-.2066.58124-.75604,1-1.4082,1s-1.2016-.41876-1.4082-1h-1.0918v-1h1.0918c.2066-.58124.75604-1,1.4082-1s1.2016.41876,1.4082,1ZM6,13h-1v1h1v-1Z"/></svg>