<?xml version="1.0" encoding="UTF-8"?><svg id="icons" xmlns="http://www.w3.org/2000/svg" viewBox="0 0 16 16"><defs><style>.cls-1{fill:none;}</style></defs><rect class="cls-1" width="16" height="16"/><path d="M1.17188,11h4.82812v1H1.17188c-.64648,0-1.17188-.52539-1.17188-1.17188V1.17188C0,.52539.52539,0,1.17188,0h12.65625c.64648,0,1.17188.52539,1.17188,1.17188v6.82812h-1V1.17188c0-.09473-.07715-.17188-.17188-.17188H1.17188c-.09473,0-.17188.07715-.17188.17188v9.65625c0,.09473.07715.17188.17188.17188ZM8.0332,6.73145c.14453.5498.5.91504,1.68359,1.26562l.2832-.92285c-1.13379-.33594-.99902-.59375-1-.59375.00195-.11914.21387-.43848.37988-.60938.11621-.12109.2334-.24316.33496-.36426.30176-.35742.27051-.69238.22461-.85938-.11035-.40332-.49707-.71484-1.18164-.9541l-.33008.94336c.27832.09766.43164.18945.50488.24707-.08398.09766-.17871.19531-.27246.29297-.39648.41113-.79395.92285-.62695,1.55469ZM13,4.24219c0-1.04102-.90137-1.38281-1.24121-1.51172l-.35352.93555c.55078.20898.59473.37695.59473.57617,0,.22656-.14844.42188-.38965.72168-.27148.33789-.61035.75781-.61035,1.34766,0,1.1748,1.54199,1.63574,1.7334,1.68848l.2666-.92773c-.47363-.13281-1-.48633-1-.76074,0-.22559.14746-.4209.38965-.7207.27148-.33789.61035-.75781.61035-1.34863ZM3,6.5l3-2-3-2v4ZM14.91895,13.26855c-.74823.74823-1.84271,1.35144-2.48956,1.67157-.20129.36023-.4364.69434-.72021.97803l-.08081.08185h-2.75195l-.08179-.08185c-2.0249-2.02698-1.77203-6.47015-1.7605-6.65796l.01575-.26019h6.40509l.01575.25916c.0025.04108.01556.29144.01508.66614.42297-.14288.93243-.22656,1.45856-.09717.50488.12695.85352.45117.98145.91602.20312.73242-.18262,1.7002-1.00684,2.52441ZM12.52325,10h-4.5415c-.01691.8075.01868,3.62622,1.29987,5h1.94177c1.2829-1.37555,1.31763-4.19342,1.29987-5ZM14.96191,11.01074c-.01367-.05176-.04297-.1582-.25977-.21191-.46606-.11768-.95355.07019-1.2583.22614-.05328.72827-.16974,1.5946-.4126,2.43927.41705-.26019.84564-.56769,1.18066-.90271.60645-.60645.83691-1.23926.75-1.55078ZM6,8.5c0,.82843-.67157,1.5-1.5,1.5-.65216,0-1.2016-.41876-1.4082-1h-1.0918v-1h1.0918c.2066-.58124.75604-1,1.4082-1,.82843,0,1.5.67157,1.5,1.5ZM5,8h-1v1h1v-1Z"/></svg>