<svg xmlns="http://www.w3.org/2000/svg" viewBox="0 0 24 24"><path d="M6 5H5V4h1v1zm2-1H7v1h1V4zm2 0H9v1h1V4zm0 4H9v1h1V8zm0 4H9v1h1v-1zM6 8H5v1h1V8zm2 0H7v1h1V8zm-2 4H5v1h1v-1zm2 0H7v1h1v-1zm3.4 3H2V2h20v10.72a6.537 6.537 0 0 0-1-.79V11H3v3h8.93c-.203.317-.383.65-.53 1zM3 6h18V3H3v3zm0 4h18V7H3v3zm20 7.5c0 3.033-2.467 5.5-5.5 5.5S12 20.533 12 17.5s2.467-5.5 5.5-5.5 5.5 2.467 5.5 5.5zm-1 0c0-2.481-2.019-4.5-4.5-4.5S13 15.019 13 17.5s2.019 4.5 4.5 4.5 4.5-2.019 4.5-4.5zm-1 0L16 21v-7l5 3.5zm-4 1.58l2.256-1.58L17 15.92v3.16z"/><path fill="none" d="M0 0h24v24H0z"/></svg>