<svg xmlns="http://www.w3.org/2000/svg" viewBox="0 0 24 24"><path d="M0 0h24v24H0z" style="fill:none"/><path d="M10 19.879c-4.37-.228-7-1.42-7-2.3v-6.248c1.402.937 4.112 1.486 7 1.628v-.999c-4.315-.215-7-1.323-7-2.112V6.41C4.643 7.457 8.082 8 11.5 8s6.857-.543 8.5-1.589v3.437c0 .356-.554.777-1.549 1.152H21V5c0-1.97-4.78-3-9.5-3S2 3.03 2 5v12.58c0 1.96 3.819 3.082 8 3.3zM11.5 3C17 3 20 4.321 20 5s-3 2-8.5 2S3 5.679 3 5s3-2 8.5-2m-.5 9v11h12V12zm11 10H12v-9h10zm-7-8 .009 7L20 17.5zm1 1.92 2.256 1.58L16 19.08z"/></svg>