<svg xmlns="http://www.w3.org/2000/svg" viewBox="0 0 32 32"><path d="M8 13H6v-1h2zm3-1H9v1h2zm3 0h-2v1h2zm-6 6H6v1h2zm3 0H9v1h2zm3 0h-2v1h2zM8 6H6v1h2zm3 0H9v1h2zm3 0h-2v1h2zm1.369 16H3V3h26v15.923a8 8 0 0 0-1-1.003V16H4v5h11.701a8 8 0 0 0-.332 1M4 9h24V4H4zm0 6h24v-5H4zm19 2.2c-3.76 0-6.8 3.04-6.8 6.8s3.04 6.8 6.8 6.8 6.8-3.04 6.8-6.8-3.04-6.8-6.8-6.8m0 12.6c-3.2 0-5.8-2.6-5.8-5.8s2.6-5.8 5.8-5.8 5.8 2.6 5.8 5.8-2.6 5.8-5.8 5.8m4-5.8-6 4v-8zm-5 2.132L25.197 24 22 21.868z"/><path fill="none" d="M0 0h32v32H0z"/></svg>