<?xml version="1.0" encoding="UTF-8"?><svg id="icons" xmlns="http://www.w3.org/2000/svg" viewBox="0 0 32 32"><defs><style>.cls-1{fill:none;}.cls-2{fill:#231f20;}</style></defs><rect class="cls-1" width="32" height="32"/><path class="cls-2" d="M22,8h-4v-1h4v1ZM4,14h10v-1H4v1ZM22,4h-4v1h4v-1ZM4,10v1h7v-1h-7ZM2,2h22v13h1V1H1v26h10v-1H2V2ZM22,10h-4v1h4v-1ZM18,14h4v-1h-4v1ZM4,17h7v-1h-7v1ZM14,7H4v1h10v-1ZM4,20h7v-1h-7v1ZM31,16v16H12v-16h19ZM30,17H13v14h17v-14ZM19,20l6,4.00128-6,3.99872v-8ZM20,26.13184l3.19727-2.13086-3.19727-2.13184v4.2627ZM4,23h7v-1h-7v1ZM4,4v1h7v-1h-7Z"/></svg>