<?xml version="1.0" encoding="UTF-8"?><svg id="icons" xmlns="http://www.w3.org/2000/svg" viewBox="0 0 32 32"><defs><style>.cls-1{fill:none;}</style></defs><path d="M21.56445,12.01367c.2334-.41504.43555-.77441.43555-1.23535,0-.71973-.34766-.91699-1.0127-1.23047l-.20801-.09863.44141-.89844.19238.0918c.63184.29785,1.56891.74707,1.56891,2.13574,0,.72266-.2818,1.25586-.54645,1.72559-.2334.41602-.43555.77539-.43555,1.2373,0,.8125,1.17383,1.30859,1.18555,1.3125l-.36914.92969c-.07422-.0293-1.81641-.73535-1.81641-2.24219,0-.72363.2998-1.25684.56445-1.72754ZM18.59473,12.10254c-.40723.65527-.71173,1.39844-.46564,2.21777.19238.6377.63068,1.17773,1.66193,1.65234l.41797-.9082c-.73535-.33789-1.0293-.69531-1.13086-1.03223-.11621-.3877.04199-.87988.36621-1.40234.11426-.18359.22852-.36719.32812-.55078.2832-.52148.20898-.95898.09668-1.2334-.36133-.88379-1.43652-1.28125-1.5752-1.32422l-.29395.95605c.29395.0918.80078.39551.94336.74707.03125.07617.05273.1875-.0498.37695-.09082.16699-.19531.33398-.29883.50098ZM2.75,22c-.41309,0-.75-.33691-.75-.75V3.75c0-.41309.33691-.75.75-.75h24.5c.41309,0,.75.33691.75.75v13.25h1V3.75c0-.96484-.78516-1.75-1.75-1.75H2.75c-.96484,0-1.75.78516-1.75,1.75v17.5c0,.96484.78516,1.75,1.75,1.75h11.25c-.04041-.34503-.07391-.67822-.09985-1H2.75ZM8,15.78613V7.21387l5.8457,4.28613-5.8457,4.28613ZM9,13.81348l3.1543-2.31348-3.1543-2.31348v4.62695ZM28.91699,25.7041c-.97168.97168-2.24426,1.81049-3.35919,2.45245-.44464,1.0097-1.01709,1.94244-1.76801,2.69336l-.151.15009h-5.11157l-.15002-.15009c-3.76398-3.76495-3.29431-12.0188-3.27191-12.36859l.02924-.48132h11.7962l.03021.48132c.00482.07495.03339.52802.04053,1.20715.67041-.1701,1.42114-.24255,2.19092-.05078.83203.20801,1.40527.7373,1.61328,1.48926.35449,1.27832-.38672,3.0752-1.88867,4.57715ZM26.71106,23.95795c.40552-.31512.72113-.67139.82312-1.07904.01758-.07129.0293-.12891.03613-.17676-.19067.06604-.46124.22253-.74567.4115-.03174.27679-.07037.55811-.11359.8443ZM26.07776,19h-10.07776c-.03918,1.77618.13037,7.97632,2.94843,11h4.27014c2.82196-3.02661,2.89935-9.22479,2.85919-11ZM29.81348,21.40234c-.10938-.39551-.39453-.64551-.87109-.76465-.6759-.16888-1.35571-.0647-1.94928.12329-.00946.33881-.02911.71222-.05481,1.09918.46442-.21033.91644-.29926,1.24823-.11115.40234.22754.51953.69141.34766,1.37988-.24762.98895-1.12262,1.71466-2.0777,2.23047-.09198.41455-.20404.82812-.32782,1.23907.73517-.48108,1.46704-1.03009,2.05981-1.62286,1.20605-1.20605,1.87402-2.6748,1.625-3.57324ZM9.9082,19h4.0918c-.00659.26294-.01074.59686-.00562,1h-4.08618c-.2066.58124-.75604,1-1.4082,1s-1.2016-.41876-1.4082-1h-2.0918v-1h2.0918c.2066-.58124.75604-1,1.4082-1s1.2016.41876,1.4082,1ZM9,19h-1v1h1v-1Z"/><rect class="cls-1" width="32" height="32"/></svg>