<svg xmlns="http://www.w3.org/2000/svg" viewBox="0 0 16 16"><path d="M0 0h16v16H0z" style="fill:none"/><path d="M6 12.92c-2.767-.216-4-1.003-4-1.437V7.916c.865.527 2.256.884 4 1.014V7.928c-2.767-.216-4-1.003-4-1.437v-1.57c1.101.67 3.045 1.071 5.5 1.071s4.399-.4 5.5-1.071v1.57c0 .145-.154.33-.438.52H14V3.496C14 2.003 11.388 1 7.5 1S1 2.003 1 3.496v7.987c0 1.291 1.957 2.215 5 2.441zM7.5 1.999c3.839 0 5.5.992 5.5 1.498s-1.661 1.498-5.5 1.498S2 4.002 2 3.496s1.661-1.498 5.5-1.498M7 8v8h8V8zm7 7H8V9h6zm-1-3-3 2v-4z"/></svg>