<svg xmlns="http://www.w3.org/2000/svg" viewBox="0 0 32 32"><path d="M16.5 20a4.4 4.4 0 0 1-1.18-.177l5.503-5.503A4.4 4.4 0 0 1 21 15.5a4.505 4.505 0 0 1-4.5 4.5m7.985-9.342-.723.722a25.4 25.4 0 0 1 4.908 4.12C27.062 17.239 22.149 22 16.5 22a11.2 11.2 0 0 1-2.942-.415l-.8.8A12.4 12.4 0 0 0 16.5 23c7.456 0 13.5-7.5 13.5-7.5a26 26 0 0 0-5.515-4.842M8.354 24.354l-.707-.707 2.397-2.398A25.3 25.3 0 0 1 3 15.5S9.044 8 16.5 8a13.3 13.3 0 0 1 5.502 1.29l2.644-2.644.707.707zm2.436-3.85L13 18.292a4.46 4.46 0 0 1-1-2.793 4.505 4.505 0 0 1 4.5-4.5 4.46 4.46 0 0 1 2.793 1l1.952-1.952A12.1 12.1 0 0 0 16.5 9c-5.65 0-10.562 4.76-12.169 6.501a24.1 24.1 0 0 0 6.459 5.002z"/><path fill="none" d="M0 0h32v32H0z"/></svg>