<svg xmlns="http://www.w3.org/2000/svg" viewBox="0 0 24 24"><path d="M13 22h-2v-1h2v1zm-5-1H6v1h2v-1zm10 0h-2v1h2v-1zm4-13V6h-1v2h1zm0 5v-2h-1v2h1zm0 5v-2h-1v2h1zm0 0v-2h-1v2h1zm-1 2v1h-1v1h2v-2h-1zM11 3h2V2h-2v1zm5 0h2V2h-2v1zM6 3h2V2H6v1zM2 16v2h1v-2H2zm0-5v2h1v-2H2zm0-5v2h1V6H2zm0 0v2h1V6H2zm1-2V3h1V2H2v2h1zm17-1h1v1h1V2h-2v1zM4 21H3v-1H2v2h2v-1zm8-5h-1v1h1v-1zm3 0h-1v1h1v-1zm-8-4v1h1v-1H7zm0-3v1h1V9H7zm3.5 3.793l-.707.707.707.707.707-.707-.707-.707zm2-2l-.707.707.707.707.707-.707-.707-.707zM14.493 8.8l-.707.707.707.707.707-.707-.707-.707zM9 6v1a1 1 0 0 1-1 1H7a1 1 0 0 1-1-1V6a1 1 0 0 1 1-1h1a1 1 0 0 1 1 1zM8 6H7v1h1V6zm11 0v1a1 1 0 0 1-1 1h-1a1 1 0 0 1-1-1V6a1 1 0 0 1 1-1h1a1 1 0 0 1 1 1zm-1 0h-1v1h1V6zm1 10v1a1 1 0 0 1-1 1h-1a1 1 0 0 1-1-1v-1a1 1 0 0 1 1-1h1a1 1 0 0 1 1 1zm-1 0h-1v1h1v-1zm-8-.2v1.4A1.8 1.8 0 0 1 8.2 19H6.8A1.8 1.8 0 0 1 5 17.2v-1.4A1.8 1.8 0 0 1 6.8 14h1.4a1.8 1.8 0 0 1 1.8 1.8zm-1 0a.8.8 0 0 0-.8-.8H6.8a.8.8 0 0 0-.8.8v1.4a.8.8 0 0 0 .8.8h1.4a.8.8 0 0 0 .8-.8v-1.4z"/><path fill="none" d="M0 0h24v24H0z"/></svg>