<svg xmlns="http://www.w3.org/2000/svg" viewBox="0 0 24 24"><path d="M12.5 14.8a3.3 3.3 0 0 1-.598-.06l3.838-3.838A3.272 3.272 0 0 1 12.5 14.8m6.63-7.29-.72.722a19.8 19.8 0 0 1 3.45 3.268c-.977 1.19-4.833 5.5-9.361 5.5a8 8 0 0 1-2.455-.404l-.782.783A9.2 9.2 0 0 0 12.5 18c5.708 0 10.212-5.948 10.4-6.201l.224-.299-.224-.299a20 20 0 0 0-3.77-3.69zM5.5 19.208l-.707-.707 2.231-2.231A19.8 19.8 0 0 1 2.1 11.8l-.224-.299.224-.299C2.288 10.948 6.792 5 12.5 5a9.94 9.94 0 0 1 4.573 1.22L19.5 3.793l.707.707zm2.253-3.667 2.095-2.095A3.27 3.27 0 0 1 9.2 11.5a3.304 3.304 0 0 1 3.3-3.3 3.27 3.27 0 0 1 1.945.648l1.883-1.883A8.76 8.76 0 0 0 12.5 6c-4.528 0-8.384 4.31-9.361 5.5a18.9 18.9 0 0 0 4.614 4.04z"/><path fill="none" d="M0 0h24v24H0z"/></svg>