<svg xmlns="http://www.w3.org/2000/svg" viewBox="0 0 16 16"><path d="M8 13H7v-1h1zm2-1H9v1h1zM6.5 8.793l-.707.707.707.707.707-.707zm2-2-.707.707.707.707.707-.707zM10.493 4.8l-.707.707.707.707.707-.707zM3 8v1h1V8zm0-2v1h1V6zm13-2h-1v3h1zm0 5h-1v3h1zM1 4H0v3h1zm0 5H0v3h1zm14-9h-1v1h1v1h1V0zM9 1h3V0H9zM4 16h3v-1H4zm5 0h3v-1H9zM4 1h3V0H4zm11 13v1h-1v1h2v-2zM1 15v-1H0v2h2v-1zM2 0H0v2h1V1h1zm12 12v1a1 1 0 0 1-1 1h-1a1 1 0 0 1-1-1v-1a1 1 0 0 1 1-1h1a1 1 0 0 1 1 1m-1 0h-1v1h1zm1-9v1a1 1 0 0 1-1 1h-1a1 1 0 0 1-1-1V3a1 1 0 0 1 1-1h1a1 1 0 0 1 1 1m-1 0h-1v1h1zM5 3v1a1 1 0 0 1-1 1H3a1 1 0 0 1-1-1V3a1 1 0 0 1 1-1h1a1 1 0 0 1 1 1M4 3H3v1h1zm2 8.5v1A1.5 1.5 0 0 1 4.5 14h-1A1.5 1.5 0 0 1 2 12.5v-1A1.5 1.5 0 0 1 3.5 10h1A1.5 1.5 0 0 1 6 11.5m-1 0c0-.275-.225-.5-.5-.5h-1c-.275 0-.5.225-.5.5v1c0 .275.225.5.5.5h1c.275 0 .5-.225.5-.5z"/><path fill="none" d="M0 0h16v16H0z"/></svg>