<svg xmlns="http://www.w3.org/2000/svg" viewBox="0 0 24 24"><path d="M14 18.85 2.986 6.188l3.205-4.975 11.134 3.57L14 7z" opacity=".25"/><path d="M23 23V1l-9 6v16h-4V13H9v1H1v9H0v1h24v-1zM15 7.535l7-4.667V23h-7zM2 23v-8h7v8zM.456.696A.47.47 0 0 1 .74.334a7.03 7.03 0 0 1 5.351.782c.043.027.078.062.12.09l-2.343 3.62c-.03-.016-.06-.028-.088-.047a1.834 1.834 0 0 1-.687-2.62 2.57 2.57 0 0 1 1.067-.905 5.1 5.1 0 0 0-2.856-.011A4.58 4.58 0 0 0 3.53 5.346l-.572.884A5.15 5.15 0 0 1 .456.696M3 16h2v2H3zm3 0h2v2H6zm-3 3h2v2H3zm3 0h2v2H6zm13-9h2v2h-2zm0-3h2v2h-2zm-3 6h2v2h-2zm3 0h2v2h-2zm-3 3h2v2h-2zm3 0h2v2h-2zm-3 3h2v2h-2zm3 0h2v2h-2zm-3-9h2v2h-2zM3 7h1v1H3zm6-5H8V1h1zm3 1h-1V2h1zm3 1h-1V3h1zM5 10V9h1v1zm3 2H7v-1h1z"/><path fill="none" d="M0 0h24v24H0z"/></svg>