<svg xmlns="http://www.w3.org/2000/svg" viewBox="0 0 24 24"><path d="M13 22h-2v-1h2zm-5-1H6v1h2zm10 0h-2v1h2zm4-13V6h-1v2zm0 5v-2h-1v2zm0 5v-2h-1v2zm0 0v-2h-1v2zm-1 2v1h-1v1h2v-2zM11 3h2V2h-2zm5 0h2V2h-2zM6 3h2V2H6zM2 16v2h1v-2zm0-5v2h1v-2zm0-5v2h1V6zm0 0v2h1V6zm1-2V3h1V2H2v2zm17-1h1v1h1V2h-2zM4 21H3v-1H2v2h2zm8-5h-1v1h1zm3 0h-1v1h1zm-8-4v1h1v-1zm0-3v1h1V9zm3.5 3.793-.707.707.707.707.707-.707zm2-2-.707.707.707.707.707-.707zM14.493 8.8l-.707.707.707.707.707-.707zM9 6v1a1 1 0 0 1-1 1H7a1 1 0 0 1-1-1V6a1 1 0 0 1 1-1h1a1 1 0 0 1 1 1M8 6H7v1h1zm11 0v1a1 1 0 0 1-1 1h-1a1 1 0 0 1-1-1V6a1 1 0 0 1 1-1h1a1 1 0 0 1 1 1m-1 0h-1v1h1zm1 10v1a1 1 0 0 1-1 1h-1a1 1 0 0 1-1-1v-1a1 1 0 0 1 1-1h1a1 1 0 0 1 1 1m-1 0h-1v1h1zm-8-.2v1.4A1.8 1.8 0 0 1 8.2 19H6.8A1.8 1.8 0 0 1 5 17.2v-1.4A1.8 1.8 0 0 1 6.8 14h1.4a1.8 1.8 0 0 1 1.8 1.8m-1 0a.8.8 0 0 0-.8-.8H6.8a.8.8 0 0 0-.8.8v1.4a.8.8 0 0 0 .8.8h1.4a.8.8 0 0 0 .8-.8z"/><path fill="none" d="M0 0h24v24H0z"/></svg>