<svg xmlns="http://www.w3.org/2000/svg" viewBox="0 0 16 16"><path d="M9 13h7v1H9zm-9 1h2v-1H0zm5.5-7.25A1.25 1.25 0 1 0 4.25 5.5 1.25 1.25 0 0 0 5.5 6.75m2.26 6-1.253-1.744-.152-2.79c-.034-.666-.941-.75-1.755-.816-.488.826-1.281 2.363-1.614 3.015a.37.37 0 0 0 .137.487.38.38 0 0 0 .533-.137l1.087-1.921.133 2.24 1.792 2.14.875 2.465a.59.59 0 0 0 .68.287.62.62 0 0 0 .355-.72c-.014-.058-.818-2.506-.818-2.506m-3.48.049-1.584 2.213a.561.561 0 1 0 .934.62l1.666-2.213.12-.57-.835-.999zM7.104 8.79l.056 1.038 1.067.802a.455.455 0 0 0 .46-.759zM9 3.5A3.526 3.526 0 0 1 12.55 0 3.44 3.44 0 0 1 16 3.5 3.44 3.44 0 0 1 12.55 7 3.526 3.526 0 0 1 9 3.5m1 0a2.5 2.5 0 1 0 3-2.45V3h1v1h-2V1.05a2.504 2.504 0 0 0-2 2.45"/><path fill="none" d="M0 0h16v16H0z"/></svg>