<?xml version="1.0" encoding="UTF-8"?><svg id="icons" xmlns="http://www.w3.org/2000/svg" viewBox="0 0 16 16"><defs><style>.cls-1{fill:none;}</style></defs><path d="M8.01953,15.9915c-2.41797,0-4.96953-1.53418-4.96953-4.90234,0-2.49609,1.52227-4.94853,2.90898-7.12138.64941-1.0166,1.2627-1.97656,1.57715-2.75684l.42969-1.06152.48633,1.03613c.34473.73145.89551,1.59277,1.47852,2.50488,1.43848,2.24805,3.06934,4.7874,3.06934,7.39873,0,3.38672-2.50098,4.90234-4.98047,4.90234ZM8.02051,2.50586c-.3418.62695-.77148,1.30078-1.21875,2-1.31348,2.05762-2.80176,4.3792-2.80176,6.5833,0,2.87988,2.16504,3.90234,4.01953,3.90234,1.83594,0,3.98047-1.02246,3.98047-3.90234,0-2.31934-1.54688-4.72685-2.91211-6.85967-.38379-.60059-.75293-1.17871-1.06738-1.72363ZM8.42285,13.97099c.27441-.02832.47363-.27441.44434-.5498-.02832-.27539-.26855-.47852-.5498-.44434-.11035.01172-.21191.01465-.29785.01465-.9209,0-2.01953-.33008-2.01953-1.90234,0-.34473.06152-.73145.18457-1.15039.07715-.26465-.0752-.54199-.34082-.62012-.26953-.07324-.54199.0752-.62012.34082-.14844.50977-.22363.99023-.22363,1.42969,0,2.69336,2.31152,2.90234,3.01953,2.90234.11523,0,.25391-.00488.40332-.02051Z"/><rect class="cls-1" width="16" height="16"/></svg>