<?xml version="1.0" encoding="UTF-8"?><svg id="icons" xmlns="http://www.w3.org/2000/svg" viewBox="0 0 32 32"><defs><style>.cls-1{fill:none;}</style></defs><path d="M16.5,31c-3.9209,0-8.5-2.22656-8.5-8.5,0-4.6377,2.94531-9.79297,5.31249-13.93652,1.11134-1.94629,2.16212-3.78516,2.72072-5.24219l.43164-1.12695.49219,1.10156c.58984,1.32324,1.50488,2.91797,2.47363,4.60645,2.48145,4.32227,5.56934,9.70215,5.56934,14.59766,0,6.27344-4.5791,8.5-8.5,8.5ZM16.52539,4.71191c-.6084,1.30664-1.45703,2.79395-2.34473,4.34766-2.30859,4.04004-5.18066,9.06836-5.18066,13.44043,0,5.5293,3.87402,7.5,7.5,7.5s7.5-1.9707,7.5-7.5c0-4.62891-3.01465-9.87988-5.43652-14.09961-.75-1.30762-1.46875-2.55957-2.03809-3.68848ZM17,27.5c0-.27637-.22363-.5-.5-.5-2.05273,0-4.5-.78027-4.5-4.5,0-.47852.05371-1.01758.15918-1.60254.04883-.27148-.13184-.53223-.40332-.58105-.26953-.04297-.53125.13184-.58105.40332-.11621.64355-.1748,1.24316-.1748,1.78027,0,4.96387,3.84668,5.5,5.5,5.5.27637,0,.5-.22363.5-.5Z"/><rect class="cls-1" width="32" height="32"/></svg>