<?xml version="1.0" encoding="UTF-8"?><svg id="icons" xmlns="http://www.w3.org/2000/svg" viewBox="0 0 24 24"><defs><style>.cls-1{fill:none;}</style></defs><path d="M12.5,23c-3.13086,0-6.5-2.16699-6.5-6.9248,0-3.45117,2.07129-6.8457,3.89941-9.83984.87598-1.43555,1.70312-2.79004,2.13379-3.91406l.43164-1.12695.49219,1.10156c.46875,1.05176,1.21289,2.26953,2.00098,3.55762,1.89453,3.09863,3.94199,6.61035,3.94199,10.22168,0,4.75781-3.26914,6.9248-6.4,6.9248ZM12.52246,3.67773c-.47363.95508-1.1084,1.99414-1.76953,3.07812-1.75879,2.88281-3.75293,6.14941-3.75293,9.31934,0,4.07031,2.85059,5.9248,5.5,5.9248s5.5-1.85449,5.5-5.9248c0-3.33008-2.06934-6.71387-3.89453-9.7002-.57812-.94336-1.13184-1.85059-1.58301-2.69727ZM12.52734,20.52832c.0293-.27539-.16895-.52148-.44336-.55078-.72363-.07715-3.08398-.58789-3.08398-3.90234,0-.30176.02539-.62109.0752-.94922.04199-.27246-.14551-.52734-.41895-.56934-.26562-.03906-.52734.14551-.56934.41895-.05762.37695-.08691.74707-.08691,1.09961,0,3.2959,2.05469,4.69043,3.97656,4.89648.01855.00195.03613.00293.05469.00293.25195,0,.46875-.19043.49609-.44629Z"/><rect class="cls-1" width="24" height="24"/></svg>