<?xml version="1.0" encoding="UTF-8"?><svg id="icons" xmlns="http://www.w3.org/2000/svg" viewBox="0 0 24 24"><defs><style>.cls-1{fill:none;}.cls-1,.cls-2{stroke-width:0px;}</style></defs><rect class="cls-1" width="24" height="24"/><path class="cls-2" d="M17.05042,6c.23169,1.14105,1.24011,2,2.44958,2s2.2179-.85895,2.44958-2h2.05042v-1h-2.05042c-.23169-1.14111-1.24011-2-2.44958-2s-2.2179.85889-2.44958,2h-2.75745l-7,7h-.34338c-.23169-1.14111-1.24011-2-2.44958-2s-2.2179.85889-2.44958,2H0v1h2.05042c.23169,1.14105,1.24011,2,2.44958,2s2.2179-.85895,2.44958-2h2.34338l7,7h.75745c.23169,1.14105,1.24011,2,2.44958,2s2.2179-.85895,2.44958-2h2.05042v-1h-2.05042c-.23169-1.14111-1.24011-2-2.44958-2s-2.2179.85889-2.44958,2h-.34338l-6-6h6.34338c.23169,1.14105,1.24011,2,2.44958,2s2.2179-.85895,2.44958-2h2.05042v-1h-2.05042c-.23169-1.14111-1.24011-2-2.44958-2s-2.2179.85889-2.44958,2h-8.34338l6-6h2.34338ZM19.5,4c.82715,0,1.5.67285,1.5,1.5s-.67285,1.5-1.5,1.5-1.5-.67285-1.5-1.5.67285-1.5,1.5-1.5ZM4.5,14c-.82715,0-1.5-.67285-1.5-1.5s.67285-1.5,1.5-1.5,1.5.67285,1.5,1.5-.67285,1.5-1.5,1.5ZM19.5,18c.82715,0,1.5.67285,1.5,1.5s-.67285,1.5-1.5,1.5-1.5-.67285-1.5-1.5.67285-1.5,1.5-1.5ZM19.5,11c.82715,0,1.5.67285,1.5,1.5s-.67285,1.5-1.5,1.5-1.5-.67285-1.5-1.5.67285-1.5,1.5-1.5Z"/></svg>