<?xml version="1.0" encoding="UTF-8"?><svg id="icons" xmlns="http://www.w3.org/2000/svg" viewBox="0 0 32 32"><defs><style>.cls-1{fill:none;}.cls-1,.cls-2{stroke-width:0px;}</style></defs><rect class="cls-1" width="32" height="32"/><path class="cls-2" d="M24.05042,7.99902c.23187,1.14044,1.24158,2.00098,2.44958,2.00098s2.21771-.86053,2.44958-2.00098h2.05042v-.991l-2.0506-.009c-.2326-1.1394-1.24207-1.99902-2.4494-1.99902s-2.2168.85962-2.4494,1.99902l-4.73322.009-9.02502,8.99198h-2.3429c-.23224-1.13995-1.24182-2-2.44946-2s-2.21722.86005-2.44946,2H1v1h2.05054c.23224,1.13995,1.24182,2,2.44946,2s2.21722-.86005,2.44946-2h5.34833l8.99518,9h1.75757c.23224,1.13995,1.24182,2,2.44946,2s2.21722-.86005,2.44946-2h2.05054v-1h-2.05054c-.23224-1.13995-1.24182-2-2.44946-2s-2.21722.86005-2.44946,2h-1.34351l-7.99561-8h9.33911c.23224,1.13995,1.24182,2,2.44946,2s2.21722-.86005,2.44946-2h2.05054v-1h-2.05054c-.23224-1.13995-1.24182-2-2.44946-2s-2.21722.86005-2.44946,2h-12.34033l8.02124-8.00098h4.31897ZM26.5,6c.82715,0,1.5.67285,1.5,1.5s-.67285,1.5-1.5,1.5-1.5-.67285-1.5-1.5.67285-1.5,1.5-1.5ZM5.5,18c-.82715,0-1.5-.67285-1.5-1.5s.67285-1.5,1.5-1.5,1.5.67285,1.5,1.5-.67285,1.5-1.5,1.5ZM26.5,24c.82715,0,1.5.67285,1.5,1.5s-.67285,1.5-1.5,1.5-1.5-.67285-1.5-1.5.67285-1.5,1.5-1.5ZM26.5,15c.82715,0,1.5.67285,1.5,1.5s-.67285,1.5-1.5,1.5-1.5-.67285-1.5-1.5.67285-1.5,1.5-1.5Z"/></svg>