<svg xmlns="http://www.w3.org/2000/svg" viewBox="0 0 32 32"><path stroke-width="0" fill="none" d="M0 0h32v32H0z"/><path d="M24.05 7.999C24.282 9.139 25.292 10 26.5 10s2.218-.86 2.45-2.001H31v-.991l-2.05-.009C28.716 5.859 27.706 5 26.5 5s-2.217.86-2.45 1.999l-4.733.009L10.292 16H7.95c-.232-1.14-1.241-2-2.449-2s-2.217.86-2.45 2H1v1h2.05c.233 1.14 1.242 2 2.45 2s2.217-.86 2.45-2h5.348l8.995 9h1.758c.232 1.14 1.241 2 2.449 2s2.217-.86 2.45-2H31v-1h-2.05c-.233-1.14-1.242-2-2.45-2s-2.217.86-2.45 2h-1.343l-7.996-8h9.34c.232 1.14 1.241 2 2.449 2s2.217-.86 2.45-2H31v-1h-2.05c-.233-1.14-1.242-2-2.45-2s-2.217.86-2.45 2H11.71l8.021-8.001h4.32zM26.5 6c.827 0 1.5.673 1.5 1.5S27.327 9 26.5 9 25 8.327 25 7.5 25.673 6 26.5 6zm-21 12c-.827 0-1.5-.673-1.5-1.5S4.673 15 5.5 15s1.5.673 1.5 1.5S6.327 18 5.5 18zm21 6c.827 0 1.5.673 1.5 1.5s-.673 1.5-1.5 1.5-1.5-.673-1.5-1.5.673-1.5 1.5-1.5zm0-9c.827 0 1.5.673 1.5 1.5s-.673 1.5-1.5 1.5-1.5-.673-1.5-1.5.673-1.5 1.5-1.5z" stroke-width="0"/></svg>