<?xml version="1.0" encoding="UTF-8"?><svg id="icons" xmlns="http://www.w3.org/2000/svg" viewBox="0 0 16 16"><defs><style>.cls-1{fill:none;}.cls-1,.cls-2{stroke-width:0px;}</style></defs><rect class="cls-1" width="16" height="16"/><path class="cls-2" d="M12.0921,4c.20709.58075.7569,1,1.4079,1s1.20081-.41925,1.4079-1h1.0921v-1h-1.0921c-.20709-.58075-.7569-1-1.4079-1s-1.20081.41925-1.4079,1h-2.77667l-5.0293,5h-.37823c-.20709-.58075-.7569-1-1.4079-1s-1.20081.41925-1.4079,1H0v1h1.0921c.20709.58075.7569,1,1.4079,1s1.20081-.41925,1.4079-1h1.3811l4.99811,5h1.80499c.20709.58075.7569,1,1.4079,1s1.20081-.41925,1.4079-1h1.0921v-1h-1.0921c-.20709-.58075-.7569-1-1.4079-1s-1.20081.41925-1.4079,1h-1.39093l-3.99835-4h5.38928c.20709.58075.7569,1,1.4079,1s1.20081-.41925,1.4079-1h1.0921v-1h-1.0921c-.20709-.58075-.7569-1-1.4079-1s-1.20081.41925-1.4079,1h-6.38776l4.02319-4h2.36456ZM13,3h1v1h-1v-1ZM3,9h-1v-1h1v1ZM13,13h1v1h-1v-1ZM13,8h1v1h-1v-1Z"/></svg>