<svg xmlns="http://www.w3.org/2000/svg" viewBox="0 0 16 16"><path stroke-width="0" fill="none" d="M0 0h16v16H0z"/><path d="M12.092 4c.207.58.757 1 1.408 1s1.2-.42 1.408-1H16V3h-1.092c-.207-.58-.757-1-1.408-1s-1.2.42-1.408 1H9.315L4.286 8h-.378C3.7 7.42 3.15 7 2.5 7s-1.2.42-1.408 1H0v1h1.092c.207.58.757 1 1.408 1s1.2-.42 1.408-1h1.381l4.998 5h1.805c.207.58.757 1 1.408 1s1.2-.42 1.408-1H16v-1h-1.092c-.207-.58-.757-1-1.408-1s-1.2.42-1.408 1h-1.39l-4-4h5.39c.207.58.757 1 1.408 1s1.2-.42 1.408-1H16V8h-1.092c-.207-.58-.757-1-1.408-1s-1.2.42-1.408 1H5.704l4.024-4h2.364zM13 3h1v1h-1V3zM3 9H2V8h1v1zm10 4h1v1h-1v-1zm0-5h1v1h-1V8z" stroke-width="0"/></svg>