<svg xmlns="http://www.w3.org/2000/svg" viewBox="0 0 24 24"><path stroke-width="0" fill="none" d="M0 0h24v24H0z"/><path d="M17.05 6a2.5 2.5 0 0 0 4.9 0H24V5h-2.05a2.5 2.5 0 0 0-4.9 0h-2.757l-7 7H6.95a2.5 2.5 0 0 0-4.9 0H0v1h2.05a2.5 2.5 0 0 0 4.9 0h2.343l7 7h.757a2.5 2.5 0 0 0 4.9 0H24v-1h-2.05a2.5 2.5 0 0 0-4.9 0h-.343l-6-6h6.343a2.5 2.5 0 0 0 4.9 0H24v-1h-2.05a2.5 2.5 0 0 0-4.9 0H8.707l6-6h2.343zm2.45-2c.827 0 1.5.673 1.5 1.5S20.327 7 19.5 7 18 6.327 18 5.5 18.673 4 19.5 4zm-15 10c-.827 0-1.5-.673-1.5-1.5S3.673 11 4.5 11s1.5.673 1.5 1.5S5.327 14 4.5 14zm15 4c.827 0 1.5.673 1.5 1.5s-.673 1.5-1.5 1.5-1.5-.673-1.5-1.5.673-1.5 1.5-1.5zm0-7c.827 0 1.5.673 1.5 1.5s-.673 1.5-1.5 1.5-1.5-.673-1.5-1.5.673-1.5 1.5-1.5z" stroke-width="0"/></svg>