<svg xmlns="http://www.w3.org/2000/svg" viewBox="0 0 32 32"><path d="M16.5 2.2a14.3 14.3 0 1 0 14.3 14.3A14.3 14.3 0 0 0 16.5 2.2M3.225 17h4.99a22.7 22.7 0 0 0 .901 6H4.903a13.2 13.2 0 0 1-1.678-6M17 9V3.246c2.29.285 4.295 2.492 5.523 5.754zm5.862 1a22 22 0 0 1 .924 6H17v-6zM16 3.246V9h-5.523C11.705 5.738 13.709 3.531 16 3.246M16 10v6H9.214a22 22 0 0 1 .924-6zm-7.785 6h-4.99a13.2 13.2 0 0 1 1.678-6h4.213a22.7 22.7 0 0 0-.901 6m1 1H16v6h-5.862a22 22 0 0 1-.924-6zM16 24v5.754c-2.29-.285-4.295-2.492-5.523-5.754zm1 5.754V24h5.523c-1.228 3.262-3.232 5.469-5.523 5.754M17 23v-6h6.786a22 22 0 0 1-.924 6zm7.785-6h4.99a13.2 13.2 0 0 1-1.678 6h-4.213a22.7 22.7 0 0 0 .901-6m0-1a22.7 22.7 0 0 0-.901-6h4.213a13.2 13.2 0 0 1 1.678 6zm2.696-7h-3.928a12.6 12.6 0 0 0-3.329-5.261A13.3 13.3 0 0 1 27.481 9M12.776 3.739A12.6 12.6 0 0 0 9.446 9H5.52a13.3 13.3 0 0 1 7.257-5.261zM5.519 24h3.928a12.6 12.6 0 0 0 3.329 5.261A13.3 13.3 0 0 1 5.519 24m14.705 5.261A12.6 12.6 0 0 0 23.554 24h3.927a13.3 13.3 0 0 1-7.257 5.261"/><path fill="none" d="M0 0h32v32H0z"/></svg>