<svg xmlns="http://www.w3.org/2000/svg" viewBox="0 0 16 16"><path d="M2.76 13a7.284 7.284 0 0 0 11.48 0h.005v-.006a7.27 7.27 0 0 0 0-8.988V4h-.004A7.284 7.284 0 0 0 2.759 4h-.004v.006a7.27 7.27 0 0 0 0 8.988V13zm1.95-8a11.5 11.5 0 0 0-.495 3h-1.99a6.26 6.26 0 0 1 1.04-3zm9.025 0a6.26 6.26 0 0 1 1.04 3h-1.99a11.5 11.5 0 0 0-.495-3zm-1.445 7a11.5 11.5 0 0 0 .495-3h1.99a6.26 6.26 0 0 1-1.04 3zM8 13v1.716A3.32 3.32 0 0 1 6.22 13zm-2.225-1a10.3 10.3 0 0 1-.561-3H8v3zM9 14.716V13h1.78A3.32 3.32 0 0 1 9 14.716M9 12V9h2.786a10.3 10.3 0 0 1-.561 3zm2.786-4H9V5h2.225a10.3 10.3 0 0 1 .561 3M9 4V2.284A3.32 3.32 0 0 1 10.78 4zM8 2.284V4H6.22A3.32 3.32 0 0 1 8 2.284M8 5v3H5.214a10.3 10.3 0 0 1 .561-3zM4.215 9a11.5 11.5 0 0 0 .495 3H3.265a6.26 6.26 0 0 1-1.04-3zm.881 4a7 7 0 0 0 .662 1.163A6.3 6.3 0 0 1 4.1 13zm6.146 1.163A7 7 0 0 0 11.904 13h.996a6.3 6.3 0 0 1-1.658 1.163M11.904 4a7 7 0 0 0-.662-1.163A6.3 6.3 0 0 1 12.9 4zM5.758 2.837A7 7 0 0 0 5.096 4H4.1a6.3 6.3 0 0 1 1.66-1.163z"/><path fill="none" d="M0 0h16v16H0z"/></svg>