<svg xmlns="http://www.w3.org/2000/svg" viewBox="0 0 16 16"><path d="M15.99 11.5A3.496 3.496 0 0 0 12.5 8a3.6 3.6 0 0 0-1.258.229L9.628 5.48A1.54 1.54 0 0 0 10 4.5 1.5 1.5 0 1 0 8.501 6a1.5 1.5 0 0 0 .257-.027l2.095 3.567.425-.23A2.5 2.5 0 0 1 12.5 9a2.5 2.5 0 1 1-1.284 4.646l-.516.857a3.494 3.494 0 0 0 5.29-3.003M8 4.501A.5.5 0 1 1 8.501 5 .506.506 0 0 1 8 4.501M3.293 9.266l-.482-.875A3.59 3.59 0 0 0 1.01 11.5 3.51 3.51 0 0 0 4.5 15a3.57 3.57 0 0 0 3.465-3l3.125-.007a1.5 1.5 0 1 0 .004-1l-4.069.02-.013.483A2.567 2.567 0 0 1 4.5 14 2.497 2.497 0 0 1 2 11.5a2.58 2.58 0 0 1 1.293-2.234M12.5 11a.5.5 0 1 1-.5.5.5.5 0 0 1 .5-.5M8.499 1A3.5 3.5 0 0 0 5.01 4.501a3.43 3.43 0 0 0 1.363 2.771L4.775 10.03a1.5 1.5 0 0 0-.274-.03A1.5 1.5 0 1 0 6 11.501a1.54 1.54 0 0 0-.362-.967l2.094-3.611-.446-.247A2.42 2.42 0 0 1 6 4.5a2.5 2.5 0 0 1 5-.002 2.4 2.4 0 0 1-.021.312l.992.13A3 3 0 0 0 12 4.5 3.51 3.51 0 0 0 8.499 1m-4 11A.5.5 0 1 1 5 11.501a.514.514 0 0 1-.501.499"/><path fill="none" d="M0 0h16v16H0z"/></svg>