<svg xmlns="http://www.w3.org/2000/svg" viewBox="0 0 24 24"><path d="M17.974 7A5 5 0 0 0 18 6.5a5.5 5.5 0 1 0-8.672 4.491L7.18 15.114A2.4 2.4 0 0 0 6.496 15 2.5 2.5 0 1 0 9 17.496a2.36 2.36 0 0 0-.93-1.925l2.576-4.943-.41-.241A4.5 4.5 0 1 1 17 6.5a5 5 0 0 1-.022.452zM6.503 18.999a1.5 1.5 0 1 1 1.496-1.503A1.52 1.52 0 0 1 6.503 19zM18.5 12a5.7 5.7 0 0 0-1.453.157l-2.744-3.941A2.4 2.4 0 0 0 15 6.5a2.544 2.544 0 1 0-1.518 2.284l3.17 4.557.36-.13A4.3 4.3 0 0 1 18.5 13a4.5 4.5 0 1 1-.008 9h-.006a4.68 4.68 0 0 1-3.12-1.355l-.703.71A5.65 5.65 0 0 0 18.49 23h.011a5.5 5.5 0 0 0 0-11zM11 6.5A1.5 1.5 0 1 1 12.5 8 1.51 1.51 0 0 1 11 6.5M18.5 20a2.5 2.5 0 1 0-2.447-3h-5.05l-.003.497A4.546 4.546 0 0 1 6.5 22 4.526 4.526 0 0 1 2 17.5a4.6 4.6 0 0 1 3.148-4.37l-.296-.954A5.61 5.61 0 0 0 1 17.5 5.53 5.53 0 0 0 6.5 23a5.573 5.573 0 0 0 5.478-5h4.08a2.49 2.49 0 0 0 2.442 2m0-4a1.5 1.5 0 1 1-1.5 1.5 1.51 1.51 0 0 1 1.5-1.5"/><path fill="none" d="M0 0h24v24H0z"/></svg>