<?xml version="1.0" encoding="UTF-8"?><svg id="icons" xmlns="http://www.w3.org/2000/svg" viewBox="0 0 24 24"><defs><style>.cls-1{fill:none;}</style></defs><path d="M12.9,6c0,1.65686-1.34314,3-3,3H2v-1h7.9c1.10254,0,2-.89746,2-2s-.89746-2-2-2-1.9.89746-1.9,2h-1c0-1.65686,1.24314-3,2.9-3s3,1.34314,3,3ZM18.9,19c0-1.65686-1.34314-3-3-3H2v1h13.9c1.10254,0,2,.89746,2,2s-.89746,2-2,2-1.9-.89746-1.9-2h-1c0,1.65686,1.24314,3,2.9,3s3-1.34314,3-3ZM19,5c-2.20917,0-3.9,1.79083-3.9,4h1c0-1.6543,1.2457-3,2.9-3s3,1.3457,3,3-1.3457,3-3,3H4v1h15c2.20917,0,4-1.79089,4-4s-1.79083-4-4-4Z"/><rect class="cls-1" width="24" height="24"/></svg>