<?xml version="1.0" encoding="UTF-8"?><svg id="icons" xmlns="http://www.w3.org/2000/svg" viewBox="0 0 16 16"><defs><style>.cls-1{fill:none;}</style></defs><path d="M7,5.94958v.00037l-.5.05005H1v-1h5.5c.82715,0,1.4-.67285,1.4-1.5s-.57285-1.5-1.4-1.5-1.5.67285-1.5,1.5c0,.17615.03607.34283.0921.5h-1.04169c-.03284-.16162-.05042-.32874-.05042-.5,0-1.38074,1.11926-2.5,2.5-2.5s2.4,1.11926,2.4,2.5c0,1.20941-.75889,2.2179-1.9,2.44958ZM11.9,11.05042v-.00037l-.5-.05005H1v1h10.4c.82715,0,1.5.67285,1.5,1.5s-.67285,1.5-1.5,1.5-1.4-.67285-1.4-1.5c0-.17615.03607-.34283.0921-.5h-1.04169c-.03284.16162-.05042.32874-.05042.5,0,1.38074,1.01926,2.5,2.4,2.5s2.5-1.11926,2.5-2.5c0-1.20941-.85889-2.2179-2-2.44958ZM12.9,3c-1.65686,0-2.9,1.34314-2.9,3h1c0-1.10254.79746-2,1.9-2s2,.89746,2,2-.89746,2-2,2H2v1h10.9c1.65686,0,3-1.34314,3-3s-1.34314-3-3-3Z"/><rect class="cls-1" width="16" height="16"/></svg>