<?xml version="1.0" encoding="UTF-8"?><svg id="icons" xmlns="http://www.w3.org/2000/svg" viewBox="0 0 32 32"><defs><style>.cls-1{fill:none;}</style></defs><path d="M17,8c0,2.20911-1.79083,4-4,4H3v-1h10c1.6543,0,3-1.3457,3-3s-1.3457-3-3-3-3,1.3457-3,3c0,.35236.07227.68567.18433,1h-1.04291c-.08325-.32141-.14142-.65259-.14142-1,0-2.20917,1.79083-4,4-4s4,1.79083,4,4ZM24,25c0-2.20911-1.79083-4-4-4H3v1h17c1.6543,0,3,1.3457,3,3s-1.3457,3-3,3-3-1.3457-3-3c0-.35236.07227-.68567.18433-1h-1.04291c-.08325.32141-.14142.65259-.14142,1,0,2.20917,1.79083,4,4,4s4-1.79083,4-4ZM25,7c-2.76141,0-4.9,2.23859-4.9,5,0,.34253.03516.67682.10077,1h1.0412c-.08356-.32153-.14197-.65265-.14197-1,0-2.20605,1.69395-4,3.9-4s4,1.79395,4,4-1.79395,4-4,4H6v1h19c2.76141,0,5-2.23859,5-5s-2.23859-5-5-5Z"/><rect class="cls-1" width="32" height="32"/></svg>