<svg xmlns="http://www.w3.org/2000/svg" viewBox="0 0 32 32"><path d="M17 8a4 4 0 0 1-4 4H3v-1h10c1.654 0 3-1.346 3-3s-1.346-3-3-3-3 1.346-3 3c0 .352.072.686.184 1H9.141A4 4 0 0 1 9 8a4 4 0 1 1 8 0m7 17a4 4 0 0 0-4-4H3v1h17c1.654 0 3 1.346 3 3s-1.346 3-3 3-3-1.346-3-3c0-.352.072-.686.184-1h-1.043A4 4 0 0 0 16 25a4 4 0 1 0 8 0m1-18c-2.761 0-4.9 2.239-4.9 5q.001.515.1 1h1.042a4 4 0 0 1-.142-1c0-2.206 1.694-4 3.9-4s4 1.794 4 4-1.794 4-4 4H6v1h19a5 5 0 0 0 0-10"/><path fill="none" d="M0 0h32v32H0z"/></svg>