<svg xmlns="http://www.w3.org/2000/svg" viewBox="0 0 24 24"><path d="M5 4h1v1H5zm2 1h1V4H7zm15-3v8h-1V7H3v3h8v1H3v3h8v1H2V2zm-1 1H3v3h18zM5 8v1h1V8zm2 0v1h1V8zm-2 4v1h1v-1zm2 0v1h1v-1zm2-7h1V4H9zm0 3v1h1V8zm0 4v1h1v-1zm13 0h-4.086l.293-.293L17.5 11 16 12.5l1.5 1.5.707-.707-.293-.293H22v8h-1v1h1a1 1 0 0 0 1-1v-8a1 1 0 0 0-1-1m-2.38 9.5-2.12 2.12L15.88 22H14c-.55 0-1-.45-1-1v-2h-1v-3h1v-2.09c-.58-.21-1-.76-1-1.41 0-.83.67-1.5 1.5-1.5s1.5.67 1.5 1.5c0 .65-.42 1.2-1 1.41V16h1v3h-1v2h1.88l1.62-1.62zM13 13h1v-1h-1zm1 5v-1h-1v1zm3.5 4.21.71-.71-.71-.71-.71.71z"/><path fill="none" d="M0 0h24v24H0z"/></svg>