<svg xmlns="http://www.w3.org/2000/svg" viewBox="0 0 32 32"><path d="m23.875 8.884-.938-2.327 4.145-3.224a.67.67 0 0 0 .264-.677l-.051-.215-.09-.11a.7.7 0 0 0-.441-.251 8.17 8.17 0 0 0-5.858 1.395 5.63 5.63 0 0 0-1.68 6.3l-.008.035a4.8 4.8 0 0 1-.769 1.144L3.124 24.33a3.957 3.957 0 0 0 .002 5.522A3.8 3.8 0 0 0 5.851 31a3.8 3.8 0 0 0 2.75-1.175L21.81 14.193a1.86 1.86 0 0 1 .771-.485 2 2 0 0 1 .366.022 5.24 5.24 0 0 0 5.196-.662 8.46 8.46 0 0 0 2.85-5.36.7.7 0 0 0-.126-.506l-.123-.138-.09-.054a.7.7 0 0 0-.786.056l-4.074 3.232zm5.992-.55a7.24 7.24 0 0 1-2.339 3.945 4.26 4.26 0 0 1-4.266.5l-.118-.031a3.3 3.3 0 0 0-.617-.038 2.6 2.6 0 0 0-1.435.79L7.862 29.152a2.8 2.8 0 0 1-2.01.848H5.85a2.8 2.8 0 0 1-2.012-.849 2.946 2.946 0 0 1-.03-4.093l15.354-13.409a5.3 5.3 0 0 0 1.018-1.57 2 2 0 0 0 .054-.288l.015-.118-.04-.112a4.65 4.65 0 0 1 1.31-5.297A6.94 6.94 0 0 1 25.627 3q.124 0 .25.004L22.321 5.77a.97.97 0 0 0-.306 1.105l.937 2.393a1 1 0 0 0 .107.19.9.9 0 0 0 .195.193l1.938 1.446a.94.94 0 0 0 1.147-.018zM6.501 25H5.5a1.5 1.5 0 0 0-1.499 1.495L4 27.505a1.5 1.5 0 0 0 1.5 1.497l1.009-.001a1.503 1.503 0 0 0 1.495-1.504l-.003-1A1.5 1.5 0 0 0 6.501 25m.005 3-1.006.002a.5.5 0 0 1-.5-.5l.001-1.004A.5.5 0 0 1 5.5 26h1.001a.5.5 0 0 1 .5.5l.003.999a.5.5 0 0 1-.498.501"/><path fill="none" d="M0 0h32v32H0z"/></svg>