<svg xmlns="http://www.w3.org/2000/svg" viewBox="0 0 24 24"><path d="M1 19.894a3.1 3.1 0 0 0 3.098 3.102 3.15 3.15 0 0 0 2.232-.933l10.268-11.938a1.45 1.45 0 0 1 .535-.343h.088a3.93 3.93 0 0 0 3.668-.573 6.24 6.24 0 0 0 2.106-3.958.62.62 0 0 0-.108-.442l-.113-.141-.11-.06a.65.65 0 0 0-.704.06l-2.88 2.239-1.244-.927-.6-1.531 2.889-2.245a.65.65 0 0 0 .237-.644l-.045-.17-.073-.096a.64.64 0 0 0-.42-.241 6.05 6.05 0 0 0-4.32 1.032 4.21 4.21 0 0 0-1.222 4.789 7 7 0 0 1-.44.593L1.91 17.697A3.1 3.1 0 0 0 1 19.895zm1.588-1.463L14.55 8.168a5.6 5.6 0 0 0 .734-1.037l.099-.204-.09-.208a3.24 3.24 0 0 1 .824-3.844 4.8 4.8 0 0 1 2.632-.87l-2.228 1.732a.84.84 0 0 0-.264.957l.679 1.73a.8.8 0 0 0 .093.163l1.562 1.203a.815.815 0 0 0 .997-.012l2.202-1.712a4.94 4.94 0 0 1-1.516 2.353 2.9 2.9 0 0 1-2.79.396l-.124-.026a2 2 0 0 0-.28-.006 2.17 2.17 0 0 0-1.194.642L5.597 21.383A2.108 2.108 0 0 1 2 19.894a2.08 2.08 0 0 1 .588-1.463M4.1 21h.8A1.1 1.1 0 0 0 6 19.9v-.8A1.1 1.1 0 0 0 4.9 18h-.8A1.1 1.1 0 0 0 3 19.1v.8A1.1 1.1 0 0 0 4.1 21M4 19.1a.1.1 0 0 1 .1-.1h.8a.1.1 0 0 1 .1.1v.8a.1.1 0 0 1-.1.1h-.8a.1.1 0 0 1-.1-.1z"/><path fill="none" d="M0 0h24v24H0z"/></svg>