<?xml version="1.0" encoding="UTF-8"?><svg id="icons" xmlns="http://www.w3.org/2000/svg" viewBox="0 0 32 32"><rect width="32" height="32" style="fill:none;"/><path d="M22.12476,22.99982l4.49976-5.99982h-1.24951l-3.875,5.16675-3.875-5.16675h-1.24951l4.49982,5.99982-4.49982,6.00018h1.24951l3.875-5.16675,3.875,5.16675h1.24951l-4.49976-6.00018ZM30.01544,23.54688c0,2.74609-.49426,5.30103-1.35089,7.45312h1.05139c.82629-2.19202,1.28149-4.73389,1.28149-7.45312,0-3.18463-.62952-6.12988-1.73425-8.54688h-1.08154c1.15015,2.35284,1.8338,5.31885,1.8338,8.54688ZM12.99707,23.54688c0-3.22803.69263-6.19403,1.84277-8.54688h-1.08154c-1.10474,2.41699-1.75226,5.36224-1.75226,8.54688,0,2.71924.47321,5.26111,1.2995,7.45312h1.05139c-.85663-2.1521-1.35986-4.70703-1.35986-7.45312ZM26.98547,14.66992c-.10931.1098-.21771.22034-.32721.33008h-1.40796c.586-.58667,1.16473-1.17767,1.74969-1.76489v-2.59717c-1.23047,1.23785-2.45032,2.4823-3.68555,3.71753l-.64453.64453h-1.41406l1.35156-1.35156c1.47217-1.47217,2.92706-2.95471,4.39258-4.43073v-2.59711c-1.89441,1.91199-3.78003,3.82935-5.68555,5.73486l-2.64453,2.64453h-1.41406l3.35156-3.35156c2.14246-2.14246,4.26416-4.2973,6.39258-6.44806v-.20038c0-.55273-.44733-1-1-1h-.3847c-2.09808,2.11975-4.18915,4.24377-6.30084,6.35547l-3.86273,3.86273c-.17352-.13556-.38556-.2182-.61188-.2182h-.58398l4.35156-4.35156c1.87677-1.87677,3.73389-3.76532,5.59985-5.64844h-2.57483c-1.44073,1.45087-2.87079,2.90826-4.31799,4.35547l-6.43945,6.43945c-2.30243,2.30316-4.58844,4.61572-6.875,6.92816v2.59589c2.71313-2.74951,5.4325-5.49475,8.16797-8.23108l.12378-.12378c-.24139.6629-.45087,1.3465-.62573,2.04919-2.56421,2.56989-5.12152,5.14343-7.66602,7.72522v.26147c0,.55267.44733,1,1,1h.32422c1.92255-1.95056,3.85809-3.89307,5.79193-5.83667-.05048.50092-.07904,1.00818-.09747,1.51776-1.42975,1.4389-2.86212,2.87622-4.28577,4.31891h2.57593c.58575-.59229,1.17432-1.18292,1.76105-1.7746.03094.43127.08234.85608.13672,1.2818-.16284.16437-.32629.32837-.48907.4928h.55353c.05035.3363.10474.66913.16956,1h-6.44061c-1.10449,0-2-.89551-2-2V5c0-1.10449.89551-2,2-2h21c1.10449,0,2,.89551,2,2v8.65656l-1.01318,1.00806-.00134.00531ZM4,8.25714c.05621-.05627.11169-.11298.16797-.16925l4.08789-4.08789h-2.58594l-1.66992,1.66992v2.58722ZM4,12.27258c.72449-.72717,1.44189-1.45844,2.16797-2.18469l6.08789-6.08789h-2.58594l-4.79492,4.79492c-.29303.29315-.58221.5885-.875.88177v2.59589ZM4,16.28809c1.39001-1.39954,2.77209-2.80389,4.16797-4.2002l6.43945-6.43945c.54773-.54773,1.08746-1.10022,1.63428-1.64844h-2.57483c-.11804.11816-.23431.23737-.35242.35547l-6.43945,6.43945c-.96283.96313-1.91492,1.93256-2.875,2.89722v2.59595ZM20.22449,4h-2.57483c-.78076.78369-1.55255,1.57281-2.33521,2.35547l-6.43945,6.43945c-1.63263,1.63318-3.25031,3.27502-4.875,4.91272v2.59589c2.05292-2.07367,4.10229-4.14935,6.16797-6.21564l6.43945-6.43945c1.21222-1.21222,2.4093-2.43359,3.61707-3.64844Z"/></svg>