<svg xmlns="http://www.w3.org/2000/svg" viewBox="0 0 32 32"><path fill="none" d="M0 0h32v32H0z"/><path d="M22.125 23l4.5-6h-1.25L21.5 22.167 17.625 17h-1.25l4.5 6-4.5 6h1.25l3.875-5.167L25.375 29h1.25l-4.5-6zm7.89.547c0 2.746-.494 5.3-1.35 7.453h1.05c.827-2.192 1.282-4.734 1.282-7.453 0-3.185-.63-6.13-1.734-8.547h-1.081c1.15 2.353 1.833 5.319 1.833 8.547zm-17.018 0c0-3.228.693-6.194 1.843-8.547h-1.082c-1.104 2.417-1.752 5.362-1.752 8.547 0 2.72.473 5.261 1.3 7.453h1.05c-.856-2.152-1.359-4.707-1.359-7.453zm13.988-8.877l-.327.33H25.25c.586-.587 1.165-1.178 1.75-1.765v-2.597c-1.23 1.238-2.45 2.482-3.686 3.717L22.67 15h-1.414l1.351-1.352c1.473-1.472 2.927-2.954 4.393-4.43V6.62c-1.894 1.912-3.78 3.829-5.686 5.734L18.67 15h-1.414l3.351-3.352C22.75 9.506 24.872 7.351 27 5.2V5a1 1 0 0 0-1-1h-.385c-2.098 2.12-4.189 4.244-6.3 6.355l-3.863 3.863A.995.995 0 0 0 14.84 14h-.584l4.351-4.352c1.877-1.876 3.734-3.765 5.6-5.648h-2.575c-1.44 1.45-2.87 2.908-4.318 4.355l-6.439 6.44C8.573 17.098 6.287 19.41 4 21.723v2.596c2.713-2.75 5.433-5.495 8.168-8.231l.124-.124a20.228 20.228 0 0 0-.626 2.05A1743.18 1743.18 0 0 0 4 25.739V26a1 1 0 0 0 1 1h.324c1.923-1.95 3.858-3.893 5.792-5.837a23.73 23.73 0 0 0-.097 1.518C9.589 24.12 8.157 25.557 6.733 27h2.576l1.76-1.775c.032.432.083.856.138 1.282l-.49.493h.554c.05.336.105.67.17 1H5a2 2 0 0 1-2-2V5a2 2 0 0 1 2-2h21a2 2 0 0 1 2 2v8.657l-1.013 1.008-.001.005zM4 8.257l.168-.17L8.256 4H5.67L4 5.67v2.587zm0 4.016c.724-.728 1.442-1.459 2.168-2.185L12.256 4H9.67L4.875 8.795c-.293.293-.582.588-.875.882v2.596zm0 4.015c1.39-1.4 2.772-2.804 4.168-4.2l6.44-6.44c.547-.547 1.087-1.1 1.634-1.648h-2.575c-.118.118-.234.237-.353.355l-6.439 6.44c-.963.963-1.915 1.932-2.875 2.897v2.596zM20.224 4H17.65c-.781.784-1.553 1.573-2.336 2.355l-6.439 6.44C7.242 14.428 5.625 16.07 4 17.708v2.596c2.053-2.074 4.102-4.15 6.168-6.216l6.44-6.44C17.82 6.436 19.016 5.215 20.223 4z"/></svg>