<?xml version="1.0" encoding="UTF-8"?><svg id="icons" xmlns="http://www.w3.org/2000/svg" viewBox="0 0 16 16"><rect width="16" height="16" style="fill:none;"/><path d="M5.33478,9.96729c-.3429.34399-.68524.68854-1.02783,1.03271H1.72711c1.4082-1.41772,2.8158-2.83588,4.22992-4.25l1.80273-1.80273c1.08447-1.08447,2.15936-2.17407,3.24023-3.26044v2.59399c-.65033.6524-1.29572,1.30786-1.94727,1.95941l-1.25586,1.25586h.33301c.289,0,.55664.1272.74359.33746l.88629-.88629c.4151-.4151.82568-.83264,1.24023-1.24799v2.30072h1V1c0-.55273-.44733-1-1-1H1C.44733,0,0,.44727,0,1v10c0,.55267.44733,1,1,1h4.02582c.03473-.69763.13348-1.37952.30896-2.03271ZM1,1h1.29297l-1.04297,1.04297c-.08362.08362-.16644.16754-.25.25116v-1.29413ZM1,3.71161c.31964-.32013.63708-.64166.95703-.96161l1.75-1.75h2.57825c-.41193.41278-.82013.82782-1.23254,1.24023l-1.80273,1.80273c-.75244.75244-1.49957,1.50751-2.25,2.26068v-2.59204ZM1,7.72107c.98572-.99042,1.96844-1.98248,2.95703-2.97107l1.80273-1.80273c.64771-.64771,1.28882-1.29895,1.93524-1.94727h2.57788c-1.07404,1.07971-2.14264,2.16272-3.22015,3.24023l-1.80273,1.80273c-1.42133,1.42133-2.83521,2.84583-4.25,4.2702v-2.5921ZM14.1756,15.99121c.51727-.96967.82831-2.17792.82831-3.49121,0-1.55591-.43365-2.96747-1.13422-4.00439h1.1507c.61505,1.12213.97455,2.50458.97455,4.00439,0,1.2785-.26038,2.47083-.71942,3.49121h-1.09991ZM6.72449,15.99121c-.45905-1.02039-.71942-2.21271-.71942-3.49121,0-1.49982.3595-2.88226.97455-4.00439h1.1507c-.70056,1.03693-1.13422,2.44849-1.13422,4.00439,0,1.31329.31104,2.52155.82831,3.49121h-1.09991ZM12.32703,15l-1.34473-1.69574-1.3443,1.69574h-1.276l1.98224-2.50037-1.98218-2.49963h1.27606l1.34399,1.69501,1.34375-1.69501h1.276l-1.98169,2.49969,1.9826,2.50031h-1.27576Z"/></svg>