<svg xmlns="http://www.w3.org/2000/svg" viewBox="0 0 24 24"><path fill="none" d="M0 0h24v24H0z"/><path d="M20.013 22H18.7l-2.2-3.08L14.3 22h-1.313l2.856-4-2.856-4H14.3l2.2 3.08L18.7 14h1.313l-2.856 4 2.856 4zm3.937-4c0-1.85-.45-4.569-1.303-6h-1.191C22.42 13.371 23 16.109 23 18s-.58 4.629-1.544 6h1.191c.854-1.431 1.303-4.15 1.303-6zM10 18c0-1.891.58-4.629 1.544-6h-1.191C9.499 13.431 9 16.15 9 18s.5 4.569 1.353 6h1.191C10.58 22.629 10 19.891 10 18zm10-7.32L18.686 12h-1.41c.909-.911 1.816-1.823 2.724-2.738V6.67c-1.764 1.78-3.535 3.56-5.304 5.33h-1.412l.308-.308C15.73 9.554 17.87 7.402 20 5.25V3c0-.105-.03-.2-.06-.295-2.537 2.569-5.087 5.14-7.641 7.694l-.62.62c-.045-.007-.089-.019-.135-.019h-1.191c-.027 0-.053.008-.08.01l1.319-1.318c2.54-2.54 5.076-5.098 7.6-7.653C19.129 2.026 19.069 2 19 2h-2.336a1753.244 1753.244 0 0 1-6.365 6.4l-5.327 5.327c-.996.995-1.98 1.997-2.972 2.994V19c0 .093.03.177.053.263 1.404-1.414 2.801-2.833 4.212-4.243l2.909-2.91c-.281.618-.51 1.347-.692 2.106l-1.51 1.51c-1.406 1.406-2.797 2.82-4.197 4.229.075.017.145.045.225.045h2.306c.908-.912 1.808-1.827 2.717-2.737A14.83 14.83 0 0 0 8 18c0 .215.009.447.022.684-.437.438-.87.878-1.307 1.316H8.15c.045.33.099.664.163 1H3a2 2 0 0 1-2-2V3a2 2 0 0 1 2-2h16a2 2 0 0 1 2 2v8.017l-1 .961V10.68zM2 3.284L3.284 2H3a1 1 0 0 0-1 1v.284zm0 4l3.592-3.592C6.153 3.131 6.714 2.563 7.276 2h-2.58l-.397.4L2 4.697v2.586zm0 4.002l.265-.266 5.327-5.328c1.225-1.225 2.45-2.46 3.674-3.692h-2.58c-.796.8-1.59 1.603-2.387 2.4L2 8.697v2.588zM15.256 2h-2.58A1514.87 1514.87 0 0 1 8.3 6.4l-5.327 5.327c-.326.325-.647.653-.972.979V15.3c.757-.76 1.506-1.523 2.265-2.281l5.327-5.328c1.889-1.888 3.78-3.79 5.664-5.692z"/></svg>