<svg xmlns="http://www.w3.org/2000/svg" width="400" height="400" viewBox="0 0 400 400"><g fill="#323232"><path d="M130.257 323.937c-1.008-1.564-3.228-2.724-5.498-2.724-4.944 0-7.819 4.035-7.819 8.626 0 4.54 2.875 8.626 7.869 8.626a7.176 7.176 0 0 0 5.75-2.624l3.178 2.876c-2.018 2.321-5.095 3.732-8.929 3.732-7.365 0-12.864-4.993-12.864-12.61 0-7.517 5.448-12.611 12.763-12.611 3.38 0 7.012 1.362 8.979 3.936l-3.429 2.773zM158.356 326.308c0-3.531-2.371-5.247-5.903-5.247a9.857 9.857 0 0 0-6.81 2.776l-2.522-3.028c2.32-2.219 5.902-3.581 9.786-3.581 6.861 0 9.989 4.086 9.989 9.383v10.442a26.435 26.435 0 0 0 .353 4.742h-4.288a15.542 15.542 0 0 1-.403-3.431h-.151c-1.715 2.572-4.439 4.035-8.021 4.035-3.783 0-8.677-1.866-8.677-7.364 0-7.213 8.576-8.073 16.647-8.073v-.654zm-1.16 4.086c-4.691 0-10.645.505-10.645 4.54 0 2.826 2.522 3.733 4.894 3.733 4.439 0 6.911-2.977 6.911-7.013v-1.261h-1.16zM180.705 341.795h-4.742v-34.136h4.742v34.136zM210.77 323.937c-1.008-1.564-3.229-2.724-5.498-2.724-4.944 0-7.819 4.035-7.819 8.626 0 4.54 2.875 8.626 7.87 8.626a7.177 7.177 0 0 0 5.75-2.624l3.18 2.876c-2.02 2.321-5.096 3.732-8.93 3.732-7.366 0-12.864-4.993-12.864-12.61 0-7.517 5.448-12.611 12.762-12.611 3.381 0 7.012 1.362 8.98 3.936l-3.431 2.773zM225.047 317.884h4.742v23.911h-4.742v-23.911zM255.818 321.768h-6.355v12.461c0 2.874 1.008 4.034 3.379 4.034.959 0 1.904-.207 2.775-.605l.15 3.884a12.248 12.248 0 0 1-4.035.656c-4.49 0-6.961-2.521-6.961-7.465v-12.965h-4.59v-3.884h4.59v-10.225h4.691v10.225h6.355v3.884zM288.004 331.251h-18.969a7.646 7.646 0 0 0 7.77 7.264 8.208 8.208 0 0 0 6.961-3.632l3.33 2.674c-2.572 3.33-6.055 4.893-10.291 4.893-7.266 0-12.611-5.044-12.611-12.561 0-7.466 5.346-12.661 12.359-12.661 7.062 0 11.502 4.792 11.502 12.408 0 .506 0 1.061-.051 1.615zm-4.742-3.531c-.1-3.783-2.32-6.759-6.709-6.759a7.415 7.415 0 0 0-7.518 6.759h14.227zM225.072 307.659h4.691v4.865h-4.691v-4.865z"/></g><g fill="#0079C1"><path opacity=".45" d="M154.235 137.406l64.601 7.073 16.328 40.203v50.08l-12.434 5.916-45.484-15.155-23.011-88.117z"/><path opacity=".2" d="M238.83 87.408l-7.137-8.148-25.537-19.41a11.31 11.31 0 0 0-10.674-1.629l-37.563 13.428-3.684 65.789 64.601 7.073 18.105-19.556 1.889-37.547z"/><path opacity=".55" d="M150.748 82.079l-24.037 35.135 27.524 20.191 3.684-65.789-7.171 10.463z"/><path opacity=".5" d="M238.83 87.408l-1.889 37.481 29.334 10.675v-3.781c0-2.257-.67-4.463-1.926-6.339L238.83 87.408z"/><path opacity=".29" d="M236.941 124.875l14.697 44.505 14.506.946.146-34.761-29.349-10.69z"/><path opacity=".01" d="M236.941 124.875l-18.105 19.604 16.328 40.203 16.475-15.303-14.698-44.504z"/><path opacity=".2" d="M251.639 169.379l-16.475 15.303v50.08l6.535-3.113 24.33-11.587-14.39-50.683z"/><path opacity=".6" d="M126.711 117.214l-3.699 5.41 32.397 51.986 9.11 2.151-10.284-39.356-27.524-20.191z"/><path opacity=".9" d="M123.012 122.625l-4.385 79.935 32.121-23.777 4.661-4.172-32.397-51.986z"/><path opacity=".97" d="M164.519 176.762l-9.11-2.151-36.782 27.949 35.201 34.076 23.417-11.113-12.726-48.761z"/><path opacity=".6" d="M177.23 225.537l-23.418 11.099 6.014 4.024 28.079 12.271a11.41 11.41 0 0 0 9.387-.146l25.421-12.108-45.483-15.14z"/><path opacity=".5" d="M251.639 169.379l14.506.946-.115 49.736-14.391-50.682z"/></g></svg>