<svg xmlns="http://www.w3.org/2000/svg" id="icons" viewBox="0 0 32 32"><path d="M12 6v1h2V6h-2ZM9 6v1h2V6H9ZM6 6v1h2V6H6Zm6 12v1h2v-1h-2Zm-3 0v1h2v-1H9Zm-3 0v1h2v-1H6Zm6-12v1h2V6h-2ZM9 7h2V6H9v1ZM6 7h2V6H6v1Zm6 5v1h2v-1h-2Zm-3 1h2v-1H9v1Zm-3 0h2v-1H6v1Zm6 5v1h2v-1h-2Zm-3 1h2v-1H9v1Zm-3 0h2v-1H6v1Zm23 3V3H3v19h17v4h-2v1H6v1h12v1h5v-1h3v-1h-3v-1h-2v-4h8ZM4 4h24v5H4V4Zm0 6h24v5H4v-5Zm18 17v1h-3v-1h3ZM4 21v-5h24v5H4Zm8-2h2v-1h-2v1Zm0-6h2v-1h-2v1Zm0-6h2V6h-2v1ZM9 19h2v-1H9v1Zm0-6h2v-1H9v1Zm0-6h2V6H9v1ZM6 19h2v-1H6v1Zm0-6h2v-1H6v1Zm0-6h2V6H6v1Zm6 5v1h2v-1h-2Zm-3 0v1h2v-1H9Zm-3 0v1h2v-1H6Z"/></svg>