<svg xmlns="http://www.w3.org/2000/svg" id="icons" viewBox="0 0 32 32"><path d="M14.162 3H3.838A.838.838 0 0 0 3 3.838v10.325a.838.838 0 0 0 .838.837h10.325a.838.838 0 0 0 .837-.838V3.838A.838.838 0 0 0 14.162 3ZM14 14H4V4h10Zm15.562 9.045-5.607-5.607a.643.643 0 0 0-.91 0l-5.607 5.607a.643.643 0 0 0 0 .91l5.607 5.607a.643.643 0 0 0 .91 0l5.607-5.607a.643.643 0 0 0 0-.91ZM23.5 28.602 18.398 23.5l5.102-5.102 5.102 5.102ZM9.5 17.2a6.3 6.3 0 1 0 6.3 6.3 6.3 6.3 0 0 0-6.3-6.3Zm0 11.6a5.3 5.3 0 1 1 5.3-5.3 5.306 5.306 0 0 1-5.3 5.3Zm14-25.6a6.3 6.3 0 1 0 6.3 6.3 6.3 6.3 0 0 0-6.3-6.3Zm0 11.6a5.3 5.3 0 1 1 5.3-5.3 5.306 5.306 0 0 1-5.3 5.3Z"/><path d="M0 0h32v32H0z" fill="none"/></svg>