<svg xmlns="http://www.w3.org/2000/svg" id="icons" viewBox="0 0 32 32"><path d="M2 30h13V17H2v13Zm1-12h11v4.684l-1.33.112s-.964.19-1.316.302c-.501.159-.765-.247-1.528-.99-.955-.93-1.407-1.05-2.224-1.066-.55-.01-1.649-.047-2.39 1.045-.306.453.01 1.249-.5 2.038-.116.18-1.007.26-1.529.161L3 24.251V18Zm0 7.374.31.047c.457.07 1.676-.196 2.002-.421.282-.194.55-.925.6-1.413.126-1.22.361-1.595 1.65-1.586 1.334.009 1.663.884 1.8 1.003 1.01.879 1.553 1.282 2.293 1.048.09-.028.21-.055.34-.08l2.005-.2V29H3v-3.626ZM2 15h13V2H2v13Zm1-1v-3.568c.84.392 2.933 1.541 3.879 3.568H3ZM14 3v6.704C9.904 8.754 8.218 4.912 7.629 3H14ZM3 3h3.585c.567 1.993 2.43 6.71 7.415 7.728V14H7.962C6.754 10.804 3.2 9.418 3 9.343V3Zm14-1v13h13V2H17Zm6 3V3h3v3h-3V5Zm1 2v2h-4V6h2v1h2Zm5 7H18V3h4v2h-3v5h3v3h7v1Zm0-2h-6v-2h2V9h4v3Zm0-4h-4V7h2V3h2v5ZM17 30h13V17H17v13Zm12.01-1H26v-7h3.01v7ZM17.99 18h11.02v3H17.99v-3Zm0 4H25v3h-3v1h3v3h-7.01v-7Z" stroke-width="0"/><path d="M0 0h32v32H0z" stroke-width="0" fill="none"/></svg>