<svg xmlns="http://www.w3.org/2000/svg" id="icons" viewBox="0 0 32 32"><path d="M19 14h-5v-1h2V4h-2V3h3v10h2v1Zm1 5.5v8c0 .827-.673 1.5-1.5 1.5h-3c-.827 0-1.5-.673-1.5-1.5v-8c0-.827.673-1.5 1.5-1.5h3c.827 0 1.5.673 1.5 1.5Zm-1 0a.5.5 0 0 0-.5-.5h-3a.5.5 0 0 0-.5.5v8a.5.5 0 0 0 .5.5h3a.5.5 0 0 0 .5-.5v-8ZM9 4.5v8c0 .827-.673 1.5-1.5 1.5h-3c-.827 0-1.5-.673-1.5-1.5v-8C3 3.673 3.673 3 4.5 3h3C8.327 3 9 3.673 9 4.5Zm-1 0a.5.5 0 0 0-.5-.5h-3a.5.5 0 0 0-.5.5v8a.5.5 0 0 0 .5.5h3a.5.5 0 0 0 .5-.5v-8Zm22 0v8c0 .827-.673 1.5-1.5 1.5h-3c-.827 0-1.5-.673-1.5-1.5v-8c0-.827.673-1.5 1.5-1.5h3c.827 0 1.5.673 1.5 1.5Zm-1 0a.5.5 0 0 0-.5-.5h-3a.5.5 0 0 0-.5.5v8a.5.5 0 0 0 .5.5h3a.5.5 0 0 0 .5-.5v-8ZM7 18H4v1h2v9H4v1h5v-1H7V18Zm21 0h-3v1h2v9h-2v1h5v-1h-2V18Z" stroke-width="0"/><path d="M0 0h32v32H0z" stroke-width="0" fill="none"/></svg>