<svg xmlns="http://www.w3.org/2000/svg" id="icons" viewBox="0 0 32 32"><path d="M28.8 16.123A7.876 7.876 0 0 1 20.942 24h-5.985l2.646 2.646-.707.707-3.853-3.853 3.854-3.854.707.707L14.957 23h5.985a6.875 6.875 0 0 0 6.858-6.877 7.192 7.192 0 0 0-2.715-5.677l.71-.71a8.188 8.188 0 0 1 3.005 6.387ZM27.27 4.018 4.01 27.28l.707.707L27.979 4.725ZM6.2 22.262l.71-.71A7.192 7.192 0 0 1 4.2 15.877 6.873 6.873 0 0 1 11.054 9h5.989l-2.646 2.646.707.707L18.957 8.5l-3.853-3.854-.707.707L17.043 8h-5.989A7.875 7.875 0 0 0 3.2 15.877 8.188 8.188 0 0 0 6.2 22.262Z"/><path d="M0 0h32v32H0z" fill="none"/></svg>