<svg xmlns="http://www.w3.org/2000/svg" id="icons" viewBox="0 0 32 32"><path d="M29.429 20H2.57a.571.571 0 0 0-.571.571v7.858a.571.571 0 0 0 .571.571H29.43a.571.571 0 0 0 .571-.571V20.57a.571.571 0 0 0-.571-.571ZM29 28H3v-7h26Zm1-20.429v7.858a.571.571 0 0 1-.571.571H2.57A.571.571 0 0 1 2 15.429V7.57A.571.571 0 0 1 2.571 7H8.88l1 1H3v7h26V8H17V7h12.429a.571.571 0 0 1 .571.571ZM16 5v7H9v-1h5.293L9.197 5.904A6.458 6.458 0 0 0 4.6 4H0V3h4.6a7.45 7.45 0 0 1 5.304 2.197L15 10.293V5Z"/><path d="M0 0h32v32H0z" fill="none"/></svg>