<svg xmlns="http://www.w3.org/2000/svg" id="icons" viewBox="0 0 32 32"><path d="M0 0h32v32H0z" stroke-width="0" fill="none"/><path d="m16.5 25.535 9.509-9.542L16.5 6.45l-9.508 9.542 9.508 9.542Zm0 4.465c-.403 0-.782-.163-1.068-.459l-11.99-12.44C3.157 16.805 3 16.41 3 15.993s.157-.812.442-1.108L15.433 2.444a1.504 1.504 0 0 1 2.134 0l11.99 12.44c.589.612.59 1.606.003 2.217L17.568 29.54A1.473 1.473 0 0 1 16.5 30Zm0-27.018a.535.535 0 0 0-.387.167L4.12 15.589a.577.577 0 0 0-.16.404c0 .154.055.294.16.403l11.99 12.44a.547.547 0 0 0 .778 0l11.992-12.44a.588.588 0 0 0-.003-.807l-11.99-12.44a.528.528 0 0 0-.388-.167Z" stroke-width="0"/></svg>