<svg xmlns="http://www.w3.org/2000/svg" id="icons" viewBox="0 0 32 32"><path d="m4.733 12.612-.869-.869L5 4.9a15.376 15.376 0 0 0 4 .905v1.007a15.308 15.308 0 0 1-3.205-.595ZM27 4.9a25.797 25.797 0 0 0-4.22-.628 4.486 4.486 0 0 1 .2 1.02 26.951 26.951 0 0 1 3.144.438l3.651 21.999a37.224 37.224 0 0 0-6.313-.529 22.212 22.212 0 0 0-3.83.312l.88.878a22.002 22.002 0 0 1 2.95-.19A33.153 33.153 0 0 1 31 29ZM16 22.269l-6-5.996V5.608C10 3.455 12.258 1 16 1s6 2.455 6 4.608v10.665Zm-5-6.41 5 4.997 5-4.997V5.607C21 4.095 19.262 2 16 2s-5 2.095-5 3.607v10.252Zm5-4.96a2.9 2.9 0 1 1 2.9-2.9 2.9 2.9 0 0 1-2.9 2.9Zm0-1a1.9 1.9 0 1 0-1.9-1.9 1.9 1.9 0 0 0 1.9 1.9ZM1.146 11.854l19 19 .707-.707-19-19ZM1.996 23h1.013l.166-1H2.162Zm-.664 4h1.014l.166-1H1.498Zm.332-2h1.013l.166-1H1.83Zm14.029 3.549L15 28.77v1.046c.69-.212 1.357-.436 2.048-.648l-.799-.798c-.186.059-.372.118-.556.178ZM3 29.864c.303.105.638.21 1 .31v-1.045c-.37-.11-.704-.222-1-.331ZM2.328 21H3.34l.166-1H2.494Zm1.511-3H2.826l-.166 1h1.013ZM11 30.67c.35-.038.68-.085 1-.136v-1.011c-.318.054-.65.102-1 .141ZM2.992 17h1.013l.125-.75-.87-.869ZM13 30.346q.518-.112 1-.241v-1.036q-.484.137-1 .254ZM1 29a10.32 10.32 0 0 0 1 .48V28h-.834Zm6 1.727c.323.03.658.049 1 .06V29.78a15.648 15.648 0 0 1-1-.066Zm-2-.308q.478.103 1 .184v-1.019q-.525-.086-1-.195Zm4 .368c.342-.006.686-.011 1-.03V29.75c-.317.02-.653.032-1 .038Z"/><path d="M0 0h32v32H0z" fill="none"/></svg>