<svg xmlns="http://www.w3.org/2000/svg" id="icons" viewBox="0 0 32 32"><path d="M0 0h32v32H0z" stroke-width="0" fill="none"/><path d="m16 7-1-2H5L4 7H2v20h7.517a7.753 7.753 0 0 1-.515-1H3V12h26v14h-5.602c-.145.348-.322.68-.514 1H30V7H16Zm13 4H3V8h1.618l1-2h8.764l1 2H29v3Zm-6.2 12c0 3.76-3.04 6.8-6.8 6.8S9.2 26.76 9.2 23s3.04-6.8 6.8-6.8 6.8 3.04 6.8 6.8Zm-1 0c0-3.2-2.6-5.8-5.8-5.8s-5.8 2.6-5.8 5.8 2.6 5.8 5.8 5.8 5.8-2.6 5.8-5.8ZM14 19v8l6-4-6-4Zm1.2 1.868L18.397 23 15.2 25.132v-4.264Z" stroke-width="0"/></svg>