<svg xmlns="http://www.w3.org/2000/svg" id="icons" viewBox="0 0 32 32"><path d="M8 13H6v-1h2v1Zm3-1H9v1h2v-1Zm3 0h-2v1h2v-1Zm15-9v16.03c-.3-.37-.63-.71-1-1.01V16H4v5h11.81c-.14.32-.26.66-.35 1H3V3h26Zm-1 7H4v5h24v-5Zm0-6H4v5h24V4ZM6 18v1h2v-1H6Zm3 0v1h2v-1H9Zm3 0v1h2v-1h-2ZM6 7h2V6H6v1Zm3 0h2V6H9v1Zm3 0h2V6h-2v1Zm17.8 17c0 3.76-3.04 6.8-6.8 6.8s-6.8-3.04-6.8-6.8 3.04-6.8 6.8-6.8 6.8 3.04 6.8 6.8Zm-1 0c0-3.2-2.6-5.8-5.8-5.8s-5.8 2.6-5.8 5.8 2.6 5.8 5.8 5.8 5.8-2.6 5.8-5.8ZM26 24h-3v-4h-1v5h4v-1Z"/></svg>