<svg xmlns="http://www.w3.org/2000/svg" id="icons" viewBox="0 0 32 32"><path d="M0 0h32v32H0z" stroke-width="0" fill="none"/><path d="M3 29h27v1H2V2h1v27Zm27-19v6h-3v8h1v1h-3v-1h1v-8h-1.846L21 18.453V23h-3v3h1v1h-3v-1h1v-3h-3v-5.061l-3.306-2.94H9V21h1v1H7v-1h1v-6H5V8h3V5H7V4h3v1H9v3h3v2h5V6h-1V5h3v1h-1v3.73l8-3.555V4h-1V3h3v1h-1v6h3ZM11 9H6v5h3.569l-1.401-1.245.67-.755L11 13.92V11H8v-1h3V9Zm3 5h3v-3h-5v3.81l2 1.777V14Zm6 5.23-2.425 1.887L15 18.828V22h5v-2.77ZM20 15h-5v2.476l2.618 2.328L20 17.95V15Zm3-5h3V7.27l-8 3.555V14h3v3.173l2-1.555V10Zm6 1h-5v3.84l2.38-1.85.62.796L25.44 15H29v-4Z" stroke-width="0"/></svg>