<svg xmlns="http://www.w3.org/2000/svg" id="icons" viewBox="0 0 32 32"><path d="M0 0h32v32H0z" fill="none" stroke-width="0"/><path d="M4 11H3V9h1v2Zm0 1H3v2h1v-2Zm0-6H3v2h1V6Zm0-2h1V3H3v2h1V4Zm2.91 11.365L5 16.493l11.001 5.67L27 16.494l-1.91-1.128-.983.582.826.446L16.001 21l-8.934-4.607.826-.446-.983-.582ZM4 21H3v2h1v-2ZM8 3H6v1h2V3ZM4 15H3v2h1v-2Zm0 3H3v2h1v-2ZM26 3h-2v1h2V3Zm1 9.495-10.999 5.667L5 12.492 16.001 7 27 12.495ZM16.001 17l8.832-4.504L16 8.161l-8.834 4.333L16.001 17ZM23 3h-2v1h2V3ZM4 24H3v2h1v-2Zm7-21H9v1h2V3Zm9 0h-2v1h2V3Zm-6 0h-2v1h2V3Zm3 0h-2v1h2V3Zm11 5h1V6h-1v2Zm0 15h1v-2h-1v2Zm0-3h1v-2h-1v2Zm0 6h1v-2h-1v2Zm0-9h1v-2h-1v2ZM27 3v1h1v1h1V3h-2Zm1 25h-1v1h2v-2h-1v1Zm0-17h1V9h-1v2Zm0 3h1v-2h-1v2ZM4 27H3v2h2v-1H4v-1Zm20 2h2v-1h-2v1ZM9 29h2v-1H9v1Zm18-8.505-1.91-1.128-.983.582.826.446-8.932 4.443-8.934-4.445.826-.446-.983-.582L5 20.493 16.001 26 27 20.495ZM12 29h2v-1h-2v1Zm-6 0h2v-1H6v1Zm9 0h2v-1h-2v1Zm3 0h2v-1h-2v1Zm3 0h2v-1h-2v1Z" stroke-width="0"/></svg>