<svg xmlns="http://www.w3.org/2000/svg" id="icons" viewBox="0 0 32 32"><path d="M5 15c.078 0 .152-.017.23-.023l1.569 6.278A2.993 2.993 0 0 0 5.01 24c0 1.654 1.336 3 2.99 3a2.998 2.998 0 0 0 2.794-1.931l9.215 1.843c-.001.03-.009.058-.009.088 0 1.654 1.346 3 3 3s2.99-1.346 2.99-3c0-1.226-.732-2.28-1.788-2.745l2.569-10.278c.077.006.15.023.229.023 1.654 0 2.99-1.346 2.99-3S28.654 8 27 8c-.954 0-1.795.456-2.345 1.152l-5.83-3.18C18.93 5.664 19 5.341 19 5c0-1.654-1.346-3-3-3a3.003 3.003 0 0 0-2.764 4.166l-6.02 3.83A2.982 2.982 0 0 0 5 9c-1.654 0-3 1.346-3 3s1.346 3 3 3Zm0-5c1.103 0 2 .897 2 2s-.897 2-2 2-2-.897-2-2 .897-2 2-2Zm1.201 4.745A3.005 3.005 0 0 0 7.61 13.45l6.435 2.108c-.022.145-.045.29-.045.442 0 .586.175 1.13.467 1.592l-4.61 4.07A2.97 2.97 0 0 0 8 21c-.078 0-.152.017-.229.023l-1.57-6.278ZM15 16c0-1.103.897-2 2-2s2 .897 2 2-.897 2-2 2-2-.897-2-2Zm-5 8c0 1.103-.897 2-2 2s-2-.897-2-2 .897-2 2-2 2 .897 2 2Zm.991.088c.001-.03.009-.058.009-.088 0-.59-.177-1.137-.472-1.602l4.6-4.073A2.97 2.97 0 0 0 17 19c.342 0 .666-.07.972-.176l3.182 5.829a2.996 2.996 0 0 0-.948 1.278l-9.215-1.843ZM23 25c1.103 0 2 .897 2 2s-.897 2-2 2-2-.897-2-2 .897-2 2-2Zm.229-.977c-.077-.006-.15-.023-.229-.023-.34 0-.662.07-.967.174l-3.183-5.83A2.984 2.984 0 0 0 20 16c0-.303-.059-.59-.143-.866l4.736-2.36c.31.42.722.758 1.206.97l-2.57 10.28ZM27 9c1.103 0 2 .897 2 2s-.897 2-2 2-2-.897-2-2 .897-2 2-2Zm-2.825 1.029c-.105.306-.175.63-.175.971 0 .308.06.6.147.88l-4.731 2.357a2.985 2.985 0 0 0-2.184-1.214l-.466-5.135a2.99 2.99 0 0 0 1.579-1.04l5.83 3.18ZM14 5c0-1.103.897-2 2-2s2 .897 2 2-.897 2-2 2-2-.897-2-2Zm-.217 2.003c.5.554 1.2.913 1.987.974l.466 5.134a2.994 2.994 0 0 0-1.878 1.497l-6.41-2.1c.03-.166.052-.334.052-.508 0-.413-.084-.808-.236-1.166l6.019-3.83Z"/></svg>