<svg xmlns="http://www.w3.org/2000/svg" id="icons" viewBox="0 0 32 32"><path d="M0 0h32v32H0z" fill="none" stroke-width="0"/><path d="M24 10H8V9h16v1Zm0 3H8v1h16v-1Zm0 4H8v1h16v-1Zm0 4H8v1h16v-1Zm-8 4H8v1h8v-1ZM27 3v27H5V3h2v1H6v25h20V4h-1V3h2ZM11 6V2c0-.55-.45-1-1-1s-1 .45-1 1v4c0 .55.45 1 1 1s1-.45 1-1Zm4 0V2c0-.55-.45-1-1-1s-1 .45-1 1v4c0 .55.45 1 1 1s1-.45 1-1Zm4 0V2c0-.55-.45-1-1-1s-1 .45-1 1v4c0 .55.45 1 1 1s1-.45 1-1Zm4 0V2c0-.55-.45-1-1-1s-1 .45-1 1v4c0 .55.45 1 1 1s1-.45 1-1Z" stroke-width="0"/></svg>