<svg xmlns="http://www.w3.org/2000/svg" id="icons" viewBox="0 0 32 32"><path d="M31.358 25 19 16v15l3.456-4.522 2.649 5.51 3.232-1.625L25.797 25Zm-4.363 4.919-1.448.728-2.936-6.08L20 28.147V17.951L28.291 24h-4.113ZM6 9.182l2 1.454v1.237l-2-1.455ZM4 12H3v-2h1Zm5-.636 2 1.454v1.237L9 12.6ZM3 7l2 1.455V9.69l-1-.727v.027H3Zm1 8H3v-2h1Zm0 6H3v-2h1Zm0-3H3v-2h1Zm8-4.455L14 15v1.237l-2-1.455Zm3 .655 2-1.6v1.28l-2 1.6Zm11-7.519-2 1.6V7l2-1.6Zm-3 2.4-2 1.6V9.4l2-1.6Zm-3 2.4-2 1.6V11.8l2-1.6ZM29 12h-1v-2h1Zm0 6h-1v-2h1ZM4 24H3v-2h1Zm24-5h1v1.804l-1-.73Zm0-13.919-1 .8V4.6L29 3v3h-1ZM29 9h-1V7h1ZM15 28h2v1h-2Zm14-13h-1v-2h1ZM4 28h1v1H3v-1Zm0-1H3v-2h1Zm2 1h2v1H6Zm6 0h2v1h-2Zm-3 0h2v1H9Z"/><path d="M0 0h32v32H0z" fill="none"/></svg>