<svg xmlns="http://www.w3.org/2000/svg" id="icons" viewBox="0 0 32 32"><path d="M3 10h25v4h.5a2.5 2.5 0 0 1 .5.05V9.49L24.232 3H6.768L2 9.49V28h15v-1H3V10Zm13-6h7.727l3.672 5H16V4ZM7.273 4H15v5H3.6l3.673-5ZM28.5 15h-9c-.827 0-1.5.673-1.5 1.5v12c0 .827.673 1.5 1.5 1.5h9c.827 0 1.5-.673 1.5-1.5v-12c0-.827-.673-1.5-1.5-1.5Zm.5 13.5a.5.5 0 0 1-.5.5h-9a.5.5 0 0 1-.5-.5v-12a.5.5 0 0 1 .5-.5h9a.5.5 0 0 1 .5.5v12ZM23 18h4v1h-4v-1Zm0 8h4v1h-4v-1Zm0-4h4v1h-4v-1Zm-2-4h1v1h-1v-1Zm0 8h1v1h-1v-1Zm0-4h1v1h-1v-1Z" stroke-width="0"/><path d="M0 0h32v32H0z" stroke-width="0" fill="none"/></svg>