<svg xmlns="http://www.w3.org/2000/svg" id="icons" viewBox="0 0 32 32"><path d="M17 15h-5v-1h5v1Zm-6-4H6V6h5v5Zm-1-4H7v3h3V7Zm1 10H6v-5h5v5Zm-1-4H7v3h3v-3Zm-4 5h5v5H6v-5Zm1 4h3v-3H7v3ZM17.2 7.998a6.8 6.8 0 0 1 6.8-6.8c3.756 0 6.8 3.044 6.8 6.8a6.8 6.8 0 0 1-13.6 0Zm1 0c0 3.199 2.601 5.8 5.8 5.8s5.8-2.601 5.8-5.8-2.601-5.8-5.8-5.8-5.8 2.602-5.8 5.8ZM27 8h-3V4h-1v5h4V8ZM12 8v1h3.817a8.257 8.257 0 0 1-.067-1H12Zm0 13h4.673l.126-.847c.008-.055.022-.099.03-.153H12v1Zm6.856 1 .2-1.411c.203-1.372.353-2.37 1.725-2.37.306 0 .593.067.865.17L22 17.203c-.234-.135-.643-.203-.982-.203-2.131 0-2.961 1.371-3.23 3.3l-.254 1.7h-1.726l-.154 1h1.726l-.964 7h1.321l.964-7h1.93l.153-1h-1.928Zm9.322 0-2.41 2.873L24.059 22h-1.744l2.343 3.693L20.777 30h1.657l2.974-3.453L27.46 30h1.76l-2.701-4.307L29.8 22h-1.623ZM3 25.002V4a1 1 0 0 1 .999-1h13.453a8.31 8.31 0 0 1 .901-1H3.998a2.001 2.001 0 0 0-1.989 2.008L2 24.998C2 26.102 2.896 27 3.998 27h11.821l.138-1H3.999A.999.999 0 0 1 3 25.002Zm16-8.539v-1.918a8.305 8.305 0 0 1-1-.902v3.592a3.503 3.503 0 0 1 1-.772ZM5 24V5h11.322c.135-.345.289-.68.467-1H4v21h12.095l.137-1H5Z" stroke-width="0"/><path d="M0 0h32v32H0z" stroke-width="0" fill="none"/></svg>