<svg xmlns="http://www.w3.org/2000/svg" id="icons" viewBox="0 0 32 32"><path d="M0 0h32v32H0z" stroke-width="0" fill="none"/><path d="M27.999 3H3.998a1.998 1.998 0 0 0-1.993 2L2 27.998C2 29.102 2.896 30 3.998 30h24.001A2.004 2.004 0 0 0 30 27.998V5.008A2.01 2.01 0 0 0 27.999 3ZM29 28.002c0 .55-.447.998-.999.998H3.999A.999.999 0 0 1 3 28.002V5a1 1 0 0 1 .999-1h24.002A1 1 0 0 1 29 5v23.002ZM4 5v23h24V5H4Zm23 22H5V6h22v21Zm-1-17H12V9h14v1Zm0 7H12v-1h14v1Zm0 7H12v-1h14v1ZM6 7v5h5V7H6Zm4 4H7V8h3v3Zm-4 3v5h5v-5H6Zm4 4H7v-3h3v3Zm-4 3v5h5v-5H6Zm4 4H7v-3h3v3Z" stroke-width="0"/></svg>