<svg xmlns="http://www.w3.org/2000/svg" id="icons" viewBox="0 0 32 32"><path d="M29 6V3h-3v1h-8V3h-3v3h.03l-1.265 2h1.183l1.265-2H18V5h8v1h1v20h-1v1h-3v1h3v1h3v-3h-1V6ZM17 5h-1V4h1Zm11 23h-1v-1h1ZM27 4h1v1h-1ZM15 27v1h-2v-1Zm0 1h1v2h-1Zm1-1h2v1h-2Zm0 0h-1v-2h1ZM9.257 17H8.074l1.265-2h1.183Zm-1.815 1h1.182L7.36 20H6.177Zm-.715 3-1.264 2H4.28l1.265-2Zm-3.794 6H5v1H2v-1.395L3.648 24H4.83Zm10.118-16h-1.183l1.265-2h1.183Zm-1.815 1h1.183l-1.265 2H9.97ZM6 27h2v1H6Zm14 0h2v1h-2ZM9 27h2v1H9Z"/><path d="M0 0h32v32H0z" fill="none"/></svg>