<svg xmlns="http://www.w3.org/2000/svg" id="icons" viewBox="0 0 32 32"><path d="M0 0h32v32H0z" fill="none"/><path d="M29.2 25H29v-2h-1v2h-.2a1.8 1.8 0 0 0-1.8 1.8v1.4a1.8 1.8 0 0 0 1.8 1.8h1.4a1.8 1.8 0 0 0 1.8-1.8v-1.4a1.8 1.8 0 0 0-1.8-1.8Zm.8 3.2a.8.8 0 0 1-.8.8h-1.4a.8.8 0 0 1-.8-.8v-1.4a.8.8 0 0 1 .8-.8h1.4a.8.8 0 0 1 .8.8v1.4ZM29 17h-1v-2h1v2Zm-1 2h1v2h-1v-2Zm1-6h-1v-2h1v2ZM23 3h2v1h-2V3Zm5 1h-1V3h2v2h-1V4Zm1 5h-1V7h1v2ZM19 3h2v1h-2V3Zm-4 4h1v2h-1V7Zm0 21H4V7h.2A1.8 1.8 0 0 0 6 5.2V3.8A1.8 1.8 0 0 0 4.2 2H2.8A1.8 1.8 0 0 0 1 3.8v1.4A1.8 1.8 0 0 0 2.8 7H3v22h13v-6h-1v5ZM3 6h-.2a.8.8 0 0 1-.8-.8V3.8a.8.8 0 0 1 .8-.8h1.4a.8.8 0 0 1 .8.8v1.4a.8.8 0 0 1-.8.8H3Zm12 5h1v2h-1v-2Zm0 8h1v2h-1v-2Zm2-16v1h-1v1h-1V3h2Zm-2 12h1v2h-1v-2Z"/></svg>