<svg xmlns="http://www.w3.org/2000/svg" id="icons" viewBox="0 0 32 32"><path d="M3 3v26h26V3H3Zm25 19.217-4.5 2.7-4.5-2.7v-4.434l4.5-2.7 4.5 2.7v4.434Zm-21.75-6.65L4 14.217V9.783l4.5-2.7 4.5 2.7v4.434l-4.5 2.7-2.25-1.35ZM8 17.783v4.434l-4 2.4v-9.234l4 2.4ZM18 6.217l-4.5 2.7-4.5-2.7V4h9v2.217Zm.5.866 4.5 2.7v4.434l-4.5 2.7-4.5-2.7V9.783l4.5-2.7ZM9 17.783l4.5-2.7 4.5 2.7v4.434l-4.5 2.7-4.5-2.7v-4.434Zm5 8 4.5-2.7 4.5 2.7V28h-9v-2.217Zm10-11.566V9.783l4-2.4v9.234l-4-2.4Zm4-8-4.5 2.7-4.5-2.7V4h9v2.217ZM8 4v2.217l-4 2.4V4h4ZM4 25.783l4.5-2.7 4.5 2.7V28H4v-2.217ZM24 28v-2.217l4-2.4V28h-4Z"/><path d="M0 0h32v32H0z" fill="none" opacity=".5"/></svg>