<svg xmlns="http://www.w3.org/2000/svg" id="icons" viewBox="0 0 32 32"><path d="M9 4H7V3h2Zm2.744 5.325.961-.275a15.776 15.776 0 0 1-.429-2.058l-.99.145a16.771 16.771 0 0 0 .458 2.188Zm-.687-4.391.998-.067c-.021-.31-.045-.622-.055-.972S12 3 12 3h-1s-.011.635 0 1 .037.636.057.934ZM9 28H7v1h2Zm4 0h-2v1h2Zm4.132-9.438a12.05 12.05 0 0 1 .367 2.054l.996-.097a12.988 12.988 0 0 0-.398-2.218Zm2.532 8.253-.94.344c.108.293.23.609.37.95.126.31.286.594.43.891h1.06l.008-.012q-.31-.61-.572-1.256c-.134-.33-.252-.633-.356-.917ZM4 7H3v2h1Zm13.74 15.788c.109.853.197 1.508.34 2.186l.979-.207c-.136-.641-.222-1.278-.328-2.106ZM15 29h2v-1h-2Zm.445-14.204a7.908 7.908 0 0 1 1.001 1.77l.924-.38a8.835 8.835 0 0 0-1.128-1.994Zm-2.826-3.358a9.102 9.102 0 0 0 1.406 1.8l.72-.696a8.005 8.005 0 0 1-1.26-1.606ZM4 19H3v2h1ZM3 3v2h1V4h1V3H3Zm1 20H3v2h1Zm9.999-20c-.002.262-.014.522-.002.787.003.074.008.14.012.213H28v5.97a14.118 14.118 0 0 0-9.553 3.942c.176.294.336.608.488.926A13.02 13.02 0 0 1 28 10.97V28h-5.714l.337.832c.023.058.055.11.08.168H29V3ZM4 15H3v2h1Zm0-4H3v2h1Zm0 16H3v2h2v-1H4Z"/></svg>