<svg xmlns="http://www.w3.org/2000/svg" id="icons" viewBox="0 0 32 32"><path d="M8 13H6v-1h2v1Zm3-1H9v1h2v-1Zm3 0h-2v1h2v-1Zm-6 6H6v1h2v-1Zm3 0H9v1h2v-1Zm3 0h-2v1h2v-1ZM8 6H6v1h2V6Zm3 0H9v1h2V6Zm3 0h-2v1h2V6Zm1.369 16H3V3h26v15.923a7.874 7.874 0 0 0-1-1.003V16H4v5h11.701a7.752 7.752 0 0 0-.332 1ZM4 9h24V4H4v5Zm0 6h24v-5H4v5Zm19 2.2c-3.76 0-6.8 3.04-6.8 6.8s3.04 6.8 6.8 6.8 6.8-3.04 6.8-6.8-3.04-6.8-6.8-6.8Zm0 12.6c-3.2 0-5.8-2.6-5.8-5.8s2.6-5.8 5.8-5.8 5.8 2.6 5.8 5.8-2.6 5.8-5.8 5.8Zm4-5.8-6 4v-8l6 4Zm-5 2.132L25.197 24 22 21.868v4.264Z"/></svg>