<svg xmlns="http://www.w3.org/2000/svg" id="icons" viewBox="0 0 32 32"><path d="M8 12v1H6v-1h2Zm1 0v1h2v-1H9Zm3 0v1h2v-1h-2Zm17-9v11h-1v-4H4v5h10v1H4v5h10v1H3V3h26Zm-1 1H4v5h24V4ZM6 18v1h2v-1H6Zm3 0v1h2v-1H9Zm3 0v1h2v-1h-2ZM6 7h2V6H6v1Zm3 0h2V6H9v1Zm3 0h2V6h-2v1Zm11.5 18 2.5 2.5-2.5 2.5-2-2H18a1 1 0 0 1-1-1v-2h-2v-4h2v-2.018c-1.14-.24-2-1.253-2-2.463C15 15.128 16.13 14 17.518 14s2.479 1.13 2.479 2.518c0 1.224-.838 2.245-1.997 2.47V21h2v4h-2v2h3.5l2-2Zm-5.981-6.963c.837 0 1.518-.681 1.518-1.518S18.356 15 17.52 15 16 15.681 16 16.519s.681 1.518 1.519 1.518ZM19 24v-2h-3v2h3Zm5.586 3.5L23.5 26.414 22.414 27.5l1.086 1.086 1.086-1.086ZM29 16h-5.086l1.293-1.293L24.5 14 22 16.5l2.5 2.5.707-.707L23.914 17H29v10h-1v1h1a1 1 0 0 0 1-1V17a1 1 0 0 0-1-1Z"/></svg>