<svg width="100" height="100" viewBox="0 0 100 100" fill="none" xmlns="http://www.w3.org/2000/svg">
<g clip-path="url(#clip0_1348_3814)">
<path d="M22 24.2212V59.5582L49.0992 71.3118C49.673 71.5606 50.3256 71.5621 50.8994 71.3132L73.6157 61.4594C76.2776 60.3047 78 57.6801 78 54.7785V19.4421L50.9008 7.68789C50.327 7.43901 49.6725 7.43947 49.0987 7.68836L26.3843 17.5403C23.7224 18.6949 22 21.3196 22 24.2212Z" fill="url(#paint0_radial_1348_3814)"/>
<path d="M48.3095 70.7342C48.7367 71.2206 49.3527 71.4994 50 71.4994C50.6473 71.4994 51.2633 71.2206 51.6905 70.7342L63.7593 56.9941C64.8812 55.7168 65.5 54.0747 65.5 52.3746V14.0791L50.9008 7.68808C50.3257 7.43634 49.6739 7.43681 49.0987 7.68855L34.5 14.0219V52.3746C34.5 54.0747 35.1187 55.7168 36.2407 56.9941L48.3095 70.7342Z" fill="url(#paint1_linear_1348_3814)"/>
<path d="M49.0987 7.68836L26.3654 17.5477C23.7151 18.6971 22 21.3103 22 24.1991V59.5582L49.0992 71.3118C49.3868 71.4376 49.6927 71.4992 50 71.4992V7.50049C49.6927 7.50049 49.3863 7.56249 49.0987 7.68836Z" fill="url(#paint2_linear_1348_3814)"/>
<path d="M50.7511 62.2876C50.5292 62.4266 50.2698 62.5 50 62.5C49.7302 62.5 49.4707 62.4266 49.2488 62.2876C42.6571 56.8329 35.9213 50.4904 30.0468 41.0995C29.849 40.7243 29.8485 40.2783 30.0454 39.9034C35.6838 31.3022 41.6676 24.5684 49.2463 18.7141C49.4687 18.574 49.7292 18.5 50 18.5C50.2707 18.5 50.5311 18.574 50.7536 18.7141C58.3322 24.5684 64.3421 31.3021 69.9805 39.9034C70.1774 40.2783 70.1769 40.7243 69.9791 41.0995C64.104 50.491 57.3425 56.8332 50.7511 62.2876ZM51.6996 55.2722C54.9002 51.0087 57.1817 48.3513 57.7014 43.2545L43.6801 40.9467C46.1108 46.7492 47.7129 49.4521 51.6996 55.2722ZM34.5381 41.3369L34.6877 41.5778C37.6016 46.2726 40.9507 49.7706 45.5313 52.8996C45.6143 52.9563 45.7258 52.9471 45.7982 52.8774L45.8194 52.8571C45.8918 52.7875 45.9055 52.6772 45.8528 52.5919C43.8347 49.3259 42.2227 45.9648 39.8033 40.5805L39.7427 40.4457L34.5381 41.3369ZM53.8042 26.1434C53.7248 26.2094 53.7043 26.3224 53.7553 26.4122C55.9359 30.252 58.3268 34.9036 60.0246 39.7316L64.5581 38.5521C63.222 36.4565 59.6573 30.8845 54.0931 26.1332C54.0144 26.066 53.8986 26.065 53.819 26.1311L53.8042 26.1434ZM42.4588 37.0566L56.1391 39.3009C53.9259 33.6434 52.4469 30.5398 48.7276 24.8677C44.759 29.8937 43.4265 32.9628 42.4588 37.0566Z" fill="white"/>
</g>
<path d="M31.7712 91.1364C31.1576 91.1364 30.6291 90.9915 30.186 90.7017C29.7428 90.4119 29.4019 90.0128 29.1632 89.5043C28.9246 88.9957 28.8053 88.4148 28.8053 87.7614C28.8053 87.0966 28.9274 86.5099 29.1718 86.0014C29.4189 85.4901 29.7627 85.0909 30.203 84.804C30.6462 84.5142 31.1632 84.3693 31.7541 84.3693C32.2144 84.3693 32.6291 84.4545 32.9985 84.625C33.3678 84.7955 33.6703 85.0341 33.9061 85.3409C34.1419 85.6477 34.2882 86.0057 34.3451 86.4148H33.3394C33.2627 86.1165 33.0922 85.8523 32.828 85.6222C32.5666 85.3892 32.2144 85.2727 31.7712 85.2727C31.3791 85.2727 31.0354 85.375 30.7399 85.5795C30.4473 85.7812 30.2186 86.0668 30.0539 86.4361C29.8919 86.8026 29.811 87.233 29.811 87.7273C29.811 88.233 29.8905 88.6733 30.0496 89.0483C30.2115 89.4233 30.4388 89.7145 30.7314 89.9219C31.0269 90.1293 31.3735 90.233 31.7712 90.233C32.0325 90.233 32.2698 90.1875 32.4828 90.0966C32.6959 90.0057 32.8763 89.875 33.024 89.7045C33.1718 89.5341 33.2769 89.3295 33.3394 89.0909H34.3451C34.2882 89.4773 34.1476 89.8253 33.9232 90.1349C33.7016 90.4418 33.4076 90.6861 33.0411 90.8679C32.6774 91.0469 32.2541 91.1364 31.7712 91.1364ZM38.8214 91.1534C38.4066 91.1534 38.0302 91.0753 37.6921 90.919C37.354 90.7599 37.0856 90.5312 36.8867 90.233C36.6878 89.9318 36.5884 89.5682 36.5884 89.142C36.5884 88.767 36.6623 88.4631 36.81 88.2301C36.9577 87.9943 37.1552 87.8097 37.4023 87.6761C37.6495 87.5426 37.9222 87.4432 38.2205 87.3778C38.5216 87.3097 38.8242 87.2557 39.1282 87.2159C39.5259 87.1648 39.8483 87.1264 40.0955 87.1009C40.3455 87.0724 40.5273 87.0256 40.641 86.9602C40.7574 86.8949 40.8157 86.7812 40.8157 86.6193V86.5852C40.8157 86.1648 40.7006 85.8381 40.4705 85.6051C40.2432 85.3722 39.8981 85.2557 39.435 85.2557C38.9549 85.2557 38.5785 85.3608 38.3057 85.571C38.033 85.7812 37.8412 86.0057 37.7304 86.2443L36.7759 85.9034C36.9464 85.5057 37.1736 85.196 37.4577 84.9744C37.7447 84.75 38.0572 84.5937 38.3952 84.5057C38.7361 84.4148 39.0714 84.3693 39.4009 84.3693C39.6111 84.3693 39.8526 84.3949 40.1253 84.446C40.4009 84.4943 40.6665 84.5952 40.9222 84.7486C41.1807 84.902 41.3952 85.1335 41.5657 85.4432C41.7361 85.7528 41.8214 86.1676 41.8214 86.6875V91H40.8157V90.1136H40.7645C40.6964 90.2557 40.5827 90.4077 40.4236 90.5696C40.2645 90.7315 40.0529 90.8693 39.7887 90.983C39.5245 91.0966 39.202 91.1534 38.8214 91.1534ZM38.9748 90.25C39.3725 90.25 39.7077 90.1719 39.9804 90.0156C40.256 89.8594 40.4634 89.6577 40.6026 89.4105C40.7447 89.1634 40.8157 88.9034 40.8157 88.6307V87.7102C40.7731 87.7614 40.6793 87.8082 40.5344 87.8509C40.3924 87.8906 40.2276 87.9261 40.0401 87.9574C39.8554 87.9858 39.6751 88.0114 39.4989 88.0341C39.3256 88.054 39.185 88.071 39.077 88.0852C38.8157 88.1193 38.5714 88.1747 38.3441 88.2514C38.1197 88.3253 37.9378 88.4375 37.7986 88.5881C37.6623 88.7358 37.5941 88.9375 37.5941 89.1932C37.5941 89.5426 37.7233 89.8068 37.9819 89.9858C38.2432 90.1619 38.5742 90.25 38.9748 90.25ZM45.7426 82.2727V91H44.7369V82.2727H45.7426ZM51.3237 91.1364C50.71 91.1364 50.1816 90.9915 49.7385 90.7017C49.2953 90.4119 48.9544 90.0128 48.7157 89.5043C48.4771 88.9957 48.3578 88.4148 48.3578 87.7614C48.3578 87.0966 48.4799 86.5099 48.7243 86.0014C48.9714 85.4901 49.3152 85.0909 49.7555 84.804C50.1987 84.5142 50.7157 84.3693 51.3066 84.3693C51.7669 84.3693 52.1816 84.4545 52.551 84.625C52.9203 84.7955 53.2228 85.0341 53.4586 85.3409C53.6944 85.6477 53.8407 86.0057 53.8976 86.4148H52.8919C52.8152 86.1165 52.6447 85.8523 52.3805 85.6222C52.1191 85.3892 51.7669 85.2727 51.3237 85.2727C50.9316 85.2727 50.5879 85.375 50.2924 85.5795C49.9998 85.7812 49.7711 86.0668 49.6064 86.4361C49.4444 86.8026 49.3635 87.233 49.3635 87.7273C49.3635 88.233 49.443 88.6733 49.6021 89.0483C49.764 89.4233 49.9913 89.7145 50.2839 89.9219C50.5794 90.1293 50.926 90.233 51.3237 90.233C51.585 90.233 51.8223 90.1875 52.0353 90.0966C52.2484 90.0057 52.4288 89.875 52.5765 89.7045C52.7243 89.5341 52.8294 89.3295 52.8919 89.0909H53.8976C53.8407 89.4773 53.7001 89.8253 53.4757 90.1349C53.2541 90.4418 52.96 90.6861 52.5936 90.8679C52.2299 91.0469 51.8066 91.1364 51.3237 91.1364ZM56.4477 91V84.4545H57.4534V91H56.4477ZM56.9591 83.3636C56.7631 83.3636 56.594 83.2969 56.452 83.1634C56.3128 83.0298 56.2432 82.8693 56.2432 82.6818C56.2432 82.4943 56.3128 82.3338 56.452 82.2003C56.594 82.0668 56.7631 82 56.9591 82C57.1551 82 57.3227 82.0668 57.4619 82.2003C57.604 82.3338 57.675 82.4943 57.675 82.6818C57.675 82.8693 57.604 83.0298 57.4619 83.1634C57.3227 83.2969 57.1551 83.3636 56.9591 83.3636ZM63.222 84.4545V85.3068H59.8299V84.4545H63.222ZM60.8186 82.8864H61.8242V89.125C61.8242 89.4091 61.8654 89.6222 61.9478 89.7642C62.033 89.9034 62.141 89.9972 62.2717 90.0455C62.4052 90.0909 62.5458 90.1136 62.6936 90.1136C62.8044 90.1136 62.8953 90.108 62.9663 90.0966C63.0373 90.0824 63.0941 90.071 63.1367 90.0625L63.3413 90.9659C63.2731 90.9915 63.1779 91.017 63.0558 91.0426C62.9336 91.071 62.7788 91.0852 62.5913 91.0852C62.3072 91.0852 62.0288 91.0241 61.7561 90.902C61.4862 90.7798 61.2617 90.5938 61.0828 90.3438C60.9066 90.0938 60.8186 89.7784 60.8186 89.3977V82.8864ZM68.4888 91.1364C67.8581 91.1364 67.314 90.9972 66.8567 90.7188C66.4021 90.4375 66.0513 90.0455 65.8041 89.5426C65.5598 89.0369 65.4376 88.4489 65.4376 87.7784C65.4376 87.108 65.5598 86.517 65.8041 86.0057C66.0513 85.4915 66.395 85.0909 66.8353 84.804C67.2785 84.5142 67.7956 84.3693 68.3865 84.3693C68.7274 84.3693 69.064 84.4261 69.3964 84.5398C69.7288 84.6534 70.0314 84.8381 70.3041 85.0938C70.5768 85.3466 70.7942 85.6818 70.9561 86.0994C71.118 86.517 71.199 87.0312 71.199 87.642V88.0682H66.1535V87.1989H70.1763C70.1763 86.8295 70.1024 86.5 69.9547 86.2102C69.8098 85.9205 69.6024 85.6918 69.3325 85.5241C69.0655 85.3565 68.7501 85.2727 68.3865 85.2727C67.9859 85.2727 67.6393 85.3722 67.3467 85.571C67.0569 85.767 66.8339 86.0227 66.6777 86.3381C66.5214 86.6534 66.4433 86.9915 66.4433 87.3523V87.9318C66.4433 88.4261 66.5285 88.8452 66.699 89.1889C66.8723 89.5298 67.1123 89.7898 67.4192 89.9688C67.726 90.1449 68.0825 90.233 68.4888 90.233C68.753 90.233 68.9916 90.196 69.2047 90.1222C69.4206 90.0455 69.6067 89.9318 69.7629 89.7812C69.9192 89.6278 70.0399 89.4375 70.1251 89.2102L71.0967 89.483C70.9944 89.8125 70.8226 90.1023 70.5811 90.3523C70.3396 90.5994 70.0413 90.7926 69.6862 90.9318C69.3311 91.0682 68.9319 91.1364 68.4888 91.1364Z" fill="black"/>
<defs>
<radialGradient id="paint0_radial_1348_3814" cx="0" cy="0" r="1" gradientUnits="userSpaceOnUse" gradientTransform="translate(65.2613 55.0526) scale(54.4722)">
<stop stop-color="#379BE8"/>
<stop offset="0.51476" stop-color="#006FDE"/>
</radialGradient>
<linearGradient id="paint1_linear_1348_3814" x1="50" y1="7.49951" x2="50" y2="71.4994" gradientUnits="userSpaceOnUse">
<stop offset="0.00339" stop-color="#0A67C4" stop-opacity="0"/>
<stop offset="0.08022" stop-color="#0A67C4" stop-opacity="0.02128"/>
<stop offset="0.15984" stop-color="#0A67C4" stop-opacity="0.08476"/>
<stop offset="0.24076" stop-color="#0A67C4" stop-opacity="0.19056"/>
<stop offset="0.3226" stop-color="#0A67C4" stop-opacity="0.3389"/>
<stop offset="0.40516" stop-color="#0A67C4" stop-opacity="0.5299"/>
<stop offset="0.48721" stop-color="#0A67C4" stop-opacity="0.7604"/>
<stop offset="0.50002" stop-color="#0A67C4" stop-opacity="0.8"/>
<stop offset="0.58935" stop-color="#0A67C4" stop-opacity="0.77872"/>
<stop offset="0.68193" stop-color="#0A67C4" stop-opacity="0.71526"/>
<stop offset="0.77602" stop-color="#0A67C4" stop-opacity="0.60949"/>
<stop offset="0.87111" stop-color="#0A67C4" stop-opacity="0.46132"/>
<stop offset="0.96613" stop-color="#0A67C4" stop-opacity="0.27254"/>
<stop offset="0.99808" stop-color="#0A67C4" stop-opacity="0.2"/>
</linearGradient>
<linearGradient id="paint2_linear_1348_3814" x1="56.5509" y1="11.2826" x2="27.0092" y2="62.4503" gradientUnits="userSpaceOnUse">
<stop offset="0.00439" stop-color="#0088FF"/>
<stop offset="0.05916" stop-color="#0A8CFF" stop-opacity="0.79702"/>
<stop offset="0.12321" stop-color="#1591FF" stop-opacity="0.58812"/>
<stop offset="0.18811" stop-color="#1E96FF" stop-opacity="0.40794"/>
<stop offset="0.25253" stop-color="#2599FF" stop-opacity="0.26085"/>
<stop offset="0.31639" stop-color="#2B9CFF" stop-opacity="0.14665"/>
<stop offset="0.37952" stop-color="#2F9EFF" stop-opacity="0.0652"/>
<stop offset="0.44162" stop-color="#329FFF" stop-opacity="0.01636"/>
<stop offset="0.5015" stop-color="#33A0FF" stop-opacity="0"/>
</linearGradient>
<clipPath id="clip0_1348_3814">
<rect width="64" height="64" fill="white" transform="translate(18 7.5)"/>
</clipPath>
</defs>
</svg>
