<svg width="100" height="80" viewBox="0 0 100 80" fill="none" xmlns="http://www.w3.org/2000/svg">
<g clip-path="url(#clip0_1348_3814)">
<path d="M22 24.2212V59.5582L49.0992 71.3118C49.673 71.5606 50.3256 71.562 50.8994 71.3132L73.6157 61.4594C76.2776 60.3047 78 57.68 78 54.7785V19.4421L50.9008 7.68789C50.327 7.43901 49.6725 7.43947 49.0987 7.68836L26.3843 17.5403C23.7224 18.6949 22 21.3196 22 24.2212Z" fill="url(#paint0_radial_1348_3814)"/>
<path d="M48.3095 70.7342C48.7367 71.2206 49.3527 71.4994 50 71.4994C50.6473 71.4994 51.2633 71.2206 51.6905 70.7342L63.7593 56.9941C64.8812 55.7168 65.5 54.0747 65.5 52.3746V14.0791L50.9008 7.68808C50.3257 7.43634 49.6739 7.43681 49.0987 7.68855L34.5 14.0219V52.3746C34.5 54.0747 35.1187 55.7168 36.2407 56.9941L48.3095 70.7342Z" fill="url(#paint1_linear_1348_3814)"/>
<path d="M49.0987 7.68836L26.3654 17.5477C23.7151 18.6971 22 21.3103 22 24.1991V59.5582L49.0992 71.3118C49.3868 71.4376 49.6927 71.4992 50 71.4992V7.50049C49.6927 7.50049 49.3863 7.56249 49.0987 7.68836Z" fill="url(#paint2_linear_1348_3814)"/>
<path d="M50.7511 62.2876C50.5292 62.4266 50.2698 62.5 50 62.5C49.7302 62.5 49.4707 62.4266 49.2488 62.2876C42.6571 56.8329 35.9213 50.4904 30.0468 41.0995C29.849 40.7243 29.8485 40.2783 30.0454 39.9034C35.6838 31.3022 41.6676 24.5684 49.2463 18.7141C49.4687 18.574 49.7292 18.5 50 18.5C50.2707 18.5 50.5311 18.574 50.7536 18.7141C58.3322 24.5684 64.3421 31.3021 69.9805 39.9034C70.1774 40.2783 70.1769 40.7243 69.9791 41.0995C64.104 50.491 57.3425 56.8332 50.7511 62.2876ZM51.6996 55.2722C54.9002 51.0087 57.1817 48.3513 57.7014 43.2545L43.6801 40.9467C46.1108 46.7492 47.7129 49.4521 51.6996 55.2722ZM34.5381 41.3369L34.6877 41.5778C37.6016 46.2726 40.9507 49.7706 45.5313 52.8996C45.6143 52.9563 45.7258 52.9471 45.7982 52.8774L45.8194 52.8571C45.8918 52.7875 45.9055 52.6772 45.8528 52.5919C43.8347 49.3259 42.2227 45.9648 39.8033 40.5805L39.7427 40.4457L34.5381 41.3369ZM53.8042 26.1434C53.7248 26.2094 53.7043 26.3224 53.7553 26.4122C55.9359 30.252 58.3268 34.9036 60.0246 39.7316L64.5581 38.5521C63.222 36.4565 59.6573 30.8845 54.0931 26.1332C54.0144 26.066 53.8986 26.065 53.819 26.1311L53.8042 26.1434ZM42.4588 37.0566L56.1391 39.3009C53.9259 33.6434 52.4469 30.5398 48.7276 24.8677C44.759 29.8937 43.4265 32.9628 42.4588 37.0566Z" fill="white"/>
</g>
<defs>
<radialGradient id="paint0_radial_1348_3814" cx="0" cy="0" r="1" gradientUnits="userSpaceOnUse" gradientTransform="translate(65.2613 55.0526) scale(54.4722)">
<stop stop-color="#379BE8"/>
<stop offset="0.51476" stop-color="#006FDE"/>
</radialGradient>
<linearGradient id="paint1_linear_1348_3814" x1="50" y1="7.49951" x2="50" y2="71.4994" gradientUnits="userSpaceOnUse">
<stop offset="0.00339" stop-color="#0A67C4" stop-opacity="0"/>
<stop offset="0.08022" stop-color="#0A67C4" stop-opacity="0.02128"/>
<stop offset="0.15984" stop-color="#0A67C4" stop-opacity="0.08476"/>
<stop offset="0.24076" stop-color="#0A67C4" stop-opacity="0.19056"/>
<stop offset="0.3226" stop-color="#0A67C4" stop-opacity="0.3389"/>
<stop offset="0.40516" stop-color="#0A67C4" stop-opacity="0.5299"/>
<stop offset="0.48721" stop-color="#0A67C4" stop-opacity="0.7604"/>
<stop offset="0.50002" stop-color="#0A67C4" stop-opacity="0.8"/>
<stop offset="0.58935" stop-color="#0A67C4" stop-opacity="0.77872"/>
<stop offset="0.68193" stop-color="#0A67C4" stop-opacity="0.71526"/>
<stop offset="0.77602" stop-color="#0A67C4" stop-opacity="0.60949"/>
<stop offset="0.87111" stop-color="#0A67C4" stop-opacity="0.46132"/>
<stop offset="0.96613" stop-color="#0A67C4" stop-opacity="0.27254"/>
<stop offset="0.99808" stop-color="#0A67C4" stop-opacity="0.2"/>
</linearGradient>
<linearGradient id="paint2_linear_1348_3814" x1="56.5509" y1="11.2826" x2="27.0092" y2="62.4503" gradientUnits="userSpaceOnUse">
<stop offset="0.00439" stop-color="#0088FF"/>
<stop offset="0.05916" stop-color="#0A8CFF" stop-opacity="0.79702"/>
<stop offset="0.12321" stop-color="#1591FF" stop-opacity="0.58812"/>
<stop offset="0.18811" stop-color="#1E96FF" stop-opacity="0.40794"/>
<stop offset="0.25253" stop-color="#2599FF" stop-opacity="0.26085"/>
<stop offset="0.31639" stop-color="#2B9CFF" stop-opacity="0.14665"/>
<stop offset="0.37952" stop-color="#2F9EFF" stop-opacity="0.0652"/>
<stop offset="0.44162" stop-color="#329FFF" stop-opacity="0.01636"/>
<stop offset="0.5015" stop-color="#33A0FF" stop-opacity="0"/>
</linearGradient>
<clipPath id="clip0_1348_3814">
<rect width="64" height="64" fill="white" transform="translate(18 7.5)"/>
</clipPath>
</defs>
</svg>
