<svg xmlns="http://www.w3.org/2000/svg" id="icons" viewBox="0 0 24 24"><path d="M0 0h24v24H0z" fill="none"/><path d="M19.001 22.992a6.493 6.493 0 0 1-3.5-.88 6.481 6.481 0 0 1-3.5.88 6.493 6.493 0 0 1-3.5-.88 6.481 6.481 0 0 1-3.5.88 5.986 5.986 0 0 1-3.834-1.119.5.5 0 1 1 .665-.746 5.08 5.08 0 0 0 3.169.874 5.128 5.128 0 0 0 3.172-.877l.139-.08.17-.036a.722.722 0 0 1 .214.038l.121.07a5.09 5.09 0 0 0 3.184.885 5.128 5.128 0 0 0 3.172-.877l.139-.08.171-.036a.72.72 0 0 1 .213.038l.121.07a5.09 5.09 0 0 0 3.184.885 5.128 5.128 0 0 0 3.172-.877.502.502 0 0 1 .327-.12.5.5 0 0 1 .336.869A5.894 5.894 0 0 1 19 22.992ZM12 16h1v2h-1Zm1-3h-1v2h1Zm0-3h-1v2h1Zm-2.9-3.5a2.4 2.4 0 1 1 2.4 2.4 2.403 2.403 0 0 1-2.4-2.4Zm.9 0A1.5 1.5 0 1 0 12.5 5 1.502 1.502 0 0 0 11 6.5ZM4 20v-1H2v-2h2v-1H2v-2h2v-1H2v-2h2v-1H2V8h2V7H2V5h2V4H2V2H1v18h3Z" fill-rule="evenodd"/></svg>