<svg xmlns="http://www.w3.org/2000/svg" id="icons" viewBox="0 0 24 24"><path d="M9 12v1h1v-1H9Zm-2 0v1h1v-1H7Zm-2 0v1h1v-1H5Zm4-4v1h1V8H9ZM7 8v1h1V8H7ZM5 8v1h1V8H5Zm4-4v1h1V4H9ZM7 5h1V4H7v1ZM5 5h1V4H5v1Zm4 3v1h1V8H9ZM7 9h1V8H7v1ZM5 9h1V8H5v1Zm4 3v1h1v-1H9Zm-2 1h1v-1H7v1Zm-2 0h1v-1H5v1Zm17 2V2H2v13h13v3h-2v1H4v1h9v1h5v-1h2v-1h-2v-1h-2v-3h6ZM3 3h18v3H3V3Zm0 4h18v3H3V7Zm14 12v1h-3v-1h3ZM3 14v-3h18v3H3Zm6-1h1v-1H9v1Zm0-4h1V8H9v1Zm0-4h1V4H9v1Zm-2 8h1v-1H7v1Zm0-4h1V8H7v1Zm0-4h1V4H7v1Zm-2 8h1v-1H5v1Zm0-4h1V8H5v1Zm0-4h1V4H5v1Zm4-1v1h1V4H9ZM7 4v1h1V4H7ZM5 4v1h1V4H5Z"/><path fill="none" d="M0 0h24v24H0z"/></svg>