<svg xmlns="http://www.w3.org/2000/svg" id="icons" viewBox="0 0 24 24"><path d="M13 1v10h10V1H13Zm5 1h2v2h-2V2Zm-4 0h3v1h-3V2Zm0 2h3v1h2v1h-5V4Zm8 6h-8V7h3v2h5v1Zm0-2h-4V7h2V5h1V2h1v6Zm-9 15h10V13H13v10Zm9-1h-2v-5h2v5Zm-8-8h8v2h-8v-2Zm0 3h5v2h-2v1h2v2h-5v-5ZM1 23h10V13H1v10Zm1-9h8v3.937a9.107 9.107 0 0 0-.646.161c-.501.159-.765-.247-1.528-.99-.955-.93-1.407-1.05-2.224-1.066-.55-.01-1.649-.047-2.39 1.045-.306.453.01 1.249-.5 2.038-.064.1-.367.167-.712.192V14Zm0 6.386c.512-.078 1.1-.24 1.313-.386.28-.194.55-.925.6-1.413.125-1.22.36-1.595 1.65-1.586 1.333.009 1.662.884 1.8 1.003 1.01.879 1.552 1.282 2.292 1.048.09-.028.213-.055.345-.08V22H2v-1.614ZM1 11h10V1H1v10Zm1-1V7.266c.454.199 2.253 1.09 2.892 2.734H2Zm8-8v5.014C6.602 6.488 5.419 3.328 5.073 2H10ZM2 2h2.053C4.385 3.332 5.759 7.455 10 8.02V10H5.956C5.446 8.191 3.76 6.852 2 6.194V2Z" stroke-width="0"/><path d="M0 0h24v24H0z" stroke-width="0" fill="none"/></svg>