<svg xmlns="http://www.w3.org/2000/svg" viewBox="0 0 24 24"><path d="m16.992 10.836.918-.918a5.927 5.927 0 0 1 .09.995V15a3 3 0 0 0 3 3v1H8.828l1-1h8.529A3.992 3.992 0 0 1 17 15v-4.087c0-.026-.007-.05-.008-.077zM12 21a1.001 1.001 0 0 1-1-1h-1a2 2 0 0 0 4 0h-1a1.001 1.001 0 0 1-1 1zm-8.692 1.4-.354-.354-.353-.354L5.293 19H3v-1a3 3 0 0 0 3-3v-4.087A5.91 5.91 0 0 1 10.41 5.2a2 2 0 1 1 3.18 0 5.91 5.91 0 0 1 3.27 2.233L21.692 2.6l.354.354.354.354zM11 4a1 1 0 1 0 1-1 1.001 1.001 0 0 0-1 1zM6.293 18l9.85-9.851A4.91 4.91 0 0 0 12.088 6h-.174A4.919 4.919 0 0 0 7 10.913V15a3.992 3.992 0 0 1-1.357 3z"/><path fill="none" d="M0 0h24v24H0z"/></svg>