<svg xmlns="http://www.w3.org/2000/svg" id="icons" viewBox="0 0 24 24"><path d="m17.252 22.205-1.414-1.414 4.184-4.184 1.413 1.415-4.183 4.183Zm5.908-5.951-.734.734-1.414-1.414.734-.734a.2.2 0 0 1 .283 0l1.131 1.131a.2.2 0 0 1 0 .283Zm-7.074 6.906L14 24l.839-2.087 1.247 1.247ZM20.99 5.5C20.99 4.12 19.878 3 18.5 3S16 4.121 16 5.5c0 1.208.86 2.217 2 2.45V9.5c0 1.93-1.57 3.5-3.5 3.5h-5c-.98 0-1.864.407-2.5 1.058V5.95A2.499 2.499 0 0 0 8.99 3.5C8.99 2.12 7.878 1 6.5 1S4 2.121 4 3.5c0 1.208.86 2.217 2 2.45v13.1c-1.14.233-2 1.242-2 2.45C4 22.879 5.122 24 6.5 24s2.49-1.122 2.49-2.501A2.496 2.496 0 0 0 7 19.051V16.5C7 15.121 8.122 14 9.5 14h5c2.481 0 4.5-2.019 4.5-4.5V7.95a2.499 2.499 0 0 0 1.99-2.451ZM6 5a1 1 0 0 1-1-1V3a1 1 0 0 1 1-1h1a1 1 0 0 1 1 1v1a1 1 0 0 1-1 1H6Zm2 16v1a1 1 0 0 1-1 1H6a1 1 0 0 1-1-1v-1a1 1 0 0 1 1-1h1a1 1 0 0 1 1 1ZM20 6a1 1 0 0 1-1 1h-1a1 1 0 0 1-1-1V5a1 1 0 0 1 1-1h1a1 1 0 0 1 1 1v1Z" fill="#231f20" stroke-width="0"/><path d="M0 0h24v24H0z" stroke-width="0" fill="none"/></svg>