<svg xmlns="http://www.w3.org/2000/svg" id="icons" viewBox="0 0 24 24"><path d="M0 0h24v24H0z" fill="none" stroke-width="0"/><path d="M10 4H9v1H8V4H7V3h3v1ZM9 20v-1H8v1H7v1h3v-1H9ZM9 9V7H8v2h1Zm-1 6v2h1v-2H8ZM3 3H1v2h1V4h1V3ZM2 20v-1H1v2h2v-1H2ZM2 9V7H1v2h1Zm-1 6v2h1v-2H1ZM22 3h-1v1h1v1h1V3h-1Zm1 6V7h-1v2h1Zm-6-6h-3v1h1v1h1V4h1V3Zm-1 6V7h-1v2h1ZM6 3H4v1h2V3Zm0 17H4v1h2v-1Zm7-17h-2v1h2V3Zm7 0h-2v1h2V3Zm-1 15a2 2 0 1 1-4 0 2 2 0 0 1 4 0Zm-1 0a1 1 0 1 0-2 0 1 1 0 0 0 2 0Zm.484 4.34.653-.235 1.543.71 1.162-1.171-.724-1.624.296-.628 1.586-.59v-1.65l-1.66-.636-.235-.653.705-1.538-1.166-1.167-1.624.724-.628-.296-.59-1.586h-1.65l-.636 1.66-.653.235-1.543-.71-1.166 1.168.727 1.627-.295.628-1.586.59v1.65l1.66.636.235.653-.71 1.543 1.168 1.166 1.627-.727.628.295.59 1.586h1.65l.636-1.66Zm-2.24-.66-1.161-.544-1.4.627-.412-.411.59-1.283-.434-1.206L12 18.315v-.581l1.32-.49.544-1.161-.627-1.4.411-.412 1.283.59 1.206-.434.548-1.427h.581l.49 1.32 1.16.543 1.396-.622.412.412-.585 1.28.434 1.204 1.427.548v.581l-1.32.49-.543 1.16.623 1.398-.41.413-1.28-.588-1.207.434L17.315 23h-.581l-.49-1.32ZM2 11H1v2h1v-2Zm7 0H8v2h1v-2Zm14 0h-1v2h1v-2Z" stroke-width="0"/></svg>