<svg xmlns="http://www.w3.org/2000/svg" id="icons" viewBox="0 0 24 24"><path d="M1 3v18h22V3H1Zm21 17H2V4h20v16ZM21 9h-6V8h6v1Zm0 3h-6v-1h6v1Zm-1 3h-5v-1h5v1ZM8 16.815c2.485 0 5-.785 5-2.285V9c0-.361-.192-.883-1.108-1.316a6.236 6.236 0 0 0-1.295-.422c-.404-.09-.84-.157-1.297-.201a14.453 14.453 0 0 0-2.6 0 11.23 11.23 0 0 0-1.298.2 6.294 6.294 0 0 0-1.296.423C3.192 8.117 3 8.639 3 9v5.53c0 1.5 2.515 2.285 5 2.285ZM4.534 8.588a5.41 5.41 0 0 1 1.084-.35c.365-.08.762-.141 1.178-.181C7.178 8.02 7.582 8 8 8s.822.02 1.204.057c.416.04.813.101 1.176.181.426.095.801.216 1.085.35.44.208.535.38.535.412s-.095.204-.534.412a5.41 5.41 0 0 1-1.084.35c-.365.08-.762.141-1.178.181-.765.075-1.644.075-2.408 0a9.926 9.926 0 0 1-1.176-.181 5.348 5.348 0 0 1-1.085-.35C4.095 9.204 4 9.032 4 9s.095-.204.534-.412ZM4 10.258c.037.02.068.04.108.058.355.168.79.31 1.295.422.404.09.84.157 1.297.201a13.83 13.83 0 0 0 2.6 0 11.23 11.23 0 0 0 1.298-.2 6.294 6.294 0 0 0 1.296-.423c.039-.018.07-.038.106-.057v.79c0 .032-.095.206-.534.413a5.41 5.41 0 0 1-1.084.35c-.365.08-.762.141-1.178.181-.765.074-1.644.074-2.408 0a9.926 9.926 0 0 1-1.176-.181 5.38 5.38 0 0 1-1.086-.35c-.439-.207-.534-.38-.534-.412v-.791Zm0 2.05c.037.02.068.04.108.058.355.168.79.31 1.295.422.404.089.84.156 1.297.201a13.83 13.83 0 0 0 2.6 0 11.23 11.23 0 0 0 1.298-.2 6.264 6.264 0 0 0 1.295-.423c.04-.018.07-.038.107-.057v2.221c0 .512-1.595 1.285-4 1.285s-4-.773-4-1.285V12.31Z"/><path d="M0 0h24v24H0z" fill="none"/></svg>