<svg xmlns="http://www.w3.org/2000/svg" id="icons" viewBox="0 0 24 24"><path d="m22.425 11.706-9.137-9.135a1.143 1.143 0 0 0-1.576 0l-9.138 9.136a1.117 1.117 0 0 0 .001 1.575l9.137 9.136c.21.21.49.326.788.326s.578-.116.788-.326l9.138-9.136a1.117 1.117 0 0 0-.001-1.576Zm-.707.87L12.58 21.71a.11.11 0 0 1-.081.033l-9.217-9.168a.118.118 0 0 1 0-.163l9.136-9.135h.162l9.136 9.134c.044.045.044.12 0 .163Zm-14.269-.088 5.051-5.05 5.056 5.056-5.037 5.037-5.07-5.043Z" stroke-width="0"/><path d="M0 0h24v24H0z" stroke-width="0" fill="none"/></svg>