<svg xmlns="http://www.w3.org/2000/svg" id="icons" viewBox="0 0 24 24"><path d="M12.5 22.75c-.298 0-.578-.116-.788-.326l-9.137-9.136a1.117 1.117 0 0 1 0-1.575l9.137-9.137c.42-.42 1.156-.42 1.576 0l9.137 9.136c.433.434.433 1.142 0 1.575l-9.137 9.137c-.21.21-.49.326-.788.326Zm-.081-19.467L3.282 12.42a.118.118 0 0 0 .001.163L12.5 21.75a.11.11 0 0 0 .081-.033l9.137-9.136a.118.118 0 0 0-.001-.163L12.58 3.283h-.162Zm.081 11.84 2.623-2.623L12.5 9.877 9.877 12.5l2.623 2.623Z" fill="#000" stroke-width="0"/><path d="M0 0h24v24H0z" stroke-width="0" fill="none"/></svg>