<svg xmlns="http://www.w3.org/2000/svg" id="icons" viewBox="0 0 24 24"><path d="M13 12h7v1h-7v-1Zm0 4h7v-1h-7v1Zm1 3h5v-1h-5v1Zm0-14h9v17H1V5h9V1h4v4Zm-3 1h2V2h-2v4Zm1 15v-.5c0-1.379-1.121-2.5-2.5-2.5h-3A2.502 2.502 0 0 0 4 20.5v.5h8Zm10 0V9H2v12h1v-.5C3 18.57 4.57 17 6.5 17h3c1.93 0 3.49 1.57 3.49 3.5v.5H22ZM14 6v1h-4V6H2v2h20V6h-8Zm-3.01 7c0 1.654-1.336 3-2.99 3s-3-1.346-3-3 1.346-3 3-3 2.99 1.346 2.99 3ZM10 13c0-1.103-.897-2-2-2s-2 .897-2 2 .897 2 2 2 2-.897 2-2Z" fill="#231f20"/><path d="M0 0h24v24H0z" fill="none"/></svg>