<svg xmlns="http://www.w3.org/2000/svg" id="icons" viewBox="0 0 24 24"><path d="M5 4h1v1H5V4Zm2 1h1V4H7v1Zm2 0h1V4H9v1Zm13-3v11.19l-1-.41V11H3v3h6.69a.962.962 0 0 0 0 1H2V2h20Zm-1 5H3v3h18V7Zm0-4H3v3h18V3ZM6 8H5v1h1V8Zm2 0H7v1h1V8Zm2 0H9v1h1V8Zm-5 4v1h1v-1H5Zm2 0v1h1v-1H7Zm2 0v1h1v-1H9Zm13.55 8.5-6 2.5-6-2.5 2.3-.96 1.29.54c-.97.405-.872.361-.99.42l3.4 1.42 3.4-1.42c-.123-.055-.023-.012-1-.42l1.29-.54 2.31.96Zm0-3-6 2.5-6-2.5 2.3-.96 1.3.54-1 .42 3.4 1.42 3.4-1.42-1-.42 1.29-.54 2.31.96Zm-6.003-4.417-3.4 1.417 3.4 1.417 3.4-1.417-3.4-1.417m0-1.083 6 2.5-6 2.5-6-2.5 6-2.5Z"/><path fill="none" d="M0 0h24v24H0z"/></svg>