<svg xmlns="http://www.w3.org/2000/svg" id="icons" viewBox="0 0 24 24"><path d="M0 0h24v24H0z" fill="none" stroke-width="0"/><path d="M4 21v1H2v-2h1v1h1Zm17 0h-1v1h2v-2h-1v1ZM3 3h1V2H2v2h1V3Zm4 0V2H5v1h2Zm3 0V2H8v1h2Zm3 0V2h-2v1h2Zm3 0V2h-2v1h2Zm3 0V2h-2v1h2ZM7 22v-1H5v1h2Zm3 0v-1H8v1h2Zm3 0v-1h-2v1h2Zm3 0v-1h-2v1h2Zm3 0v-1h-2v1h2Zm2-15h1V5h-1v2Zm0 3h1V8h-1v2Zm0 3h1v-2h-1v2Zm0 3h1v-2h-1v2Zm0 3h1v-2h-1v2ZM2 7h1V5H2v2Zm0 3h1V8H2v2Zm0 3h1v-2H2v2Zm0 3h1v-2H2v2Zm0 3h1v-2H2v2ZM20 2v1h1v1h1V2h-2Zm-1.46 7.523-6.536 3.503L5.46 9.523 12.004 6l6.536 3.523Zm-6.536 2.355L16.5 9.523l-4.496-2.376L7.5 9.523l4.504 2.355Zm5.516.072-5.516 2.928L6.48 11.95l-1.02.573 6.544 3.503 6.536-3.503-1.02-.573Zm-11.04 3-1.02.573 6.458 3.454c.053.03.119.03.172 0l6.45-3.454-1.02-.573-5.516 2.928L6.48 14.95Z" fill-rule="evenodd" stroke-width="0"/></svg>