<svg xmlns="http://www.w3.org/2000/svg" id="icons" viewBox="0 0 24 24"><path d="M6 5H5V4h1v1Zm2-1H7v1h1V4Zm2 0H9v1h1V4ZM6 8H5v1h1V8Zm2 0H7v1h1V8Zm2 0H9v1h1V8Zm0 4H9v1h1v-1Zm-4 0H5v1h1v-1Zm2 0H7v1h1v-1Zm1.37 3H2V2h20v11.834c-.043-.013-.082-.033-.125-.044a2.767 2.767 0 0 0-.699-.09l-.061.001-.115-.115V11h-1.738a2.78 2.78 0 0 0-.555-1H21V7H3v3h11.293a2.78 2.78 0 0 0-.555 1H3v3h7.345a5.79 5.79 0 0 0-.57.494c-.158.154-.29.326-.405.506ZM3 6h18V3H3v3Zm15.85 10.5-2.35 2.35-2.35-2.35 2.35-2.35 2.35 2.35Zm-2.35.937.936-.937-.936-.936-.936.936.936.937Zm4.039 1.024-.656-.656-3.031 3a.5.5 0 0 1-.704-.001l-3.674-3.643-1.901-1.95a1.792 1.792 0 0 0-.548 1.29 1.802 1.802 0 0 0 2.224 1.748l2.503 2.503a1.802 1.802 0 0 0 1.748 2.224 1.802 1.802 0 0 0 1.748-2.224l2.29-2.291Zm-4.395-6.321a.5.5 0 0 1 .711 0l5.572 5.65a1.8 1.8 0 0 0-1.676-3.037l-2.503-2.504a1.802 1.802 0 0 0-1.748-2.224 1.802 1.802 0 0 0-1.748 2.224l-2.068 2.068.656.656 2.804-2.833Z"/><path fill="none" d="M0 0h24v24H0z"/></svg>