<svg xmlns="http://www.w3.org/2000/svg" id="icons" viewBox="0 0 24 24"><path d="M0 0h24v24H0z" fill="none" stroke-width="0"/><path d="M7.75 6A.752.752 0 0 1 7 5.25v-3.5c0-.412.338-.75.75-.75s.75.338.75.75v3.5c0 .412-.338.75-.75.75Zm3.75-.75v-3.5a.752.752 0 0 0-.75-.75.752.752 0 0 0-.75.75v3.5c0 .412.338.75.75.75s.75-.338.75-.75ZM18 9H7v1h11V9Zm0 4H7v-1h11v1Zm0 3H7v-1h11v1Zm-5 3H7v-1h6v1Zm6-16v1h1v18H5V4h1V3H4v20h17V3h-2Zm-4.75 3a.752.752 0 0 1-.75-.75v-3.5c0-.412.338-.75.75-.75s.75.338.75.75v3.5c0 .412-.338.75-.75.75Zm3 0a.752.752 0 0 1-.75-.75v-3.5c0-.412.338-.75.75-.75s.75.338.75.75v3.5c0 .412-.338.75-.75.75Z" stroke-width="0"/></svg>