<svg xmlns="http://www.w3.org/2000/svg" id="icons" viewBox="0 0 24 24"><path d="M0 0h24v24H0z" stroke-width="0" fill="none"/><path d="M14 15v1h-1.525l-1-1H14Zm-7.525-5H15v8.525l1 1V9H5.475l1 1ZM4 19h1v-1H4v1Zm5.475-6H14v-1H8.475l1 1ZM1.354 6.646l16 16-.708.708L15.293 22H2V9h.293L.646 7.354l.708-.708ZM3 21h11.293l-2-2H6v-1h5.293l-2-2H6v-1h2.293l-2-2H6v-.293L3.293 10H3v11Zm1-5h1v-1H4v1ZM20 3v18h-2.587a1.206 1.206 0 0 0-.176-.237L17 20.525V20h2V4h-2v2H7V4H5v4h-.525L4 7.525V3h3V2h3a2 2 0 1 1 4 0h3v1h3Zm-4 0h-3V1.615A.614.614 0 0 0 12.385 1h-.77a.614.614 0 0 0-.615.615V3H8v2h8V3ZM4 13h1v-1H4v1Z" stroke-width="0"/></svg>