<svg xmlns="http://www.w3.org/2000/svg" id="icons" viewBox="0 0 24 24"><path d="m19 5.42-2 1.457V5.64l2-1.456Zm-3 .948-2 1.456v1.237l2-1.456ZM7 8.109 5 6.785v1.2l2 1.323Zm3 1.985L8 8.771v1.2l2 1.323ZM22 5h-1v2h1Zm0 3h-1v2h1Zm-1-4h1V2l-2 1.456v1.237l1-.728Zm1 7h-1v2h1Zm-1 4.109 1 .73V14h-1ZM2 22h1v-2H2ZM13 8.552l-2 1.456v1.237l1-.728v-.007a1 1 0 0 1 1-1ZM10 22h2v-1h-2Zm-8-3h1v-2H2Zm16.757-1 2.189 4.515-2.894 1.456-2.266-4.621L13 23.17V10.51L23.266 18Zm-1.597-1h3.038L14 12.478v7.624l1.954-2.68 2.552 5.201 1.11-.559ZM4 22h2v-1H4Zm3 0h2v-1H7Zm-5-9h1v-2H2Zm0 3h1v-2H2Zm2-9.876L2 4.8V7h1v-.339l1 .662ZM2 10h1V8H2Z"/><path d="M0 0h24v24H0z" fill="none"/></svg>