<svg xmlns="http://www.w3.org/2000/svg" id="icons" viewBox="0 0 24 24"><path d="M0 0h24v24H0z" stroke-width="0" fill="none"/><path d="M5.033 6.935H3.23L2.447 13H1.211l.782-6.065H.38L.523 6h1.614l.294-1.89c.25-1.805 1.06-3.087 3.053-3.087.317 0 .699.064.918.19L6.071 2.32a2.273 2.273 0 0 0-.809-.158c-1.283 0-1.456.933-1.645 2.216L3.373 6h1.803l-.143.935ZM13.06 6h-1.518L9.708 8.206 8.386 6H6.754L8.67 8.973 5.04 13h1.55L9.37 9.771 11.29 13h1.646L10.41 8.973 13.06 6ZM21 6h-5.896l-.89 1H21v6.803l1 .812V2H8.19l-.3 1H21v3Zm-5 14H3v-6H2v7h14v-1Zm1 3.95 6.707-5.449L17 13.051V23.95Z" stroke-width="0"/></svg>