<svg xmlns="http://www.w3.org/2000/svg" id="icons" viewBox="0 0 24 24"><path d="M23 4v1h-3v3h-1V5h-3V4h3V1h1v3h3Zm-6 17h1v-1h-1v1Zm-2 0h1v-1h-1v1Zm0-10h1v-1h-1v1Zm2 1h1v-1h-1v1Zm3 6h1v-1h-1v1Zm1-3h-1v1h1v-1Zm-2 4h3v3h-3v-3Zm1 2h1v-1h-1v1Zm-1-10h3v3h-3v-3Zm1 2h1v-1h-1v1Zm-9-6h3v3h-1v9h1v3h-3v-1H5v1H2v-3h1V5H2V2h3v1.617l6 3.6V7ZM3 4h1V3H3v1Zm1 16H3v1h1v-1Zm8 0v1h1v-1h-1Zm0-11h1V8h-1v1Zm0 1h-1V8.383l-6-3.6V5H4v14h1v1h6v-1h1v-9Z" stroke-width="0"/><path d="M0 0h24v24H0z" stroke-width="0" fill="none"/></svg>