<svg xmlns="http://www.w3.org/2000/svg" viewBox="0 0 24 24"><path d="m21.323 8.616-4.94-4.94a1.251 1.251 0 0 0-1.767 0l-10.94 10.94a1.251 1.251 0 0 0 0 1.768l4.94 4.94a1.25 1.25 0 0 0 1.768 0l10.94-10.94a1.251 1.251 0 0 0 0-1.768zM14 5.707 19.293 11 11.5 18.793 6.207 13.5zm-4.323 14.91a.25.25 0 0 1-.354 0l-1.47-1.47.5-.5-2-2-.5.5-1.47-1.47a.25.25 0 0 1 0-.354L5.5 14.207l5.293 5.293zm10.94-10.94-.617.616L14.707 5l.616-.616a.25.25 0 0 1 .354 0l4.94 4.94a.25.25 0 0 1 0 .353zm1.394 6.265V18a3.003 3.003 0 0 1-3 3h-3.292l1.635 1.634-.707.707-2.848-2.847 2.848-2.848.707.707L15.707 20h3.304a2.002 2.002 0 0 0 2-2v-2.058zM4 9H3V7a3.003 3.003 0 0 1 3-3h3.293L7.646 2.354l.707-.707 2.848 2.847L8.354 7.34l-.707-.707L9.28 5H6a2.002 2.002 0 0 0-2 2z"/><path fill="none" d="M0 0h24v24H0z"/></svg>