<svg xmlns="http://www.w3.org/2000/svg" id="icons" viewBox="0 0 24 24"><path d="M0 0h24v24H0z" fill="none" stroke-width="0"/><path d="M22 20.718c0 .708-.574 1.282-1.282 1.282H4.282A1.282 1.282 0 0 1 3 20.718V4.282C3 3.574 3.574 3 4.282 3h16.436C21.426 3 22 3.574 22 4.282v16.436ZM7.5 15.85c-.91 0-1.65.74-1.65 1.65s.74 1.65 1.65 1.65 1.65-.74 1.65-1.65-.74-1.65-1.65-1.65Zm-1.5-6v1.3c4.34 0 7.87 3.51 7.88 7.83h1.3c-.01-5.03-4.13-9.13-9.18-9.13Zm0-4v1.3c6.41 0 11.84 5.42 11.85 11.83h1.3C19.14 11.86 13.12 5.85 6 5.85Z" stroke-width="0"/></svg>