<svg xmlns="http://www.w3.org/2000/svg" id="icons" viewBox="0 0 24 24"><path d="M0 0h24v24H0z" stroke-width="0" fill="none"/><path d="M21.42 1H2.585C1.71 1 1 1.71 1 2.585v18.838C1 22.293 1.706 23 2.577 23H21.42A1.58 1.58 0 0 0 23 21.42V2.58C23 1.71 22.29 1 21.42 1ZM22 21.212a.788.788 0 0 1-.788.788H2.79A.789.789 0 0 1 2 21.211V2.79A.79.79 0 0 1 2.79 2H21.21c.436 0 .789.353.789.789v18.423ZM20 6H9V5h11v1Zm0 6H9v-1h11v1Zm0 6H9v-1h11v1ZM4 4v4h4V4H4Zm3 3H5V5h2v2Zm-3 3v4h4v-4H4Zm3 3H5v-2h2v2Zm-3 3v4h4v-4H4Zm3 3H5v-2h2v2Z" stroke-width="0"/></svg>