<svg xmlns="http://www.w3.org/2000/svg" id="icons" viewBox="0 0 24 24"><path d="M0 0h24v24H0z" stroke-width="0" fill="none"/><path d="m12.113 20.225-.07.775H9.957l-.91-10h3.905l-.341 3.754c.31-.514.691-.979 1.13-1.383l.239-2.624L21 4.729V2H1v2.73l7.02 6.017L9.043 22h3.914l.02-.214a6.284 6.284 0 0 1-.864-1.56ZM2 3h18v1H2V3Zm6.685 7L2.85 5H19.15l-5.834 5h-4.63ZM18 13c-2.757 0-5 2.243-5 5s2.243 5 5 5 5-2.243 5-5-2.243-5-5-5Zm0 9c-2.205 0-4-1.795-4-4s1.795-4 4-4 4 1.795 4 4-1.795 4-4 4Zm2-4v1h-3v-4h1v3h2Z" stroke-width="0"/></svg>