<svg xmlns="http://www.w3.org/2000/svg" id="icons" viewBox="0 0 24 24"><path d="M23 4V1h-3v1h-6V1h-3v2.983L10.35 5h1.187l.639-1H14V3h6v1h1v15h-1v1h-1v1h1v1h3v-3h-1V4ZM13 3h-1V2h1Zm9 18h-1v-1h1ZM21 2h1v1h-1ZM11 21h1v2h-1Zm0-1v1H9v-1Zm1 0h2v1h-2Zm0 0h-1v-2h1Zm-7 0h2v1H5Zm11 0h2v1h-2ZM2 20h2v1H1v-1.318l.016-.011-.03-.019L2.042 18H3.23L2 19.923Zm3.877-8h1.186l-1.278 2H4.598Zm-2.009 5H2.681l1.278-2h1.187Zm5.751-9H8.433L9.71 6h1.187ZM7.794 9H8.98l-1.278 2H6.516Z"/><path d="M0 0h24v24H0z" fill="none"/></svg>