<svg xmlns="http://www.w3.org/2000/svg" id="icons" viewBox="0 0 24 24"><path d="M21 3H10V2h12v20h-4v-1h3V9a10.699 10.699 0 0 0-6.252 1.96c-.154-.249-.35-.542-.558-.837A11.73 11.73 0 0 1 21 8ZM2 2v2h1V3h1V2H2Zm4 20h2v-1H6Zm5 0h2v-1h-2ZM3 6H2v2h1Zm0 5H2v2h1Zm0 5H2v2h1Zm0 4H2v2h2v-1H3ZM7.067 4.046l.996-.09C8 3 8 3 8 2H6v1h1v.022c.017.362.038.7.067 1.024Zm6.774 10.168a13.604 13.604 0 0 0-.595-1.81l-.088-.21-.914.406.073.173a12.677 12.677 0 0 1 .553 1.68Zm.306 2.096-.996.091c.016.165.032.33.053.497a6.758 6.758 0 0 0 .413 1.631l.932-.365a5.747 5.747 0 0 1-.353-1.394c-.02-.155-.035-.307-.049-.46ZM7.397 6.142a7.701 7.701 0 0 0 .772 2.035l.87-.494a6.726 6.726 0 0 1-.67-1.774Zm4.47 4.237a11.45 11.45 0 0 0-.99-.802c-.211-.158-.424-.317-.632-.49l-.639.77c.222.183.447.352.671.52a10.747 10.747 0 0 1 .908.732Zm3.583 9.592-.888.457c.134.262.274.55.417.876l.305.696h1.257L16 21s-.405-.749-.55-1.03Z"/><path fill="none" d="M0 0h24v24H0z"/></svg>