<svg xmlns="http://www.w3.org/2000/svg" id="icons" viewBox="0 0 24 24"><path d="M5 4h1v1H5V4Zm2 1h1V4H7v1Zm15-3v8h-1V7H3v3h8v1H3v3h8v1H2V2h20Zm-1 1H3v3h18V3ZM5 8v1h1V8H5Zm2 0v1h1V8H7Zm-2 4v1h1v-1H5Zm2 0v1h1v-1H7Zm2-7h1V4H9v1Zm0 3v1h1V8H9Zm0 4v1h1v-1H9Zm13 0h-4.086l.293-.293L17.5 11 16 12.5l1.5 1.5.707-.707-.293-.293H22v8h-1v1h1a1 1 0 0 0 1-1v-8a1 1 0 0 0-1-1Zm-2.38 9.5-2.12 2.12L15.88 22H14c-.55 0-1-.45-1-1v-2h-1v-3h1v-2.09c-.58-.21-1-.76-1-1.41 0-.83.67-1.5 1.5-1.5s1.5.67 1.5 1.5c0 .65-.42 1.2-1 1.41V16h1v3h-1v2h1.88l1.62-1.62 2.12 2.12ZM13 13h1v-1h-1v1Zm1 5v-1h-1v1h1Zm3.5 4.21.71-.71-.71-.71-.71.71.71.71Z"/><path fill="none" d="M0 0h24v24H0z"/></svg>